<svg width="21" height="21" viewBox="0 0 21 21" fill="none" xmlns="http://www.w3.org/2000/svg">
<path d="M4.1029 6.38016C4.91184 6.38016 5.56762 5.70394 5.56762 4.86977C5.56762 4.0356 4.91184 3.35938 4.1029 3.35938C3.29396 3.35938 2.63818 4.0356 2.63818 4.86977C2.63818 5.70394 3.29396 6.38016 4.1029 6.38016Z" fill="black"/>
<path d="M7.5625 11.698H7.43183L5.93184 7.44434H2.84827V11.698H0V18.4329C0.000614137 18.9968 0.21811 19.5374 0.604771 19.9361C0.991431 20.3348 1.51568 20.5591 2.0625 20.5597H18.5625C19.1093 20.5591 19.6336 20.3348 20.0202 19.9361C20.4069 19.5374 20.6244 18.9968 20.625 18.4329V11.698H7.5625ZM19.25 18.4329C19.2498 18.6208 19.1773 18.801 19.0484 18.9339C18.9195 19.0668 18.7448 19.1416 18.5625 19.1418H2.0625C1.88023 19.1416 1.70549 19.0668 1.5766 18.9339C1.44772 18.801 1.37522 18.6208 1.375 18.4329V13.1158H19.25V18.4329Z" fill="black"/>
<path d="M12.0312 8.1528C12.0311 7.9759 12.0814 7.80286 12.1758 7.65518C12.2703 7.5075 12.4047 7.39167 12.5624 7.3221L13.0729 7.09652C13.4779 6.9175 13.823 6.61989 14.0655 6.24058C14.308 5.86127 14.4373 5.41693 14.4373 4.96259C14.4373 4.50826 14.308 4.06392 14.0655 3.68461C13.823 3.30529 13.4779 3.00769 13.0729 2.82867L12.5624 2.60305C12.4047 2.53347 12.2703 2.41765 12.1758 2.26997C12.0814 2.12228 12.0311 1.94925 12.0312 1.77235V0H10.6562V1.77235C10.6559 2.22678 10.7851 2.6713 11.0277 3.05068C11.2703 3.43005 11.6156 3.72757 12.0208 3.90625L12.5313 4.13187C12.689 4.20156 12.8234 4.31742 12.9178 4.4651C13.0122 4.61278 13.0625 4.78577 13.0625 4.96266C13.0625 5.13955 13.0122 5.31255 12.9178 5.46022C12.8234 5.6079 12.689 5.72376 12.5313 5.79345L12.0208 6.01902C11.6156 6.19771 11.2703 6.49521 11.0277 6.87456C10.7851 7.25391 10.656 7.69839 10.6562 8.1528V10.2796H12.0312V8.1528ZM16.8438 8.1528C16.8436 7.9759 16.8939 7.80286 16.9883 7.65518C17.0828 7.5075 17.2172 7.39167 17.3749 7.3221L17.8854 7.09652C18.2904 6.9175 18.6355 6.61989 18.878 6.24058C19.1205 5.86127 19.2498 5.41693 19.2498 4.96259C19.2498 4.50826 19.1205 4.06392 18.878 3.68461C18.6355 3.30529 18.2904 3.00769 17.8854 2.82867L17.3749 2.60305C17.2172 2.53347 17.0828 2.41765 16.9883 2.26997C16.8939 2.12228 16.8436 1.94925 16.8438 1.77235V0H15.4688V1.77235C15.4684 2.22678 15.5976 2.6713 15.8402 3.05068C16.0828 3.43005 16.4281 3.72757 16.8333 3.90625L17.3438 4.13187C17.5015 4.20156 17.6359 4.31742 17.7303 4.4651C17.8247 4.61278 17.875 4.78577 17.875 4.96266C17.875 5.13955 17.8247 5.31255 17.7303 5.46022C17.6359 5.6079 17.5015 5.72376 17.3438 5.79345L16.8333 6.01902C16.4281 6.19771 16.0828 6.49521 15.8402 6.87456C15.5976 7.25391 15.4685 7.69839 15.4688 8.1528V10.2796H16.8438V8.1528ZM3.4375 14.5332H4.8125V17.7235H3.4375V14.5332ZM7.5625 14.5332H8.9375V17.7235H7.5625V14.5332ZM11.6875 14.5332H13.0625V17.7235H11.6875V14.5332ZM15.8125 14.5332H17.1875V17.7235H15.8125V14.5332Z" fill="black"/>
</svg>
