<svg width="20" height="19" viewBox="0 0 20 19" fill="none" xmlns="http://www.w3.org/2000/svg">
<path d="M13.2939 15.4507C13.9832 14.6748 14.6667 13.905 15.6317 13.5723C16.0868 13.4055 16.5747 13.3569 17.0523 13.4307C17.5299 13.5046 17.9824 13.6986 18.37 13.9958C19.4319 14.8004 20.4087 13.663 19.2368 12.7768C18.6593 12.339 17.9875 12.0521 17.2789 11.9406C16.5703 11.8292 15.8461 11.8966 15.1683 12.137C14.1123 12.5 13.3892 13.297 12.6676 14.0941C12.0809 14.7399 11.4943 15.3872 10.7287 15.8016C9.81933 16.2916 9.16667 15.7608 9.16667 14.8397V14.8216C9.16667 13.6147 8.56827 12.8554 7.33333 12.8554C6.61467 12.8554 5.8784 13.2456 5.13333 13.6116C3.39149 14.4685 1.75774 15.5417 0.2684 16.8073C0.118818 16.9363 0.0246065 17.121 0.00620945 17.3211C-0.0121876 17.5213 0.0467146 17.7209 0.170133 17.8766C0.5368 18.3303 1.0208 18.1216 1.38747 17.8191C1.9932 17.3155 3.99813 15.7154 5.6892 14.8851C6.3888 14.5418 6.95347 14.3678 7.33333 14.3678C7.7 14.3678 7.7 14.5221 7.7 14.882C7.69707 16.8875 9.592 18.1216 11.4092 17.1416C12.1484 16.7408 12.7233 16.095 13.2939 15.4507ZM2.2 12.0992C4.4 10.5868 6.974 9.07442 9.53333 9.07442C10.6333 9.07442 10.6333 9.64157 10.6333 10.2087C10.6333 10.7759 10.6333 11.343 11.7333 11.343C15.4396 11.343 19.5991 6.48216 19.8 3.02481L16.1333 4.53721L12.6984 3.06413C11.8008 2.7556 11.3373 4.18936 12.2349 4.49789L13.9333 5.29341L11.7333 6.04961L5.86667 4.15911C5.52053 4.03963 5.29613 4.19994 5.13333 4.53721L2.93333 9.07442L0 10.5868L2.2 12.0992ZM5.86667 1.5124C5.86667 1.11129 6.02119 0.726603 6.29624 0.442973C6.5713 0.159342 6.94435 0 7.33333 0C7.72232 0 8.09537 0.159342 8.37042 0.442973C8.64548 0.726603 8.8 1.11129 8.8 1.5124C8.8 1.91352 8.64548 2.2982 8.37042 2.58183C8.09537 2.86546 7.72232 3.02481 7.33333 3.02481C6.94435 3.02481 6.5713 2.86546 6.29624 2.58183C6.02119 2.2982 5.86667 1.91352 5.86667 1.5124Z" fill="black"/>
</svg>
