<svg width="22" height="23" viewBox="0 0 22 23" fill="none" xmlns="http://www.w3.org/2000/svg">
<path d="M7.09501 4.261C8.07217 4.12219 8.76563 3.05596 8.65013 1.88279C8.53463 0.709082 7.64684 -0.123265 6.66967 0.0150096C5.69251 0.161386 5.0018 1.22005 5.1173 2.39322C5.2383 3.56747 6.11784 4.39982 7.09501 4.261ZM21.7351 14.341C21.6407 14.2843 14.3802 9.85625 14.3802 9.85625L12.5368 7.00488L12.4227 6.97301C12.1711 6.69593 11.9167 6.72131 11.4583 7.02379V7.03027C11.4583 7.25712 11.3566 7.59147 11.4836 7.86315L12.8952 9.9821L12.9232 10.0015L11.8003 13.1235L8.79726 12.221L8.66892 10.9273L11.1435 10.5687C11.2539 10.5627 11.3699 10.5244 11.4748 10.4553C11.8851 10.1971 12.0427 9.58456 11.8273 9.09304C11.7503 8.91472 11.6294 8.76804 11.4803 8.6723C11.3313 8.57656 11.1611 8.53626 10.9922 8.55669L8.47184 8.92236L8.24588 6.67702C8.12534 5.50979 7.23709 4.67096 6.26542 4.80978C5.29146 4.95507 4.5925 6.02184 4.708 7.19447L5.23325 12.3857C5.2655 12.7028 5.35627 13.0077 5.49919 13.2791C5.64211 13.5505 5.83372 13.7816 6.06055 13.9564L2.10192 14.5241L0.867626 18.1948L1.00925 18.1387C1.52022 17.854 2.07803 17.7052 2.64321 17.7028C3.20434 17.7053 3.75829 17.8516 4.26663 18.1316C4.587 18.3077 4.939 18.3963 5.28046 18.3963C5.62467 18.3963 5.97117 18.3077 6.28651 18.1381C6.79727 17.8528 7.35522 17.7039 7.92047 17.7022C8.4796 17.7041 9.03157 17.8505 9.53747 18.1311C9.86288 18.3072 10.2149 18.3958 10.5568 18.3958C10.9033 18.3958 11.2448 18.3072 11.5651 18.1376C12.0748 17.8535 12.6427 17.7017 13.1991 17.7017C13.7555 17.7017 14.3179 17.8529 14.817 18.1306C14.938 18.1932 15.0696 18.2375 15.2006 18.2818C17.2233 17.6434 20.8061 16.4146 21.7722 15.3737C22.0555 15.0723 22.1086 14.5614 21.7351 14.341ZM0 22.686C0.450086 22.6847 0.894595 22.5686 1.30304 22.3458C1.70729 22.1184 2.16471 21.9866 2.64275 21.9866C3.12079 21.9866 3.57271 22.1184 3.98246 22.3458C4.37617 22.5602 4.81755 22.686 5.28 22.686C5.72911 22.6837 6.17254 22.5676 6.5803 22.3458C6.99859 22.1099 7.45631 21.9872 7.92001 21.9866C8.39301 21.9866 8.84997 22.1184 9.25834 22.3458C9.65251 22.5597 10.0939 22.686 10.5563 22.686C11.0062 22.684 11.4504 22.5679 11.8589 22.3458C12.2774 22.1101 12.7353 21.9873 13.1991 21.9866C13.6716 21.9866 14.1291 22.1184 14.5333 22.3458C14.9321 22.5602 15.3734 22.686 15.8354 22.686C16.2983 22.686 16.7393 22.5602 17.1334 22.3458C17.5522 22.1114 18.0096 21.9888 18.4731 21.9866C18.9507 21.9866 19.3926 22.1184 19.7964 22.3458C20.1905 22.5602 20.625 22.686 21.0834 22.686V20.3456C20.625 20.3456 20.1905 20.2209 19.7959 20.0059C19.3804 19.7717 18.9255 19.6507 18.4649 19.6521C17.9923 19.6521 17.5391 19.778 17.1293 20.0059C16.7233 20.2286 16.281 20.3445 15.8331 20.3456C15.3837 20.344 14.9399 20.2281 14.5319 20.0059C14.1153 19.7723 13.6596 19.6515 13.1982 19.6521C12.7197 19.6521 12.2632 19.778 11.858 20.0059C11.4497 20.2279 11.0056 20.3437 10.5559 20.3456C10.1076 20.3447 9.66481 20.2288 9.25834 20.0059C8.83993 19.7728 8.38283 19.6519 7.92001 19.6521C7.45663 19.6507 6.99886 19.7716 6.5803 20.0059C6.17252 20.2276 5.72908 20.3435 5.28 20.3456C4.83169 20.3448 4.38891 20.2288 3.98246 20.0059C3.57271 19.778 3.12079 19.6521 2.64275 19.6521C2.16471 19.6521 1.70729 19.778 1.30304 20.0059C0.894634 20.2288 0.450078 20.3447 0 20.3456V22.686Z" fill="black"/>
</svg>
