<svg width="19" height="25" viewBox="0 0 19 25" fill="none" xmlns="http://www.w3.org/2000/svg">
<path d="M19 12.7899V12.2101C18.9991 10.5634 18.4698 8.98446 17.5284 7.82009C16.587 6.65571 15.3104 6.00109 13.979 6H5.021C3.68962 6.00109 2.41302 6.65571 1.47159 7.82009C0.53016 8.98446 0.000880835 10.5634 0 12.2101L0 12.7899C0.000880835 14.4366 0.53016 16.0155 1.47159 17.1799C2.41302 18.3443 3.68962 18.9989 5.021 19H13.979C15.3104 18.9989 16.587 18.3443 17.5284 17.1799C18.4698 16.0155 18.9991 14.4366 19 12.7899ZM5.40173 17.6202C4.30378 17.6202 3.2508 17.0808 2.47443 16.1205C1.69806 15.1603 1.2619 13.858 1.2619 12.5C1.2619 11.142 1.69806 9.83969 2.47443 8.87946C3.2508 7.91923 4.30378 7.37978 5.40173 7.37978H13.5991C14.6971 7.37978 15.75 7.91923 16.5264 8.87946C17.3028 9.83969 17.7389 11.142 17.7389 12.5C17.7389 13.858 17.3028 15.1603 16.5264 16.1205C15.75 17.0808 14.6971 17.6202 13.5991 17.6202C12.6186 17.4632 11.7254 16.8427 11.1069 15.8888L11.1011 15.8795C10.9342 15.6613 10.733 15.4875 10.5098 15.3689C10.2867 15.2503 10.0463 15.1893 9.80342 15.1897C9.27721 15.1897 8.80504 15.4703 8.47751 15.9176L8.47585 15.9196C8.09021 16.4554 7.61716 16.8841 7.08787 17.1774C6.55857 17.4707 5.98504 17.622 5.40506 17.6212H5.40007L5.40173 17.6202Z" fill="black"/>
<path d="M16.4995 0.00208359H14.9209C14.7871 0.0026329 14.659 0.0688851 14.5645 0.186382C14.4699 0.303879 14.4166 0.463081 14.4162 0.629245V3.963C14.4162 4.28908 14.6182 4.55682 14.8747 4.58286H14.8764V16.6115C14.8753 17.8373 14.483 19.0125 13.7854 19.8792C13.0879 20.746 12.1422 21.2336 11.1558 21.2349H6.2329C6.06719 20.7333 5.78535 20.3042 5.42311 20.0018C5.06087 19.6995 4.63454 19.5377 4.19819 19.5368C3.61519 19.5368 3.05608 19.8246 2.64383 20.3369C2.23159 20.8492 2 21.5439 2 22.2684C2 22.9929 2.23159 23.6877 2.64383 24.1999C3.05608 24.7122 3.61519 25 4.19819 25H4.20406C4.63752 25 5.06123 24.84 5.4215 24.5405C5.78178 24.241 6.06241 23.8154 6.22787 23.3175L6.2329 23.2998H11.1558C12.5847 23.2981 13.9547 22.5921 14.9652 21.3366C15.9757 20.0811 16.5441 18.3788 16.5456 16.6031V4.58391C16.6698 4.56963 16.7852 4.49828 16.8692 4.38382C16.9533 4.26935 16.9999 4.12003 17 3.96508V0.622994C17 0.458126 16.9474 0.29998 16.8538 0.183206C16.7601 0.0664315 16.633 0.000551398 16.5003 0L16.4995 0.00208359Z" fill="black"/>
</svg>
