<svg width="22" height="22" viewBox="0 0 22 22" fill="none" xmlns="http://www.w3.org/2000/svg">
<path d="M3.4375 18.5625C3.4375 18.3802 3.50993 18.2053 3.63886 18.0764C3.7678 17.9474 3.94266 17.875 4.125 17.875H17.875C18.0573 17.875 18.2322 17.9474 18.3611 18.0764C18.4901 18.2053 18.5625 18.3802 18.5625 18.5625C18.5625 18.7448 18.4901 18.9197 18.3611 19.0486C18.2322 19.1776 18.0573 19.25 17.875 19.25H4.125C3.94266 19.25 3.7678 19.1776 3.63886 19.0486C3.50993 18.9197 3.4375 18.7448 3.4375 18.5625ZM19.2376 4.125L19.2706 4.12637C19.5275 4.14387 19.7787 4.21062 20.0104 4.323C20.1772 4.40066 20.3205 4.52117 20.4256 4.67225C20.5177 4.80975 20.625 5.05312 20.625 5.5V13.7376L20.6236 13.7706C20.606 14.0275 20.5393 14.2786 20.427 14.5104C20.3493 14.6772 20.2288 14.8205 20.0778 14.9256C19.9403 15.0177 19.6969 15.125 19.25 15.125H2.76238L2.72938 15.1236C2.47249 15.106 2.22136 15.0393 1.98962 14.927C1.8228 14.8493 1.67953 14.7288 1.57437 14.5778C1.48225 14.4403 1.375 14.1969 1.375 13.75V5.51237L1.37638 5.47937C1.39387 5.22246 1.46062 4.97132 1.573 4.73962C1.65071 4.5728 1.77121 4.42953 1.92225 4.32437C2.05975 4.23225 2.30312 4.125 2.75 4.125H19.2376ZM19.25 2.75H2.75C0 2.75 0 5.5 0 5.5V13.75C0 16.5 2.75 16.5 2.75 16.5H19.25C22 16.5 22 13.75 22 13.75V5.5C22 2.75 19.25 2.75 19.25 2.75Z" fill="black"/>
</svg>
