<svg width="22" height="22" viewBox="0 0 22 22" fill="none" xmlns="http://www.w3.org/2000/svg">
<g clip-path="url(#clip0_450_17924)">
<path d="M19.25 10.9765H19.228L17.4912 7.06836C17.3289 6.70394 17.0645 6.39435 16.73 6.17702C16.3955 5.95969 16.0052 5.84393 15.6063 5.84375H6.39375C5.99487 5.84396 5.60458 5.95973 5.2701 6.17706C4.93562 6.39439 4.67127 6.70397 4.50901 7.06836L2.77196 10.9765H2.75C2.38545 10.9769 2.03595 11.1219 1.77818 11.3797C1.52041 11.6375 1.37541 11.987 1.375 12.3515V17.164C1.37541 17.5286 1.52041 17.8781 1.77818 18.1359C2.03595 18.3936 2.38545 18.5386 2.75 18.539V20.2812C2.75032 20.5547 2.85907 20.8168 3.0524 21.0101C3.24573 21.2034 3.50784 21.3122 3.78125 21.3125H6.1875C6.46091 21.3122 6.72302 21.2034 6.91635 21.0101C7.10968 20.8168 7.21843 20.5547 7.21875 20.2812V18.539H14.7812V20.2812C14.7816 20.5547 14.8903 20.8168 15.0836 21.0101C15.277 21.2034 15.5391 21.3122 15.8125 21.3125H18.2188C18.4922 21.3122 18.7543 21.2034 18.9476 21.0101C19.1409 20.8168 19.2497 20.5547 19.25 20.2812V18.539C19.6145 18.5386 19.964 18.3936 20.2218 18.1359C20.4796 17.8781 20.6246 17.5286 20.625 17.164V12.3515C20.6246 11.987 20.4796 11.6375 20.2218 11.3797C19.964 11.1219 19.6145 10.9769 19.25 10.9765ZM5.76533 7.62695C5.81942 7.50546 5.90757 7.40224 6.0191 7.3298C6.13062 7.25735 6.26076 7.21878 6.39375 7.21875H15.6063C15.7392 7.21882 15.8693 7.25741 15.9808 7.32985C16.0923 7.40229 16.1804 7.50549 16.2345 7.62695L17.7232 10.9765H4.27664L5.76533 7.62695ZM5.84375 19.9375H4.125V18.539H5.84375V19.9375ZM17.875 19.9375H16.1562V18.539H17.875V19.9375ZM19.25 17.164H2.75V12.3515H19.25V17.164Z" fill="black"/>
<path d="M4.125 14.0934H7.5625V15.4684H4.125V14.0934ZM14.4375 14.0934H17.875V15.4684H14.4375V14.0934ZM11 0.633789L0.6875 4.77439V6.25608L11 2.11552L21.3125 6.25608V4.77439L11 0.633789Z" fill="black"/>
</g>
<defs>
<clipPath id="clip0_450_17924">
<rect width="22" height="22" fill="white"/>
</clipPath>
</defs>
</svg>
