<svg width="22" height="22" viewBox="0 0 22 22" fill="none" xmlns="http://www.w3.org/2000/svg">
<path d="M4.79034 7.56225C5.59928 7.56225 6.25506 6.90647 6.25506 6.09753C6.25506 5.28859 5.59928 4.63281 4.79034 4.63281C3.9814 4.63281 3.32562 5.28859 3.32562 6.09753C3.32562 6.90647 3.9814 7.56225 4.79034 7.56225Z" fill="black"/>
<path d="M8.25 12.7188H8.11933L6.61934 8.59375H3.53577V12.7188H0.6875V19.25C0.688114 19.7968 0.90561 20.3211 1.29227 20.7077C1.67893 21.0944 2.20318 21.3119 2.75 21.3125H19.25C19.7968 21.3119 20.3211 21.0944 20.7077 20.7077C21.0944 20.3211 21.3119 19.7968 21.3125 19.25V12.7188H8.25ZM19.9375 19.25C19.9373 19.4323 19.8648 19.607 19.7359 19.7359C19.607 19.8648 19.4323 19.9373 19.25 19.9375H2.75C2.56773 19.9373 2.39299 19.8648 2.2641 19.7359C2.13522 19.607 2.06272 19.4323 2.0625 19.25V14.0938H19.9375V19.25Z" fill="black"/>
<path d="M12.7188 9.28125C12.7186 9.1097 12.7689 8.9419 12.8633 8.79868C12.9578 8.65546 13.0922 8.54314 13.2499 8.47567L13.7604 8.25692C14.1654 8.08331 14.5105 7.7947 14.753 7.42686C14.9955 7.05902 15.1248 6.62811 15.1248 6.18752C15.1248 5.74693 14.9955 5.31602 14.753 4.94818C14.5105 4.58034 14.1654 4.29174 13.7604 4.11812L13.2499 3.89933C13.0922 3.83186 12.9578 3.71954 12.8633 3.57632C12.7689 3.4331 12.7186 3.2653 12.7188 3.09375V1.375H11.3438V3.09375C11.3434 3.53444 11.4726 3.96552 11.7152 4.33342C11.9578 4.70132 12.3031 4.98984 12.7083 5.16313L13.2188 5.38192C13.3765 5.4495 13.5109 5.56186 13.6053 5.70507C13.6997 5.84828 13.75 6.01605 13.75 6.18759C13.75 6.35912 13.6997 6.52689 13.6053 6.6701C13.5109 6.81331 13.3765 6.92567 13.2188 6.99325L12.7083 7.212C12.3031 7.38529 11.9578 7.67379 11.7152 8.04166C11.4726 8.40954 11.3435 8.84058 11.3438 9.28125V11.3438H12.7188V9.28125ZM17.5312 9.28125C17.5311 9.1097 17.5814 8.9419 17.6758 8.79868C17.7703 8.65546 17.9047 8.54314 18.0624 8.47567L18.5729 8.25692C18.9779 8.08331 19.323 7.7947 19.5655 7.42686C19.808 7.05902 19.9373 6.62811 19.9373 6.18752C19.9373 5.74693 19.808 5.31602 19.5655 4.94818C19.323 4.58034 18.9779 4.29174 18.5729 4.11812L18.0624 3.89933C17.9047 3.83186 17.7703 3.71954 17.6758 3.57632C17.5814 3.4331 17.5311 3.2653 17.5312 3.09375V1.375H16.1562V3.09375C16.1559 3.53444 16.2851 3.96552 16.5277 4.33342C16.7703 4.70132 17.1156 4.98984 17.5208 5.16313L18.0313 5.38192C18.189 5.4495 18.3234 5.56186 18.4178 5.70507C18.5122 5.84828 18.5625 6.01605 18.5625 6.18759C18.5625 6.35912 18.5122 6.52689 18.4178 6.6701C18.3234 6.81331 18.189 6.92567 18.0313 6.99325L17.5208 7.212C17.1156 7.38529 16.7703 7.67379 16.5277 8.04166C16.2851 8.40954 16.156 8.84058 16.1562 9.28125V11.3438H17.5312V9.28125ZM4.125 15.4688H5.5V18.5625H4.125V15.4688ZM8.25 15.4688H9.625V18.5625H8.25V15.4688ZM12.375 15.4688H13.75V18.5625H12.375V15.4688ZM16.5 15.4688H17.875V18.5625H16.5V15.4688Z" fill="black"/>
</svg>
