<svg width="28" height="28" viewBox="0 0 28 28" fill="none" xmlns="http://www.w3.org/2000/svg">
<g clip-path="url(#clip0_450_17892)">
<path d="M26.0944 6.37789C22.5034 4.00423 18.2913 2.74389 13.9867 2.75496C9.68207 2.76602 5.47657 4.04802 1.89776 6.44011C1.81299 6.49731 1.74031 6.57064 1.68387 6.65593C1.62744 6.74121 1.58836 6.83678 1.56886 6.93717C1.52947 7.13992 1.57225 7.35001 1.68776 7.52122C1.80328 7.69243 1.98208 7.81074 2.18483 7.85012C2.38757 7.88951 2.59766 7.84674 2.76887 7.73122C6.09319 5.5118 9.99856 4.32277 13.9957 4.31308C17.9928 4.3034 21.9038 5.47349 25.2389 7.67677C25.4111 7.78617 25.6194 7.82351 25.819 7.78073C26.0185 7.73794 26.1932 7.61847 26.3054 7.44807C26.4177 7.27767 26.4584 7.06999 26.419 6.86979C26.3795 6.6696 26.2629 6.49294 26.0944 6.37789Z" fill="black"/>
<path d="M14.0389 8.3379C10.7545 8.33383 7.54715 9.3324 4.84555 11.2001C4.72319 11.3308 4.64965 11.4997 4.63734 11.6783C4.62503 11.8568 4.6747 12.0342 4.77797 12.1804C4.88124 12.3267 5.03178 12.4328 5.20421 12.4809C5.37663 12.529 5.56037 12.5162 5.72443 12.4446C8.16226 10.7776 11.0467 9.88566 14 9.88566C16.9533 9.88566 19.8377 10.7776 22.2755 12.4446C22.4457 12.542 22.6463 12.5717 22.8373 12.5275C23.0283 12.4834 23.1956 12.3687 23.3057 12.2065C23.4158 12.0443 23.4606 11.8465 23.4311 11.6527C23.4016 11.4589 23.3 11.2833 23.1467 11.1612C20.4644 9.32428 17.2899 8.3402 14.0389 8.3379Z" fill="black"/>
<path d="M14.0389 13.9219C11.799 13.9257 9.61885 14.6451 7.81664 15.9752C7.66462 16.1019 7.56661 16.2818 7.54257 16.4783C7.51853 16.6747 7.57027 16.8729 7.68726 17.0325C7.80424 17.1921 7.97768 17.3012 8.17223 17.3374C8.36679 17.3736 8.56783 17.3343 8.73442 17.2275C10.2662 16.0969 12.1172 15.4817 14.021 15.4706C15.9247 15.4594 17.7828 16.0528 19.3278 17.1652C19.4082 17.2428 19.5044 17.3021 19.6099 17.3391C19.7153 17.3761 19.8275 17.3899 19.9388 17.3797C20.0501 17.3694 20.1578 17.3353 20.2547 17.2797C20.3516 17.2241 20.4354 17.1482 20.5004 17.0573C20.5653 16.9663 20.6099 16.8625 20.6311 16.7528C20.6523 16.643 20.6496 16.53 20.6232 16.4215C20.5968 16.3129 20.5473 16.2113 20.4781 16.1235C20.4089 16.0358 20.3216 15.964 20.2222 15.913C18.4229 14.6134 16.2585 13.9164 14.0389 13.9219Z" fill="black"/>
<path d="M14 18.9932C13.3847 18.9932 12.7832 19.1756 12.2716 19.5175C11.76 19.8593 11.3612 20.3452 11.1257 20.9137C10.8903 21.4822 10.8287 22.1077 10.9487 22.7112C11.0687 23.3147 11.365 23.8691 11.8001 24.3042C12.2352 24.7393 12.7896 25.0356 13.3931 25.1556C13.9966 25.2756 14.6221 25.214 15.1906 24.9786C15.7591 24.7431 16.245 24.3443 16.5868 23.8327C16.9287 23.3211 17.1111 22.7196 17.1111 22.1043C17.1111 21.2792 16.7834 20.4878 16.1999 19.9044C15.6165 19.3209 14.8251 18.9932 14 18.9932ZM14 23.6598C13.6924 23.6598 13.3916 23.5686 13.1358 23.3977C12.88 23.2267 12.6806 22.9838 12.5629 22.6996C12.4451 22.4153 12.4143 22.1025 12.4744 21.8008C12.5344 21.4991 12.6825 21.2219 12.9001 21.0043C13.1176 20.7868 13.3948 20.6386 13.6966 20.5786C13.9983 20.5186 14.3111 20.5494 14.5953 20.6671C14.8796 20.7849 15.1225 20.9842 15.2934 21.2401C15.4644 21.4959 15.5556 21.7966 15.5556 22.1043C15.5556 22.5168 15.3917 22.9125 15.1 23.2042C14.8082 23.4959 14.4126 23.6598 14 23.6598Z" fill="black"/>
</g>
<defs>
<clipPath id="clip0_450_17892">
<rect width="28" height="28" rx="14" fill="white"/>
</clipPath>
</defs>
</svg>
