<svg width="28" height="28" viewBox="0 0 28 28" fill="none" xmlns="http://www.w3.org/2000/svg">
<path d="M24.3594 14.9566L24.5718 14.5832C26.8275 10.6772 25.4894 5.68273 21.5834 3.42756C17.6768 1.1724 12.6823 2.51056 10.4271 6.41656L10.3536 6.54373C10.2376 6.74346 10.2046 6.98073 10.2616 7.20456C10.3187 7.42838 10.4612 7.62089 10.6587 7.74073L16.3299 11.1672L13.188 16.3694C10.4405 16.6115 8.09261 18.0698 6.82969 20.1331C7.08904 20.1092 7.35051 20.1391 7.59781 20.2208C7.8451 20.3025 8.07291 20.4343 8.26703 20.6079C9.41736 18.9536 11.494 17.7916 14 17.7916C16.5066 17.7916 18.5839 18.9541 19.7342 20.6091C19.928 20.4353 20.1556 20.3033 20.4027 20.2213C20.6498 20.1393 20.9111 20.1091 21.1704 20.1325C19.9191 18.0885 17.6027 16.6383 14.8873 16.3758L17.5776 11.9215L23.1374 15.2803C23.2383 15.341 23.3505 15.3808 23.4671 15.3974C23.5837 15.414 23.7025 15.407 23.8164 15.3769C23.9303 15.3468 24.037 15.2941 24.1302 15.222C24.2233 15.1499 24.3011 15.0598 24.3589 14.9571L24.3594 14.9566ZM21.9777 5.50365C24.2585 7.54415 24.9054 10.9491 23.3824 13.7251L20.5392 12.0072L20.5491 11.9909C20.6191 11.8801 20.7136 11.722 20.8221 11.5201C21.0391 11.1171 21.3127 10.5378 21.5472 9.82265C21.9205 8.68573 22.1994 7.18773 21.9777 5.50365ZM19.495 4.09373C18.2414 4.65723 17.1594 5.58998 16.3567 6.42123C15.7481 7.05344 15.1897 7.73216 14.6866 8.45123L14.6767 8.46465L11.9088 6.79223C13.5742 4.27573 16.6927 3.21815 19.495 4.09373ZM15.9279 9.22065C16.3747 8.58901 16.8685 7.99193 17.4049 7.43448C18.2671 6.54198 19.3352 5.67865 20.4645 5.27381C20.7626 6.85873 20.517 8.28556 20.1618 9.36765C19.9968 9.87184 19.788 10.3606 19.5376 10.8283C19.4605 10.9726 19.3782 11.114 19.2909 11.2524L15.9279 9.22065ZM21.4078 21.4164C21.2911 21.3378 21.1541 21.2947 21.0134 21.2921H20.9849C20.8345 21.2955 20.6889 21.3451 20.5678 21.4343C20.4467 21.5234 20.356 21.6478 20.3082 21.7903L20.3076 21.7921C20.2825 21.8597 19.5516 23.9166 17.5 23.9166C15.4467 23.9166 14.7204 21.8749 14.6919 21.7897C14.6435 21.6445 14.5507 21.5181 14.4265 21.4286C14.3023 21.3391 14.1531 21.2909 14 21.2909C13.8469 21.2909 13.6977 21.3391 13.5736 21.4286C13.4494 21.5181 13.3565 21.6445 13.3082 21.7897L13.3076 21.7915C13.2825 21.8597 12.5516 23.9166 10.5 23.9166C8.44669 23.9166 7.72044 21.8749 7.69419 21.7897C7.64688 21.647 7.55638 21.5224 7.43519 21.4333C7.3141 21.3442 7.16843 21.2947 7.01811 21.2916H7.00528C6.85701 21.291 6.71208 21.3356 6.58983 21.4195C6.46758 21.5034 6.37381 21.6226 6.32103 21.7611C6.31111 21.7874 5.30719 24.3541 3.06486 24.3541C2.87147 24.3541 2.68601 24.4309 2.54926 24.5676C2.41252 24.7044 2.33569 24.8898 2.33569 25.0832C2.33569 25.2766 2.41252 25.4621 2.54926 25.5988C2.68601 25.7356 2.87147 25.8124 3.06486 25.8124C3.85801 25.7893 4.63295 25.5693 5.3199 25.1721C6.00685 24.775 6.58422 24.2132 7.00003 23.5374C7.39167 24.1031 7.91456 24.5655 8.52394 24.885C9.13333 25.2045 9.81105 25.3716 10.4991 25.3719C11.1872 25.3723 11.8651 25.2059 12.4748 24.887C13.0845 24.5681 13.6078 24.1062 14 23.5409C14.3922 24.1062 14.9156 24.5681 15.5253 24.887C16.135 25.2059 16.8129 25.3723 17.5009 25.3719C18.189 25.3716 18.8667 25.2045 19.4761 24.885C20.0855 24.5655 20.6084 24.1031 21 23.5374C21.416 24.2136 21.9937 24.7756 22.6811 25.1727C23.3685 25.5699 24.144 25.7897 24.9375 25.8124C25.1309 25.8124 25.3164 25.7356 25.4531 25.5988C25.5899 25.4621 25.6667 25.2766 25.6667 25.0832C25.6667 24.8898 25.5899 24.7044 25.4531 24.5676C25.3164 24.4309 25.1309 24.3541 24.9375 24.3541C23.4909 24.3541 22.5529 23.2673 22.071 22.5008V22.4996C21.9209 22.2648 21.7907 22.0178 21.6819 21.7611C21.6284 21.6205 21.5326 21.4999 21.4078 21.4158V21.4164Z" fill="black"/>
</svg>
