<svg width="29" height="34" viewBox="0 0 29 34" fill="none" xmlns="http://www.w3.org/2000/svg">
<path d="M14.1547 17.7083C11.7985 17.7083 11.6172 19.125 10.1189 19.125C8.68099 19.125 8.40308 17.7083 6.09516 17.7083C3.73891 17.7083 3.56974 19.125 2.07141 19.125V21.9583C4.36724 21.9583 4.69349 20.5417 6.11933 20.5417C7.55724 20.5417 7.83516 21.9583 10.1431 21.9583C12.4993 21.9583 12.6564 20.5417 14.1547 20.5417C15.6531 20.5417 15.8102 21.9583 18.1664 21.9583C20.4743 21.9583 20.7522 20.5417 22.1902 20.5417C23.616 20.5417 23.9422 21.9583 26.2381 21.9583V19.125C24.7397 19.125 24.5706 17.7083 22.2143 17.7083C19.9064 17.7083 19.6285 19.125 18.1906 19.125C16.6922 19.125 16.511 17.7083 14.1547 17.7083ZM24.2322 11.1067L22.5768 13.0475C22.3472 13.3025 22.0331 13.4583 21.7189 13.4583H20.1964V8.7125L21.7914 10.0867L23.2172 7.79167L14.1547 0L5.09224 7.79167L6.51808 10.0725L8.11308 8.7125V13.4583H6.59058C6.26433 13.4583 5.96224 13.3025 5.73266 13.0475L4.07724 11.1067L2.37349 13.1042L4.02891 15.045C4.70558 15.8383 5.63599 16.2917 6.59058 16.2917H21.7068C22.6735 16.2917 23.5918 15.8383 24.2685 15.045L25.9239 13.1042L24.2322 11.1067ZM15.3631 13.4583V10.625H12.9464V13.4583H10.5297V6.63L14.1547 3.51333L17.7797 6.63V13.4583H15.3631Z" fill="black"/>
</svg>
