<svg width="24" height="37" viewBox="0 0 24 37" fill="none" xmlns="http://www.w3.org/2000/svg">
<path d="M7.4 10.6328H4.6C4.44087 10.6328 4.28826 10.7288 4.17574 10.8997C4.06321 11.0707 4 11.3025 4 11.5442V24.9108C4 25.0305 4.01552 25.149 4.04567 25.2596C4.07583 25.3702 4.12002 25.4706 4.17574 25.5553C4.23145 25.6399 4.29759 25.707 4.37039 25.7528C4.44319 25.7986 4.52121 25.8222 4.6 25.8222H7.4C7.47879 25.8222 7.55681 25.7986 7.62961 25.7528C7.70241 25.707 7.76855 25.6399 7.82426 25.5553C7.87998 25.4706 7.92417 25.3702 7.95433 25.2596C7.98448 25.149 8 25.0305 8 24.9108V11.5442C8 11.3025 7.93679 11.0707 7.82426 10.8997C7.71174 10.7288 7.55913 10.6328 7.4 10.6328V10.6328ZM19.4 10.6328H16.6C16.4409 10.6328 16.2883 10.7288 16.1757 10.8997C16.0632 11.0707 16 11.3025 16 11.5442V24.9108C16 25.0305 16.0155 25.149 16.0457 25.2596C16.0758 25.3702 16.12 25.4706 16.1757 25.5553C16.2315 25.6399 16.2976 25.707 16.3704 25.7528C16.4432 25.7986 16.5212 25.8222 16.6 25.8222H19.4C19.4788 25.8222 19.5568 25.7986 19.6296 25.7528C19.7024 25.707 19.7685 25.6399 19.8243 25.5553C19.88 25.4706 19.9242 25.3702 19.9543 25.2596C19.9845 25.149 20 25.0305 20 24.9108V11.5442C20 11.3025 19.9368 11.0707 19.8243 10.8997C19.7117 10.7288 19.5591 10.6328 19.4 10.6328V10.6328Z" stroke="black" stroke-width="1.5" stroke-linecap="round" stroke-linejoin="round"/>
<path d="M8 18.2277H16M1 21.8732V14.5823C1 14.3406 1.06321 14.1087 1.17574 13.9378C1.28826 13.7669 1.44087 13.6709 1.6 13.6709H3.4C3.55913 13.6709 3.71174 13.7669 3.82426 13.9378C3.93679 14.1087 4 14.3406 4 14.5823V21.8732C4 22.1149 3.93679 22.3467 3.82426 22.5176C3.71174 22.6885 3.55913 22.7845 3.4 22.7845H1.6C1.44087 22.7845 1.28826 22.6885 1.17574 22.5176C1.06321 22.3467 1 22.1149 1 21.8732V21.8732ZM23 21.8732V14.5823C23 14.3406 22.9368 14.1087 22.8243 13.9378C22.7117 13.7669 22.5591 13.6709 22.4 13.6709H20.6C20.4409 13.6709 20.2883 13.7669 20.1757 13.9378C20.0632 14.1087 20 14.3406 20 14.5823V21.8732C20 22.1149 20.0632 22.3467 20.1757 22.5176C20.2883 22.6885 20.4409 22.7845 20.6 22.7845H22.4C22.5591 22.7845 22.7117 22.6885 22.8243 22.5176C22.9368 22.3467 23 22.1149 23 21.8732V21.8732Z" stroke="black" stroke-width="1.5" stroke-linecap="round" stroke-linejoin="round"/>
</svg>
