<svg width="26" height="26" viewBox="0 0 26 26" fill="none" xmlns="http://www.w3.org/2000/svg">
<path d="M13 25C19.6274 25 25 19.6274 25 13C25 6.37258 19.6274 1 13 1C6.37258 1 1 6.37258 1 13C1 19.6274 6.37258 25 13 25Z" stroke="black" stroke-width="1.21094" stroke-miterlimit="10"/>
<path d="M7.5004 15V11.3636H8.77171C9.02502 11.3636 9.23395 11.4074 9.39848 11.495C9.56302 11.5814 9.68553 11.698 9.76602 11.8448C9.84652 11.9904 9.88676 12.152 9.88676 12.3295C9.88676 12.4858 9.85895 12.6148 9.80331 12.7166C9.74886 12.8184 9.67665 12.8989 9.58669 12.9581C9.49791 13.0173 9.40144 13.0611 9.29727 13.0895V13.125C9.40854 13.1321 9.5204 13.1712 9.63286 13.2422C9.74531 13.3132 9.83941 13.415 9.91517 13.5476C9.99093 13.6802 10.0288 13.8423 10.0288 14.0341C10.0288 14.2164 9.98738 14.3803 9.90452 14.5259C9.82166 14.6715 9.69086 14.7869 9.51212 14.8722C9.33338 14.9574 9.10078 15 8.81432 15H7.5004ZM7.94074 14.6094H8.81432C9.10196 14.6094 9.30615 14.5537 9.42689 14.4425C9.54881 14.33 9.60977 14.1939 9.60977 14.0341C9.60977 13.911 9.57841 13.7973 9.51567 13.6932C9.45293 13.5878 9.36356 13.5038 9.24756 13.4411C9.13155 13.3771 8.99424 13.3452 8.83563 13.3452H7.94074V14.6094ZM7.94074 12.9616H8.7575C8.89008 12.9616 9.00963 12.9356 9.11617 12.8835C9.22388 12.8314 9.30911 12.758 9.37185 12.6634C9.43577 12.5687 9.46773 12.4574 9.46773 12.3295C9.46773 12.1697 9.41209 12.0342 9.30083 11.9229C9.18956 11.8105 9.01318 11.7543 8.77171 11.7543H7.94074V12.9616ZM11.839 15.0568C11.5762 15.0568 11.3495 14.9988 11.159 14.8828C10.9696 14.7656 10.8234 14.6023 10.7204 14.3928C10.6186 14.1821 10.5677 13.937 10.5677 13.6577C10.5677 13.3783 10.6186 13.1321 10.7204 12.919C10.8234 12.7048 10.9666 12.5379 11.1501 12.4183C11.3347 12.2976 11.5502 12.2372 11.7964 12.2372C11.9384 12.2372 12.0787 12.2609 12.2172 12.3082C12.3557 12.3556 12.4818 12.4325 12.5954 12.5391C12.709 12.6444 12.7996 12.7841 12.8671 12.9581C12.9345 13.1321 12.9683 13.3464 12.9683 13.6009V13.7784H10.866V13.4162H12.5421C12.5421 13.2623 12.5113 13.125 12.4498 13.0043C12.3894 12.8835 12.303 12.7882 12.1906 12.7184C12.0793 12.6486 11.9479 12.6136 11.7964 12.6136C11.6295 12.6136 11.4851 12.6551 11.3631 12.7379C11.2424 12.8196 11.1495 12.9261 11.0844 13.0575C11.0193 13.1889 10.9867 13.3298 10.9867 13.4801V13.7216C10.9867 13.9276 11.0222 14.1022 11.0933 14.2454C11.1655 14.3874 11.2655 14.4957 11.3933 14.5703C11.5212 14.6437 11.6697 14.6804 11.839 14.6804C11.9491 14.6804 12.0485 14.665 12.1373 14.6342C12.2273 14.6023 12.3048 14.5549 12.3699 14.4922C12.435 14.4283 12.4853 14.349 12.5208 14.2543L12.9256 14.3679C12.883 14.5052 12.8114 14.6259 12.7108 14.7301C12.6102 14.8331 12.4859 14.9136 12.3379 14.9716C12.19 15.0284 12.0237 15.0568 11.839 15.0568ZM14.6355 15.0568C14.4082 15.0568 14.2076 14.9994 14.0336 14.8846C13.8596 14.7686 13.7235 14.6052 13.6252 14.3945C13.527 14.1826 13.4778 13.9323 13.4778 13.6435C13.4778 13.357 13.527 13.1084 13.6252 12.8977C13.7235 12.687 13.8602 12.5243 14.0354 12.4094C14.2106 12.2946 14.413 12.2372 14.6426 12.2372C14.8202 12.2372 14.9604 12.2668 15.0634 12.326C15.1676 12.384 15.2469 12.4503 15.3014 12.5249C15.357 12.5982 15.4002 12.6586 15.431 12.706H15.4665V11.3636H15.8855V15H15.4807V14.581H15.431C15.4002 14.6307 15.3564 14.6934 15.2996 14.7692C15.2428 14.8437 15.1617 14.9106 15.0563 14.9698C14.951 15.0278 14.8107 15.0568 14.6355 15.0568ZM14.6923 14.6804C14.8604 14.6804 15.0025 14.6366 15.1185 14.549C15.2345 14.4602 15.3227 14.3377 15.383 14.1815C15.4434 14.024 15.4736 13.8423 15.4736 13.6364C15.4736 13.4328 15.444 13.2546 15.3848 13.1019C15.3256 12.948 15.238 12.8285 15.122 12.7433C15.006 12.6568 14.8628 12.6136 14.6923 12.6136C14.5148 12.6136 14.3668 12.6592 14.2484 12.7504C14.1313 12.8403 14.0431 12.9628 13.9839 13.1179C13.9259 13.2718 13.8969 13.4446 13.8969 13.6364C13.8969 13.8305 13.9265 14.0069 13.9857 14.1655C14.046 14.3229 14.1348 14.4484 14.252 14.5419C14.3704 14.6342 14.5171 14.6804 14.6923 14.6804ZM18.643 12.8835L18.2666 12.9901C18.2429 12.9273 18.208 12.8664 18.1618 12.8072C18.1168 12.7468 18.0553 12.6971 17.9771 12.658C17.899 12.619 17.799 12.5994 17.6771 12.5994C17.5102 12.5994 17.3711 12.6379 17.2598 12.7148C17.1497 12.7906 17.0947 12.8871 17.0947 13.0043C17.0947 13.1084 17.1326 13.1907 17.2083 13.2511C17.2841 13.3114 17.4024 13.3617 17.5634 13.402L17.9683 13.5014C18.2121 13.5606 18.3938 13.6512 18.5134 13.7731C18.6329 13.8938 18.6927 14.0495 18.6927 14.2401C18.6927 14.3963 18.6477 14.536 18.5578 14.6591C18.469 14.7822 18.3447 14.8793 18.1849 14.9503C18.0251 15.0213 17.8392 15.0568 17.6274 15.0568C17.3492 15.0568 17.1189 14.9964 16.9367 14.8757C16.7544 14.755 16.639 14.5786 16.5904 14.3466L16.9881 14.2472C17.026 14.3939 17.0976 14.504 17.203 14.5774C17.3095 14.6508 17.4486 14.6875 17.6203 14.6875C17.8156 14.6875 17.9706 14.6461 18.0854 14.5632C18.2015 14.4792 18.2595 14.3786 18.2595 14.2614C18.2595 14.1667 18.2263 14.0874 18.16 14.0234C18.0937 13.9583 17.9919 13.9098 17.8546 13.8778L17.4001 13.7713C17.1503 13.7121 16.9668 13.6204 16.8497 13.4961C16.7336 13.3706 16.6756 13.2138 16.6756 13.0256C16.6756 12.8717 16.7189 12.7356 16.8053 12.6172C16.8929 12.4988 17.0118 12.4059 17.1622 12.3384C17.3137 12.271 17.4853 12.2372 17.6771 12.2372C17.947 12.2372 18.1588 12.2964 18.3127 12.4148C18.4678 12.5331 18.5779 12.6894 18.643 12.8835Z" fill="black"/>
</svg>
