<svg width="26" height="26" viewBox="0 0 26 26" fill="none" xmlns="http://www.w3.org/2000/svg">
<path d="M13 25C19.6274 25 25 19.6274 25 13C25 6.37258 19.6274 1 13 1C6.37258 1 1 6.37258 1 13C1 19.6274 6.37258 25 13 25Z" stroke="black" stroke-width="1.21094" stroke-miterlimit="10"/>
<path d="M6.41726 12.5H5.97692C5.95088 12.3733 5.9053 12.2621 5.8402 12.1662C5.77628 12.0703 5.69815 11.9898 5.60582 11.9247C5.51468 11.8584 5.41347 11.8087 5.3022 11.7756C5.19093 11.7424 5.07493 11.7259 4.95419 11.7259C4.73402 11.7259 4.53456 11.7815 4.35582 11.8928C4.17827 12.004 4.03681 12.168 3.93146 12.3846C3.8273 12.6012 3.77521 12.867 3.77521 13.1818C3.77521 13.4967 3.8273 13.7624 3.93146 13.979C4.03681 14.1957 4.17827 14.3596 4.35582 14.4709C4.53456 14.5821 4.73402 14.6378 4.95419 14.6378C5.07493 14.6378 5.19093 14.6212 5.3022 14.5881C5.41347 14.5549 5.51468 14.5058 5.60582 14.4407C5.69815 14.3744 5.77628 14.2933 5.8402 14.1974C5.9053 14.1004 5.95088 13.9891 5.97692 13.8636H6.41726C6.38411 14.0495 6.32375 14.2158 6.23615 14.3626C6.14856 14.5094 6.03965 14.6342 5.90945 14.7372C5.77924 14.839 5.63305 14.9165 5.47088 14.9698C5.3099 15.0231 5.13767 15.0497 4.95419 15.0497C4.64406 15.0497 4.36825 14.974 4.12678 14.8224C3.8853 14.6709 3.69531 14.4555 3.55682 14.1761C3.41832 13.8968 3.34908 13.5653 3.34908 13.1818C3.34908 12.7983 3.41832 12.4669 3.55682 12.1875C3.69531 11.9081 3.8853 11.6927 4.12678 11.5412C4.36825 11.3897 4.64406 11.3139 4.95419 11.3139C5.13767 11.3139 5.3099 11.3406 5.47088 11.3938C5.63305 11.4471 5.77924 11.5252 5.90945 11.6282C6.03965 11.73 6.14856 11.8543 6.23615 12.0011C6.32375 12.1467 6.38411 12.313 6.41726 12.5ZM7.87456 15.0639C7.70173 15.0639 7.54489 15.0314 7.40403 14.9663C7.26317 14.9 7.15131 14.8047 7.06845 14.6804C6.98559 14.5549 6.94416 14.4034 6.94416 14.2259C6.94416 14.0696 6.97493 13.9429 7.03649 13.8459C7.09804 13.7476 7.18031 13.6707 7.28329 13.6151C7.38627 13.5594 7.49991 13.518 7.6242 13.4908C7.74967 13.4624 7.87574 13.4399 8.0024 13.4233C8.16812 13.402 8.30247 13.386 8.40545 13.3754C8.50962 13.3635 8.58538 13.344 8.63272 13.3168C8.68126 13.2895 8.70552 13.2422 8.70552 13.1747V13.1605C8.70552 12.9853 8.65758 12.8492 8.5617 12.7521C8.467 12.6551 8.32318 12.6065 8.13024 12.6065C7.93019 12.6065 7.77335 12.6503 7.65971 12.7379C7.54608 12.8255 7.46618 12.919 7.42001 13.0185L7.02228 12.8764C7.09331 12.7107 7.188 12.5817 7.30637 12.4893C7.42593 12.3958 7.55614 12.3307 7.697 12.294C7.83904 12.2562 7.97872 12.2372 8.11603 12.2372C8.20363 12.2372 8.30424 12.2479 8.41788 12.2692C8.5327 12.2893 8.64338 12.3313 8.74991 12.3952C8.85763 12.4592 8.947 12.5556 9.01802 12.6847C9.08904 12.8137 9.12456 12.9865 9.12456 13.2031V15H8.70552V14.6307H8.68422C8.65581 14.6899 8.60846 14.7532 8.54217 14.8207C8.47588 14.8881 8.3877 14.9455 8.27761 14.9929C8.16752 15.0402 8.03317 15.0639 7.87456 15.0639ZM7.93848 14.6875C8.1042 14.6875 8.24387 14.6549 8.35751 14.5898C8.47233 14.5247 8.55874 14.4407 8.61674 14.3377C8.67593 14.2347 8.70552 14.1264 8.70552 14.0128V13.6293C8.68777 13.6506 8.6487 13.6701 8.58833 13.6879C8.52915 13.7044 8.46049 13.7192 8.38237 13.7322C8.30543 13.7441 8.23026 13.7547 8.15687 13.7642C8.08467 13.7725 8.02607 13.7796 7.98109 13.7855C7.87219 13.7997 7.77039 13.8228 7.67569 13.8548C7.58218 13.8855 7.50642 13.9323 7.44842 13.995C7.3916 14.0566 7.36319 14.1406 7.36319 14.2472C7.36319 14.3928 7.41705 14.5028 7.52477 14.5774C7.63367 14.6508 7.77157 14.6875 7.93848 14.6875ZM9.88938 16.0227V12.2727H10.2942V12.706H10.3439C10.3747 12.6586 10.4173 12.5982 10.4718 12.5249C10.5274 12.4503 10.6067 12.384 10.7097 12.326C10.8139 12.2668 10.9547 12.2372 11.1323 12.2372C11.3619 12.2372 11.5643 12.2946 11.7395 12.4094C11.9147 12.5243 12.0514 12.687 12.1497 12.8977C12.2479 13.1084 12.2971 13.357 12.2971 13.6435C12.2971 13.9323 12.2479 14.1826 12.1497 14.3945C12.0514 14.6052 11.9153 14.7686 11.7413 14.8846C11.5673 14.9994 11.3667 15.0568 11.1394 15.0568C10.9642 15.0568 10.8239 15.0278 10.7186 14.9698C10.6132 14.9106 10.5321 14.8437 10.4753 14.7692C10.4185 14.6934 10.3747 14.6307 10.3439 14.581H10.3084V16.0227H9.88938ZM10.3013 13.6364C10.3013 13.8423 10.3315 14.024 10.3919 14.1815C10.4522 14.3377 10.5404 14.4602 10.6564 14.549C10.7724 14.6366 10.9145 14.6804 11.0826 14.6804C11.2578 14.6804 11.4039 14.6342 11.5211 14.5419C11.6395 14.4484 11.7283 14.3229 11.7875 14.1655C11.8478 14.0069 11.878 13.8305 11.878 13.6364C11.878 13.4446 11.8484 13.2718 11.7892 13.1179C11.7312 12.9628 11.6431 12.8403 11.5247 12.7504C11.4075 12.6592 11.2601 12.6136 11.0826 12.6136C10.9121 12.6136 10.7689 12.6568 10.6529 12.7433C10.5369 12.8285 10.4493 12.948 10.3901 13.1019C10.3309 13.2546 10.3013 13.4328 10.3013 13.6364ZM13.7388 15.0639C13.566 15.0639 13.4092 15.0314 13.2683 14.9663C13.1274 14.9 13.0156 14.8047 12.9327 14.6804C12.8498 14.5549 12.8084 14.4034 12.8084 14.2259C12.8084 14.0696 12.8392 13.9429 12.9007 13.8459C12.9623 13.7476 13.0446 13.6707 13.1475 13.6151C13.2505 13.5594 13.3642 13.518 13.4885 13.4908C13.6139 13.4624 13.74 13.4399 13.8667 13.4233C14.0324 13.402 14.1667 13.386 14.2697 13.3754C14.3739 13.3635 14.4496 13.344 14.497 13.3168C14.5455 13.2895 14.5698 13.2422 14.5698 13.1747V13.1605C14.5698 12.9853 14.5218 12.8492 14.426 12.7521C14.3313 12.6551 14.1874 12.6065 13.9945 12.6065C13.7944 12.6065 13.6376 12.6503 13.524 12.7379C13.4103 12.8255 13.3304 12.919 13.2843 13.0185L12.8865 12.8764C12.9576 12.7107 13.0523 12.5817 13.1706 12.4893C13.2902 12.3958 13.4204 12.3307 13.5613 12.294C13.7033 12.2562 13.843 12.2372 13.9803 12.2372C14.0679 12.2372 14.1685 12.2479 14.2821 12.2692C14.397 12.2893 14.5076 12.3313 14.6142 12.3952C14.7219 12.4592 14.8113 12.5556 14.8823 12.6847C14.9533 12.8137 14.9888 12.9865 14.9888 13.2031V15H14.5698V14.6307H14.5485C14.5201 14.6899 14.4727 14.7532 14.4064 14.8207C14.3401 14.8881 14.252 14.9455 14.1419 14.9929C14.0318 15.0402 13.8974 15.0639 13.7388 15.0639ZM13.8027 14.6875C13.9685 14.6875 14.1081 14.6549 14.2218 14.5898C14.3366 14.5247 14.423 14.4407 14.481 14.3377C14.5402 14.2347 14.5698 14.1264 14.5698 14.0128V13.6293C14.552 13.6506 14.513 13.6701 14.4526 13.6879C14.3934 13.7044 14.3248 13.7192 14.2466 13.7322C14.1697 13.7441 14.0945 13.7547 14.0211 13.7642C13.9489 13.7725 13.8903 13.7796 13.8453 13.7855C13.7364 13.7997 13.6346 13.8228 13.54 13.8548C13.4464 13.8855 13.3707 13.9323 13.3127 13.995C13.2559 14.0566 13.2275 14.1406 13.2275 14.2472C13.2275 14.3928 13.2813 14.5028 13.389 14.5774C13.4979 14.6508 13.6358 14.6875 13.8027 14.6875ZM16.8616 15.0568C16.6059 15.0568 16.3857 14.9964 16.2011 14.8757C16.0164 14.755 15.8744 14.5887 15.7749 14.3768C15.6755 14.1649 15.6258 13.9228 15.6258 13.6506C15.6258 13.3736 15.6767 13.1291 15.7785 12.9173C15.8815 12.7042 16.0247 12.5379 16.2082 12.4183C16.3928 12.2976 16.6083 12.2372 16.8545 12.2372C17.0463 12.2372 17.2191 12.2727 17.373 12.3438C17.5268 12.4148 17.6529 12.5142 17.7512 12.642C17.8494 12.7699 17.9104 12.919 17.934 13.0895H17.515C17.483 12.9652 17.412 12.8551 17.3019 12.7592C17.193 12.6622 17.0463 12.6136 16.8616 12.6136C16.6982 12.6136 16.555 12.6562 16.4319 12.7415C16.31 12.8255 16.2147 12.9445 16.146 13.0984C16.0786 13.2511 16.0448 13.4304 16.0448 13.6364C16.0448 13.8471 16.078 14.0305 16.1443 14.1868C16.2117 14.343 16.3064 14.4644 16.4284 14.5508C16.5515 14.6372 16.6959 14.6804 16.8616 14.6804C16.9705 14.6804 17.0693 14.6615 17.1581 14.6236C17.2469 14.5857 17.3221 14.5312 17.3836 14.4602C17.4452 14.3892 17.489 14.304 17.515 14.2045H17.934C17.9104 14.3655 17.8518 14.5105 17.7583 14.6396C17.6659 14.7674 17.5434 14.8692 17.3907 14.945C17.2392 15.0195 17.0628 15.0568 16.8616 15.0568ZM18.5466 15V12.2727H18.9656V15H18.5466ZM18.7597 11.8182C18.678 11.8182 18.6076 11.7904 18.5484 11.7347C18.4904 11.6791 18.4614 11.6122 18.4614 11.5341C18.4614 11.456 18.4904 11.3891 18.5484 11.3335C18.6076 11.2778 18.678 11.25 18.7597 11.25C18.8414 11.25 18.9112 11.2778 18.9692 11.3335C19.0284 11.3891 19.058 11.456 19.058 11.5341C19.058 11.6122 19.0284 11.6791 18.9692 11.7347C18.9112 11.7904 18.8414 11.8182 18.7597 11.8182ZM20.9192 12.2727V12.6278H19.5059V12.2727H20.9192ZM19.9178 11.6193H20.3368V14.2188C20.3368 14.3371 20.354 14.4259 20.3883 14.4851C20.4238 14.5431 20.4688 14.5821 20.5233 14.6023C20.5789 14.6212 20.6375 14.6307 20.699 14.6307C20.7452 14.6307 20.7831 14.6283 20.8127 14.6236C20.8423 14.6177 20.8659 14.6129 20.8837 14.6094L20.9689 14.9858C20.9405 14.9964 20.9009 15.0071 20.85 15.0178C20.7991 15.0296 20.7346 15.0355 20.6564 15.0355C20.5381 15.0355 20.4221 15.0101 20.3084 14.9592C20.196 14.9083 20.1025 14.8307 20.0279 14.7266C19.9545 14.6224 19.9178 14.491 19.9178 14.3324V11.6193ZM21.8194 16.0227C21.7484 16.0227 21.6851 16.0168 21.6294 16.005C21.5738 15.9943 21.5353 15.9837 21.514 15.973L21.6206 15.6037C21.7224 15.6297 21.8123 15.6392 21.8904 15.6321C21.9686 15.625 22.0378 15.5901 22.0982 15.5273C22.1597 15.4658 22.216 15.3658 22.2669 15.2273L22.345 15.0142L21.3365 12.2727H21.791L22.5439 14.446H22.5723L23.3251 12.2727H23.7797L22.622 15.3977C22.5699 15.5386 22.5054 15.6552 22.4284 15.7475C22.3515 15.841 22.2621 15.9103 22.1603 15.9553C22.0597 16.0002 21.9461 16.0227 21.8194 16.0227Z" fill="black"/>
</svg>
