<svg width="26" height="26" viewBox="0 0 26 26" fill="none" xmlns="http://www.w3.org/2000/svg">
<path d="M13 25C19.6274 25 25 19.6274 25 13C25 6.37258 19.6274 1 13 1C6.37258 1 1 6.37258 1 13C1 19.6274 6.37258 25 13 25Z" stroke="black" stroke-width="1.21094" stroke-miterlimit="10"/>
<path d="M5.44034 15V11.3636H5.88068V14.6094H7.57102V15H5.44034ZM9.33949 15.0568C9.0767 15.0568 8.85002 14.9988 8.65945 14.8828C8.47005 14.7656 8.32386 14.6023 8.22088 14.3928C8.11908 14.1821 8.06818 13.937 8.06818 13.6577C8.06818 13.3783 8.11908 13.1321 8.22088 12.919C8.32386 12.7048 8.46709 12.5379 8.65057 12.4183C8.83523 12.2976 9.05066 12.2372 9.29688 12.2372C9.43892 12.2372 9.57919 12.2609 9.71768 12.3082C9.85618 12.3556 9.98224 12.4325 10.0959 12.5391C10.2095 12.6444 10.3001 12.7841 10.3675 12.9581C10.435 13.1321 10.4688 13.3464 10.4688 13.6009V13.7784H8.36648V13.4162H10.0426C10.0426 13.2623 10.0118 13.125 9.95028 13.0043C9.88991 12.8835 9.8035 12.7882 9.69105 12.7184C9.57978 12.6486 9.44839 12.6136 9.29688 12.6136C9.12997 12.6136 8.98556 12.6551 8.86364 12.7379C8.7429 12.8196 8.64998 12.9261 8.58487 13.0575C8.51977 13.1889 8.48722 13.3298 8.48722 13.4801V13.7216C8.48722 13.9276 8.52273 14.1022 8.59375 14.2454C8.66596 14.3874 8.76598 14.4957 8.89382 14.5703C9.02166 14.6437 9.17022 14.6804 9.33949 14.6804C9.44957 14.6804 9.54901 14.665 9.63778 14.6342C9.72775 14.6023 9.80528 14.5549 9.87038 14.4922C9.93549 14.4283 9.9858 14.349 10.0213 14.2543L10.4261 14.3679C10.3835 14.5052 10.3119 14.6259 10.2113 14.7301C10.1107 14.8331 9.98639 14.9136 9.83842 14.9716C9.69046 15.0284 9.52415 15.0568 9.33949 15.0568ZM11.5252 13.3594V15H11.1062V12.2727H11.511V12.6989H11.5465C11.6104 12.5604 11.7075 12.4491 11.8377 12.3651C11.9679 12.2798 12.136 12.2372 12.342 12.2372C12.5266 12.2372 12.6882 12.2751 12.8267 12.3509C12.9652 12.4254 13.0729 12.5391 13.1499 12.6918C13.2268 12.8433 13.2653 13.035 13.2653 13.267V15H12.8462V13.2955C12.8462 13.0812 12.7906 12.9143 12.6793 12.7947C12.5681 12.674 12.4154 12.6136 12.2212 12.6136C12.0875 12.6136 11.9679 12.6426 11.8626 12.7006C11.7584 12.7586 11.6761 12.8433 11.6158 12.9545C11.5554 13.0658 11.5252 13.2008 11.5252 13.3594ZM15.1318 16.0795C14.9294 16.0795 14.7554 16.0535 14.6098 16.0014C14.4642 15.9505 14.3429 15.883 14.2458 15.799C14.1499 15.7161 14.0736 15.6274 14.0168 15.5327L14.3506 15.2983C14.3885 15.348 14.4364 15.4048 14.4944 15.4688C14.5524 15.5339 14.6317 15.5901 14.7323 15.6374C14.8341 15.686 14.9673 15.7102 15.1318 15.7102C15.352 15.7102 15.5337 15.657 15.6769 15.5504C15.8202 15.4439 15.8918 15.277 15.8918 15.0497V14.4957H15.8563C15.8255 14.5455 15.7817 14.607 15.7249 14.6804C15.6692 14.7526 15.5887 14.8171 15.4834 14.8739C15.3792 14.9296 15.2384 14.9574 15.0608 14.9574C14.8406 14.9574 14.643 14.9053 14.4678 14.8011C14.2938 14.697 14.1559 14.5455 14.0541 14.3466C13.9535 14.1477 13.9031 13.9062 13.9031 13.6222C13.9031 13.3428 13.9523 13.0996 14.0505 12.8924C14.1488 12.6841 14.2855 12.5231 14.4607 12.4094C14.6359 12.2946 14.8383 12.2372 15.0679 12.2372C15.2455 12.2372 15.3863 12.2668 15.4905 12.326C15.5959 12.384 15.6763 12.4503 15.732 12.5249C15.7888 12.5982 15.8326 12.6586 15.8634 12.706H15.906V12.2727H16.3108V15.0781C16.3108 15.3125 16.2575 15.5031 16.151 15.6499C16.0457 15.7978 15.9036 15.9061 15.7249 15.9748C15.5473 16.0446 15.3496 16.0795 15.1318 16.0795ZM15.1176 14.581C15.2857 14.581 15.4278 14.5425 15.5438 14.4656C15.6598 14.3886 15.748 14.2779 15.8083 14.1335C15.8687 13.9891 15.8989 13.8163 15.8989 13.6151C15.8989 13.4186 15.8693 13.2451 15.8101 13.0948C15.7509 12.9445 15.6633 12.8267 15.5473 12.7415C15.4313 12.6562 15.2881 12.6136 15.1176 12.6136C14.9401 12.6136 14.7921 12.6586 14.6737 12.7486C14.5566 12.8385 14.4684 12.9593 14.4092 13.1108C14.3512 13.2623 14.3222 13.4304 14.3222 13.6151C14.3222 13.8045 14.3518 13.9719 14.411 14.1175C14.4713 14.262 14.5601 14.3756 14.6773 14.4585C14.7957 14.5401 14.9424 14.581 15.1176 14.581ZM18.2639 12.2727V12.6278H16.8506V12.2727H18.2639ZM17.2625 11.6193H17.6816V14.2188C17.6816 14.3371 17.6987 14.4259 17.733 14.4851C17.7686 14.5431 17.8135 14.5821 17.868 14.6023C17.9236 14.6212 17.9822 14.6307 18.0438 14.6307C18.0899 14.6307 18.1278 14.6283 18.1574 14.6236C18.187 14.6177 18.2107 14.6129 18.2284 14.6094L18.3137 14.9858C18.2852 14.9964 18.2456 15.0071 18.1947 15.0178C18.1438 15.0296 18.0793 15.0355 18.0012 15.0355C17.8828 15.0355 17.7668 15.0101 17.6531 14.9592C17.5407 14.9083 17.4472 14.8307 17.3726 14.7266C17.2992 14.6224 17.2625 14.491 17.2625 14.3324V11.6193ZM19.3719 13.3594V15H18.9529V11.3636H19.3719V12.6989H19.4074C19.4713 12.558 19.5672 12.4461 19.695 12.3633C19.8241 12.2792 19.9957 12.2372 20.21 12.2372C20.3958 12.2372 20.5586 12.2745 20.6982 12.3491C20.8379 12.4225 20.9462 12.5355 21.0232 12.6882C21.1013 12.8397 21.1404 13.0327 21.1404 13.267V15H20.7213V13.2955C20.7213 13.0788 20.6651 12.9113 20.5526 12.793C20.4414 12.6734 20.2869 12.6136 20.0892 12.6136C19.9519 12.6136 19.8288 12.6426 19.7199 12.7006C19.6122 12.7586 19.527 12.8433 19.4642 12.9545C19.4027 13.0658 19.3719 13.2008 19.3719 13.3594Z" fill="black"/>
</svg>
