<svg width="26" height="26" viewBox="0 0 26 26" fill="none" xmlns="http://www.w3.org/2000/svg">
<path d="M13 25C19.6274 25 25 19.6274 25 13C25 6.37258 19.6274 1 13 1C6.37258 1 1 6.37258 1 13C1 19.6274 6.37258 25 13 25Z" stroke="black" stroke-width="1.21094" stroke-miterlimit="10"/>
<path d="M6.54874 11.3636H7.07431L8.3101 14.3821H8.35272L9.58851 11.3636H10.1141V15H9.70215V12.2372H9.66664L8.53027 15H8.13255L6.99618 12.2372H6.96067V15H6.54874V11.3636ZM11.7427 15.0639C11.5699 15.0639 11.4131 15.0314 11.2722 14.9663C11.1313 14.9 11.0195 14.8047 10.9366 14.6804C10.8538 14.5549 10.8123 14.4034 10.8123 14.2259C10.8123 14.0696 10.8431 13.9429 10.9047 13.8459C10.9662 13.7476 11.0485 13.6707 11.1515 13.6151C11.2544 13.5594 11.3681 13.518 11.4924 13.4908C11.6178 13.4624 11.7439 13.4399 11.8706 13.4233C12.0363 13.402 12.1706 13.386 12.2736 13.3754C12.3778 13.3635 12.4535 13.344 12.5009 13.3168C12.5494 13.2895 12.5737 13.2422 12.5737 13.1747V13.1605C12.5737 12.9853 12.5257 12.8492 12.4299 12.7521C12.3352 12.6551 12.1913 12.6065 11.9984 12.6065C11.7984 12.6065 11.6415 12.6503 11.5279 12.7379C11.4142 12.8255 11.3343 12.919 11.2882 13.0185L10.8904 12.8764C10.9615 12.7107 11.0562 12.5817 11.1745 12.4893C11.2941 12.3958 11.4243 12.3307 11.5652 12.294C11.7072 12.2562 11.8469 12.2372 11.9842 12.2372C12.0718 12.2372 12.1724 12.2479 12.286 12.2692C12.4009 12.2893 12.5115 12.3313 12.6181 12.3952C12.7258 12.4592 12.8152 12.5556 12.8862 12.6847C12.9572 12.8137 12.9927 12.9865 12.9927 13.2031V15H12.5737V14.6307H12.5524C12.524 14.6899 12.4766 14.7532 12.4103 14.8207C12.344 14.8881 12.2559 14.9455 12.1458 14.9929C12.0357 15.0402 11.9013 15.0639 11.7427 15.0639ZM11.8066 14.6875C11.9724 14.6875 12.112 14.6549 12.2257 14.5898C12.3405 14.5247 12.4269 14.4407 12.4849 14.3377C12.5441 14.2347 12.5737 14.1264 12.5737 14.0128V13.6293C12.5559 13.6506 12.5169 13.6701 12.4565 13.6879C12.3973 13.7044 12.3287 13.7192 12.2505 13.7322C12.1736 13.7441 12.0984 13.7547 12.025 13.7642C11.9528 13.7725 11.8942 13.7796 11.8493 13.7855C11.7404 13.7997 11.6386 13.8228 11.5439 13.8548C11.4503 13.8855 11.3746 13.9323 11.3166 13.995C11.2598 14.0566 11.2314 14.1406 11.2314 14.2472C11.2314 14.3928 11.2852 14.5028 11.3929 14.5774C11.5018 14.6508 11.6397 14.6875 11.8066 14.6875ZM14.1482 14.0057L14.1411 13.4872H14.2263L15.4195 12.2727H15.9379L14.6666 13.5582H14.6311L14.1482 14.0057ZM13.7575 15V11.3636H14.1766V15H13.7575ZM15.4905 15L14.4252 13.6506L14.7235 13.3594L16.0232 15H15.4905ZM17.5084 15.0568C17.2456 15.0568 17.019 14.9988 16.8284 14.8828C16.639 14.7656 16.4928 14.6023 16.3898 14.3928C16.288 14.1821 16.2371 13.937 16.2371 13.6577C16.2371 13.3783 16.288 13.1321 16.3898 12.919C16.4928 12.7048 16.636 12.5379 16.8195 12.4183C17.0042 12.2976 17.2196 12.2372 17.4658 12.2372C17.6079 12.2372 17.7481 12.2609 17.8866 12.3082C18.0251 12.3556 18.1512 12.4325 18.2648 12.5391C18.3785 12.6444 18.469 12.7841 18.5365 12.9581C18.604 13.1321 18.6377 13.3464 18.6377 13.6009V13.7784H16.5354V13.4162H18.2116C18.2116 13.2623 18.1808 13.125 18.1192 13.0043C18.0589 12.8835 17.9724 12.7882 17.86 12.7184C17.7487 12.6486 17.6173 12.6136 17.4658 12.6136C17.2989 12.6136 17.1545 12.6551 17.0326 12.7379C16.9118 12.8196 16.8189 12.9261 16.7538 13.0575C16.6887 13.1889 16.6562 13.3298 16.6562 13.4801V13.7216C16.6562 13.9276 16.6917 14.1022 16.7627 14.2454C16.8349 14.3874 16.9349 14.4957 17.0628 14.5703C17.1906 14.6437 17.3392 14.6804 17.5084 14.6804C17.6185 14.6804 17.718 14.665 17.8067 14.6342C17.8967 14.6023 17.9742 14.5549 18.0393 14.4922C18.1044 14.4283 18.1547 14.349 18.1903 14.2543L18.5951 14.3679C18.5525 14.5052 18.4809 14.6259 18.3802 14.7301C18.2796 14.8331 18.1553 14.9136 18.0074 14.9716C17.8594 15.0284 17.6931 15.0568 17.5084 15.0568Z" fill="black"/>
</svg>
