<svg width="26" height="26" viewBox="0 0 26 26" fill="none" xmlns="http://www.w3.org/2000/svg">
<path d="M13 25C19.6274 25 25 19.6274 25 13C25 6.37258 19.6274 1 13 1C6.37258 1 1 6.37258 1 13C1 19.6274 6.37258 25 13 25Z" stroke="black" stroke-width="1.21094" stroke-miterlimit="10"/>
<path d="M5.62345 11.3636H6.14901L7.38481 14.3821H7.42742L8.66322 11.3636H9.18879V15H8.77686V12.2372H8.74134L7.60498 15H7.20725L6.07089 12.2372H6.03538V15H5.62345V11.3636ZM11.1228 15.0568C10.8766 15.0568 10.6606 14.9982 10.4747 14.881C10.2901 14.7638 10.1457 14.5999 10.0415 14.3892C9.93852 14.1785 9.88703 13.9323 9.88703 13.6506C9.88703 13.3665 9.93852 13.1185 10.0415 12.9066C10.1457 12.6947 10.2901 12.5302 10.4747 12.413C10.6606 12.2958 10.8766 12.2372 11.1228 12.2372C11.369 12.2372 11.5845 12.2958 11.7691 12.413C11.955 12.5302 12.0994 12.6947 12.2024 12.9066C12.3065 13.1185 12.3586 13.3665 12.3586 13.6506C12.3586 13.9323 12.3065 14.1785 12.2024 14.3892C12.0994 14.5999 11.955 14.7638 11.7691 14.881C11.5845 14.9982 11.369 15.0568 11.1228 15.0568ZM11.1228 14.6804C11.3099 14.6804 11.4637 14.6325 11.5845 14.5366C11.7052 14.4407 11.7946 14.3146 11.8526 14.1584C11.9106 14.0021 11.9396 13.8329 11.9396 13.6506C11.9396 13.4683 11.9106 13.2984 11.8526 13.141C11.7946 12.9835 11.7052 12.8563 11.5845 12.7592C11.4637 12.6622 11.3099 12.6136 11.1228 12.6136C10.9358 12.6136 10.7819 12.6622 10.6612 12.7592C10.5404 12.8563 10.4511 12.9835 10.3931 13.141C10.3351 13.2984 10.3061 13.4683 10.3061 13.6506C10.3061 13.8329 10.3351 14.0021 10.3931 14.1584C10.4511 14.3146 10.5404 14.4407 10.6612 14.5366C10.7819 14.6325 10.9358 14.6804 11.1228 14.6804ZM14.0281 15.0568C13.8008 15.0568 13.6002 14.9994 13.4262 14.8846C13.2522 14.7686 13.116 14.6052 13.0178 14.3945C12.9196 14.1826 12.8704 13.9323 12.8704 13.6435C12.8704 13.357 12.9196 13.1084 13.0178 12.8977C13.116 12.687 13.2528 12.5243 13.428 12.4094C13.6031 12.2946 13.8056 12.2372 14.0352 12.2372C14.2128 12.2372 14.353 12.2668 14.456 12.326C14.5602 12.384 14.6395 12.4503 14.6939 12.5249C14.7496 12.5982 14.7928 12.6586 14.8236 12.706H14.8591V11.3636H15.2781V15H14.8733V14.581H14.8236C14.7928 14.6307 14.749 14.6934 14.6922 14.7692C14.6353 14.8437 14.5543 14.9106 14.4489 14.9698C14.3436 15.0278 14.2033 15.0568 14.0281 15.0568ZM14.0849 14.6804C14.253 14.6804 14.395 14.6366 14.5111 14.549C14.6271 14.4602 14.7152 14.3377 14.7756 14.1815C14.836 14.024 14.8662 13.8423 14.8662 13.6364C14.8662 13.4328 14.8366 13.2546 14.7774 13.1019C14.7182 12.948 14.6306 12.8285 14.5146 12.7433C14.3986 12.6568 14.2554 12.6136 14.0849 12.6136C13.9074 12.6136 13.7594 12.6592 13.641 12.7504C13.5238 12.8403 13.4357 12.9628 13.3765 13.1179C13.3185 13.2718 13.2895 13.4446 13.2895 13.6364C13.2895 13.8305 13.3191 14.0069 13.3782 14.1655C13.4386 14.3229 13.5274 14.4484 13.6446 14.5419C13.7629 14.6342 13.9097 14.6804 14.0849 14.6804ZM17.2472 15.0568C16.9844 15.0568 16.7577 14.9988 16.5672 14.8828C16.3778 14.7656 16.2316 14.6023 16.1286 14.3928C16.0268 14.1821 15.9759 13.937 15.9759 13.6577C15.9759 13.3783 16.0268 13.1321 16.1286 12.919C16.2316 12.7048 16.3748 12.5379 16.5583 12.4183C16.7429 12.2976 16.9584 12.2372 17.2046 12.2372C17.3466 12.2372 17.4869 12.2609 17.6254 12.3082C17.7639 12.3556 17.89 12.4325 18.0036 12.5391C18.1172 12.6444 18.2078 12.7841 18.2753 12.9581C18.3427 13.1321 18.3765 13.3464 18.3765 13.6009V13.7784H16.2742V13.4162H17.9503C17.9503 13.2623 17.9196 13.125 17.858 13.0043C17.7976 12.8835 17.7112 12.7882 17.5988 12.7184C17.4875 12.6486 17.3561 12.6136 17.2046 12.6136C17.0377 12.6136 16.8933 12.6551 16.7714 12.7379C16.6506 12.8196 16.5577 12.9261 16.4926 13.0575C16.4275 13.1889 16.3949 13.3298 16.3949 13.4801V13.7216C16.3949 13.9276 16.4304 14.1022 16.5015 14.2454C16.5737 14.3874 16.6737 14.4957 16.8015 14.5703C16.9294 14.6437 17.0779 14.6804 17.2472 14.6804C17.3573 14.6804 17.4567 14.665 17.5455 14.6342C17.6355 14.6023 17.713 14.5549 17.7781 14.4922C17.8432 14.4283 17.8935 14.349 17.929 14.2543L18.3339 14.3679C18.2912 14.5052 18.2196 14.6259 18.119 14.7301C18.0184 14.8331 17.8941 14.9136 17.7461 14.9716C17.5982 15.0284 17.4319 15.0568 17.2472 15.0568ZM19.4329 11.3636V15H19.0139V11.3636H19.4329Z" fill="black"/>
</svg>
