<svg width="26" height="26" viewBox="0 0 26 26" fill="none" xmlns="http://www.w3.org/2000/svg">
<path d="M13 25C19.6274 25 25 19.6274 25 13C25 6.37258 19.6274 1 13 1C6.37258 1 1 6.37258 1 13C1 19.6274 6.37258 25 13 25Z" stroke="black" stroke-width="1.21094" stroke-miterlimit="10"/>
<path d="M5.89347 15V11.3636H7.12216C7.40625 11.3636 7.63944 11.4122 7.82173 11.5092C8.00402 11.6051 8.13897 11.7371 8.22656 11.9052C8.31416 12.0733 8.35795 12.2644 8.35795 12.4787C8.35795 12.6929 8.31416 12.8829 8.22656 13.0487C8.13897 13.2144 8.00462 13.3446 7.82351 13.4393C7.6424 13.5328 7.41098 13.5795 7.12926 13.5795H6.13494V13.1818H7.11506C7.30919 13.1818 7.46544 13.1534 7.58381 13.0966C7.70336 13.0398 7.78977 12.9593 7.84304 12.8551C7.89749 12.7498 7.92472 12.6243 7.92472 12.4787C7.92472 12.3331 7.89749 12.2058 7.84304 12.0969C7.78859 11.988 7.70159 11.904 7.58203 11.8448C7.46248 11.7844 7.30445 11.7543 7.10795 11.7543H6.33381V15H5.89347ZM7.60511 13.3665L8.5 15H7.98864L7.10795 13.3665H7.60511ZM10.1135 15.0568C9.86734 15.0568 9.65131 14.9982 9.46547 14.881C9.28081 14.7638 9.13639 14.5999 9.03223 14.3892C8.92924 14.1785 8.87775 13.9323 8.87775 13.6506C8.87775 13.3665 8.92924 13.1185 9.03223 12.9066C9.13639 12.6947 9.28081 12.5302 9.46547 12.413C9.65131 12.2958 9.86734 12.2372 10.1135 12.2372C10.3598 12.2372 10.5752 12.2958 10.7599 12.413C10.9457 12.5302 11.0901 12.6947 11.1931 12.9066C11.2973 13.1185 11.3493 13.3665 11.3493 13.6506C11.3493 13.9323 11.2973 14.1785 11.1931 14.3892C11.0901 14.5999 10.9457 14.7638 10.7599 14.881C10.5752 14.9982 10.3598 15.0568 10.1135 15.0568ZM10.1135 14.6804C10.3006 14.6804 10.4545 14.6325 10.5752 14.5366C10.6959 14.4407 10.7853 14.3146 10.8433 14.1584C10.9013 14.0021 10.9303 13.8329 10.9303 13.6506C10.9303 13.4683 10.9013 13.2984 10.8433 13.141C10.7853 12.9835 10.6959 12.8563 10.5752 12.7592C10.4545 12.6622 10.3006 12.6136 10.1135 12.6136C9.92652 12.6136 9.77264 12.6622 9.6519 12.7592C9.53116 12.8563 9.44179 12.9835 9.38379 13.141C9.32579 13.2984 9.29679 13.4683 9.29679 13.6506C9.29679 13.8329 9.32579 14.0021 9.38379 14.1584C9.44179 14.3146 9.53116 14.4407 9.6519 14.5366C9.77264 14.6325 9.92652 14.6804 10.1135 14.6804ZM13.0969 15.0568C12.8507 15.0568 12.6347 14.9982 12.4489 14.881C12.2642 14.7638 12.1198 14.5999 12.0156 14.3892C11.9126 14.1785 11.8612 13.9323 11.8612 13.6506C11.8612 13.3665 11.9126 13.1185 12.0156 12.9066C12.1198 12.6947 12.2642 12.5302 12.4489 12.413C12.6347 12.2958 12.8507 12.2372 13.0969 12.2372C13.3432 12.2372 13.5586 12.2958 13.7433 12.413C13.9291 12.5302 14.0735 12.6947 14.1765 12.9066C14.2807 13.1185 14.3327 13.3665 14.3327 13.6506C14.3327 13.9323 14.2807 14.1785 14.1765 14.3892C14.0735 14.5999 13.9291 14.7638 13.7433 14.881C13.5586 14.9982 13.3432 15.0568 13.0969 15.0568ZM13.0969 14.6804C13.284 14.6804 13.4379 14.6325 13.5586 14.5366C13.6793 14.4407 13.7687 14.3146 13.8267 14.1584C13.8847 14.0021 13.9137 13.8329 13.9137 13.6506C13.9137 13.4683 13.8847 13.2984 13.8267 13.141C13.7687 12.9835 13.6793 12.8563 13.5586 12.7592C13.4379 12.6622 13.284 12.6136 13.0969 12.6136C12.9099 12.6136 12.756 12.6622 12.6353 12.7592C12.5146 12.8563 12.4252 12.9835 12.3672 13.141C12.3092 13.2984 12.2802 13.4683 12.2802 13.6506C12.2802 13.8329 12.3092 14.0021 12.3672 14.1584C12.4252 14.3146 12.5146 14.4407 12.6353 14.5366C12.756 14.6325 12.9099 14.6804 13.0969 14.6804ZM14.9724 15V12.2727H15.3772V12.6989H15.4127C15.4695 12.5533 15.5613 12.4402 15.6879 12.3597C15.8146 12.2781 15.9667 12.2372 16.1443 12.2372C16.3242 12.2372 16.4739 12.2781 16.5935 12.3597C16.7142 12.4402 16.8083 12.5533 16.8758 12.6989H16.9042C16.974 12.558 17.0788 12.4461 17.2185 12.3633C17.3582 12.2792 17.5257 12.2372 17.721 12.2372C17.9648 12.2372 18.1643 12.3136 18.3193 12.4663C18.4744 12.6178 18.5519 12.8539 18.5519 13.1747V15H18.1329V13.1747C18.1329 12.9735 18.0779 12.8297 17.9678 12.7433C17.8577 12.6568 17.7281 12.6136 17.5789 12.6136C17.3872 12.6136 17.2386 12.6716 17.1333 12.7876C17.0279 12.9025 16.9752 13.0481 16.9752 13.2244V15H16.5491V13.1321C16.5491 12.977 16.4988 12.8522 16.3982 12.7575C16.2976 12.6616 16.1679 12.6136 16.0093 12.6136C15.9004 12.6136 15.7986 12.6426 15.7039 12.7006C15.6104 12.7586 15.5347 12.8391 15.4767 12.9421C15.4198 13.0439 15.3914 13.1617 15.3914 13.2955V15H14.9724ZM21.2499 12.8835L20.8735 12.9901C20.8498 12.9273 20.8149 12.8664 20.7687 12.8072C20.7238 12.7468 20.6622 12.6971 20.5841 12.658C20.5059 12.619 20.4059 12.5994 20.284 12.5994C20.1171 12.5994 19.978 12.6379 19.8667 12.7148C19.7567 12.7906 19.7016 12.8871 19.7016 13.0043C19.7016 13.1084 19.7395 13.1907 19.8153 13.2511C19.891 13.3114 20.0094 13.3617 20.1704 13.402L20.5752 13.5014C20.819 13.5606 21.0007 13.6512 21.1203 13.7731C21.2398 13.8938 21.2996 14.0495 21.2996 14.2401C21.2996 14.3963 21.2546 14.536 21.1647 14.6591C21.0759 14.7822 20.9516 14.8793 20.7918 14.9503C20.632 15.0213 20.4462 15.0568 20.2343 15.0568C19.9561 15.0568 19.7259 14.9964 19.5436 14.8757C19.3613 14.755 19.2459 14.5786 19.1974 14.3466L19.5951 14.2472C19.633 14.3939 19.7046 14.504 19.8099 14.5774C19.9165 14.6508 20.0555 14.6875 20.2272 14.6875C20.4225 14.6875 20.5776 14.6461 20.6924 14.5632C20.8084 14.4792 20.8664 14.3786 20.8664 14.2614C20.8664 14.1667 20.8332 14.0874 20.767 14.0234C20.7007 13.9583 20.5989 13.9098 20.4616 13.8778L20.007 13.7713C19.7573 13.7121 19.5738 13.6204 19.4566 13.4961C19.3406 13.3706 19.2826 13.2138 19.2826 13.0256C19.2826 12.8717 19.3258 12.7356 19.4122 12.6172C19.4998 12.4988 19.6188 12.4059 19.7691 12.3384C19.9206 12.271 20.0922 12.2372 20.284 12.2372C20.5539 12.2372 20.7658 12.2964 20.9197 12.4148C21.0747 12.5331 21.1848 12.6894 21.2499 12.8835Z" fill="black"/>
</svg>
