<svg width="26" height="26" viewBox="0 0 26 26" fill="none" xmlns="http://www.w3.org/2000/svg">
<path d="M13 25C19.6274 25 25 19.6274 25 13C25 6.37258 19.6274 1 13 1C6.37258 1 1 6.37258 1 13C1 19.6274 6.37258 25 13 25Z" stroke="black" stroke-width="1.21094" stroke-miterlimit="10"/>
<path d="M7.42361 11.7543V11.3636H10.1509V11.7543H9.00741V15H8.56707V11.7543H7.42361ZM10.731 16.0227C10.66 16.0227 10.5967 16.0168 10.5411 16.005C10.4854 15.9943 10.447 15.9837 10.4256 15.973L10.5322 15.6037C10.634 15.6297 10.7239 15.6392 10.8021 15.6321C10.8802 15.625 10.9494 15.5901 11.0098 15.5273C11.0714 15.4658 11.1276 15.3658 11.1785 15.2273L11.2566 15.0142L10.2481 12.2727H10.7026L11.4555 14.446H11.4839L12.2367 12.2727H12.6913L11.5336 15.3977C11.4815 15.5386 11.417 15.6552 11.3401 15.7475C11.2631 15.841 11.1738 15.9103 11.072 15.9553C10.9713 16.0002 10.8577 16.0227 10.731 16.0227ZM13.2444 16.0227V12.2727H13.6492V12.706H13.6989C13.7297 12.6586 13.7723 12.5982 13.8267 12.5249C13.8824 12.4503 13.9617 12.384 14.0647 12.326C14.1688 12.2668 14.3097 12.2372 14.4873 12.2372C14.7169 12.2372 14.9193 12.2946 15.0945 12.4094C15.2697 12.5243 15.4064 12.687 15.5047 12.8977C15.6029 13.1084 15.652 13.357 15.652 13.6435C15.652 13.9323 15.6029 14.1826 15.5047 14.3945C15.4064 14.6052 15.2703 14.7686 15.0963 14.8846C14.9223 14.9994 14.7216 15.0568 14.4944 15.0568C14.3192 15.0568 14.1789 15.0278 14.0736 14.9698C13.9682 14.9106 13.8871 14.8437 13.8303 14.7692C13.7735 14.6934 13.7297 14.6307 13.6989 14.581H13.6634V16.0227H13.2444ZM13.6563 13.6364C13.6563 13.8423 13.6865 14.024 13.7468 14.1815C13.8072 14.3377 13.8954 14.4602 14.0114 14.549C14.1274 14.6366 14.2695 14.6804 14.4375 14.6804C14.6127 14.6804 14.7589 14.6342 14.8761 14.5419C14.9945 14.4484 15.0833 14.3229 15.1424 14.1655C15.2028 14.0069 15.233 13.8305 15.233 13.6364C15.233 13.4446 15.2034 13.2718 15.1442 13.1179C15.0862 12.9628 14.998 12.8403 14.8797 12.7504C14.7625 12.6592 14.6151 12.6136 14.4375 12.6136C14.2671 12.6136 14.1239 12.6568 14.0079 12.7433C13.8919 12.8285 13.8043 12.948 13.7451 13.1019C13.6859 13.2546 13.6563 13.4328 13.6563 13.6364ZM17.4347 15.0568C17.1719 15.0568 16.9452 14.9988 16.7547 14.8828C16.5653 14.7656 16.4191 14.6023 16.3161 14.3928C16.2143 14.1821 16.1634 13.937 16.1634 13.6577C16.1634 13.3783 16.2143 13.1321 16.3161 12.919C16.4191 12.7048 16.5623 12.5379 16.7458 12.4183C16.9304 12.2976 17.1459 12.2372 17.3921 12.2372C17.5341 12.2372 17.6744 12.2609 17.8129 12.3082C17.9514 12.3556 18.0775 12.4325 18.1911 12.5391C18.3047 12.6444 18.3953 12.7841 18.4628 12.9581C18.5302 13.1321 18.564 13.3464 18.564 13.6009V13.7784H16.4617V13.4162H18.1378C18.1378 13.2623 18.1071 13.125 18.0455 13.0043C17.9851 12.8835 17.8987 12.7882 17.7863 12.7184C17.675 12.6486 17.5436 12.6136 17.3921 12.6136C17.2252 12.6136 17.0808 12.6551 16.9589 12.7379C16.8381 12.8196 16.7452 12.9261 16.6801 13.0575C16.615 13.1889 16.5824 13.3298 16.5824 13.4801V13.7216C16.5824 13.9276 16.6179 14.1022 16.689 14.2454C16.7612 14.3874 16.8612 14.4957 16.989 14.5703C17.1169 14.6437 17.2654 14.6804 17.4347 14.6804C17.5448 14.6804 17.6442 14.665 17.733 14.6342C17.823 14.6023 17.9005 14.5549 17.9656 14.4922C18.0307 14.4283 18.081 14.349 18.1165 14.2543L18.5214 14.3679C18.4787 14.5052 18.4071 14.6259 18.3065 14.7301C18.2059 14.8331 18.0816 14.9136 17.9336 14.9716C17.7857 15.0284 17.6194 15.0568 17.4347 15.0568Z" fill="black"/>
</svg>
