<svg width="26" height="26" viewBox="0 0 26 26" fill="none" xmlns="http://www.w3.org/2000/svg">
<path d="M13 25C19.6274 25 25 19.6274 25 13C25 6.37258 19.6274 1 13 1C6.37258 1 1 6.37258 1 13C1 19.6274 6.37258 25 13 25Z" stroke="black" stroke-width="1.21094" stroke-miterlimit="10"/>
<path d="M7.36417 11.3636H7.86843L8.87695 13.0611H8.91957L9.92809 11.3636H10.4324L9.11843 13.5014V15H8.67809V13.5014L7.36417 11.3636ZM11.7028 15.0568C11.44 15.0568 11.2133 14.9988 11.0227 14.8828C10.8333 14.7656 10.6871 14.6023 10.5842 14.3928C10.4824 14.1821 10.4315 13.937 10.4315 13.6577C10.4315 13.3783 10.4824 13.1321 10.5842 12.919C10.6871 12.7048 10.8304 12.5379 11.0138 12.4183C11.1985 12.2976 11.4139 12.2372 11.6602 12.2372C11.8022 12.2372 11.9425 12.2609 12.081 12.3082C12.2195 12.3556 12.3455 12.4325 12.4592 12.5391C12.5728 12.6444 12.6634 12.7841 12.7308 12.9581C12.7983 13.1321 12.832 13.3464 12.832 13.6009V13.7784H10.7298V13.4162H12.4059C12.4059 13.2623 12.3751 13.125 12.3136 13.0043C12.2532 12.8835 12.1668 12.7882 12.0543 12.7184C11.9431 12.6486 11.8117 12.6136 11.6602 12.6136C11.4933 12.6136 11.3488 12.6551 11.2269 12.7379C11.1062 12.8196 11.0133 12.9261 10.9482 13.0575C10.883 13.1889 10.8505 13.3298 10.8505 13.4801V13.7216C10.8505 13.9276 10.886 14.1022 10.957 14.2454C11.0292 14.3874 11.1293 14.4957 11.2571 14.5703C11.3849 14.6437 11.5335 14.6804 11.7028 14.6804C11.8129 14.6804 11.9123 14.665 12.0011 14.6342C12.091 14.6023 12.1686 14.5549 12.2337 14.4922C12.2988 14.4283 12.3491 14.349 12.3846 14.2543L12.7894 14.3679C12.7468 14.5052 12.6752 14.6259 12.5746 14.7301C12.474 14.8331 12.3497 14.9136 12.2017 14.9716C12.0537 15.0284 11.8874 15.0568 11.7028 15.0568ZM14.272 15.0639C14.0992 15.0639 13.9424 15.0314 13.8015 14.9663C13.6606 14.9 13.5488 14.8047 13.4659 14.6804C13.383 14.5549 13.3416 14.4034 13.3416 14.2259C13.3416 14.0696 13.3724 13.9429 13.4339 13.8459C13.4955 13.7476 13.5778 13.6707 13.6808 13.6151C13.7837 13.5594 13.8974 13.518 14.0217 13.4908C14.1471 13.4624 14.2732 13.4399 14.3999 13.4233C14.5656 13.402 14.6999 13.386 14.8029 13.3754C14.9071 13.3635 14.9828 13.344 15.0302 13.3168C15.0787 13.2895 15.103 13.2422 15.103 13.1747V13.1605C15.103 12.9853 15.055 12.8492 14.9592 12.7521C14.8645 12.6551 14.7206 12.6065 14.5277 12.6065C14.3277 12.6065 14.1708 12.6503 14.0572 12.7379C13.9435 12.8255 13.8636 12.919 13.8175 13.0185L13.4197 12.8764C13.4908 12.7107 13.5855 12.5817 13.7038 12.4893C13.8234 12.3958 13.9536 12.3307 14.0945 12.294C14.2365 12.2562 14.3762 12.2372 14.5135 12.2372C14.6011 12.2372 14.7017 12.2479 14.8153 12.2692C14.9302 12.2893 15.0408 12.3313 15.1474 12.3952C15.2551 12.4592 15.3445 12.5556 15.4155 12.6847C15.4865 12.8137 15.522 12.9865 15.522 13.2031V15H15.103V14.6307H15.0817C15.0533 14.6899 15.0059 14.7532 14.9396 14.8207C14.8733 14.8881 14.7852 14.9455 14.6751 14.9929C14.565 15.0402 14.4306 15.0639 14.272 15.0639ZM14.3359 14.6875C14.5017 14.6875 14.6413 14.6549 14.755 14.5898C14.8698 14.5247 14.9562 14.4407 15.0142 14.3377C15.0734 14.2347 15.103 14.1264 15.103 14.0128V13.6293C15.0852 13.6506 15.0462 13.6701 14.9858 13.6879C14.9266 13.7044 14.858 13.7192 14.7798 13.7322C14.7029 13.7441 14.6277 13.7547 14.5543 13.7642C14.4821 13.7725 14.4235 13.7796 14.3786 13.7855C14.2696 13.7997 14.1679 13.8228 14.0732 13.8548C13.9796 13.8855 13.9039 13.9323 13.8459 13.995C13.7891 14.0566 13.7607 14.1406 13.7607 14.2472C13.7607 14.3928 13.8145 14.5028 13.9222 14.5774C14.0311 14.6508 14.169 14.6875 14.3359 14.6875ZM16.2868 15V12.2727H16.6917V12.6847H16.7201C16.7698 12.5497 16.8598 12.4402 16.99 12.3562C17.1202 12.2721 17.267 12.2301 17.4303 12.2301C17.4611 12.2301 17.4996 12.2307 17.5457 12.2319C17.5919 12.2331 17.6268 12.2348 17.6505 12.2372V12.6634C17.6363 12.6598 17.6037 12.6545 17.5528 12.6474C17.5031 12.6391 17.4504 12.6349 17.3948 12.6349C17.2622 12.6349 17.1439 12.6628 17.0397 12.7184C16.9367 12.7728 16.855 12.8486 16.7947 12.9457C16.7355 13.0415 16.7059 13.151 16.7059 13.2741V15H16.2868Z" fill="black"/>
</svg>
