<svg width="23" height="21" viewBox="0 0 23 21" fill="none" xmlns="http://www.w3.org/2000/svg">
<path d="M12 4H8.32843C7.79799 4 7.28929 4.21071 6.91421 4.58579L6.08579 5.41421C5.71071 5.78929 5.20201 6 4.67157 6H3C1.89543 6 1 6.89543 1 8V18C1 19.1046 1.89543 20 3 20H17C18.1046 20 19 19.1046 19 18V11M16 4H22M19 7V1M10 17C12.2091 17 14 15.2091 14 13C14 10.7909 12.2091 9 10 9C7.79086 9 6 10.7909 6 13C6 15.2091 7.79086 17 10 17Z" stroke="#7E8182" stroke-width="2" stroke-linecap="round" stroke-linejoin="round"/>
</svg>
