<svg width="217" height="420" viewBox="0 0 217 420" fill="none" xmlns="http://www.w3.org/2000/svg">
<path d="M145.195 4.02835C147.183 5.15746 149.309 5.84213 151.573 6.08236C151.867 6.1184 152.144 6.20849 152.402 6.35263C153.357 6.88115 154.345 6.89916 155.366 6.40668C160.08 7.55381 164.672 9.06729 169.14 10.9471C172.149 13.7309 177.446 15.5506 181.059 17.7038C191.933 24.1631 196.455 31.8476 198.347 44.2798H197.752C197.613 44.2771 197.476 44.2452 197.349 44.1863C197.221 44.1274 197.107 44.0427 197.014 43.9375L190.951 36.9466C190.847 36.8266 190.717 36.733 190.571 36.6735C190.426 36.6139 190.268 36.5902 190.113 36.6043C189.734 36.6343 189.413 36.8025 189.149 37.1088C183.221 26.7967 174.645 19.6707 163.42 15.7308C162.789 15.5086 161.906 15.3525 160.771 15.2624C147.444 10.9742 133.796 8.37361 119.826 7.46072C118.475 7.37063 116.877 7.03129 115.033 6.44272C110.769 5.07338 106.505 5.06136 102.241 6.40668C100.373 7.00126 98.7693 7.3436 97.43 7.43369C83.3942 8.38862 69.6677 10.9982 56.2506 15.2624C43.0707 18.0461 32.0709 28.3792 26.089 40.0367C25.074 39.8084 24.1881 39.9315 23.4314 40.406C23.1806 40.5575 22.9872 40.7889 22.8819 41.0637C22.2062 42.8384 20.0981 44.1807 18.918 41.8024L19.972 37.5232C20.1702 37.8175 20.4194 37.9556 20.7197 37.9376C20.854 37.9321 20.9828 37.8812 21.0856 37.7931C21.1884 37.705 21.2594 37.5846 21.2873 37.4511C22.8909 29.7035 26.5485 24.3343 33.0799 19.965C37.0137 17.3344 42.6532 14.1393 49.9984 10.3796C54.8032 8.11536 59.8241 6.48776 65.0612 5.49679C68.8209 5.74303 72.3884 5.02833 75.7637 3.35269C78.8447 2.42778 82.0519 1.8332 85.3851 1.56894C96.0096 0.710097 102.577 0.205603 105.087 0.0554553C110.43 -0.268863 115.709 0.938322 121.105 0.866252C122.991 0.842228 124.952 0.965349 126.988 1.23561C133.096 2.05542 138.357 2.39775 145.195 4.02835Z" fill="#6366F1"/>
<path d="M75.763 3.35303C72.3877 5.02867 68.8202 5.74337 65.0605 5.49713C68.4539 4.15782 72.0214 3.44312 75.763 3.35303Z" fill="#6366F1"/>
<path d="M145.195 4.02832C148.691 4.47276 152.081 5.26553 155.366 6.40665C154.345 6.89913 153.357 6.88112 152.402 6.3526C152.144 6.20846 151.868 6.11837 151.574 6.08233C149.309 5.8421 147.183 5.15743 145.195 4.02832Z" fill="#6366F1"/>
<path d="M160.772 15.2625L161.934 19.2804L161.664 19.5957C161.582 19.6878 161.477 19.7551 161.359 19.7902C161.241 19.8252 161.116 19.8265 160.997 19.7939L153.34 17.7399C142.211 14.4547 130.857 12.5118 119.277 11.9112C118.13 11.8511 116.863 12.0673 115.476 12.5598C111.085 14.1274 106.686 14.1574 102.278 12.6499C96.6652 10.722 85.8006 12.9652 79.9178 14.1364C74.5426 14.8631 69.2754 16.0523 64.1163 17.7039L54.5039 20.4065C55.4408 18.9651 56.0234 17.2504 56.2516 15.2625C69.6688 10.9983 83.3952 8.38874 97.431 7.4338C98.7703 7.34372 100.374 7.00138 102.242 6.4068C106.506 5.06148 110.77 5.07349 115.034 6.44283C116.878 7.03141 118.476 7.37074 119.827 7.46083C133.797 8.37373 147.445 10.9743 160.772 15.2625Z" fill="black"/>
<path d="M49.9991 10.3799C42.6539 14.1396 37.0144 17.3347 33.0805 19.9653C26.5491 24.3346 22.8915 29.7038 21.2879 37.4514C21.2601 37.5849 21.1891 37.7053 21.0863 37.7934C20.9835 37.8815 20.8547 37.9324 20.7204 37.9379C20.4201 37.9559 20.1709 37.8178 19.9727 37.5235C21.351 32.6407 22.9546 28.2084 26.6842 24.5508C33.2787 18.0824 41.0503 13.3588 49.9991 10.3799Z" fill="#6366F1"/>
<path d="M153.339 17.7395L153.24 18.6944C153.211 18.9735 153.285 19.255 153.448 19.4872C166.618 38.6039 174.366 64.4863 177.69 87.1886C179.57 99.9931 180.861 112.864 181.564 125.8C163.916 113.693 141.06 108.612 120.232 106.855C120.502 105.756 120.637 105.074 120.637 104.81C120.854 78.1797 121.277 54.2973 116.547 28.9735C115.989 25.9886 115.169 23.0457 114.088 20.1448C114.037 20.0124 113.958 19.893 113.857 19.7949C113.756 19.6969 113.635 19.6226 113.502 19.5773C110.8 18.6524 108.463 18.238 106.494 18.3341C97.1243 18.8025 87.7521 19.0428 78.377 19.0548C78.4851 17.6374 78.9775 16.3942 79.8544 15.3251C79.9434 15.2194 80.0054 15.0937 80.0352 14.9588C80.065 14.8238 80.0617 14.6837 80.0256 14.5503L79.9175 14.1359C85.8002 12.9648 96.6649 10.7216 102.277 12.6495C106.686 14.157 111.085 14.1269 115.475 12.5594C116.863 12.0669 118.13 11.8507 119.277 11.9108C130.856 12.5113 142.211 14.4543 153.339 17.7395ZM132.257 93.6474C132.534 93.6528 132.804 93.3988 133.009 92.9414C133.214 92.4841 133.336 91.8607 133.349 91.2086C133.355 90.8857 133.334 90.5654 133.287 90.266C133.24 89.9667 133.169 89.6941 133.076 89.4639C132.983 89.2337 132.872 89.0504 132.747 88.9244C132.623 88.7984 132.488 88.7322 132.351 88.7295C132.074 88.7242 131.803 88.9782 131.598 89.4355C131.394 89.8929 131.272 90.5162 131.259 91.1684C131.253 91.4913 131.274 91.8116 131.32 92.1109C131.367 92.4103 131.439 92.6829 131.532 92.9131C131.624 93.1433 131.736 93.3266 131.86 93.4526C131.985 93.5786 132.119 93.6448 132.257 93.6474Z" fill="#6366F1"/>
<path d="M79.917 14.1362L80.0251 14.5506C80.0612 14.684 80.0645 14.8241 80.0347 14.9591C80.0049 15.094 79.9429 15.2197 79.8539 15.3254C78.9771 16.3944 78.4846 17.6377 78.3765 19.0551C74.3165 31.3731 71.5718 45.0575 70.1424 60.1083C68.3707 78.7686 67.9623 95.9424 68.9172 111.63L67.7191 112.296C56.6382 114.681 46.3651 118.972 36.8998 125.17L36.2062 124.675C36.0942 124.592 36.006 124.483 35.9505 124.358C35.8951 124.233 35.8745 124.097 35.8908 123.963C36.077 122.461 35.9539 120.99 35.5215 119.549C35.9599 116.582 36.7647 109.267 37.9359 97.6031C40.5394 71.6396 48.8365 41.1807 64.0615 19.1271C64.144 19.0072 64.2016 18.8714 64.231 18.7275C64.2604 18.5837 64.261 18.4347 64.2326 18.2893L64.1155 17.7037C69.2746 16.0521 74.5417 14.8629 79.917 14.1362Z" fill="#6366F1"/>
<path d="M56.2493 15.2622C56.021 17.2502 55.4385 18.9648 54.5016 20.4062C51.9731 23.7996 49.1713 26.9527 46.0963 29.8655C43.2135 32.2439 40.7991 35.0396 38.8532 38.2527C38.7 38.5063 38.6191 38.796 38.619 39.0906C38.607 44.1896 38.0214 49.2225 36.8623 54.1894C35.6911 59.1713 30.1146 63.4865 25.2949 60.2163C19.7995 56.4776 23.9526 44.7211 26.0877 40.0365C32.0696 28.3791 43.0693 18.0459 56.2493 15.2622Z" fill="white"/>
<path d="M160.771 15.2622C161.907 15.3523 162.789 15.5084 163.42 15.7307C174.645 19.6705 183.221 26.7965 189.149 37.1086C192.149 41.8833 199.573 59.7298 189.239 61.2613C180.005 62.6216 178.663 48.3156 178.555 42.7391C178.474 38.9014 177.906 36.8834 175.474 34.3069C170.699 29.2619 166.132 24.8566 161.934 19.2801L160.771 15.2622Z" fill="white"/>
<path d="M64.1152 17.7036L64.2324 18.2892C64.2607 18.4346 64.2602 18.5835 64.2308 18.7274C64.2014 18.8713 64.1437 19.0071 64.0612 19.127C48.8363 41.1806 40.5391 71.6395 37.9356 97.603C36.7644 109.266 35.9596 116.582 35.5212 119.548C34.5122 107.999 34.3981 97.4949 35.1789 88.0356C36.5482 71.5854 40.359 56.9911 46.0976 37.6221C46.9084 34.8744 46.3048 32.6132 46.0976 29.8655C49.1726 26.9527 51.9743 23.7996 54.5028 20.4063L64.1152 17.7036Z" fill="#6366F1"/>
<path d="M153.34 17.7397L160.997 19.7938C161.116 19.8263 161.241 19.825 161.359 19.79C161.477 19.755 161.582 19.6876 161.664 19.5956L161.934 19.2803C166.132 24.8567 170.7 29.262 175.474 34.307C177.907 36.8835 178.474 38.9015 178.555 42.7393C178.663 48.3157 180.006 62.6217 189.24 61.2614C199.573 59.7299 192.15 41.8834 189.15 37.1087C189.414 36.8024 189.735 36.6343 190.114 36.6042C190.269 36.5902 190.426 36.6139 190.572 36.6734C190.718 36.733 190.848 36.8266 190.952 36.9466L197.014 43.9374C197.108 44.0427 197.222 44.1274 197.349 44.1863C197.477 44.2452 197.614 44.277 197.753 44.2798H198.348C200.342 53.4147 201.693 62.6488 202.402 71.9819C201.525 71.6876 201.08 71.9879 201.068 72.8828C200.702 98.7201 200.327 124.563 199.942 150.413L193.195 149.638C192.812 149.592 192.426 149.679 192.099 149.884C191.773 150.089 191.527 150.4 191.402 150.764L187.123 163.16C186.516 163.983 186.603 164.746 187.384 165.449C184.393 175.106 181.27 184.721 178.015 194.295C174.646 204.178 173.168 210.79 172.474 220.402C169.429 262.312 169.646 303.248 173.069 344.49C173.171 345.703 173.823 346.385 175.024 346.535C177.321 346.832 181.492 337.256 182.051 335.409C187.807 316.581 189.636 295.987 190.979 276.41C193.507 239.618 194.099 202.796 192.753 165.944L201.204 166.818C200.843 177.316 200.666 186.298 200.672 193.763C200.681 194.673 201.177 195.763 201.177 196.655C201.074 213.195 201.044 229.742 201.086 246.294C201.086 246.381 201.106 246.467 201.143 246.545C201.181 246.623 201.235 246.691 201.303 246.744L201.537 246.942C200.354 247.105 199.867 247.801 200.077 249.032C201.219 255.669 201.306 262.11 200.339 268.356C200.123 269.744 200.369 270.984 201.077 272.077L201.726 284.816C201.558 285.128 201.312 285.332 200.987 285.428C200.868 285.462 200.761 285.533 200.681 285.631C200.601 285.728 200.551 285.849 200.537 285.978C200.081 290.885 199.615 298.248 199.141 308.067C198.714 316.782 197.405 335.13 195.213 363.111C194.078 377.661 187.699 393.615 174.096 400.804C173.213 398.444 173.264 396.117 174.249 393.822C190.132 383.651 179.546 363.382 170.835 353.085C170.425 352.605 170.182 352.008 170.141 351.382C167.943 319.617 166.739 287.837 166.529 256.041C166.429 241.618 166.817 224.357 167.619 212.349C167.931 207.622 168.922 202.553 170.592 197.142C172.459 191.118 178.339 171.65 188.231 138.737C188.279 138.587 188.291 138.431 188.267 138.269L188.213 137.972C189.618 133.584 184.672 128.242 181.564 125.801C180.862 112.864 179.57 99.9934 177.691 87.1888C174.366 64.4866 166.619 38.6042 153.448 19.4875C153.285 19.2553 153.212 18.9738 153.241 18.6947L153.34 17.7397Z" fill="#6366F1"/>
<path d="M120.232 106.855C103.025 105.618 85.9203 107.209 68.9177 111.63C67.9627 95.9425 68.3711 78.7686 70.1429 60.1083C71.5723 45.0576 74.317 31.3732 78.3769 19.0551C87.7521 19.0431 97.1243 18.8028 106.494 18.3344C108.463 18.2383 110.8 18.6527 113.502 19.5776C113.635 19.6229 113.756 19.6972 113.857 19.7952C113.958 19.8933 114.037 20.0127 114.088 20.1451C115.169 23.046 115.989 25.9889 116.547 28.9738C121.277 54.2976 120.854 78.18 120.637 104.81C120.637 105.074 120.502 105.756 120.232 106.855ZM84.7285 93.6302C84.8693 93.6307 85.009 93.5673 85.1395 93.4438C85.27 93.3202 85.3888 93.1388 85.4891 92.9099C85.5895 92.681 85.6694 92.4092 85.7243 92.1099C85.7793 91.8106 85.8081 91.4897 85.8092 91.1656C85.8115 90.5109 85.7008 89.8826 85.5014 89.419C85.3019 88.9554 85.0302 88.6944 84.7458 88.6934C84.6051 88.6928 84.4654 88.7562 84.3349 88.8798C84.2044 89.0034 84.0856 89.1848 83.9852 89.4136C83.8849 89.6425 83.805 89.9143 83.7501 90.2136C83.6951 90.5129 83.6663 90.8338 83.6651 91.158C83.6628 91.8126 83.7736 92.4409 83.973 92.9045C84.1724 93.3682 84.4442 93.6292 84.7285 93.6302Z" fill="#6366F1"/>
<path d="M46.0967 29.8652C46.3039 32.6129 46.9075 34.8741 46.0967 37.6218C40.3581 56.9908 36.5473 71.5851 35.178 88.0353C34.3972 97.4945 34.5113 107.999 35.5203 119.548C35.9528 120.99 36.0759 122.461 35.8897 123.962C35.8734 124.096 35.894 124.233 35.9494 124.358C36.0048 124.483 36.093 124.592 36.205 124.674L36.8987 125.17L35.9978 125.998C32.9528 128.034 28.3223 132.836 28.6015 137.07C28.6676 137.923 28.9379 139.142 29.4123 140.728C33.9348 155.875 38.5623 171.037 43.2949 186.214C45.5201 194.015 49.0966 202.835 49.493 210.943C51.7723 256.969 50.5471 303.175 47.1327 349.129C46.8534 352.859 45.0697 354.913 42.9796 357.751C30.4033 373.453 30.079 393.354 54.2407 397.236L53.565 405.047C38.1059 400.795 28.3343 390.897 24.2503 375.354C23.0071 372.021 22.2563 368.342 21.9981 364.318C20.6107 342.94 17.9801 315.355 16.4937 288.094C16.4396 287.139 15.9712 286.554 15.3135 285.941L15.9892 276.032C17.8 275.968 22.2053 277.068 23.4215 276.662C23.7398 276.56 23.7428 276.455 23.4305 276.347C20.932 275.476 18.3765 274.996 15.764 274.905L15.9892 272.428C16.5898 271.383 16.839 270.407 16.7369 269.5C15.9622 262.605 15.9802 255.717 16.791 248.834C16.863 248.233 16.6468 247.615 16.1423 246.978C16.3285 246.522 16.4126 246.221 16.3946 246.077C15.6468 240.23 16.1513 233.059 16.1243 228.789C15.9742 208.447 15.9231 188.099 15.9712 167.745C15.9712 167.625 15.924 167.51 15.8398 167.424C15.7556 167.338 15.641 167.288 15.5207 167.286L12.3496 167.214L24.3223 166.349C23.3374 193.694 23.3794 221.039 24.4485 248.383C25.2232 268.068 28.07 338.949 42.2589 346.427C42.3953 346.5 42.5475 346.538 42.7022 346.539C42.857 346.54 43.0095 346.502 43.1464 346.43C43.2834 346.358 43.4005 346.254 43.4877 346.126C43.5749 345.998 43.6293 345.851 43.6463 345.697C43.9526 342.946 44.2018 340.216 44.394 337.508C47.0186 300.836 47.2709 264.146 45.1508 227.438C44.7904 221.06 44.3129 210.303 41.8265 202.763C37.7545 190.403 33.6975 178.039 29.6556 165.673C30.3222 164.64 30.3222 163.589 29.6556 162.52L25.3043 150.151C25.2573 150.024 25.1711 149.915 25.0588 149.842C24.9465 149.768 24.8144 149.735 24.6827 149.746L17.0792 150.394C17.6288 140.034 16.4666 128.899 16.782 116.701C17.1153 103.927 16.9261 91.3325 16.3225 81.0444C16.2564 79.9273 15.5327 79.2967 14.1514 79.1526C14.7159 66.5642 16.3045 54.114 18.917 41.8019C20.0972 44.1803 22.2053 42.838 22.8809 41.0632C22.9863 40.7885 23.1797 40.557 23.4305 40.4056C24.1872 39.9311 25.0731 39.808 26.0881 40.0362C23.953 44.7208 19.7999 56.4773 25.2953 60.216C30.115 63.4862 35.6915 59.171 36.8626 54.1891C38.0218 49.2222 38.6074 44.1893 38.6194 39.0903C38.6194 38.7957 38.7004 38.506 38.8536 38.2525C40.7995 35.0393 43.2139 32.2436 46.0967 29.8652ZM24.4034 62.0808C24.4665 71.468 23.953 81.0624 22.5206 95.6477C21.3044 108.017 20.0341 119.476 27.9619 128.926C28.1361 129.137 28.2412 129.107 28.2772 128.836C28.3012 128.62 28.2202 128.377 28.034 128.107C21.7278 119.035 22.4755 111.909 23.3314 99.4044C24.007 89.5127 26.1601 62.8015 24.7998 61.8736C24.5356 61.6874 24.4034 61.7565 24.4034 62.0808Z" fill="#6366F1"/>
<path d="M22.5227 95.6479C23.9551 81.0626 24.4686 71.4682 24.4055 62.081C24.4055 61.7567 24.5377 61.6876 24.8019 61.8738C26.1623 62.8017 24.0092 89.5129 23.3335 99.4046C22.4776 111.909 21.7299 119.035 28.0361 128.107C28.2223 128.377 28.3034 128.62 28.2793 128.836C28.2433 129.107 28.1382 129.137 27.964 128.927C20.0363 119.476 21.3065 108.017 22.5227 95.6479Z" fill="#6366F1"/>
<path d="M202.401 71.9818C204.545 95.3507 207.374 125.891 203.788 151.223L199.941 150.413C200.326 124.563 200.701 98.72 201.068 72.8827C201.08 71.9878 201.524 71.6875 202.401 71.9818Z" fill="#6366F1"/>
<path d="M14.1533 79.1528C15.5346 79.297 16.2583 79.9276 16.3244 81.0447C16.928 91.3328 17.1172 103.927 16.7838 116.702C16.4685 128.9 17.6307 140.035 17.0811 150.395L13.0272 151.674L12.5407 146.53C12.6548 142.452 12.3785 138.398 11.7119 134.368C11.4596 122.861 11.811 111.374 12.7659 99.9092C12.9371 97.0173 14.4416 91.9093 12.8019 90.1887L14.1533 79.1528Z" fill="#6366F1"/>
<path d="M131.258 91.1688C131.232 92.5269 131.678 93.6368 132.255 93.6479C132.832 93.6589 133.321 92.567 133.347 91.209C133.373 89.8509 132.927 88.741 132.35 88.7299C131.773 88.7189 131.284 89.8108 131.258 91.1688Z" fill="black"/>
<path d="M83.6637 91.1582C83.6589 92.5214 84.1351 93.6283 84.7271 93.6303C85.3192 93.6324 85.803 92.5289 85.8078 91.1657C85.8125 89.8024 85.3364 88.6956 84.7444 88.6935C84.1523 88.6915 83.6685 89.7949 83.6637 91.1582Z" fill="black"/>
<path d="M120.231 106.856C141.06 108.612 163.915 113.693 181.563 125.801C184.671 128.243 189.617 133.585 188.212 137.972C183.221 130.72 168.257 123.882 160.131 120.855C131.339 110.306 99.556 109.477 69.3944 116.162L67.7188 112.297L68.9169 111.63C85.9196 107.21 103.024 105.618 120.231 106.856Z" fill="black"/>
<path d="M160.131 120.855L159.969 121.134C159.896 121.257 159.796 121.362 159.676 121.44C159.555 121.518 159.418 121.568 159.275 121.585C154.279 122.185 149.273 122.338 144.258 122.044C144.129 122.036 144.001 122.071 143.893 122.145C143.786 122.218 143.705 122.325 143.663 122.45C143.603 122.636 143.6 122.843 143.654 123.071L135.546 121.567C130.405 120.618 125.225 120.023 120.006 119.783C103.529 119.026 86.7634 119.612 70.6646 123.504C70.4364 123.558 70.2292 123.501 70.043 123.332L68.8809 116.612L69.3944 116.161C99.5559 109.477 131.339 110.306 160.131 120.855Z" fill="black"/>
<path d="M67.7201 112.296L69.3958 116.161L68.8822 116.612C57.7293 119.056 47.4322 123.473 37.991 129.864L37.6126 128.963C37.6426 127.593 37.1051 126.605 36 125.999L36.9009 125.17C46.3662 118.972 56.6392 114.681 67.7201 112.296Z" fill="black"/>
<path d="M68.8815 116.611L70.0437 123.332L69.9716 123.557C64.8276 124.89 42.4947 131.971 40.2785 136.206L39.5668 135.719L37.9902 129.863C47.4315 123.473 57.7286 119.056 68.8815 116.611Z" fill="black"/>
<path d="M135.546 121.567C135.774 122.347 135.474 122.774 134.645 122.846C113.069 124.702 91.3667 130.909 73.9166 143.782C73.6827 143.958 73.3982 144.053 73.1058 144.053H72.5202L69.9707 123.558L70.0428 123.332C70.2289 123.5 70.4361 123.558 70.6644 123.503C86.7632 119.612 103.529 119.026 120.006 119.783C125.225 120.023 130.405 120.618 135.546 121.567Z" fill="#D8ECFE"/>
<path d="M160.13 120.854C168.256 123.881 183.22 130.719 188.211 137.971L188.265 138.269C188.289 138.431 188.277 138.587 188.229 138.737C178.337 171.649 172.457 191.117 170.59 197.141C168.92 202.553 167.929 207.622 167.617 212.348C166.815 224.357 166.427 241.618 166.527 256.041C166.737 287.836 167.941 319.616 170.139 351.382C170.18 352.007 170.423 352.605 170.833 353.084C179.544 363.381 190.13 383.651 174.247 393.822C154.293 401.408 129.095 401.804 108.744 401.516C95.7231 401.702 82.7354 401.152 69.7807 399.867L69.5555 399.642C69.051 399.065 68.9879 398.402 69.3663 397.651C69.4624 397.603 69.5315 397.537 69.5735 397.453C69.5974 397.397 69.6378 397.35 69.6893 397.317C69.7409 397.285 69.8011 397.269 69.8618 397.272L100.861 399.263C105.438 400.128 109.825 398.984 113.78 399.029C122.69 399.128 131.734 398.083 140.671 397.804C144.275 397.69 151.578 396.741 162.581 394.957C167.761 394.11 173.725 391.128 176.283 385.984C178.914 377.994 177.706 371.787 173.986 364.579C172.626 361.94 171.833 359.354 169.779 356.399C169.532 354.592 168.557 353.691 166.851 353.697C166.899 351.162 166.872 349.165 166.77 347.706C163.5 300.166 162.274 252.519 164.833 204.88C164.838 204.743 164.808 204.608 164.744 204.488C164.681 204.368 164.587 204.267 164.473 204.195C148.761 194.213 129.599 190.646 111.447 190.484C100.594 190.189 89.8584 191.165 79.24 193.412H78.5643C78.3421 193.448 78.1469 193.436 77.9787 193.376C77.9146 193.353 77.8569 193.316 77.8101 193.267C77.7634 193.217 77.729 193.157 77.7097 193.091C77.6904 193.026 77.6867 192.956 77.6991 192.888C77.7114 192.82 77.7393 192.756 77.7805 192.7L78.0688 192.322C78.2645 192.068 78.352 191.75 78.3121 191.439L77.4742 184.592L89.8794 182.637C90.0035 182.618 90.1182 182.559 90.206 182.468C90.2938 182.377 90.3499 182.259 90.3659 182.133C91.2668 174.196 96.4649 174.763 103.42 174.655C108.855 174.577 114.296 174.667 119.744 174.926C124.203 175.133 126.401 177.925 126.527 182.25C126.529 182.373 126.578 182.49 126.663 182.579C126.748 182.667 126.864 182.72 126.987 182.727C139.557 183.568 151.428 186.865 162.599 192.619C162.652 192.647 162.71 192.664 162.77 192.667C162.83 192.671 162.891 192.662 162.947 192.641C163.003 192.619 163.054 192.586 163.097 192.544C163.139 192.501 163.172 192.45 163.193 192.394L182.121 140.638C182.172 140.499 182.175 140.347 182.13 140.205C182.084 140.063 181.992 139.939 181.869 139.854C170.205 131.824 157.467 126.23 143.653 123.071C143.599 122.842 143.602 122.635 143.662 122.449C143.704 122.325 143.784 122.218 143.892 122.144C144 122.071 144.128 122.036 144.257 122.044C149.272 122.338 154.278 122.185 159.274 121.584C159.417 121.567 159.554 121.518 159.675 121.44C159.795 121.361 159.895 121.257 159.968 121.134L160.13 120.854Z" fill="black"/>
<path d="M135.547 121.566L143.655 123.071C157.469 126.23 170.207 131.824 181.871 139.854C181.994 139.94 182.086 140.063 182.132 140.205C182.177 140.347 182.174 140.499 182.123 140.638L163.195 192.394C163.174 192.45 163.141 192.501 163.099 192.544C163.056 192.587 163.005 192.62 162.949 192.641C162.893 192.662 162.833 192.671 162.773 192.668C162.713 192.664 162.654 192.647 162.601 192.619C151.43 186.865 139.559 183.568 126.989 182.727C126.866 182.721 126.751 182.668 126.665 182.579C126.58 182.49 126.532 182.373 126.529 182.25C126.403 177.926 124.205 175.133 119.746 174.926C114.298 174.667 108.857 174.577 103.422 174.655C96.467 174.764 91.2689 174.196 90.368 182.133C90.352 182.259 90.2959 182.377 90.2081 182.468C90.1203 182.559 90.0056 182.618 89.8815 182.637L77.4763 184.592L77.2511 184.142C75.8638 170.791 73.5395 157.413 72.5215 144.052H73.1071C73.3995 144.052 73.6839 143.958 73.9179 143.782C91.368 130.909 113.07 124.701 134.646 122.846C135.475 122.774 135.776 122.347 135.547 121.566Z" fill="#D8ECFE"/>
<path d="M69.9705 123.558L72.5199 144.053C73.5379 157.413 75.8622 170.791 77.2496 184.142C77.2676 184.418 77.1835 184.574 76.9973 184.61C70.7572 185.746 64.8144 187.731 59.1689 190.565C58.8175 190.745 58.6103 190.7 58.331 190.448C58.2049 190.169 57.8356 189.718 57.7545 189.466C52.187 172.842 46.6676 156.2 41.1962 139.539C40.6017 137.714 40.2954 136.602 40.2773 136.206C42.4935 131.972 64.8264 124.891 69.9705 123.558Z" fill="#D8ECFE"/>
<path d="M36.0001 125.999C37.1052 126.605 37.6427 127.593 37.6127 128.962C35.8109 131.746 31.2525 134.881 28.6039 137.07C28.3246 132.836 32.9551 128.035 36.0001 125.999Z" fill="black"/>
<path d="M37.6123 128.963L37.9907 129.864L39.5673 135.72C38.3841 137.425 36.9787 138.852 35.3511 139.999C35.2454 140.074 35.167 140.181 35.128 140.305C35.089 140.428 35.0914 140.561 35.1349 140.683C39.327 152.299 43.5011 163.911 47.6572 175.521C48.0836 176.71 48.486 177.734 48.8644 178.593L43.2969 186.214C38.5643 171.037 33.9367 155.875 29.4143 140.728C28.9398 139.143 28.6696 137.924 28.6035 137.071C31.2521 134.882 35.8106 131.747 37.6123 128.963Z" fill="black"/>
<path d="M11.7115 134.368C12.3782 138.398 12.6544 142.452 12.5403 146.53C11.6935 142.512 11.4172 138.458 11.7115 134.368Z" fill="#6366F1"/>
<path d="M39.5665 135.719L40.2782 136.206C40.2962 136.602 40.6025 137.713 41.1971 139.539C46.6684 156.199 52.1878 172.842 57.7553 189.466C57.8364 189.718 58.2057 190.169 58.3319 190.448L58.2598 191.574C56.9505 191.61 55.7343 191.979 54.6112 192.682C54.5643 192.711 54.5114 192.73 54.4566 192.737C54.4018 192.744 54.3464 192.738 54.2945 192.721C54.2425 192.704 54.1955 192.675 54.1567 192.637C54.118 192.599 54.0886 192.553 54.0707 192.502L48.8636 178.592C48.4852 177.733 48.0828 176.709 47.6564 175.52C43.5003 163.911 39.3262 152.298 35.1341 140.683C35.0906 140.561 35.0882 140.428 35.1272 140.304C35.1662 140.181 35.2446 140.073 35.3503 139.998C36.9779 138.851 38.3833 137.425 39.5665 135.719Z" fill="#D8ECFE"/>
<path d="M29.6571 162.521C25.6752 164.395 18.7204 164.223 14.1799 164.863C11.3962 165.259 6.99986 165.331 3.3693 166.629C2.63959 166.89 2.09005 166.773 1.34231 166.818C1.21405 166.823 1.0926 166.877 1.00354 166.969C0.914485 167.062 0.864762 167.185 0.864847 167.313V167.89L0 167.476L0.450442 165.223L0.747731 165.196C0.833058 165.189 0.914043 165.155 0.97999 165.101C1.04594 165.046 1.09374 164.972 1.11709 164.89C2.41437 160.728 4.73264 157.248 8.07191 154.449C9.53134 153.182 11.183 152.257 13.0268 151.674L17.0807 150.395L24.6842 149.746C24.8159 149.735 24.948 149.769 25.0603 149.842C25.1726 149.915 25.2588 150.024 25.3058 150.152L29.6571 162.521Z" fill="black"/>
<path d="M199.943 150.413L203.789 151.224C211.417 153.668 215.759 158.86 216.816 166.8C207.315 165.563 197.82 164.302 188.33 163.016C187.799 162.944 187.628 163.107 187.123 163.161L191.402 150.764C191.527 150.4 191.773 150.089 192.1 149.885C192.426 149.68 192.812 149.593 193.195 149.638L199.943 150.413Z" fill="black"/>
<path d="M29.6555 162.521C30.3222 163.59 30.3222 164.641 29.6555 165.674C27.8057 165.487 26.028 165.713 24.3223 166.349L12.3495 167.214L8.97123 167.511C7.59588 167.265 6.31963 167.466 5.14248 168.115L3.79115 168.34C2.87826 167.896 1.9023 167.746 0.863281 167.89V167.313C0.863196 167.185 0.912919 167.061 1.00198 166.969C1.09104 166.877 1.21249 166.822 1.34075 166.818C2.08848 166.773 2.63802 166.89 3.36774 166.629C6.9983 165.331 11.3946 165.259 14.1783 164.863C18.7188 164.223 25.6736 164.394 29.6555 162.521Z" fill="black"/>
<path d="M216.816 166.8L216.987 167.872C217.003 167.978 216.994 168.087 216.961 168.189C216.928 168.291 216.872 168.385 216.797 168.462C216.722 168.539 216.63 168.597 216.528 168.632C216.427 168.667 216.319 168.679 216.212 168.665L201.203 166.818L192.753 165.944C191.167 165.494 189.378 165.328 187.384 165.449C186.603 164.746 186.516 163.983 187.122 163.16C187.627 163.106 187.798 162.944 188.33 163.016C197.819 164.301 207.314 165.563 216.816 166.8Z" fill="black"/>
<path d="M192.753 165.944C194.098 202.796 193.506 239.618 190.978 276.41C189.636 295.987 187.807 316.581 182.05 335.409C181.492 337.256 177.321 346.832 175.023 346.535C173.822 346.385 173.17 345.703 173.068 344.49C169.645 303.248 169.429 262.312 172.474 220.402C173.167 210.79 174.645 204.178 178.014 194.295C181.269 184.721 184.392 175.106 187.383 165.449C189.377 165.328 191.167 165.494 192.753 165.944ZM188.519 173.403C185.51 182.815 182.465 192.118 179.384 201.313C177.942 205.637 177.203 209.204 176.969 213.421C176.267 225.679 175.768 237.94 175.474 250.204C175.321 256.627 174.69 266.834 175.131 275.239C175.135 275.289 175.15 275.337 175.176 275.38C175.201 275.422 175.237 275.458 175.279 275.484C175.321 275.511 175.369 275.527 175.418 275.531C175.468 275.535 175.518 275.528 175.564 275.509L186.41 270.942C186.694 270.823 186.937 270.627 187.113 270.376C187.288 270.126 187.388 269.832 187.401 269.528C187.861 260.465 190.69 174.493 188.942 173.259C188.906 173.235 188.865 173.219 188.822 173.213C188.779 173.207 188.735 173.211 188.694 173.225C188.653 173.239 188.616 173.263 188.585 173.294C188.555 173.324 188.532 173.362 188.519 173.403ZM184.861 284.798L175.231 285.798C175.105 285.811 174.99 285.869 174.905 285.962C174.82 286.055 174.773 286.176 174.771 286.302C174.633 303.377 174.72 320.431 175.032 337.463C175.056 338.658 175.369 340.121 175.969 341.851C176.071 342.139 176.179 342.142 176.294 341.86C182.51 326.716 184.429 304.464 186.14 286.05C186.156 285.88 186.134 285.709 186.075 285.549C186.016 285.388 185.922 285.243 185.799 285.123C185.677 285.004 185.529 284.912 185.367 284.856C185.205 284.8 185.032 284.78 184.861 284.798Z" fill="black"/>
<path d="M29.6569 165.674C33.6989 178.04 37.7559 190.403 41.8279 202.763C44.3143 210.304 44.7918 221.06 45.1521 227.439C47.2722 264.147 47.02 300.837 44.3954 337.508C44.2032 340.217 43.954 342.947 43.6477 345.698C43.6307 345.851 43.5762 345.999 43.4891 346.126C43.4019 346.254 43.2847 346.359 43.1478 346.431C43.0108 346.503 42.8583 346.54 42.7036 346.54C42.5489 346.539 42.3967 346.5 42.2603 346.427C28.0714 338.95 25.2246 268.068 24.4498 248.384C23.3808 221.039 23.3388 193.695 24.3237 166.35C26.0294 165.713 27.8071 165.488 29.6569 165.674ZM28.1705 231.267C28.5969 244.15 29.0774 257.051 29.6119 269.969C29.6176 270.099 29.6604 270.224 29.7353 270.331C29.8103 270.438 29.9143 270.522 30.0353 270.573L41.6297 275.384C41.6849 275.405 41.7445 275.413 41.8035 275.407C41.8625 275.401 41.9191 275.381 41.9686 275.348C42.0181 275.315 42.0589 275.271 42.0878 275.219C42.1166 275.168 42.1325 275.11 42.1342 275.05C42.3684 253.645 41.1432 232.123 39.8279 210.754C39.6898 208.502 39.2453 206.28 38.4946 204.088C35.1794 194.34 32.4947 184.007 28.2876 174.629C28.1675 174.359 28.1044 174.374 28.0984 174.674C27.9092 189.169 28.666 204.25 27.6029 218.655C27.2876 222.88 28.0894 228.682 28.1705 231.267ZM41.2153 285.789L31.8731 284.69C31.7771 284.678 31.6796 284.687 31.5875 284.717C31.4954 284.747 31.4111 284.797 31.3406 284.863C31.27 284.929 31.2149 285.01 31.1793 285.1C31.1437 285.19 31.1283 285.287 31.1344 285.383C31.735 295.768 32.9632 305.924 34.819 315.851C34.843 315.971 35.4977 319.92 36.7829 327.698C37.4045 331.419 38.6297 339.635 41.1162 342.418C41.1495 342.456 41.1917 342.484 41.2389 342.501C41.2861 342.518 41.3368 342.522 41.3862 342.514C41.4356 342.506 41.4822 342.485 41.5216 342.455C41.5611 342.424 41.592 342.383 41.6117 342.337C42.1102 341.196 42.3444 340.19 42.3144 339.319C42.0801 331.926 42.0711 324.533 42.2873 317.14C42.6026 306.347 42.3774 296.996 42.2693 286.96C42.2649 286.67 42.1557 286.392 41.9619 286.177C41.7681 285.961 41.5029 285.824 41.2153 285.789Z" fill="black"/>
<path d="M188.518 173.404C188.531 173.363 188.554 173.325 188.585 173.294C188.615 173.263 188.652 173.24 188.694 173.226C188.735 173.212 188.778 173.208 188.822 173.214C188.865 173.219 188.906 173.235 188.941 173.26C190.689 174.494 187.86 260.465 187.401 269.528C187.388 269.832 187.288 270.126 187.112 270.377C186.937 270.627 186.693 270.824 186.41 270.943L175.563 275.51C175.517 275.529 175.467 275.536 175.418 275.532C175.368 275.527 175.32 275.511 175.278 275.485C175.236 275.459 175.201 275.423 175.175 275.38C175.15 275.337 175.134 275.289 175.131 275.24C174.689 266.835 175.32 256.628 175.473 250.204C175.767 237.94 176.266 225.679 176.969 213.421C177.203 209.205 177.942 205.638 179.383 201.313C182.464 192.118 185.509 182.815 188.518 173.404Z" fill="#D8ECFE"/>
<path d="M28.17 231.267C28.0889 228.682 27.2871 222.88 27.6024 218.655C28.6654 204.25 27.9087 189.169 28.0979 174.674C28.1039 174.373 28.167 174.358 28.2871 174.629C32.4942 184.007 35.1788 194.34 38.4941 204.087C39.2448 206.28 39.6893 208.502 39.8274 210.754C41.1427 232.123 42.3679 253.645 42.1336 275.05C42.132 275.109 42.1161 275.167 42.0872 275.219C42.0584 275.271 42.0175 275.315 41.968 275.348C41.9186 275.381 41.8619 275.401 41.8029 275.407C41.744 275.413 41.6843 275.405 41.6292 275.383L30.0348 270.573C29.9138 270.522 29.8098 270.438 29.7348 270.331C29.6598 270.224 29.617 270.099 29.6114 269.969C29.0769 257.05 28.5964 244.15 28.17 231.267Z" fill="#D8ECFE"/>
<path d="M48.8638 178.593L54.0709 192.502C54.0889 192.553 54.1183 192.6 54.157 192.637C54.1957 192.675 54.2428 192.704 54.2947 192.721C54.3466 192.739 54.402 192.744 54.4569 192.737C54.5117 192.731 54.5645 192.712 54.6115 192.683C55.7346 191.98 56.9508 191.611 58.26 191.575L61.224 199.196L60.9627 199.457L52.6205 204.34C52.499 204.41 52.3993 204.513 52.3325 204.637C52.2657 204.761 52.2344 204.901 52.2421 205.043C55.0979 254.213 52.9088 302.554 50.08 351.634C49.9959 353.094 50.4524 354.358 51.4494 355.427C52.6445 356.706 54.5394 357.965 57.1339 359.202C57.5664 359.694 58.254 360.136 59.197 360.526C59.0889 362.46 58.6384 364.325 57.8456 366.121L55.2601 365.274C55.1366 365.232 55.0338 365.145 54.9734 365.031C54.9129 364.916 54.8994 364.784 54.9358 364.661L55.125 364.004C55.177 363.832 55.1718 363.649 55.1101 363.48C55.0484 363.311 54.9335 363.166 54.7826 363.067L51.6836 361.004C51.4604 360.851 51.2878 360.634 51.1881 360.382C50.5275 358.688 49.5125 357.262 48.1431 356.103C48.0936 356.06 48.0361 356.027 47.9738 356.007C47.9116 355.986 47.8459 355.978 47.7805 355.983C47.7151 355.988 47.6514 356.006 47.5931 356.036C47.5347 356.066 47.4828 356.107 47.4404 356.157C46.7918 356.914 44.1432 360.679 43.0261 359.679C42.9215 359.586 42.8426 359.467 42.7968 359.335C42.7511 359.203 42.7401 359.061 42.7649 358.923L42.9811 357.751C45.0711 354.914 46.8549 352.86 47.1341 349.13C50.5485 303.176 51.7737 256.97 49.4945 210.943C49.0981 202.836 45.5216 194.016 43.2964 186.214L48.8638 178.593Z" fill="black"/>
<path d="M77.2523 184.142L77.4776 184.592L78.3154 191.439C78.3553 191.75 78.2678 192.068 78.0721 192.322L77.7839 192.7C77.7426 192.756 77.7147 192.82 77.7024 192.888C77.6901 192.956 77.6937 193.026 77.713 193.092C77.7323 193.157 77.7667 193.217 77.8134 193.267C77.8602 193.316 77.9179 193.353 77.9821 193.376C78.1502 193.436 78.3454 193.448 78.5676 193.412C72.6218 194.853 66.8411 196.781 61.2256 199.195L58.2617 191.574L58.3338 190.448C58.6131 190.7 58.8203 190.745 59.1716 190.565C64.8171 187.73 70.76 185.745 77.0001 184.61C77.1863 184.574 77.2703 184.418 77.2523 184.142Z" fill="black"/>
<path d="M111.448 190.484C111.628 191.373 111.772 193.013 111.88 195.403C113.754 237.871 113.727 279.068 111.799 318.995C111.619 322.707 111.256 333.454 110.709 351.238C110.707 351.358 110.656 351.473 110.569 351.557C110.481 351.641 110.363 351.688 110.241 351.688C97.5143 351.706 84.977 350.688 72.6289 348.634C76.8631 298.086 78.1874 248.825 78.4126 195.286C78.4124 194.995 78.5108 194.712 78.6918 194.484C78.9441 194.184 79.1273 193.827 79.2414 193.412C89.8598 191.166 100.595 190.19 111.448 190.484Z" fill="#6366F1"/>
<path d="M111.448 190.484C129.601 190.646 148.762 194.214 164.474 204.195C164.589 204.267 164.682 204.368 164.746 204.488C164.809 204.608 164.839 204.744 164.834 204.88C162.276 252.519 163.501 300.166 166.771 347.706C166.873 349.165 166.9 351.162 166.852 353.697C158.798 366.03 118.646 367.949 104.691 367.507L109.223 367.435C109.374 367.433 109.523 367.396 109.659 367.327C109.795 367.258 109.913 367.16 110.006 367.039C110.397 366.534 110.343 366.057 109.844 365.607C109.741 365.515 109.662 365.399 109.613 365.271C109.565 365.142 109.548 365.004 109.565 364.868L110.898 353.292C110.909 353.204 110.9 353.116 110.873 353.032C110.846 352.948 110.801 352.871 110.741 352.805C110.682 352.739 110.609 352.687 110.527 352.651C110.445 352.616 110.357 352.597 110.268 352.598C102.106 352.76 93.9677 352.424 85.8538 351.589C82.9439 351.292 77.3044 350.328 72.9351 350.165L59.0074 347.427C57.6291 346.922 53.0706 345.994 52.3049 345.157C52.2673 345.115 52.24 345.064 52.2253 345.01C52.2107 344.956 52.2089 344.898 52.2203 344.843C52.2317 344.788 52.2559 344.736 52.2909 344.692C52.3259 344.648 52.3708 344.613 52.422 344.589C53.0796 344.292 57.7192 345.706 58.9714 345.814L72.6288 348.634C84.9769 350.688 97.5142 351.706 110.241 351.688C110.363 351.688 110.481 351.641 110.569 351.557C110.656 351.472 110.707 351.358 110.709 351.238C111.256 333.454 111.619 322.707 111.799 318.995C113.727 279.068 113.754 237.87 111.88 195.403C111.772 193.012 111.628 191.373 111.448 190.484Z" fill="#6366F1"/>
<path d="M78.5649 193.412H79.2406C79.1265 193.827 78.9433 194.184 78.691 194.484C78.51 194.712 78.4116 194.995 78.4118 195.286C78.1865 248.825 76.8622 298.086 72.6281 348.634L58.9707 345.814C59.3671 344.055 59.7425 341.514 60.0968 338.193C61.8926 321.365 63.1718 306.275 63.9346 292.924C65.43 266.978 64.4661 232.799 61.3671 201.268C61.277 200.355 61.1418 199.751 60.9617 199.457L61.2229 199.196C66.8384 196.781 72.6191 194.854 78.5649 193.412Z" fill="#6366F1"/>
<path d="M60.9628 199.457C61.143 199.751 61.2781 200.354 61.3682 201.267C64.4672 232.798 65.4312 266.978 63.9357 292.923C63.173 306.274 61.8937 321.364 60.0979 338.193C59.7436 341.514 59.3682 344.054 58.9718 345.814C57.7196 345.706 53.0801 344.292 52.4224 344.589C52.3713 344.613 52.3264 344.648 52.2914 344.692C52.2563 344.736 52.2321 344.788 52.2208 344.843C52.2094 344.898 52.2111 344.955 52.2258 345.01C52.2405 345.064 52.2677 345.114 52.3053 345.156C53.0711 345.994 57.6295 346.922 59.0079 347.427L57.134 359.201C54.5395 357.964 52.6446 356.706 51.4495 355.426C50.4525 354.357 49.996 353.093 50.0801 351.634C52.9089 302.554 55.098 254.212 52.2422 205.042C52.2345 204.901 52.2658 204.76 52.3326 204.636C52.3994 204.512 52.4991 204.409 52.6206 204.339L60.9628 199.457Z" fill="#6366F1"/>
<path d="M16.1427 246.978C16.6472 247.615 16.8634 248.233 16.7913 248.834C15.9805 255.717 15.9625 262.605 16.7372 269.5C16.8393 270.407 16.5901 271.383 15.9895 272.428C11.386 267.861 11.8364 257.266 13.0166 251.924C13.389 250.242 14.431 248.594 16.1427 246.978Z" fill="#1A1A18"/>
<path d="M201.536 246.942C205.392 250.402 206.482 268.753 201.077 272.077C200.368 270.984 200.122 269.744 200.338 268.356C201.305 262.11 201.218 255.669 200.077 249.032C199.867 247.801 200.353 247.105 201.536 246.942Z" fill="black"/>
<path d="M15.9908 276.032L15.7656 274.906C18.3782 274.996 20.9337 275.476 23.4321 276.347C23.7444 276.455 23.7414 276.56 23.4231 276.662C22.2069 277.068 17.8016 275.969 15.9908 276.032Z" fill="#6366F1"/>
<path d="M41.215 285.788C41.5026 285.823 41.7678 285.961 41.9616 286.176C42.1554 286.392 42.2646 286.67 42.269 286.96C42.3771 296.995 42.6024 306.347 42.287 317.139C42.0708 324.532 42.0798 331.926 42.3141 339.319C42.3441 340.19 42.1099 341.196 41.6114 342.337C41.5917 342.383 41.5608 342.423 41.5213 342.454C41.4819 342.485 41.4354 342.505 41.3859 342.514C41.3365 342.522 41.2858 342.517 41.2386 342.5C41.1914 342.484 41.1492 342.455 41.1159 342.418C38.6295 339.634 37.4043 331.418 36.7826 327.697C35.4974 319.92 34.8427 315.971 34.8187 315.851C32.9629 305.923 31.7347 295.767 31.1341 285.383C31.128 285.286 31.1434 285.19 31.179 285.1C31.2147 285.01 31.2697 284.929 31.3403 284.862C31.4108 284.796 31.4952 284.746 31.5872 284.716C31.6793 284.686 31.7768 284.677 31.8728 284.689L41.215 285.788Z" fill="#D8ECFE"/>
<path d="M184.86 284.797C185.031 284.779 185.204 284.799 185.366 284.856C185.529 284.912 185.676 285.003 185.799 285.123C185.921 285.243 186.015 285.388 186.074 285.548C186.133 285.709 186.155 285.88 186.14 286.05C184.428 304.464 182.509 326.716 176.293 341.859C176.179 342.142 176.071 342.139 175.969 341.85C175.368 340.121 175.056 338.658 175.032 337.463C174.72 320.43 174.632 303.377 174.771 286.302C174.772 286.176 174.82 286.055 174.904 285.962C174.989 285.869 175.105 285.811 175.23 285.797L184.86 284.797Z" fill="#D8ECFE"/>
<path d="M201.725 284.815C203.425 303.47 204.178 322.163 203.986 340.895C203.869 352.373 203.346 366.814 195.662 376.093C194.275 377.778 194.13 379.174 194.067 381.21C192.185 398.092 179.698 406.732 163.69 408.408C161.203 408.669 144.258 410.579 143.258 409.624C142.993 409.366 143.041 409.209 143.402 409.155C153.627 407.66 165.068 406.065 174.095 400.804C187.698 393.615 194.076 377.66 195.211 363.111C197.404 335.13 198.713 316.782 199.139 308.067C199.614 298.248 200.079 290.884 200.536 285.978C200.549 285.849 200.6 285.728 200.68 285.63C200.76 285.532 200.867 285.462 200.986 285.428C201.31 285.332 201.557 285.128 201.725 284.815Z" fill="#6366F1"/>
<path d="M15.3146 285.941C15.9722 286.554 16.4407 287.14 16.4947 288.095C17.9812 315.355 20.6118 342.94 21.9991 364.318C22.2574 368.342 23.0081 372.021 24.2513 375.354L22.7739 375.696C22.7184 375.708 22.666 375.732 22.6203 375.766C22.5746 375.8 22.5364 375.843 22.5084 375.893C22.4804 375.944 22.4631 375.999 22.4576 376.057C22.4521 376.114 22.4586 376.173 22.4766 376.228C22.6628 376.762 22.5907 377.234 22.2604 377.642C15.8731 370.426 14.8101 363.21 13.3507 352.994C12.7861 349.066 12.4648 338.052 12.3867 319.95L12.9723 319.914C13.0942 319.909 13.2098 319.858 13.2952 319.771C13.3807 319.684 13.4295 319.567 13.4317 319.445C13.684 308.256 14.3116 297.088 15.3146 285.941Z" fill="#6366F1"/>
<path d="M59.0067 347.427L72.9343 350.165C72.619 354.562 72.7181 359.625 71.547 363.868C67.3188 363.165 63.2018 362.051 59.1958 360.526C58.2529 360.135 57.5652 359.694 57.1328 359.201L59.0067 347.427Z" fill="#6366F1"/>
<path d="M72.9342 350.166C77.3035 350.328 82.943 351.292 85.8529 351.589C93.9668 352.424 102.105 352.76 110.267 352.598C110.356 352.597 110.444 352.616 110.526 352.651C110.608 352.687 110.681 352.739 110.74 352.805C110.8 352.871 110.845 352.948 110.872 353.032C110.899 353.116 110.908 353.204 110.897 353.292L109.564 364.868C109.547 365.004 109.564 365.142 109.613 365.271C109.661 365.399 109.74 365.515 109.843 365.607C110.342 366.057 110.396 366.535 110.006 367.039C109.913 367.16 109.794 367.258 109.658 367.327C109.522 367.396 109.373 367.433 109.222 367.435L104.69 367.508C93.4894 367.58 82.4416 366.366 71.5469 363.868C72.718 359.625 72.6189 354.562 72.9342 350.166Z" fill="#6366F1"/>
<path d="M166.853 353.697C168.558 353.691 169.534 354.592 169.78 356.399C167.264 356.754 166.237 358.099 166.699 360.435C166.73 360.576 166.709 360.723 166.639 360.85C166.57 360.977 166.457 361.076 166.321 361.129L160.051 363.607C159.931 363.654 159.831 363.744 159.77 363.859C159.709 363.975 159.691 364.108 159.718 364.237C160.042 365.679 164.826 363.616 165.573 363.138C166.42 362.604 167.291 362.559 168.186 363.003C168.546 363.183 168.738 363.402 168.762 363.661C168.782 363.853 168.73 364.045 168.617 364.2C168.504 364.355 168.337 364.461 168.15 364.498L152.474 367.697C152 367.793 151.943 368.003 152.303 368.327C153.916 369.751 169.907 366.003 172.78 365.264C172.832 365.252 172.885 365.252 172.936 365.266C172.988 365.279 173.035 365.304 173.074 365.34C173.113 365.375 173.143 365.42 173.161 365.469C173.179 365.519 173.184 365.572 173.177 365.625C172.997 366.679 172.123 366.715 171.276 366.958C156.583 371.237 142.898 371.462 127.835 372.651C109.716 374.087 91.6168 373.597 73.5391 371.183C72.8604 371.093 72.386 370.766 72.1157 370.201C72.0076 369.985 71.8905 369.979 71.7643 370.183L71.3229 370.877C66.9266 368.618 62.4342 367.033 57.8457 366.12C58.6385 364.324 59.0889 362.459 59.197 360.526C63.203 362.051 67.32 363.165 71.5481 363.868C82.4428 366.366 93.4907 367.579 104.692 367.507C118.646 367.949 158.799 366.03 166.853 353.697Z" fill="black"/>
<path d="M57.8447 366.121L56.4574 373.328C54.5175 372.902 53.1001 371.902 52.2052 370.328C51.1962 368.571 50.4034 368.103 48.7548 367.238C48.7149 367.216 48.6798 367.187 48.6513 367.152C48.6229 367.116 48.6018 367.076 48.5892 367.032C48.5767 366.988 48.5729 366.943 48.5781 366.898C48.5833 366.853 48.5975 366.809 48.6197 366.77L48.7458 366.553C48.7964 366.462 48.8738 366.388 48.9683 366.34C49.0628 366.292 49.1703 366.272 49.2773 366.283L52.1151 366.571C52.5655 366.619 52.6797 366.445 52.4574 366.049C52.1151 365.436 46.7729 363.959 45.2143 362.653C45.1392 362.59 45.0519 362.544 44.9581 362.517C44.8644 362.49 44.7662 362.484 44.6701 362.497C44.574 362.511 44.4821 362.544 44.4005 362.596C44.3188 362.648 44.2493 362.716 44.1963 362.797C38.6289 371.094 35.6199 385.211 46.0432 391.274C46.27 391.408 46.442 391.615 46.5296 391.859L46.7999 392.625C46.8508 392.766 46.933 392.894 47.0405 393C47.148 393.106 47.2782 393.187 47.4215 393.238L53.7547 395.4C54.4514 395.904 54.8388 396.568 54.9168 397.391L54.2412 397.237C30.0795 393.355 30.4038 373.454 42.9801 357.752L42.7639 358.923C42.7392 359.061 42.7502 359.203 42.7959 359.335C42.8416 359.468 42.9206 359.586 43.0252 359.68C44.1423 360.68 46.7909 356.914 47.4395 356.157C47.4819 356.107 47.5338 356.066 47.5921 356.036C47.6505 356.006 47.7142 355.988 47.7796 355.983C47.8449 355.978 47.9106 355.986 47.9729 356.007C48.0351 356.027 48.0927 356.06 48.1422 356.103C49.5116 357.262 50.5265 358.689 51.1872 360.382C51.2869 360.635 51.4595 360.851 51.6827 361.004L54.7817 363.067C54.9326 363.166 55.0475 363.311 55.1092 363.48C55.1709 363.649 55.1761 363.833 55.1241 364.004L54.9349 364.661C54.8985 364.784 54.912 364.917 54.9725 365.031C55.0329 365.145 55.1357 365.232 55.2592 365.274L57.8447 366.121Z" fill="black"/>
<path d="M169.781 356.399C171.835 359.354 172.628 361.94 173.988 364.579C177.709 371.787 178.916 377.994 176.285 385.984C174.279 385.972 173.09 386.044 172.718 386.201C167.673 388.3 159.664 388.993 153.565 389.804C151.952 390.011 150.124 389.273 148.385 389.93C146.991 390.459 146.028 390.747 145.493 390.795C128.761 392.231 112.383 392.615 96.3588 391.948C95.0916 391.894 94.1366 392.321 93.494 393.228C93.3018 393.486 93.3679 393.624 93.6922 393.642C119.007 394.849 145.862 394.264 170.7 388.75C171.198 388.642 171.589 388.606 171.871 388.642C172.568 388.738 172.661 389.026 172.15 389.507C169.88 391.66 167.493 391.345 165.24 391.885C162.267 392.606 159.376 392.426 156.412 393.038C154.165 393.507 151.472 393.822 148.331 393.984C146.457 394.086 140.691 394.609 131.034 395.552C127.971 395.852 118.482 395.903 102.566 395.705C102.242 395.699 102.191 395.816 102.413 396.056C103.188 396.876 105.521 396.642 104.764 398.57C104.71 398.702 104.619 398.816 104.503 398.899C104.387 398.982 104.249 399.03 104.106 399.038L100.863 399.263L69.8638 397.272C69.8031 397.269 69.743 397.285 69.6914 397.317C69.6399 397.35 69.5994 397.397 69.5756 397.453C69.5335 397.537 69.4644 397.603 69.3684 397.651L69.0801 396.516C69.3143 387.777 70.062 379.231 71.3233 370.877L71.7647 370.183C71.8908 369.979 72.0079 369.985 72.1161 370.201C72.3863 370.766 72.8608 371.093 73.5394 371.183C91.6172 373.597 109.716 374.087 127.836 372.651C142.898 371.462 156.583 371.237 171.276 366.958C172.123 366.715 172.997 366.679 173.177 365.624C173.184 365.572 173.179 365.519 173.161 365.469C173.143 365.42 173.113 365.375 173.074 365.34C173.035 365.304 172.988 365.279 172.937 365.266C172.886 365.252 172.832 365.252 172.781 365.264C169.907 366.003 153.916 369.751 152.304 368.327C151.943 368.003 152 367.793 152.475 367.696L168.15 364.498C168.337 364.461 168.504 364.355 168.617 364.2C168.731 364.045 168.783 363.853 168.763 363.661C168.739 363.402 168.547 363.183 168.186 363.003C167.291 362.558 166.421 362.604 165.574 363.138C164.826 363.615 160.042 365.679 159.718 364.237C159.691 364.108 159.71 363.975 159.771 363.859C159.832 363.744 159.931 363.654 160.051 363.606L166.321 361.129C166.457 361.076 166.57 360.977 166.64 360.85C166.709 360.723 166.73 360.576 166.7 360.435C166.237 358.099 167.264 356.754 169.781 356.399Z" fill="#D8ECFE"/>
<path d="M56.4592 373.327C55.5493 380.011 53.8646 387.579 54.279 394.272L53.7565 395.399L47.4233 393.236C47.28 393.186 47.1498 393.105 47.0423 392.999C46.9348 392.893 46.8526 392.765 46.8017 392.624L46.5314 391.858C46.4438 391.614 46.2718 391.407 46.045 391.273C35.6217 385.21 38.6307 371.093 44.1981 362.796C44.2511 362.715 44.3206 362.647 44.4023 362.595C44.4839 362.543 44.5758 362.51 44.6719 362.496C44.768 362.482 44.8662 362.489 44.96 362.516C45.0537 362.543 45.141 362.589 45.2161 362.651C46.7747 363.958 52.1169 365.435 52.4592 366.048C52.6815 366.444 52.5673 366.618 52.1169 366.57L49.2791 366.282C49.1721 366.271 49.0646 366.291 48.9701 366.339C48.8756 366.387 48.7982 366.461 48.7476 366.552L48.6215 366.769C48.5993 366.808 48.5851 366.852 48.5799 366.897C48.5747 366.942 48.5785 366.987 48.591 367.031C48.6036 367.075 48.6247 367.115 48.6532 367.151C48.6816 367.186 48.7167 367.215 48.7566 367.237C50.4052 368.102 51.198 368.57 52.207 370.327C53.1019 371.901 54.5193 372.901 56.4592 373.327Z" fill="#D8ECFE"/>
<path d="M57.8468 366.12C62.4353 367.033 66.9277 368.619 71.324 370.877C70.0628 379.231 69.315 387.777 69.0808 396.516C63.9698 396.93 59.036 396.183 54.2793 394.273C53.8649 387.579 55.5495 380.012 56.4594 373.327L57.8468 366.12Z" fill="#D8ECFE"/>
<path d="M24.2527 375.354C28.3367 390.897 38.1083 400.795 53.5674 405.047C58.4502 406.332 63.5342 407.344 68.8194 408.083L72.0355 408.723L72.0445 409.074C72.0457 409.128 72.0361 409.182 72.0163 409.232C71.9964 409.282 71.9668 409.328 71.929 409.367C71.8913 409.405 71.8461 409.436 71.7964 409.457C71.7466 409.478 71.6931 409.488 71.6391 409.488C57.5223 409.443 40.4776 408.948 30.3066 397.561C26.3878 393.182 24.3247 389.867 23.8293 383.786C23.816 383.652 23.7618 383.526 23.6744 383.425C23.587 383.325 23.4709 383.256 23.3428 383.228C23.2227 383.204 23.0995 383.207 22.9734 383.237C23.1716 381.297 22.9344 379.432 22.2617 377.642C22.592 377.234 22.6641 376.762 22.4779 376.228C22.4599 376.173 22.4534 376.114 22.4589 376.057C22.4644 375.999 22.4817 375.943 22.5097 375.893C22.5378 375.843 22.5759 375.8 22.6216 375.766C22.6674 375.732 22.7197 375.708 22.7752 375.696L24.2527 375.354Z" fill="#6366F1"/>
<path d="M194.068 381.21C194.104 415.786 156.015 419.056 130.817 419.66C116.199 420.002 106.064 420.086 100.413 419.912C91.2536 419.636 82.0976 419.389 72.9446 419.173C71.5813 419.137 68.9567 418.861 65.0709 418.344C43.4047 415.453 25.1168 408.038 22.9727 383.237C23.0988 383.207 23.2219 383.204 23.342 383.228C23.4702 383.256 23.5862 383.325 23.6736 383.426C23.761 383.526 23.8152 383.652 23.8285 383.786C24.324 389.867 26.387 393.183 30.3058 397.561C40.4768 408.948 57.5215 409.444 71.6384 409.489C71.6924 409.489 71.7458 409.478 71.7956 409.457C71.8454 409.436 71.8905 409.405 71.9283 409.367C71.966 409.328 71.9957 409.282 72.0155 409.232C72.0354 409.182 72.045 409.128 72.0438 409.074L72.0348 408.723C84.0886 410.339 96.1904 410.951 108.34 410.561C108.454 410.558 108.561 410.511 108.64 410.428C108.72 410.346 108.764 410.235 108.764 410.119L108.746 401.516C129.097 401.804 154.294 401.408 174.249 393.822C173.264 396.117 173.213 398.444 174.096 400.804C165.069 406.065 153.628 407.66 143.403 409.155C143.042 409.209 142.994 409.366 143.259 409.624C144.259 410.579 161.204 408.669 163.691 408.408C179.699 406.732 192.186 398.093 194.068 381.21Z" fill="#6366F1"/>
<path d="M176.285 385.985C173.727 391.129 167.763 394.111 162.583 394.958C151.58 396.741 144.277 397.69 140.673 397.804C131.736 398.084 122.692 399.129 113.782 399.029C109.827 398.984 105.44 400.129 100.863 399.264L104.106 399.039C104.249 399.03 104.387 398.982 104.503 398.899C104.619 398.816 104.71 398.702 104.764 398.57C105.521 396.642 103.187 396.876 102.413 396.057C102.191 395.816 102.242 395.699 102.566 395.705C118.481 395.903 127.971 395.852 131.034 395.552C140.691 394.609 146.457 394.087 148.331 393.985C151.472 393.822 154.165 393.507 156.412 393.039C159.376 392.426 162.267 392.606 165.24 391.885C167.493 391.345 169.88 391.66 172.15 389.507C172.661 389.027 172.568 388.738 171.871 388.642C171.589 388.606 171.198 388.642 170.7 388.75C145.862 394.264 119.007 394.849 93.6922 393.642C93.3679 393.624 93.3018 393.486 93.494 393.228C94.1366 392.321 95.0916 391.895 96.3588 391.949C112.383 392.615 128.761 392.231 145.493 390.795C146.027 390.747 146.991 390.459 148.385 389.931C150.124 389.273 151.952 390.012 153.565 389.804C159.664 388.994 167.673 388.3 172.718 386.201C173.09 386.045 174.279 385.973 176.285 385.985Z" fill="#D8ECFE"/>
<path d="M54.2784 394.273C59.035 396.183 63.9689 396.931 69.0799 396.516L69.3682 397.651C68.9898 398.402 69.0529 399.066 69.5574 399.642C64.6025 399.396 59.7227 398.645 54.918 397.39C54.8399 396.567 54.4525 395.904 53.7559 395.399L54.2784 394.273Z" fill="black"/>
<path d="M54.2421 397.237L54.9177 397.39C59.7224 398.645 64.6022 399.396 69.5571 399.642L69.7823 399.867L69.5751 400.111C69.4933 400.209 69.4341 400.325 69.4014 400.449C69.3687 400.574 69.3635 400.704 69.3859 400.831C69.8183 403.336 69.6291 405.753 68.8184 408.083C63.5332 407.345 58.4492 406.333 53.5664 405.047L54.2421 397.237Z" fill="#6366F1"/>
<path d="M69.7823 399.867C82.737 401.152 95.7247 401.702 108.746 401.516L108.764 410.119C108.764 410.235 108.719 410.346 108.64 410.428C108.561 410.511 108.453 410.558 108.34 410.561C96.1902 410.951 84.0883 410.338 72.0345 408.723L68.8184 408.083C69.6292 405.753 69.8183 403.336 69.3859 400.831C69.3635 400.704 69.3687 400.574 69.4014 400.449C69.4341 400.325 69.4934 400.209 69.5751 400.11L69.7823 399.867Z" fill="#6366F1"/>
<ellipse cx="57.2059" cy="373.779" rx="15.67" ry="8" transform="rotate(14.9824 57.2059 373.779)" fill="#D8ECFE"/>
</svg>
