<svg width="43" height="32" viewBox="0 0 43 32" fill="none" xmlns="http://www.w3.org/2000/svg">
<path d="M41.1739 9.32426H36.275L34.9134 5.92027C33.5141 2.42054 30.1748 0.159668 26.405 0.159668H16.0131C12.2441 0.159668 8.90396 2.42054 7.5039 5.92027L6.1423 9.32426H1.24416C0.605093 9.32426 0.136226 9.92486 0.291697 10.5443L0.782657 12.5081C0.891487 12.9451 1.28425 13.2519 1.73512 13.2519H3.37738C2.27845 14.2118 1.57065 15.6069 1.57065 17.1796V21.1073C1.57065 22.4263 2.0747 23.6169 2.87987 24.5383V28.9627C2.87987 30.4085 4.05245 31.5811 5.49833 31.5811H8.11678C9.56266 31.5811 10.7352 30.4085 10.7352 28.9627V26.3442H31.6829V28.9627C31.6829 30.4085 32.8554 31.5811 34.3013 31.5811H36.9198C38.3657 31.5811 39.5382 30.4085 39.5382 28.9627V24.5383C40.3434 23.6177 40.8475 22.4272 40.8475 21.1073V17.1796C40.8475 15.6069 40.1397 14.2118 39.0415 13.2519H40.6838C41.1347 13.2519 41.5274 12.9451 41.6363 12.5081L42.1272 10.5443C42.2819 9.92486 41.813 9.32426 41.1739 9.32426ZM12.366 7.86529C12.9626 6.3744 14.4068 5.39658 16.0131 5.39658H26.405C28.0113 5.39658 29.4555 6.3744 30.0521 7.86529L31.6829 11.9427H10.7352L12.366 7.86529ZM8.11678 21.0909C6.54571 21.0909 5.49833 20.0468 5.49833 18.4807C5.49833 16.9145 6.54571 15.8704 8.11678 15.8704C9.68785 15.8704 12.0445 18.2196 12.0445 19.7858C12.0445 21.352 9.68785 21.0909 8.11678 21.0909ZM34.3013 21.0909C32.7302 21.0909 30.3736 21.352 30.3736 19.7858C30.3736 18.2196 32.7302 15.8704 34.3013 15.8704C35.8724 15.8704 36.9198 16.9145 36.9198 18.4807C36.9198 20.0468 35.8724 21.0909 34.3013 21.0909Z" fill="#6366F1"/>
</svg>
