<svg width="35" height="31" viewBox="0 0 35 31" fill="none" xmlns="http://www.w3.org/2000/svg">
<path d="M33.6261 10.654C32.7698 8.62732 31.5285 6.78603 29.9709 5.23218C28.4171 3.67459 26.5758 2.43327 24.5491 1.57704C22.4436 0.686095 20.2124 0.236816 17.9089 0.236816C15.6054 0.236816 13.3743 0.686095 11.2687 1.57704C9.24206 2.43327 7.40077 3.67459 5.84693 5.23218C4.28934 6.78603 3.04802 8.62732 2.19178 10.654C1.30084 12.7595 0.851562 14.9907 0.851562 17.2942C0.851562 22.3467 3.0713 27.106 6.93967 30.3575L7.0044 30.4108C7.22523 30.5936 7.50317 30.6964 7.78873 30.6964H28.0329C28.3185 30.6964 28.5964 30.5936 28.8173 30.4108L28.882 30.3575C32.7465 27.106 34.9663 22.3467 34.9663 17.2942C34.9663 14.9907 34.5132 12.7595 33.6261 10.654ZM27.4047 27.8027H8.41315C6.94194 26.4762 5.76609 24.8551 4.96192 23.0447C4.15774 21.2344 3.74321 19.2751 3.74522 17.2942C3.74522 13.5096 5.2187 9.95342 7.89534 7.28059C10.572 4.60396 14.1281 3.13048 17.9089 3.13048C21.6935 3.13048 25.2497 4.60396 27.9225 7.28059C30.5991 9.95722 32.0726 13.5134 32.0726 17.2942C32.0726 21.3148 30.3783 25.1185 27.4047 27.8027ZM22.1542 12.0209C22.097 11.9642 22.0197 11.9324 21.9391 11.9324C21.8585 11.9324 21.7812 11.9642 21.724 12.0209L18.5067 15.2382C17.7947 15.0478 17.0066 15.2305 16.4469 15.7902C16.2486 15.9881 16.0913 16.2231 15.984 16.4818C15.8767 16.7406 15.8215 17.0179 15.8215 17.298C15.8215 17.5781 15.8767 17.8554 15.984 18.1141C16.0913 18.3728 16.2486 18.6079 16.4469 18.8057C16.6447 19.004 16.8797 19.1612 17.1385 19.2686C17.3972 19.3759 17.6745 19.4311 17.9546 19.4311C18.2347 19.4311 18.512 19.3759 18.7708 19.2686C19.0295 19.1612 19.2645 19.004 19.4624 18.8057C19.7275 18.5414 19.9182 18.2117 20.0152 17.85C20.1121 17.4883 20.1118 17.1075 20.0144 16.7459L23.2317 13.5286C23.3498 13.4106 23.3498 13.2164 23.2317 13.0984L22.1542 12.0209ZM17.0713 8.1563H18.7466C18.9141 8.1563 19.0512 8.01924 19.0512 7.85171V4.80575C19.0512 4.63822 18.9141 4.50116 18.7466 4.50116H17.0713C16.9038 4.50116 16.7667 4.63822 16.7667 4.80575V7.85171C16.7667 8.01924 16.9038 8.1563 17.0713 8.1563ZM26.9706 16.4565V18.1318C26.9706 18.2993 27.1077 18.4364 27.2752 18.4364H30.3212C30.4887 18.4364 30.6258 18.2993 30.6258 18.1318V16.4565C30.6258 16.289 30.4887 16.1519 30.3212 16.1519H27.2752C27.1077 16.1519 26.9706 16.289 26.9706 16.4565ZM27.4542 8.94825L26.2701 7.76414C26.2128 7.70745 26.1355 7.67565 26.0549 7.67565C25.9744 7.67565 25.8971 7.70745 25.8398 7.76414L23.6848 9.91915C23.6281 9.9764 23.5963 10.0537 23.5963 10.1343C23.5963 10.2148 23.6281 10.2921 23.6848 10.3494L24.8689 11.5335C24.987 11.6515 25.1811 11.6515 25.2992 11.5335L27.4542 9.37849C27.5722 9.26046 27.5722 9.06628 27.4542 8.94825ZM9.99324 7.76414C9.93599 7.70745 9.85868 7.67565 9.77812 7.67565C9.69755 7.67565 9.62025 7.70745 9.563 7.76414L8.37888 8.94825C8.3222 9.0055 8.2904 9.08281 8.2904 9.16337C8.2904 9.24394 8.3222 9.32125 8.37888 9.37849L10.5339 11.5335C10.6519 11.6515 10.8461 11.6515 10.9641 11.5335L12.1483 10.3494C12.2663 10.2314 12.2663 10.0372 12.1483 9.91915L9.99324 7.76414ZM8.39031 16.1519H5.34435C5.17682 16.1519 5.03975 16.289 5.03975 16.4565V18.1318C5.03975 18.2993 5.17682 18.4364 5.34435 18.4364H8.39031C8.55783 18.4364 8.6949 18.2993 8.6949 18.1318V16.4565C8.6949 16.289 8.55783 16.1519 8.39031 16.1519Z" fill="#7E8182"/>
</svg>
