<svg width="34" height="31" viewBox="0 0 34 31" fill="none" xmlns="http://www.w3.org/2000/svg">
<path fill-rule="evenodd" clip-rule="evenodd" d="M6.29036 0.916992C3.87413 0.916992 1.91536 2.87575 1.91536 5.29199V14.042V27.167C1.10996 27.167 0.457031 27.8199 0.457031 28.6253C0.457031 29.4308 1.10996 30.0837 1.91536 30.0837H3.3737H19.4154H20.8737C21.6791 30.0837 22.332 29.4308 22.332 28.6253C22.332 27.8199 21.6791 27.167 20.8737 27.167V15.5003C21.6791 15.5003 22.332 16.1532 22.332 16.9587V23.5212C22.332 25.5347 23.9643 27.167 25.9779 27.167C27.9914 27.167 29.6237 25.5347 29.6237 23.5212V18.417H30.3529C32.3664 18.417 33.9987 16.7847 33.9987 14.7712C33.9987 12.7576 32.3664 11.1253 30.3529 11.1253H29.6237V9.66699C29.6237 9.33585 29.511 9.01456 29.3042 8.75599L26.3875 5.11014C25.8844 4.48122 24.9667 4.37925 24.3377 4.88239C23.7087 5.38553 23.6068 6.30324 24.1099 6.93216L26.707 10.1785V12.5837V16.9587V23.5212C26.707 23.9238 26.3805 24.2503 25.9779 24.2503C25.5752 24.2503 25.2487 23.9238 25.2487 23.5212V16.9587C25.2487 14.5423 23.29 12.5837 20.8737 12.5837V5.29199C20.8737 2.87575 18.915 0.916992 16.4987 0.916992H6.29036ZM17.957 16.4526V27.167H4.83203V16.4526C6.86132 17.2878 9.14934 17.6878 11.3945 17.6878C13.6398 17.6878 15.9278 17.2878 17.957 16.4526ZM11.3945 14.7712C8.9907 14.7712 6.65296 14.2327 4.83203 13.2234V5.29199C4.83203 4.48658 5.48496 3.83366 6.29036 3.83366H16.4987C17.3041 3.83366 17.957 4.48658 17.957 5.29199V13.2234C16.1362 14.2327 13.7983 14.7712 11.3945 14.7712ZM30.3529 15.5003H29.6237V14.042H30.3529C30.7555 14.042 31.082 14.3685 31.082 14.7712C31.082 15.1738 30.7555 15.5003 30.3529 15.5003Z" fill="#7E8182"/>
</svg>
