<svg width="195" height="195" viewBox="0 0 195 195" fill="none" xmlns="http://www.w3.org/2000/svg">
<g clip-path="url(#clip0_6929_34535)">
<path d="M121.615 65.3848L121.592 73.5885" stroke="#9D4F4D" stroke-width="0.761719"/>
<path d="M121.564 171.128L121.424 171.212C121.381 171.236 121.335 171.251 121.286 171.256C121.238 171.261 121.188 171.257 121.142 171.242C119.799 170.843 118.424 170.644 117.017 170.644C85.0502 170.629 53.0847 170.624 21.1204 170.629C19.3532 170.629 17.7155 170.941 15.9902 171.204" stroke="#9D4F4D" stroke-width="0.761719"/>
<path d="M105.305 20.5126C105.305 19.3904 104.859 18.3141 104.065 17.5206C103.272 16.7271 102.196 16.2812 101.073 16.2812H36.411C35.2888 16.2813 34.2126 16.7271 33.419 17.5206C32.6255 18.3141 32.1797 19.3904 32.1797 20.5126V68.8894C32.1797 70.0116 32.6255 71.0878 33.419 71.8814C34.2126 72.6749 35.2888 73.1207 36.411 73.1207H101.073C102.196 73.1207 103.272 72.6749 104.065 71.8814C104.859 71.0878 105.305 70.0116 105.305 68.8894V20.5126Z" stroke="#E28E89" stroke-width="0.761719"/>
<path d="M35.7293 0H101.904C113.147 0.708398 121.605 9.44531 121.598 20.6616C121.585 35.5786 121.592 50.4867 121.617 65.3859L121.594 73.5896L121.567 171.128L121.426 171.212C121.384 171.236 121.338 171.251 121.289 171.256C121.241 171.261 121.191 171.256 121.145 171.242C119.801 170.843 118.427 170.644 117.02 170.644C85.0531 170.629 53.0876 170.624 21.1233 170.629C19.3562 170.629 17.7185 170.941 15.9932 171.204C15.9982 121.834 15.9982 72.4699 15.9932 23.1105C15.9932 19.6676 16.1557 17.2225 16.4807 15.7752C18.5373 6.63457 26.5049 0.537012 35.7293 0ZM105.308 20.5131C105.308 19.3909 104.863 18.3146 104.069 17.5211C103.276 16.7275 102.199 16.2817 101.077 16.2817H36.4148C35.2926 16.2817 34.2164 16.7275 33.4228 17.5211C32.6293 18.3146 32.1835 19.3909 32.1835 20.5131V68.8898C32.1835 70.0121 32.6293 71.0883 33.4228 71.8819C34.2164 72.6754 35.2926 73.1212 36.4148 73.1212H101.077C102.199 73.1212 103.276 72.6754 104.069 71.8819C104.863 71.0883 105.308 70.0121 105.308 68.8898V20.5131Z" fill="#6366F1"/>
<path d="M101.076 16.2812H36.414C34.0771 16.2812 32.1826 18.1757 32.1826 20.5126V68.8894C32.1826 71.2263 34.0771 73.1207 36.414 73.1207H101.076C103.413 73.1207 105.308 71.2263 105.308 68.8894V20.5126C105.308 18.1757 103.413 16.2812 101.076 16.2812Z" fill="#D8ECFE"/>
<path d="M121.593 73.5892L121.616 65.3855C139.417 67.7887 144.414 89.132 145.438 103.666C146.471 118.31 145.263 131.567 144.707 145.587C144.475 151.502 144.68 162.455 149.7 166.637C152.463 168.937 155.558 170.249 158.986 170.571C168.1 171.436 173.07 167.616 174.532 158.551C175.134 154.826 175.376 151.075 175.26 147.297C174.921 136.282 173.123 125.386 171.577 114.497C169.912 102.755 170.32 90.9525 170.347 79.1307C170.347 78.9135 170.26 78.7053 170.107 78.5518C161.96 70.409 151.037 57.2122 155.573 44.8609C156.571 42.1441 158.244 39.4312 160.593 36.722C160.609 36.7035 160.621 36.682 160.628 36.6587C160.635 36.6355 160.638 36.611 160.635 36.5867C160.633 36.5625 160.625 36.539 160.613 36.5177C160.602 36.4964 160.585 36.4778 160.566 36.463C152.286 30.288 143.071 26.2293 132.92 24.2869C130.124 23.7499 128.921 20.2308 130.505 17.9647C131.857 16.0375 133.696 16.1822 135.932 16.7192C153.92 21.0458 170.43 31.1538 181.464 46.1901C183.848 49.4389 186.179 53.3808 186.613 57.3722C186.781 58.9413 187.131 60.6666 187.123 62.1291C187.096 69.1852 184.249 74.8193 178.585 79.0316C178.537 79.066 178.499 79.1111 178.472 79.1634C178.446 79.2157 178.432 79.2737 178.432 79.3325C178.432 90.4117 177.937 101.704 179.514 112.669C181.517 126.605 184.019 140.803 183.201 154.819C182.546 165.944 177.396 177.636 164.695 178.691C154.587 179.533 143.485 175.869 139.371 165.696C136.778 159.283 136.286 151.913 136.561 145.012C136.976 134.618 138.137 121.817 137.646 109.95C137.2 99.221 135.121 76.6437 121.593 73.5892ZM166.694 42.0197C164.474 44.602 162.832 46.8833 162.611 50.3872C162.147 57.7873 169.855 66.5928 174.498 71.4411C174.533 71.4781 174.582 71.4999 174.633 71.502C174.684 71.5042 174.734 71.4864 174.772 71.4525C176.882 69.5863 178.219 67.319 178.783 64.6504C179.163 62.8527 178.931 57.6845 177.949 56.0201C174.894 50.8328 171.256 46.1609 167.033 42.0045C167.01 41.9823 166.983 41.9649 166.954 41.9536C166.924 41.9423 166.892 41.9372 166.86 41.9386C166.829 41.94 166.797 41.948 166.769 41.9619C166.74 41.9759 166.715 41.9955 166.694 42.0197Z" fill="#B0B0B0"/>
<path d="M121.567 171.128C125.83 173.045 128.43 176.16 129.367 180.474C129.58 181.459 129.686 182.899 129.683 184.793C129.679 188.381 130.97 194.242 125.757 195H11.7843C8.34136 194.52 7.84625 192.319 7.81197 189.108C7.74341 182.565 7.32828 176.182 13.8486 172.4C14.5519 171.991 15.2667 171.592 15.9928 171.204C17.7181 170.941 19.3558 170.629 21.123 170.629C53.0873 170.624 85.0528 170.629 117.02 170.644C118.426 170.644 119.801 170.843 121.144 171.242C121.191 171.257 121.24 171.261 121.289 171.256C121.337 171.251 121.384 171.236 121.426 171.212L121.567 171.128Z" fill="#B0B0B0"/>
</g>
<defs>
<clipPath id="clip0_6929_34535">
<rect width="195" height="195" fill="white"/>
</clipPath>
</defs>
</svg>
