<svg width="212" height="213" viewBox="0 0 212 213" fill="none" xmlns="http://www.w3.org/2000/svg">
<path d="M44.0566 1.03125C36.8132 2.73325 35.5422 8.78478 33.0574 15.0298C32.1778 17.2347 31.7102 18.8809 31.6545 19.9687C31.4346 24.3182 34.5615 27.9993 38.7703 29.1428" stroke="#415158" stroke-width="0.879584"/>
<path d="M38.6421 29.2707L38.475 29.1783C38.3607 29.1197 38.239 29.0889 38.11 29.086L31.6055 29.0508" stroke="#495B63" stroke-width="0.879584"/>
<path d="M66.8072 29.1777L59.7441 29.1909" stroke="#51646E" stroke-width="0.879584"/>
<path d="M38.6593 43.1055L31.5127 43.2506" stroke="#51646E" stroke-width="0.879584"/>
<path d="M66.8244 43.2344L59.6602 43.252" stroke="#51646E" stroke-width="0.879584"/>
<path d="M79.7805 44.2412C78.3761 56.7049 77.1726 69.1936 76.1699 81.7071C76.1654 81.7693 76.1375 81.8275 76.0918 81.87C76.0461 81.9124 75.9859 81.936 75.9236 81.9358H22.4976C22.4271 81.9359 22.3592 81.9092 22.3077 81.861C22.2562 81.8127 22.225 81.7467 22.2206 81.6763C21.2823 69.1716 20.0744 56.6903 18.5967 44.2324" stroke="#6366F1" stroke-width="0.879584"/>
<path d="M86.5973 48.2734L86.505 48.3394C86.4765 48.3622 86.4577 48.3935 86.4522 48.4274C82.4061 82.9334 80.5546 117.558 80.8976 152.302" stroke="#6366F1" stroke-width="0.879584"/>
<path d="M80.8975 152.303L81.0074 162.418" stroke="#313D42" stroke-width="0.879584"/>
<path d="M80.88 162.73L73.7334 162.84" stroke="#4D5F67" stroke-width="0.879584"/>
<path d="M73.7334 162.84C73.9533 159.328 73.9474 155.815 73.7158 152.303" stroke="#313D42" stroke-width="0.879584"/>
<path d="M73.7151 152.303C73.8881 151.901 73.913 151.505 73.7899 151.115C73.7718 151.059 73.7329 151.012 73.6808 150.982C73.6287 150.953 73.5673 150.944 73.5084 150.957L69.5547 151.881" stroke="#6366F1" stroke-width="0.879584"/>
<path d="M69.5552 151.881C68.4206 151.907 67.2155 152.215 66.1732 152.228C50.1208 152.375 38.8695 152.391 32.4192 152.277C30.2232 152.236 27.6826 151.72 24.7976 150.729C24.7739 150.721 24.7486 150.719 24.724 150.722C24.6993 150.726 24.676 150.735 24.6558 150.75C24.6357 150.764 24.6193 150.782 24.608 150.804C24.5967 150.825 24.5909 150.849 24.5909 150.874L24.4766 162.84" stroke="#313D42" stroke-width="0.879584"/>
<path d="M24.476 162.84L23.2666 162.985" stroke="#4D5F67" stroke-width="0.879584"/>
<path d="M23.2667 162.986L17.4395 162.73" stroke="#415058" stroke-width="0.879584"/>
<path d="M17.2197 162.401C17.4396 162.365 17.5496 162.225 17.5496 161.978C17.5642 155.481 17.5217 150.497 17.422 147.025" stroke="#313D42" stroke-width="0.879584"/>
<path d="M17.4229 147.025C17.4552 146.477 17.4713 145.927 17.4713 145.376C17.5446 122.175 16.6489 99.0129 14.7842 75.8887" stroke="#6366F1" stroke-width="0.879584"/>
<path d="M14.7836 75.8874C14.0536 67.3994 13.196 58.9232 12.2108 50.4586C12.1493 49.9441 12.3999 48.4092 11.7227 48.3828" stroke="#313D42" stroke-width="0.879584"/>
<path d="M98.0494 175.061C95.2039 179.058 93.1545 181.829 88.3256 183.285C86.8185 183.739 84.1798 183.966 80.4093 183.966C58.1089 183.966 35.81 183.965 13.5125 183.962C12.9877 183.962 12.2078 183.811 11.1729 183.509" stroke="#556972" stroke-width="0.879584"/>
<path d="M11.1721 183.509C9.45109 175.743 11.6369 169.731 17.7294 165.474C19.3655 164.33 21.3489 163.741 23.2664 162.984" stroke="#6366F1" stroke-width="0.879584"/>
<path d="M96.4925 151.11L96.0351 151.009C95.8945 150.977 95.748 150.986 95.6129 151.035C91.0523 152.671 86.4125 152.385 80.8975 152.302" stroke="#415158" stroke-width="0.879584"/>
<path d="M14.7841 75.889C14.5847 75.8831 14.4792 75.9564 14.4674 76.1089C13.5409 88.4553 12.3315 105.412 10.8392 126.98C10.5606 131.011 10.5841 133.905 10.9095 135.661C11.7246 140.08 13.8957 143.868 17.4228 147.025" stroke="#415158" stroke-width="0.879584"/>
<path d="M11.1724 183.51L11.0625 183.545" stroke="#495B63" stroke-width="0.879584"/>
<path d="M11.0628 183.546C6.16062 182.244 2.63642 179.306 0.490234 174.732" stroke="#415058" stroke-width="0.879584"/>
<path d="M69.5547 151.881C70.9005 152.315 72.2873 152.456 73.7151 152.303" stroke="#415158" stroke-width="0.879584"/>
<path d="M73.7333 162.84H24.4766" stroke="#556972" stroke-width="0.879584"/>
<path d="M11.0625 183.545C11.1856 183.656 11.2853 183.881 11.3616 184.218C12.6018 189.765 13.8405 195.314 15.0778 200.864C16.0278 205.133 18.2164 208.311 21.6439 210.399C22.6598 211.019 24.0628 211.406 25.2458 212.096" stroke="#313D42" stroke-width="0.879584"/>
<path d="M156.643 1.03125C149.399 2.73325 148.128 8.78478 145.643 15.0298C144.764 17.2347 144.296 18.8809 144.24 19.9687C144.021 24.3182 147.147 27.9993 151.356 29.1428" stroke="#415158" stroke-width="0.879584"/>
<path d="M151.228 29.2707L151.061 29.1783C150.947 29.1197 150.825 29.0889 150.696 29.086L144.191 29.0508" stroke="#495B63" stroke-width="0.879584"/>
<path d="M151.245 43.1055L144.099 43.2506" stroke="#51646E" stroke-width="0.879584"/>
<path d="M179.393 29.1777L172.339 29.2701" stroke="#51646E" stroke-width="0.879584"/>
<path d="M192.366 44.2412C190.915 56.7225 189.722 69.2273 188.787 81.7555C188.783 81.8045 188.761 81.8504 188.725 81.8839C188.69 81.9173 188.642 81.9359 188.593 81.9358H135.084C135.013 81.9359 134.945 81.9092 134.894 81.861C134.842 81.8127 134.811 81.7467 134.806 81.6763C133.868 69.1716 132.66 56.6903 131.183 44.2324" stroke="#6366F1" stroke-width="0.879584"/>
<path d="M179.41 43.2344L172.246 43.252" stroke="#51646E" stroke-width="0.879584"/>
<path d="M199.183 48.2734L199.091 48.3394C199.062 48.3622 199.044 48.3935 199.038 48.4274C194.992 82.9334 193.141 117.558 193.484 152.302" stroke="#6366F1" stroke-width="0.879584"/>
<path d="M193.483 152.303L193.593 162.418" stroke="#313D42" stroke-width="0.879584"/>
<path d="M193.466 162.73L186.319 162.84" stroke="#4D5F67" stroke-width="0.879584"/>
<path d="M186.319 162.84C186.539 159.328 186.533 155.815 186.302 152.303" stroke="#313D42" stroke-width="0.879584"/>
<path d="M186.301 152.303C186.474 151.901 186.499 151.505 186.376 151.115C186.358 151.059 186.319 151.012 186.267 150.982C186.215 150.953 186.153 150.944 186.094 150.957L182.141 151.881" stroke="#6366F1" stroke-width="0.879584"/>
<path d="M182.141 151.881C181.007 151.907 179.801 152.215 178.759 152.228C162.707 152.375 151.455 152.391 145.005 152.277C142.809 152.236 140.269 151.72 137.384 150.729C137.36 150.721 137.335 150.719 137.31 150.722C137.285 150.726 137.262 150.735 137.242 150.75C137.222 150.764 137.205 150.782 137.194 150.804C137.183 150.825 137.177 150.849 137.177 150.874L137.062 162.84" stroke="#313D42" stroke-width="0.879584"/>
<path d="M137.062 162.84L135.853 162.985" stroke="#4D5F67" stroke-width="0.879584"/>
<path d="M135.853 162.986L130.025 162.73" stroke="#415058" stroke-width="0.879584"/>
<path d="M129.806 162.4C130.026 162.365 130.136 162.224 130.136 161.978C130.15 155.53 130.108 150.583 130.008 147.135" stroke="#313D42" stroke-width="0.879584"/>
<path d="M130.009 147.135C130.079 146.329 130.114 145.522 130.114 144.716C130.132 121.736 129.217 98.793 127.37 75.8887" stroke="#6366F1" stroke-width="0.879584"/>
<path d="M127.371 75.8874C126.64 67.3994 125.783 58.9232 124.798 50.4586C124.736 49.9441 124.987 48.4092 124.31 48.3828" stroke="#313D42" stroke-width="0.879584"/>
<path d="M210.636 175.172C210.416 175.383 210.092 175.832 209.664 176.518C206.062 182.283 201.014 183.963 194.417 183.968C171.606 183.971 148.796 183.969 125.985 183.963C125.534 183.963 124.792 183.812 123.76 183.51" stroke="#556972" stroke-width="0.879584"/>
<path d="M123.76 183.509C122.039 175.743 124.225 169.731 130.317 165.474C131.953 164.33 133.937 163.741 135.854 162.984" stroke="#6366F1" stroke-width="0.879584"/>
<path d="M209.175 150.951C206.325 151.755 203.433 152.197 200.498 152.279C199.355 152.312 197.016 152.319 193.483 152.301" stroke="#415158" stroke-width="0.879584"/>
<path d="M127.37 75.889C127.171 75.8831 127.065 75.9564 127.053 76.1089C126.206 87.4174 124.991 104.427 123.408 127.138C123.141 130.973 123.166 133.763 123.482 135.507C124.295 140.011 126.47 143.887 130.009 147.135" stroke="#415158" stroke-width="0.879584"/>
<path d="M123.759 183.51L123.649 183.545" stroke="#495B63" stroke-width="0.879584"/>
<path d="M123.65 183.544C119.018 182.316 115.592 179.599 113.372 175.395C113.298 175.245 113.139 175.157 113.003 175.061" stroke="#415058" stroke-width="0.879584"/>
<path d="M182.141 151.881C183.486 152.315 184.873 152.456 186.301 152.303" stroke="#415158" stroke-width="0.879584"/>
<path d="M186.319 162.84H137.062" stroke="#556972" stroke-width="0.879584"/>
<path d="M123.649 183.545C123.773 183.656 123.872 183.881 123.948 184.218C125.189 189.765 126.427 195.314 127.665 200.864C128.615 205.133 130.803 208.311 134.231 210.399C135.247 211.019 136.65 211.406 137.833 212.096" stroke="#313D42" stroke-width="0.879584"/>
<path d="M74.1999 118.355C74.4433 110.89 74.9168 101.181 75.6205 89.2277C75.6223 89.1949 75.6173 89.162 75.606 89.1311C75.5946 89.1002 75.5771 89.072 75.5545 89.0481C75.5318 89.0242 75.5046 89.0052 75.4743 88.9922C75.4441 88.9793 75.4115 88.9726 75.3786 88.9727H23.017C22.9848 88.9726 22.953 88.9791 22.9235 88.9919C22.894 89.0047 22.8675 89.0235 22.8456 89.047C22.8237 89.0706 22.8069 89.0984 22.7963 89.1287C22.7857 89.1591 22.7814 89.1913 22.7839 89.2233C23.4436 99.6288 23.9361 110.043 24.2616 120.466C24.2627 120.512 24.2818 120.556 24.3146 120.588C24.3475 120.62 24.3916 120.638 24.4375 120.638H73.8349C73.8929 120.638 73.9491 120.617 73.9929 120.578C74.0366 120.539 74.0649 120.485 74.0724 120.427C74.1252 120.007 74.1677 119.317 74.1999 118.355Z" stroke="#6366F1" stroke-width="0.879584"/>
<path d="M24.5906 141.857C24.6037 144.087 31.1127 145.27 32.5024 145.27C43.1512 145.285 53.7971 145.279 64.4401 145.252C68.064 145.244 70.1618 144.892 72.9897 143.084C74.1067 142.367 73.8077 141.831 73.8297 140.718C73.9176 136.455 73.9865 132.177 74.0364 127.885C74.0364 127.829 74.0146 127.775 73.9758 127.736C73.9371 127.696 73.8845 127.674 73.8297 127.674H24.5818C24.5519 127.674 24.5224 127.68 24.4949 127.692C24.4674 127.703 24.4425 127.721 24.4216 127.742C24.4007 127.764 24.3843 127.79 24.3733 127.818C24.3622 127.846 24.3569 127.877 24.3575 127.907C24.4806 132.554 24.5583 137.204 24.5906 141.857Z" stroke="#6366F1" stroke-width="0.879584"/>
<path d="M186.698 120.387C187.199 109.933 187.608 99.5497 188.242 89.1398C188.243 89.1183 188.24 89.0967 188.232 89.0765C188.225 89.0562 188.213 89.0377 188.198 89.0221C188.184 89.0064 188.166 88.994 188.146 88.9855C188.126 88.977 188.105 88.9726 188.083 88.9727H135.603C135.571 88.9726 135.539 88.9791 135.509 88.9919C135.48 89.0047 135.453 89.0235 135.432 89.047C135.41 89.0706 135.393 89.0984 135.382 89.1287C135.372 89.1591 135.367 89.1913 135.37 89.2233C136.029 99.6288 136.522 110.043 136.848 120.466C136.849 120.512 136.868 120.556 136.901 120.588C136.933 120.62 136.978 120.638 137.023 120.638H186.438C186.506 120.638 186.57 120.612 186.619 120.565C186.667 120.518 186.696 120.454 186.698 120.387Z" stroke="#6366F1" stroke-width="0.879584"/>
<path d="M137.176 141.857C137.19 144.087 143.699 145.27 145.088 145.27C155.737 145.285 166.383 145.279 177.026 145.252C180.65 145.244 182.748 144.892 185.576 143.084C186.693 142.367 186.394 141.831 186.416 140.718C186.504 136.455 186.572 132.177 186.622 127.885C186.622 127.829 186.601 127.775 186.562 127.736C186.523 127.696 186.47 127.674 186.416 127.674H137.168C137.138 127.674 137.108 127.68 137.081 127.692C137.053 127.703 137.028 127.721 137.008 127.742C136.987 127.764 136.97 127.79 136.959 127.818C136.948 127.846 136.943 127.877 136.943 127.907C137.067 132.554 137.144 137.204 137.176 141.857Z" stroke="#6366F1" stroke-width="0.879584"/>
<path d="M44.0553 1.03036C36.812 2.73236 35.541 8.7839 33.0562 15.0289C32.1766 17.2338 31.7089 18.8801 31.6532 19.9678C31.4333 24.3173 34.5602 27.9984 38.769 29.1419L38.6415 29.2694L38.4744 29.1771C38.36 29.1184 38.2384 29.0876 38.1094 29.0847L31.6048 29.0495C26.2306 27.4882 23.2972 22.5054 25.2323 17.0608C26.0913 14.6419 27.2875 11.6675 28.821 8.1374C32.0314 0.753293 37.0011 0.916017 44.0553 1.03036Z" fill="#6366F1"/>
<path d="M44.0556 1.03132C48.949 1.01079 53.8454 1.00493 58.7447 1.01372C63.7275 1.02252 67.4438 2.81247 69.48 7.57982C70.5912 10.1834 71.7948 13.1989 73.0907 16.6263C74.8719 21.3409 73.4513 25.7784 68.9874 28.2544C68.3629 28.6063 67.5097 28.7382 66.8061 29.178L59.743 29.1912L38.7693 29.1428C34.5605 27.9994 31.4336 24.3183 31.6535 19.9688C31.7092 18.881 32.1768 17.2347 33.0564 15.0299C35.5413 8.78485 36.8123 2.73331 44.0556 1.03132Z" fill="#6366F1"/>
<path d="M156.642 1.03036C149.399 2.73236 148.128 8.7839 145.643 15.0289C144.763 17.2338 144.296 18.8801 144.24 19.9678C144.02 24.3173 147.147 27.9984 151.356 29.1419L151.228 29.2694L151.061 29.1771C150.947 29.1184 150.825 29.0876 150.696 29.0847L144.192 29.0495C138.817 27.4882 135.884 22.5054 137.819 17.0608C138.678 14.6419 139.874 11.6675 141.408 8.1374C144.618 0.753293 149.588 0.916017 156.642 1.03036Z" fill="#6366F1"/>
<path d="M156.643 1.03132C161.536 1.01079 166.432 1.00493 171.332 1.01372C176.314 1.02252 180.031 2.81247 182.067 7.57982C183.178 10.1834 184.382 13.1989 185.678 16.6263C187.459 21.3409 186.038 25.7784 181.574 28.2544C180.95 28.6063 180.097 28.7382 179.393 29.178L172.339 29.2704L151.356 29.1428C147.147 27.9994 144.021 24.3183 144.24 19.9688C144.296 18.881 144.764 17.2347 145.643 15.0299C148.128 8.78485 149.399 2.73331 156.643 1.03132Z" fill="#6366F1"/>
<path d="M38.6417 29.2687L38.6593 43.1046L31.5127 43.2497L31.6051 29.0488L38.1096 29.084C38.2386 29.0869 38.3603 29.1177 38.4746 29.1764L38.6417 29.2687Z" fill="#718B96"/>
<path d="M151.229 29.2687L151.246 43.1046L144.1 43.2497L144.192 29.0488L150.696 29.084C150.825 29.0869 150.947 29.1177 151.062 29.1764L151.229 29.2687Z" fill="#718B96"/>
<path d="M66.8068 29.1777L66.8244 43.2335L59.6602 43.2511L59.7437 29.1909L66.8068 29.1777Z" fill="#718B96"/>
<path d="M179.393 29.1777L179.41 43.2335L172.246 43.2511L172.338 29.2701L179.393 29.1777Z" fill="#718B96"/>
<path d="M38.66 43.1055L38.7567 43.1758C38.7826 43.1959 38.8152 43.2067 38.8491 43.2066L59.6601 43.2506L66.8243 43.233C71.0903 43.211 75.6817 42.7712 79.7805 44.2401C78.3761 56.7038 77.1726 69.1925 76.1698 81.706C76.1654 81.7682 76.1375 81.8265 76.0918 81.8689C76.0461 81.9114 75.986 81.9349 75.9236 81.9347H22.4976C22.4271 81.9348 22.3592 81.9081 22.3077 81.8599C22.2562 81.8117 22.225 81.7456 22.2206 81.6752C21.2823 69.1705 20.0744 56.6892 18.5967 44.2313C22.7747 42.7624 27.2254 43.255 31.5134 43.2506L38.66 43.1055Z" fill="#6366F1"/>
<path d="M151.247 43.1055L151.344 43.1758C151.369 43.1957 151.403 43.2065 151.44 43.2066L172.247 43.2506L179.411 43.233C183.677 43.211 188.269 42.7712 192.367 44.2401C190.916 56.7214 189.723 69.2262 188.788 81.7544C188.784 81.8034 188.762 81.8493 188.726 81.8828C188.69 81.9163 188.643 81.9348 188.594 81.9347H135.085C135.014 81.9348 134.946 81.9081 134.895 81.8599C134.843 81.8117 134.812 81.7456 134.807 81.6752C133.869 69.1705 132.661 56.6892 131.184 44.2313C135.362 42.7624 139.812 43.255 144.1 43.2506L151.247 43.1055Z" fill="#6366F1"/>
<path d="M18.5966 44.2305C20.0743 56.6883 21.2823 69.1696 22.2205 81.6744C22.225 81.7448 22.2561 81.8108 22.3076 81.859C22.3591 81.9072 22.427 81.934 22.4976 81.9338H75.9235C75.9859 81.934 76.046 81.9105 76.0917 81.868C76.1374 81.8256 76.1653 81.7674 76.1698 81.7051C77.1725 69.1916 78.3761 56.703 79.7805 44.2393C82.4016 45.0016 84.6739 46.3459 86.5972 48.2722L86.5049 48.3381C86.4764 48.3609 86.4576 48.3923 86.4521 48.4261C82.406 82.9322 80.5545 117.557 80.8975 152.301L81.0075 162.416L80.88 162.728L73.7333 162.838C73.9532 159.326 73.9474 155.813 73.7157 152.301C73.8887 151.899 73.9136 151.503 73.7905 151.113C73.7724 151.057 73.7335 151.009 73.6814 150.98C73.6294 150.951 73.5679 150.942 73.509 150.955L69.5553 151.878C68.4206 151.905 67.2156 152.213 66.1733 152.226C50.1209 152.372 38.8696 152.389 32.4193 152.274C30.2232 152.233 27.6827 151.717 24.7977 150.726C24.7739 150.718 24.7487 150.716 24.724 150.72C24.6994 150.724 24.676 150.733 24.6559 150.747C24.6357 150.761 24.6193 150.78 24.608 150.801C24.5968 150.823 24.5909 150.847 24.591 150.871L24.4766 162.838L23.2672 162.983L17.44 162.728L17.2201 162.398C17.44 162.363 17.5499 162.222 17.5499 161.976C17.5646 155.479 17.522 150.494 17.4224 147.023C17.4546 146.475 17.4707 145.925 17.4707 145.374C17.544 122.173 16.6483 99.011 14.7836 75.8867C14.0536 67.3987 13.196 58.9225 12.2108 50.4579C12.1493 49.9434 12.3999 48.4085 11.7227 48.3821C13.6548 46.4998 15.9461 45.1159 18.5966 44.2305ZM74.1995 118.353C74.4429 110.888 74.9164 101.179 75.62 89.2256C75.6218 89.1927 75.6169 89.1599 75.6056 89.129C75.5942 89.0981 75.5767 89.0698 75.554 89.046C75.5314 89.0221 75.5041 89.0031 75.4739 88.9901C75.4436 88.9771 75.4111 88.9705 75.3782 88.9705H23.0165C22.9844 88.9704 22.9525 88.977 22.9231 88.9898C22.8936 89.0026 22.867 89.0213 22.8452 89.0449C22.8233 89.0684 22.8065 89.0962 22.7959 89.1266C22.7852 89.1569 22.781 89.1891 22.7834 89.2212C23.4431 99.6267 23.9357 110.041 24.2611 120.464C24.2623 120.51 24.2813 120.554 24.3142 120.586C24.347 120.618 24.3911 120.636 24.437 120.636H73.8345C73.8925 120.636 73.9487 120.615 73.9924 120.576C74.0362 120.537 74.0645 120.483 74.072 120.424C74.1247 120.005 74.1673 119.315 74.1995 118.353ZM24.591 141.856C24.6042 144.085 31.1131 145.268 32.5028 145.268C43.1517 145.283 53.7976 145.277 64.4405 145.251C68.0644 145.242 70.1622 144.89 72.9901 143.083C74.1072 142.366 73.8081 141.829 73.8301 140.716C73.918 136.453 73.9869 132.176 74.0368 127.883C74.0368 127.827 74.015 127.774 73.9762 127.734C73.9375 127.694 73.8849 127.672 73.8301 127.672H24.5822C24.5523 127.672 24.5228 127.678 24.4953 127.69C24.4678 127.702 24.4429 127.719 24.422 127.741C24.4011 127.762 24.3847 127.788 24.3737 127.816C24.3627 127.845 24.3573 127.875 24.3579 127.905C24.481 132.552 24.5587 137.203 24.591 141.856Z" fill="#D8ECFE"/>
<path d="M131.184 44.2305C132.661 56.6883 133.869 69.1696 134.807 81.6744C134.812 81.7448 134.843 81.8108 134.895 81.859C134.946 81.9072 135.014 81.934 135.084 81.9338H188.594C188.643 81.934 188.69 81.9154 188.726 81.8819C188.762 81.8484 188.784 81.8025 188.787 81.7535C189.723 69.2253 190.916 56.7206 192.367 44.2393C194.989 45.0016 197.261 46.3459 199.184 48.2722L199.092 48.3381C199.063 48.3609 199.045 48.3923 199.039 48.4261C194.993 82.9322 193.141 117.557 193.484 152.301L193.594 162.416L193.467 162.728L186.32 162.838C186.54 159.326 186.534 155.813 186.303 152.301C186.476 151.899 186.501 151.503 186.377 151.113C186.359 151.057 186.32 151.009 186.268 150.98C186.216 150.951 186.155 150.942 186.096 150.955L182.142 151.878C181.008 151.905 179.803 152.213 178.76 152.226C162.708 152.372 151.456 152.389 145.006 152.274C142.81 152.233 140.27 151.717 137.385 150.726C137.361 150.718 137.336 150.716 137.311 150.72C137.286 150.724 137.263 150.733 137.243 150.747C137.223 150.761 137.206 150.78 137.195 150.801C137.184 150.823 137.178 150.847 137.178 150.871L137.064 162.838L135.854 162.983L130.027 162.728L129.807 162.398C130.027 162.363 130.137 162.222 130.137 161.976C130.151 155.529 130.109 150.581 130.009 147.133C130.08 146.327 130.115 145.52 130.115 144.714C130.132 121.734 129.218 98.7911 127.371 75.8867C126.64 67.3987 125.783 58.9225 124.798 50.4579C124.736 49.9434 124.987 48.4085 124.31 48.3821C126.242 46.4998 128.533 45.1159 131.184 44.2305ZM186.698 120.385C187.2 109.931 187.609 99.5475 188.242 89.1376C188.243 89.1161 188.24 89.0946 188.233 89.0743C188.225 89.0541 188.214 89.0356 188.199 89.0199C188.184 89.0043 188.166 88.9918 188.147 88.9833C188.127 88.9748 188.105 88.9705 188.084 88.9705H135.603C135.571 88.9704 135.539 88.977 135.51 88.9898C135.48 89.0026 135.454 89.0213 135.432 89.0449C135.41 89.0684 135.393 89.0962 135.383 89.1266C135.372 89.1569 135.368 89.1891 135.37 89.2212C136.03 99.6267 136.523 110.041 136.848 120.464C136.849 120.51 136.868 120.554 136.901 120.586C136.934 120.618 136.978 120.636 137.024 120.636H186.439C186.506 120.636 186.571 120.609 186.619 120.563C186.668 120.516 186.696 120.452 186.698 120.385ZM137.178 141.856C137.191 144.085 143.7 145.268 145.09 145.268C155.739 145.283 166.384 145.277 177.027 145.251C180.651 145.242 182.749 144.89 185.577 143.083C186.694 142.366 186.395 141.829 186.417 140.716C186.505 136.453 186.574 132.176 186.624 127.883C186.624 127.827 186.602 127.774 186.563 127.734C186.524 127.694 186.472 127.672 186.417 127.672H137.169C137.139 127.672 137.11 127.678 137.082 127.69C137.055 127.702 137.03 127.719 137.009 127.741C136.988 127.762 136.972 127.788 136.961 127.816C136.95 127.845 136.944 127.875 136.945 127.905C137.068 132.552 137.146 137.203 137.178 141.856Z" fill="#D8ECFE"/>
<path d="M86.5973 48.2734C92.1519 53.4278 92.5081 58.2215 93.0975 66.3093C94.9123 91.2338 96.7023 116.16 98.4673 141.087C98.7195 144.62 98.0613 147.961 96.4927 151.11L96.0353 151.009C95.8947 150.977 95.7482 150.986 95.6131 151.035C91.0524 152.671 86.4126 152.385 80.8976 152.302C80.5546 117.558 82.4061 82.9334 86.4522 48.4274C86.4577 48.3935 86.4765 48.3622 86.505 48.3394L86.5973 48.2734Z" fill="#6366F1"/>
<path d="M199.184 48.2734C202.893 51.7126 204.951 56.2263 205.359 61.8146C207.279 88.1992 209.173 114.587 211.041 140.977C211.293 144.51 210.672 147.835 209.176 150.952C206.326 151.755 203.434 152.198 200.499 152.28C199.356 152.312 197.018 152.319 193.485 152.302C193.142 117.558 194.993 82.9334 199.039 48.4274C199.045 48.3935 199.063 48.3622 199.092 48.3394L199.184 48.2734Z" fill="#6366F1"/>
<path d="M11.7224 48.3828C12.3997 48.4092 12.149 49.9441 12.2106 50.4586C13.1957 58.9232 14.0533 67.3994 14.7834 75.8874C14.584 75.8815 14.4785 75.9548 14.4667 76.1073C13.5403 88.4537 12.3308 105.411 10.8385 126.978C10.5599 131.009 10.5834 133.903 10.9088 135.66C11.7239 140.078 13.895 143.866 17.4221 147.024C17.5218 150.495 17.5643 155.48 17.5497 161.977C17.5497 162.223 17.4397 162.364 17.2198 162.399C10.513 162.227 4.17121 156.198 1.64681 150.511C0.383139 147.67 -0.132883 144.577 0.0987403 141.232C1.90189 114.976 3.59948 88.6898 5.71049 62.4562C6.19426 56.4574 7.55761 52.3805 11.7224 48.3828Z" fill="#6366F1"/>
<path d="M124.309 48.3828C124.987 48.4092 124.736 49.9441 124.798 50.4586C125.783 58.9232 126.64 67.3994 127.37 75.8874C127.171 75.8815 127.065 75.9548 127.054 76.1073C126.206 87.4158 124.991 104.426 123.408 127.136C123.141 130.971 123.166 133.761 123.483 135.506C124.295 140.009 126.47 143.885 130.009 147.134C130.109 150.582 130.151 155.529 130.137 161.977C130.137 162.223 130.027 162.364 129.807 162.399C123.1 162.227 116.758 156.198 114.234 150.511C112.97 147.67 112.454 144.577 112.686 141.232C114.489 114.976 116.186 88.6898 118.297 62.4562C118.781 56.4574 120.145 52.3805 124.309 48.3828Z" fill="#6366F1"/>
<path d="M14.7841 75.887C16.6488 99.0113 17.5445 122.174 17.4712 145.374C17.4712 145.925 17.4551 146.475 17.4228 147.023C13.8957 143.866 11.7246 140.078 10.9095 135.659C10.5841 133.903 10.5606 131.009 10.8392 126.978C12.3315 105.41 13.5409 88.4534 14.4674 76.1069C14.4792 75.9545 14.5847 75.8812 14.7841 75.887Z" fill="#6366F1"/>
<path d="M127.37 75.887C129.217 98.7914 130.132 121.734 130.114 144.715C130.114 145.521 130.079 146.327 130.009 147.133C126.47 143.885 124.295 140.009 123.482 135.505C123.166 133.761 123.141 130.971 123.408 127.136C124.991 104.425 126.206 87.4155 127.053 76.1069C127.065 75.9545 127.171 75.8812 127.37 75.887Z" fill="#6366F1"/>
<path d="M74.199 118.353C74.1667 119.315 74.1242 120.005 74.0714 120.425C74.0639 120.483 74.0356 120.537 73.9919 120.576C73.9481 120.615 73.8919 120.636 73.8339 120.636H24.4365C24.3906 120.636 24.3465 120.618 24.3136 120.586C24.2808 120.554 24.2617 120.51 24.2606 120.464C23.9351 110.041 23.4426 99.6269 22.7829 89.2214C22.7805 89.1893 22.7847 89.1571 22.7953 89.1268C22.8059 89.0964 22.8227 89.0686 22.8446 89.0451C22.8665 89.0215 22.893 89.0028 22.9225 88.99C22.952 88.9772 22.9838 88.9706 23.016 88.9707H75.3776C75.4105 88.9707 75.4431 88.9773 75.4733 88.9903C75.5036 89.0033 75.5308 89.0223 75.5535 89.0462C75.5761 89.07 75.5937 89.0983 75.605 89.1292C75.6164 89.1601 75.6213 89.1929 75.6195 89.2258C74.9158 101.179 74.4423 110.888 74.199 118.353Z" fill="#6366F1"/>
<path d="M188.242 89.1378C187.608 99.5477 187.199 109.931 186.698 120.385C186.696 120.452 186.667 120.516 186.619 120.563C186.57 120.61 186.506 120.636 186.438 120.636H137.023C136.978 120.636 136.933 120.618 136.901 120.586C136.868 120.554 136.849 120.51 136.848 120.464C136.522 110.041 136.029 99.6269 135.37 89.2214C135.367 89.1893 135.372 89.1571 135.382 89.1268C135.393 89.0964 135.41 89.0686 135.432 89.0451C135.453 89.0215 135.48 89.0028 135.509 88.99C135.539 88.9772 135.571 88.9706 135.603 88.9707H188.083C188.105 88.9707 188.126 88.975 188.146 88.9835C188.166 88.992 188.184 89.0045 188.198 89.0201C188.213 89.0358 188.225 89.0543 188.232 89.0745C188.24 89.0948 188.243 89.1163 188.242 89.1378Z" fill="#6366F1"/>
<path d="M32.5024 145.268C31.1127 145.268 24.6037 144.085 24.5906 141.855C24.5583 137.202 24.4806 132.552 24.3575 127.905C24.3569 127.875 24.3622 127.844 24.3733 127.816C24.3843 127.788 24.4007 127.762 24.4216 127.74C24.4425 127.719 24.4674 127.701 24.4949 127.69C24.5224 127.678 24.5519 127.672 24.5818 127.672H73.8297C73.8845 127.672 73.9371 127.694 73.9758 127.734C74.0146 127.773 74.0364 127.827 74.0364 127.883C73.9865 132.175 73.9176 136.453 73.8297 140.716C73.8077 141.829 74.1067 142.365 72.9897 143.082C70.1618 144.89 68.064 145.242 64.4401 145.25C53.7971 145.277 43.1512 145.283 32.5024 145.268Z" fill="#6366F1"/>
<path d="M145.089 145.268C143.7 145.268 137.191 144.085 137.177 141.855C137.145 137.202 137.068 132.552 136.944 127.905C136.944 127.875 136.949 127.844 136.96 127.816C136.971 127.788 136.988 127.762 137.008 127.74C137.029 127.719 137.054 127.701 137.082 127.69C137.109 127.678 137.139 127.672 137.169 127.672H186.417C186.471 127.672 186.524 127.694 186.563 127.734C186.602 127.773 186.623 127.827 186.623 127.883C186.573 132.175 186.505 136.453 186.417 140.716C186.395 141.829 186.694 142.365 185.577 143.082C182.749 144.89 180.651 145.242 177.027 145.25C166.384 145.277 155.738 145.283 145.089 145.268Z" fill="#6366F1"/>
<path d="M69.5552 151.879C70.901 152.313 72.2878 152.454 73.7157 152.301C73.9473 155.814 73.9532 159.326 73.7333 162.838H24.4766L24.5909 150.872C24.5909 150.847 24.5967 150.824 24.608 150.802C24.6193 150.78 24.6357 150.762 24.6558 150.748C24.676 150.733 24.6993 150.724 24.724 150.72C24.7486 150.717 24.7739 150.719 24.7976 150.727C27.6826 151.718 30.2232 152.234 32.4192 152.275C38.8695 152.389 50.1208 152.373 66.1732 152.226C67.2155 152.213 68.4206 151.905 69.5552 151.879Z" fill="#6366F1"/>
<path d="M182.142 151.879C183.488 152.313 184.875 152.454 186.303 152.301C186.534 155.814 186.54 159.326 186.32 162.838H137.063L137.178 150.872C137.178 150.847 137.184 150.824 137.195 150.802C137.206 150.78 137.223 150.762 137.243 150.748C137.263 150.733 137.286 150.724 137.311 150.72C137.336 150.717 137.361 150.719 137.385 150.727C140.27 151.718 142.81 152.234 145.006 152.275C151.456 152.389 162.708 152.373 178.76 152.226C179.802 152.213 181.007 151.905 182.142 151.879Z" fill="#6366F1"/>
<path d="M73.7151 152.301C72.2873 152.453 70.9005 152.313 69.5547 151.879L73.5084 150.955C73.5673 150.942 73.6287 150.951 73.6808 150.98C73.7329 151.01 73.7718 151.057 73.7899 151.113C73.913 151.503 73.8881 151.899 73.7151 152.301Z" fill="#6366F1"/>
<path d="M186.302 152.301C184.874 152.453 183.487 152.313 182.142 151.879L186.095 150.955C186.154 150.942 186.216 150.951 186.268 150.98C186.32 151.01 186.359 151.057 186.377 151.113C186.5 151.503 186.475 151.899 186.302 152.301Z" fill="#6366F1"/>
<path d="M96.4915 151.11C93.4042 157.39 88.0299 161.577 81.0064 162.417L80.8965 152.302C86.4115 152.385 91.0513 152.671 95.6119 151.035C95.747 150.986 95.8935 150.977 96.0341 151.009L96.4915 151.11Z" fill="#6366F1"/>
<path d="M209.175 150.951C206.132 157.196 200.608 161.7 193.593 162.417L193.483 152.301C197.016 152.319 199.355 152.312 200.498 152.279C203.433 152.197 206.325 151.755 209.175 150.951Z" fill="#6366F1"/>
<path d="M80.8792 162.729C82.568 162.944 84.3096 162.72 85.8356 163.076C91.311 164.356 97.2482 169.004 98.0487 175.06C95.2032 179.058 93.1538 181.829 88.3249 183.284C86.8178 183.739 84.1791 183.966 80.4086 183.966C58.1082 183.966 35.8093 183.965 13.5118 183.962C12.987 183.962 12.2071 183.811 11.1721 183.509C9.45109 175.742 11.6369 169.73 17.7294 165.473C19.3655 164.329 21.3489 163.74 23.2664 162.984L24.4759 162.838H73.7326L80.8792 162.729Z" fill="#B0B0B0"/>
<path d="M193.466 162.729C195.208 162.944 196.989 162.715 198.572 163.107C204.632 164.614 208.615 168.428 210.521 174.55C210.586 174.758 210.624 174.965 210.636 175.17C210.416 175.381 210.092 175.83 209.664 176.516C206.062 182.282 201.013 183.962 194.416 183.966C171.605 183.969 148.795 183.968 125.984 183.962C125.533 183.962 124.791 183.811 123.759 183.509C122.038 175.742 124.224 169.73 130.316 165.473C131.952 164.329 133.936 163.74 135.853 162.984L137.063 162.838H186.319L193.466 162.729Z" fill="#B0B0B0"/>
<path d="M17.4398 162.729L23.2671 162.984C21.3496 163.74 19.3661 164.329 17.7301 165.473C11.6375 169.73 9.45173 175.742 11.1728 183.509L11.0628 183.544C6.16062 182.242 2.63642 179.304 0.490234 174.73C2.44291 167.245 9.32566 162.293 17.0616 162.878C17.1527 162.884 17.2426 162.859 17.3167 162.808L17.4398 162.729Z" fill="#B0B0B0"/>
<path d="M130.026 162.729L135.854 162.984C133.936 163.74 131.953 164.329 130.317 165.473C124.224 169.73 122.038 175.742 123.759 183.509L123.649 183.544C119.017 182.315 115.591 179.599 113.371 175.395C113.297 175.245 113.138 175.157 113.002 175.06C114.814 167.404 121.785 162.284 129.648 162.874C129.739 162.882 129.83 162.859 129.903 162.808L130.026 162.729Z" fill="#B0B0B0"/>
<path d="M0.490065 174.73C2.63625 179.304 6.16045 182.242 11.0627 183.544C11.1858 183.655 11.2855 183.88 11.3617 184.217C12.6019 189.764 13.8407 195.313 15.078 200.863C16.0279 205.132 18.2166 208.31 21.6441 210.398C22.66 211.018 24.0629 211.405 25.246 212.095C21.7056 212.108 17.4089 212.456 14.3083 211.629C9.0836 210.239 5.82914 206.683 4.54495 200.96C3.13761 194.691 1.74787 188.411 0.37572 182.119C-0.160827 179.647 -0.122712 177.185 0.490065 174.73Z" fill="#6366F1"/>
<path d="M98.049 175.061C98.6354 177.479 98.6354 180.01 98.049 182.651C96.6622 188.891 95.2812 195.13 93.9061 201.369C92.4152 208.133 87.1289 212.113 80.2814 212.113C61.9391 212.122 43.5939 212.116 25.2458 212.095C24.0628 211.405 22.6598 211.018 21.6439 210.398C18.2164 208.31 16.0278 205.132 15.0778 200.863C13.8405 195.313 12.6018 189.764 11.3616 184.217C11.2853 183.88 11.1856 183.656 11.0625 183.544L11.1724 183.509C12.2074 183.811 12.9873 183.962 13.5121 183.962C35.8096 183.965 58.1085 183.966 80.4089 183.966C84.1794 183.966 86.8181 183.739 88.3252 183.285C93.1541 181.829 95.2035 179.058 98.049 175.061Z" fill="#6366F1"/>
<path d="M113.002 175.061C113.139 175.157 113.297 175.245 113.372 175.395C115.591 179.599 119.017 182.316 123.65 183.544C123.773 183.656 123.872 183.88 123.949 184.217C125.189 189.764 126.428 195.313 127.665 200.863C128.615 205.132 130.804 208.31 134.231 210.398C135.247 211.018 136.65 211.405 137.833 212.095C134.293 212.109 130 212.456 126.895 211.629C121.671 210.24 118.416 206.683 117.132 200.96C115.698 194.571 114.273 188.174 112.857 181.767C112.4 179.694 112.448 177.459 113.002 175.061Z" fill="#6366F1"/>
<path d="M210.636 175.17C211.213 177.48 211.313 179.496 210.935 181.217C209.759 186.588 208.576 191.958 207.386 197.327C206.471 201.461 205.628 204.206 204.857 205.564C202.328 210.023 197.979 212.112 192.864 212.112C174.522 212.121 156.178 212.115 137.833 212.095C136.65 211.404 135.247 211.017 134.231 210.397C130.803 208.31 128.615 205.131 127.665 200.863C126.427 195.312 125.189 189.764 123.948 184.216C123.872 183.879 123.773 183.655 123.649 183.544L123.759 183.508C124.791 183.81 125.533 183.961 125.985 183.961C148.795 183.967 171.606 183.969 194.416 183.966C201.013 183.961 206.062 182.281 209.664 176.516C210.092 175.83 210.416 175.381 210.636 175.17Z" fill="#6366F1"/>
</svg>
