<svg width="180" height="180" viewBox="0 0 180 180" fill="none" xmlns="http://www.w3.org/2000/svg">
<path d="M139.761 15.0293C139.659 15.1242 139.638 15.2262 139.718 15.3492C144.608 22.9828 148.252 31.1742 150.652 39.9234C150.704 40.1109 150.731 40.3043 150.733 40.5035" stroke="#43AFFF" stroke-width="0.703125"/>
<path d="M150.732 40.5043C149.715 39.377 148.696 38.2531 147.674 37.1328C127.034 14.4711 94.7777 6.08633 65.6261 15.5996C16.5164 31.6274 -4.03245 90.841 25.1507 133.77" stroke="#A5D7FF" stroke-width="0.703125"/>
<path d="M25.1504 133.77C29.4559 140.128 34.5781 145.795 40.5172 150.771" stroke="#6D92BC" stroke-width="0.703125"/>
<path d="M40.518 150.772C31.5133 148.463 23.1332 144.773 15.3777 139.701C15.3343 139.673 15.2831 139.659 15.2317 139.663C15.1803 139.666 15.1317 139.686 15.093 139.719C15.0602 139.747 15.0344 139.786 15.0156 139.835" stroke="#43AFFF" stroke-width="0.703125"/>
<path d="M150.732 40.5039L151.362 41.309" stroke="#88CEFF" stroke-width="0.703125"/>
<path d="M151.362 41.3086C151.28 41.5711 151.325 42.0422 151.496 42.7219C153.603 51.1711 154.389 60.1242 153.855 69.5812C153.853 69.6034 153.857 69.6258 153.868 69.6458C153.878 69.6657 153.895 69.6824 153.914 69.6938C154.062 69.7781 153.974 70.0277 153.897 70.1227" stroke="#E1F1FF" stroke-width="0.703125"/>
<path d="M153.897 70.123C152.628 70.5098 150.635 70.8402 149.78 71.568C148.88 72.3344 148.617 73.6457 149.197 74.7145C149.944 76.0973 151.278 76.4676 153.198 75.8254" stroke="#B2B2BC" stroke-width="0.703125"/>
<path d="M153.197 75.8242C152.759 79.7336 151.989 83.5832 150.888 87.373" stroke="#E1F1FF" stroke-width="0.703125"/>
<path d="M150.888 87.3734C147.203 87.0605 145.948 91.4374 149.341 92.5484" stroke="#B2B2BC" stroke-width="0.703125"/>
<path d="M149.34 92.5488C145.853 102.953 140.662 112.42 133.77 120.952" stroke="#E1F1FF" stroke-width="0.703125"/>
<path d="M133.769 120.952C109.877 110.914 85.4727 109.239 60.5562 115.928C47.7125 119.376 35.9105 125.323 25.1504 133.77" stroke="#B2B2BC" stroke-width="0.703125"/>
<path d="M92.615 22.5962C92.6156 22.2679 92.5515 21.9427 92.4264 21.6393C92.3013 21.3358 92.1177 21.0599 91.886 20.8274C91.6543 20.5949 91.3791 20.4103 91.076 20.2841C90.773 20.158 90.448 20.0928 90.1198 20.0922L89.9018 20.0918C89.5736 20.0912 89.2484 20.1553 88.9449 20.2804C88.6414 20.4055 88.3656 20.5891 88.133 20.8208C87.9005 21.0525 87.7159 21.3278 87.5898 21.6308C87.4636 21.9339 87.3984 22.2588 87.3978 22.5871L87.3848 30.0683C87.3842 30.3965 87.4483 30.7217 87.5734 31.0252C87.6985 31.3286 87.8821 31.6045 88.1138 31.837C88.3455 32.0695 88.6207 32.2541 88.9238 32.3803C89.2268 32.5064 89.5518 32.5717 89.88 32.5722L90.098 32.5726C90.4262 32.5732 90.7514 32.5091 91.0549 32.384C91.3584 32.2589 91.6342 32.0753 91.8668 31.8436C92.0993 31.6119 92.2839 31.3366 92.41 31.0336C92.5362 30.7305 92.6014 30.4056 92.602 30.0774L92.615 22.5962Z" stroke="#B2B2BC" stroke-width="0.703125"/>
<path d="M75.0546 24.1894C74.9698 23.8771 74.8242 23.5846 74.6263 23.3285C74.4284 23.0724 74.182 22.8578 73.9011 22.697C73.6203 22.5361 73.3105 22.4322 72.9895 22.3911C72.6685 22.3499 72.3425 22.3725 72.0302 22.4573L71.7656 22.5292C71.4533 22.6141 71.1607 22.7596 70.9046 22.9575C70.6486 23.1554 70.434 23.4018 70.2731 23.6827C70.1123 23.9635 70.0084 24.2733 69.9672 24.5943C69.9261 24.9153 69.9486 25.2413 70.0335 25.5536L71.0493 29.2923C71.1341 29.6046 71.2797 29.8972 71.4776 30.1532C71.6755 30.4093 71.9219 30.6239 72.2027 30.7847C72.4836 30.9456 72.7934 31.0495 73.1144 31.0906C73.4354 31.1318 73.7614 31.1093 74.0737 31.0244L74.3383 30.9525C74.6506 30.8677 74.9432 30.7221 75.1992 30.5242C75.4553 30.3263 75.6699 30.0799 75.8307 29.799C75.9916 29.5182 76.0955 29.2084 76.1366 28.8874C76.1778 28.5664 76.1552 28.2404 76.0704 27.9281L75.0546 24.1894Z" stroke="#B2B2BC" stroke-width="0.703125"/>
<path d="M109.969 25.5509C110.053 25.2385 110.075 24.9125 110.033 24.5915C109.991 24.2706 109.887 23.961 109.726 23.6804C109.564 23.3999 109.349 23.1538 109.093 22.9564C108.836 22.7589 108.544 22.6139 108.231 22.5296L107.966 22.4581C107.654 22.3738 107.328 22.3519 107.007 22.3936C106.686 22.4353 106.376 22.5397 106.096 22.7011C105.815 22.8624 105.569 23.0774 105.372 23.3338C105.174 23.5903 105.029 23.8831 104.945 24.1955L103.938 27.9292C103.853 28.2417 103.831 28.5677 103.873 28.8886C103.915 29.2095 104.019 29.5191 104.181 29.7997C104.342 30.0803 104.557 30.3263 104.813 30.5238C105.07 30.7212 105.363 30.8662 105.675 30.9505L105.94 31.022C106.252 31.1063 106.578 31.1282 106.899 31.0865C107.22 31.0449 107.53 30.9404 107.81 30.779C108.091 30.6177 108.337 30.4027 108.534 30.1463C108.732 29.8899 108.877 29.5971 108.961 29.2846L109.969 25.5509Z" stroke="#B2B2BC" stroke-width="0.703125"/>
<path d="M58.5657 30.348C58.2285 29.7686 57.6749 29.3469 57.0268 29.1757C56.3786 29.0044 55.689 29.0977 55.1096 29.4349L54.9515 29.5268C54.3721 29.8641 53.9504 30.4176 53.7792 31.0658C53.6079 31.7139 53.7012 32.4036 54.0384 32.983L57.7663 39.3881C58.1035 39.9675 58.6571 40.3892 59.3052 40.5605C59.9534 40.7317 60.643 40.6385 61.2224 40.3012L61.3804 40.2093C61.9598 39.8721 62.3815 39.3185 62.5528 38.6703C62.724 38.0222 62.6308 37.3325 62.2936 36.7531L58.5657 30.348Z" stroke="#B2B2BC" stroke-width="0.703125"/>
<path d="M125.956 32.989C126.124 32.7024 126.233 32.3856 126.278 32.0568C126.323 31.7279 126.303 31.3934 126.219 31.0723C126.134 30.7512 125.988 30.4498 125.787 30.1854C125.586 29.921 125.336 29.6987 125.049 29.5313L124.891 29.4391C124.312 29.1008 123.623 29.0064 122.974 29.1765C122.326 29.3466 121.772 29.7673 121.433 30.3462L117.698 36.7386C117.53 37.0253 117.421 37.342 117.376 37.6709C117.331 37.9998 117.351 38.3343 117.435 38.6554C117.52 38.9765 117.666 39.2778 117.867 39.5422C118.068 39.8066 118.318 40.0289 118.605 40.1964L118.763 40.2886C119.342 40.6268 120.031 40.7213 120.68 40.5512C121.328 40.3811 121.882 39.9603 122.221 39.3815L125.956 32.989Z" stroke="#B2B2BC" stroke-width="0.703125"/>
<path d="M46.8854 46.7202C47.3535 46.2521 47.6165 45.6172 47.6165 44.9552C47.6165 44.2932 47.3535 43.6583 46.8854 43.1902L44.2055 40.5104C43.7374 40.0423 43.1025 39.7793 42.4405 39.7793C41.7785 39.7793 41.1437 40.0423 40.6755 40.5104L40.5065 40.6794C40.0384 41.1476 39.7754 41.7824 39.7754 42.4444C39.7754 43.1065 40.0384 43.7413 40.5065 44.2095L43.1863 46.8893C43.6544 47.3574 44.2893 47.6204 44.9513 47.6204C45.6133 47.6204 46.2482 47.3574 46.7163 46.8893L46.8854 46.7202Z" stroke="#B2B2BC" stroke-width="0.703125"/>
<path d="M139.485 44.2104C139.954 43.7417 140.217 43.1059 140.217 42.443C140.217 41.78 139.954 41.1442 139.485 40.6755L139.321 40.5114C138.852 40.0426 138.216 39.7793 137.553 39.7793C136.89 39.7793 136.255 40.0426 135.786 40.5114L133.116 43.1813C132.647 43.65 132.384 44.2858 132.384 44.9488C132.384 45.6117 132.647 46.2475 133.116 46.7162L133.28 46.8803C133.749 47.3491 134.385 47.6124 135.047 47.6124C135.71 47.6124 136.346 47.3491 136.815 46.8803L139.485 44.2104Z" stroke="#B2B2BC" stroke-width="0.703125"/>
<path d="M93.4136 82.8819C88.9909 81.1346 83.8757 83.0576 82.5257 87.8037C80.3319 95.5311 89.8382 101.258 95.6003 95.3518C97.8292 93.069 98.3355 90.1475 97.1191 86.5873" stroke="#F5ECBB" stroke-width="0.703125"/>
<path d="M97.1195 86.5861C106.722 77.0236 116.308 67.4447 125.877 57.8493C128.472 55.2443 124.787 51.5142 122.154 54.1263C115.899 60.3349 106.319 69.9197 93.4141 82.8806" stroke="#F4BBC3" stroke-width="0.703125"/>
<path d="M97.1195 86.5863C96.1914 85.0441 94.9563 83.809 93.4141 82.8809" stroke="#FEB17F" stroke-width="0.703125"/>
<path d="M40.288 61.2338C40.4555 60.9472 40.5649 60.6304 40.61 60.3016C40.655 59.9727 40.6348 59.6382 40.5506 59.3171C40.4664 58.996 40.3197 58.6946 40.119 58.4302C39.9183 58.1658 39.6675 57.9435 39.3809 57.7761L32.9884 54.0406C32.4096 53.7024 31.7201 53.6079 31.0717 53.7781C30.4232 53.9482 29.8689 54.3689 29.5307 54.9477L29.442 55.0995C29.2745 55.3861 29.1651 55.7029 29.1201 56.0317C29.075 56.3606 29.0952 56.6952 29.1794 57.0162C29.2637 57.3373 29.4103 57.6387 29.611 57.9031C29.8117 58.1675 30.0625 58.3898 30.3491 58.5572L36.7416 62.2927C37.3204 62.6309 38.0099 62.7254 38.6583 62.5553C39.3068 62.3851 39.8611 61.9644 40.1993 61.3856L40.288 61.2338Z" stroke="#B2B2BC" stroke-width="0.703125"/>
<path d="M150.472 54.9596C150.305 54.6731 150.084 54.4222 149.82 54.2213C149.557 54.0205 149.256 53.8735 148.935 53.7888C148.615 53.7041 148.281 53.6834 147.952 53.7278C147.624 53.7723 147.307 53.8809 147.021 54.0477L140.616 57.7755C140.037 58.1123 139.616 58.6651 139.445 59.3123C139.274 59.9596 139.367 60.6483 139.704 61.2269L139.792 61.3788C139.959 61.6653 140.181 61.9162 140.444 62.117C140.708 62.3179 141.009 62.4649 141.329 62.5496C141.65 62.6342 141.984 62.655 142.312 62.6105C142.641 62.5661 142.957 62.4574 143.244 62.2907L149.649 58.5628C150.227 58.2261 150.649 57.6733 150.82 57.026C150.991 56.3788 150.897 55.6901 150.561 55.1115L150.472 54.9596Z" stroke="#B2B2BC" stroke-width="0.703125"/>
<path d="M31.0174 74.0934C31.1926 73.4617 31.1096 72.7864 30.7869 72.2159C30.4641 71.6454 29.9279 71.2265 29.2963 71.0513L25.5901 70.0235C24.9584 69.8483 24.2831 69.9312 23.7126 70.254C23.1421 70.5768 22.7232 71.113 22.548 71.7446L22.4766 72.0021C22.3014 72.6337 22.3844 73.3091 22.7071 73.8796C23.0299 74.4501 23.5661 74.869 24.1977 75.0441L27.9039 76.072C28.5356 76.2471 29.2109 76.1642 29.7814 75.8415C30.3519 75.5187 30.7708 74.9825 30.946 74.3509L31.0174 74.0934Z" stroke="#B2B2BC" stroke-width="0.703125"/>
<path d="M32.576 89.8875C32.576 89.2227 32.3119 88.5851 31.8418 88.115C31.3717 87.645 30.7341 87.3809 30.0693 87.3809H22.6443C21.9795 87.3809 21.342 87.645 20.8719 88.115C20.4018 88.5851 20.1377 89.2227 20.1377 89.8875V90.1125C20.1377 90.7773 20.4018 91.4149 20.8719 91.885C21.342 92.355 21.9795 92.6191 22.6443 92.6191H30.0693C30.7341 92.6191 31.3717 92.355 31.8418 91.885C32.3119 91.4149 32.576 90.7773 32.576 90.1125V89.8875Z" stroke="#B2B2BC" stroke-width="0.703125"/>
<path d="M40.5176 150.771L41.4844 151.45" stroke="#508ABC" stroke-width="0.703125"/>
<path d="M41.4844 151.45C77.2523 179.582 129.262 171.693 154.937 133.77" stroke="#4782B3" stroke-width="0.703125"/>
<path d="M154.937 133.77C174.058 105.251 172.561 68.284 151.361 41.3086" stroke="#7FC9FE" stroke-width="0.703125"/>
<path d="M154.937 133.77C148.44 128.593 141.384 124.34 133.77 121.012" stroke="#A0A5B3" stroke-width="0.703125"/>
<path d="M133.77 121.011V120.951" stroke="#A9ADBC" stroke-width="0.703125"/>
<path d="M149.34 92.5489C153.488 92.72 156.201 92.7422 157.479 92.6157C160.861 92.2747 160.632 87.3704 157.148 87.3633C155.006 87.3586 152.919 87.3622 150.887 87.3739" stroke="#A9ADBC" stroke-width="0.703125"/>
<path d="M153.196 75.8244C154.363 75.4623 156.107 75.1881 156.905 74.376C159.001 72.242 156.613 69.4014 153.896 70.1221" stroke="#A9ADBC" stroke-width="0.703125"/>
<path d="M133.769 121.012C127.82 128.076 121.015 134.187 113.354 139.346" stroke="#716671" stroke-width="0.703125"/>
<path d="M113.354 139.344C113.372 137.182 113.885 132.331 112.901 130.503C111.47 127.841 107.002 128.562 104.414 128.597" stroke="#A9ADBC" stroke-width="0.703125"/>
<path d="M104.414 128.598H99.1406" stroke="#97A4BC" stroke-width="0.703125"/>
<path d="M99.1406 128.598H92.7246" stroke="#A9ADBC" stroke-width="0.703125"/>
<path d="M92.7246 128.598H87.2754" stroke="#97A4BC" stroke-width="0.703125"/>
<path d="M87.2754 128.598H80.9473" stroke="#A9ADBC" stroke-width="0.703125"/>
<path d="M80.9473 128.598H75.5859" stroke="#97A4BC" stroke-width="0.703125"/>
<path d="M75.5852 128.598C71.0184 128.521 66.6238 127.533 66.6203 133.344C66.618 136.855 66.6191 140.366 66.6238 143.877C66.6309 149.632 71.8551 148.381 75.673 148.346" stroke="#A9ADBC" stroke-width="0.703125"/>
<path d="M75.6738 148.346H80.9473" stroke="#97A4BC" stroke-width="0.703125"/>
<path d="M80.9473 148.346H87.2754" stroke="#A9ADBC" stroke-width="0.703125"/>
<path d="M87.2754 148.346H92.6367" stroke="#97A4BC" stroke-width="0.703125"/>
<path d="M92.6367 148.346L94.5703 148.374" stroke="#A9ADBC" stroke-width="0.703125"/>
<path d="M94.5703 148.373L94.1801 148.77C94.1004 148.852 94.0078 148.912 93.9023 148.95C77.3895 154.638 58.8902 155.77 41.8852 151.207C41.8314 151.192 41.7745 151.194 41.7218 151.212C41.6691 151.23 41.6232 151.264 41.5898 151.309L41.4844 151.449" stroke="#716671" stroke-width="0.703125"/>
<path d="M94.5703 148.374L99.0527 148.346" stroke="#A0A5B3" stroke-width="0.703125"/>
<path d="M99.0527 148.346H104.326" stroke="#8E9CB3" stroke-width="0.703125"/>
<path d="M104.326 148.346C106.886 148.381 111.456 149.116 112.89 146.532C113.769 144.95 113.379 141.381 113.354 139.346" stroke="#A0A5B3" stroke-width="0.703125"/>
<path d="M75.5859 128.598L75.6738 148.345" stroke="#C6E3FE" stroke-width="0.703125"/>
<path d="M80.9473 128.598V148.345" stroke="#C6E3FE" stroke-width="0.703125"/>
<path d="M87.2754 128.598C87.4207 135.179 87.4207 141.761 87.2754 148.345" stroke="#C6E3FE" stroke-width="0.703125"/>
<path d="M92.7246 128.598L92.6367 148.345" stroke="#C6E3FE" stroke-width="0.703125"/>
<path d="M99.1406 128.598L99.0527 148.345" stroke="#C6E3FE" stroke-width="0.703125"/>
<path d="M104.414 128.598L104.326 148.345" stroke="#C6E3FE" stroke-width="0.703125"/>
<path d="M87.9996 0H92.1305C109.477 0.520312 125.353 5.53008 139.76 15.0293C139.658 15.1242 139.637 15.2262 139.718 15.3492C144.607 22.9828 148.252 31.1742 150.652 39.9234C150.703 40.1109 150.73 40.3043 150.732 40.5035C149.715 39.3762 148.696 38.2523 147.674 37.132C127.034 14.4703 94.7777 6.08555 65.6262 15.5988C16.5164 31.6266 -4.03242 90.8402 25.1508 133.77C29.4563 140.128 34.5785 145.795 40.5176 150.771C31.5129 148.462 23.1328 144.772 15.3773 139.7C15.3339 139.672 15.2827 139.658 15.2313 139.662C15.18 139.665 15.1313 139.685 15.0926 139.718C15.0598 139.746 15.034 139.785 15.0152 139.834C5.51367 125.319 0.508594 109.345 0 91.9125V87.9574C1.44844 39.6984 39.5754 1.34297 87.9996 0Z" fill="#6366F1"/>
<path d="M150.732 40.5043L151.362 41.3094C151.28 41.5719 151.324 42.043 151.495 42.7227C153.602 51.1719 154.389 60.125 153.854 69.582C153.852 69.6042 153.857 69.6266 153.867 69.6466C153.878 69.6665 153.894 69.6832 153.914 69.6945C154.062 69.7789 153.974 70.0285 153.896 70.1234C152.627 70.5102 150.634 70.8406 149.78 71.5684C148.88 72.3348 148.616 73.6461 149.196 74.7149C149.944 76.0977 151.277 76.468 153.197 75.8258C152.759 79.7352 151.989 83.5848 150.887 87.3746C147.203 87.0617 145.948 91.4387 149.34 92.5496C145.853 102.954 140.662 112.421 133.769 120.952C109.877 110.914 85.473 109.239 60.5566 115.929C47.7129 119.376 35.9109 125.323 25.1507 133.77C-4.03245 90.841 16.5164 31.6273 65.6261 15.5996C94.7777 6.08634 127.034 14.4711 147.674 37.1328C148.696 38.2531 149.715 39.377 150.732 40.5043ZM92.6151 22.5968C92.6157 22.2685 92.5516 21.9434 92.4265 21.6399C92.3014 21.3364 92.1178 21.0605 91.8861 20.828C91.6544 20.5955 91.3791 20.4109 91.0761 20.2847C90.773 20.1586 90.4481 20.0934 90.1198 20.0928L89.9019 20.0924C89.5736 20.0918 89.2485 20.1559 88.945 20.281C88.6415 20.4061 88.3656 20.5897 88.1331 20.8214C87.9006 21.0531 87.716 21.3284 87.5898 21.6314C87.4637 21.9345 87.3985 22.2594 87.3979 22.5877L87.3848 30.0689C87.3843 30.3971 87.4483 30.7223 87.5734 31.0258C87.6985 31.3293 87.8822 31.6051 88.1139 31.8376C88.3456 32.0702 88.6208 32.2548 88.9239 32.3809C89.2269 32.507 89.5518 32.5723 89.8801 32.5728L90.098 32.5732C90.4263 32.5738 90.7514 32.5097 91.0549 32.3846C91.3584 32.2595 91.6343 32.0759 91.8668 31.8442C92.0993 31.6125 92.2839 31.3373 92.4101 31.0342C92.5362 30.7312 92.6014 30.4062 92.602 30.078L92.6151 22.5968ZM75.0538 24.1892C74.969 23.8769 74.8234 23.5843 74.6255 23.3283C74.4276 23.0722 74.1812 22.8576 73.9003 22.6968C73.6195 22.5359 73.3097 22.432 72.9887 22.3908C72.6677 22.3497 72.3417 22.3722 72.0294 22.4571L71.7648 22.529C71.4524 22.6138 71.1599 22.7594 70.9038 22.9573C70.6478 23.1552 70.4332 23.4016 70.2723 23.6825C70.1115 23.9633 70.0076 24.2731 69.9664 24.5941C69.9253 24.9151 69.9478 25.2411 70.0327 25.5534L71.0485 29.2921C71.1333 29.6044 71.2789 29.8969 71.4768 30.153C71.6747 30.4091 71.9211 30.6237 72.2019 30.7845C72.4828 30.9453 72.7926 31.0493 73.1136 31.0904C73.4346 31.1315 73.7606 31.109 74.0729 31.0242L74.3375 30.9523C74.6498 30.8674 74.9424 30.7219 75.1984 30.524C75.4545 30.3261 75.6691 30.0796 75.8299 29.7988C75.9908 29.518 76.0947 29.2082 76.1358 28.8872C76.1769 28.5661 76.1544 28.2402 76.0696 27.9279L75.0538 24.1892ZM109.968 25.5515C110.052 25.239 110.074 24.913 110.032 24.5921C109.991 24.2711 109.886 23.9616 109.725 23.681C109.563 23.4004 109.348 23.1544 109.092 22.9569C108.836 22.7595 108.543 22.6145 108.23 22.5301L107.966 22.4587C107.653 22.3744 107.327 22.3525 107.006 22.3941C106.685 22.4358 106.376 22.5403 106.095 22.7017C105.815 22.863 105.569 23.078 105.371 23.3344C105.174 23.5908 105.029 23.8836 104.944 24.1961L103.937 27.9298C103.853 28.2422 103.831 28.5682 103.872 28.8892C103.914 29.2101 104.018 29.5197 104.18 29.8003C104.341 30.0808 104.556 30.3269 104.813 30.5243C105.069 30.7218 105.362 30.8668 105.674 30.9511L105.939 31.0226C106.251 31.1069 106.577 31.1288 106.898 31.0871C107.219 31.0454 107.529 30.9409 107.809 30.7796C108.09 30.6183 108.336 30.4033 108.534 30.1469C108.731 29.8904 108.876 29.5976 108.96 29.2852L109.968 25.5515ZM58.5657 30.3487C58.2285 29.7693 57.6749 29.3476 57.0268 29.1764C56.3786 29.0051 55.689 29.0984 55.1096 29.4356L54.9515 29.5275C54.3721 29.8648 53.9504 30.4183 53.7792 31.0665C53.6079 31.7146 53.7012 32.4043 54.0384 32.9837L57.7663 39.3888C58.1035 39.9682 58.6571 40.3899 59.3052 40.5612C59.9534 40.7324 60.643 40.6392 61.2224 40.3019L61.3804 40.21C61.9598 39.8728 62.3815 39.3192 62.5528 38.671C62.724 38.0229 62.6308 37.3332 62.2936 36.7538L58.5657 30.3487ZM125.956 32.9904C126.123 32.7038 126.233 32.387 126.278 32.0582C126.323 31.7293 126.303 31.3948 126.219 31.0737C126.134 30.7526 125.988 30.4512 125.787 30.1868C125.586 29.9224 125.335 29.7001 125.049 29.5327L124.891 29.4405C124.312 29.1022 123.623 29.0078 122.974 29.1779C122.326 29.348 121.772 29.7688 121.433 30.3476L117.698 36.7401C117.53 37.0267 117.421 37.3434 117.376 37.6723C117.331 38.0012 117.351 38.3357 117.435 38.6568C117.519 38.9779 117.666 39.2792 117.867 39.5436C118.068 39.8081 118.318 40.0303 118.605 40.1978L118.763 40.29C119.342 40.6283 120.031 40.7227 120.68 40.5526C121.328 40.3825 121.882 39.9617 122.221 39.3829L125.956 32.9904ZM46.8851 46.7204C47.3532 46.2523 47.6162 45.6174 47.6162 44.9554C47.6162 44.2934 47.3532 43.6585 46.8851 43.1904L44.2053 40.5106C43.7372 40.0425 43.1023 39.7795 42.4403 39.7795C41.7783 39.7795 41.1434 40.0425 40.6753 40.5106L40.5062 40.6796C40.0381 41.1477 39.7751 41.7826 39.7751 42.4446C39.7751 43.1066 40.0381 43.7415 40.5062 44.2096L43.186 46.8895C43.6542 47.3576 44.289 47.6205 44.951 47.6205C45.613 47.6205 46.2479 47.3576 46.716 46.8895L46.8851 46.7204ZM139.485 44.2111C139.954 43.7423 140.217 43.1065 140.217 42.4436C140.217 41.7807 139.954 41.1449 139.485 40.6761L139.321 40.512C138.852 40.0433 138.217 39.7799 137.554 39.7799C136.891 39.7799 136.255 40.0433 135.786 40.512L133.116 43.1819C132.648 43.6507 132.384 44.2865 132.384 44.9494C132.384 45.6123 132.648 46.2481 133.116 46.7169L133.28 46.8809C133.749 47.3497 134.385 47.6131 135.048 47.6131C135.711 47.6131 136.347 47.3497 136.815 46.8809L139.485 44.2111ZM93.4136 82.8816C88.991 81.1344 83.8757 83.0574 82.5257 87.8035C80.332 95.5309 89.8382 101.258 95.6003 95.3516C97.8293 93.0688 98.3355 90.1473 97.1191 86.5871C106.721 77.0246 116.307 67.4457 125.877 57.8504C128.471 55.2453 124.787 51.5152 122.154 54.1274C115.898 60.3359 106.318 69.9207 93.4136 82.8816ZM40.2874 61.234C40.4549 60.9474 40.5643 60.6306 40.6094 60.3017C40.6544 59.9728 40.6342 59.6383 40.55 59.3172C40.4658 58.9961 40.3191 58.6948 40.1184 58.4304C39.9177 58.166 39.6669 57.9437 39.3803 57.7762L32.9878 54.0408C32.409 53.7025 31.7195 53.6081 31.0711 53.7782C30.4226 53.9483 29.8683 54.3691 29.5301 54.9479L29.4414 55.0996C29.2739 55.3862 29.1645 55.703 29.1195 56.0319C29.0744 56.3608 29.0946 56.6953 29.1788 57.0164C29.2631 57.3375 29.4097 57.6388 29.6104 57.9032C29.8111 58.1676 30.0619 58.3899 30.3485 58.5574L36.741 62.2928C37.3198 62.6311 38.0093 62.7255 38.6578 62.5554C39.3062 62.3853 39.8605 61.9646 40.1987 61.3857L40.2874 61.234ZM150.472 54.9607C150.305 54.6742 150.084 54.4234 149.82 54.2225C149.556 54.0216 149.256 53.8746 148.935 53.79C148.615 53.7053 148.281 53.6846 147.952 53.729C147.624 53.7734 147.307 53.8821 147.021 54.0488L140.615 57.7767C140.037 58.1134 139.616 58.6662 139.445 59.3135C139.274 59.9607 139.367 60.6494 139.704 61.228L139.792 61.3799C139.959 61.6664 140.18 61.9173 140.444 62.1182C140.708 62.319 141.008 62.466 141.329 62.5507C141.649 62.6354 141.983 62.6561 142.312 62.6117C142.64 62.5673 142.957 62.4586 143.243 62.2918L149.648 58.564C150.227 58.2272 150.648 57.6744 150.819 57.0272C150.99 56.3799 150.897 55.6912 150.56 55.1126L150.472 54.9607ZM31.0172 74.0941C31.1924 73.4625 31.1095 72.7871 30.7867 72.2166C30.4639 71.6461 29.9278 71.2272 29.2961 71.052L25.5899 70.0242C24.9583 69.849 24.2829 69.9319 23.7124 70.2547C23.1419 70.5775 22.723 71.1137 22.5478 71.7453L22.4764 72.0028C22.3013 72.6344 22.3842 73.3098 22.707 73.8803C23.0297 74.4508 23.5659 74.8697 24.1976 75.0449L27.9038 76.0727C28.5354 76.2479 29.2108 76.1649 29.7813 75.8422C30.3517 75.5194 30.7707 74.9832 30.9458 74.3516L31.0172 74.0941ZM32.5757 89.8883C32.5757 89.2235 32.3117 88.5859 31.8416 88.1158C31.3715 87.6457 30.7339 87.3817 30.0691 87.3817H22.6441C21.9793 87.3817 21.3417 87.6457 20.8716 88.1158C20.4016 88.5859 20.1375 89.2235 20.1375 89.8883V90.1133C20.1375 90.7781 20.4016 91.4157 20.8716 91.8857C21.3417 92.3558 21.9793 92.6199 22.6441 92.6199H30.0691C30.7339 92.6199 31.3715 92.3558 31.8416 91.8857C32.3117 91.4157 32.5757 90.7781 32.5757 90.1133V89.8883Z" fill="#D8ECFE"/>
<path d="M139.761 15.0293C141.202 15.934 142.604 16.902 143.965 17.9332C165.741 34.4461 178.612 58.8586 180 86.066V93.8883C177.691 141.18 140.256 178.007 93.1434 180H86.2879C57.2629 178.636 31.1875 163.93 15.0156 139.834C15.0344 139.785 15.0602 139.746 15.093 139.718C15.1317 139.685 15.1803 139.665 15.2317 139.662C15.2831 139.658 15.3343 139.672 15.3777 139.7C23.1332 144.772 31.5133 148.462 40.518 150.771L41.4848 151.45C77.2527 179.582 129.263 171.693 154.938 133.77C174.059 105.251 172.561 68.284 151.362 41.3086L150.733 40.5035C150.73 40.3043 150.704 40.1109 150.652 39.9234C148.252 31.1742 144.607 22.9828 139.718 15.3492C139.638 15.2262 139.659 15.1242 139.761 15.0293Z" fill="#6366F1"/>
<path d="M90.1199 20.0926L89.9019 20.0923C88.5215 20.0898 87.4004 21.207 87.398 22.5875L87.3849 30.0687C87.3825 31.4492 88.4997 32.5703 89.8802 32.5727L90.0981 32.5731C91.4786 32.5755 92.5997 31.4583 92.6021 30.0778L92.6152 22.5966C92.6176 21.2161 91.5004 20.095 90.1199 20.0926Z" fill="#B0B0B0"/>
<path d="M72.0296 22.4558L71.765 22.5277C70.4515 22.8845 69.676 24.2386 70.0329 25.5521L71.0487 29.2908C71.4055 30.6042 72.7596 31.3797 74.073 31.0228L74.3377 30.9509C75.6511 30.5941 76.4266 29.24 76.0698 27.9265L75.054 24.1879C74.6971 22.8744 73.343 22.0989 72.0296 22.4558Z" fill="#B0B0B0"/>
<path d="M108.231 22.5298L107.966 22.4584C106.652 22.1038 105.299 22.8817 104.945 24.1958L103.937 27.9294C103.583 29.2435 104.361 30.5962 105.675 30.9508L105.94 31.0222C107.254 31.3768 108.606 30.599 108.961 29.2849L109.968 25.5512C110.323 24.2371 109.545 22.8844 108.231 22.5298Z" fill="#B0B0B0"/>
<path d="M55.1102 29.4354L54.9522 29.5273C53.7457 30.2296 53.3368 31.7769 54.0391 32.9835L57.7669 39.3886C58.4692 40.5951 60.0165 41.004 61.2231 40.3017L61.3811 40.2098C62.5876 39.5075 62.9965 37.9602 62.2942 36.7536L58.5664 30.3485C57.8642 29.142 56.3168 28.7331 55.1102 29.4354Z" fill="#B0B0B0"/>
<path d="M125.048 29.5316L124.89 29.4394C123.685 28.735 122.137 29.1412 121.433 30.3465L117.697 36.739C116.993 37.9443 117.399 39.4924 118.604 40.1967L118.762 40.289C119.968 40.9933 121.516 40.5872 122.22 39.3819L125.955 32.9894C126.66 31.784 126.254 30.2359 125.048 29.5316Z" fill="#B0B0B0"/>
<path d="M46.8853 43.189L44.2054 40.5091C43.2306 39.5344 41.6502 39.5344 40.6754 40.5091L40.5064 40.6782C39.5316 41.653 39.5316 43.2334 40.5064 44.2082L43.1862 46.888C44.161 47.8628 45.7414 47.8628 46.7162 46.888L46.8853 46.719C47.86 45.7442 47.86 44.1638 46.8853 43.189Z" fill="#B0B0B0"/>
<path d="M139.485 40.6757L139.321 40.5116C138.345 39.5355 136.762 39.5355 135.786 40.5116L133.116 43.1815C132.14 44.1577 132.14 45.7403 133.116 46.7165L133.28 46.8806C134.257 47.8567 135.839 47.8567 136.815 46.8806L139.485 44.2107C140.461 43.2345 140.461 41.6519 139.485 40.6757Z" fill="#B0B0B0"/>
<path d="M151.362 41.3086C172.561 68.284 174.059 105.251 154.937 133.77C148.44 128.592 141.384 124.339 133.77 121.011V120.952C140.662 112.42 145.853 102.953 149.34 92.5488C153.489 92.7199 156.202 92.7422 157.479 92.6156C160.861 92.2746 160.632 87.3703 157.148 87.3633C155.006 87.3586 152.919 87.3621 150.887 87.3738C151.989 83.584 152.759 79.7344 153.197 75.825C154.364 75.4629 156.108 75.1887 156.906 74.3766C159.001 72.2426 156.614 69.402 153.896 70.1227C153.974 70.0277 154.062 69.7781 153.914 69.6938C153.894 69.6824 153.878 69.6657 153.867 69.6458C153.857 69.6258 153.852 69.6034 153.854 69.5812C154.389 60.1242 153.602 51.1711 151.495 42.7219C151.324 42.0422 151.28 41.5711 151.362 41.3086Z" fill="#D8ECFE"/>
<path d="M97.1195 86.5861C96.1914 85.0439 94.9563 83.8087 93.4141 82.8806C106.319 69.9197 115.899 60.3349 122.154 54.1263C124.788 51.5142 128.472 55.2443 125.877 57.8493C116.308 67.4447 106.722 77.0236 97.1195 86.5861Z" fill="#6366F1"/>
<path d="M39.3806 57.7745L32.9881 54.039C31.7828 53.3346 30.2347 53.7408 29.5304 54.9461L29.4417 55.0979C28.7373 56.3032 29.1435 57.8513 30.3488 58.5556L36.7413 62.2911C37.9466 62.9954 39.4947 62.5893 40.199 61.384L40.2877 61.2322C40.9921 60.0269 40.5859 58.4788 39.3806 57.7745Z" fill="#B0B0B0"/>
<path d="M147.02 54.0473L140.615 57.7752C139.41 58.4764 139.002 60.0217 139.703 61.2265L139.792 61.3785C140.493 62.5833 142.038 62.9916 143.243 62.2903L149.648 58.5625C150.853 57.8612 151.261 56.316 150.56 55.1112L150.472 54.9592C149.77 53.7544 148.225 53.3461 147.02 54.0473Z" fill="#B0B0B0"/>
<path d="M29.2968 71.0516L25.5906 70.0238C24.2753 69.659 22.9133 70.4296 22.5485 71.7449L22.4771 72.0023C22.1123 73.3177 22.8829 74.6797 24.1982 75.0444L27.9044 76.0722C29.2198 76.437 30.5817 75.6664 30.9465 74.3511L31.0179 74.0937C31.3827 72.7783 30.6121 71.4164 29.2968 71.0516Z" fill="#B0B0B0"/>
<path d="M153.198 75.8244C151.278 76.4666 149.944 76.0963 149.197 74.7135C148.617 73.6447 148.88 72.3334 149.78 71.567C150.635 70.8393 152.628 70.5088 153.897 70.1221C156.615 69.4014 159.002 72.242 156.907 74.376C156.109 75.1881 154.365 75.4623 153.198 75.8244Z" fill="#B0B0B0"/>
<path d="M93.4136 82.8819C94.9558 83.81 96.1909 85.0451 97.1191 86.5873C98.3355 90.1475 97.8292 93.069 95.6003 95.3518C89.8382 101.258 80.3319 95.5311 82.5257 87.8037C83.8757 83.0576 88.9909 81.1346 93.4136 82.8819Z" fill="#FFE177"/>
<path d="M30.0693 87.3809H22.6443C21.26 87.3809 20.1377 88.5031 20.1377 89.8875V90.1125C20.1377 91.4969 21.26 92.6191 22.6443 92.6191H30.0693C31.4537 92.6191 32.576 91.4969 32.576 90.1125V89.8875C32.576 88.5031 31.4537 87.3809 30.0693 87.3809Z" fill="#B0B0B0"/>
<path d="M150.888 87.3734C152.92 87.3617 155.007 87.3582 157.149 87.3628C160.633 87.3699 160.861 92.2742 157.479 92.6152C156.202 92.7417 153.489 92.7195 149.341 92.5484C145.948 91.4374 147.203 87.0605 150.888 87.3734Z" fill="#B0B0B0"/>
<path d="M133.769 120.952V121.012C127.821 128.076 121.016 134.187 113.354 139.346C113.371 137.184 113.885 132.332 112.9 130.504C111.47 127.843 107.001 128.563 104.414 128.599H99.1402H92.7242H87.275H80.9469H75.5855C71.0187 128.521 66.6242 127.533 66.6207 133.345C66.6184 136.856 66.6195 140.367 66.6242 143.878C66.6312 149.633 71.8555 148.381 75.6734 148.346H80.9469H87.275H92.6363L94.5699 148.374L94.1797 148.771C94.1 148.853 94.0074 148.913 93.902 148.951C77.3891 154.639 58.8898 155.771 41.8848 151.208C41.831 151.193 41.7741 151.195 41.7214 151.213C41.6688 151.231 41.6228 151.265 41.5895 151.31L41.484 151.45L40.5172 150.772C34.5781 145.796 29.4559 140.129 25.1504 133.77C35.9105 125.323 47.7125 119.376 60.5563 115.928C85.4727 109.239 109.877 110.914 133.769 120.952Z" fill="#B0B0B0"/>
<path d="M133.77 121.012C141.384 124.34 148.44 128.593 154.937 133.77C129.262 171.693 77.2523 179.582 41.4844 151.45L41.5898 151.309C41.6232 151.265 41.6691 151.231 41.7218 151.213C41.7745 151.195 41.8314 151.193 41.8852 151.207C58.8902 155.771 77.3895 154.639 93.9023 148.95C94.0078 148.913 94.1004 148.853 94.1801 148.771L94.5703 148.374L99.0527 148.346H104.326C106.886 148.381 111.456 149.116 112.89 146.532C113.769 144.95 113.379 141.381 113.354 139.346C121.016 134.187 127.821 128.076 133.77 121.012Z" fill="#B0B0B0"/>
<path d="M75.5852 128.598L75.673 148.346C71.8551 148.381 66.6309 149.632 66.6238 143.877C66.6191 140.366 66.618 136.855 66.6203 133.344C66.6238 127.533 71.0184 128.521 75.5852 128.598Z" fill="#D8ECFE"/>
<path d="M75.5859 128.598H80.9473V148.345H75.6738L75.5859 128.598Z" fill="#B3DAFE"/>
<path d="M80.9473 128.598H87.2754C87.4207 135.179 87.4207 141.761 87.2754 148.345H80.9473V128.598Z" fill="#D8ECFE"/>
<path d="M87.2754 128.598H92.7246L92.6367 148.345H87.2754C87.4207 141.761 87.4207 135.179 87.2754 128.598Z" fill="#B3DAFE"/>
<path d="M92.7246 128.598H99.1406L99.0527 148.345L94.5703 148.373L92.6367 148.345L92.7246 128.598Z" fill="#D8ECFE"/>
<path d="M99.1406 128.598H104.414L104.326 148.345H99.0527L99.1406 128.598Z" fill="#B3DAFE"/>
<path d="M104.414 128.599C107.002 128.564 111.47 127.843 112.901 130.505C113.885 132.333 113.372 137.184 113.354 139.346C113.379 141.382 113.769 144.95 112.89 146.532C111.456 149.116 106.886 148.382 104.326 148.346L104.414 128.599Z" fill="#D8ECFE"/>
</svg>
