<svg width="27" height="32" viewBox="0 0 27 32" fill="none" xmlns="http://www.w3.org/2000/svg">
<path d="M5.65229 25.2968C5.65229 25.2968 0.445312 12.7282 0.445312 6.44396C0.445312 0.159668 3.91663 0.159668 3.91663 0.159668H5.65229C5.65229 0.159668 7.38796 0.159668 7.38796 1.73074C7.38796 3.30181 5.65229 3.30181 5.65229 6.44396C5.65229 9.5861 10.8593 12.7282 10.8593 17.4415C10.8593 22.1547 5.65229 25.2968 5.65229 25.2968ZM23.0089 23.7258C24.9181 23.7258 26.4802 25.1397 26.4802 26.8679V28.439C26.4802 30.1671 24.9181 31.5811 23.0089 31.5811H12.5949C9.12362 31.5811 7.38796 28.7532 7.38796 28.7532C7.04082 28.439 6.86726 27.8105 7.38796 27.4963C7.38796 27.4963 12.5949 23.5686 14.3306 23.5686H23.0089" fill="#7E8182"/>
</svg>
