<svg width="33" height="32" viewBox="0 0 33 32" fill="none" xmlns="http://www.w3.org/2000/svg">
<path d="M16.4607 0.159668C12.294 0.159668 8.2979 1.8149 5.35156 4.76123C2.40523 7.70756 0.75 11.7036 0.75 15.8704C0.75 20.0371 2.40523 24.0332 5.35156 26.9796C8.2979 29.9259 12.294 31.5811 16.4607 31.5811C18.5239 31.5811 20.5668 31.1747 22.473 30.3852C24.3791 29.5957 26.111 28.4384 27.5699 26.9796C29.0288 25.5207 30.186 23.7887 30.9755 21.8826C31.7651 19.9765 32.1714 17.9336 32.1714 15.8704C32.1714 13.8072 31.7651 11.7643 30.9755 9.85816C30.186 7.95205 29.0288 6.22011 27.5699 4.76123C26.111 3.30236 24.3791 2.14511 22.473 1.35558C20.5668 0.566038 18.5239 0.159668 16.4607 0.159668ZM16.4607 5.64171C22.1027 5.64171 26.6894 10.2284 26.6894 15.8704C26.6894 21.5124 22.1027 26.0991 16.4607 26.0991C10.8187 26.0991 6.23204 21.5124 6.23204 15.8704C6.23204 10.2284 10.8187 5.64171 16.4607 5.64171ZM16.4607 6.84508C15.0958 6.84508 13.8028 7.14726 12.644 7.68758C13.416 9.88574 14.7371 12.6614 16.4607 12.6614C18.1871 12.6614 19.4642 9.87692 20.2548 7.67708C19.1018 7.14339 17.8168 6.84508 16.4607 6.84508ZM23.0627 9.71179C21.2099 11.1253 18.9751 13.241 19.5081 14.8814C20.0416 16.5236 23.0853 16.8776 25.4219 16.9496C25.4639 16.5957 25.486 16.2357 25.486 15.8704C25.486 13.4876 24.5665 11.3235 23.0627 9.71179ZM9.8437 9.72803C8.34884 11.3379 7.43541 13.4955 7.43541 15.8704C7.43541 16.2414 7.45814 16.607 7.50147 16.9661C9.8302 16.911 12.8753 16.512 13.4076 14.8736C13.9407 13.2329 11.6908 11.1596 9.8437 9.72803ZM14.5361 12.6457C14.4149 12.6492 14.2975 12.6891 14.1994 12.7603C14.0704 12.8541 13.9839 12.9954 13.9589 13.153C13.934 13.3106 13.9726 13.4716 14.0664 13.6007C14.1602 13.7298 14.3014 13.8164 14.459 13.8413C14.6166 13.8663 14.7777 13.8277 14.9068 13.7339C14.9707 13.6875 15.0249 13.6289 15.0662 13.5615C15.1075 13.4942 15.1351 13.4193 15.1474 13.3413C15.1598 13.2632 15.1567 13.1835 15.1382 13.1067C15.1198 13.0298 15.0864 12.9574 15.0399 12.8934C14.9824 12.8143 14.9065 12.7504 14.8187 12.7072C14.7309 12.6641 14.6339 12.643 14.5361 12.6457ZM18.3854 12.6457C18.3712 12.6453 18.357 12.6454 18.3428 12.646C18.2522 12.6498 18.1637 12.6741 18.0838 12.7169C18.004 12.7597 17.9348 12.8201 17.8815 12.8934C17.835 12.9573 17.8016 13.0298 17.7832 13.1066C17.7647 13.1835 17.7616 13.2632 17.774 13.3412C17.7863 13.4193 17.814 13.4942 17.8553 13.5615C17.8966 13.6289 17.9507 13.6875 18.0147 13.7339C18.1438 13.8277 18.3048 13.8663 18.4624 13.8414C18.62 13.8164 18.7613 13.7298 18.855 13.6008C18.9488 13.4717 18.9875 13.3106 18.9625 13.153C18.9376 12.9954 18.8511 12.8542 18.722 12.7604C18.6239 12.6891 18.5066 12.6492 18.3854 12.6457ZM16.4607 13.7311C15.8933 13.7311 15.3492 13.9565 14.948 14.3577C14.5468 14.7589 14.3214 15.303 14.3214 15.8704C14.3214 16.4378 14.5468 16.9819 14.948 17.3831C15.3492 17.7843 15.8933 18.0097 16.4607 18.0097C17.0281 18.0097 17.5723 17.7843 17.9735 17.3831C18.3747 16.9819 18.6001 16.4378 18.6001 15.8704C18.6001 15.303 18.3747 14.7589 17.9735 14.3577C17.5723 13.9565 17.0281 13.7311 16.4607 13.7311ZM13.3656 16.274C13.3053 16.2749 13.2456 16.2848 13.1883 16.3034C13.1131 16.3278 13.0435 16.3668 12.9834 16.4181C12.9233 16.4694 12.8739 16.5321 12.838 16.6025C12.8021 16.6729 12.7805 16.7497 12.7743 16.8284C12.7681 16.9072 12.7774 16.9864 12.8019 17.0616C12.8512 17.2134 12.9588 17.3393 13.1009 17.4117C13.2431 17.4842 13.4082 17.4972 13.56 17.4479C13.6351 17.4235 13.7048 17.3845 13.7648 17.3332C13.8249 17.2819 13.8743 17.2192 13.9102 17.1488C13.9461 17.0785 13.9678 17.0017 13.974 16.9229C13.9802 16.8441 13.9708 16.7649 13.9464 16.6898C13.9067 16.5675 13.8289 16.4612 13.7244 16.3864C13.6198 16.3115 13.4941 16.2722 13.3656 16.274ZM19.5734 16.2745C19.442 16.2688 19.3123 16.3063 19.2043 16.3813C19.0962 16.4563 19.0157 16.5646 18.975 16.6897C18.9506 16.7648 18.9413 16.8441 18.9475 16.9228C18.9537 17.0016 18.9754 17.0784 19.0112 17.1488C19.0471 17.2192 19.0965 17.2818 19.1566 17.3331C19.2167 17.3844 19.2863 17.4234 19.3615 17.4478C19.5132 17.4971 19.6783 17.4841 19.8205 17.4117C19.9627 17.3393 20.0703 17.2133 20.1196 17.0616C20.144 16.9864 20.1534 16.9072 20.1472 16.8284C20.141 16.7497 20.1193 16.6729 20.0834 16.6025C20.0475 16.5321 19.9981 16.4694 19.938 16.4181C19.8779 16.3668 19.8083 16.3278 19.7332 16.3034C19.6815 16.2866 19.6277 16.2769 19.5734 16.2745ZM13.4132 18.1273C11.9699 18.1342 10.0545 19.2525 8.5714 20.2618C9.84357 22.546 12.0786 24.2171 14.7315 24.7301C15.3994 22.4978 15.963 19.4742 14.568 18.4607C14.2435 18.2249 13.8502 18.1251 13.4132 18.1273ZM19.498 18.1286C19.0581 18.1286 18.6629 18.2299 18.3384 18.4657C16.9415 19.4806 17.5453 22.484 18.1988 24.7284C20.852 24.2127 23.0864 22.5383 24.3561 20.251C22.8849 19.2332 20.9508 18.1286 19.498 18.1285V18.1286ZM16.4607 18.5165C16.3011 18.5165 16.1481 18.5799 16.0353 18.6927C15.9224 18.8055 15.859 18.9586 15.859 19.1182C15.859 19.2777 15.9224 19.4308 16.0353 19.5436C16.1481 19.6565 16.3011 19.7199 16.4607 19.7199C16.6203 19.7199 16.7733 19.6565 16.8862 19.5436C16.999 19.4308 17.0624 19.2777 17.0624 19.1182C17.0624 18.9586 16.999 18.8055 16.8862 18.6927C16.7733 18.5799 16.6203 18.5165 16.4607 18.5165Z" fill="#7E8182"/>
</svg>
