<svg width="27" height="26" viewBox="0 0 27 26" fill="none" xmlns="http://www.w3.org/2000/svg">
<path d="M5.22185 7.87486C6.25142 7.87486 7.08604 7.04023 7.08604 6.01067C7.08604 4.98111 6.25142 4.14648 5.22185 4.14648C4.19229 4.14648 3.35767 4.98111 3.35767 6.01067C3.35767 7.04023 4.19229 7.87486 5.22185 7.87486Z" fill="#30353F"/>
<path d="M9.625 14.4375H9.4587L7.54961 9.1875H3.62507V14.4375H0V22.75C0.000781629 23.446 0.277594 24.1132 0.769708 24.6053C1.26182 25.0974 1.92905 25.3742 2.625 25.375H23.625C24.321 25.3742 24.9882 25.0974 25.4803 24.6053C25.9724 24.1132 26.2492 23.446 26.25 22.75V14.4375H9.625ZM24.5 22.75C24.4997 22.982 24.4074 23.2044 24.2434 23.3684C24.0794 23.5324 23.857 23.6247 23.625 23.625H2.625C2.39302 23.6247 2.17062 23.5324 2.00659 23.3684C1.84255 23.2044 1.75028 22.982 1.75 22.75V16.1875H24.5V22.75Z" fill="#30353F"/>
<path d="M15.3125 10.0625C15.3123 9.84416 15.3763 9.6306 15.4965 9.44832C15.6167 9.26604 15.7878 9.12309 15.9885 9.03722L16.6383 8.7588C17.1537 8.53785 17.5929 8.17053 17.9016 7.70237C18.2102 7.23421 18.3747 6.68578 18.3747 6.12503C18.3747 5.56427 18.2102 5.01584 17.9016 4.54768C17.5929 4.07952 17.1537 3.71221 16.6383 3.49125L15.9885 3.21278C15.7878 3.12691 15.6167 2.98396 15.4965 2.80168C15.3763 2.6194 15.3123 2.40583 15.3125 2.1875V0H13.5625V2.1875C13.5621 2.74838 13.7265 3.29702 14.0352 3.76526C14.344 4.2335 14.7835 4.60071 15.2992 4.82125L15.949 5.09972C16.1496 5.18573 16.3206 5.32873 16.4408 5.511C16.561 5.69327 16.625 5.90679 16.625 6.12511C16.625 6.34343 16.561 6.55695 16.4408 6.73922C16.3206 6.92149 16.1496 7.06449 15.949 7.1505L15.2992 7.42891C14.7835 7.64946 14.344 8.01664 14.0353 8.48485C13.7265 8.95305 13.5621 9.50165 13.5625 10.0625V12.6875H15.3125V10.0625ZM21.4375 10.0625C21.4373 9.84416 21.5013 9.6306 21.6215 9.44832C21.7417 9.26604 21.9128 9.12309 22.1135 9.03722L22.7633 8.7588C23.2787 8.53785 23.7179 8.17053 24.0266 7.70237C24.3352 7.23421 24.4997 6.68578 24.4997 6.12503C24.4997 5.56427 24.3352 5.01584 24.0266 4.54768C23.7179 4.07952 23.2787 3.71221 22.7633 3.49125L22.1135 3.21278C21.9128 3.12691 21.7417 2.98396 21.6215 2.80168C21.5013 2.6194 21.4373 2.40583 21.4375 2.1875V0H19.6875V2.1875C19.6871 2.74838 19.8515 3.29702 20.1602 3.76526C20.469 4.2335 20.9085 4.60071 21.4242 4.82125L22.074 5.09972C22.2746 5.18573 22.4456 5.32873 22.5658 5.511C22.686 5.69327 22.75 5.90679 22.75 6.12511C22.75 6.34343 22.686 6.55695 22.5658 6.73922C22.4456 6.92149 22.2746 7.06449 22.074 7.1505L21.4242 7.42891C20.9085 7.64946 20.469 8.01664 20.1603 8.48485C19.8515 8.95305 19.6871 9.50165 19.6875 10.0625V12.6875H21.4375V10.0625ZM4.375 17.9375H6.125V21.875H4.375V17.9375ZM9.625 17.9375H11.375V21.875H9.625V17.9375ZM14.875 17.9375H16.625V21.875H14.875V17.9375ZM20.125 17.9375H21.875V21.875H20.125V17.9375Z" fill="#30353F"/>
</svg>
