<svg width="28" height="26" viewBox="0 0 28 26" fill="none" xmlns="http://www.w3.org/2000/svg">
<path d="M27.4833 18.6267C27.1623 18.5179 26.8139 18.6901 26.7052 19.0112C26.435 19.8093 25.9341 20.1972 25.1738 20.1972C24.4356 20.1972 23.7568 19.6572 23.4847 18.8535C23.3981 18.5975 23.159 18.4367 22.9029 18.437C22.8999 18.4369 22.897 18.4368 22.894 18.4368C22.8903 18.4368 22.8868 18.4369 22.8832 18.437C22.6274 18.4371 22.3888 18.5979 22.3022 18.8535C22.03 19.6573 21.3513 20.1972 20.6131 20.1972C19.875 20.1972 19.1961 19.6572 18.924 18.8535C18.8801 18.7237 18.7966 18.6188 18.6919 18.5464L19.0163 18.4475C20.5087 17.9922 21.3524 16.4077 20.8972 14.9152C20.6767 14.1923 20.1879 13.5985 19.5207 13.2432C18.8535 12.888 18.088 12.8137 17.365 13.0343C17.0408 13.1332 16.8582 13.4761 16.9571 13.8003C17.056 14.1245 17.399 14.3072 17.7231 14.2081C18.1325 14.0833 18.566 14.1252 18.9438 14.3265C19.3216 14.5277 19.5984 14.8639 19.7233 15.2734C19.9811 16.1184 19.5033 17.0159 18.6582 17.2736L16.4585 17.9446L15.158 12.365L15.135 12.3129C14.8757 11.7231 14.1162 11.3163 13.3121 10.8855C12.9941 10.7151 12.5228 10.4734 12.3831 10.3381C12.1928 9.69034 11.8559 8.4205 11.7247 7.99094H16.3991C16.7766 7.99094 17.1176 7.85158 17.3853 7.60821C17.4783 7.52358 17.5567 7.4184 17.6205 7.31592H27.2842C27.5893 7.31592 27.8365 7.06868 27.8365 6.76363C27.8365 6.45858 27.5893 6.21134 27.2842 6.21134H17.7698C17.7043 5.97024 17.5747 5.7657 17.3851 5.59345C17.1175 5.35014 16.7765 5.22949 16.399 5.22949H8.45832C7.77016 5.22949 7.37589 5.50999 7.16639 5.75184C6.87067 6.09315 6.73941 6.49399 6.78684 6.91846L6.79175 6.96037L7.94358 11.3772C8.06766 12.0359 8.45856 12.546 9.07547 12.8543L9.11278 12.8727L9.15218 12.886C9.15917 12.8884 9.85788 13.1274 10.5865 13.4661C11.8814 14.0683 12.0364 14.4071 12.0367 14.4073C12.3831 15.4629 13.1606 18.8215 13.1684 18.8553C13.1698 18.8613 13.1717 18.8669 13.1733 18.8728C12.8968 19.6657 12.2236 20.1972 11.4915 20.1972C10.7533 20.1972 10.0745 19.6571 9.80241 18.8534C9.71576 18.5975 9.47662 18.4366 9.22054 18.4369C9.21753 18.4368 9.21459 18.4367 9.21158 18.4367C9.20796 18.4368 9.2044 18.4368 9.20078 18.437C8.94501 18.4371 8.70642 18.5978 8.61983 18.8534C8.34768 19.6572 7.66891 20.1972 6.93074 20.1972C6.17049 20.1972 5.66956 19.8092 5.39931 19.0111C5.29063 18.6901 4.94238 18.5178 4.62125 18.6266C4.30025 18.7353 4.12812 19.0836 4.2368 19.4047C4.67139 20.6883 5.6533 21.4245 6.93068 21.4245C7.81625 21.4245 8.64321 20.995 9.21109 20.2906C9.77897 20.995 10.6059 21.4245 11.4915 21.4245C12.3771 21.4245 13.204 20.995 13.7718 20.2906C14.3397 20.995 15.1667 21.4245 16.0522 21.4245C16.9378 21.4245 17.7648 20.995 18.3326 20.2906C18.9005 20.995 19.7274 21.4245 20.6129 21.4245C21.4985 21.4245 22.3255 20.995 22.8933 20.2906C23.4612 20.995 24.2882 21.4245 25.1737 21.4245C26.4511 21.4245 27.433 20.6883 27.8676 19.4047C27.9764 19.0837 27.8042 18.7354 27.4833 18.6267ZM11.1342 12.3672C10.4326 12.0389 9.76847 11.8009 9.59192 11.7393C9.33413 11.6015 9.19648 11.4143 9.14745 11.1366L9.14316 11.1124L8.00446 6.74473C8.00421 6.69509 8.01919 6.64188 8.09405 6.55548C8.15536 6.48479 8.2779 6.4568 8.45838 6.4568H16.399C16.4936 6.4568 16.5314 6.47607 16.5597 6.50178C16.5764 6.51694 16.5921 6.52725 16.5921 6.59549C16.5921 6.66373 16.5762 6.68692 16.5595 6.70214C16.5314 6.72767 16.4936 6.76363 16.399 6.76363H11.6563C11.0681 6.76363 10.7698 6.99854 10.623 7.20454C10.3592 7.57501 10.4493 7.97695 10.489 8.1084C10.5348 8.27691 10.9957 9.96888 11.2246 10.741C11.373 11.2418 11.9432 11.5459 12.7325 11.9687C13.1246 12.1788 13.8398 12.5612 13.9939 12.7789L15.2818 18.3039L14.365 18.5834C14.3647 18.582 14.3646 18.5804 14.3643 18.5791C14.3319 18.4389 13.5664 15.1324 13.2027 14.0246C13.088 13.6749 12.7487 13.1228 11.1342 12.3672ZM16.0523 20.1972C15.6238 20.1972 15.2159 20.0144 14.8953 19.7044L17.7491 18.8339C17.7467 18.8405 17.7437 18.8468 17.7414 18.8534C17.4692 19.6572 16.7905 20.1972 16.0523 20.1972Z" fill="#B6B8BD"/>
<path d="M23.2788 22.6216C22.9577 22.5129 22.6095 22.685 22.5008 23.0061C22.2305 23.8042 21.7296 24.1922 20.9693 24.1922C20.2312 24.1922 19.5523 23.6521 19.2802 22.8484C19.1935 22.5924 18.9543 22.4314 18.698 22.4318C18.6952 22.4318 18.6926 22.4317 18.6898 22.4316C18.6859 22.4317 18.6821 22.4318 18.6783 22.4319C18.4227 22.4321 18.1842 22.5928 18.0977 22.8484C17.8255 23.6522 17.1468 24.1922 16.4086 24.1922C15.6704 24.1922 14.9916 23.6521 14.7195 22.8484C14.6328 22.5924 14.3935 22.4313 14.1373 22.4318C14.1346 22.4318 14.1318 22.4317 14.1291 22.4316C14.1253 22.4317 14.1214 22.4318 14.1176 22.4319C13.862 22.4321 13.6235 22.5928 13.537 22.8484C13.2648 23.6522 12.5861 24.1922 11.8479 24.1922C11.1097 24.1922 10.4309 23.6521 10.1588 22.8484C10.0721 22.5924 9.83284 22.4314 9.57658 22.4318C9.57381 22.4318 9.57111 22.4317 9.56841 22.4316C9.56461 22.4317 9.56074 22.4318 9.55694 22.4319C9.30129 22.4321 9.06282 22.5928 8.9763 22.8484C8.70414 23.6522 8.02538 24.1922 7.28721 24.1922C6.54904 24.1922 5.87022 23.6521 5.59812 22.8484C5.51141 22.5924 5.27209 22.4314 5.01595 22.4318C5.01319 22.4318 5.01049 22.4317 5.00773 22.4316C5.00386 22.4317 5.00005 22.4318 4.99619 22.4319C4.7406 22.4322 4.50213 22.5928 4.41561 22.8484C4.14345 23.6522 3.46469 24.1922 2.72652 24.1922C1.96626 24.1922 1.46534 23.8042 1.19508 23.0061C1.0864 22.6851 0.738155 22.5127 0.417029 22.6216C0.0960253 22.7303 -0.0761051 23.0786 0.0325733 23.3997C0.467164 24.6833 1.44907 25.4195 2.72646 25.4195C3.61203 25.4195 4.43899 24.99 5.0068 24.2856C5.57462 24.99 6.40164 25.4195 7.28721 25.4195C8.17278 25.4195 8.99974 24.99 9.56755 24.2856C10.1354 24.99 10.9624 25.4195 11.8479 25.4195C12.7335 25.4195 13.5604 24.99 14.1283 24.2856C14.6962 24.99 15.5231 25.4195 16.4087 25.4195C17.2943 25.4195 18.1212 24.99 18.6891 24.2856C19.257 24.99 20.084 25.4195 20.9695 25.4195C22.2469 25.4195 23.2288 24.6833 23.6634 23.3997C23.772 23.0786 23.5998 22.7303 23.2788 22.6216Z" fill="#B6B8BD"/>
<path d="M8.59019 4.70944C9.23754 4.70944 9.79787 4.47754 10.2558 4.02006C10.7131 3.56276 10.9449 3.00249 10.9449 2.35472C10.9449 1.70694 10.7131 1.14668 10.2558 0.689442C9.79836 0.231962 9.23797 0 8.59019 0C7.9426 0 7.38227 0.231962 6.92485 0.689381C6.46756 1.14668 6.23572 1.70694 6.23572 2.35472C6.23572 3.00249 6.46756 3.56276 6.92504 4.02024C7.3827 4.47754 7.94297 4.70944 8.59019 4.70944ZM7.79268 1.55721C8.01777 1.33212 8.27115 1.22731 8.59019 1.22731C8.90935 1.22731 9.16285 1.33212 9.38794 1.55727C9.61291 1.78218 9.71766 2.03556 9.71766 2.35472C9.71766 2.67388 9.61291 2.92726 9.38813 3.15198C9.16273 3.37725 8.90917 3.48213 8.59025 3.48213C8.27146 3.48213 8.01796 3.37725 7.79275 3.15216C7.56778 2.92726 7.46303 2.67388 7.46303 2.35472C7.46303 2.03556 7.56772 1.78218 7.79268 1.55721Z" fill="#B6B8BD"/>
</svg>
