<svg width="23" height="23" viewBox="0 0 23 23" fill="none" xmlns="http://www.w3.org/2000/svg">
<g clip-path="url(#clip0_450_21100)">
<path d="M19.1234 11.1025V10.5855C19.1225 9.11738 18.6038 7.70967 17.681 6.67155C16.7582 5.63344 15.5069 5.0498 14.2019 5.04883H5.42148C4.11649 5.0498 2.86519 5.63344 1.94242 6.67155C1.01965 7.70967 0.500863 9.11738 0.5 10.5855L0.5 11.1025C0.500863 12.5706 1.01965 13.9783 1.94242 15.0164C2.86519 16.0546 4.11649 16.6382 5.42148 16.6392H14.2019C15.5069 16.6382 16.7582 16.0546 17.681 15.0164C18.6038 13.9783 19.1225 12.5706 19.1234 11.1025ZM5.79467 15.409C4.71848 15.409 3.68637 14.928 2.92538 14.0719C2.1644 13.2158 1.73689 12.0547 1.73689 10.844C1.73689 9.63328 2.1644 8.47216 2.92538 7.61605C3.68637 6.75995 4.71848 6.27899 5.79467 6.27899H13.8296C14.9057 6.27899 15.9379 6.75995 16.6988 7.61605C17.4598 8.47216 17.8873 9.63328 17.8873 10.844C17.8873 12.0547 17.4598 13.2158 16.6988 14.0719C15.9379 14.928 14.9057 15.409 13.8296 15.409C12.8685 15.269 11.993 14.7158 11.3867 13.8653L11.381 13.8571C11.2174 13.6625 11.0202 13.5076 10.8015 13.4018C10.5828 13.296 10.3472 13.2417 10.1091 13.242C9.59333 13.242 9.13052 13.4922 8.80948 13.891L8.80785 13.8928C8.42986 14.3705 7.96618 14.7527 7.44738 15.0142C6.92858 15.2757 6.36642 15.4106 5.79793 15.4099H5.79304L5.79467 15.409Z" fill="#B6B8BD"/>
<path d="M21.7773 0.679568H20.243C20.113 0.680051 19.9885 0.738346 19.8966 0.84173C19.8047 0.945114 19.7529 1.08519 19.7525 1.2314V4.16473C19.7525 4.45165 19.9488 4.68723 20.1982 4.71015H20.1998V15.294C20.1987 16.3726 19.8174 17.4066 19.1395 18.1693C18.4615 18.9319 17.5424 19.3609 16.5837 19.3622H11.7991C11.638 18.9208 11.3641 18.5432 11.012 18.2771C10.6599 18.0111 10.2456 17.8687 9.8215 17.868C9.25488 17.868 8.71147 18.1212 8.31081 18.572C7.91015 19.0227 7.68506 19.634 7.68506 20.2715C7.68506 20.9089 7.91015 21.5203 8.31081 21.971C8.71147 22.4218 9.25488 22.675 9.8215 22.675H9.82721C10.2485 22.6749 10.6603 22.5342 11.0105 22.2707C11.3606 22.0072 11.6334 21.6326 11.7942 21.1946L11.7991 21.179H16.5837C17.9724 21.1775 19.304 20.5563 20.2861 19.4516C21.2682 18.3469 21.8206 16.849 21.8221 15.2867V4.71107C21.9428 4.69851 22.0549 4.63572 22.1366 4.53501C22.2183 4.4343 22.2636 4.30291 22.2637 4.16657V1.2259C22.2637 1.08084 22.2126 0.941684 22.1216 0.838935C22.0306 0.736187 21.907 0.67822 21.7781 0.677734L21.7773 0.679568Z" fill="#B6B8BD"/>
</g>
<defs>
<clipPath id="clip0_450_21100">
<rect width="22" height="22" fill="white" transform="translate(0.5 0.679688)"/>
</clipPath>
</defs>
</svg>
