<svg width="26" height="20" viewBox="0 0 26 20" fill="none" xmlns="http://www.w3.org/2000/svg">
<path d="M11.2986 16.1596C11.2986 15.2201 12.0606 14.4581 13.0001 14.4581C13.9395 14.4581 14.7016 15.2201 14.7016 16.1596C14.7016 17.0991 13.9395 17.8599 13.0001 17.8599C12.0606 17.8599 11.2986 17.0991 11.2986 16.1596ZM16.4018 16.1596C16.4018 14.2806 14.879 12.7578 13.0001 12.7578C11.1211 12.7578 9.59827 14.2806 9.59827 16.1596C9.59827 18.0386 11.1211 19.5613 13.0001 19.5613C14.879 19.5613 16.4018 18.0386 16.4018 16.1596Z" fill="#B6B8BD"/>
<path d="M19.8403 12.7208C18.5813 10.2194 15.9912 8.50488 13.0001 8.50488C10.0089 8.50488 7.41886 10.2205 6.15985 12.7208L7.44721 14.008C8.30981 11.7836 10.4703 10.2052 13.0001 10.2052C15.5298 10.2052 17.6903 11.7836 18.5529 14.008L19.8403 12.7208Z" fill="#B6B8BD"/>
<path d="M22.9473 9.61404C20.8176 6.3839 17.1578 4.25293 13 4.25293C8.84223 4.25293 5.18253 6.38509 3.05273 9.61404L4.28566 10.8458C6.07821 7.91255 9.31079 5.95433 13 5.95433C16.6905 5.95433 19.923 7.91255 21.7156 10.847L22.9473 9.61404Z" fill="#B6B8BD"/>
<path d="M26 6.56095C23.0574 2.58173 18.3293 0 13 0C7.67083 0 2.94269 2.58173 0 6.56095L1.21872 7.77726C3.83955 4.09983 8.13939 1.7014 13 1.7014C17.8607 1.7014 22.1617 4.09983 24.7825 7.77844L26 6.56095Z" fill="#B6B8BD"/>
</svg>
