<svg width="22" height="22" viewBox="0 0 22 22" fill="none" xmlns="http://www.w3.org/2000/svg">
<path d="M11.1467 9.96384C11.0551 9.95467 10.9451 9.95467 10.8442 9.96384C8.66255 9.89051 6.93005 8.10301 6.93005 5.90301C6.93005 3.65717 8.74505 1.83301 11.0001 1.83301C13.2459 1.83301 15.0701 3.65717 15.0701 5.90301C15.0609 8.10301 13.3284 9.89051 11.1467 9.96384Z" stroke="#9E9E9E" stroke-width="1.5" stroke-linecap="round" stroke-linejoin="round"/>
<path d="M6.56329 13.347C4.34495 14.832 4.34495 17.252 6.56329 18.7278C9.08412 20.4145 13.2183 20.4145 15.7391 18.7278C17.9575 17.2428 17.9575 14.8228 15.7391 13.347C13.2275 11.6695 9.09329 11.6695 6.56329 13.347Z" stroke="#9E9E9E" stroke-width="1.5" stroke-linecap="round" stroke-linejoin="round"/>
</svg>
