<svg width="508" height="424" viewBox="0 0 508 424" fill="none" xmlns="http://www.w3.org/2000/svg">
<path d="M306.2 317.6H326.6" stroke="black" stroke-width="20" stroke-linecap="round" stroke-linejoin="round"/>
<path d="M476.8 317.6H497.2" stroke="black" stroke-width="20" stroke-linecap="round" stroke-linejoin="round"/>
<path d="M401.6 392.6V413" stroke="black" stroke-width="20" stroke-linecap="round" stroke-linejoin="round"/>
<path d="M401.6 222.2V242.6" stroke="black" stroke-width="20" stroke-linecap="round" stroke-linejoin="round"/>
<path d="M401.6 284.5V323.4" stroke="black" stroke-width="20" stroke-linecap="round" stroke-linejoin="round"/>
<path d="M390 338.3L401.6 323.4" stroke="black" stroke-width="20" stroke-linecap="round" stroke-linejoin="round"/>
<path d="M260.3 297.6C254.5 233.3 301.8 176.6 366.1 170.7" stroke="black" stroke-width="20" stroke-linecap="round" stroke-linejoin="round"/>
<path d="M357.5 195.2V170.8V146.3L378.7 158.6L399.8 170.8L378.7 183L357.5 195.2Z" fill="black" stroke="black" stroke-width="20" stroke-linecap="round" stroke-linejoin="round"/>
<path d="M324.6 375.1H72.1C37.8 375.1 10 347.3 10 313V121.1C10 86.8 37.8 59 72.1 59H140.4V50.2C140.4 28 158.4 10 180.6 10H265.1C287.3 10 305.3 28 305.3 50.2V59H373.5C407.8 59 435.6 86.8 435.6 121.1V228.4" stroke="black" stroke-width="20" stroke-miterlimit="10"/>
<path d="M140.4 59H305.3" stroke="black" stroke-width="20" stroke-miterlimit="10"/>
<path d="M400.9 413.2C453.698 413.2 496.5 370.398 496.5 317.6C496.5 264.802 453.698 222 400.9 222C348.102 222 305.3 264.802 305.3 317.6C305.3 370.398 348.102 413.2 400.9 413.2Z" stroke="black" stroke-width="20" stroke-miterlimit="9.9999"/>
</svg>
