<?xml version="1.0" encoding="UTF-8"?>
<svg id="Capa_1" data-name="Capa 1" xmlns="http://www.w3.org/2000/svg" viewBox="0 0 512 512">
  <line x1="308.6" y1="362" x2="329" y2="362" style="fill: none; stroke: #000; stroke-linecap: round; stroke-linejoin: round; stroke-width: 20px;"/>
  <line x1="479.2" y1="362" x2="499.6" y2="362" style="fill: none; stroke: #000; stroke-linecap: round; stroke-linejoin: round; stroke-width: 20px;"/>
  <line x1="404" y1="437" x2="404" y2="457.4" style="fill: none; stroke: #000; stroke-linecap: round; stroke-linejoin: round; stroke-width: 20px;"/>
  <line x1="404" y1="266.6" x2="404" y2="287" style="fill: none; stroke: #000; stroke-linecap: round; stroke-linejoin: round; stroke-width: 20px;"/>
  <line x1="404" y1="328.9" x2="404" y2="367.8" style="fill: none; stroke: #000; stroke-linecap: round; stroke-linejoin: round; stroke-width: 20px;"/>
  <line x1="392.4" y1="382.7" x2="404" y2="367.8" style="fill: none; stroke: #000; stroke-linecap: round; stroke-linejoin: round; stroke-width: 20px;"/>
  <path d="M262.7,342c-5.8-64.3,41.5-121,105.8-126.9" style="fill: none; stroke: #000; stroke-linecap: round; stroke-linejoin: round; stroke-width: 20px;"/>
  <polygon points="359.9 239.6 359.9 215.2 359.9 190.7 381.1 203 402.2 215.2 381.1 227.4 359.9 239.6" style="stroke: #000; stroke-linecap: round; stroke-linejoin: round; stroke-width: 20px;"/>
  <path d="M327,419.5H74.5c-34.3,0-62.1-27.8-62.1-62.1V165.5c0-34.3,27.8-62.1,62.1-62.1h68.3v-8.8c0-22.2,18-40.2,40.2-40.2h84.5c22.2,0,40.2,18,40.2,40.2v8.8h68.2c34.3,0,62.1,27.8,62.1,62.1v107.3" style="fill: none; stroke: #000; stroke-miterlimit: 10; stroke-width: 20px;"/>
  <path d="M142.8,103.4h0Z" style="fill: none; stroke: #000; stroke-miterlimit: 10; stroke-width: 20px;"/>
  <circle cx="403.3" cy="362" r="95.6" style="fill: none; stroke: #000; stroke-miterlimit: 10; stroke-width: 20px;"/>
</svg>