<svg width="25" height="32" viewBox="0 0 25 32" fill="none" xmlns="http://www.w3.org/2000/svg">
<path d="M2.17676 1.46875H6.62695C7.02656 1.46875 7.35352 1.7957 7.35352 2.19531V10.242C7.35352 10.6416 7.02656 10.9686 6.62695 10.9686H2.17676C1.77715 10.9686 1.4502 10.6416 1.4502 10.242V2.19531C1.4502 1.7957 1.77715 1.46875 2.17676 1.46875Z" stroke="black" stroke-width="1.21094" stroke-miterlimit="10"/>
<path d="M18.373 1.46875H22.8232C23.2229 1.46875 23.5498 1.7957 23.5498 2.19531V10.242C23.5498 10.6416 23.2229 10.9686 22.8232 10.9686H18.373C17.9734 10.9686 17.6465 10.6416 17.6465 10.242V2.19531C17.6465 1.7957 17.9734 1.46875 18.373 1.46875Z" stroke="black" stroke-width="1.21094" stroke-miterlimit="10"/>
<path d="M7.35352 6.21582H17.6465" stroke="black" stroke-width="1.21094" stroke-miterlimit="10"/>
<path d="M18.373 21.0312H22.8232C23.2229 21.0312 23.5498 21.3582 23.5498 21.7578V29.8045C23.5498 30.2041 23.2229 30.5311 22.8232 30.5311H18.373C17.9734 30.5311 17.6465 30.2041 17.6465 29.8045V21.7578C17.6465 21.3582 17.9734 21.0312 18.373 21.0312Z" stroke="black" stroke-width="1.21094" stroke-miterlimit="10"/>
<path d="M2.17676 21.0312H6.62695C7.02656 21.0312 7.35352 21.3582 7.35352 21.7578V29.8045C7.35352 30.2041 7.02656 30.5311 6.62695 30.5311H2.17676C1.77715 30.5311 1.4502 30.2041 1.4502 29.8045V21.7578C1.4502 21.3582 1.77715 21.0312 2.17676 21.0312Z" stroke="black" stroke-width="1.21094" stroke-miterlimit="10"/>
<path d="M7.32324 25.7842H17.6162" stroke="black" stroke-width="1.21094" stroke-miterlimit="10"/>
<path d="M12.6575 26.1654V18.1006" stroke="black" stroke-width="1.21094" stroke-miterlimit="10"/>
<path d="M12.6575 14.099V6.03418" stroke="black" stroke-width="1.21094" stroke-miterlimit="10"/>
<path d="M14.6314 16.4183C14.8088 15.3257 14.0668 14.2963 12.9742 14.119C11.8817 13.9416 10.8523 14.6836 10.6749 15.7761C10.4976 16.8687 11.2396 17.8981 12.3321 18.0755C13.4247 18.2528 14.4541 17.5108 14.6314 16.4183Z" stroke="black" stroke-width="1.21094" stroke-miterlimit="10"/>
</svg>
