<?xml version="1.0" encoding="UTF-8"?>
<svg id="Capa_1" data-name="Capa 1" xmlns="http://www.w3.org/2000/svg" viewBox="0 0 512 512">
  <path d="M207.62,153.82c-2.05-1.51-4.4-2.85-6.33-2.85-4.89,0-8.86,3.97-8.86,8.86v189.14c.01,4.9,3.99,8.85,8.89,8.84,1.64,0,3.25-.46,4.64-1.33,1.66-1.05,161.88-92.42,163.44-93.77,1.87-1.62,3.05-4.02,3.05-6.69,0-2.3-.87-4.38-2.3-5.96-1.62-1.78-159.85-94.28-162.53-96.25Z" style="fill: none; stroke: #000; stroke-miterlimit: 10; stroke-width: 20px;"/>
  <path d="M463.56,373.81c-41.15,70.58-117.66,118.01-205.25,118.01-131.12,0-237.42-106.3-237.42-237.42S127.18,16.97,258.31,16.97c87.91,0,164.66,47.78,205.7,118.78" style="fill: none; fill-rule: evenodd; stroke: #000; stroke-linecap: round; stroke-linejoin: round; stroke-width: 20px;"/>
</svg>