<?xml version="1.0" encoding="UTF-8"?>
<svg id="Layer_1" data-name="Layer 1" xmlns="http://www.w3.org/2000/svg" viewBox="0 0 800 800">
  <g>
    <rect x="309.53" y="461.66" width="103" height="144" style="fill: none; stroke: #000; stroke-linecap: round; stroke-linejoin: round; stroke-width: 20px;"/>
    <rect x="339.03" y="605.66" width="44" height="53.83" style="fill: none; stroke: #000; stroke-linecap: round; stroke-linejoin: round; stroke-width: 20px;"/>
    <rect x="322.53" y="433.77" width="77" height="27.89" style="fill: none; stroke: #000; stroke-linecap: round; stroke-linejoin: round; stroke-width: 20px;"/>
    <rect x="336.53" y="290.13" width="49" height="143.64" style="fill: none; stroke: #000; stroke-linecap: round; stroke-linejoin: round; stroke-width: 20px;"/>
    <path d="M385.53,222.66h-49v.47c6.61,9.46,9.68,21.21,10.19,32.63,.48,10.8-3.76,22.78-10.19,32.2v1.81h49v-.05c-7.1-9.61-10.34-21.79-10.87-33.62-.5-11.18,4.06-23.62,10.87-33.18v-.27Z" style="fill: none; stroke: #000; stroke-linecap: round; stroke-linejoin: round; stroke-width: 20px;"/>
    <polygon points="369.53 189.14 352.53 189.14 336.53 222.7 385.53 222.7 369.53 189.14" style="fill: none; stroke: #000; stroke-linecap: round; stroke-linejoin: round; stroke-width: 20px;"/>
    <line x1="336.53" y1="327.68" x2="385.53" y2="327.68" style="fill: none; stroke: #000; stroke-linecap: round; stroke-linejoin: round; stroke-width: 20px;"/>
    <line x1="336.53" y1="366.74" x2="383.03" y2="366.74" style="fill: none; stroke: #000; stroke-linecap: round; stroke-linejoin: round; stroke-width: 20px;"/>
    <path d="M359.72,661.02c0,60.46,136.23,218.91,272.45,0" style="fill: none; stroke: #000; stroke-linecap: round; stroke-linejoin: round; stroke-width: 20px;"/>
  </g>
  <g>
    <circle cx="359.78" cy="92.93" r="57.96" style="fill: none; stroke: #000; stroke-linecap: round; stroke-linejoin: round; stroke-width: 20px;"/>
    <circle cx="359.09" cy="92.93" r="16.26" style="fill: none; stroke: #000; stroke-linecap: round; stroke-linejoin: round; stroke-width: 20px;"/>
  </g>
</svg>