<?xml version="1.0" encoding="UTF-8"?>
<svg id="Capa_1" data-name="Capa 1" xmlns="http://www.w3.org/2000/svg" viewBox="0 0 512 512">
  <path d="M462.85,20.47H49.16c-14.28,0-25.86,11.72-25.86,26.17v52.34c0,14.45,11.58,26.17,25.86,26.17H462.85c14.28,0,25.85-11.72,25.85-26.17V46.64c0-14.45-11.57-26.17-25.85-26.17Z" style="fill: none; stroke: #000; stroke-linecap: round; stroke-linejoin: round; stroke-width: 20px;"/>
  <path d="M256,413.01c57.12,0,103.42-46.87,103.42-104.68s-46.3-104.69-103.42-104.69-103.42,46.87-103.42,104.69,46.3,104.68,103.42,104.68Z" style="fill: none; stroke: #000; stroke-linecap: round; stroke-linejoin: round; stroke-width: 20px;"/>
  <path d="M436.99,125.13v183.2c0,48.59-19.07,95.18-53.01,129.54s-79.98,53.66-127.98,53.66-94.04-19.3-127.98-53.66c-33.94-34.36-53.01-80.95-53.01-129.54V125.13m180.99,183.2h.26" style="fill: none; stroke: #000; stroke-linecap: round; stroke-linejoin: round; stroke-width: 20px;"/>
</svg>