<?xml version="1.0" encoding="UTF-8"?>
<svg id="Capa_1" data-name="Capa 1" xmlns="http://www.w3.org/2000/svg" viewBox="0 0 512 512">
  <path d="M102.88,51.5c17.31-17.31,25.97-25.97,36.98-30.53,11.01-4.56,23.25-4.56,47.73-4.56h138.07c24.73,0,37.09,0,48.19,4.64s19.78,13.45,37.13,31.07l50.13,50.87c17.01,17.26,25.52,25.89,29.99,36.81,4.48,10.92,4.48,23.04,4.48,47.27v139.09c0,24.48,0,36.73-4.56,47.73-4.56,11.01-13.22,19.66-30.53,36.98l-49.62,49.62c-17.31,17.31-25.97,25.97-36.98,30.53s-23.25,4.56-47.73,4.56H187.08c-24.24,0-36.35,0-47.27-4.48-10.92-4.47-19.55-12.98-36.81-29.99l-50.87-50.13c-17.61-17.36-26.42-26.04-31.07-37.13-4.64-11.09-4.64-23.46-4.64-48.19V187.59c0-24.48,0-36.72,4.56-47.73s13.22-19.66,30.53-36.98l51.39-51.39h-.02Z" style="fill: none; stroke: #000; stroke-width: 20px;"/>
  <path d="M136.21,226.05l12.65,6.32c67.45,33.73,146.84,33.73,214.29,0l12.65-6.32" style="fill: none; stroke: #000; stroke-linecap: round; stroke-width: 20px;"/>
  <path d="M256,270.97v44.92" style="fill: none; stroke: #000; stroke-linecap: round; stroke-width: 20px;"/>
  <path d="M166.15,256l-14.97,29.95" style="fill: none; stroke: #000; stroke-linecap: round; stroke-width: 20px;"/>
  <path d="M345.85,256l14.97,29.95" style="fill: none; stroke: #000; stroke-linecap: round; stroke-width: 20px;"/>
</svg>