<?xml version="1.0" encoding="UTF-8"?>
<svg id="Capa_1" data-name="Capa 1" xmlns="http://www.w3.org/2000/svg" viewBox="0 0 512 512">
  <path d="M168.61,340.92l157.92-144.79c6.68-5.96,6.44-15.5-.48-21.23l-49.14-41.03c-12.88-10.73-23.14-5.73-23.14,10.97v222.56c0,16.7,10.5,21.47,23.14,10.97l49.14-41.03c6.92-5.72,7.16-15.27,.48-21.23L168.61,171.32" style="fill: none; stroke: #000; stroke-linecap: round; stroke-linejoin: round; stroke-width: 20px;"/>
  <path d="M327.56,494.54H184.44c-71.56,0-119.27-47.71-119.27-119.27V136.73c0-71.56,47.71-119.27,119.27-119.27h143.12c71.56,0,119.27,47.71,119.27,119.27v238.54c0,71.56-47.71,119.27-119.27,119.27h0Z" style="fill: none; stroke: #000; stroke-linecap: round; stroke-linejoin: round; stroke-width: 20px;"/>
</svg>