<svg width="21" height="32" viewBox="0 0 21 32" fill="none" xmlns="http://www.w3.org/2000/svg">
<path d="M8.55032 1.34766H12.4495C13.9087 1.34766 15.0954 2.53438 15.0954 3.99355V6.27617C15.0954 7.73535 13.9087 8.92207 12.4495 8.92207H8.55032C7.09114 8.92207 5.90442 7.73535 5.90442 6.27617V3.99355C5.90442 2.53438 7.09114 1.34766 8.55032 1.34766Z" stroke="black" stroke-width="1.21094" stroke-linecap="round" stroke-linejoin="round"/>
<path d="M2.89539 24.7978V9.12217C2.89539 8.02627 3.78542 7.13623 4.88132 7.13623H6.01355" stroke="black" stroke-width="1.21094" stroke-linecap="round" stroke-linejoin="round"/>
<path d="M14.9926 7.14209H16.1248C17.2207 7.14209 18.1107 8.03213 18.1107 9.12803V24.8036" stroke="black" stroke-width="1.21094" stroke-linecap="round" stroke-linejoin="round"/>
<path d="M1.56934 24.7974H19.4367V27.4675C19.4367 28.0063 19.0008 28.4423 18.4619 28.4423H2.54414C2.00527 28.4423 1.56934 28.0063 1.56934 27.4675V24.7974Z" stroke="black" stroke-width="1.21094" stroke-linecap="round" stroke-linejoin="round"/>
<path d="M7.69055 30.6523H13.3093" stroke="black" stroke-width="1.21094" stroke-linecap="round" stroke-linejoin="round"/>
<path d="M16.5487 7.69873C16.5487 15.7757 10.4395 22.3087 2.89539 22.3087" stroke="black" stroke-width="1.21094" stroke-linecap="round" stroke-linejoin="round"/>
</svg>
