<?xml version="1.0" encoding="UTF-8"?>
<svg id="Capa_1" data-name="Capa 1" xmlns="http://www.w3.org/2000/svg" viewBox="0 0 512 512">
  <path d="M77.41,358.7c-5.48,65.96,44.28,119.82,110.46,119.82h109.32c74.4,0,125.53-60.02,113.2-133.51-13.01-77.14-87.41-140.36-165.69-140.36-84.9,0-160.22,69.38-167.29,154.05h0Z" style="fill: none; stroke: #000; stroke-linecap: round; stroke-linejoin: round; stroke-width: 20px;"/>
  <path d="M215.72,147.59c31.51,0,57.06-25.55,57.06-57.06s-25.55-57.06-57.06-57.06-57.06,25.55-57.06,57.06,25.55,57.06,57.06,57.06Z" style="fill: none; stroke: #000; stroke-linecap: round; stroke-linejoin: round; stroke-width: 20px;"/>
  <path d="M371.6,174.98c25.21,0,45.65-20.44,45.65-45.65s-20.44-45.65-45.65-45.65-45.65,20.44-45.65,45.65,20.44,45.65,45.65,45.65h0Z" style="fill: none; stroke: #000; stroke-linecap: round; stroke-linejoin: round; stroke-width: 20px;"/>
  <path d="M456.04,266.27c18.91,0,34.23-15.33,34.23-34.23s-15.33-34.24-34.23-34.24-34.23,15.33-34.23,34.24,15.33,34.23,34.23,34.23Z" style="fill: none; stroke: #000; stroke-linecap: round; stroke-linejoin: round; stroke-width: 20px;"/>
  <path d="M67.37,220.62c25.21,0,45.65-20.44,45.65-45.65s-20.44-45.65-45.65-45.65-45.65,20.44-45.65,45.65,20.44,45.65,45.65,45.65Z" style="fill: none; stroke: #000; stroke-linecap: round; stroke-linejoin: round; stroke-width: 20px;"/>
</svg>