<?xml version="1.0" encoding="utf-8"?>
<!-- Generator: Adobe Illustrator 27.0.0, SVG Export Plug-In . SVG Version: 6.00 Build 0)  -->
<svg version="1.1" id="Capa_1" xmlns="http://www.w3.org/2000/svg" xmlns:xlink="http://www.w3.org/1999/xlink" x="0px" y="0px"
	 viewBox="0 0 512 512" style="enable-background:new 0 0 512 512;" xml:space="preserve">
<style type="text/css">
	.st0{fill:none;stroke:#000000;stroke-width:20;stroke-linecap:round;stroke-linejoin:round;}
</style>
<g>
	<path class="st0" d="M92,413.8h328c12.9,0,23.3,10.5,23.3,23.3v0.2c0,34.3-27.9,62.2-62.2,62.2H130.9c-34.3,0-62.2-27.9-62.2-62.2
		v-0.2C68.7,424.3,79.1,413.8,92,413.8z"/>
	<path class="st0" d="M302.8,89h-93.7c-23.4,0-42.6-16.5-42.6-36.7l0,0c0-20.2,19.2-36.7,42.6-36.7h93.7c23.4,0,42.6,16.5,42.6,36.7
		l0,0C345.4,72.5,326.3,89,302.8,89L302.8,89z"/>
	<path class="st0" d="M386.7,134.3c1.7,5.6,2.6,11.6,2.6,17.8v213.1"/>
	<path class="st0" d="M122.6,364.7V152.1c0-34.3,27.8-62.2,62.2-62.2h142.4c10.2,0,19.9,2.5,28.4,6.9"/>
	<path class="st0" d="M164.1,392.3l222.6-258l9.6-11.1c7.4-8.6,6.4-21.7-2.1-29l-5.2-4.5c-8.6-7.4-21.6-6.4-29,2.1l-4.4,5.1
		L124.4,364.8"/>
	<path class="st0" d="M78.8,418c-0.5-2.7-0.8-5.6-0.8-8.5c0-24.7,20-44.7,44.7-44.8h0.1c24.7,0,44.8,20,44.8,44.8
		c0,1.5-0.1,2.9-0.2,4.3"/>
	<path class="st0" d="M338.2,413.8c-0.1-1.4-0.2-2.9-0.2-4.3c0-24.7,20-44.8,44.8-44.8c2.2,0,4.5,0.2,6.6,0.5
		c21.6,3.2,38.1,21.8,38.1,44.3c0,1.9-0.1,3.7-0.3,5.5"/>
</g>
</svg>
