<svg width="31" height="25" viewBox="0 0 31 25" fill="none" xmlns="http://www.w3.org/2000/svg">
<path d="M18.4547 24.0404C24.7278 24.0404 29.8133 18.955 29.8133 12.6818C29.8133 6.40866 24.7278 1.32324 18.4547 1.32324C12.1815 1.32324 7.09607 6.40866 7.09607 12.6818C7.09607 18.955 12.1815 24.0404 18.4547 24.0404Z" stroke="black" stroke-width="1.21094" stroke-miterlimit="10"/>
<path d="M19.4234 12.7118L22.2388 11.0892L24.249 12.2456C24.4851 12.3728 24.7818 12.282 24.9089 12.0458C25.03 11.8218 24.9574 11.5372 24.7333 11.404L23.2076 10.5261L23.9765 10.078C24.2126 9.9509 24.3035 9.66027 24.1763 9.41809C24.0492 9.18195 23.7525 9.09113 23.5164 9.21828C23.5042 9.22434 23.4982 9.23039 23.4861 9.23645L22.699 9.68449V7.91047C22.699 7.64406 22.481 7.42609 22.2146 7.42609C21.9482 7.42609 21.7302 7.64406 21.7302 7.91047V10.2476L18.9269 11.8702V8.62492L20.9431 7.46242C21.1671 7.31711 21.2337 7.01437 21.0824 6.79035C20.9492 6.58449 20.6767 6.51184 20.4587 6.62082L18.9269 7.5048V6.60871C18.939 6.3423 18.7331 6.11223 18.4667 6.10012C18.2003 6.08801 17.9703 6.29387 17.9581 6.56027C17.9581 6.57844 17.9581 6.59055 17.9581 6.60871V7.51086L16.4263 6.62687C16.1962 6.49367 15.8935 6.57238 15.7603 6.80246C15.6271 7.03254 15.7058 7.33527 15.9359 7.46848L17.9521 8.63098V11.8763L15.1427 10.2536L15.1488 7.91652C15.1488 7.65012 14.9308 7.43215 14.6644 7.43215C14.398 7.43215 14.18 7.65012 14.18 7.91652V9.69055L13.399 9.2425C13.1689 9.1093 12.8662 9.18801 12.733 9.41809C12.5998 9.64816 12.6785 9.9509 12.9085 10.0841L13.6835 10.5321L12.1578 11.4101C11.9277 11.5433 11.849 11.84 11.9822 12.0761C12.1154 12.3062 12.4121 12.3849 12.6482 12.2517L14.6583 11.0952L17.4738 12.7179L14.6583 14.3405L12.6542 13.172C12.4242 13.0388 12.1214 13.1175 11.9882 13.3476C11.855 13.5777 11.9337 13.8804 12.1638 14.0136L13.6896 14.8915L12.9146 15.3396C12.6785 15.4607 12.5816 15.7573 12.7087 15.9935C12.8298 16.2296 13.1265 16.3265 13.3626 16.1993C13.3748 16.1933 13.3869 16.1872 13.399 16.1751L14.18 15.721V17.495C14.18 17.7614 14.398 17.9794 14.6644 17.9794C14.9308 17.9794 15.1488 17.7614 15.1488 17.495L15.1427 15.1579L17.9521 13.5413V16.7866L15.9359 17.9491C15.6998 18.0702 15.6029 18.3669 15.73 18.603C15.8511 18.8392 16.1478 18.9361 16.3839 18.8089C16.396 18.8029 16.4082 18.7968 16.4203 18.7847L17.9521 17.9007V18.7968C17.9703 19.0632 18.2064 19.263 18.4728 19.2448C18.715 19.2267 18.9027 19.0329 18.9208 18.7968V17.8946L20.4527 18.7786C20.6888 18.8997 20.9855 18.8089 21.1066 18.5728C21.2216 18.3487 21.149 18.0763 20.9371 17.937L18.9208 16.7745V13.5292L21.7242 15.1519V17.489C21.7242 17.7554 21.9421 17.9734 22.2085 17.9734C22.4749 17.9734 22.6929 17.7554 22.6929 17.489V15.7089L23.48 16.163C23.7101 16.3023 24.0068 16.2357 24.146 16.0056C24.2853 15.7755 24.2187 15.4788 23.9886 15.3396C23.9826 15.3335 23.9705 15.3275 23.9583 15.3214L23.1833 14.8734L24.7091 13.9954C24.9453 13.8683 25.0361 13.5716 24.9089 13.3355C24.7818 13.0993 24.4851 13.0085 24.249 13.1357C24.2369 13.1417 24.2308 13.1478 24.2187 13.1538L22.2085 14.3103L19.4234 12.7118Z" fill="black"/>
<path d="M0.914307 12.5L5.6854 12.4697" stroke="black" stroke-width="1.21094" stroke-linecap="round" stroke-linejoin="round"/>
<path d="M0.94458 17.1619L5.71567 17.1377" stroke="black" stroke-width="1.21094" stroke-linecap="round" stroke-linejoin="round"/>
<path d="M4.24438 21.4307L9.01548 21.4004" stroke="black" stroke-width="1.21094" stroke-linecap="round" stroke-linejoin="round"/>
<path d="M18.4547 21.9516C23.5742 21.9516 27.7244 17.8014 27.7244 12.6818C27.7244 7.56231 23.5742 3.41211 18.4547 3.41211C13.3351 3.41211 9.18494 7.56231 9.18494 12.6818C9.18494 17.8014 13.3351 21.9516 18.4547 21.9516Z" stroke="black" stroke-width="1.21094" stroke-miterlimit="10"/>
</svg>
