<svg width="31" height="29" viewBox="0 0 31 29" fill="none" xmlns="http://www.w3.org/2000/svg">
<path d="M1.88904 24.6475H15.6937C16.1963 24.6475 16.6019 25.0531 16.6019 25.5557V27.4084H0.980835V25.5557C0.980835 25.0592 1.3865 24.6475 1.88904 24.6475Z" stroke="black" stroke-width="1.21094" stroke-miterlimit="10"/>
<path d="M13.2961 7.28877L9.63909 8.71162L10.6623 11.3394L13.2961 10.3161V24.6476H4.28674V5.1333H13.2961V7.28877Z" stroke="black" stroke-width="1.21094" stroke-miterlimit="10"/>
<path d="M8.47656 0.9375H9.54219C10.2082 0.9375 10.7531 1.47637 10.7531 2.14844V5.1334H7.26562V2.14844C7.26562 1.48242 7.81055 0.9375 8.47656 0.9375Z" stroke="black" stroke-width="1.21094" stroke-miterlimit="10"/>
<path d="M29.777 3.91035L13.2961 10.3162L10.6684 11.3394L9.64514 8.71171L13.2961 7.29492L28.7598 1.28261C29.117 1.14335 29.5166 1.31894 29.6498 1.67617L30.1705 3.01425C30.3098 3.37148 30.1342 3.77109 29.777 3.91035Z" stroke="black" stroke-width="1.21094" stroke-miterlimit="10"/>
</svg>
