<svg width="25" height="31" viewBox="0 0 25 31" fill="none" xmlns="http://www.w3.org/2000/svg">
<path d="M13.0849 15.5228L14.7633 14.5553L15.9615 15.2449C16.1025 15.3206 16.2793 15.2667 16.355 15.1256C16.4271 14.9918 16.3841 14.8223 16.2503 14.743L15.3409 14.2193L15.7992 13.9522C15.9403 13.8766 15.9942 13.7034 15.9185 13.5587C15.8428 13.4176 15.666 13.3637 15.5249 13.4394C15.5177 13.443 15.514 13.4467 15.5068 13.4503L15.0375 13.7173V12.6596C15.0375 12.5009 14.9074 12.3708 14.7487 12.3708C14.5901 12.3708 14.4599 12.5009 14.4599 12.6596V14.0527L12.7882 15.0203V13.0852L13.9901 12.3919C14.1239 12.3054 14.1632 12.1249 14.073 11.9911C13.9937 11.8682 13.8314 11.8252 13.7013 11.89L12.7882 12.4168V11.8827C12.7955 11.7241 12.6726 11.5867 12.5139 11.5794C12.3553 11.5721 12.2179 11.6951 12.2106 11.8537V12.4204L11.2975 11.8936C11.1601 11.8143 10.9797 11.861 10.9004 11.9984C10.821 12.1358 10.8677 12.3163 11.0051 12.3956L12.207 13.0888V15.0239L10.5322 14.0564L10.5359 12.6632C10.5359 12.5046 10.4057 12.3744 10.2471 12.3744C10.0884 12.3744 9.95825 12.5046 9.95825 12.6632V13.721L9.49265 13.4539C9.3552 13.3746 9.17477 13.4212 9.09546 13.5587C9.01614 13.6961 9.06276 13.8766 9.2002 13.9559L9.66218 14.2229L8.75276 14.7466C8.61532 14.8259 8.5687 15.0027 8.64802 15.1438C8.72733 15.2812 8.90413 15.3279 9.0452 15.2485L10.2434 14.5589L11.9218 15.5265L10.2434 16.494L9.04823 15.7971C8.91079 15.7178 8.73036 15.7644 8.65104 15.9019C8.57173 16.0393 8.61835 16.2197 8.75579 16.299L9.6652 16.8228L9.20323 17.0898C9.06216 17.1618 9.00464 17.3386 9.08032 17.4797C9.15237 17.6208 9.32917 17.6783 9.47024 17.6026C9.47751 17.599 9.48477 17.5953 9.49204 17.5881L9.95764 17.3174V18.3752C9.95764 18.5338 10.0878 18.664 10.2465 18.664C10.4051 18.664 10.5353 18.5338 10.5353 18.3752L10.5316 16.982L12.2064 16.0181V17.9532L11.0045 18.6464C10.8634 18.7185 10.8059 18.8953 10.8816 19.0364C10.9536 19.1774 11.1304 19.235 11.2715 19.1593C11.2788 19.1556 11.286 19.152 11.2933 19.1447L12.2064 18.618V19.152C12.2173 19.3106 12.3577 19.4299 12.517 19.419C12.6611 19.4081 12.7731 19.2925 12.784 19.152V18.6143L13.697 19.1411C13.8381 19.2132 14.0149 19.1593 14.0869 19.0182C14.1554 18.8844 14.1124 18.7221 13.9858 18.6392L12.784 17.9459V16.0108L14.4557 16.9784V18.3716C14.4557 18.5302 14.5858 18.6604 14.7445 18.6604C14.9031 18.6604 15.0333 18.5302 15.0333 18.3716V17.3102L15.5025 17.5808C15.64 17.6638 15.8168 17.6244 15.8997 17.487C15.9827 17.3495 15.9433 17.1727 15.8059 17.0898C15.8022 17.0861 15.795 17.0825 15.7877 17.0789L15.3257 16.8119L16.2351 16.2881C16.3762 16.2125 16.4301 16.0357 16.3544 15.8946C16.2787 15.7535 16.1019 15.6996 15.9609 15.7753C15.9536 15.7789 15.95 15.7826 15.9427 15.7862L14.7445 16.4758L13.0837 15.5228H13.0849Z" fill="#010101"/>
<path d="M15.3741 5.29475H9.70271C8.2841 5.29475 7.12341 4.29572 7.12341 3.07389C7.12341 1.85266 8.2841 0.853027 9.70271 0.853027H15.3741C16.7927 0.853027 17.9534 1.85205 17.9534 3.07389C17.9534 4.29512 16.7927 5.29475 15.3741 5.29475Z" stroke="#010101" stroke-width="1.21094" stroke-linecap="round" stroke-linejoin="round"/>
<path d="M2.56967 24.9561H22.4303C23.2095 24.9561 23.8422 25.5888 23.8422 26.368V26.3819C23.8422 28.4599 22.1554 30.1467 20.0774 30.1467H4.92252C2.84455 30.1467 1.15771 28.4599 1.15771 26.3819V26.368C1.15771 25.5888 1.79043 24.9561 2.56967 24.9561Z" stroke="#010101" stroke-width="1.21094" stroke-linecap="round" stroke-linejoin="round"/>
<path d="M1.80869 25.2128C1.7766 25.0469 1.75964 24.8749 1.75964 24.6999C1.75964 23.2044 2.96937 21.9929 4.46367 21.9893H4.47033C5.96705 21.9893 7.1798 23.2026 7.1798 24.6999C7.1798 24.7883 7.17496 24.8761 7.16648 24.9627" stroke="#010101" stroke-width="1.21094" stroke-linecap="round" stroke-linejoin="round"/>
<path d="M17.5133 24.9622C17.5048 24.8756 17.5 24.7879 17.5 24.6995C17.5 23.2021 18.7134 21.9888 20.2095 21.9888C20.3457 21.9888 20.4807 21.9991 20.6121 22.019C21.9175 22.2128 22.9189 23.3396 22.9189 24.6995C22.9189 24.8115 22.9123 24.9217 22.8984 25.03" stroke="#010101" stroke-width="1.21094" stroke-linecap="round" stroke-linejoin="round"/>
<path d="M4.46973 21.9889V9.04883C4.46973 6.98418 6.15898 5.29492 8.22363 5.29492H16.7765C18.8411 5.29492 20.5304 6.98418 20.5304 9.04883V22.0083" stroke="#010101" stroke-width="1.21094" stroke-linecap="round" stroke-linejoin="round"/>
</svg>
