<svg width="22" height="23" viewBox="0 0 22 23" fill="none" xmlns="http://www.w3.org/2000/svg">
<path d="M19.9375 12.5317H3.4375V4.79734C3.4367 4.50607 3.49369 4.21754 3.60515 3.94844C3.71662 3.67934 3.88036 3.43502 4.08689 3.22963L4.10407 3.21244C4.42774 2.88925 4.8433 2.67386 5.29397 2.59571C5.74464 2.51756 6.20846 2.58045 6.62204 2.77579C6.23144 3.42522 6.06909 4.18656 6.16079 4.93883C6.25248 5.6911 6.59297 6.39115 7.12813 6.92773L7.59868 7.39828L6.73256 8.26445L7.70477 9.23666L8.57089 8.37054L13.37 3.57149L14.2361 2.70537L13.2639 1.73311L12.3977 2.59923L11.9272 2.12868C11.3638 1.56688 10.6212 1.22056 9.82866 1.15008C9.03617 1.0796 8.24406 1.28943 7.59039 1.74299C6.90109 1.30768 6.08423 1.11976 5.27401 1.21009C4.46378 1.30042 3.70837 1.66363 3.13186 2.24006L3.11468 2.25724C2.78005 2.59004 2.51476 2.98589 2.33415 3.4219C2.15355 3.85791 2.06122 4.32541 2.0625 4.79734V12.5317H0.6875V13.9067H2.0625V15.2259C2.06247 15.3367 2.08035 15.4468 2.11544 15.5519L3.39453 19.3891C3.46279 19.5945 3.59405 19.7732 3.76965 19.8998C3.94526 20.0264 4.15628 20.0944 4.37276 20.0942H4.92705L4.42578 21.813H5.85806L6.35938 20.0942H15.3012L15.8168 21.813H17.252L16.7363 20.0942H17.6271C17.8436 20.0944 18.0546 20.0264 18.2303 19.8998C18.4059 19.7732 18.5372 19.5945 18.6055 19.3891L19.8845 15.5519C19.9196 15.4468 19.9375 15.3367 19.9375 15.2259V13.9067H21.3125V12.5317H19.9375ZM8.10047 3.10094C8.47928 2.72295 8.99256 2.51067 9.5277 2.51067C10.0628 2.51067 10.5761 2.72295 10.9549 3.10094L11.4254 3.57149L8.57102 6.42586L8.10047 5.95539C7.7225 5.57657 7.51024 5.06329 7.51024 4.52816C7.51024 3.99304 7.7225 3.47976 8.10047 3.10094ZM18.5625 15.17L17.3795 18.7192H4.62052L3.4375 15.17V13.9067H18.5625V15.17Z" fill="black"/>
</svg>
