<svg width="23" height="23" viewBox="0 0 23 23" fill="none" xmlns="http://www.w3.org/2000/svg">
<path d="M6.71753 13.333C8.2392 13.333 9.46753 12.1047 9.46753 10.583C9.46753 9.06134 8.2392 7.83301 6.71753 7.83301C5.19586 7.83301 3.96753 9.06134 3.96753 10.583C3.96753 12.1047 5.19586 13.333 6.71753 13.333ZM6.71753 9.66634C7.2217 9.66634 7.6342 10.0788 7.6342 10.583C7.6342 11.0872 7.2217 11.4997 6.71753 11.4997C6.21336 11.4997 5.80086 11.0872 5.80086 10.583C5.80086 10.0788 6.21336 9.66634 6.71753 9.66634ZM17.7175 6.91634H10.3842V14.2497H3.05086V5.08301H1.21753V18.833H3.05086V16.083H19.5509V18.833H21.3842V10.583C21.3842 8.55717 19.7434 6.91634 17.7175 6.91634ZM19.5509 14.2497H12.2175V8.74967H17.7175C18.7259 8.74967 19.5509 9.57467 19.5509 10.583V14.2497Z" fill="black"/>
</svg>
