<svg width="22" height="22" viewBox="0 0 22 22" fill="none" xmlns="http://www.w3.org/2000/svg">
<path d="M18.8891 9.83125L17.5313 9.37578V4.8125C17.5313 4.539 17.4226 4.27669 17.2292 4.0833C17.0358 3.8899 16.7735 3.78125 16.5 3.78125H11.3438V2.0625C11.3438 1.97133 11.3075 1.8839 11.2431 1.81943C11.1786 1.75497 11.0912 1.71875 11 1.71875C10.9088 1.71875 10.8214 1.75497 10.7569 1.81943C10.6925 1.8839 10.6563 1.97133 10.6563 2.0625V3.78125H5.5C5.2265 3.78125 4.96419 3.8899 4.7708 4.0833C4.5774 4.27669 4.46875 4.539 4.46875 4.8125V9.37578L3.11094 9.83125C2.90547 9.89985 2.72682 10.0314 2.60033 10.2073C2.47384 10.3831 2.40593 10.5943 2.40625 10.8109V13.75C2.40784 13.7821 2.41362 13.8139 2.42344 13.8445C3.72109 18.3906 9.59922 19.9633 10.768 20.2383L11 20.2641L11.232 20.2383C12.4008 19.9633 18.2789 18.3906 19.5766 13.8445C19.5864 13.8139 19.5922 13.7821 19.5938 13.75V10.8109C19.5941 10.5943 19.5262 10.3831 19.3997 10.2073C19.2732 10.0314 19.0945 9.89985 18.8891 9.83125ZM5.15625 4.8125C5.15625 4.72133 5.19247 4.6339 5.25693 4.56943C5.3214 4.50497 5.40883 4.46875 5.5 4.46875H16.5C16.5912 4.46875 16.6786 4.50497 16.7431 4.56943C16.8075 4.6339 16.8438 4.72133 16.8438 4.8125V9.15234L11.3266 7.30469C11.224 7.27081 11.1166 7.25341 11.0086 7.25313H10.9914C10.8834 7.25341 10.776 7.27081 10.6734 7.30469L5.15625 9.15234V4.8125ZM18.9063 13.6984C18.3906 15.443 17.0672 16.9125 14.9531 18.0812C13.7317 18.7441 12.4287 19.2439 11.0773 19.568C11.0261 19.5766 10.9739 19.5766 10.9227 19.568C9.57131 19.2439 8.26827 18.7441 7.04688 18.0812C4.93281 16.9125 3.60938 15.443 3.09375 13.6984V10.8109C3.09211 10.7388 3.1138 10.668 3.15561 10.6092C3.19741 10.5503 3.2571 10.5066 3.32578 10.4844L10.6563 8.03516V14.4375C10.6563 14.5287 10.6925 14.6161 10.7569 14.6806C10.8214 14.745 10.9088 14.7812 11 14.7812C11.0912 14.7812 11.1786 14.745 11.2431 14.6806C11.3075 14.6161 11.3438 14.5287 11.3438 14.4375V8.03516L18.6742 10.4844C18.7429 10.5066 18.8026 10.5503 18.8444 10.6092C18.8862 10.668 18.9079 10.7388 18.9063 10.8109V13.6984Z" fill="black"/>
</svg>
