<svg width="31" height="30" viewBox="0 0 31 30" fill="none" xmlns="http://www.w3.org/2000/svg">
<path d="M22.5008 22.8H8.10078C7.08078 22.8 6.30078 22.02 6.30078 21V7.8C6.30078 6.78 6.96078 6 7.80078 6H8.70078V7.2H7.80078C7.68078 7.2 7.50078 7.44 7.50078 7.8V21C7.50078 21.36 7.74078 21.6 8.10078 21.6H22.5008C22.8608 21.6 23.1008 21.36 23.1008 21V7.8C23.1008 7.44 22.9208 7.2 22.8008 7.2H21.9008V6H22.8008C23.6408 6 24.3008 6.78 24.3008 7.8V21C24.3008 22.02 23.5208 22.8 22.5008 22.8Z" fill="black"/>
<path d="M10.5007 8.3998C10.1407 8.3998 9.90073 8.1598 9.90073 7.7998V5.3998C9.90073 5.0398 10.1407 4.7998 10.5007 4.7998C10.8607 4.7998 11.1007 5.0398 11.1007 5.3998V7.7998C11.1007 8.1598 10.8607 8.3998 10.5007 8.3998ZM20.1007 8.3998C19.7407 8.3998 19.5007 8.1598 19.5007 7.7998V5.3998C19.5007 5.0398 19.7407 4.7998 20.1007 4.7998C20.4607 4.7998 20.7007 5.0398 20.7007 5.3998V7.7998C20.7007 8.1598 20.4607 8.3998 20.1007 8.3998ZM12.3007 5.9998H18.3007V7.1998H12.3007V5.9998ZM7.50073 9.5998H23.1007V10.7998H7.50073V9.5998ZM20.7007 11.9998H21.9007V13.1998H20.7007V11.9998ZM18.3007 11.9998H19.5007V13.1998H18.3007V11.9998ZM15.9007 11.9998H17.1007V13.1998H15.9007V11.9998ZM13.5007 11.9998H14.7007V13.1998H13.5007V11.9998ZM11.1007 11.9998H12.3007V13.1998H11.1007V11.9998ZM20.7007 14.3998H21.9007V15.5998H20.7007V14.3998ZM18.3007 14.3998H19.5007V15.5998H18.3007V14.3998ZM15.9007 14.3998H17.1007V15.5998H15.9007V14.3998ZM13.5007 14.3998H14.7007V15.5998H13.5007V14.3998ZM11.1007 14.3998H12.3007V15.5998H11.1007V14.3998ZM8.70073 14.3998H9.90073V15.5998H8.70073V14.3998ZM20.7007 16.7998H21.9007V17.9998H20.7007V16.7998ZM18.3007 16.7998H19.5007V17.9998H18.3007V16.7998ZM15.9007 16.7998H17.1007V17.9998H15.9007V16.7998ZM13.5007 16.7998H14.7007V17.9998H13.5007V16.7998ZM11.1007 16.7998H12.3007V17.9998H11.1007V16.7998ZM8.70073 16.7998H9.90073V17.9998H8.70073V16.7998ZM18.3007 19.1998H19.5007V20.3998H18.3007V19.1998ZM15.9007 19.1998H17.1007V20.3998H15.9007V19.1998ZM13.5007 19.1998H14.7007V20.3998H13.5007V19.1998ZM11.1007 19.1998H12.3007V20.3998H11.1007V19.1998ZM8.70073 19.1998H9.90073V20.3998H8.70073V19.1998Z" fill="black"/>
</svg>
