<svg width="22" height="23" viewBox="0 0 22 23" fill="none" xmlns="http://www.w3.org/2000/svg">
<path d="M8.08945 9.4604C8.14067 9.5115 8.18131 9.57219 8.20903 9.63901C8.23676 9.70583 8.25103 9.77746 8.25103 9.8498C8.25103 9.92215 8.23676 9.99378 8.20903 10.0606C8.18131 10.1274 8.14067 10.1881 8.08945 10.2392L7.37775 10.9498H14.6223L13.9106 10.2392C13.8074 10.1359 13.7494 9.99586 13.7494 9.8498C13.7494 9.70375 13.8074 9.56368 13.9106 9.4604C14.0139 9.35713 14.154 9.29911 14.3 9.29911C14.4461 9.29911 14.5862 9.35713 14.6894 9.4604L16.3394 11.1104C16.3907 11.1615 16.4313 11.2222 16.459 11.289C16.4868 11.3558 16.501 11.4275 16.501 11.4998C16.501 11.5721 16.4868 11.6438 16.459 11.7106C16.4313 11.7774 16.3907 11.8381 16.3394 11.8892L14.6894 13.5392C14.5862 13.6425 14.4461 13.7005 14.3 13.7005C14.154 13.7005 14.0139 13.6425 13.9106 13.5392C13.8074 13.4359 13.7494 13.2959 13.7494 13.1498C13.7494 13.0038 13.8074 12.8637 13.9106 12.7604L14.6223 12.0498H7.37775L8.08945 12.7604C8.19272 12.8637 8.25074 13.0038 8.25074 13.1498C8.25074 13.2959 8.19272 13.4359 8.08945 13.5392C7.98617 13.6425 7.8461 13.7005 7.70005 13.7005C7.554 13.7005 7.41392 13.6425 7.31065 13.5392L5.66065 11.8892C5.60943 11.8381 5.56879 11.7774 5.54106 11.7106C5.51334 11.6438 5.49907 11.5721 5.49907 11.4998C5.49907 11.4275 5.51334 11.3558 5.54106 11.289C5.56879 11.2222 5.60943 11.1615 5.66065 11.1104L7.31065 9.4604C7.36174 9.40918 7.42243 9.36855 7.48925 9.34082C7.55607 9.31309 7.62771 9.29882 7.70005 9.29882C7.77239 9.29882 7.84403 9.31309 7.91085 9.34082C7.97767 9.36855 8.03836 9.40918 8.08945 9.4604ZM18.7 7.0998C18.7 6.22459 18.3524 5.38522 17.7335 4.76635C17.1146 4.14748 16.2753 3.7998 15.4 3.7998H6.60005C5.72483 3.7998 4.88547 4.14748 4.2666 4.76635C3.64773 5.38522 3.30005 6.22459 3.30005 7.0998V15.8998C3.30005 16.775 3.64773 17.6144 4.2666 18.2333C4.88547 18.8521 5.72483 19.1998 6.60005 19.1998H15.4C16.2753 19.1998 17.1146 18.8521 17.7335 18.2333C18.3524 17.6144 18.7 16.775 18.7 15.8998V7.0998ZM14.3 4.8998V8.1998C14.6938 8.1998 15.0876 8.3395 15.4 8.62V4.8998C15.9835 4.8998 16.5431 5.13159 16.9557 5.54417C17.3683 5.95675 17.6 6.51633 17.6 7.0998V15.8998C17.6 16.4833 17.3683 17.0429 16.9557 17.4554C16.5431 17.868 15.9835 18.0998 15.4 18.0998V14.3796C15.0978 14.6506 14.706 14.8003 14.3 14.7998V18.0998H7.70005V14.7998C7.30625 14.7998 6.91245 14.6601 6.60005 14.3796V18.0998C6.01657 18.0998 5.45699 17.868 5.04441 17.4554C4.63183 17.0429 4.40005 16.4833 4.40005 15.8998V7.0998C4.40005 6.51633 4.63183 5.95675 5.04441 5.54417C5.45699 5.13159 6.01657 4.8998 6.60005 4.8998V8.62C6.90228 8.34897 7.29409 8.1993 7.70005 8.1998V4.8998H14.3Z" fill="black"/>
</svg>
