<svg width="23" height="23" viewBox="0 0 23 23" fill="none" xmlns="http://www.w3.org/2000/svg">
<g clip-path="url(#clip0_450_18262)">
<path d="M15.6265 18.606L15.0399 13.909C14.9567 13.2437 14.6334 12.6317 14.1307 12.1881C13.628 11.7444 12.9805 11.4997 12.31 11.5H10.2897C9.61954 11.5002 8.97252 11.7451 8.47019 12.1887C7.96786 12.6323 7.64479 13.244 7.56169 13.909L6.97411 18.606C6.94186 18.8641 6.96488 19.126 7.04165 19.3745C7.11841 19.623 7.24716 19.8523 7.41934 20.0472C7.59152 20.2421 7.8032 20.3981 8.04031 20.5049C8.27743 20.6117 8.53455 20.6669 8.79461 20.6667H13.8069C14.0669 20.6667 14.3239 20.6115 14.561 20.5046C14.798 20.3977 15.0095 20.2417 15.1816 20.0468C15.3537 19.8519 15.4823 19.6227 15.5591 19.3743C15.6358 19.1259 15.6588 18.864 15.6265 18.606V18.606Z" stroke="black" stroke-width="2" stroke-linecap="round" stroke-linejoin="round"/>
<path d="M11.3008 7.83301C12.8196 7.83301 14.0508 6.60179 14.0508 5.08301C14.0508 3.56422 12.8196 2.33301 11.3008 2.33301C9.782 2.33301 8.55078 3.56422 8.55078 5.08301C8.55078 6.60179 9.782 7.83301 11.3008 7.83301Z" stroke="black" stroke-width="2"/>
<path d="M3.96737 10.5827C4.97989 10.5827 5.8007 9.76187 5.8007 8.74935C5.8007 7.73683 4.97989 6.91602 3.96737 6.91602C2.95484 6.91602 2.13403 7.73683 2.13403 8.74935C2.13403 9.76187 2.95484 10.5827 3.96737 10.5827Z" stroke="black" stroke-width="2"/>
<path d="M18.6341 10.5827C19.6466 10.5827 20.4674 9.76187 20.4674 8.74935C20.4674 7.73683 19.6466 6.91602 18.6341 6.91602C17.6216 6.91602 16.8008 7.73683 16.8008 8.74935C16.8008 9.76187 17.6216 10.5827 18.6341 10.5827Z" stroke="black" stroke-width="2"/>
<path d="M3.9674 13.333H3.6869C3.25292 13.333 2.83299 13.4869 2.50182 13.7673C2.17065 14.0478 1.94971 14.4367 1.87832 14.8648L1.57307 16.6981C1.52927 16.9608 1.54321 17.2298 1.61393 17.4865C1.68464 17.7433 1.81044 17.9815 1.98257 18.1847C2.1547 18.3879 2.36902 18.5511 2.61064 18.6631C2.85226 18.7751 3.11536 18.833 3.38165 18.833H6.7174M18.6341 13.333H18.9146C19.3486 13.333 19.7685 13.4869 20.0997 13.7673C20.4308 14.0478 20.6518 14.4367 20.7232 14.8648L21.0284 16.6981C21.0722 16.9608 21.0583 17.2298 20.9875 17.4865C20.9168 17.7433 20.791 17.9815 20.6189 18.1847C20.4468 18.3879 20.2324 18.5511 19.9908 18.6631C19.7492 18.7751 19.4861 18.833 19.2198 18.833H15.8841" stroke="black" stroke-width="2" stroke-linecap="round" stroke-linejoin="round"/>
</g>
<defs>
<clipPath id="clip0_450_18262">
<rect width="22" height="22" fill="white" transform="translate(0.300781 0.5)"/>
</clipPath>
</defs>
</svg>
