<svg width="29" height="31" viewBox="0 0 29 31" fill="none" xmlns="http://www.w3.org/2000/svg">
<path d="M6.10791 17.2773H11.0237V23.2981H6.10791C5.4982 23.2981 5.00293 22.8029 5.00293 22.1931V18.3823C5.00293 17.7726 5.4982 17.2773 6.10791 17.2773Z" stroke="#1D1D1B" stroke-width="1.47311" stroke-linecap="round" stroke-linejoin="round"/>
<path d="M7.93939 9.99322V1.11523H4.70438V9.99322C3.00119 9.99322 1.62012 11.3743 1.62012 13.0775V29.8847H11.0237V13.0775C11.0237 11.3743 9.64258 9.99322 7.93939 9.99322Z" stroke="#1D1D1B" stroke-width="1.47311" stroke-linecap="round" stroke-linejoin="round"/>
<path d="M4.70508 3.05273H7.9401" stroke="#1D1D1B" stroke-width="1.47311" stroke-linecap="round" stroke-linejoin="round"/>
<path d="M15.9453 19.4661C15.9453 22.6236 18.5052 25.1835 21.6628 25.1835C24.8203 25.1835 27.3802 22.6236 27.3802 19.4661C27.3802 18.3296 27.0472 17.2719 26.4756 16.3818H16.8499C16.2783 17.2719 15.9453 18.3296 15.9453 19.4661Z" stroke="#1D1D1B" stroke-width="1.47311" stroke-linecap="round" stroke-linejoin="round"/>
<path d="M21.6621 25.1826V29.8847" stroke="#1D1D1B" stroke-width="1.47311" stroke-linecap="round" stroke-linejoin="round"/>
<path d="M18.54 29.8848H24.7836" stroke="#1D1D1B" stroke-width="1.47311" stroke-linecap="round" stroke-linejoin="round"/>
<path d="M15.9453 19.4658H27.3796" stroke="#1D1D1B" stroke-width="1.47311" stroke-linecap="round" stroke-linejoin="round"/>
</svg>
