<svg width="24" height="28" viewBox="0 0 24 28" fill="none" xmlns="http://www.w3.org/2000/svg">
<path d="M12.0938 27.0827C12.0938 15.7471 12.0938 6.57422 12.0938 6.57422" stroke="#020202" stroke-width="1.21094" stroke-linecap="round" stroke-linejoin="round"/>
<path d="M12.0933 6.5734C13.6345 6.5734 14.8839 5.324 14.8839 3.78279C14.8839 2.24158 13.6345 0.992188 12.0933 0.992188C10.5521 0.992188 9.30273 2.24158 9.30273 3.78279C9.30273 5.324 10.5521 6.5734 12.0933 6.5734Z" stroke="#020202" stroke-width="1.21094" stroke-linecap="round" stroke-linejoin="round"/>
<path d="M22.5529 14.8535L20.5186 17.3535" stroke="#020202" stroke-width="1.21094" stroke-linecap="round" stroke-linejoin="round"/>
<path d="M1.63379 14.8535L3.68814 17.3535" stroke="#020202" stroke-width="1.21094" stroke-linecap="round" stroke-linejoin="round"/>
<path d="M22.5522 14.8535C22.637 15.3936 22.6818 15.9464 22.6818 16.5101C22.6818 22.3577 17.9415 27.0985 12.0933 27.0985C6.2451 27.0985 1.50488 22.3583 1.50488 16.5101C1.50488 15.9464 1.54908 15.3936 1.63385 14.8535" stroke="#020202" stroke-width="1.21094" stroke-linecap="round" stroke-linejoin="round"/>
<path d="M7.96094 8.83203H16.2262" stroke="#020202" stroke-width="1.21094" stroke-linecap="round" stroke-linejoin="round"/>
</svg>
