<svg width="29" height="29" viewBox="0 0 29 29" fill="none" xmlns="http://www.w3.org/2000/svg">
<path d="M7.23111 12.5322H21.769C25.2922 12.5322 28.1531 15.3931 28.1531 18.9163H0.847656C0.847656 15.3931 3.7085 12.5322 7.23172 12.5322H7.23111Z" stroke="black" stroke-width="1.21094" stroke-linecap="round" stroke-linejoin="round"/>
<path d="M28.1531 18.916H0.847656V27.4277H4.14867V24.057H24.8521V27.4277H28.1531V18.916Z" stroke="black" stroke-width="1.21094" stroke-linecap="round" stroke-linejoin="round"/>
<path d="M1.81445 15.4301V2.79275C1.81445 2.12129 2.36482 1.57031 3.03689 1.57031H25.9636C26.635 1.57031 27.186 2.12068 27.186 2.79275V15.4301" stroke="black" stroke-width="1.21094" stroke-linecap="round" stroke-linejoin="round"/>
<path d="M14.5002 9.87637C14.5002 9.18432 12.5216 8.62305 10.0797 8.62305C7.63785 8.62305 5.65918 9.18432 5.65918 9.87637V12.6567" stroke="black" stroke-width="1.21094" stroke-linecap="round" stroke-linejoin="round"/>
<path d="M23.3401 12.6694V9.88906C23.3401 9.19701 21.3614 8.63574 18.9196 8.63574C16.4777 8.63574 14.499 9.19701 14.499 9.88906V11.6582" stroke="black" stroke-width="1.21094" stroke-linecap="round" stroke-linejoin="round"/>
</svg>
