<svg width="32" height="29" viewBox="0 0 32 29" fill="none" xmlns="http://www.w3.org/2000/svg">
<path d="M23.3817 8.61523H2.14709C1.78324 8.61523 1.48828 8.89363 1.48828 9.23705V20.4667C1.48828 20.8101 1.78324 21.0885 2.14709 21.0885H23.3817C23.7456 21.0885 24.0405 20.8101 24.0405 20.4667V9.23705C24.0405 8.89363 23.7456 8.61523 23.3817 8.61523Z" stroke="#1D1D1B" stroke-width="1.21094" stroke-miterlimit="10"/>
<path d="M12.1597 12.069C9.54495 12.069 7.3626 13.0183 6.8539 14.2807L7.40879 14.7264L6.83594 15.3591C7.30551 16.6475 9.51159 17.6229 12.1635 17.6229C15.1561 17.6229 17.5822 16.3805 17.5822 14.8444C17.5822 13.3084 15.1535 12.0684 12.1603 12.0684L12.1597 12.069Z" stroke="#020303" stroke-width="1.21094" stroke-linecap="round" stroke-linejoin="round"/>
<path d="M18.2704 14.8484C18.2704 16.0218 19.8061 16.9711 19.377 16.9711C18.9478 16.9711 17.5635 16.0218 17.5635 14.8484C17.5635 13.675 19.0203 12.7256 19.4501 12.7256C19.8799 12.7256 18.2704 13.675 18.2704 14.8484Z" stroke="#020303" stroke-width="1.21094" stroke-linecap="round" stroke-linejoin="round"/>
<path d="M10.6738 17.3419C11.622 15.6678 11.7438 13.9876 10.9452 13.585" stroke="#020303" stroke-width="1.21094" stroke-linecap="round" stroke-linejoin="round"/>
<path d="M15.866 16.8672C15.6588 17.7475 15.7531 18.6364 11.7881 17.618" stroke="#020303" stroke-width="1.21094" stroke-linecap="round" stroke-linejoin="round"/>
<path d="M15.7681 12.7764C15.5333 11.9021 15.6006 10.9557 11.6689 12.0801" stroke="#020303" stroke-width="1.21094" stroke-linecap="round" stroke-linejoin="round"/>
<path d="M9.21017 14.4623C9.38342 14.4623 9.52386 14.3297 9.52386 14.1662C9.52386 14.0027 9.38342 13.8701 9.21017 13.8701C9.03693 13.8701 8.89648 14.0027 8.89648 14.1662C8.89648 14.3297 9.03693 14.4623 9.21017 14.4623Z" fill="#010101" stroke="#010101" stroke-width="1.21094" stroke-linecap="round" stroke-linejoin="round"/>
<path d="M23.3486 5.47852C24.1826 5.7207 24.6316 6.38672 25.0165 7.11328C25.2731 7.53711 25.7863 7.83984 26.2995 7.96094" stroke="black" stroke-width="1.21094" stroke-linecap="round" stroke-linejoin="round"/>
<path d="M23.8613 3.35938C24.6311 3.48047 25.2726 3.9043 25.6575 4.50977C26.3631 5.59961 27.0046 6.68945 28.2876 6.99219" stroke="black" stroke-width="1.21094" stroke-linecap="round" stroke-linejoin="round"/>
<path d="M24.375 1.36133C24.6316 1.36133 24.824 1.42188 25.0165 1.54297C25.2089 1.66406 25.4014 1.72461 25.5938 1.8457C26.1712 2.14844 26.6202 2.57227 27.0051 3.11719C27.4542 3.84375 27.7107 4.57031 28.2881 5.17578C28.8654 5.78125 29.6352 6.26562 30.4692 6.44727" stroke="black" stroke-width="1.21094" stroke-linecap="round" stroke-linejoin="round"/>
<path d="M26.3629 20.9785C26.1063 21.7656 25.3365 22.1289 24.5667 22.4922C24.1177 22.6738 23.7969 23.0977 23.6045 23.582" stroke="black" stroke-width="1.21094" stroke-linecap="round" stroke-linejoin="round"/>
<path d="M28.6085 21.6445C28.3519 22.3105 27.9028 22.916 27.2613 23.2188C26.1067 23.7637 24.8878 24.3086 24.5029 25.5195" stroke="black" stroke-width="1.21094" stroke-linecap="round" stroke-linejoin="round"/>
<path d="M30.7253 22.1895C30.3404 23.1582 29.6347 24.0059 28.6725 24.5508C28.48 24.6113 28.2876 24.7324 28.0951 24.8535C27.9668 24.9141 27.9027 24.9141 27.7744 24.9141C26.4273 25.3984 25.4009 26.3672 24.8877 27.6387" stroke="black" stroke-width="1.21094" stroke-linecap="round" stroke-linejoin="round"/>
</svg>
