<svg width="23" height="31" viewBox="0 0 23 31" fill="none" xmlns="http://www.w3.org/2000/svg">
<path d="M20.5617 15.1791C20.5617 9.98418 18.5637 5.64902 15.9057 4.63789L14.9672 5.73984L13.6352 4.60156C10.9227 5.53398 8.87012 9.91758 8.87012 15.1852C8.87012 21.1309 11.4857 25.9504 14.7189 25.9504C17.9521 25.9504 20.5617 21.1248 20.5617 15.1791Z" stroke="#020202" stroke-width="1.21094" stroke-linecap="round" stroke-linejoin="round"/>
<path d="M14.7135 27.3188C12.2432 27.3188 10.2451 30.3703 10.2451 29.5166C10.2451 28.6629 12.2432 25.9141 14.7135 25.9141C17.1838 25.9141 19.1818 28.8082 19.1818 29.6619C19.1818 30.5156 17.1838 27.3188 14.7135 27.3188Z" stroke="#020202" stroke-width="1.21094" stroke-linecap="round" stroke-linejoin="round"/>
<path d="M9.46387 10.4805C12.9877 12.3635 16.5236 12.6057 17.3713 11.0193" stroke="#020202" stroke-width="1.21094" stroke-linecap="round" stroke-linejoin="round"/>
<path d="M10.4627 22.5426C8.60994 22.1309 6.73905 22.3186 8.88241 14.4414" stroke="#020202" stroke-width="1.21094" stroke-linecap="round" stroke-linejoin="round"/>
<path d="M19.0723 22.3486C20.9129 21.8824 22.9049 22.0156 20.5375 14.2051" stroke="#020202" stroke-width="1.21094" stroke-linecap="round" stroke-linejoin="round"/>
<path d="M16.148 8.96211C16.4925 8.96211 16.7717 8.6829 16.7717 8.33848C16.7717 7.99405 16.4925 7.71484 16.148 7.71484C15.8036 7.71484 15.5244 7.99405 15.5244 8.33848C15.5244 8.6829 15.8036 8.96211 16.148 8.96211Z" fill="black" stroke="black" stroke-width="1.21094" stroke-linecap="round" stroke-linejoin="round"/>
<path d="M0.830078 1.19336V14.6227C0.830078 15.6943 1.36894 16.7115 2.28926 17.2686C2.93711 17.6621 3.76055 17.8256 4.66875 17.208C5.51035 16.6328 6.00078 15.6641 6.00078 14.6469V11.1049L4.81406 12.6973" stroke="#020202" stroke-width="1.2727" stroke-miterlimit="10" stroke-linecap="round"/>
</svg>
