<svg width="29" height="29" viewBox="0 0 29 29" fill="none" xmlns="http://www.w3.org/2000/svg">
<path d="M5.71119 23.5166L1.48926 27.9813" stroke="#020202" stroke-width="1.21094" stroke-miterlimit="10" stroke-linecap="round"/>
<path d="M9.51855 19.49L26.5225 1.50638C26.6206 1.40285 26.7829 1.39437 26.8907 1.48761L27.0832 1.65351C27.6681 2.15908 28.0047 2.89412 28.0047 3.6673V20.4503C28.0047 20.7197 27.8879 20.9801 27.676 21.1478C27.1988 21.525 26.6951 21.4318 26.3143 21.2471C25.9274 21.06 25.6882 20.661 25.6882 20.2311V17.0597L24.6886 18.5043" stroke="#020202" stroke-width="1.21094" stroke-miterlimit="10" stroke-linecap="round"/>
<path d="M7.62414 24.2825C9.15431 24.2825 10.3948 23.042 10.3948 21.5118C10.3948 19.9817 9.15431 18.7412 7.62414 18.7412C6.09397 18.7412 4.85352 19.9817 4.85352 21.5118C4.85352 23.042 6.09397 24.2825 7.62414 24.2825Z" stroke="#020202" stroke-width="1.21094" stroke-miterlimit="10" stroke-linecap="round"/>
<path d="M20.2539 8.13574L21.7185 9.47746" stroke="#020202" stroke-width="1.21094" stroke-miterlimit="10" stroke-linecap="round"/>
<path d="M22.8535 5.45215L24.3181 6.79387" stroke="#020202" stroke-width="1.21094" stroke-miterlimit="10" stroke-linecap="round"/>
<path d="M17.1709 11.4863L18.6355 12.828" stroke="#020202" stroke-width="1.21094" stroke-miterlimit="10" stroke-linecap="round"/>
<path d="M14.2354 14.7539L15.7 16.095" stroke="#020202" stroke-width="1.21094" stroke-miterlimit="10" stroke-linecap="round"/>
</svg>
