<svg width="30" height="31" viewBox="0 0 30 31" fill="none" xmlns="http://www.w3.org/2000/svg">
<path d="M1.98926 1.24023H27.9911C28.3919 1.24023 28.7177 1.56598 28.7177 1.9668V6.6059C28.7177 19.3528 18.369 29.7015 5.62207 29.7015H1.98926C1.58844 29.7015 1.2627 29.3758 1.2627 28.9749V1.9668C1.2627 1.56598 1.58844 1.24023 1.98926 1.24023Z" stroke="black" stroke-width="1.21094" stroke-linecap="round" stroke-linejoin="round"/>
<path d="M23.8374 17C25.4213 14.1591 26.3253 10.8938 26.3253 7.42693V3.45445C26.3253 3.11236 26.0449 2.83203 25.7029 2.83203H3.43432C3.09223 2.83203 2.8125 3.11236 2.8125 3.45445V26.584C2.8125 26.9261 3.09223 27.2064 3.43432 27.2064H6.54582C10.9355 27.2064 15.0042 25.7569 18.2949 23.312" stroke="black" stroke-width="1.21094" stroke-linecap="round" stroke-linejoin="round"/>
<path d="M18.2945 23.312C18.0191 22.5624 18.2897 21.5253 19.1755 20.5826L21.8941 17.6503C22.3512 17.1453 23.1401 16.8837 23.837 17" stroke="black" stroke-width="1.21094" stroke-linecap="round" stroke-linejoin="round"/>
<path d="M17.6221 16.9727L21.5443 20.6418" stroke="black" stroke-width="1.21094" stroke-linecap="round" stroke-linejoin="round"/>
<path d="M20.3698 21.8315C20.4053 21.8315 20.434 21.8028 20.434 21.7673C20.434 21.7319 20.4053 21.7031 20.3698 21.7031C20.3344 21.7031 20.3057 21.7319 20.3057 21.7673C20.3057 21.8028 20.3344 21.8315 20.3698 21.8315Z" stroke="black" stroke-width="1.21094" stroke-linecap="round" stroke-linejoin="round"/>
<path d="M22.7917 19.228C22.8272 19.228 22.8559 19.1992 22.8559 19.1638C22.8559 19.1283 22.8272 19.0996 22.7917 19.0996C22.7563 19.0996 22.7275 19.1283 22.7275 19.1638C22.7275 19.1992 22.7563 19.228 22.7917 19.228Z" stroke="black" stroke-width="1.21094" stroke-linecap="round" stroke-linejoin="round"/>
<path d="M4.25852 16.7485C4.29396 16.7485 4.3227 16.7197 4.3227 16.6843C4.3227 16.6489 4.29396 16.6201 4.25852 16.6201C4.22307 16.6201 4.19434 16.6489 4.19434 16.6843C4.19434 16.7197 4.22307 16.7485 4.25852 16.7485Z" stroke="black" stroke-width="1.21094" stroke-linecap="round" stroke-linejoin="round"/>
<path d="M4.25852 15.2348C4.29396 15.2348 4.3227 15.2061 4.3227 15.1706C4.3227 15.1352 4.29396 15.1064 4.25852 15.1064C4.22307 15.1064 4.19434 15.1352 4.19434 15.1706C4.19434 15.2061 4.22307 15.2348 4.25852 15.2348Z" stroke="black" stroke-width="1.21094" stroke-linecap="round" stroke-linejoin="round"/>
<path d="M4.25852 13.6606C4.29396 13.6606 4.3227 13.6319 4.3227 13.5964C4.3227 13.561 4.29396 13.5322 4.25852 13.5322C4.22307 13.5322 4.19434 13.561 4.19434 13.5964C4.19434 13.6319 4.22307 13.6606 4.25852 13.6606Z" stroke="black" stroke-width="1.21094" stroke-linecap="round" stroke-linejoin="round"/>
<path d="M17.0671 4.30219C17.1026 4.30219 17.1313 4.27345 17.1313 4.23801C17.1313 4.20256 17.1026 4.17383 17.0671 4.17383C17.0317 4.17383 17.0029 4.20256 17.0029 4.23801C17.0029 4.27345 17.0317 4.30219 17.0671 4.30219Z" stroke="black" stroke-width="1.21094" stroke-linecap="round" stroke-linejoin="round"/>
<path d="M15.5534 4.30219C15.5889 4.30219 15.6176 4.27345 15.6176 4.23801C15.6176 4.20256 15.5889 4.17383 15.5534 4.17383C15.518 4.17383 15.4893 4.20256 15.4893 4.23801C15.4893 4.27345 15.518 4.30219 15.5534 4.30219Z" stroke="black" stroke-width="1.21094" stroke-linecap="round" stroke-linejoin="round"/>
<path d="M13.9792 4.30219C14.0147 4.30219 14.0434 4.27345 14.0434 4.23801C14.0434 4.20256 14.0147 4.17383 13.9792 4.17383C13.9438 4.17383 13.915 4.20256 13.915 4.23801C13.915 4.27345 13.9438 4.30219 13.9792 4.30219Z" stroke="black" stroke-width="1.21094" stroke-linecap="round" stroke-linejoin="round"/>
</svg>
