<svg width="31" height="29" viewBox="0 0 31 29" fill="none" xmlns="http://www.w3.org/2000/svg">
<path d="M21.2461 8.03527L22.6823 1.57129H28.4282" stroke="black" stroke-width="1.26725" stroke-linecap="round" stroke-linejoin="round"/>
<path d="M21.2454 8.03539H9.75361C9.75361 11.6264 1.13477 16.6542 1.13477 16.6542C1.13477 16.6542 1.85346 18.8091 3.64867 22.4001C5.00916 25.1199 6.57551 26.6045 7.25424 27.164C7.47342 27.3444 7.74951 27.4273 8.03348 27.4273H23.6146C23.941 27.4273 24.2564 27.3165 24.4883 27.0865C25.1053 26.4743 26.4076 25.003 27.7094 22.3989C29.5052 18.8079 29.8643 16.653 29.8643 16.653C29.8643 16.653 21.2454 12.3433 21.2454 8.03418V8.03539Z" stroke="black" stroke-width="1.26725" stroke-linecap="round" stroke-linejoin="round"/>
<path d="M9.75397 8.03527L8.31779 1.57129H2.57129" stroke="black" stroke-width="1.26725" stroke-linecap="round" stroke-linejoin="round"/>
<path d="M1.13477 16.6543C1.13477 16.6543 2.57094 19.5272 6.88066 19.5272H24.1184C27.7094 19.5272 29.8643 16.6543 29.8643 16.6543" stroke="black" stroke-width="1.26725" stroke-linecap="round" stroke-linejoin="round"/>
</svg>
