<svg width="25" height="29" viewBox="0 0 25 29" fill="none" xmlns="http://www.w3.org/2000/svg">
<path d="M6.32227 19.1571L18.6775 9.84375" stroke="#020202" stroke-width="1.35141" stroke-miterlimit="10"/>
<path d="M4.57146 21.9401C5.92686 20.9183 6.71103 19.6727 6.32294 19.1579C5.93486 18.6431 4.52149 19.054 3.16609 20.0758C1.81068 21.0975 1.02652 22.3431 1.4146 22.8579C1.80269 23.3728 3.21606 22.9618 4.57146 21.9401Z" stroke="#020202" stroke-width="1.35141" stroke-miterlimit="10"/>
<path d="M21.8342 8.92641C23.1896 7.90467 23.9737 6.65904 23.5856 6.14422C23.1976 5.62941 21.7842 6.04035 20.4288 7.06209C19.0734 8.08383 18.2892 9.32945 18.6773 9.84427C19.0654 10.3591 20.4788 9.94814 21.8342 8.92641Z" stroke="#020202" stroke-width="1.35141" stroke-miterlimit="10"/>
<path d="M12.4997 28.2996C14.5081 28.2996 16.1362 22.1215 16.1362 14.5004C16.1362 6.8793 14.5081 0.701172 12.4997 0.701172C10.4914 0.701172 8.86328 6.8793 8.86328 14.5004C8.86328 22.1215 10.4914 28.2996 12.4997 28.2996Z" stroke="#020202" stroke-width="1.35141" stroke-miterlimit="10"/>
</svg>
