<svg width="31" height="29" viewBox="0 0 31 29" fill="none" xmlns="http://www.w3.org/2000/svg">
<path d="M4.68709 20.7179C4.35529 24.7115 7.36811 27.9726 11.3751 27.9726H17.9941C22.4988 27.9726 25.5945 24.3386 24.848 19.889C24.0603 15.2184 19.5556 11.3906 14.816 11.3906C9.67555 11.3906 5.11516 15.5914 4.68709 20.7179Z" stroke="black" stroke-width="1.21094" stroke-linecap="round" stroke-linejoin="round"/>
<path d="M13.0612 7.93598C14.9691 7.93598 16.5161 6.389 16.5161 4.48117C16.5161 2.57334 14.9691 1.02637 13.0612 1.02637C11.1534 1.02637 9.60645 2.57334 9.60645 4.48117C9.60645 6.389 11.1534 7.93598 13.0612 7.93598Z" stroke="black" stroke-width="1.21094" stroke-linecap="round" stroke-linejoin="round"/>
<path d="M22.4993 9.59434C24.0257 9.59434 25.2633 8.35676 25.2633 6.83037C25.2633 5.30398 24.0257 4.06641 22.4993 4.06641C20.9729 4.06641 19.7354 5.30398 19.7354 6.83037C19.7354 8.35676 20.9729 9.59434 22.4993 9.59434Z" stroke="black" stroke-width="1.21094" stroke-linecap="round" stroke-linejoin="round"/>
<path d="M27.6116 15.1222C28.7565 15.1222 29.6841 14.194 29.6841 13.0497C29.6841 11.9054 28.7559 10.9766 27.6116 10.9766C26.4672 10.9766 25.5391 11.9047 25.5391 13.0497C25.5391 14.1946 26.4672 15.1222 27.6116 15.1222Z" stroke="black" stroke-width="1.21094" stroke-linecap="round" stroke-linejoin="round"/>
<path d="M4.07939 12.358C5.60578 12.358 6.84336 11.1204 6.84336 9.59404C6.84336 8.06766 5.60578 6.83008 4.07939 6.83008C2.55301 6.83008 1.31543 8.06766 1.31543 9.59404C1.31543 11.1204 2.55301 12.358 4.07939 12.358Z" stroke="black" stroke-width="1.21094" stroke-linecap="round" stroke-linejoin="round"/>
</svg>
