<svg width="31" height="13" viewBox="0 0 31 13" fill="none" xmlns="http://www.w3.org/2000/svg">
<path d="M20.3097 3.33789H16.5576" stroke="#020202" stroke-width="1.21094" stroke-miterlimit="10"/>
<path d="M23.1395 3.33715H28.6717C29.391 3.33715 29.9747 3.92022 29.9747 4.64012C29.9747 4.82842 29.968 5.0149 29.9547 5.19957C29.8179 7.11588 28.9841 8.83904 27.706 10.1178C26.3037 11.5195 24.3668 12.3865 22.2271 12.3865H8.21291C4.24346 12.3865 1.02539 9.16842 1.02539 5.19897V4.84961C1.02539 4.01346 1.70291 3.33594 2.53906 3.33594H13.7287" stroke="#020202" stroke-width="1.21094" stroke-miterlimit="10"/>
<path d="M19.5005 5.2002H15.749" stroke="#020202" stroke-width="1.21094" stroke-miterlimit="10"/>
<path d="M22.3301 5.2002H29.9541H29.9741" stroke="#020202" stroke-width="1.21094" stroke-miterlimit="10"/>
<path d="M12.9186 5.2002H1.02539" stroke="#020202" stroke-width="1.21094" stroke-miterlimit="10"/>
<path d="M23.1209 1.41777L22.174 1.00662C21.778 0.83469 21.3177 1.01632 21.1457 1.41231L19.4756 5.25885C19.3037 5.65483 19.4853 6.11522 19.8813 6.28715L20.8282 6.6983C21.2242 6.87023 21.6846 6.6886 21.8565 6.29261L23.5266 2.44607C23.6986 2.05009 23.5169 1.5897 23.1209 1.41777Z" stroke="#020202" stroke-width="1.21094" stroke-miterlimit="10" stroke-linecap="round"/>
<path d="M16.5399 1.41777L15.593 1.00662C15.197 0.834691 14.7366 1.01632 14.5647 1.41231L12.8945 5.25885C12.7226 5.65483 12.9042 6.11522 13.3002 6.28715L14.2471 6.6983C14.6431 6.87023 15.1035 6.6886 15.2754 6.29261L16.9456 2.44607C17.1175 2.05009 16.9359 1.5897 16.5399 1.41777Z" stroke="#020202" stroke-width="1.21094" stroke-miterlimit="10" stroke-linecap="round"/>
</svg>
