<svg width="31" height="24" viewBox="0 0 31 24" fill="none" xmlns="http://www.w3.org/2000/svg">
<path d="M27.0738 18.1484H3.92676C2.50572 18.1484 1.35352 16.9962 1.35352 15.5751V5.59094C1.35352 4.71301 2.06555 4.00098 2.94348 4.00098C2.94771 4.00098 2.95256 4.00098 2.9568 4.00098C3.50111 4.00945 4.00547 4.28736 4.30397 4.74207C6.28445 7.63863 12.9271 6.38592 12.9271 4.00098L26.1444 10.0908C28.2793 11.0813 29.6459 13.2204 29.6477 15.5745C29.6477 16.9955 28.4955 18.1478 27.0744 18.1478L27.0738 18.1484Z" stroke="#020202" stroke-width="1.28178" stroke-linecap="round" stroke-linejoin="round"/>
<path d="M29.6477 15.5748V18.1481C29.6404 20.9853 27.3378 23.2812 24.5006 23.2812H3.92676C2.51299 23.2885 1.36078 22.1484 1.35352 20.7346C1.35352 20.7255 1.35352 20.7165 1.35352 20.7074V15.5742" stroke="#020202" stroke-width="1.28178" stroke-linecap="round" stroke-linejoin="round"/>
<path d="M11.6465 1.42773L12.9264 4.00158" stroke="#020202" stroke-width="1.28178" stroke-linecap="round" stroke-linejoin="round"/>
<path d="M15.5 10.428L18.0732 6.56152" stroke="#020202" stroke-width="1.28178" stroke-linecap="round" stroke-linejoin="round"/>
<path d="M19.3535 13.0019L21.9274 9.13477" stroke="#020202" stroke-width="1.28178" stroke-linecap="round" stroke-linejoin="round"/>
</svg>
