<svg width="29" height="29" viewBox="0 0 29 29" fill="none" xmlns="http://www.w3.org/2000/svg">
<path d="M6.96117 6.13281C3.56631 6.13281 0.814453 8.88406 0.814453 12.2795C0.814453 15.675 3.56691 18.4263 6.96117 18.4263C10.1811 18.4263 12.8233 15.9499 13.0867 12.7978C13.1006 12.6271 13.1079 12.4539 13.1079 12.2795C13.1079 12.1052 13.1006 11.932 13.0867 11.7613" stroke="#020202" stroke-width="1.21094" stroke-linecap="round" stroke-linejoin="round"/>
<path d="M13.0863 11.7626C13.0717 11.9333 13.0645 12.1065 13.0645 12.2809C13.0645 12.4553 13.0717 12.6284 13.0863 12.7992C13.0856 12.7998 13.0856 12.8004 13.0863 12.8016C13.3496 15.9524 15.9913 18.4282 19.2112 18.4282C22.606 18.4282 25.3579 15.6757 25.3579 12.2815C25.3579 8.88723 22.6054 6.13477 19.2112 6.13477" stroke="#020202" stroke-width="1.21094" stroke-linecap="round" stroke-linejoin="round"/>
<path d="M6.96094 6.13281H19.2108" stroke="#020202" stroke-width="1.21094" stroke-linecap="round" stroke-linejoin="round"/>
<path d="M28.3921 1.26758V22.6897C28.3921 25.5517 23.9268 27.8979 21.207 27.8979C18.675 27.8979 14.9592 27.2525 13.0635 23.5301" stroke="#020202" stroke-width="1.21094" stroke-linecap="round" stroke-linejoin="round"/>
<path d="M14.6316 23.4384H11.5401C11.1834 23.4384 10.8916 23.1211 10.8916 22.733V22.0276C10.8916 21.6395 11.1834 21.3223 11.5401 21.3223H14.6316C14.9882 21.3223 15.28 21.6395 15.28 22.0276V22.733C15.28 23.1211 14.9882 23.4384 14.6316 23.4384Z" stroke="#020202" stroke-width="1.03354" stroke-linecap="round" stroke-linejoin="round"/>
</svg>
