<svg width="31" height="21" viewBox="0 0 31 21" fill="none" xmlns="http://www.w3.org/2000/svg">
<path d="M1.87305 15.1912L4.436 14.3042C8.28012 13.023 12.6171 13.91 15.6729 16.6697C18.7287 19.4294 22.967 20.3171 26.9098 19.0353L29.4727 18.1483" stroke="black" stroke-width="1.21094" stroke-linecap="round" stroke-linejoin="round"/>
<path d="M22.5727 9.27625C24.7503 9.27625 26.5155 7.51099 26.5155 5.33344C26.5155 3.15588 24.7503 1.39062 22.5727 1.39062C20.3951 1.39062 18.6299 3.15588 18.6299 5.33344C18.6299 7.51099 20.3951 9.27625 22.5727 9.27625Z" stroke="black" stroke-width="1.21094" stroke-linecap="round" stroke-linejoin="round"/>
<path d="M17.6436 18.1479L18.6293 17.1622C20.3052 15.4863 20.3052 12.8252 18.6293 11.248L11.2365 3.85521C9.85663 2.47535 7.68784 2.47535 6.30797 3.85521L1.971 8.19218C1.37946 8.78372 1.37946 9.76943 1.971 10.361C2.46385 10.8538 3.25217 10.9525 3.94241 10.5584L8.77223 7.30578L11.7293 10.2629L8.27938 13.7128" stroke="black" stroke-width="1.21094" stroke-linecap="round" stroke-linejoin="round"/>
</svg>
