<?xml version="1.0" encoding="UTF-8"?>
<svg id="Capa_1" data-name="Capa 1" xmlns="http://www.w3.org/2000/svg" viewBox="0 0 512 512">
  <g>
    <ellipse cx="166.1" cy="116.17" rx="31.27" ry="31.49" style="fill: none; stroke: #000; stroke-miterlimit: 10; stroke-width: 20px;"/>
    <g>
      <g id="_Repetición_radial_" data-name="&amp;lt;Repetición radial&amp;gt;">
        <line x1="210.32" y1="182.84" x2="195.37" y2="160.29" style="fill: none; stroke: #000; stroke-linecap: round; stroke-linejoin: round; stroke-width: 20px;"/>
      </g>
      <g id="_Repetición_radial_-2" data-name="&amp;lt;Repetición radial&amp;gt;">
        <line x1="141.54" y1="192.31" x2="149.85" y2="166.56" style="fill: none; stroke: #000; stroke-linecap: round; stroke-linejoin: round; stroke-width: 20px;"/>
      </g>
      <g id="_Repetición_radial_-3" data-name="&amp;lt;Repetición radial&amp;gt;">
        <line x1="91.26" y1="144.44" x2="116.57" y2="134.88" style="fill: none; stroke: #000; stroke-linecap: round; stroke-linejoin: round; stroke-width: 20px;"/>
      </g>
      <g id="_Repetición_radial_-4" data-name="&amp;lt;Repetición radial&amp;gt;">
        <line x1="97.33" y1="75.28" x2="120.59" y2="89.11" style="fill: none; stroke: #000; stroke-linecap: round; stroke-linejoin: round; stroke-width: 20px;"/>
      </g>
      <g id="_Repetición_radial_-5" data-name="&amp;lt;Repetición radial&amp;gt;">
        <line x1="155.19" y1="36.91" x2="158.88" y2="63.72" style="fill: none; stroke: #000; stroke-linecap: round; stroke-linejoin: round; stroke-width: 20px;"/>
      </g>
      <g id="_Repetición_radial_-6" data-name="&amp;lt;Repetición radial&amp;gt;">
        <line x1="221.27" y1="58.22" x2="202.61" y2="77.82" style="fill: none; stroke: #000; stroke-linecap: round; stroke-linejoin: round; stroke-width: 20px;"/>
      </g>
      <g id="_Repetición_radial_-7" data-name="&amp;lt;Repetición radial&amp;gt;">
        <line x1="245.8" y1="123.17" x2="218.85" y2="120.8" style="fill: none; stroke: #000; stroke-linecap: round; stroke-linejoin: round; stroke-width: 20px;"/>
      </g>
    </g>
  </g>
  <g>
    <path d="M99.09,488.26h-22.3c-11,0-20-9-20-20v-209.48c10.93-10.93,17.07-17.07,28-28h6.3c10.93,10.93,17.07,17.07,28,28v209.48c0,11-9,20-20,20Z" style="fill: none; stroke: #000; stroke-linecap: round; stroke-linejoin: round; stroke-width: 20px;"/>
    <path d="M215.83,488.26h-22.3c-11,0-20-9-20-20v-209.48c10.93-10.93,17.07-17.07,28-28h6.3c10.93,10.93,17.07,17.07,28,28v209.48c0,11-9,20-20,20Z" style="fill: none; stroke: #000; stroke-linecap: round; stroke-linejoin: round; stroke-width: 20px;"/>
    <path d="M332.45,488.26h-22.3c-11,0-20-9-20-20v-209.48c10.93-10.93,17.07-17.07,28-28h6.3c10.93,10.93,17.07,17.07,28,28v209.48c0,11-9,20-20,20Z" style="fill: none; stroke: #000; stroke-linecap: round; stroke-linejoin: round; stroke-width: 20px;"/>
    <path d="M449.06,488.26h-22.3c-11,0-20-9-20-20v-209.48c10.93-10.93,17.07-17.07,28-28h6.3c10.93,10.93,17.07,17.07,28,28v209.48c0,11-9,20-20,20Z" style="fill: none; stroke: #000; stroke-linecap: round; stroke-linejoin: round; stroke-width: 20px;"/>
    <line x1="406.77" y1="309.88" x2="352.45" y2="309.88" style="fill: none; stroke: #000; stroke-linecap: round; stroke-linejoin: round; stroke-width: 20px;"/>
    <line x1="173.53" y1="309.88" x2="119.21" y2="309.88" style="fill: none; stroke: #000; stroke-linecap: round; stroke-linejoin: round; stroke-width: 20px;"/>
    <line x1="290.15" y1="309.88" x2="235.83" y2="309.88" style="fill: none; stroke: #000; stroke-linecap: round; stroke-linejoin: round; stroke-width: 20px;"/>
    <line x1="497.53" y1="309.88" x2="469.06" y2="309.88" style="fill: none; stroke: #000; stroke-linecap: round; stroke-linejoin: round; stroke-width: 20px;"/>
    <line x1="56.91" y1="309.88" x2="30.3" y2="309.88" style="fill: none; stroke: #000; stroke-linecap: round; stroke-linejoin: round; stroke-width: 20px;"/>
    <line x1="173.53" y1="449.88" x2="119.21" y2="449.88" style="fill: none; stroke: #000; stroke-linecap: round; stroke-linejoin: round; stroke-width: 20px;"/>
    <line x1="406.77" y1="449.88" x2="352.45" y2="449.88" style="fill: none; stroke: #000; stroke-linecap: round; stroke-linejoin: round; stroke-width: 20px;"/>
    <line x1="497.53" y1="449.88" x2="469.06" y2="449.88" style="fill: none; stroke: #000; stroke-linecap: round; stroke-linejoin: round; stroke-width: 20px;"/>
    <line x1="290.15" y1="449.88" x2="235.83" y2="449.88" style="fill: none; stroke: #000; stroke-linecap: round; stroke-linejoin: round; stroke-width: 20px;"/>
    <line x1="56.91" y1="449.88" x2="30.3" y2="449.88" style="fill: none; stroke: #000; stroke-linecap: round; stroke-linejoin: round; stroke-width: 20px;"/>
    <line x1="87.94" y1="307.04" x2="87.94" y2="314.87" style="fill: none; stroke: #000; stroke-linecap: round; stroke-linejoin: round; stroke-width: 20px;"/>
    <line x1="87.94" y1="447.3" x2="87.94" y2="455.13" style="fill: none; stroke: #000; stroke-linecap: round; stroke-linejoin: round; stroke-width: 20px;"/>
    <line x1="204.94" y1="307.04" x2="204.94" y2="314.87" style="fill: none; stroke: #000; stroke-linecap: round; stroke-linejoin: round; stroke-width: 20px;"/>
    <line x1="204.94" y1="447.3" x2="204.94" y2="455.13" style="fill: none; stroke: #000; stroke-linecap: round; stroke-linejoin: round; stroke-width: 20px;"/>
    <line x1="319.94" y1="307.04" x2="319.94" y2="314.87" style="fill: none; stroke: #000; stroke-linecap: round; stroke-linejoin: round; stroke-width: 20px;"/>
    <line x1="319.94" y1="447.3" x2="319.94" y2="455.13" style="fill: none; stroke: #000; stroke-linecap: round; stroke-linejoin: round; stroke-width: 20px;"/>
    <line x1="438.94" y1="307.04" x2="438.94" y2="314.87" style="fill: none; stroke: #000; stroke-linecap: round; stroke-linejoin: round; stroke-width: 20px;"/>
    <line x1="438.94" y1="447.3" x2="438.94" y2="455.13" style="fill: none; stroke: #000; stroke-linecap: round; stroke-linejoin: round; stroke-width: 20px;"/>
  </g>
</svg>