<?xml version="1.0" encoding="UTF-8"?>
<svg id="coffemaker" xmlns="http://www.w3.org/2000/svg" viewBox="0 0 512 512">
  <rect x="37.19" y="69.43" width="444.26" height="111.67" rx="50.72" ry="50.72" style="fill: none; stroke: #000; stroke-miterlimit: 10; stroke-width: 20px;"/>
  <rect x="148.83" y="185.11" width="28.6" height="55.83" rx="12" ry="12" style="fill: none; stroke: #000; stroke-miterlimit: 10; stroke-width: 20px;"/>
  <path d="M481.45,415.24v45.05c0,12.72-9,23.12-20,23.12H84.77c-11,0-20-10.4-20-23.12v-21.93c0-12.72,9-23.12,20-23.12H366.04" style="fill: none; stroke: #000; stroke-linecap: round; stroke-linejoin: round; stroke-width: 20px;"/>
  <path d="M366.04,415.24V188.9c0-4.32,3.44-7.79,7.65-7.79h58.24c4.2,0,8.26,3.47,9.04,7.79l40.48,226.34" style="fill: none; stroke: #000; stroke-linecap: round; stroke-linejoin: round; stroke-width: 20px;"/>
  <circle cx="416.09" cy="360.85" r="12.26" style="fill: none; stroke: #000; stroke-miterlimit: 10; stroke-width: 20px;"/>
  <g>
    <path d="M71.02,309.79c0,41.81,11.32,79.46,29.38,105.77h124.04c18.07-26.31,29.38-63.95,29.38-105.77,0-11.62-.88-22.92-2.53-33.74H73.55c-1.65,10.83-2.53,22.12-2.53,33.74Z" style="fill: none; stroke: #000; stroke-miterlimit: 10; stroke-width: 20px;"/>
    <path d="M80.1,372.41c-5.19,3.43-11.16,5.39-17.51,5.39-20.02,0-36.25-19.43-36.25-43.4s16.23-43.41,36.25-43.41c3.14,0,6.19,.48,9.1,1.38" style="fill: none; stroke: #000; stroke-miterlimit: 10; stroke-width: 20px;"/>
  </g>
</svg>