<svg width="27" height="31" viewBox="0 0 27 31" fill="none" xmlns="http://www.w3.org/2000/svg">
<path d="M25.6065 1.25732H2.20215C1.80088 1.25732 1.47559 1.58262 1.47559 1.98389V29.408C1.47559 29.8093 1.80088 30.1346 2.20215 30.1346H25.6065C26.0078 30.1346 26.3331 29.8093 26.3331 29.408V1.98389C26.3331 1.58262 26.0078 1.25732 25.6065 1.25732Z" stroke="black" stroke-width="1.21094" stroke-miterlimit="10"/>
<path d="M1.47559 7.93506H26.3331" stroke="black" stroke-width="1.21094" stroke-miterlimit="10"/>
<path d="M23.1483 11.1094H4.65967C4.2584 11.1094 3.93311 11.4347 3.93311 11.8359V26.2231C3.93311 26.6244 4.2584 26.9496 4.65967 26.9496H23.1483C23.5495 26.9496 23.8748 26.6244 23.8748 26.2231V11.8359C23.8748 11.4347 23.5495 11.1094 23.1483 11.1094Z" stroke="black" stroke-width="1.21094" stroke-miterlimit="10"/>
<path d="M17.0833 3.31592H10.8379C10.4366 3.31592 10.1113 3.64121 10.1113 4.04248V4.35187C10.1113 4.75314 10.4366 5.07844 10.8379 5.07844H17.0833C17.4846 5.07844 17.8099 4.75314 17.8099 4.35187V4.04248C17.8099 3.64121 17.4846 3.31592 17.0833 3.31592Z" stroke="black" stroke-width="1.21094" stroke-miterlimit="10"/>
<path d="M8.09129 4.48727C8.25146 4.48727 8.38131 4.35742 8.38131 4.19725C8.38131 4.03707 8.25146 3.90723 8.09129 3.90723C7.93112 3.90723 7.80127 4.03707 7.80127 4.19725C7.80127 4.35742 7.93112 4.48727 8.09129 4.48727Z" fill="black" stroke="black" stroke-width="1.21094" stroke-miterlimit="10"/>
<path d="M19.7163 4.48727C19.8765 4.48727 20.0063 4.35742 20.0063 4.19725C20.0063 4.03707 19.8765 3.90723 19.7163 3.90723C19.5561 3.90723 19.4263 4.03707 19.4263 4.19725C19.4263 4.35742 19.5561 4.48727 19.7163 4.48727Z" fill="black" stroke="black" stroke-width="1.21094" stroke-miterlimit="10"/>
<path d="M12.6626 25.6228C12.2442 26.4511 11.7059 26.95 11.1186 26.95C9.78658 26.95 8.70703 24.3865 8.70703 21.2247C8.70703 18.0629 9.78658 15.5 11.1186 15.5C11.7059 15.5 12.2442 15.9983 12.6626 16.8266" stroke="black" stroke-width="1.21094" stroke-miterlimit="10"/>
<path d="M15.7505 16.8266C15.3321 15.9983 14.7938 15.5 14.2065 15.5C13.6192 15.5 13.0809 15.9983 12.6626 16.8266C12.1322 17.8765 11.7949 19.4573 11.7949 21.2247C11.7949 22.9921 12.1322 24.5729 12.6626 25.6228C13.0809 26.4511 13.6192 26.95 14.2065 26.95C14.7938 26.95 15.3321 26.4511 15.7505 25.6228" stroke="black" stroke-width="1.21094" stroke-miterlimit="10"/>
<path d="M17.2944 26.9494C18.6263 26.9494 19.706 24.3864 19.706 21.2247C19.706 18.063 18.6263 15.5 17.2944 15.5C15.9625 15.5 14.8828 18.063 14.8828 21.2247C14.8828 24.3864 15.9625 26.9494 17.2944 26.9494Z" stroke="black" stroke-width="1.21094" stroke-miterlimit="10"/>
<path d="M17.3322 23.0079C17.596 23.0079 17.8099 22.1087 17.8099 20.9995C17.8099 19.8904 17.596 18.9912 17.3322 18.9912C17.0684 18.9912 16.8545 19.8904 16.8545 20.9995C16.8545 22.1087 17.0684 23.0079 17.3322 23.0079Z" fill="black"/>
</svg>
