<?xml version="1.0" encoding="UTF-8"?>
<svg id="congelador" xmlns="http://www.w3.org/2000/svg" viewBox="0 0 512 512">
  <g>
    <rect x="134.98" y="18.04" width="242.04" height="475.91" rx="20" ry="20" style="fill: none; stroke: #000; stroke-linecap: round; stroke-linejoin: round; stroke-width: 20px;"/>
    <line x1="180.94" y1="397" x2="180.94" y2="437.87" style="fill: none; stroke: #000; stroke-linecap: round; stroke-linejoin: round; stroke-width: 20px;"/>
    <line x1="180.94" y1="95" x2="180.94" y2="174.66" style="fill: none; stroke: #000; stroke-linecap: round; stroke-linejoin: round; stroke-width: 20px;"/>
    <line x1="134.98" y1="344.3" x2="377.02" y2="344.3" style="fill: none; stroke: #000; stroke-linecap: round; stroke-linejoin: round; stroke-width: 20px;"/>
  </g>
  <path d="M260.45,203.97c17.21-16.32,18.83-5.31,0,12.57v19.71l17.24-9.94c6.02-25.12,16.35-29.01,10.89-6.29,17.53-10.12,21.87-2.06,4.46,7.97,22.72,6.73,14.05,13.66-10.89,6.29l-17.03,9.83,17.21,9.91c24.76-7.32,33.32-.35,10.89,6.29,17.53,10.12,12.75,17.91-4.66,7.85,5.55,23.08-4.81,18.95-10.89-6.29l-17.21-9.91v19.8c18.83,17.88,17.21,28.9,0,12.57,0,20.25-9.15,20.54-9.15,.12-16.94,16.12-18.74,5.23,0-12.57v-19.8l-16.97,9.8c-6.08,25.24-16.44,29.37-10.89,6.29-17.5,10.12-22.34,2.36-4.66-7.85-22.4-6.64-13.9-13.63,10.89-6.29l17.21-9.91-17.03-9.83c-24.91,7.38-33.62,.44-10.89-6.29-17.53-10.12-13.19-18.18,4.46-7.97-5.46-22.75,4.84-18.83,10.89,6.29l17.03,9.83v-19.71c-18.74-17.8-16.97-28.66,0-12.57,0-20.25,9.12-19.98,9.12,.12h-.01Z" style="stroke: #000; stroke-miterlimit: 10;"/>
</svg>