<?xml version="1.0" encoding="UTF-8"?>
<svg id="Garden" xmlns="http://www.w3.org/2000/svg" viewBox="0 0 512 512">
  <line x1="21.87" y1="488.92" x2="499.83" y2="488.89" style="fill: none; stroke: #000; stroke-linecap: round; stroke-linejoin: round; stroke-width: 20px;"/>
  <path d="M184.97,488.91c5.41-6.19,8.48-13.28,8.48-20.82,0-24.26-31.78-43.92-70.98-43.92s-70.98,19.66-70.98,43.92c0,7.54,3.07,14.63,8.48,20.83" style="fill: none; stroke: #000; stroke-linecap: round; stroke-linejoin: round; stroke-width: 20px;"/>
  <g>
    <rect x="370.19" y="447.81" width="121.53" height="41.55" rx="20" ry="20" style="fill: none; stroke: #000; stroke-linecap: round; stroke-linejoin: round; stroke-width: 20px;"/>
    <path d="M402.45,407.66h57.02c11.04,0,20,8.96,20,20h0c0,10.84-8.8,19.64-19.64,19.64h-57.74c-10.84,0-19.64-8.8-19.64-19.64h0c0-11.04,8.96-20,20-20Z" style="fill: none; stroke: #000; stroke-linecap: round; stroke-linejoin: round; stroke-width: 20px;"/>
    <path d="M418.13,372.91h25.4c8.28,0,15,6.72,15,15v4.75c0,8.28-6.72,15-15,15h-25.15c-8.28,0-15-6.72-15-15v-5c0-8.14,6.61-14.75,14.75-14.75Z" style="fill: none; stroke: #000; stroke-linecap: round; stroke-linejoin: round; stroke-width: 20px;"/>
  </g>
  <path d="M277.29,338.2c80.45-.82,145.08-8.17,159.52-64.67" style="fill: none; stroke: #000; stroke-linecap: round; stroke-linejoin: round; stroke-width: 20px;"/>
  <path d="M136.3,128.27c-39.26,28.78-64.13,71.46-64.13,119.1,0,62.95,43.43,82.42,106.11,88.36" style="fill: none; stroke: #000; stroke-linecap: round; stroke-linejoin: round; stroke-width: 20px;"/>
  <path d="M181.73,103.78c22.71-8.57,47.84-13.33,74.27-13.33,101.53,0,183.83,70.25,183.83,156.92,0,1.07-.01,2.13-.04,3.18" style="fill: none; stroke: #000; stroke-linecap: round; stroke-linejoin: round; stroke-width: 20px;"/>
  <path d="M189.64,453.86c11.01,.63,22.91,.74,35.32,.74,56.61,0,102.5-2.2,102.5-46.86s-45.89-80.87-102.5-80.87-102.49,36.21-102.49,80.87c0,6.29,.91,11.74,2.63,16.46" style="fill: none; stroke: #000; stroke-linecap: round; stroke-linejoin: round; stroke-width: 20px;"/>
  <circle cx="94.38" cy="456.55" r="2.04" style="fill: none; stroke: #000; stroke-linecap: round; stroke-linejoin: round; stroke-width: 20px;"/>
  <rect x="322.89" y="154.04" width="50.55" height="32.66" rx="16.33" ry="16.33" style="fill: none; stroke: #000; stroke-linecap: round; stroke-linejoin: round; stroke-width: 20px;"/>
  <rect x="400.26" y="250.55" width="57.77" height="22.98" rx="11.49" ry="11.49" style="fill: none; stroke: #000; stroke-linecap: round; stroke-linejoin: round; stroke-width: 20px;"/>
  <rect x="132.17" y="103.49" width="61.28" height="29.27" rx="14.63" ry="14.63" style="fill: none; stroke: #000; stroke-linecap: round; stroke-linejoin: round; stroke-width: 20px;"/>
  <rect x="102.58" y="256.19" width="79.15" height="34.69" rx="15.72" ry="15.72" style="fill: none; stroke: #000; stroke-linecap: round; stroke-linejoin: round; stroke-width: 20px;"/>
  <g>
    <polyline points="265.45 256 265.45 289.49 265.45 331.74 265.45 333.42" style="fill: none; stroke: #000; stroke-linecap: round; stroke-linejoin: round; stroke-width: 20px;"/>
    <line x1="265.45" y1="488.89" x2="265.45" y2="453.51" style="fill: none; stroke: #000; stroke-linecap: round; stroke-linejoin: round; stroke-width: 20px;"/>
    <path d="M265.45,331.74c0-19.48,20.28-35.23,45.33-35.23" style="fill: none; stroke: #000; stroke-linecap: round; stroke-linejoin: round; stroke-width: 20px;"/>
    <path d="M265.6,289.87c-11.4-29.92-35.35-48.53-53.55-41.59" style="fill: none; stroke: #000; stroke-linecap: round; stroke-linejoin: round; stroke-width: 20px;"/>
  </g>
  <g>
    <polyline points="228.57 451.99 228.57 450.91 228.57 423.76 228.57 402.25" style="fill: none; stroke: #000; stroke-linecap: round; stroke-linejoin: round; stroke-width: 20px;"/>
    <path d="M228.57,450.91c0-12.51-12.99-22.64-29.03-22.64" style="fill: none; stroke: #000; stroke-linecap: round; stroke-linejoin: round; stroke-width: 20px;"/>
    <path d="M228.47,424.01c7.3-19.22,22.64-31.18,34.29-26.72" style="fill: none; stroke: #000; stroke-linecap: round; stroke-linejoin: round; stroke-width: 20px;"/>
  </g>
  <circle cx="195.59" cy="366.87" r=".57" style="fill: none; stroke: #000; stroke-linecap: round; stroke-linejoin: round; stroke-width: 20px;"/>
  <circle cx="253.59" cy="363.87" r=".57" style="fill: none; stroke: #000; stroke-linecap: round; stroke-linejoin: round; stroke-width: 20px;"/>
  <circle cx="225.59" cy="350.87" r=".57" style="fill: none; stroke: #000; stroke-linecap: round; stroke-linejoin: round; stroke-width: 20px;"/>
  <line x1="228.57" y1="450.91" x2="228.47" y2="486.13" style="fill: none; stroke: #000; stroke-linecap: round; stroke-linejoin: round; stroke-width: 20px;"/>
  <line x1="85.19" y1="70.46" x2="78.04" y2="78.99" style="fill: none; stroke: #000; stroke-linecap: round; stroke-linejoin: round; stroke-width: 20px;"/>
  <line x1="181.73" y1="29.96" x2="189.36" y2="39.15" style="fill: none; stroke: #000; stroke-linecap: round; stroke-linejoin: round; stroke-width: 20px;"/>
  <line x1="417.11" y1="20.77" x2="403.38" y2="26.89" style="fill: none; stroke: #000; stroke-linecap: round; stroke-linejoin: round; stroke-width: 20px;"/>
  <line x1="479.47" y1="97.36" x2="491.72" y2="97.36" style="fill: none; stroke: #000; stroke-linecap: round; stroke-linejoin: round; stroke-width: 20px;"/>
  <line x1="458.53" y1="170.5" x2="464.09" y2="178.95" style="fill: none; stroke: #000; stroke-linecap: round; stroke-linejoin: round; stroke-width: 20px;"/>
  <line x1="479.47" y1="331.74" x2="485.6" y2="321.6" style="fill: none; stroke: #000; stroke-linecap: round; stroke-linejoin: round; stroke-width: 20px;"/>
  <line x1="56.6" y1="375.24" x2="51.49" y2="382.83" style="fill: none; stroke: #000; stroke-linecap: round; stroke-linejoin: round; stroke-width: 20px;"/>
</svg>