<?xml version="1.0" encoding="UTF-8"?>
<svg id="Hair_dryer" data-name="Hair dryer" xmlns="http://www.w3.org/2000/svg" viewBox="0 0 512 512">
  <path d="M374.62,94.37c-34.06-8.9-68.16-17.64-102.13-26.87-17.28-4.69-34.52-9.52-51.71-14.56-15.76-4.62-31.75-10.9-48.3-10.9-57.36,0-103.87,49.14-103.87,109.76,0,33.04,14.45,64.85,38.81,85.56,13.01,11.06,28.73,18.35,45.13,21.52,18.19,3.52,34.08,.21,52.01-3.58,57.25-12.11,113.4-29.53,170.07-44.15,2.75-.71,4.96-4.07,4.96-7.47V101.85c0-3.41-2.21-6.76-4.96-7.48Z" style="fill: none; stroke: #000; stroke-linecap: round; stroke-linejoin: round; stroke-width: 20px;"/>
  <circle cx="184.9" cy="151.8" r="48.14" style="fill: none; stroke: #000; stroke-linecap: round; stroke-linejoin: round; stroke-width: 20px;"/>
  <path d="M404.57,124.09c25.28-20.03,39.02,16.47,62.03,7.57" style="fill: none; stroke: #000; stroke-linecap: round; stroke-linejoin: round; stroke-width: 20px;"/>
  <path d="M412.57,155.12c25.28-20.03,39.02,16.47,62.03,7.57" style="fill: none; stroke: #000; stroke-linecap: round; stroke-linejoin: round; stroke-width: 20px;"/>
  <path d="M402.57,186.61c25.28-20.09,39.02,16.52,62.03,7.6" style="fill: none; stroke: #000; stroke-linecap: round; stroke-linejoin: round; stroke-width: 20px;"/>
  <path d="M272.12,238.72c-.15,.11-.31,.21-.46,.32-15.79,11.11-27.65,32.54-34.04,56.8-6.45,24.51-7.64,51.72-5.66,78.13,1.05,13.95,3.09,28.22,7.8,40.64,4.42,11.65,13.24,20.49,16.2,33.01,.91,3.85,1.04,8.08-.32,11.72-1.66,4.44-5.34,7.47-9.26,8.99-9.52,3.68-20.11,3.24-30.04,3.31-10.57,.08-21.14-.31-31.69-1.16-2.32-.19-5.03-.7-6.1-3.14-.5-1.14-.5-2.47-.49-3.75,.33-24.02,2.43-47.49-.07-71.54-6.14-59.03-28.4-112.37-60.66-147.32" style="fill: none; stroke: #000; stroke-linecap: round; stroke-linejoin: round; stroke-width: 20px;"/>
</svg>