<?xml version="1.0" encoding="UTF-8"?>
<svg id="Capa_23" data-name="Capa 23" xmlns="http://www.w3.org/2000/svg" viewBox="0 0 512 512">
  <path d="M297.78,81.83h0c54.4,0,98.5,44.1,98.5,98.5H199.28c0-54.4,44.1-98.5,98.5-98.5Z" style="fill: none; stroke: #020202; stroke-miterlimit: 333.33; stroke-width: 25.32px;"/>
  <path d="M297.78,81.83h0c0-32.66-26.48-59.15-59.15-59.15h-98.5c-32.55-.11-59.03,26.19-59.15,58.73V476.06" style="fill: none; stroke: #020202; stroke-miterlimit: 333.33; stroke-width: 25.32px;"/>
  <path d="M356.88,315.08c0,8.83,7.16,16,15.98,16s15.98-7.16,15.98-16-15.98-28.48-15.98-28.48c0,0-15.98,19.64-15.98,28.48Z"/>
  <path d="M226.74,227.59c0,8.83,7.15,16,15.98,16s15.98-7.16,15.98-16-15.98-28.48-15.98-28.48c0,0-15.98,19.64-15.98,28.48h0Z"/>
  <path d="M195.23,359.35c0,11.07,8.96,20.04,20.02,20.04s20.02-8.97,20.02-20.04-20.02-35.67-20.02-35.67c0,0-20.02,24.6-20.02,35.67h0Z"/>
  <g>
    <path d="M322.07,389.02V233.75c0-13.3-10.88-24.17-24.17-24.17h-.21c-13.3,0-24.17,10.88-24.17,24.17v155.27c-18.24,8.97-30.78,27.73-30.78,49.42,0,30.4,24.65,55.05,55.06,55.05s55.05-24.65,55.05-55.05c0-21.69-12.55-40.45-30.77-49.42Z" style="fill: none; stroke: #020202; stroke-miterlimit: 333.33; stroke-width: 25.32px;"/>
    <circle cx="297.78" cy="435.34" r="22.43" style="stroke: #020202; stroke-miterlimit: 333.33; stroke-width: 25.32px;"/>
    <line x1="322.07" y1="349.79" x2="297.78" y2="349.79" style="fill: none; stroke: #020202; stroke-miterlimit: 333.33; stroke-width: 25.32px;"/>
    <line x1="322.07" y1="300.64" x2="297.78" y2="300.64" style="fill: none; stroke: #020202; stroke-miterlimit: 333.33; stroke-width: 25.32px;"/>
    <line x1="322.07" y1="251.48" x2="297.78" y2="251.48" style="fill: none; stroke: #020202; stroke-miterlimit: 333.33; stroke-width: 25.32px;"/>
  </g>
</svg>