<?xml version="1.0" encoding="UTF-8"?>
<svg id="Jacuzzi" xmlns="http://www.w3.org/2000/svg" viewBox="0 0 512 512">
  <path d="M32.85,20.49H462.3c6.62,0,12,5.38,12,12V109.11c0,210.53-170.92,381.45-381.45,381.45H32.85c-6.62,0-12-5.38-12-12V32.49c0-6.62,5.38-12,12-12Z" style="fill: none; stroke: #000; stroke-linecap: round; stroke-linejoin: round; stroke-width: 20px;"/>
  <path d="M393.7,280.79c26.16-46.92,41.09-100.85,41.09-158.11V57.07c0-5.65-4.63-10.28-10.28-10.28H56.72c-5.65,0-10.27,4.63-10.27,10.28V439.08c0,5.65,4.62,10.28,10.27,10.28h51.39c72.5,0,139.7-23.94,194.05-64.32" style="fill: none; stroke: #000; stroke-linecap: round; stroke-linejoin: round; stroke-width: 20px;"/>
  <path d="M302.16,385.04c-4.55-12.38-.08-29.51,14.55-45.08l44.9-48.43c7.55-8.34,20.58-12.66,32.09-10.74" style="fill: none; stroke: #000; stroke-linecap: round; stroke-linejoin: round; stroke-width: 20px;"/>
  <line x1="291.05" y1="280.34" x2="355.83" y2="340.94" style="fill: none; stroke: #000; stroke-linecap: round; stroke-linejoin: round; stroke-width: 20px;"/>
  <circle cx="336.43" cy="359.51" r="1.06" style="fill: none; stroke: #000; stroke-linecap: round; stroke-linejoin: round; stroke-width: 20px;"/>
  <circle cx="376.43" cy="316.51" r="1.06" style="fill: none; stroke: #000; stroke-linecap: round; stroke-linejoin: round; stroke-width: 20px;"/>
  <circle cx="70.34" cy="275.57" r="1.06" style="fill: none; stroke: #000; stroke-linecap: round; stroke-linejoin: round; stroke-width: 20px;"/>
  <circle cx="70.34" cy="250.57" r="1.06" style="fill: none; stroke: #000; stroke-linecap: round; stroke-linejoin: round; stroke-width: 20px;"/>
  <circle cx="70.34" cy="224.57" r="1.06" style="fill: none; stroke: #000; stroke-linecap: round; stroke-linejoin: round; stroke-width: 20px;"/>
  <circle cx="281.88" cy="70" r="1.06" style="fill: none; stroke: #000; stroke-linecap: round; stroke-linejoin: round; stroke-width: 20px;"/>
  <circle cx="256.88" cy="70" r="1.06" style="fill: none; stroke: #000; stroke-linecap: round; stroke-linejoin: round; stroke-width: 20px;"/>
  <circle cx="230.88" cy="70" r="1.06" style="fill: none; stroke: #000; stroke-linecap: round; stroke-linejoin: round; stroke-width: 20px;"/>
</svg>