<svg width="21" height="21" viewBox="0 0 21 21" fill="none" xmlns="http://www.w3.org/2000/svg">
<path d="M19.5 20H1.5C1.22 20 1 19.6517 1 19.2083V1.79167C1 1.34833 1.22 1 1.5 1H19.5C19.78 1 20 1.34833 20 1.79167V19.2083C20 19.6517 19.78 20 19.5 20Z" stroke="#0F0F0F" stroke-miterlimit="10" stroke-linecap="round" stroke-linejoin="round"/>
<path d="M18 8.5H16" stroke="#0F0F0F" stroke-miterlimit="10" stroke-linecap="round" stroke-linejoin="round"/>
<path d="M18 12.5H16" stroke="#0F0F0F" stroke-miterlimit="10" stroke-linecap="round" stroke-linejoin="round"/>
<path d="M5 12.5H3" stroke="#0F0F0F" stroke-miterlimit="10" stroke-linecap="round" stroke-linejoin="round"/>
<path d="M5 8.5H3" stroke="#0F0F0F" stroke-miterlimit="10" stroke-linecap="round" stroke-linejoin="round"/>
<path d="M18 4H16" stroke="#0F0F0F" stroke-miterlimit="10" stroke-linecap="round" stroke-linejoin="round"/>
<path d="M5 4.5H3" stroke="#0F0F0F" stroke-miterlimit="10" stroke-linecap="round" stroke-linejoin="round"/>
<path d="M18 16H16" stroke="#0F0F0F" stroke-miterlimit="10" stroke-linecap="round" stroke-linejoin="round"/>
<path d="M5 16.5H3" stroke="#0F0F0F" stroke-miterlimit="10" stroke-linecap="round" stroke-linejoin="round"/>
<path d="M12.2388 10.0051L9.3588 8.16512C8.9888 7.92512 8.49878 8.20512 8.49878 8.65512V12.3451C8.49878 12.7951 8.9888 13.0751 9.3588 12.8351L12.2388 10.9951C12.5888 10.7551 12.5888 10.2351 12.2388 10.0051Z" stroke="#0F0F0F" stroke-miterlimit="10" stroke-linecap="round" stroke-linejoin="round"/>
</svg>
