<svg width="31" height="31" viewBox="0 0 31 31" fill="none" xmlns="http://www.w3.org/2000/svg">
<path d="M6.68418 14.7915H22.9955C23.1893 14.7915 23.3467 14.9489 23.3467 15.1427V16.5958C23.3467 16.7896 23.1893 16.947 22.9955 16.947H6.68418C6.49043 16.947 6.33301 16.7896 6.33301 16.5958V15.1427C6.33301 14.9489 6.49043 14.7915 6.68418 14.7915Z" stroke="black" stroke-width="1.18888" stroke-miterlimit="10" stroke-linecap="round"/>
<path d="M6.33301 15.5244H12.7086" stroke="black" stroke-width="1.18888" stroke-miterlimit="10"/>
<path d="M6.33301 16.2627H12.7086" stroke="black" stroke-width="1.18888" stroke-miterlimit="10"/>
<path d="M22.8079 9.71777C22.8079 9.71777 22.1176 10.517 22.2327 10.8863C22.4385 11.5584 23.1409 11.2436 23.3225 11.9338C23.5041 12.624 22.6383 13.2719 22.6383 13.2719" stroke="black" stroke-width="1.18888" stroke-linecap="round" stroke-linejoin="round"/>
<path d="M15.5 29.7285C23.3582 29.7285 29.7285 23.3582 29.7285 15.5C29.7285 7.64181 23.3582 1.27148 15.5 1.27148C7.64181 1.27148 1.27148 7.64181 1.27148 15.5C1.27148 23.3582 7.64181 29.7285 15.5 29.7285Z" stroke="black" stroke-width="1.18888" stroke-miterlimit="10" stroke-linecap="round"/>
<path d="M7.32617 3.85693L24.3822 26.6165" stroke="black" stroke-width="1.18888" stroke-miterlimit="10" stroke-linecap="round"/>
</svg>
