<?xml version="1.0" encoding="UTF-8"?>
<svg id="Outdoor_shower" data-name="Outdoor shower" xmlns="http://www.w3.org/2000/svg" viewBox="0 0 512 512">
  <g>
    <path d="M399.8,269.64H252.63c0-40.64,32.95-73.59,73.59-73.59h0c40.64,0,73.59,32.95,73.59,73.59Z" style="fill: none; stroke: #020202; stroke-miterlimit: 333.33; stroke-width: 20px;"/>
    <path d="M488.17,490.56V196.05c0-.1,0-.2,0-.31-.09-24.31-19.87-43.95-44.18-43.87h-73.59c-24.4,0-44.18,19.78-44.18,44.18h0" style="fill: none; stroke: #020202; stroke-miterlimit: 333.33; stroke-width: 20px;"/>
  </g>
  <path d="M271.25,379.14c0,9.4,7.62,17.03,17.01,17.03s17.01-7.62,17.01-17.03-17.01-30.3-17.01-30.3c0,0-17.01,20.9-17.01,30.3Z"/>
  <path d="M319.62,444.86c0,7.44,6.02,13.48,13.47,13.48s13.47-6.03,13.47-13.48-13.47-23.99-13.47-23.99c0,0-13.47,16.55-13.47,23.99h0Z"/>
  <path d="M319.62,338.25c0,9.32,7.55,16.88,16.87,16.88s16.87-7.56,16.87-16.88-16.87-30.05-16.87-30.05c0,0-16.87,20.73-16.87,30.05h0Z"/>
  <path d="M88.17,122.31c-9.35-7.69-15.3-19.34-15.3-32.38,0-23.14,18.76-41.9,41.91-41.9,19.04,0,35.11,12.69,40.21,30.07" style="fill: none; fill-rule: evenodd; stroke: #020202; stroke-miterlimit: 333.33; stroke-width: 20px;"/>
  <path d="M221.23,191.07c7.75-7.94,11.07-19.37,10.52-30.29-.28-5.51-1.58-10.88-3.97-15.86-1.24-2.57-2.74-5.02-4.49-7.27-.79-1.02-5.82-5.11-5.83-6.01-.38-30.37-23.21-54.86-51.33-54.86-24.23,0-44.53,18.19-49.93,42.64-3.19-.78-6.53-1.2-9.96-1.2-23.18,0-41.96,18.79-41.96,41.96,0,10.1,3.85,20.52,10.57,28.1s18.76,12.32,28.74,14.77c14.99,3.67,31.09,4.44,46.48,4.44,13.97,0,28.49-1.08,42.3-3.32,10.54-1.71,21.2-5.37,28.71-12.96,.05-.05,.1-.1,.15-.15Z" style="fill: none; fill-rule: evenodd; stroke: #020202; stroke-miterlimit: 333.33; stroke-width: 20px;"/>
  <line x1="103.14" y1="20.6" x2="103.96" y2="26.3" style="fill: none; stroke: #020202; stroke-linecap: round; stroke-linejoin: round; stroke-width: 20px;"/>
  <line x1="156.14" y1="41.82" x2="161.03" y2="36.4" style="fill: none; stroke: #020202; stroke-linecap: round; stroke-linejoin: round; stroke-width: 20px;"/>
  <line x1="58.5" y1="46.92" x2="62.96" y2="51.29" style="fill: none; stroke: #020202; stroke-linecap: round; stroke-linejoin: round; stroke-width: 20px;"/>
  <line x1="48.5" y1="107.69" x2="52.52" y2="106.32" style="fill: none; stroke: #020202; stroke-linecap: round; stroke-linejoin: round; stroke-width: 20px;"/>
</svg>