<?xml version="1.0" encoding="UTF-8"?>
<svg id="Oven" xmlns="http://www.w3.org/2000/svg" viewBox="0 0 512 512">
  <path d="M50.85,58.5H461.15c5.99,0,10.85,4.86,10.85,10.85V419.27c0,24.94-20.25,45.19-45.19,45.19H85.19c-24.94,0-45.19-20.25-45.19-45.19V69.35c0-5.99,4.86-10.85,10.85-10.85Z" style="fill: none; stroke: #000; stroke-linecap: round; stroke-linejoin: round; stroke-width: 20px;"/>
  <path d="M122.57,200.58h254.78c3.1,0,5.62,2.52,5.62,5.62v147.88c0,12.92-10.49,23.41-23.41,23.41H140.36c-12.92,0-23.41-10.49-23.41-23.41V206.2c0-3.1,2.52-5.62,5.62-5.62Z" style="fill: none; stroke: #000; stroke-linecap: round; stroke-linejoin: round; stroke-width: 20px;"/>
  <line x1="186.42" y1="234.53" x2="328.48" y2="234.53" style="fill: none; stroke: #000; stroke-linecap: round; stroke-linejoin: round; stroke-width: 20px;"/>
  <line x1="77.79" y1="47.54" x2="197.28" y2="47.54" style="fill: none; stroke: #000; stroke-linecap: round; stroke-linejoin: round; stroke-width: 20px;"/>
  <line x1="319.79" y1="47.54" x2="439.28" y2="47.54" style="fill: none; stroke: #000; stroke-linecap: round; stroke-linejoin: round; stroke-width: 20px;"/>
  <circle cx="148.74" cy="129.46" r="9.83" style="fill: none; stroke: #000; stroke-linecap: round; stroke-linejoin: round; stroke-width: 20px;"/>
  <circle cx="191.74" cy="129.46" r="9.83" style="fill: none; stroke: #000; stroke-linecap: round; stroke-linejoin: round; stroke-width: 20px;"/>
  <circle cx="312.74" cy="129.46" r="9.83" style="fill: none; stroke: #000; stroke-linecap: round; stroke-linejoin: round; stroke-width: 20px;"/>
  <circle cx="355.74" cy="129.46" r="9.83" style="fill: none; stroke: #000; stroke-linecap: round; stroke-linejoin: round; stroke-width: 20px;"/>
</svg>