<svg width="31" height="31" viewBox="0 0 31 31" fill="none" xmlns="http://www.w3.org/2000/svg">
<path d="M15.5 29.7285C23.3582 29.7285 29.7285 23.3582 29.7285 15.5C29.7285 7.64181 23.3582 1.27148 15.5 1.27148C7.64181 1.27148 1.27148 7.64181 1.27148 15.5C1.27148 23.3582 7.64181 29.7285 15.5 29.7285Z" stroke="black" stroke-width="1.20847" stroke-miterlimit="10"/>
<path d="M11.3403 7.73184C12.3575 7.5623 13.6835 7.41699 15.3788 7.41699C17.4556 7.41699 18.9813 7.90137 19.944 8.77324C20.8401 9.54824 21.3729 10.7289 21.3729 12.182C21.3729 13.6352 20.937 14.8158 20.1136 15.6635C18.9995 16.8502 17.1892 17.4496 15.1366 17.4496C14.5069 17.4496 13.9257 17.4254 13.4474 17.3043V23.8313H11.3464L11.3403 7.73184ZM13.4413 15.5848C13.9015 15.7059 14.4827 15.7543 15.179 15.7543C17.7159 15.7543 19.2659 14.5191 19.2659 12.2729C19.2659 10.0266 17.7462 9.08203 15.4272 9.08203C14.5069 9.08203 13.8106 9.15469 13.4474 9.25156L13.4413 15.5848Z" fill="black"/>
</svg>
