<?xml version="1.0" encoding="UTF-8"?>
<svg id="PoolTable-01" xmlns="http://www.w3.org/2000/svg" viewBox="0 0 512 512">
  <g>
    <path d="M335.49,503.12H118.87c-12.28,0-22.27-9.99-22.27-22.27V31.16c0-12.28,9.99-22.27,22.27-22.27h216.62c12.28,0,22.27,9.99,22.27,22.27V480.84c0,12.28-9.99,22.27-22.27,22.27ZM118.87,29.13c-1.1,0-2.02,.93-2.02,2.03V480.84c0,1.1,.93,2.03,2.02,2.03h216.62c1.1,0,2.03-.93,2.03-2.03V31.16c0-1.1-.93-2.03-2.03-2.03H118.87Z"/>
    <path d="M124.07,71.4c-8.99,0-17.58-3.35-24.2-9.44-4.12-3.79-4.38-10.19-.6-14.31,3.78-4.11,10.19-4.39,14.31-.6,2.87,2.64,6.6,4.09,10.49,4.09,8.57,0,15.54-6.98,15.54-15.55,0-3.68-1.31-7.24-3.69-10.04-3.62-4.26-3.1-10.65,1.16-14.27,4.26-3.62,10.65-3.1,14.27,1.16,5.49,6.45,8.51,14.68,8.51,23.15,0,19.74-16.06,35.8-35.79,35.8Z"/>
    <path d="M330.62,71.4c-19.74,0-35.8-16.06-35.8-35.8,0-8.48,3.02-16.7,8.51-23.15,3.62-4.26,10.01-4.78,14.27-1.16,4.26,3.62,4.78,10.01,1.16,14.27-2.38,2.8-3.69,6.36-3.69,10.04,0,8.57,6.98,15.55,15.55,15.55,3.8,0,7.46-1.39,10.3-3.92,4.18-3.72,10.58-3.34,14.29,.84,3.72,4.18,3.34,10.58-.84,14.29-6.55,5.82-14.99,9.03-23.75,9.03Z"/>
    <path d="M143.31,503.11c-2.39,0-4.78-.84-6.71-2.55-4.19-3.71-4.57-10.11-.86-14.29,2.5-2.82,3.87-6.46,3.87-10.24,0-8.57-6.97-15.55-15.54-15.55-3.9,0-7.63,1.45-10.48,4.09-4.11,3.79-10.52,3.53-14.31-.58-3.79-4.11-3.53-10.52,.58-14.31,6.61-6.09,15.21-9.45,24.21-9.45,19.73,0,35.79,16.06,35.79,35.8,0,8.74-3.19,17.15-8.97,23.67-2,2.26-4.78,3.41-7.58,3.41Z"/>
    <path d="M311.37,503.11c-2.8,0-5.58-1.15-7.58-3.41-5.78-6.52-8.97-14.93-8.97-23.68,0-19.74,16.06-35.8,35.8-35.8,8.78,0,17.22,3.21,23.76,9.04,4.17,3.72,4.54,10.12,.82,14.29-3.72,4.17-10.12,4.54-14.29,.82-2.83-2.52-6.48-3.91-10.29-3.91-8.57,0-15.55,6.98-15.55,15.55,0,3.79,1.37,7.43,3.87,10.24,3.71,4.18,3.32,10.58-.86,14.29-1.93,1.71-4.32,2.55-6.71,2.55Z"/>
    <path d="M124.07,282c-9,0-17.6-3.36-24.21-9.45-4.11-3.79-4.37-10.2-.58-14.31,3.79-4.11,10.2-4.37,14.31-.58,2.86,2.64,6.58,4.09,10.48,4.09,8.57,0,15.54-6.98,15.54-15.55s-6.97-15.54-15.54-15.54c-3.9,0-7.63,1.45-10.49,4.09-4.11,3.79-10.52,3.53-14.31-.58-3.79-4.11-3.53-10.52,.58-14.31,6.61-6.09,15.21-9.45,24.21-9.45,19.73,0,35.79,16.06,35.79,35.79s-16.06,35.8-35.79,35.8Z"/>
    <path d="M330.62,282c-19.74,0-35.8-16.06-35.8-35.8s16.06-35.79,35.8-35.79c8.78,0,17.22,3.21,23.76,9.04,4.17,3.72,4.54,10.12,.82,14.29-3.72,4.18-10.12,4.54-14.3,.82-2.83-2.52-6.48-3.91-10.29-3.91-8.57,0-15.55,6.97-15.55,15.54s6.98,15.55,15.55,15.55c3.81,0,7.46-1.39,10.29-3.91,4.17-3.72,10.57-3.35,14.29,.82,3.72,4.17,3.35,10.57-.82,14.29-6.54,5.83-14.98,9.04-23.76,9.04Z"/>
  </g>
  <circle cx="194.25" cy="339.45" r="7" style="stroke: #000; stroke-miterlimit: 10; stroke-width: 9.62px;"/>
  <path d="M422.42,91.98l-207.61,172.97S408.39,76.42,408.39,76.42c4.15-4.04,10.78-3.95,14.82,.2,4.26,4.33,3.88,11.5-.8,15.37h0Z"/>
</svg>