<?xml version="1.0" encoding="UTF-8"?>
<svg id="Seaview" xmlns="http://www.w3.org/2000/svg" viewBox="0 0 512 512">
  <g>
    <line x1="383.13" y1="487.01" x2="383.13" y2="339.7" style="fill: none; stroke: #000; stroke-linecap: round; stroke-linejoin: round; stroke-width: 20px;"/>
    <polygon points="383.14 337.16 272.73 337.16 327.93 311.24 383.14 285.31 438.34 311.24 493.55 337.16 383.14 337.16" style="fill: none; stroke: #000; stroke-linecap: round; stroke-linejoin: round; stroke-width: 20px;"/>
    <g>
      <rect x="281.04" y="370.41" width="74.34" height="92.84" rx="6.62" ry="6.62" style="fill: none; stroke: #000; stroke-linecap: round; stroke-linejoin: round; stroke-width: 20px;"/>
      <line x1="300.47" y1="463.24" x2="300.47" y2="481.17" style="fill: none; stroke: #000; stroke-linecap: round; stroke-linejoin: round; stroke-width: 20px;"/>
      <line x1="340.18" y1="463.24" x2="340.18" y2="481.17" style="fill: none; stroke: #000; stroke-linecap: round; stroke-linejoin: round; stroke-width: 20px;"/>
    </g>
    <g>
      <rect x="408.43" y="370.41" width="74.34" height="92.84" rx="6.62" ry="6.62" style="fill: none; stroke: #000; stroke-linecap: round; stroke-linejoin: round; stroke-width: 20px;"/>
      <line x1="427.87" y1="463.24" x2="427.87" y2="481.17" style="fill: none; stroke: #000; stroke-linecap: round; stroke-linejoin: round; stroke-width: 20px;"/>
      <line x1="467.57" y1="463.24" x2="467.57" y2="481.17" style="fill: none; stroke: #000; stroke-linecap: round; stroke-linejoin: round; stroke-width: 20px;"/>
    </g>
    <line x1="272.73" y1="487.01" x2="493.55" y2="487.01" style="fill: none; stroke: #000; stroke-linecap: round; stroke-linejoin: round; stroke-width: 20px;"/>
  </g>
  <line x1="242.11" y1="487.01" x2="18.45" y2="487.01" style="fill: none; stroke: #000; stroke-linecap: round; stroke-linejoin: round; stroke-width: 20px;"/>
  <line x1="254.37" y1="396.01" x2="18.45" y2="396.01" style="fill: none; stroke: #000; stroke-linecap: round; stroke-linejoin: round; stroke-width: 20px;"/>
  <line x1="182.88" y1="335.01" x2="95.05" y2="335.01" style="fill: none; stroke: #000; stroke-linecap: round; stroke-linejoin: round; stroke-width: 20px;"/>
  <line x1="150.71" y1="291.01" x2="47.05" y2="291.01" style="fill: none; stroke: #000; stroke-linecap: round; stroke-linejoin: round; stroke-width: 20px;"/>
  <line x1="130.28" y1="243.01" x2="18.45" y2="243.01" style="fill: none; stroke: #000; stroke-linecap: round; stroke-linejoin: round; stroke-width: 20px;"/>
  <line x1="311.28" y1="243.01" x2="199.45" y2="243.01" style="fill: none; stroke: #000; stroke-linecap: round; stroke-linejoin: round; stroke-width: 20px;"/>
  <line x1="482.28" y1="243.01" x2="427.87" y2="243.01" style="fill: none; stroke: #000; stroke-linecap: round; stroke-linejoin: round; stroke-width: 20px;"/>
  <line x1="482.78" y1="185.01" x2="18.45" y2="185.01" style="fill: none; stroke: #000; stroke-linecap: round; stroke-linejoin: round; stroke-width: 20px;"/>
  <path d="M213.37,185.02c7.7-12.6,12.13-27.4,12.13-43.25,0-45.9-37.2-83.1-83.1-83.1S59.3,95.87,59.3,141.77c0,15.85,4.43,30.65,12.13,43.25" style="fill: none; stroke: #000; stroke-linecap: round; stroke-linejoin: round; stroke-width: 20px;"/>
  <path d="M450.3,119.97s-23.58,10.21-23.58,28.6h-5.89c0-18.38-23.58-28.6-23.58-28.6" style="fill: none; stroke: #000; stroke-linecap: round; stroke-linejoin: round; stroke-width: 20px;"/>
  <path d="M317.45,52.22c-35.99,1.24-63.36,7.45-63.36,14.95,0,8.37,34.24,15.17,76.48,15.17s76.48-6.8,76.48-15.17c0-1.57-1.21-3.09-3.45-4.52,30.64-2.28,53.1-9.69,53.1-18.47,0-10.6-32.67-19.19-72.97-19.19s-72.96,8.59-72.96,19.19c0,2.87,2.4,5.59,6.7,8.04Z" style="fill: none; stroke: #000; stroke-linecap: round; stroke-linejoin: round; stroke-width: 20px;"/>
  <line x1="119.05" y1="423.78" x2="125.69" y2="423.78" style="fill: none; stroke: #000; stroke-linecap: round; stroke-linejoin: round; stroke-width: 20px;"/>
  <line x1="162.45" y1="451.48" x2="169.94" y2="451.48" style="fill: none; stroke: #000; stroke-linecap: round; stroke-linejoin: round; stroke-width: 20px;"/>
  <line x1="66.71" y1="451.48" x2="73.35" y2="451.48" style="fill: none; stroke: #000; stroke-linecap: round; stroke-linejoin: round; stroke-width: 20px;"/>
</svg>