<?xml version="1.0" encoding="UTF-8"?>
<svg id="Smoke_detector" data-name="Smoke detector" xmlns="http://www.w3.org/2000/svg" viewBox="0 0 512 512">
  <path d="M22.06,64.4H489.94v57.12c0,5.06-4.1,9.16-9.16,9.16H31.22c-5.06,0-9.16-4.1-9.16-9.16v-57.12h0Z" style="fill: none; stroke: #000; stroke-linecap: round; stroke-linejoin: round; stroke-width: 20px;"/>
  <path d="M389.25,284.9H122.75c-5.37,0-10.54-3.59-11.5-8.03l-28.48-131.09c-1.4-6.46,2.83-11.82,9.43-11.82H419.8c6.6,0,10.83,5.36,9.43,11.82l-28.48,131.09c-.97,4.44-6.14,8.03-11.5,8.03Z" style="fill: none; stroke: #000; stroke-linecap: round; stroke-linejoin: round; stroke-width: 20px;"/>
  <line x1="139.17" y1="162.83" x2="155.88" y2="237.44" style="fill: none; stroke: #000; stroke-linecap: round; stroke-linejoin: round; stroke-width: 20px;"/>
  <line x1="375.13" y1="162.83" x2="358.42" y2="237.44" style="fill: none; stroke: #000; stroke-linecap: round; stroke-linejoin: round; stroke-width: 20px;"/>
  <line x1="256" y1="170.51" x2="256" y2="240.67" style="fill: none; stroke: #000; stroke-linecap: round; stroke-linejoin: round; stroke-width: 20px;"/>
  <path d="M180,337c6,9,6,21,3,31-9,11-9,26-3,39" style="fill: none; stroke: #000; stroke-linecap: round; stroke-linejoin: round; stroke-width: 20px;"/>
  <path d="M255,377c4,8,5,17,4,26-2,7-6,12-8,19-1,9-1,18,4,26" style="fill: none; stroke: #000; stroke-linecap: round; stroke-linejoin: round; stroke-width: 20px;"/>
  <path d="M330,317c6,13,4,28-2,40-5,9-4,21,2,30" style="fill: none; stroke: #000; stroke-linecap: round; stroke-linejoin: round; stroke-width: 20px;"/>
</svg>