<svg width="25" height="25" viewBox="0 0 25 25" fill="none" xmlns="http://www.w3.org/2000/svg">
<path d="M12.1978 0H12.7471C19.4883 0.167969 24.8066 5.54053 25 12.2466V12.7471C24.9141 16.2124 23.4287 19.4517 20.8901 21.7446C18.5799 23.8315 15.8433 24.9167 12.6802 25H12.3262C8.83203 24.9355 5.56689 23.4478 3.25586 20.8901C1.19564 18.6105 0.110352 15.9105 0 12.79V12.2163C0.197754 5.53418 5.50488 0.207031 12.1978 0ZM23.9204 12.4995C23.9204 9.47063 22.7172 6.5658 20.5754 4.42406C18.4337 2.28232 15.5289 1.0791 12.5 1.0791C9.47112 1.0791 6.56629 2.28232 4.42455 4.42406C2.28281 6.5658 1.07959 9.47063 1.07959 12.4995C1.07959 15.5284 2.28281 18.4332 4.42455 20.575C6.56629 22.7167 9.47112 23.9199 12.5 23.9199C13.9997 23.9199 15.4848 23.6245 16.8704 23.0506C18.256 22.4767 19.515 21.6354 20.5754 20.575C21.6359 19.5145 22.4772 18.2555 23.0511 16.8699C23.625 15.4843 23.9204 13.9993 23.9204 12.4995Z" fill="black"/>
<path d="M3.89408 11.2199C3.40727 11.2697 3.14262 10.9669 3.24418 10.4977C4.22221 5.96692 8.33207 2.84681 12.9268 3.03919C17.2286 3.21888 20.8409 6.32776 21.7559 10.4967C21.8223 10.799 21.7447 11.0797 21.4439 11.1896C21.3508 11.2234 21.2053 11.2304 21.0074 11.2106C19.8078 11.0898 18.6083 10.9695 17.4087 10.8497C16.9784 10.8068 16.6727 10.7516 16.4917 10.6842C15.9869 10.4974 15.611 10.1487 15.3643 9.63831C15.1568 9.20911 15.1651 8.82972 14.6822 8.64319C14.5572 8.59469 14.3501 8.57028 14.0611 8.56995C12.9546 8.5693 11.8482 8.57011 10.7417 8.57239C10.1729 8.57337 9.9058 8.86292 9.74272 9.35901C9.52006 10.0377 9.08777 10.4855 8.44584 10.7023C8.26192 10.7644 7.94177 10.8178 7.48539 10.8624C6.2878 10.9796 5.0907 11.0988 3.89408 11.2199ZM20.4371 9.76331C18.7959 5.08997 13.5645 2.82972 9.05424 4.84974C6.835 5.84388 5.23686 7.70472 4.4683 10.0206C4.466 10.0276 4.46548 10.0351 4.46679 10.0424C4.46809 10.0496 4.47119 10.0565 4.47579 10.0622C4.48039 10.068 4.48636 10.0725 4.49315 10.0754C4.49994 10.0783 4.50734 10.0794 4.51469 10.0787C5.43266 9.98857 6.35942 9.8958 7.29496 9.80042C8.002 9.72864 8.48832 9.72425 8.71586 9.04602C8.97367 8.27649 9.39799 7.76233 10.1934 7.5636C10.3812 7.51673 10.6755 7.49362 11.0762 7.49427C12.0417 7.49557 13.0074 7.49589 13.9732 7.49524C14.3576 7.49524 14.6407 7.51868 14.8223 7.56556C15.3676 7.70618 15.788 8.03007 16.0835 8.53724C16.2481 8.81946 16.2745 9.16272 16.4761 9.40686C16.6382 9.60315 16.8436 9.71383 17.0923 9.7389C18.2294 9.85218 19.3669 9.96578 20.5049 10.0797C20.5077 10.08 20.5106 10.0796 20.5132 10.0786C20.5158 10.0776 20.5182 10.076 20.5201 10.0739C20.522 10.0718 20.5234 10.0693 20.5241 10.0666C20.5249 10.0639 20.525 10.061 20.5245 10.0582C20.5085 9.98206 20.4794 9.88375 20.4371 9.76331Z" fill="black"/>
<path d="M14.5225 12.499C14.5225 13.0353 14.3094 13.5496 13.9302 13.9288C13.551 14.308 13.0367 14.521 12.5005 14.521C11.9642 14.521 11.4499 14.308 11.0707 13.9288C10.6915 13.5496 10.4785 13.0353 10.4785 12.499C10.4785 11.9628 10.6915 11.4485 11.0707 11.0693C11.4499 10.6901 11.9642 10.4771 12.5005 10.4771C13.0367 10.4771 13.551 10.6901 13.9302 11.0693C14.3094 11.4485 14.5225 11.9628 14.5225 12.499ZM13.4487 12.4995C13.4487 12.2479 13.3488 12.0066 13.1709 11.8287C12.9929 11.6507 12.7516 11.5508 12.5 11.5508C12.2484 11.5508 12.0071 11.6507 11.8291 11.8287C11.6512 12.0066 11.5513 12.2479 11.5513 12.4995C11.5513 12.7511 11.6512 12.9924 11.8291 13.1704C12.0071 13.3483 12.2484 13.4482 12.5 13.4482C12.7516 13.4482 12.9929 13.3483 13.1709 13.1704C13.3488 12.9924 13.4487 12.7511 13.4487 12.4995Z" fill="black"/>
<path d="M10.4957 21.756C6.88635 20.9625 4.10022 18.1998 3.26282 14.5963C3.12903 14.0196 3.36633 13.7296 3.96106 13.7882C4.99752 13.8907 6.03365 13.9941 7.06946 14.0982C7.58704 14.1503 7.91028 14.1896 8.03919 14.2159C9.43518 14.5016 10.5314 15.6178 10.795 17.0177C10.8126 17.1101 10.8496 17.4334 10.9059 17.9874C11.0097 19.0076 11.1121 20.0278 11.213 21.0479C11.2614 21.5387 11.0304 21.8736 10.4957 21.756ZM4.46936 14.9464C5.28186 17.6319 7.3761 19.7232 10.0612 20.5338C10.0637 20.5345 10.0664 20.5346 10.069 20.5341C10.0716 20.5336 10.074 20.5325 10.076 20.5308C10.078 20.5292 10.0796 20.5271 10.0806 20.5247C10.0816 20.5223 10.082 20.5197 10.0817 20.5172C9.98564 19.5628 9.88993 18.6075 9.79456 17.6515C9.68469 16.5504 9.18469 15.7193 8.1095 15.3502C7.92428 15.2867 7.665 15.2377 7.33167 15.2032C6.38538 15.1052 5.43714 15.0126 4.48694 14.9254C4.48426 14.9251 4.48155 14.9255 4.47905 14.9266C4.47656 14.9276 4.47435 14.9292 4.47262 14.9313C4.47089 14.9333 4.46969 14.9358 4.46912 14.9384C4.46855 14.9411 4.46864 14.9438 4.46936 14.9464Z" fill="black"/>
<path d="M14.4315 21.7706C14.0457 21.8521 13.7362 21.5552 13.7747 21.1705C13.9886 19.012 14.1169 17.7291 14.1595 17.3218C14.3392 15.5972 15.6732 14.3253 17.3978 14.1519C18.6221 14.0289 19.8465 13.9065 21.0711 13.7847C21.5697 13.7354 21.866 13.9952 21.7537 14.5113C20.9598 18.1651 18.0955 20.9971 14.4315 21.7706ZM17.0682 15.2911C16.2952 15.4849 15.6458 16.0631 15.3675 16.8165C15.2995 17.0004 15.2428 17.3098 15.1976 17.7447C15.1012 18.6689 15.0086 19.5911 14.9198 20.5113C14.9194 20.5151 14.92 20.5189 14.9215 20.5223C14.923 20.5258 14.9253 20.5289 14.9282 20.5312C14.9312 20.5336 14.9347 20.5352 14.9384 20.5359C14.9421 20.5366 14.9459 20.5364 14.9495 20.5352C17.6453 19.691 19.6912 17.6568 20.5296 14.9571C20.531 14.9526 20.5313 14.9478 20.5303 14.9431C20.5294 14.9385 20.5274 14.9341 20.5244 14.9305C20.5214 14.9268 20.5176 14.9239 20.5132 14.9221C20.5088 14.9203 20.5041 14.9195 20.4993 14.92C19.6826 15.002 18.8615 15.0847 18.036 15.168C17.5047 15.2217 17.1821 15.2628 17.0682 15.2911Z" fill="black"/>
</svg>
