<svg width="25" height="27" viewBox="0 0 25 27" fill="none" xmlns="http://www.w3.org/2000/svg">
<path d="M10.8035 0H14.2031C15.4867 0.0383203 16.7654 0.128496 18.0393 0.270527C18.6225 0.335391 19.0738 0.476719 19.3909 0.910195C19.5644 1.14697 19.633 1.45758 19.7344 1.77082C20.2648 3.40137 21.6358 4.62586 23.5289 4.89111C24.5611 5.03613 24.9972 5.51602 24.9984 6.44994C25.0015 8.64686 25.0001 10.8443 24.9943 13.0423C24.9837 17.078 23.3508 20.6951 19.977 23.3708C17.9377 24.9887 15.6148 26.1754 13.0085 26.9309C12.9226 26.9559 12.786 26.9789 12.5988 27H12.379C12.229 26.9773 12.0842 26.9578 11.9388 26.9151C5.1843 24.9344 0.0328237 20.0238 0.0123092 13.355C0.00527566 11.0435 0.00117282 8.73176 5.60691e-07 6.41988C-0.000585568 5.52023 0.458353 5.0298 1.4495 4.89428C3.57304 4.60424 4.88597 3.20203 5.38007 1.39008C5.58697 0.632813 6.15259 0.373887 6.96496 0.279492C8.23999 0.131133 9.5195 0.0379688 10.8035 0ZM1.07848 6.01225C1.02494 6.08432 0.997981 6.16359 0.997591 6.25008C0.995637 8.47336 0.996028 10.7044 0.998763 12.9431C0.999935 13.8839 1.0732 14.7298 1.25197 15.6215C2.28238 20.7726 6.7522 24.4055 12.0895 26.0118C12.355 26.0914 12.5279 26.1267 12.8087 26.0439C19.1652 24.1634 23.9979 19.5439 24.0014 13.2495C24.0029 10.9348 24.0031 8.62014 24.002 6.30545C24.002 5.96215 23.8056 5.83717 23.4369 5.78707C20.9101 5.44377 19.283 3.81428 18.6606 1.66377C18.5978 1.44756 18.5006 1.24928 18.2579 1.215C15.9755 0.892266 13.1955 0.850078 10.9577 0.901758C9.58847 0.933047 8.22572 1.03236 6.86942 1.19971C6.58808 1.23451 6.42514 1.33945 6.35891 1.5815C5.83784 3.49682 4.49033 5.07674 2.32927 5.63941C2.03973 5.71482 1.70036 5.76545 1.38385 5.81924C1.24083 5.8435 1.15409 5.91047 1.07848 6.01225Z" fill="black"/>
<path d="M6.48321 21.576C3.79288 19.3174 2.52743 16.4006 2.50106 13.1042C2.48074 10.5751 2.47898 8.76119 2.49578 7.66255C2.5034 7.16685 2.84218 6.94009 3.33629 6.75869C5.04017 6.13378 6.43867 4.98628 7.20708 3.46964C7.41809 3.05304 7.57107 2.51251 8.16247 2.41285C8.26446 2.39562 8.58077 2.37259 9.11141 2.34376C11.5552 2.20947 13.9974 2.22019 16.438 2.37593C17.0787 2.41654 17.3553 2.55312 17.5903 3.06939C18.3937 4.83388 19.7768 6.07279 21.7395 6.78611C22.1838 6.94747 22.505 7.21906 22.5062 7.66255C22.5097 9.45025 22.5085 11.2378 22.5027 13.0251C22.4845 18.7352 18.7239 22.6333 12.9728 24.5655C12.5784 24.6979 12.3984 24.6857 11.9846 24.5507C9.97771 23.8963 8.04993 22.8917 6.48321 21.576ZM21.4693 7.65095C19.2227 6.88472 17.4801 5.33855 16.6426 3.34783C16.6352 3.33021 16.6224 3.31488 16.6057 3.30365C16.5889 3.29243 16.569 3.2858 16.5482 3.28454C14.1744 3.13056 11.8055 3.1107 9.4414 3.22495C9.09871 3.24148 8.75544 3.26415 8.41157 3.29298C8.40259 3.29378 8.39401 3.29681 8.38678 3.30174C8.37954 3.30667 8.37393 3.31331 8.37055 3.32093C7.45501 5.39902 5.84082 6.84464 3.52795 7.65781C3.52137 7.66014 3.51572 7.66421 3.51175 7.66948C3.50777 7.67475 3.50566 7.68097 3.50568 7.68734C3.49865 9.47398 3.49943 11.2627 3.50803 13.0536C3.51037 13.5092 3.52248 13.8606 3.54437 14.1077C3.96228 18.866 7.64082 22.2157 12.4693 23.7523C12.4894 23.7588 12.5114 23.7588 12.5315 23.7523C17.4936 22.1698 21.0913 18.7853 21.4711 13.8947C21.4906 13.6437 21.5 13.2925 21.4992 12.8411C21.4961 11.1244 21.4953 9.4063 21.4969 7.68681C21.4969 7.67903 21.4942 7.67144 21.4893 7.66503C21.4844 7.65863 21.4774 7.65372 21.4693 7.65095Z" fill="black"/>
</svg>
