<svg width="25" height="19" viewBox="0 0 25 19" fill="none" xmlns="http://www.w3.org/2000/svg">
<path d="M25 5.42681V16.4986C24.8867 17.4677 24.391 18.0966 23.5127 18.3853C23.2095 18.4849 22.7808 18.4854 22.4976 18.4854C15.8784 18.4854 9.25911 18.4854 2.63965 18.4854C2.17676 18.4854 1.85254 18.4659 1.66699 18.4268C0.699219 18.2242 0.119141 17.503 0 16.4927V5.37212C0.141113 4.0772 1.01318 3.37603 2.28955 3.37457C3.5376 3.37261 4.80957 3.37229 6.10547 3.37359C6.12186 3.37361 6.13798 3.36939 6.15227 3.36135C6.16655 3.35331 6.17852 3.34171 6.18701 3.32769C6.80387 2.29286 7.42008 1.25917 8.03564 0.226617C8.12191 0.0817606 8.25602 0.00900664 8.43799 0.0083556C11.1554 -0.00368867 12.8472 -0.00271185 13.5132 0.0112855C13.6162 0.0132387 13.7559 0.134332 13.8228 0.232477C14.5337 1.27252 15.2396 2.30751 15.9404 3.33746C15.9481 3.34874 15.9584 3.35797 15.9705 3.36436C15.9826 3.37074 15.9961 3.37408 16.0098 3.37408L17.8242 3.37457C17.8403 3.37457 17.8558 3.3682 17.8672 3.35686C17.8786 3.34552 17.8851 3.33012 17.8853 3.31402C17.8911 2.69195 18.3193 2.10455 18.9321 1.92877C19.0597 1.89198 19.2515 1.87326 19.5073 1.87261C20.0015 1.87131 20.4959 1.87082 20.9907 1.87115C21.326 1.87147 21.5635 1.89198 21.7031 1.93267C22.3311 2.11627 22.7339 2.71246 22.7329 3.35894C22.7329 3.36236 22.7336 3.36574 22.7349 3.36889C22.7362 3.37203 22.7381 3.37488 22.7406 3.37725C22.743 3.37962 22.7458 3.38147 22.749 3.38269C22.7521 3.3839 22.7554 3.38446 22.7588 3.38433C23.9624 3.34136 24.9087 4.22369 25 5.42681ZM8.68262 0.857477C8.67264 0.85748 8.66284 0.860096 8.65418 0.865064C8.64553 0.870033 8.63833 0.877181 8.6333 0.885797L7.16455 3.37212C7.14925 3.39784 7.15658 3.4107 7.18652 3.4107L9.06543 3.40923C9.06983 3.40923 9.07406 3.40749 9.07717 3.40437C9.08028 3.40126 9.08203 3.39704 9.08203 3.39263C9.08171 2.90989 9.08187 2.44455 9.08252 1.99664C9.08301 1.3941 9.27393 1.37505 9.8374 1.37261C10.7017 1.36871 11.5658 1.36952 12.4297 1.37506C12.772 1.3775 12.9155 1.52252 12.915 1.85797C12.9141 2.36871 12.9149 2.87505 12.9175 3.37701C12.9175 3.38568 12.9209 3.39401 12.9271 3.40014C12.9332 3.40628 12.9415 3.40972 12.9502 3.40972H14.9521C14.973 3.40972 14.9775 3.4011 14.9658 3.38384L13.2583 0.879449C13.2539 0.873118 13.2481 0.867942 13.2413 0.86437C13.2345 0.860797 13.2269 0.858934 13.2192 0.858942L8.68262 0.857477ZM12.083 2.21978C12.083 2.21162 12.0798 2.2038 12.074 2.19803C12.0682 2.19226 12.0604 2.18902 12.0522 2.18902H9.95557C9.94741 2.18902 9.93958 2.19226 9.93381 2.19803C9.92805 2.2038 9.9248 2.21162 9.9248 2.21978V3.3438C9.9248 3.35196 9.92805 3.35979 9.93381 3.36556C9.93958 3.37133 9.94741 3.37457 9.95557 3.37457H12.0522C12.0604 3.37457 12.0682 3.37133 12.074 3.36556C12.0798 3.35979 12.083 3.35196 12.083 3.3438V2.21978ZM19.3696 2.68658C19.021 2.69341 18.7134 2.98296 18.7305 3.33257C18.731 3.34389 18.7358 3.35457 18.744 3.36239C18.7522 3.37022 18.7631 3.37458 18.7744 3.37457L21.8857 3.37261C21.8958 3.37264 21.9058 3.37045 21.9149 3.36619C21.924 3.36192 21.9321 3.3557 21.9385 3.34795C21.945 3.34021 21.9496 3.33114 21.9521 3.32139C21.9547 3.31164 21.955 3.30145 21.9531 3.29156C21.8745 2.85845 21.6333 2.69097 21.2085 2.68365C20.5959 2.67356 19.9829 2.67453 19.3696 2.68658ZM1.66016 4.29644C1.17627 4.47271 0.842285 4.94683 0.842285 5.4605C0.842285 9.02724 0.842122 12.594 0.841797 16.1607C0.841797 16.4299 0.864258 16.6343 0.90918 16.774C1.104 17.3829 1.59863 17.6309 2.2124 17.6309C9.06462 17.6309 15.9167 17.6309 22.7686 17.6309C23.6973 17.6309 24.1577 17.0342 24.1577 16.1431C24.1574 12.6613 24.1576 9.1799 24.1582 5.69879C24.1582 5.4286 24.1357 5.22369 24.0908 5.08404C23.9009 4.49078 23.4165 4.22759 22.8115 4.22759C15.9531 4.22759 9.09473 4.22776 2.23633 4.22808C1.97819 4.22808 1.78613 4.25087 1.66016 4.29644Z" fill="black"/>
<path d="M2.27686 5.67985C2.38037 5.52946 2.50586 5.49674 2.69629 5.49674C7.18913 5.49609 11.6823 5.49593 16.1758 5.49626C16.5728 5.49626 16.8081 5.5905 16.8081 6.01676C16.8088 9.14014 16.8089 12.2635 16.8086 15.3869C16.8086 15.735 16.7051 15.9206 16.3433 15.9211C11.8198 15.9211 7.29622 15.9211 2.77246 15.9211C2.41309 15.9211 2.20898 15.839 2.20898 15.4548C2.20898 12.2617 2.20898 9.07585 2.20898 5.89714C2.20898 5.81771 2.23161 5.74528 2.27686 5.67985ZM8.66357 12.445C8.66618 12.4626 8.67627 12.4741 8.69385 12.4797C8.70096 12.4818 8.70852 12.4818 8.71556 12.4798C8.7226 12.4777 8.72881 12.4736 8.7334 12.4679C9.70443 11.2935 10.6751 10.1174 11.6455 8.93962C11.9004 8.63005 12.1645 8.54557 12.457 8.87565C13.6214 10.1891 14.7853 11.5046 15.9487 12.8219C15.9604 12.8353 15.9663 12.833 15.9663 12.8151V6.36296C15.9663 6.35648 15.9637 6.35027 15.9592 6.34569C15.9546 6.34111 15.9484 6.33854 15.9419 6.33854H3.06348C3.05053 6.33854 3.03811 6.34369 3.02895 6.35284C3.01979 6.362 3.01465 6.37442 3.01465 6.38737V12.7585C3.01465 12.7816 3.02279 12.7848 3.03906 12.7682C3.86719 11.9098 4.69613 11.0519 5.52588 10.1945C5.75391 9.95866 5.97754 10.008 6.20947 10.2204C7.0249 10.9648 7.84294 11.7064 8.66357 12.445ZM15.9434 15.1642C15.9464 15.1642 15.9494 15.1636 15.9521 15.1625C15.9549 15.1613 15.9575 15.1596 15.9596 15.1575C15.9617 15.1554 15.9634 15.1528 15.9646 15.1501C15.9657 15.1473 15.9663 15.1443 15.9663 15.1413V14.1457C15.9663 14.1299 15.9606 14.1147 15.9502 14.1027L12.1274 9.75895C12.125 9.75618 12.122 9.75398 12.1186 9.7525C12.1152 9.75102 12.1116 9.75031 12.1079 9.7504C12.1041 9.75049 12.1005 9.75139 12.0971 9.75304C12.0937 9.75468 12.0908 9.75703 12.0884 9.75993C11.0968 10.9631 10.1042 12.1641 9.11035 13.363C8.85498 13.6711 8.60742 13.5417 8.35254 13.3097C7.53027 12.561 6.71452 11.8177 5.90527 11.0798C5.89453 11.0701 5.88047 11.0649 5.86607 11.0653C5.85166 11.0658 5.83806 11.0718 5.82812 11.0822L3.0459 13.9782C3.02583 13.9992 3.01464 14.027 3.01465 14.0558V15.1383C3.01465 15.1452 3.01737 15.1518 3.02223 15.1566C3.02708 15.1615 3.03366 15.1642 3.04053 15.1642H15.9434Z" fill="black"/>
<path d="M19.4531 7.38232C19.9644 7.38232 20.3789 6.96784 20.3789 6.45654C20.3789 5.94525 19.9644 5.53076 19.4531 5.53076C18.9418 5.53076 18.5273 5.94525 18.5273 6.45654C18.5273 6.96784 18.9418 7.38232 19.4531 7.38232Z" fill="black"/>
<path d="M8.9668 8.31299C8.9668 8.64995 8.83294 8.97311 8.59467 9.21137C8.35641 9.44964 8.03325 9.5835 7.69629 9.5835C7.35933 9.5835 7.03617 9.44964 6.7979 9.21137C6.55964 8.97311 6.42578 8.64995 6.42578 8.31299C6.42578 7.97603 6.55964 7.65287 6.7979 7.4146C7.03617 7.17634 7.35933 7.04248 7.69629 7.04248C8.03325 7.04248 8.35641 7.17634 8.59467 7.4146C8.83294 7.65287 8.9668 7.97603 8.9668 8.31299ZM8.44727 8.31592C8.44727 8.21723 8.42783 8.11952 8.39006 8.02834C8.3523 7.93717 8.29695 7.85433 8.22717 7.78455C8.15739 7.71477 8.07455 7.65942 7.98337 7.62166C7.8922 7.58389 7.79448 7.56445 7.6958 7.56445C7.59712 7.56445 7.4994 7.58389 7.40823 7.62166C7.31706 7.65942 7.23421 7.71477 7.16443 7.78455C7.09465 7.85433 7.0393 7.93717 7.00154 8.02834C6.96377 8.11952 6.94434 8.21723 6.94434 8.31592C6.94434 8.51522 7.02351 8.70636 7.16443 8.84728C7.30536 8.98821 7.4965 9.06738 7.6958 9.06738C7.8951 9.06738 8.08624 8.98821 8.22717 8.84728C8.36809 8.70636 8.44727 8.51522 8.44727 8.31592Z" fill="black"/>
<path d="M21.6895 9.24023C22.2007 9.24023 22.6152 8.82575 22.6152 8.31445C22.6152 7.80316 22.2007 7.38867 21.6895 7.38867C21.1782 7.38867 20.7637 7.80316 20.7637 8.31445C20.7637 8.82575 21.1782 9.24023 21.6895 9.24023Z" fill="black"/>
<path d="M22.8135 13.4541C22.8135 14.1142 22.5513 14.7472 22.0845 15.2139C21.6178 15.6807 20.9848 15.9429 20.3247 15.9429C19.6646 15.9429 19.0316 15.6807 18.5649 15.2139C18.0981 14.7472 17.8359 14.1142 17.8359 13.4541C17.8359 13.1273 17.9003 12.8036 18.0254 12.5017C18.1505 12.1997 18.3338 11.9254 18.5649 11.6943C18.796 11.4632 19.0703 11.2799 19.3723 11.1548C19.6742 11.0297 19.9979 10.9653 20.3247 10.9653C20.6515 10.9653 20.9752 11.0297 21.2771 11.1548C21.5791 11.2799 21.8534 11.4632 22.0845 11.6943C22.3156 11.9254 22.499 12.1997 22.624 12.5017C22.7491 12.8036 22.8135 13.1273 22.8135 13.4541ZM21.9766 13.4834C21.9766 13.0453 21.8025 12.6251 21.4927 12.3154C21.183 12.0056 20.7628 11.8315 20.3247 11.8315C19.8866 11.8315 19.4665 12.0056 19.1567 12.3154C18.8469 12.6251 18.6729 13.0453 18.6729 13.4834C18.6729 13.9215 18.8469 14.3417 19.1567 14.6514C19.4665 14.9612 19.8866 15.1353 20.3247 15.1353C20.7628 15.1353 21.183 14.9612 21.4927 14.6514C21.8025 14.3417 21.9766 13.9215 21.9766 13.4834Z" fill="black"/>
</svg>
