<svg width="96" height="101" viewBox="0 0 96 101" fill="none" xmlns="http://www.w3.org/2000/svg">
<path d="M47.152 0H48.6252C71.9317 0.561746 90.5244 19.2938 90.7895 42.622C90.8013 43.6486 90.8007 46.3519 90.7876 50.732C90.7876 50.7614 90.7952 50.7903 90.8096 50.8161C90.824 50.8419 90.8448 50.8636 90.87 50.8793C94.1188 52.9155 95.7457 55.8918 95.751 59.8083C95.7549 62.8161 95.7549 65.8238 95.751 68.8316C95.7496 70.7054 95.6776 72.0096 95.5349 72.7442C94.7532 76.7648 91.7736 79.6167 87.7038 80.4888C87.6735 80.4952 87.6458 80.5111 87.6247 80.5343C87.6036 80.5575 87.5901 80.5869 87.586 80.6185C87.2495 83.5031 85.8562 85.6912 83.4063 87.1826C83.3777 87.1998 83.3542 87.2244 83.3383 87.2538C83.3224 87.2831 83.3147 87.3162 83.3159 87.3496C83.3591 89.0086 83.35 90.6664 83.2884 92.3228C83.202 94.6385 81.78 96.475 79.6057 97.1664C79.0609 97.3406 78.2936 97.427 77.3037 97.4257C73.1973 97.4191 69.1014 97.4185 65.016 97.4237C64.988 97.4237 64.9606 97.4319 64.9373 97.4472C64.9139 97.4626 64.8955 97.4845 64.8844 97.5101C64.0738 99.3617 62.6564 100.38 60.632 100.564H50.713C45.618 100.009 44.6851 93.0908 49.5522 91.4389C50.0551 91.2687 50.7491 91.1836 51.6342 91.1836C54.3146 91.1849 56.995 91.1862 59.6755 91.1875C62.1208 91.1895 63.863 91.8494 64.8746 94.1887C64.8864 94.2157 64.9057 94.2385 64.9301 94.2546C64.9545 94.2706 64.983 94.2792 65.012 94.2791C69.2088 94.2817 73.4035 94.2804 77.5963 94.2752C79.588 94.2732 80.189 93.3226 80.189 91.4527C80.189 90.4143 80.1864 89.3779 80.1812 88.3434C80.1812 88.3308 80.1786 88.3183 80.1736 88.3067C80.1686 88.2951 80.1613 88.2846 80.1521 88.276C80.1429 88.2673 80.132 88.2607 80.1201 88.2564C80.1082 88.2521 80.0956 88.2503 80.0829 88.2511C75.9975 88.5163 72.2715 86.122 71.2011 82.1348C71.0073 81.4159 70.9097 80.2642 70.9084 78.6798C70.9058 69.1328 70.9051 59.585 70.9064 50.0367C70.9084 46.0573 73.9882 42.9382 77.7319 42.072C78.1024 41.9869 78.8809 41.9477 80.0672 41.9542C80.08 41.9542 80.0925 41.9516 80.1042 41.9467C80.116 41.9417 80.1265 41.9344 80.1353 41.9252C80.1441 41.916 80.151 41.9052 80.1555 41.8933C80.16 41.8814 80.162 41.8687 80.1615 41.856C79.6017 25.3964 66.7012 11.9715 50.3772 10.7164C31.9397 9.30024 16.3012 23.5089 15.5843 41.8815C15.5837 41.8937 15.5857 41.9059 15.5903 41.9172C15.5948 41.9286 15.6018 41.9389 15.6107 41.9474C15.6196 41.9559 15.6302 41.9625 15.6419 41.9667C15.6536 41.971 15.6661 41.9727 15.6785 41.9719C19.7777 41.7146 23.4978 44.1305 24.5604 48.1255C24.749 48.834 24.8433 49.9286 24.8433 51.4096C24.8485 60.3936 24.8498 69.3776 24.8472 78.3616C24.8459 80.0979 24.7621 81.3079 24.5958 81.9914C23.1855 87.7522 16.3012 90.0758 11.5892 86.6641C9.61194 85.2342 8.46815 83.2078 8.15782 80.5851C8.15486 80.5571 8.14292 80.531 8.12379 80.5104C8.10466 80.4899 8.07939 80.4761 8.05176 80.4711C3.93097 79.6835 0.754947 76.4918 0.13624 72.3612C0.0616027 71.8688 0.0190463 70.5607 0.00857082 68.4368C-0.00714236 65.6451 -0.00124989 62.8527 0.0262482 60.0597C0.063567 56.098 1.36972 53.0516 4.86787 50.9127C4.89359 50.8971 4.91487 50.8753 4.92967 50.8491C4.94446 50.823 4.95227 50.7934 4.95233 50.7634C4.96608 47.3301 4.83252 43.6984 5.03679 40.4143C6.4333 17.9916 24.6626 0.555854 47.152 0ZM8.14604 49.4376C8.54476 46.6387 9.9943 44.5174 12.3297 43.0561C12.355 43.0397 12.376 43.0174 12.3907 42.991C12.4055 42.9646 12.4135 42.935 12.4141 42.9048C12.528 33.9693 15.4402 26.2266 21.1507 19.6768C35.214 3.55314 60.6163 3.34102 74.6423 19.6611C80.3003 26.2449 83.202 33.9929 83.3474 42.9048C83.348 42.9349 83.356 42.9643 83.3708 42.9904C83.3855 43.0165 83.4065 43.0384 83.4318 43.0541C85.4883 44.3131 86.9712 46.2812 87.423 48.6657C87.4793 48.9616 87.5513 49.2536 87.639 49.5417C87.6587 49.6059 87.6678 49.6046 87.6665 49.5378C87.6547 46.3362 87.7608 42.899 87.531 39.8879C86.5686 27.2761 79.5664 15.8251 68.9286 9.19614C42.7641 -7.10629 8.9533 11.2997 8.11854 41.9483C8.0714 43.6833 8.07598 46.1797 8.13229 49.4376C8.1336 49.5005 8.13818 49.5005 8.14604 49.4376ZM21.6928 50.1722C21.6928 48.8308 21.1599 47.5444 20.2114 46.5959C19.2629 45.6474 17.9765 45.1145 16.6351 45.1145H16.364C15.0226 45.1145 13.7362 45.6474 12.7877 46.5959C11.8392 47.5444 11.3063 48.8308 11.3063 50.1722V80.0704C11.3063 80.7346 11.4372 81.3923 11.6913 82.0059C11.9455 82.6196 12.3181 83.1771 12.7877 83.6468C13.2574 84.1164 13.8149 84.489 14.4285 84.7431C15.0422 84.9973 15.6998 85.1281 16.364 85.1281H16.6351C17.2993 85.1281 17.9569 84.9973 18.5706 84.7431C19.1842 84.489 19.7418 84.1164 20.2114 83.6468C20.6811 83.1771 21.0536 82.6196 21.3078 82.0059C21.5619 81.3923 21.6928 80.7346 21.6928 80.0704V50.1722ZM84.4492 50.1584C84.4492 48.8165 83.9162 47.5296 82.9673 46.5807C82.0184 45.6319 80.7315 45.0988 79.3896 45.0988H79.1186C77.7766 45.0988 76.4897 45.6319 75.5408 46.5807C74.592 47.5296 74.0589 48.8165 74.0589 50.1584V80.0685C74.0589 80.7329 74.1898 81.3909 74.4441 82.0047C74.6983 82.6186 75.071 83.1764 75.5408 83.6462C76.0107 84.116 76.5685 84.4887 77.1823 84.743C77.7962 84.9973 78.4541 85.1281 79.1186 85.1281H79.3896C80.054 85.1281 80.712 84.9973 81.3258 84.743C81.9397 84.4887 82.4975 84.116 82.9673 83.6462C83.4371 83.1764 83.8098 82.6186 84.0641 82.0047C84.3184 81.3909 84.4492 80.7329 84.4492 80.0685V50.1584ZM3.12567 70.6484C3.12175 73.6182 5.02108 76.5016 7.98498 77.2323C8.00487 77.237 8.02558 77.2372 8.04555 77.2328C8.06552 77.2284 8.08424 77.2195 8.1003 77.2069C8.11636 77.1942 8.12935 77.1781 8.13829 77.1597C8.14723 77.1413 8.15189 77.1211 8.15193 77.1007V53.0732C8.15197 53.0548 8.14761 53.0366 8.13921 53.0202C8.13081 53.0038 8.11861 52.9896 8.10363 52.9788C8.08864 52.9681 8.07131 52.961 8.05306 52.9583C8.03482 52.9556 8.01619 52.9573 7.99872 52.9632C4.82728 54.0579 3.22388 56.3069 3.18853 59.7101C3.15055 63.3569 3.1296 67.003 3.12567 70.6484ZM92.5769 59.4292C92.5573 56.4476 90.6795 53.6821 87.696 53.0104C87.6848 53.0077 87.6731 53.0077 87.6618 53.0103C87.6506 53.0129 87.64 53.0181 87.6309 53.0255C87.6219 53.0328 87.6145 53.0422 87.6095 53.0528C87.6044 53.0635 87.6018 53.0752 87.6017 53.087V77.2264C87.6019 77.237 87.6044 77.2474 87.6093 77.2568C87.6141 77.2662 87.621 77.2743 87.6295 77.2804C87.6379 77.2866 87.6476 77.2906 87.6578 77.2921C87.668 77.2936 87.6784 77.2926 87.6881 77.2892C90.1891 76.4538 91.7395 74.8916 92.3392 72.6028C92.5239 71.897 92.6155 70.5947 92.6142 68.6961C92.6103 65.6071 92.5978 62.5182 92.5769 59.4292ZM62.0462 95.8347C62.0462 95.6376 62.0074 95.4425 61.932 95.2604C61.8565 95.0784 61.746 94.913 61.6067 94.7736C61.4673 94.6343 61.3019 94.5237 61.1198 94.4483C60.9378 94.3729 60.7426 94.3341 60.5456 94.3341H50.9645C50.7674 94.3341 50.5723 94.3729 50.3902 94.4483C50.2081 94.5237 50.0427 94.6343 49.9034 94.7736C49.764 94.913 49.6535 95.0784 49.5781 95.2604C49.5027 95.4425 49.4638 95.6376 49.4638 95.8347V95.9133C49.4638 96.3113 49.622 96.6929 49.9034 96.9744C50.1848 97.2558 50.5665 97.4139 50.9645 97.4139H60.5456C60.9436 97.4139 61.3252 97.2558 61.6067 96.9744C61.8881 96.6929 62.0462 96.3113 62.0462 95.9133V95.8347Z" fill="#6366F1"/>
</svg>
