<svg width="25" height="25" viewBox="0 0 25 25" fill="none" xmlns="http://www.w3.org/2000/svg">
<path d="M25 12.5C25 14.1415 24.6767 15.767 24.0485 17.2835C23.4203 18.8001 22.4996 20.1781 21.3388 21.3388C20.1781 22.4996 18.8001 23.4203 17.2835 24.0485C15.767 24.6767 14.1415 25 12.5 25C9.18479 25 6.00537 23.683 3.66117 21.3388C1.31696 18.9946 0 15.8152 0 12.5C0 9.18479 1.31696 6.00537 3.66117 3.66117C6.00537 1.31696 9.18479 0 12.5 0C15.8152 0 18.9946 1.31696 21.3388 3.66117C23.683 6.00537 25 9.18479 25 12.5ZM23.9588 12.5C23.9588 10.9952 23.6624 9.50515 23.0865 8.11491C22.5107 6.72467 21.6666 5.46146 20.6026 4.39741C19.5385 3.33336 18.2753 2.48932 16.8851 1.91346C15.4948 1.3376 14.0048 1.04121 12.5 1.04121C10.9952 1.04121 9.50516 1.3376 8.11491 1.91346C6.72467 2.48932 5.46146 3.33336 4.39741 4.39741C2.24847 6.54635 1.04121 9.46094 1.04121 12.5C1.04121 15.5391 2.24847 18.4536 4.39741 20.6026C5.46146 21.6666 6.72467 22.5107 8.11491 23.0865C9.50516 23.6624 10.9952 23.9588 12.5 23.9588C14.0048 23.9588 15.4948 23.6624 16.8851 23.0865C18.2753 22.5107 19.5385 21.6666 20.6026 20.6026C21.6666 19.5385 22.5107 18.2753 23.0865 16.8851C23.6624 15.4948 23.9588 14.0048 23.9588 12.5Z" fill="black"/>
<path d="M22.9172 12.4996C22.9172 15.2625 21.8196 17.9123 19.866 19.866C17.9123 21.8196 15.2625 22.9172 12.4996 22.9172C9.7367 22.9172 7.08695 21.8196 5.13327 19.866C3.17959 17.9123 2.08203 15.2625 2.08203 12.4996C2.08203 9.7367 3.17959 7.08695 5.13327 5.13327C7.08695 3.17959 9.7367 2.08203 12.4996 2.08203C15.2625 2.08203 17.9123 3.17959 19.866 5.13327C21.8196 7.08695 22.9172 9.7367 22.9172 12.4996ZM5.94641 19.1908C8.69264 21.9071 12.9021 22.6503 16.422 21.018C19.5469 19.5688 21.6452 16.5258 21.8589 13.0535C21.8591 13.0496 21.8586 13.0457 21.8573 13.042C21.8559 13.0383 21.8538 13.0349 21.8512 13.032C21.8485 13.0291 21.8452 13.0269 21.8416 13.0253C21.838 13.0238 21.8341 13.023 21.8302 13.023C21.5652 13.0193 21.1114 13.0712 20.8922 12.9503C20.549 12.7604 20.5362 12.2553 20.8818 12.0563C21.0986 11.9317 21.5334 11.9811 21.8088 11.9805C21.8162 11.9805 21.8235 11.9789 21.8302 11.9759C21.837 11.9729 21.843 11.9685 21.848 11.9631C21.853 11.9576 21.8568 11.9512 21.8592 11.9443C21.8616 11.9373 21.8625 11.9299 21.8619 11.9225C21.7052 9.76845 20.9193 7.88532 19.5041 6.27313C19.5014 6.27001 19.4981 6.26749 19.4943 6.26573C19.4906 6.26397 19.4865 6.263 19.4824 6.26289C19.4783 6.26277 19.4742 6.26351 19.4703 6.26506C19.4665 6.26662 19.463 6.26895 19.4601 6.2719C19.3185 6.41643 19.1752 6.55953 19.0302 6.70121C18.7212 7.00167 18.2376 6.96869 18.1124 6.51679C18.0049 6.12778 18.48 5.77603 18.7292 5.52993C18.7315 5.52767 18.7332 5.52496 18.7344 5.52197C18.7356 5.51898 18.7362 5.51578 18.7361 5.51256C18.736 5.50934 18.7352 5.50619 18.7338 5.50329C18.7324 5.50039 18.7304 5.49782 18.7279 5.49573C17.1202 4.08343 15.2422 3.29749 13.0938 3.1379C13.084 3.13722 13.0741 3.13857 13.0649 3.14187C13.0556 3.14517 13.0472 3.15035 13.0401 3.15707C13.0329 3.16379 13.0273 3.17191 13.0235 3.18091C13.0197 3.18991 13.0179 3.1996 13.0181 3.20935C13.0211 3.50003 13.0694 3.9214 12.9246 4.15407C12.7445 4.44536 12.2193 4.43559 12.0502 4.11682C11.9311 3.89209 11.9793 3.44446 11.9793 3.17087C11.9793 3.16692 11.9785 3.163 11.9769 3.15937C11.9754 3.15573 11.973 3.15244 11.9701 3.1497C11.9672 3.14696 11.9638 3.14483 11.96 3.14343C11.9562 3.14203 11.9522 3.1414 11.9482 3.14156C9.86759 3.21606 7.81814 4.13636 6.27312 5.49329C6.26925 5.49668 6.2661 5.50083 6.26389 5.50547C6.26168 5.51011 6.26045 5.51515 6.26027 5.52026C6.2601 5.52537 6.26099 5.53044 6.26289 5.53515C6.26479 5.53986 6.26765 5.54411 6.27129 5.54764C6.45938 5.73267 6.80564 6.01725 6.88319 6.24381C7.00289 6.59251 6.64625 6.97296 6.29877 6.89663C6.02275 6.83617 5.7339 6.48137 5.53054 6.27007C5.52811 6.26763 5.52521 6.26572 5.52201 6.26445C5.51881 6.26319 5.51539 6.26259 5.51195 6.2627C5.50851 6.26282 5.50514 6.26364 5.50203 6.26512C5.49892 6.2666 5.49616 6.2687 5.4939 6.27129C4.07142 7.89326 3.28446 9.78759 3.13301 11.9543C3.13276 11.9577 3.13322 11.9612 3.13436 11.9644C3.13551 11.9677 3.13731 11.9707 3.13966 11.9732C3.14201 11.9757 3.14486 11.9777 3.14802 11.9791C3.15119 11.9805 3.1546 11.9812 3.15805 11.9811C3.44812 11.9811 3.90674 11.9262 4.13391 12.0673C4.46002 12.27 4.44292 12.7842 4.08811 12.9595C3.87865 13.0639 3.44873 13.0193 3.18736 13.0199C3.18014 13.02 3.17301 13.0215 3.16642 13.0245C3.15982 13.0274 3.1539 13.0317 3.14903 13.037C3.14416 13.0423 3.14044 13.0486 3.1381 13.0554C3.13577 13.0623 3.13487 13.0695 3.13545 13.0767C3.32314 15.4848 4.26012 17.5229 5.94641 19.1908Z" fill="black"/>
<path d="M13.1337 10.7977C13.1472 10.8025 13.162 10.8029 13.1759 10.7989C13.1898 10.7948 13.2021 10.7865 13.2113 10.7751C14.2726 9.44953 15.3297 8.12822 16.3825 6.81119C16.9327 6.12234 17.7285 6.79898 17.2344 7.4182C16.1617 8.76251 15.0883 10.1054 14.0143 11.4469C14.0114 11.4504 14.0097 11.4548 14.0094 11.4594C14.0091 11.464 14.0101 11.4686 14.0125 11.4725C14.3675 12.0689 14.4186 12.6546 14.1657 13.2294C13.6864 14.3201 12.3227 14.6505 11.3988 13.9525C9.74992 12.7061 11.1649 10.0973 13.1337 10.7977ZM13.2754 12.4984C13.2754 12.2921 13.1934 12.0942 13.0475 11.9483C12.9016 11.8024 12.7037 11.7204 12.4974 11.7204C12.291 11.7204 12.0931 11.8024 11.9472 11.9483C11.8013 12.0942 11.7194 12.2921 11.7194 12.4984C11.7194 12.7048 11.8013 12.9027 11.9472 13.0486C12.0931 13.1945 12.291 13.2765 12.4974 13.2765C12.7037 13.2765 12.9016 13.1945 13.0475 13.0486C13.1934 12.9027 13.2754 12.7048 13.2754 12.4984Z" fill="black"/>
<path d="M17.2033 18.6754C17.2033 18.8152 17.1478 18.9493 17.0489 19.0481C16.9501 19.1469 16.8161 19.2025 16.6763 19.2025H8.32584C8.18607 19.2025 8.05202 19.1469 7.95319 19.0481C7.85435 18.9493 7.79883 18.8152 7.79883 18.6754V15.9738C7.79883 15.834 7.85435 15.7 7.95319 15.6011C8.05202 15.5023 8.18607 15.4468 8.32584 15.4468H16.6763C16.8161 15.4468 16.9501 15.5023 17.0489 15.6011C17.1478 15.7 17.2033 15.834 17.2033 15.9738V18.6754ZM16.1645 16.5216C16.1645 16.5168 16.1636 16.512 16.1617 16.5076C16.1599 16.5031 16.1572 16.4991 16.1538 16.4957C16.1504 16.4923 16.1464 16.4896 16.1419 16.4877C16.1375 16.4859 16.1327 16.4849 16.1279 16.4849H8.87301C8.8633 16.4849 8.85398 16.4888 8.8471 16.4957C8.84023 16.5025 8.83637 16.5119 8.83637 16.5216V18.1277C8.83637 18.1374 8.84023 18.1467 8.8471 18.1536C8.85398 18.1604 8.8633 18.1643 8.87301 18.1643H16.1279C16.1327 18.1643 16.1375 18.1634 16.1419 18.1615C16.1464 18.1597 16.1504 18.157 16.1538 18.1536C16.1572 18.1502 16.1599 18.1461 16.1617 18.1417C16.1636 18.1372 16.1645 18.1325 16.1645 18.1277V16.5216Z" fill="black"/>
</svg>
