<svg width="25" height="20" viewBox="0 0 25 20" fill="none" xmlns="http://www.w3.org/2000/svg">
<path d="M23.7734 0H1.22651C0.550194 0 0 0.550194 0 1.22651V4.56679C0 5.24311 0.550194 5.7933 1.22651 5.7933H3.75781V18.3455C3.75781 18.4937 3.84155 18.6293 3.97411 18.6955L5.64301 19.5306C5.75326 19.5858 5.883 19.5858 5.99325 19.5306L7.48778 18.7831L8.98231 19.5306C9.09256 19.5858 9.2223 19.5858 9.3325 19.5306L10.827 18.7831L12.3211 19.5306C12.4313 19.5858 12.5611 19.5858 12.6713 19.5306L14.1657 18.7831L15.6615 19.5307C15.7167 19.5582 15.7766 19.572 15.8365 19.572C15.8965 19.572 15.9564 19.5583 16.0114 19.5307L17.5086 18.783L19.0057 19.5307C19.1158 19.5858 19.2454 19.5858 19.3556 19.5307L21.0258 18.6956C21.1584 18.6294 21.2422 18.4938 21.2422 18.3455V5.7933H23.7735C24.4498 5.7933 25 5.24311 25 4.56679V1.22651C25 0.550194 24.4498 0 23.7734 0ZM20.4592 18.1036L19.1804 18.743L17.6834 17.9953C17.5734 17.9403 17.4437 17.9403 17.3336 17.9953L15.8365 18.743L14.3406 17.9954C14.2304 17.9403 14.1007 17.9403 13.9905 17.9954L12.4963 18.7429L11.0022 17.9954C10.892 17.9403 10.7622 17.9403 10.652 17.9954L9.15745 18.7429L7.66292 17.9954C7.55267 17.9403 7.42294 17.9403 7.31273 17.9954L5.8182 18.7429L4.54071 18.1036V3.28808H20.4593L20.4592 18.1036ZM24.2171 4.56679C24.2171 4.81142 24.0181 5.01044 23.7734 5.01044H21.2421V3.28808H22.1033C22.3195 3.28808 22.4948 3.11284 22.4948 2.89663C22.4948 2.68041 22.3195 2.50517 22.1033 2.50517H2.89667C2.68051 2.50517 2.50522 2.68041 2.50522 2.89663C2.50522 3.11284 2.68046 3.28808 2.89667 3.28808H3.75781V5.01044H1.22651C0.981883 5.01044 0.78286 4.81142 0.78286 4.56679V1.22651C0.78286 0.981883 0.981883 0.78286 1.22651 0.78286H23.7734C24.0181 0.78286 24.2171 0.981883 24.2171 1.22651V4.56679Z" fill="black"/>
<path d="M12.0816 6.68018H7.07114C6.85498 6.68018 6.67969 6.85542 6.67969 7.07163C6.67969 7.28784 6.85493 7.46309 7.07114 7.46309H12.0816C12.2977 7.46309 12.473 7.28784 12.473 7.07163C12.473 6.85542 12.2977 6.68018 12.0816 6.68018Z" fill="black"/>
<path d="M15.4219 4.59277H7.07114C6.85498 4.59277 6.67969 4.76802 6.67969 4.98423C6.67969 5.20044 6.85493 5.37568 7.07114 5.37568H15.4219C15.638 5.37568 15.8133 5.20044 15.8133 4.98423C15.8133 4.76802 15.638 4.59277 15.4219 4.59277Z" fill="black"/>
<path d="M17.9288 6.68018H16.2586C16.0425 6.68018 15.8672 6.85542 15.8672 7.07163C15.8672 7.28784 16.0424 7.46309 16.2586 7.46309H17.9288C18.145 7.46309 18.3203 7.28784 18.3203 7.07163C18.3203 6.85542 18.145 6.68018 17.9288 6.68018Z" fill="black"/>
<path d="M17.9288 8.76758H16.2586C16.0425 8.76758 15.8672 8.94282 15.8672 9.15903C15.8672 9.37524 16.0424 9.55049 16.2586 9.55049H17.9288C18.145 9.55049 18.3203 9.37524 18.3203 9.15903C18.3203 8.94282 18.145 8.76758 17.9288 8.76758Z" fill="black"/>
<path d="M14.5878 6.68018H13.7528C13.5366 6.68018 13.3613 6.85542 13.3613 7.07163C13.3613 7.28784 13.5366 7.46309 13.7528 7.46309H14.5878C14.804 7.46309 14.9793 7.28784 14.9793 7.07163C14.9793 6.85542 14.804 6.68018 14.5878 6.68018Z" fill="black"/>
<path d="M14.5878 8.76758H13.7528C13.5366 8.76758 13.3613 8.94282 13.3613 9.15903C13.3613 9.37524 13.5366 9.55049 13.7528 9.55049H14.5878C14.804 9.55049 14.9793 9.37524 14.9793 9.15903C14.9793 8.94282 14.804 8.76758 14.5878 8.76758Z" fill="black"/>
<path d="M12.0816 8.76758H7.07114C6.85498 8.76758 6.67969 8.94282 6.67969 9.15903C6.67969 9.37524 6.85493 9.55049 7.07114 9.55049H12.0816C12.2977 9.55049 12.473 9.37524 12.473 9.15903C12.473 8.94282 12.2977 8.76758 12.0816 8.76758Z" fill="black"/>
<path d="M7.9062 10.8555H7.07114C6.85498 10.8555 6.67969 11.0307 6.67969 11.2469C6.67969 11.4631 6.85493 11.6384 7.07114 11.6384H7.9062C8.12236 11.6384 8.29765 11.4631 8.29765 11.2469C8.29765 11.0307 8.12241 10.8555 7.9062 10.8555Z" fill="black"/>
<path d="M10.414 10.8555H9.57895C9.36279 10.8555 9.1875 11.0307 9.1875 11.2469C9.1875 11.4631 9.36274 11.6384 9.57895 11.6384H10.414C10.6302 11.6384 10.8055 11.4631 10.8055 11.2469C10.8055 11.0307 10.6302 10.8555 10.414 10.8555Z" fill="black"/>
<path d="M15.4238 10.856H14.5887C14.3726 10.856 14.1973 11.0312 14.1973 11.2474C14.1973 11.4636 14.3725 11.6389 14.5887 11.6389H15.4238C15.6399 11.6389 15.8152 11.4636 15.8152 11.2474C15.8152 11.0312 15.6399 10.856 15.4238 10.856Z" fill="black"/>
<path d="M12.9179 10.8555H12.0829C11.8667 10.8555 11.6914 11.0307 11.6914 11.2469C11.6914 11.4631 11.8666 11.6384 12.0829 11.6384H12.9179C13.1341 11.6384 13.3094 11.4631 13.3094 11.2469C13.3094 11.0307 13.1341 10.8555 12.9179 10.8555Z" fill="black"/>
<path d="M17.9277 10.856H17.0926C16.8765 10.856 16.7012 11.0312 16.7012 11.2474C16.7012 11.4636 16.8764 11.6389 17.0926 11.6389H17.9277C18.1438 11.6389 18.3191 11.4636 18.3191 11.2474C18.3191 11.0312 18.1438 10.856 17.9277 10.856Z" fill="black"/>
<path d="M16.2567 12.9438H8.74106C8.5249 12.9438 8.34961 13.1191 8.34961 13.3353C8.34961 13.5515 8.52485 13.7268 8.74106 13.7268H16.2567C16.4728 13.7268 16.6481 13.5515 16.6481 13.3353C16.6481 13.1191 16.4729 12.9438 16.2567 12.9438Z" fill="black"/>
<path d="M14.5883 15.0312H10.4129C10.1968 15.0312 10.0215 15.2065 10.0215 15.4227C10.0215 15.6389 10.1967 15.8142 10.4129 15.8142H14.5883C14.8044 15.8142 14.9797 15.6389 14.9797 15.4227C14.9797 15.2065 14.8044 15.0312 14.5883 15.0312Z" fill="black"/>
</svg>
