<?xml version="1.0" encoding="UTF-8"?>
<svg id="Layer_1" data-name="Layer 1" xmlns="http://www.w3.org/2000/svg" viewBox="0 0 512 512">
  <path d="M463.02,70.51H48.98c-23.81,0-43.18,19.39-43.18,43.22v120.62c0,23.84,19.37,43.22,43.18,43.22H230.12v120.79h17.26v-120.79h17.26v120.79h17.26v-120.79h181.14c23.81,0,43.18-19.39,43.18-43.22V113.73c0-23.84-19.38-43.22-43.19-43.22Zm25.93,163.84c0,14.31-11.63,25.97-25.93,25.97H48.98c-14.29,0-25.93-11.65-25.93-25.97V113.73c0-14.31,11.63-25.97,25.93-25.97H463.02c14.29,0,25.93,11.65,25.93,25.97v120.62Z"/>
  <rect x="92.07" y="217.17" width="319.35" height="17.26"/>
  <rect x="57.56" y="191.29" width="396.87" height="17.26"/>
  <path d="M376.79,389.73c-4.76,0-8.63,3.86-8.63,8.63,0,14.27-11.61,25.88-25.88,25.88s-25.88-11.61-25.88-25.88v-94.9h-17.26v94.9c0,23.78,19.35,43.14,43.14,43.14s43.14-19.35,43.14-43.14c0-4.77-3.86-8.63-8.63-8.63Z"/>
  <path d="M195.6,398.36c0,14.27-11.61,25.88-25.88,25.88s-25.88-11.61-25.88-25.88c0-4.77-3.86-8.63-8.63-8.63s-8.63,3.86-8.63,8.63c0,23.78,19.35,43.14,43.14,43.14s43.14-19.35,43.14-43.14v-94.9h-17.26v94.9Z"/>
</svg>