<?xml version="1.0" encoding="UTF-8"?>
<svg id="Capa_1" data-name="Capa 1" xmlns="http://www.w3.org/2000/svg" viewBox="0 0 512 512">
  <g id="SVGRepo_iconCarrier" data-name="SVGRepo iconCarrier">
    <path d="M495.87,454.64h-42.43v-129.19h42.43c4.19,0,7.6-3.4,7.6-7.6s-3.4-7.6-7.6-7.6h-42.81c-1.47-14.68-7.29-32.78-14.45-44l-1.85-2.9c-5.02-7.85-12.33-12.35-20.04-12.35s-15.03,4.5-20.05,12.35l-1.84,2.89c-7.17,11.22-12.98,29.31-14.46,44h-32.43c-1.47-14.68-7.28-32.78-14.44-44l-1.85-2.9c-5.02-7.85-12.32-12.35-20.04-12.35s-15.03,4.5-20.05,12.35l-1.84,2.89c-7.17,11.22-12.97,29.31-14.45,44h-42.82c-4.19,0-7.6,3.4-7.6,7.6s3.4,7.6,7.6,7.6h42.43v129.19h-42.43c-4.19,0-7.6,3.4-7.6,7.6s3.4,7.6,7.6,7.6h42.43v4.24c0,18.16,14.77,32.93,32.93,32.93h7.6c18.16,0,32.93-14.77,32.93-32.93v-4.24h31.66v4.25c0,18.16,14.77,32.93,32.93,32.93h7.6c18.16,0,32.93-14.77,32.93-32.93v-4.25h42.43c4.19,0,7.6-3.4,7.6-7.6s-3.4-7.59-7.6-7.59Zm-162.75,19.44c0,9.78-7.95,17.73-17.73,17.73h-7.6c-9.78,0-17.73-7.95-17.73-17.73v-157.05c0-12.53,5.7-32.03,12.45-42.59l1.84-2.89c2.17-3.39,4.8-5.33,7.24-5.33s5.07,1.95,7.23,5.33l1.85,2.9c6.74,10.55,12.44,30.06,12.44,42.59,0,0,0,157.05,0,157.05Zm15.2-19.44v-129.19h31.66v129.19h-31.66Zm89.93,19.44c0,9.78-7.95,17.73-17.73,17.73h-7.6c-9.78,0-17.73-7.95-17.73-17.73v-157.05c0-12.53,5.7-32.03,12.45-42.59l1.84-2.89c2.17-3.39,4.81-5.33,7.24-5.33s5.07,1.95,7.23,5.33l1.85,2.9c6.74,10.55,12.44,30.06,12.44,42.59,0,0,0,157.05,0,157.05Zm-116.52-11.84c0,5.6-4.53,10.13-10.13,10.13s-10.13-4.53-10.13-10.13,4.53-10.13,10.13-10.13,10.13,4.53,10.13,10.13Zm105.12,0c0,5.6-4.53,10.13-10.13,10.13s-10.13-4.53-10.13-10.13,4.53-10.13,10.13-10.13,10.13,4.53,10.13,10.13Zm-105.12-144.39c0,5.6-4.53,10.13-10.13,10.13s-10.13-4.53-10.13-10.13,4.53-10.13,10.13-10.13,10.13,4.53,10.13,10.13Zm105.12,0c0,5.6-4.53,10.13-10.13,10.13s-10.13-4.53-10.13-10.13,4.53-10.13,10.13-10.13,10.13,4.53,10.13,10.13Z"/>
  </g>
  <g id="SVGRepo_iconCarrier-2" data-name="SVGRepo iconCarrier">
    <path d="M121.43,172.5c-9.07,0-17.94-2.69-25.48-7.73-7.54-5.04-13.42-12.2-16.89-20.58-3.47-8.38-4.38-17.6-2.61-26.49,1.77-8.89,6.14-17.07,12.55-23.48,6.41-6.41,14.58-10.78,23.48-12.55,8.9-1.77,18.12-.86,26.49,2.61,8.38,3.47,15.54,9.35,20.58,16.89,5.04,7.54,7.73,16.41,7.73,25.48-.02,12.16-4.86,23.81-13.45,32.4-8.59,8.6-20.25,13.43-32.4,13.45Zm0-79.75c-6.7,0-13.26,1.99-18.83,5.71-5.57,3.72-9.92,9.02-12.48,15.21-2.57,6.19-3.24,13.01-1.93,19.58,1.31,6.58,4.54,12.61,9.28,17.35,4.74,4.74,10.78,7.97,17.35,9.28,6.57,1.31,13.39,.64,19.58-1.93,6.19-2.57,11.49-6.91,15.21-12.48,3.72-5.57,5.71-12.13,5.71-18.83-.02-8.98-3.6-17.59-9.95-23.94-6.35-6.35-14.96-9.93-23.94-9.95Z"/>
    <path d="M121.43,70.82c-1.58-.02-3.09-.66-4.21-1.77-1.12-1.12-1.75-2.63-1.77-4.21v-11.96c0-1.59,.63-3.11,1.75-4.23,1.12-1.12,2.64-1.75,4.23-1.75s3.11,.63,4.23,1.75c1.12,1.12,1.75,2.64,1.75,4.23v11.96c-.02,1.58-.66,3.09-1.77,4.21-1.12,1.12-2.63,1.75-4.21,1.77Z"/>
    <path d="M121.43,206.4c-1.58-.02-3.09-.66-4.21-1.77-1.12-1.12-1.75-2.63-1.77-4.21v-11.96c0-1.59,.63-3.11,1.75-4.23,1.12-1.12,2.64-1.75,4.23-1.75s3.11,.63,4.23,1.75c1.12,1.12,1.75,2.64,1.75,4.23v11.96c-.02,1.58-.66,3.09-1.77,4.21-1.12,1.12-2.63,1.75-4.21,1.77Z"/>
    <path d="M195.2,132.63h-11.96c-1.59,0-3.11-.63-4.23-1.75-1.12-1.12-1.75-2.64-1.75-4.23s.63-3.11,1.75-4.23c1.12-1.12,2.64-1.75,4.23-1.75h11.96c1.59,0,3.11,.63,4.23,1.75,1.12,1.12,1.75,2.64,1.75,4.23s-.63,3.11-1.75,4.23c-1.12,1.12-2.64,1.75-4.23,1.75Z"/>
    <path d="M59.62,132.63h-11.96c-1.59,0-3.11-.63-4.23-1.75-1.12-1.12-1.75-2.64-1.75-4.23s.63-3.11,1.75-4.23c1.12-1.12,2.64-1.75,4.23-1.75h11.96c1.59,0,3.11,.63,4.23,1.75,1.12,1.12,1.75,2.64,1.75,4.23s-.63,3.11-1.75,4.23c-1.12,1.12-2.64,1.75-4.23,1.75Z"/>
    <path d="M77.56,88.77c-1.54-.12-2.97-.83-3.99-1.99l-8.69-7.98c-.57-.57-1.02-1.25-1.33-1.99-.31-.75-.47-1.54-.47-2.35s.16-1.61,.47-2.35c.31-.75,.76-1.42,1.33-1.99,.57-.57,1.25-1.02,1.99-1.33,.75-.31,1.55-.47,2.35-.47s1.61,.16,2.35,.47c.75,.31,1.42,.76,1.99,1.33l7.98,8.69c.98,1.1,1.52,2.52,1.52,3.99s-.54,2.89-1.52,3.99c-1.02,1.16-2.45,1.88-3.99,1.99Z"/>
    <path d="M173.74,184.94c-.79,0-1.56-.15-2.29-.45-.73-.3-1.38-.74-1.94-1.3l-8.21-8.69c-.53-1.12-.71-2.37-.5-3.59,.21-1.22,.79-2.34,1.67-3.22s2-1.46,3.22-1.67c1.22-.21,2.47-.04,3.59,.5l8.69,7.98c1.12,1.12,1.75,2.64,1.75,4.23s-.63,3.11-1.75,4.23c-.53,.6-1.18,1.09-1.91,1.43-.73,.34-1.52,.53-2.32,.56Z"/>
    <path d="M165.29,88.77c-1.54-.12-2.97-.83-3.99-1.99-.98-1.1-1.52-2.52-1.52-3.99s.54-2.89,1.52-3.99l7.98-8.69c1.15-1.15,2.72-1.8,4.35-1.8s3.19,.65,4.35,1.8c1.15,1.15,1.8,2.72,1.8,4.35s-.65,3.19-1.8,4.35l-8.69,7.98c-1.02,1.16-2.45,1.88-3.99,1.99Z"/>
    <path d="M69.11,184.94c-.79,0-1.56-.15-2.29-.45-.73-.3-1.38-.74-1.94-1.3-1.12-1.12-1.75-2.64-1.75-4.23s.63-3.11,1.75-4.23l8.69-8.21c1.12-.53,2.37-.71,3.59-.5,1.22,.21,2.34,.79,3.22,1.67,.87,.87,1.46,2,1.67,3.22,.21,1.22,.04,2.47-.5,3.59l-7.98,8.69c-.58,.59-1.28,1.05-2.05,1.35-.77,.3-1.59,.44-2.42,.4Z"/>
  </g>
  <g id="SVGRepo_iconCarrier-3" data-name="SVGRepo iconCarrier">
    <path d="M279.57,454.64h-42.43v-129.19h42.43c4.19,0,7.6-3.4,7.6-7.6s-3.4-7.6-7.6-7.6h-42.81c-1.47-14.68-7.29-32.78-14.45-44l-1.85-2.9c-5.02-7.85-12.33-12.35-20.04-12.35s-15.03,4.5-20.05,12.35l-1.84,2.89c-7.17,11.22-12.98,29.31-14.46,44h-32.43c-1.47-14.68-7.28-32.78-14.44-44l-1.85-2.9c-5.02-7.85-12.32-12.35-20.04-12.35s-15.03,4.5-20.05,12.35l-1.84,2.89c-7.17,11.22-12.97,29.31-14.45,44H16.13c-4.19,0-7.6,3.4-7.6,7.6s3.4,7.6,7.6,7.6H58.56v129.19H16.13c-4.19,0-7.6,3.4-7.6,7.6s3.4,7.6,7.6,7.6H58.56v4.24c0,18.16,14.77,32.93,32.93,32.93h7.6c18.16,0,32.93-14.77,32.93-32.93v-4.24h31.66v4.25c0,18.16,14.77,32.93,32.93,32.93h7.6c18.16,0,32.93-14.77,32.93-32.93v-4.25h42.43c4.19,0,7.6-3.4,7.6-7.6s-3.4-7.59-7.6-7.59Zm-162.75,19.44c0,9.78-7.95,17.73-17.73,17.73h-7.6c-9.78,0-17.73-7.95-17.73-17.73v-157.05c0-12.53,5.7-32.03,12.45-42.59l1.84-2.89c2.17-3.39,4.8-5.33,7.24-5.33s5.07,1.95,7.23,5.33l1.85,2.9c6.74,10.55,12.44,30.06,12.44,42.59,0,0,0,157.05,0,157.05Zm15.2-19.44v-129.19h31.66v129.19h-31.66Zm89.93,19.44c0,9.78-7.95,17.73-17.73,17.73h-7.6c-9.78,0-17.73-7.95-17.73-17.73v-157.05c0-12.53,5.7-32.03,12.45-42.59l1.84-2.89c2.17-3.39,4.81-5.33,7.24-5.33s5.07,1.95,7.23,5.33l1.85,2.9c6.74,10.55,12.44,30.06,12.44,42.59,0,0,0,157.05,0,157.05Zm-116.52-11.84c0,5.6-4.53,10.13-10.13,10.13s-10.13-4.53-10.13-10.13,4.53-10.13,10.13-10.13,10.13,4.53,10.13,10.13Zm105.12,0c0,5.6-4.53,10.13-10.13,10.13s-10.13-4.53-10.13-10.13,4.53-10.13,10.13-10.13,10.13,4.53,10.13,10.13Zm-105.12-144.39c0,5.6-4.53,10.13-10.13,10.13s-10.13-4.53-10.13-10.13,4.53-10.13,10.13-10.13,10.13,4.53,10.13,10.13Zm105.12,0c0,5.6-4.53,10.13-10.13,10.13s-10.13-4.53-10.13-10.13,4.53-10.13,10.13-10.13,10.13,4.53,10.13,10.13Z"/>
  </g>
</svg>