<?xml version="1.0" encoding="UTF-8"?>
<svg id="Capa_1" data-name="Capa 1" xmlns="http://www.w3.org/2000/svg" viewBox="0 0 512 512">
  <g id="SVGRepo_iconCarrier" data-name="SVGRepo iconCarrier">
    <path d="M486.27,307.78h-88.04V165.56c0-78.42-63.8-142.23-142.23-142.23S113.77,87.13,113.77,165.56v142.23H25.73c-11.22,0-20.32,9.1-20.32,20.32s9.1,20.32,20.32,20.32h6.77v101.59c0,11.22,9.1,20.32,20.32,20.32H459.18c11.22,0,20.32-9.1,20.32-20.32v-101.59h6.77c11.22,0,20.32-9.1,20.32-20.32s-9.1-20.32-20.32-20.32ZM113.77,429.69h-40.64v-81.27h40.64v81.27h0ZM235.68,66.01v99.55h-81.27c0-49.06,34.96-90.11,81.27-99.55Zm-81.27,140.18h81.27v101.59h-81.27v-101.59Zm40.64,223.5h-40.64v-81.27h40.64v81.27Zm81.27,0h-40.64v-81.27h40.64v81.27Zm81.27,0h-40.64v-81.27h40.64v81.27Zm0-121.91h-81.27v-101.59h81.27v101.59Zm-81.27-142.23V66.01c46.31,9.44,81.27,50.49,81.27,99.55,0,0-81.27,0-81.27,0Zm162.54,264.13h-40.64v-81.27h40.64v81.27Z" style="stroke: #000; stroke-miterlimit: 1.56; stroke-width: 0px;"/>
  </g>
</svg>