<?xml version="1.0" encoding="UTF-8"?>
<svg id="Capa_1" data-name="Capa 1" xmlns="http://www.w3.org/2000/svg" viewBox="0 0 512 512">
  <g id="SVGRepo_iconCarrier" data-name="SVGRepo iconCarrier">
    <g>
      <path d="M444.98,128.12H73.02c-4.38,0-7.93,3.55-7.93,7.93s3.55,7.93,7.93,7.93h8.98v8.98c0,6.22,3.48,11.63,8.59,14.41,2.62,60.61,44.95,112.19,104.2,134.24l-43.27,115.39c-3.47-.94-7.11-1.45-10.87-1.45-23.01,0-41.74,18.72-41.74,41.74s18.72,41.74,41.74,41.74c20.31,0,37.26-14.58,40.98-33.81h186.01l10.75,28.67c1.19,3.18,4.21,5.14,7.42,5.14,.92,0,1.87-.16,2.78-.51,4.1-1.54,6.18-6.1,4.64-10.2l-70.02-186.71c59.24-22.04,101.58-73.63,104.19-134.24,5.12-2.77,8.6-8.19,8.6-14.41v-8.98h8.98c4.38,0,7.93-3.55,7.93-7.93s-3.55-7.93-7.92-7.93ZM140.65,483.17c-14.27,0-25.89-11.61-25.89-25.89s11.61-25.89,25.89-25.89,25.89,11.61,25.89,25.89-11.61,25.89-25.89,25.89Zm221.04-33.81H181.63c-1.99-10.29-7.76-19.24-15.81-25.35l44.08-117.54c15.54,4.27,32.03,6.57,49.1,6.57s33.56-2.3,49.11-6.57l53.58,142.88Zm-44.04-162.58l-.5-1.34c-1.54-4.1-6.11-6.18-10.2-4.64-4.1,1.54-6.18,6.1-4.64,10.2l.21,.57c-13.8,3.65-28.4,5.63-43.52,5.63s-29.72-1.97-43.51-5.63l.21-.57c1.54-4.1-.54-8.67-4.64-10.2-4.1-1.54-8.67,.54-10.2,4.64l-.5,1.34c-52.57-19.52-90.33-64.45-93.78-117.44H411.43c-3.45,52.99-41.21,97.92-93.78,117.44Zm102.5-133.82c0,.29-.24,.53-.53,.53H98.38c-.29,0-.53-.24-.53-.53v-8.98H420.15v8.98Z"/>
      <path d="M140.65,449.36c-2.08,0-4.13,.85-5.6,2.32-1.48,1.47-2.32,3.52-2.32,5.6s.85,4.13,2.32,5.6c1.47,1.48,3.52,2.32,5.6,2.32s4.13-.85,5.6-2.32c1.48-1.47,2.32-3.51,2.32-5.6s-.85-4.13-2.32-5.6c-1.47-1.48-3.51-2.32-5.6-2.32Z"/>
      <path d="M259.53,102.23c0,4.38,3.55,7.93,7.93,7.93s7.93-3.55,7.93-7.93c0-13.35-5.65-20.41-10.19-26.09-3.9-4.87-6.72-8.4-6.72-16.18s2.82-11.31,6.72-16.18c4.54-5.68,10.19-12.74,10.19-26.09,0-4.38-3.55-7.93-7.93-7.93s-7.93,3.55-7.93,7.93c0,7.79-2.82,11.31-6.72,16.18-4.54,5.68-10.19,12.74-10.19,26.09s5.65,20.41,10.19,26.09c3.9,4.87,6.72,8.4,6.72,16.18Z"/>
      <path d="M217.26,102.23c0,4.38,3.55,7.93,7.93,7.93s7.93-3.55,7.93-7.93c0-13.35-5.65-20.41-10.19-26.09-3.9-4.87-6.72-8.4-6.72-16.18,0-5.76,1.52-9.12,3.81-12.38,2.51-3.59,1.63-8.53-1.96-11.04-3.59-2.51-8.53-1.63-11.04,1.96-3.1,4.44-6.66,10.89-6.66,21.46,0,13.35,5.65,20.41,10.19,26.09,3.9,4.87,6.72,8.39,6.72,16.18Z"/>
      <path d="M301.8,102.23c0,4.38,3.55,7.93,7.93,7.93s7.93-3.55,7.93-7.93c0-13.35-5.65-20.41-10.19-26.09-3.9-4.87-6.72-8.4-6.72-16.18,0-5.76,1.52-9.12,3.81-12.38,2.51-3.59,1.63-8.53-1.96-11.04-3.59-2.51-8.53-1.63-11.04,1.96-3.1,4.44-6.66,10.89-6.66,21.46,0,13.35,5.65,20.41,10.19,26.09,3.9,4.87,6.72,8.39,6.72,16.18Z"/>
      <path d="M275.89,278.26c.3,0,.61-.02,.92-.05,30.69-3.56,59.31-16.47,80.59-36.37,3.2-2.99,3.37-8,.38-11.2-2.99-3.2-8.01-3.37-11.2-.37-18.81,17.59-44.24,29.03-71.59,32.2-4.35,.51-7.46,4.44-6.96,8.79,.47,4.04,3.89,7.01,7.86,7.01Z"/>
      <path d="M367.38,218.92c1.28,.77,2.69,1.14,4.08,1.14,2.69,0,5.31-1.37,6.8-3.83,3.52-5.83,6.49-11.96,8.83-18.22,1.53-4.1-.55-8.67-4.65-10.2-4.1-1.53-8.67,.55-10.2,4.65-2,5.35-4.54,10.59-7.55,15.59-2.26,3.75-1.05,8.62,2.69,10.88Z"/>
    </g>
  </g>
</svg>