<?xml version="1.0" encoding="UTF-8"?>
<svg id="Capa_1" data-name="Capa 1" xmlns="http://www.w3.org/2000/svg" viewBox="0 0 512 512">
  <g id="SVGRepo_iconCarrier" data-name="SVGRepo iconCarrier">
    <g>
      <path d="M364.77,310.74c31.13-19.61,51.86-54.28,51.86-93.71,0-5.95-4.82-10.77-10.77-10.77H216.82V17.22c0-5.95-4.82-10.77-10.77-10.77-61.03,0-110.67,49.65-110.67,110.67,0,57.56,44.17,104.98,100.39,110.19,3.25,35.13,22.99,65.54,51.38,83.42l-30.94,182.88c-.99,5.86,2.96,11.42,8.82,12.42,.61,.1,1.21,.15,1.81,.15,5.16,0,9.72-3.72,10.61-8.97l16.33-96.51h104.38l16.33,96.51c.89,5.26,5.45,8.97,10.61,8.97,.6,0,1.2-.05,1.81-.15,5.86-.99,9.81-6.55,8.82-12.42l-30.94-182.88h0ZM116.92,117.12c0-45.5,34.28-83.15,78.36-88.49V205.61c-44.09-5.33-78.36-42.98-78.36-88.49Zm100.55,110.67h176.97c-5.33,44.09-42.98,78.36-88.49,78.36s-83.15-34.28-88.49-78.36Zm39.94,151.37l9.89-58.43c12.04,4.5,25.06,6.97,38.65,6.97s26.62-2.47,38.66-6.97l9.89,58.43h-97.09Z"/>
      <path d="M264.19,169.16c1.01,1.6,2.09,3.19,3.22,4.71,2.11,2.85,5.37,4.36,8.66,4.36,2.23,0,4.48-.69,6.4-2.12,4.78-3.54,5.78-10.29,2.24-15.07-.8-1.08-1.57-2.21-2.28-3.34-11.36-18.09-10.44-41.78,2.29-58.95,18.21-24.59,19.3-58.36,2.7-84.04-.83-1.28-2.31-3.36-2.6-3.76-3.46-4.83-10.19-5.95-15.03-2.48-4.84,3.46-5.95,10.19-2.48,15.03,.6,.83,1.62,2.29,2.02,2.91,11.76,18.19,10.99,42.11-1.91,59.53-18.24,24.62-19.5,57.29-3.22,83.22h0Z"/>
      <path d="M324.13,169.16c1.01,1.6,2.09,3.19,3.22,4.71,2.11,2.85,5.37,4.36,8.66,4.36,2.23,0,4.48-.69,6.4-2.12,4.78-3.54,5.78-10.29,2.24-15.07-.8-1.08-1.57-2.21-2.28-3.34-11.36-18.09-10.44-41.78,2.29-58.95,18.21-24.59,19.3-58.36,2.7-84.04-.83-1.28-2.31-3.36-2.6-3.76-3.46-4.83-10.19-5.95-15.03-2.48-4.84,3.46-5.95,10.19-2.48,15.03,.6,.83,1.62,2.29,2.02,2.91,11.76,18.19,10.99,42.11-1.91,59.53-18.24,24.62-19.5,57.29-3.22,83.22h0Z"/>
    </g>
  </g>
</svg>