<?xml version="1.0" encoding="UTF-8"?>
<svg id="Capa_1" data-name="Capa 1" xmlns="http://www.w3.org/2000/svg" viewBox="0 0 512 512">
  <g id="SVGRepo_iconCarrier" data-name="SVGRepo iconCarrier">
    <g>
      <path d="M316.68,274.12c-20.91,0-37.92-17.01-37.92-37.92s17.01-37.92,37.92-37.92,37.92,17.01,37.92,37.92-17.01,37.92-37.92,37.92Z"/>
      <path d="M256,23.82C126.36,23.82,20.88,129.3,20.88,258.95s105.48,235.12,235.12,235.12,235.12-105.47,235.12-235.12S385.64,23.82,256,23.82Zm0,455.08c-121.29,0-219.96-98.68-219.96-219.96S134.71,38.99,256,38.99s219.96,98.68,219.96,219.96-98.67,219.96-219.96,219.96Z"/>
      <path d="M256,76.92c-100.37,0-182.03,81.66-182.03,182.03s81.66,182.03,182.03,182.03,182.03-81.66,182.03-182.03-81.67-182.03-182.03-182.03Zm0,348.9c-92.01,0-166.86-74.85-166.86-166.86S163.99,92.09,256,92.09s166.86,74.85,166.86,166.86-74.85,166.86-166.86,166.86Z"/>
      <path d="M180.15,122.43c-16.73,0-30.34,13.61-30.34,30.34v212.37c0,16.73,13.61,30.34,30.34,30.34s30.34-13.61,30.34-30.34V152.76c0-16.73-13.61-30.34-30.34-30.34Zm-15.17,162.21l30.34,10.11v29.53l-30.34-10.11v-29.53Zm0-15.98v-29.53l30.34,10.11v29.53l-30.34-10.11Zm0-45.51v-29.53l30.34,10.11v29.53l-30.34-10.11Zm15.17-85.55c8.37,0,15.17,6.8,15.17,15.17v34.99l-30.34-10.11v-24.88c0-8.37,6.8-15.17,15.17-15.17Zm0,242.71c-8.37,0-15.17-6.8-15.17-15.17v-34.99l30.34,10.11v24.88c0,8.37-6.8,15.17-15.17,15.17Z"/>
      <path d="M373.72,175.31c-17-15.94-39.3-23.88-62.59-22.37-43.67,2.83-77.89,40.54-77.89,85.85v86.19c0,33.69,26.39,61.91,58.81,62.88,.64,.02,1.26,.02,1.89,.02,15.87,0,30.8-6.04,42.22-17.13,11.89-11.53,18.43-26.99,18.43-43.55,0-2.02-.1-4.01-.3-6-.61-6.02,1.88-11.4,6.64-14.38,24.52-15.38,39.16-41.78,39.16-70.64,0-22.97-9.62-45.17-26.39-60.88Zm-20.83,118.65c-9.61,6.03-14.85,17.04-13.68,28.75,.14,1.48,.22,2.98,.22,4.5,0,12.42-4.91,24.01-13.82,32.67-8.9,8.65-20.73,13.21-33.09,12.82-24.32-.73-44.1-22.13-44.1-47.71v-86.19c0-37.34,27.98-68.4,63.7-70.71,1.54-.11,3.07-.15,4.6-.15,17.43,0,33.84,6.46,46.63,18.45,13.93,13.04,21.59,30.73,21.59,49.81,0,23.59-11.98,45.2-32.05,57.77Z"/>
    </g>
  </g>
</svg>