<?xml version="1.0" encoding="UTF-8"?>
<svg id="Capa_1" data-name="Capa 1" xmlns="http://www.w3.org/2000/svg" viewBox="0 0 512 512">
  <g id="SVGRepo_iconCarrier" data-name="SVGRepo iconCarrier">
    <g id="Capa_2" data-name="Capa 2">
      <g id="Outline">
        <path id="Pancakes" d="M478.69,399.11h-39.76c6.54-12.81,3.83-28.39-6.65-38.24,.23-.23,.47-.44,.69-.67,12.65-12.63,12.67-33.13,.03-45.79-.24-.24-.48-.48-.73-.71,.24-.22,.48-.44,.7-.67,12.65-12.63,12.67-33.12,.04-45.77-.24-.24-.48-.48-.73-.71l.7-.67c12.66-12.62,12.7-33.11,.08-45.77-.25-.25-.51-.5-.76-.74l.7-.67c12.66-12.66,12.67-33.18,.01-45.84-6.07-6.08-14.31-9.49-22.9-9.5h-60.93v-26.82c-.01-12.15-9.86-22-22.01-22.01h-23.93c-2.28-25.89-25.12-45.02-51.01-42.74-22.72,2-40.73,20.02-42.74,42.74h-23.93c-12.15,.02-22,9.86-22.01,22.01v26.81h-61.6c-17.89-.04-32.43,14.44-32.46,32.33-.02,8.97,3.69,17.55,10.23,23.69-.23,.22-.47,.43-.7,.66-12.65,12.63-12.67,33.13-.03,45.79,.24,.24,.48,.48,.73,.71-.23,.22-.47,.43-.7,.66-12.65,12.63-12.67,33.13-.03,45.79,.24,.24,.48,.48,.73,.71l-.7,.67c-12.65,12.63-12.67,33.12-.04,45.77,.24,.24,.49,.49,.74,.72-10.5,9.86-13.21,25.48-6.64,38.3H33.31c-4.88,0-8.84,3.96-8.84,8.84,.02,22.74,18.45,41.17,41.19,41.2H446.34c22.74-.03,41.16-18.46,41.19-41.2,.01-4.89-3.94-8.86-8.83-8.87,0,0,0,0-.01,0Zm-53.89-108.98c0,8.14-6.6,14.73-14.74,14.73h-79.13v-29.5h79.13c8.15,0,14.75,6.61,14.74,14.76h0Zm0-47.14c0,8.14-6.6,14.73-14.74,14.73h-79.13v-29.5h79.13c8.14,0,14.73,6.6,14.74,14.73v.04Zm0-47.15c0,8.14-6.6,14.73-14.74,14.73h-79.13v-29.51h79.13c8.14,0,14.74,6.6,14.74,14.74v.04Zm-168.48-106.49c14.62,0,27.03,10.73,29.13,25.2h-4.69c-3.03-10.98-13.01-18.6-24.4-18.61-2.01,0-3.64,1.63-3.64,3.64s1.63,3.64,3.64,3.64c7.36,0,13.98,4.49,16.71,11.33h-45.77c2.1-14.43,14.44-25.15,29.03-25.2Zm-75.15,47.21c0-2.39,1.94-4.32,4.33-4.33h141.65c2.39,0,4.33,1.94,4.33,4.33h0v26.81h-9.36c-4.88,0-8.84,3.96-8.84,8.84v136.28c0,.62-.12,1.23-.35,1.8-.25,.56-.6,1.07-1.04,1.5-.22,.22-.45,.41-.71,.58-1.85,1.23-4.31,.98-5.89-.58-.44-.43-.79-.94-1.04-1.5-.24-.57-.36-1.18-.36-1.8V172.2c0-4.88-3.96-8.84-8.84-8.84h-26.46c-4.88,0-8.84,3.96-8.84,8.84v90.24h0v.29c-.01,.39-.08,.77-.21,1.13-.23,.71-.62,1.35-1.14,1.87-.22,.22-.45,.41-.71,.58-.77,.51-1.67,.78-2.59,.78-.35,0-.7-.05-1.04-.14-.84-.19-1.61-.62-2.23-1.23-.2-.18-.38-.38-.55-.58-.29-.4-.51-.83-.67-1.3-.12-.37-.19-.76-.21-1.14,0-.1,0-.19,0-.29v-90.22c0-4.88-3.96-8.84-8.84-8.84h-44.53v-21.67c0-2.01-1.63-3.64-3.64-3.64s-3.64,1.63-3.64,3.64v21.67h-8.57v-26.81Zm105.07,73.97h-8.82v-29.47h8.82v29.47Zm-8.82,17.69h8.82v29.46h-8.82v-29.46Zm-190.22-32.42c0-8.14,6.6-14.74,14.74-14.74H232.72v29.47H101.93c-8.14,0-14.73-6.6-14.74-14.73Zm0,47.15c0-8.13,6.58-14.73,14.71-14.73,.01,0,.02,0,.03,0H232.72v29.46H101.93c-8.14,0-14.73-6.6-14.74-14.73Zm0,47.15c0-8.13,6.58-14.73,14.71-14.73,.01,0,.02,0,.03,0H236.83l.17,.21c.27,.36,.54,.72,.82,1.04l.31,.37c.36,.43,.74,.84,1.13,1.24,7.72,7.74,19.91,8.74,28.79,2.37,1.01-.71,1.95-1.5,2.82-2.36,.41-.41,.79-.82,1.15-1.26l.28-.33c.3-.36,.6-.75,.88-1.14l.12-.16h12.92v29.46H101.93c-8.11,0-14.7-6.56-14.74-14.67v-.04Zm204.02,32.42l.05,.06c.48,.58,.99,1.14,1.52,1.69,8.12,8.12,21.07,8.76,29.96,1.5,.57-.47,1.12-.97,1.64-1.5,.54-.54,1.04-1.1,1.52-1.69l.06-.06h84.09c8.14,0,14.73,6.6,14.73,14.73s-6.6,14.73-14.73,14.73H101.93c-8.14,0-14.73-6.6-14.73-14.73s6.6-14.73,14.73-14.73h189.28Zm-204.01,61.88c0-8.13,6.6-14.73,14.73-14.73H410.07c8.14,0,14.73,6.6,14.73,14.73s-6.6,14.73-14.73,14.73H101.93c-8.13,0-14.73-6.6-14.73-14.73Zm359.14,47.09H65.66c-9.56-.01-18.17-5.81-21.77-14.67H468.12c-3.61,8.86-12.21,14.65-21.77,14.67h0Z"/>
      </g>
    </g>
  </g>
</svg>