<?xml version="1.0" encoding="UTF-8"?>
<svg id="Layer_1" data-name="Layer 1" xmlns="http://www.w3.org/2000/svg" viewBox="0 0 512 512">
  <path id="electric--charge" d="M121.33,341.32l-9.56-5.5,41.16-71.31h-51.69c-1.96,0-3.8-1.04-4.78-2.76-.98-1.7-.98-3.81,0-5.51l45.94-79.56,9.55,5.51-41.16,71.3h51.69c1.96,0,3.8,1.04,4.78,2.76,.98,1.7,.98,3.81,0,5.51l-45.94,79.56Zm123.23,147.37V111.65c28.14,2.79,50.22,26.6,50.22,55.48v168.44c0,36.81,29.95,66.76,66.76,66.76s66.76-29.95,66.76-66.76v-117.22c34.24-2.82,61.25-31.57,61.25-66.53V75.25c0-3.05-2.47-5.51-5.51-5.51h-25.11V29.31c0-3.05-2.47-5.51-5.51-5.51s-5.51,2.47-5.51,5.51v40.43h-50.23V29.31c0-3.05-2.47-5.51-5.51-5.51s-5.51,2.47-5.51,5.51v40.43h-25.11c-3.05,0-5.51,2.47-5.51,5.51v76.56c0,34.96,27.01,63.73,61.25,66.53v117.22c0,30.73-25.01,55.74-55.74,55.74s-55.74-25.01-55.74-55.74V167.12c0-34.96-27.01-63.73-61.25-66.53V59.94c0-19.92-16.22-36.14-36.14-36.14H55.3c-19.92,0-36.14,16.22-36.14,36.14V488.69c0,3.05,2.47,5.51,5.51,5.51H239.05c3.05,0,5.51-2.47,5.51-5.51ZM30.19,59.94c0-13.84,11.27-25.11,25.11-25.11H208.42c13.84,0,25.11,11.27,25.11,25.11V483.17H30.19V59.94Zm448.35,51.45v40.42c0,30.73-25.01,55.74-55.74,55.74s-55.74-25.01-55.74-55.74v-40.42h111.47Zm-111.47-30.62h111.46v19.6h-111.46v-19.6Z"/>
  <rect id="_Transparent_Rectangle" data-name=" Transparent Rectangle" x="9.36" y="14" width="490" height="490" style="fill: none;"/>
</svg>