<?xml version="1.0" encoding="UTF-8"?>
<svg id="Capa_1" data-name="Capa 1" xmlns="http://www.w3.org/2000/svg" viewBox="0 0 512 512">
  <polyline points="138.36 362.58 270.73 230.94 397.4 360.91" style="fill: none; stroke: #000; stroke-linecap: round; stroke-linejoin: round; stroke-width: 13px;"/>
  <path d="M25.05,360.91l95.81-94.98V128.46h67.49v92.48l77.47-82.87c4.85-5.19,13.09-5.17,17.92,.04l197.05,212.8" style="fill: none; stroke: #000; stroke-linecap: round; stroke-linejoin: round; stroke-width: 13px;"/>
  <g id="Layer_2" data-name="Layer 2">
    <g id="Layer_1-2" data-name="Layer 1-2">
      <path d="M151.12,105.62l-.86,.64c-1.15,.86-2,.79-2.81-.39-2.44-3.53-4.12-7.53-4.94-11.75-.66-3.3,.28-6.53,1.39-9.6,1.46-4.02,3.23-7.93,4.8-11.92,1.85-4.7,2.33-9.61,2.02-14.62-.18-2.99-.97-5.77-2.88-8.16-.27-.36-.51-.73-.73-1.13-.55-.94-.13-1.72,.42-2.49s1.37-.77,2.13-.49c4.4,1.54,8.19,4.45,10.8,8.31,3.78,5.5,3.67,11.34,1.52,17.42-1.37,3.87-3.58,7.28-5.56,10.82-2.86,5.1-4.42,10.63-5.32,16.32-.33,2.07,0,4.25,.03,7.05Zm-3.71-12.39c.26-.48,.47-.98,.63-1.5,.73-3.82,2.37-7.29,4.15-10.7,1.45-2.81,2.93-5.61,4.54-8.33,2-3.37,2.43-7.02,2.2-10.79-.18-2.86-.97-5.57-3.02-7.73-.34-.36-.64-.97-1.29-.51,.2,2.05,.5,4.06,.56,6.07,.14,4.78-.39,9.47-2.29,13.92-1.67,3.95-3.32,7.9-4.94,11.88-1.03,2.44-1.22,5.15-.54,7.7Z" style="fill: #010101; stroke: #000; stroke-miterlimit: 10; stroke-width: 4px;"/>
      <path d="M147.41,93.23c-.68-2.56-.49-5.27,.54-7.7,1.62-3.97,3.26-7.93,4.94-11.88,1.91-4.45,2.45-9.14,2.3-13.92-.06-2.02-.37-4.02-.56-6.07,.65-.45,.95,.16,1.29,.51,2.05,2.16,2.84,4.87,3.02,7.73,.24,3.77-.2,7.43-2.2,10.79-1.61,2.72-3.09,5.52-4.54,8.33-1.76,3.41-3.42,6.88-4.15,10.7-.16,.52-.38,1.03-.64,1.5Z" style="fill: #fff; stroke: #000; stroke-miterlimit: 10; stroke-width: 4px;"/>
    </g>
  </g>
</svg>