<?xml version="1.0" encoding="UTF-8"?>
<svg id="Capa_1" data-name="Capa 1" xmlns="http://www.w3.org/2000/svg" viewBox="0 0 512 512">
  <g id="SVGRepo_iconCarrier" data-name="SVGRepo iconCarrier">
    <path d="M480.13,260.92H21.69c-5.69,0-10.3,4.62-10.3,10.3v76.66c0,5.69,4.62,10.3,10.3,10.3H480.13c5.69,0,10.3-4.62,10.3-10.3v-76.66c0-5.69-4.62-10.3-10.3-10.3Zm-326.23,20.6H433.77v56.06H153.9v-56.06Zm315.93,56.06h-15.45v-56.06h15.45v56.06Zm-21.37-185.26c-7.7-20.18-1.79-44.27,14.4-58.58,4.27-3.78,10.78-3.37,14.54,.89,3.77,4.26,3.37,10.77-.89,14.54-9.73,8.61-13.43,23.67-8.8,35.82,2.4,6.28,6.82,12.09,11.52,18.23,5.22,6.85,10.62,13.93,14.11,22.66,9.11,22.88,.21,51.5-20.27,65.16-1.76,1.17-3.74,1.73-5.71,1.73-3.32,0-6.59-1.61-8.58-4.59-3.16-4.73-1.87-11.13,2.86-14.29,12.48-8.32,18.12-26.44,12.56-40.38-2.43-6.11-6.76-11.79-11.35-17.79-5.38-7.04-10.93-14.33-14.39-23.39Z"/>
  </g>
</svg>