<?xml version="1.0" encoding="UTF-8"?>
<svg id="Capa_1" data-name="Capa 1" xmlns="http://www.w3.org/2000/svg" viewBox="0 0 512 512">
  <g id="SVGRepo_iconCarrier" data-name="SVGRepo iconCarrier">
    <path d="M136.76,9.51c-46.36,0-84.3,37.71-84.3,83.99s37.94,83.99,84.3,83.99h25.01v49.4h49.4v-49.4h108.69v237.14h-61.14c3.24-4.59,6.45-10.07,9.57-16.67,11.97-25.32,21.92-66.31,21.92-131.54,0-5.44-4.44-9.88-9.88-9.88H91.68c-5.09,.46-8.99,4.75-8.95,9.88,0,7.84,.04,15.4,.31,22.54-4.4-1.66-9.42-2.78-15.13-2.78-24.43,0-44.46,20.03-44.46,44.46s20.03,44.46,44.46,44.46h28.1c2.7,8.8,5.56,16.29,8.65,22.85,3.13,6.6,6.33,12.08,9.57,16.67h-36.44c-13.51,0-24.7,11.19-24.7,24.7v39.52c0,13.51,11.19,24.7,24.7,24.7H453.25c18.99,0,34.58-15.59,34.58-34.58v-44.46c.04-.5,.04-1.04,0-1.54l-45.08-269.56c15.63-15.25,25.32-36.47,25.32-59.9,0-46.28-37.94-83.99-84.3-83.99H136.76Zm0,19.76h247.02c35.7,0,64.53,28.64,64.53,64.23s-28.83,64.23-64.53,64.23H173.5c-1.31-.27-2.7-.27-4.01,0h-32.73c-35.7,0-64.53-28.64-64.53-64.23S101.06,29.27,136.76,29.27ZM424.85,166.68l43.23,259.37v42.92c0,8.3-6.52,14.82-14.82,14.82H77.78c-2.82,0-4.94-2.12-4.94-4.94v-39.52c0-2.82,2.12-4.94,4.94-4.94h251.96c5.44,0,9.88-4.44,9.88-9.88V177.49h44.16c14.9,0,28.91-3.98,41.07-10.81Zm-243.32,10.81h9.88v29.64h-9.88v-29.64Zm-78.12,98.81h166.12c-1.12,56.2-9.57,92.75-19.14,113.01-5.09,10.81-10.23,17.56-14.2,21.31-3.01,2.82-5.67,3.74-5.87,4.01h-87.69c-.19-.27-2.86-1.2-5.87-4.01-3.98-3.74-9.11-10.5-14.2-21.31-9.57-20.26-18.02-56.81-19.14-113.01Zm-35.51,29.64c7.99,0,13.59,3.9,16.98,7.1,1.43,16.09,3.51,30.03,6.18,42.3h-23.16c-13.74,0-24.7-10.96-24.7-24.7s10.96-24.7,24.7-24.7Zm331.01,49.4c-10.92,0-19.76,8.84-19.76,19.76s8.84,19.76,19.76,19.76,19.76-8.84,19.76-19.76-8.84-19.76-19.76-19.76Z"/>
  </g>
</svg>