<?xml version="1.0" encoding="UTF-8"?>
<svg id="Capa_1" data-name="Capa 1" xmlns="http://www.w3.org/2000/svg" viewBox="0 0 512 512">
  <g id="SVGRepo_iconCarrier" data-name="SVGRepo iconCarrier">
    <g>
      <path d="M468.03,90.89c-20.34,0-36.88,16.54-36.88,36.88v64.53H80.84V127.77c0-20.34-16.54-36.88-36.88-36.88S7.09,107.43,7.09,127.77c0,5.1,4.13,9.22,9.22,9.22s9.22-4.12,9.22-9.22c0-10.16,8.27-18.44,18.44-18.44s18.44,8.28,18.44,18.44V399.46c0,21.34,16.17,38.79,36.88,41.25v55.81c0,5.1,4.13,9.22,9.22,9.22h46.09c5.09,0,9.22-4.12,9.22-9.22v-55.31h184.38v55.31c0,5.1,4.13,9.22,9.22,9.22h46.09c5.09,0,9.22-4.12,9.22-9.22v-55.81c20.71-2.46,36.88-19.91,36.88-41.25V127.77c0-10.16,8.27-18.44,18.44-18.44s18.44,8.28,18.44,18.44c0,5.1,4.13,9.22,9.22,9.22s9.22-4.12,9.22-9.22c0-20.34-16.54-36.88-36.88-36.88Zm-82.97,119.85v212.03h-27.66V210.74h27.66Zm-230.47,0v212.03h-27.66V210.74h27.66Zm-73.75,188.72V210.74h27.66v212.03h-4.31c-12.87,0-23.34-10.46-23.34-23.31Zm64.53,87.85h-27.66v-46.09h27.66v46.09Zm27.66-64.53V210.74h27.66v212.03h-27.66Zm46.09,0V210.74h27.66v212.03h-27.66Zm46.09,0V210.74h27.66v212.03h-27.66Zm46.09,0V210.74h27.66v212.03h-27.66Zm82.97,64.53h-27.66v-46.09h27.66v46.09Zm36.88-87.85c0,12.85-10.47,23.31-23.34,23.31h-4.31V210.74h27.66v188.72Z"/>
      <path d="M265.22,90.89h17.96l-25.13,31.08c-2.23,2.77-2.68,6.56-1.15,9.77s4.78,5.25,8.32,5.25h37.26c5.09,0,9.22-4.12,9.22-9.22s-4.13-9.22-9.22-9.22h-17.96l25.13-31.08c2.23-2.77,2.68-6.56,1.15-9.77s-4.77-5.25-8.32-5.25h-37.26c-5.09,0-9.22,4.12-9.22,9.22s4.13,9.22,9.22,9.22Z"/>
      <path d="M154.59,44.8h17.96l-25.13,31.08c-2.23,2.77-2.68,6.56-1.14,9.77s4.77,5.25,8.32,5.25h37.26c5.09,0,9.22-4.12,9.22-9.22s-4.13-9.22-9.22-9.22h-17.96l25.13-31.08c2.23-2.77,2.68-6.56,1.15-9.77s-4.77-5.25-8.32-5.25h-37.26c-5.09,0-9.22,4.12-9.22,9.22s4.13,9.22,9.22,9.22Z"/>
    </g>
  </g>
</svg>