<?xml version="1.0" encoding="UTF-8"?>
<svg id="Capa_1" data-name="Capa 1" xmlns="http://www.w3.org/2000/svg" viewBox="0 0 512 512">
  <g id="SVGRepo_iconCarrier" data-name="SVGRepo iconCarrier">
    <path d="M382.78,68.28c7.77,0,14.07,6.3,14.07,14.07s-6.3,14.07-14.07,14.07-14.07-6.3-14.07-14.07,6.3-14.07,14.07-14.07h0Zm-63.45,304.84c3.59-8.13,5.74-19.21,5.66-31.41-.12-24.95-9.57-45.15-21.04-45.11-11.48,.04-20.72,20.33-20.56,45.27,.08,12.2,2.35,23.27,6.02,31.41,10.04,18.37,20.01,16.42,29.93-.16h0Zm-140.76,51.33c.2,.44,.4,.88,.52,1.36h29.01c-3.51-8.93-6.38-18.93-8.53-29.69-2.67-13.43-4.14-28.18-4.22-43.6v-.36c-.12-31.37,5.7-59.9,15.18-80.7,1.87-4.07,3.87-7.85,6.02-11.36-1.59-1.36-3.23-2.47-4.9-3.31-2.27-1.16-4.58-1.83-6.85-1.91l-.6,.04v-.04h-.04c-9.8,.04-19.21,9.96-26.5,25.91-8.25,18.13-13.31,43.36-13.19,71.34v.28c.08,14.03,1.43,27.38,3.83,39.5,2.43,12.31,5.98,23.39,10.28,32.56h0Zm-20.25,1.36c-3.47-8.85-6.34-18.81-8.49-29.57-2.67-13.47-4.18-28.22-4.26-43.72v-.36c-.12-31.37,5.7-59.9,15.18-80.7,10.44-22.96,25.67-37.22,43.16-37.3v-.04h.04c.36,0,.72,0,1.04,.04,5.06,.12,9.92,1.43,14.51,3.79,3.31,1.67,6.5,3.91,9.57,6.66,7.41-6.66,15.7-10.4,24.63-10.44v-.04h.04c.36,0,.72,0,1.04,.04,5.1,.16,10.04,1.47,14.71,3.91,3.27,1.67,6.38,3.87,9.37,6.54,7.41-6.66,15.7-10.4,24.63-10.44v-.04h.04c.36,0,.72,0,1.08,.04,17.18,.48,32.2,14.55,42.68,37.1,9.68,20.8,15.78,49.38,15.94,80.78,.08,15.06-1.2,29.41-3.55,42.44-2.07,11.44-4.98,22-8.57,31.37h31.72c1.91,0,3.71-.8,4.98-2.07s2.07-3.03,2.07-4.98V209.4c0-1.91-.8-3.67-2.07-4.94-1.28-1.28-3.03-2.07-4.94-2.07H130.5c-1.91,0-3.67,.8-4.94,2.07s-2.07,3.03-2.07,4.94v209.35c0,1.91,.8,3.67,2.07,4.94s3.03,2.07,4.94,2.07h27.82v.04Zm69.94-1.51c.24,.48,.44,1,.6,1.51h29.05c-3.67-9.25-6.62-19.69-8.77-30.89-2.51-13.03-3.91-27.34-3.99-42.4v-.36c-.12-31.37,5.7-59.9,15.18-80.7,1.83-4.07,3.87-7.85,6.02-11.36-1.59-1.36-3.19-2.43-4.82-3.27-2.31-1.2-4.62-1.87-6.93-1.95l-.6,.04v-.04h-.04c-9.8,.04-19.21,9.96-26.5,25.91-8.25,18.13-13.31,43.36-13.19,71.34v.28c.08,13.99,1.43,27.3,3.83,39.38,2.35,12.35,5.9,23.39,10.16,32.52h0Zm49.1-1.55c.44,1,.72,2.03,.88,3.07h52.65c.12-1.12,.4-2.23,.88-3.31,3.99-9.13,7.21-20.01,9.41-32.12,2.15-11.88,3.31-24.79,3.23-38.22-.16-28.1-5.46-53.4-13.91-71.54-7.29-15.62-16.54-25.39-26.14-25.75l-.6,.04v-.04h-.04c-9.8,.04-19.21,9.96-26.5,25.91-8.25,18.13-13.31,43.36-13.19,71.34v.28c.08,13.51,1.36,26.46,3.63,38.34,2.31,12.12,5.66,22.96,9.72,32h0ZM130.5,182.9h252.36c7.29,0,13.91,2.99,18.69,7.77,4.78,4.78,7.77,11.44,7.77,18.73v209.35c0,7.25-2.99,13.87-7.77,18.65l-.04,.08c-4.78,4.78-11.4,7.77-18.65,7.77H130.5c-7.29,0-13.91-2.99-18.73-7.77-4.78-4.78-7.77-11.4-7.77-18.69V209.4c0-7.29,2.99-13.91,7.77-18.73,4.78-4.78,11.44-7.77,18.73-7.77h0Zm-10.24-114.62c7.77,0,14.07,6.3,14.07,14.07s-6.3,14.07-14.07,14.07-14.07-6.3-14.07-14.07,6.3-14.07,14.07-14.07h0Zm60.9-1.43h151.01v31.01H181.15v-31.01h0Zm-107.89,65.36H438.73V39.22c0-1.87-.76-3.55-1.99-4.78s-2.91-1.99-4.78-1.99H80.04c-1.87,0-3.55,.76-4.78,1.99s-1.99,2.91-1.99,4.78v92.98h0ZM457.18,478.42c0,6.93-2.83,13.27-7.41,17.85-4.58,4.58-10.92,7.41-17.85,7.41H80.04c-6.93,0-13.27-2.83-17.85-7.41-4.58-4.62-7.41-10.92-7.41-17.89V39.22c0-6.93,2.83-13.27,7.41-17.85,4.58-4.58,10.88-7.41,17.85-7.41H431.96c6.93,0,13.27,2.83,17.85,7.41,4.58,4.58,7.41,10.92,7.41,17.85-.04,153.56-.04,285.16-.04,439.19h0Zm-18.45-327.72H73.27V478.38c0,1.87,.76,3.55,1.99,4.78s2.91,1.99,4.78,1.99H431.96c1.87,0,3.55-.76,4.78-1.99s1.99-2.91,1.99-4.78V150.7h0Z"/>
  </g>
</svg>