<?xml version="1.0" encoding="UTF-8"?>
<svg id="Capa_1" data-name="Capa 1" xmlns="http://www.w3.org/2000/svg" viewBox="0 0 512 512">
  <g id="SVGRepo_iconCarrier" data-name="SVGRepo iconCarrier">
    <path d="M454.46,6.45H57.54c-8.09,0-14.65,6.56-14.65,14.65V490.51c0,8.09,6.56,14.65,14.65,14.65H454.46c8.09,0,14.65-6.56,14.65-14.65V21.09c0-8.09-6.56-14.65-14.65-14.65Zm-14.65,469.42H72.19V187.7h113.32c-38.22,23.68-63.73,66-63.73,114.17,0,74.01,60.21,134.22,134.22,134.22,51.63,0,99.27-30.16,121.37-76.84,8.53-18.01,12.86-37.31,12.86-57.38,0-5.02-.27-9.99-.81-14.91-1.62-14.75-5.65-28.98-12.05-42.49,0,0,0,0,0-.01-11.3-23.85-29.27-43.36-51.02-56.77h15.34c8.09,0,14.65-6.56,14.65-14.65s-6.56-14.65-14.65-14.65H72.19V35.74H439.81V475.87h0Zm-152.84-174c0,31.52,21.96,57.99,51.38,64.96-19.67,24.81-50.01,39.96-82.36,39.96-57.86,0-104.93-47.07-104.93-104.93s47.07-104.93,104.93-104.93c32.34,0,62.68,15.15,82.35,39.95-29.42,6.98-51.38,33.46-51.38,64.98Zm66.79-37.5h.24c.28,.73,.56,1.46,.83,2.19,.2,.56,.41,1.11,.6,1.68,.5,1.46,.96,2.94,1.39,4.43,.06,.22,.14,.44,.2,.66,.48,1.71,.91,3.43,1.31,5.16,.11,.5,.21,1.01,.31,1.52,.26,1.24,.51,2.48,.73,3.73,.11,.63,.21,1.26,.3,1.9,.18,1.16,.34,2.32,.48,3.48,.08,.65,.15,1.29,.22,1.94,.12,1.23,.22,2.46,.3,3.69,.04,.57,.09,1.14,.11,1.71,.09,1.8,.15,3.6,.15,5.42s-.06,3.62-.15,5.41c-.03,.57-.08,1.14-.12,1.72-.08,1.23-.18,2.45-.3,3.67-.07,.66-.15,1.31-.22,1.97-.14,1.15-.3,2.3-.47,3.44-.1,.64-.2,1.29-.31,1.93-.21,1.23-.46,2.45-.72,3.67-.11,.52-.21,1.05-.33,1.57-.39,1.72-.82,3.44-1.3,5.14-.07,.25-.15,.49-.23,.74-.42,1.46-.88,2.91-1.36,4.35-.19,.57-.4,1.13-.61,1.69-.26,.73-.54,1.46-.82,2.18h-.24c-20.68,0-37.5-16.82-37.5-37.49,0-20.68,16.82-37.5,37.5-37.5Z"/>
    <path d="M399.97,170.19c-.19-.94-.47-1.86-.83-2.75-.37-.88-.82-1.73-1.35-2.52-.53-.81-1.14-1.55-1.82-2.23-.67-.67-1.42-1.29-2.23-1.82-.79-.53-1.64-.98-2.53-1.35-.88-.37-1.8-.66-2.74-.83-1.89-.38-3.84-.38-5.73,0-.92,.18-1.85,.47-2.74,.83-.88,.37-1.73,.82-2.52,1.35-.81,.53-1.55,1.14-2.23,1.82s-1.29,1.42-1.83,2.23c-.53,.79-.98,1.64-1.35,2.52-.37,.89-.64,1.82-.83,2.75s-.28,1.9-.28,2.86,.09,1.92,.28,2.86c.19,.94,.47,1.86,.83,2.74,.37,.89,.82,1.74,1.35,2.53,.54,.81,1.16,1.55,1.83,2.23s1.42,1.29,2.23,1.82c.79,.53,1.64,.98,2.52,1.35,.89,.37,1.82,.66,2.74,.83,.95,.19,1.92,.29,2.87,.29s1.92-.1,2.86-.29c.94-.18,1.86-.47,2.74-.83,.89-.37,1.74-.82,2.53-1.35,.81-.53,1.55-1.14,2.23-1.82,.68-.67,1.29-1.42,1.82-2.23,.53-.79,.98-1.64,1.35-2.53,.37-.88,.64-1.8,.83-2.74s.29-1.9,.29-2.86-.1-1.92-.29-2.86Z"/>
    <path d="M315.36,56.61h-118.72c-8.09,0-14.65,6.56-14.65,14.65v51.51c0,8.09,6.56,14.65,14.65,14.65h118.72c8.09,0,14.65-6.56,14.65-14.65v-51.51c0-8.09-6.56-14.65-14.65-14.65Zm-14.65,51.51h-89.42v-22.21h89.42v22.21Z"/>
    <path d="M137.73,82.36h-19.77c-8.09,0-14.65,6.56-14.65,14.65s6.56,14.65,14.65,14.65h19.77c8.09,0,14.65-6.56,14.65-14.65,0-8.09-6.56-14.65-14.65-14.65Z"/>
    <path d="M394.04,82.36h-19.77c-8.09,0-14.65,6.56-14.65,14.65s6.56,14.65,14.65,14.65h19.77c8.09,0,14.65-6.56,14.65-14.65s-6.56-14.65-14.65-14.65Z"/>
  </g>
</svg>