<?xml version="1.0" encoding="UTF-8"?>
<svg id="Capa_1" data-name="Capa 1" xmlns="http://www.w3.org/2000/svg" viewBox="0 0 512 512">
  <path d="M130.19,7.02h251.58c7.18,0,13.7,2.94,18.43,7.63,4.73,4.73,7.67,11.26,7.67,18.43V451.46c0,7.18-2.94,13.7-7.67,18.43s-11.26,7.63-18.43,7.63h-20.72v11.54c0,10.48-8.56,19.09-19.05,19.09h0c-10.48,0-19.05-8.56-19.05-19.09v-11.54H189.77v11.54c0,10.48-8.56,19.09-19.05,19.09h0c-10.48,0-19.05-8.56-19.05-19.09v-11.54h-21.49c-7.18,0-13.7-2.94-18.43-7.63-4.69-4.73-7.63-11.26-7.63-18.43V33.08c0-7.18,2.94-13.7,7.63-18.43,4.73-4.69,11.26-7.63,18.43-7.63h0Zm131.97,265.57c23.78-22.55,26.02-7.34,0,17.37v27.24l23.82-13.74c8.32-34.71,22.59-40.09,15.05-8.69,24.22-13.99,30.22-2.85,6.16,11.01,31.4,9.3,19.41,18.88-15.05,8.69l-23.53,13.58,23.78,13.7c34.22-10.11,46.04-.49,15.05,8.69,24.22,13.99,17.62,24.75-6.44,10.85,7.67,31.89-6.65,26.18-15.05-8.69l-23.78-13.7v27.36c26.02,24.71,23.78,39.93,0,17.37,0,27.98-12.64,28.38-12.64,.16-23.41,22.27-25.9,7.22,0-17.37v-27.36l-23.45,13.54c-8.4,34.87-22.72,40.58-15.05,8.69-24.18,13.99-30.87,3.26-6.44-10.85-30.95-9.18-19.21-18.84,15.05-8.69l23.78-13.7-23.53-13.58c-34.42,10.2-46.45,.61-15.05-8.69-24.22-13.99-18.23-25.12,6.16-11.01-7.54-31.44,6.69-26.02,15.05,8.69l23.53,13.58v-27.24c-25.9-24.59-23.45-39.6,0-17.37,0-27.98,12.6-27.61,12.6,.16h0Zm-114.72-95.59c0-5.71,4.61-10.32,10.32-10.32s10.32,4.61,10.32,10.32v65.98c0,5.71-4.61,10.32-10.32,10.32s-10.32-4.61-10.32-10.32v-65.98h0Zm0-125.85c0-5.71,4.61-10.32,10.32-10.32s10.32,4.61,10.32,10.32v43.68c0,5.71-4.61,10.32-10.32,10.32s-10.32-4.61-10.32-10.32V51.15h0Zm-22.63,76.91H387.24V33.08c0-1.47-.61-2.85-1.63-3.83-.98-.98-2.32-1.63-3.83-1.63H130.19c-1.47,0-2.85,.61-3.83,1.63-.98,.98-1.63,2.32-1.63,3.83v94.98h.08Zm262.39,20.68H124.81V451.42c0,1.47,.61,2.85,1.63,3.83,.98,.98,2.32,1.63,3.83,1.63h251.54c1.47,0,2.85-.61,3.83-1.63,.98-.98,1.63-2.32,1.63-3.83V148.74h-.08Z"/>
</svg>