<?xml version="1.0" encoding="UTF-8"?>
<svg id="Capa_1" data-name="Capa 1" xmlns="http://www.w3.org/2000/svg" viewBox="0 0 512 512">
  <g id="SVGRepo_iconCarrier" data-name="SVGRepo iconCarrier">
    <g>
      <path d="M30.08,144.5c1.75,0,3.51-.59,4.96-1.8l8.09-6.75c3.29-2.74,3.73-7.63,.98-10.91-2.74-3.29-7.63-3.73-10.91-.98l-8.09,6.75c-3.29,2.74-3.73,7.63-.98,10.91,1.53,1.84,3.73,2.78,5.95,2.78Z"/>
      <path d="M159.98,68.69l9.1,5.3c1.23,.71,2.57,1.05,3.89,1.05,2.67,0,5.27-1.38,6.7-3.85,2.15-3.7,.9-8.44-2.8-10.6l-9.1-5.3c-3.7-2.15-8.44-.9-10.6,2.8-2.15,3.7-.9,8.44,2.8,10.6Z"/>
      <path d="M405.95,163.38c1.06,3.28,4.1,5.37,7.37,5.37,.79,0,1.59-.12,2.38-.38,4.07-1.31,6.31-5.68,5-9.75l-3.23-10.02c-1.31-4.07-5.69-6.31-9.75-5-4.07,1.31-6.31,5.68-5,9.75l3.23,10.02Z"/>
      <path d="M471.99,97.99c.38,0,.77-.03,1.16-.09l10.42-1.56c4.23-.63,7.15-4.58,6.52-8.81-.63-4.23-4.59-7.14-8.81-6.52l-10.42,1.56c-4.23,.63-7.15,4.58-6.52,8.81,.58,3.84,3.88,6.6,7.65,6.6Z"/>
      <path d="M368.67,25.67c.38,0,.77-.03,1.16-.09l10.42-1.56c4.23-.63,7.15-4.58,6.52-8.81-.63-4.23-4.59-7.15-8.81-6.52l-10.42,1.56c-4.23,.63-7.15,4.58-6.52,8.81,.58,3.84,3.88,6.6,7.65,6.6Z"/>
      <path d="M461.35,332.07c.5,0,1.01-.05,1.53-.15l10.33-2.07c4.2-.84,6.92-4.92,6.08-9.12-.84-4.2-4.92-6.91-9.12-6.08l-10.33,2.07c-4.2,.84-6.92,4.92-6.08,9.12,.74,3.68,3.97,6.23,7.59,6.23Z"/>
      <path d="M492.75,483.86h-5.69c1.99-3.88,3.11-8.27,3.11-12.91,0-8.13-3.44-15.48-8.93-20.66,5.5-5.18,8.93-12.53,8.93-20.66,0-15.67-12.75-28.41-28.41-28.41h-16.02c1.99-3.88,3.11-8.27,3.11-12.91,0-15.67-12.75-28.41-28.41-28.41h-10.33c-15.67,0-28.41,12.75-28.41,28.41,0,8.13,3.44,15.48,8.93,20.66-5.5,5.18-8.93,12.53-8.93,20.66,0,4.65,1.12,9.04,3.11,12.91h-5.69c-15.67,0-28.41,12.75-28.41,28.41,0,4.65,1.12,9.04,3.11,12.91h-16.02c-4.28,0-7.75,3.47-7.75,7.75s3.47,7.75,7.75,7.75h154.97c4.28,0,7.75-3.47,7.75-7.75,0-4.28-3.47-7.75-7.75-7.75Zm-82.65-108.48h10.33c7.12,0,12.91,5.79,12.91,12.91s-5.79,12.91-12.91,12.91h-10.33c-7.12,0-12.91-5.79-12.91-12.91,0-7.12,5.79-12.91,12.91-12.91Zm36.33,82.65h15.32c7.12,0,12.91,5.79,12.91,12.91s-5.79,12.91-12.91,12.91h-82.65c-7.12,0-12.91-5.79-12.91-12.91s5.79-12.91,12.91-12.91h40.64c4.28,0,7.75-3.47,7.75-7.75s-3.47-7.75-7.75-7.75h-9.64c-7.12,0-12.91-5.79-12.91-12.91s5.79-12.91,12.91-12.91h51.66c7.12,0,12.91,5.79,12.91,12.91s-5.79,12.91-12.91,12.91h-15.32c-4.28,0-7.75,3.47-7.75,7.75s3.47,7.75,7.75,7.75Z"/>
      <path d="M58.82,348.81h62.68c4.28,0,7.75-3.47,7.75-7.75s-3.47-7.75-7.75-7.75H58.82c-18.51,0-33.58-15.06-33.58-33.58,0-50.87,21.15-99.4,58.23-134.04,3.39,1.94,7.32,3.05,11.51,3.05h20.66c12.82,0,23.25-10.43,23.25-23.25,0-5.06-1.62-9.75-4.38-13.57,23.32-10.35,48.2-15.58,74.12-15.58,69.88,0,133.44,39.69,164.31,101.84-7.11,3.98-11.92,11.59-11.92,20.29,0,12.82,10.43,23.25,23.25,23.25h3.81c2.62,12.43,3.94,25.19,3.94,38.01,0,18.51-15.06,33.58-33.58,33.58h-15.65c-4.28,0-7.75,3.47-7.75,7.75s3.47,7.75,7.75,7.75h15.65c27.06,0,49.07-22.02,49.07-49.07,0-13.4-1.34-26.75-3.98-39.79,8.4-3.51,14.31-11.81,14.31-21.46,0-12.82-10.43-23.25-23.25-23.25h-5.88c-32.72-69.65-102.85-114.38-180.09-114.38-31.31,0-62.45,7.45-90.17,21.57-.92-.11-1.86-.17-2.81-.17h-20.66c-12.82,0-23.25,10.43-23.25,23.25,0,2.99,.57,5.84,1.59,8.47C32.85,191.56,9.75,244.37,9.75,299.74c0,27.06,22.02,49.07,49.07,49.07Zm325.44-118.08h10.33c4.27,0,7.75,3.48,7.75,7.75s-3.48,7.75-7.75,7.75h-10.33c-4.27,0-7.75-3.48-7.75-7.75s3.48-7.75,7.75-7.75ZM94.98,137.75h20.66c4.27,0,7.75,3.48,7.75,7.75s-3.48,7.75-7.75,7.75h-20.66c-4.27,0-7.75-3.48-7.75-7.75s3.48-7.75,7.75-7.75Z"/>
      <path d="M59.52,383.98l-8.09,6.75c-3.29,2.74-3.73,7.63-.98,10.91,1.53,1.84,3.74,2.78,5.95,2.78,1.75,0,3.51-.59,4.96-1.8l8.09-6.75c3.29-2.74,3.73-7.63,.98-10.91-2.74-3.29-7.63-3.73-10.91-.98Z"/>
      <path d="M102.73,449.25v1.03c0,4.28,3.47,7.75,7.75,7.75s7.75-3.47,7.75-7.75v-1.03c0-4.28-3.47-7.75-7.75-7.75-4.28,0-7.75,3.47-7.75,7.75Z"/>
      <path d="M283.53,346.97v-1.03c0-4.28-3.47-7.75-7.75-7.75s-7.75,3.47-7.75,7.75v1.03c0,4.28,3.47,7.75,7.75,7.75s7.75-3.47,7.75-7.75Z"/>
      <path d="M309.88,483.86h-67.67v-15.5h54.24c27.06,0,49.07-22.02,49.07-49.07v-10.33c0-61.24-49.82-111.06-111.06-111.06-6.15,0-12.19,.5-18.08,1.47v-14.38c0-7.12,5.79-12.91,12.91-12.91h10.33c4.28,0,7.75-3.47,7.75-7.75s-3.47-7.75-7.75-7.75h-10.33c-4.65,0-9.04,1.12-12.91,3.11v-16.02c0-4.28-3.47-7.75-7.75-7.75s-7.75,3.47-7.75,7.75v36.69c-3.88-1.99-8.27-3.11-12.91-3.11h-10.33c-4.28,0-7.75,3.47-7.75,7.75s3.47,7.75,7.75,7.75h10.33c6.27,0,11.51,4.49,12.67,10.42-40.48,12.93-71.24,48.48-76.47,92.62-.5,4.25,2.53,8.1,6.78,8.61,4.25,.5,8.1-2.53,8.61-6.78,5.68-48,46.48-84.2,94.9-84.2,52.7,0,95.57,42.87,95.57,95.57v10.33c0,18.51-15.06,33.58-33.58,33.58h-54.24v-12.91c0-7.12,5.79-12.91,12.91-12.91h10.33c4.28,0,7.75-3.47,7.75-7.75s-3.47-7.75-7.75-7.75h-10.33c-5.97,0-11.52,1.85-16.1,5.01-4.74-9.11-14.27-15.35-25.23-15.35h-10.33c-4.28,0-7.75,3.47-7.75,7.75s3.47,7.75,7.75,7.75h10.33c7.12,0,12.91,5.79,12.91,12.91v23.25h-38.97c-7.67-23.94-30.14-41.33-56.59-41.33h-10.33c-32.76,0-59.41,26.65-59.41,59.41,0,4.65,1.12,9.04,3.11,12.91H17.49c-4.28,0-7.75,3.47-7.75,7.75s3.47,7.75,7.75,7.75H111.17c4.28,0,7.75-3.47,7.75-7.75s-3.47-7.75-7.75-7.75h-21.35c-7.12,0-12.91-5.79-12.91-12.91,0-24.21,19.7-43.91,43.91-43.91h10.33c24.21,0,43.91,19.7,43.91,43.91,0,7.12-5.79,12.91-12.91,12.91h-24.11c-4.28,0-7.75,3.47-7.75,7.75s3.47,7.75,7.75,7.75h171.85c4.28,0,7.75-3.47,7.75-7.75,0-4.28-3.47-7.75-7.75-7.75Zm-109,0h-13.44c1.99-3.88,3.11-8.27,3.11-12.91,0-.87-.02-1.73-.06-2.58h10.39s0,15.5,0,15.5Zm25.83,0h-10.33v-15.5h10.33v15.5Z"/>
      <path d="M257.7,376.93v1.03c0,4.28,3.47,7.75,7.75,7.75s7.75-3.47,7.75-7.75v-1.03c0-4.28-3.47-7.75-7.75-7.75-4.28,0-7.75,3.47-7.75,7.75Z"/>
      <path d="M115.64,256.57h-41.33c-12.82,0-23.25,10.43-23.25,23.25s10.43,23.25,23.25,23.25h41.33c12.82,0,23.25-10.43,23.25-23.25s-10.43-23.25-23.25-23.25Zm0,30.99h-41.33c-4.27,0-7.75-3.48-7.75-7.75s3.48-7.75,7.75-7.75h41.33c4.27,0,7.75,3.48,7.75,7.75,0,4.27-3.48,7.75-7.75,7.75Z"/>
      <path d="M270.62,173.92c-12.82,0-23.25,10.43-23.25,23.25s10.43,23.25,23.25,23.25h20.66c12.82,0,23.25-10.43,23.25-23.25s-10.43-23.25-23.25-23.25h-20.66Zm28.41,23.25c0,4.27-3.48,7.75-7.75,7.75h-20.66c-4.27,0-7.75-3.48-7.75-7.75s3.48-7.75,7.75-7.75h20.66c4.27,0,7.75,3.48,7.75,7.75Z"/>
      <path d="M304.2,373.31v-1.03c0-4.28-3.47-7.75-7.75-7.75s-7.75,3.47-7.75,7.75v1.03c0,4.28,3.47,7.75,7.75,7.75,4.28,0,7.75-3.47,7.75-7.75Z"/>
    </g>
  </g>
</svg>