<?xml version="1.0" encoding="UTF-8"?>
<svg id="Icons" xmlns="http://www.w3.org/2000/svg" viewBox="0 0 512 512">
  <circle cx="271.14" cy="134.85" r="106" style="fill: none; stroke: #000; stroke-linecap: round; stroke-linejoin: round; stroke-width: 35px;"/>
  <path d="M354.43,201.48c9.09,22.72,19.69,43.92,33.32,65.12l18.17,28.77c21.2,33.32,31.8,72.69,31.8,112.06h0l-116.6,54.52c-49.97,22.72-109.03,19.69-155.98-9.09h0l-15.14,30.29" style="fill: none; stroke: #000; stroke-linecap: round; stroke-linejoin: round; stroke-width: 35px;"/>
  <path d="M180.28,301.43h36.34c34.83,0,66.63,16.66,84.8,45.43h15.14c-10.6-30.29-15.14-30.29-15.14-90.86" style="fill: none; stroke: #000; stroke-linecap: round; stroke-linejoin: round; stroke-width: 35px;"/>
  <circle cx="271.14" cy="134.85" r="30.29" style="fill: none; stroke: #000; stroke-linecap: round; stroke-linejoin: round; stroke-width: 35px;"/>
  <line x1="228.74" y1="92.45" x2="249.94" y2="113.65" style="fill: none; stroke: #000; stroke-linecap: round; stroke-linejoin: round; stroke-width: 35px;"/>
  <line x1="228.74" y1="177.25" x2="249.94" y2="156.05" style="fill: none; stroke: #000; stroke-linecap: round; stroke-linejoin: round; stroke-width: 35px;"/>
  <line x1="313.54" y1="177.25" x2="292.34" y2="156.05" style="fill: none; stroke: #000; stroke-linecap: round; stroke-linejoin: round; stroke-width: 35px;"/>
  <line x1="313.54" y1="92.45" x2="292.34" y2="113.65" style="fill: none; stroke: #000; stroke-linecap: round; stroke-linejoin: round; stroke-width: 35px;"/>
  <path d="M74.28,225.71c28.77,0,54.52,12.11,74.2,30.29,19.69,19.69,31.8,45.43,31.8,75.72" style="fill: none; stroke: #000; stroke-linecap: round; stroke-linejoin: round; stroke-width: 35px;"/>
</svg>