<?xml version="1.0" encoding="UTF-8"?>
<svg id="Icons" xmlns="http://www.w3.org/2000/svg" viewBox="0 0 512 512">
  <path d="M117.25,379.33h0c-16.96,0-30.83-13.87-30.83-30.83V163.5c0-16.96,13.88-30.83,30.83-30.83h0c16.96,0,30.83,13.87,30.83,30.83v185c0,16.96-13.87,30.83-30.83,30.83Z" style="fill: none; stroke: #000; stroke-linecap: round; stroke-linejoin: round; stroke-width: 35px;"/>
  <path d="M55.58,333.08h0c-16.96,0-30.83-13.87-30.83-30.83v-92.5c0-16.96,13.87-30.83,30.83-30.83h0c16.96,0,30.83,13.87,30.83,30.83v92.5c0,16.96-13.88,30.83-30.83,30.83Z" style="fill: none; stroke: #000; stroke-linecap: round; stroke-linejoin: round; stroke-width: 35px;"/>
  <path d="M394.75,132.67h0c16.96,0,30.83,13.87,30.83,30.83v185c0,16.96-13.87,30.83-30.83,30.83h0c-16.96,0-30.83-13.87-30.83-30.83V163.5c0-16.96,13.87-30.83,30.83-30.83Z" style="fill: none; stroke: #000; stroke-linecap: round; stroke-linejoin: round; stroke-width: 35px;"/>
  <path d="M456.42,178.92h0c16.96,0,30.83,13.87,30.83,30.83v92.5c0,16.96-13.87,30.83-30.83,30.83h0c-16.96,0-30.83-13.87-30.83-30.83v-92.5c0-16.96,13.87-30.83,30.83-30.83Z" style="fill: none; stroke: #000; stroke-linecap: round; stroke-linejoin: round; stroke-width: 35px;"/>
  <line x1="148.08" y1="256" x2="363.92" y2="256" style="fill: none; stroke: #000; stroke-linecap: round; stroke-linejoin: round; stroke-width: 35px;"/>
</svg>