<?xml version="1.0" encoding="UTF-8"?>
<svg id="Capa_1" data-name="Capa 1" xmlns="http://www.w3.org/2000/svg" viewBox="0 0 512 512">
  <path d="M145.97,28.04C69.4,28.04,7.09,90.35,7.09,166.92c0,38.29,15.46,73.12,40.61,98.27,.19,.12,.43,.23,.62,.31,.27,.27,.35,.7,.62,.93,.66,.81,1.86,2.36,4.03,6.82,3.02,6.2,6.74,16.31,8.68,31,.7,5.27-.31,24.53-2.79,44.95s-6.08,43.17-9.61,60.14c-3.18,15.23-2.87,29.14,3.41,40.92,6.28,11.78,18.1,20.15,33.79,24.8,.43,.04,.81,.04,1.24,0l48.98,8.37h.31c2.87,.35,11.47,1.01,20.77,0,4.65-.5,9.49-1.16,14.26-3.41,4.77-2.25,9.96-6.43,12.09-12.71,2.36-7.01,1.05-14.45-1.24-19.53s-4.73-8.45-6.82-12.4c-4.19-7.91-8.14-18.06-2.17-43.71,5.15-22.13,10.77-39.6,17.36-61.07,5.5-17.94,13.1-27.51,18.91-32.86s8.68-5.89,8.68-5.89c.97-.27,1.94-.7,2.79-1.24l164.92-40.92c4.38-1.12,7.44-5.08,7.44-9.61V93.76c0-4.53-3.06-8.49-7.44-9.61L188.44,34.86l-.62-.31v.31c-13.21-4.19-27.2-6.82-41.85-6.82Zm0,19.84c12.71,0,25.07,2.17,36.58,5.89h.62l190.96,47.74V232.33l-190.96,47.74h-.62c-11.51,3.72-23.87,5.89-36.58,5.89-32.51,0-61.92-13.02-83.39-34.1-.31-.23-.62-.43-.93-.62-.19-.19-.43-.43-.62-.62-.19-.23-.39-.43-.62-.62-20.81-21.43-33.48-50.8-33.48-83.08,0-65.84,53.2-119.04,119.04-119.04Zm0,49.6c-38.25,0-69.44,31.19-69.44,69.44s31.19,69.44,69.44,69.44,69.44-31.19,69.44-69.44-31.19-69.44-69.44-69.44Zm265.67,9.61c-5.23,1.05-8.84,5.89-8.29,11.24,.58,5.31,5.12,9.3,10.46,9.22,23.02,0,26.7,3.45,34.41,8.37,7.71,4.92,19.49,11.47,44.95,11.47,3.99,.54,7.94-1.28,10.11-4.65,2.17-3.41,2.17-7.75,0-11.16-2.17-3.37-6.12-5.19-10.11-4.65-22.63,0-26.04-3.37-33.79-8.37-7.75-5-19.76-11.47-45.57-11.47-.74-.08-1.43-.08-2.17,0Zm-265.67,10.23c27.51,0,49.6,22.09,49.6,49.6s-22.09,49.6-49.6,49.6-49.6-22.09-49.6-49.6,22.09-49.6,49.6-49.6Zm265.67,39.37c-5.23,1.05-8.84,5.89-8.29,11.24,.58,5.31,5.12,9.3,10.46,9.22,23.02,0,26.7,3.45,34.41,8.37s19.49,11.47,44.95,11.47c3.99,.54,7.94-1.28,10.11-4.65,2.17-3.41,2.17-7.75,0-11.16-2.17-3.37-6.12-5.19-10.11-4.65-22.63,0-26.04-3.37-33.79-8.37-7.75-5-19.76-11.47-45.57-11.47-.74-.08-1.43-.08-2.17,0Zm0,49.6c-5.23,1.05-8.84,5.89-8.29,11.24,.58,5.31,5.12,9.3,10.46,9.22,23.02,0,26.7,3.45,34.41,8.37s19.49,11.47,44.95,11.47c3.99,.54,7.94-1.28,10.11-4.65,2.17-3.41,2.17-7.75,0-11.16-2.17-3.37-6.12-5.19-10.11-4.65-22.63,0-26.04-3.37-33.79-8.37-7.75-5-19.76-11.47-45.57-11.47-.74-.08-1.43-.08-2.17,0ZM79.01,288.44c19.92,11.04,42.63,17.36,66.96,17.36,12.94,0,25.34-2.21,37.2-5.58-3.95,6.67-7.83,14.88-10.85,24.8-6.55,21.39-12.32,39.1-17.67,62-6.74,28.99-2.05,46.77,3.72,57.66,2.91,5.46,5.5,8.95,6.51,11.16,1.01,2.21,1.24,2.25,.31,4.96,0-.04,.12,.47-1.55,1.24s-4.77,1.51-8.06,1.86c-6.47,.7-13.68-.08-15.81-.31h-.31l-47.43-7.75c-.16-.04-.16-.27-.31-.31-12.21-3.72-18.48-8.49-21.7-14.57-3.26-6.16-3.88-14.92-1.24-27.59,3.72-17.75,7.36-41,9.92-62,2.56-21,4.26-38.4,2.79-49.6-.62-4.84-1.55-9.22-2.48-13.33Z"/>
</svg>