<?xml version="1.0" encoding="UTF-8"?>
<svg id="Capa_1" data-name="Capa 1" xmlns="http://www.w3.org/2000/svg" viewBox="0 0 512 512">
  <path d="M452.31,167.68c-7.16,0-12.96,5.81-12.96,12.96v50.68h-14.49v-11.55c0-28.72-23.37-52.09-52.09-52.09-15.6,0-29.57,6.93-39.13,17.82-9.56-10.89-23.53-17.82-39.12-17.82s-29.58,6.93-39.13,17.82c-9.56-10.89-23.54-17.82-39.13-17.82s-29.57,6.93-39.13,17.82c-9.56-10.89-23.54-17.82-39.13-17.82-28.72,0-52.09,23.37-52.09,52.09v11.55h-26.19c-7.15,0-12.96,5.8-12.96,12.96s5.81,12.96,12.96,12.96h26.17v193.42c0,28.72,23.37,52.09,52.09,52.09,15.6,0,29.58-6.93,39.13-17.82,9.56,10.89,23.53,17.82,39.13,17.82s29.57-6.93,39.13-17.82c9.55,10.89,23.54,17.82,39.13,17.82s29.58-6.93,39.13-17.82c9.55,10.89,23.54,17.82,39.13,17.82,28.72,0,52.09-23.37,52.09-52.09v-193.41h27.44c7.15,0,12.96-5.81,12.96-12.96v-63.64c.02-7.16-5.79-12.97-12.94-12.97Zm-53.37,89.57v193.42c0,14.44-11.74,26.17-26.16,26.17s-26.17-11.74-26.17-26.17V219.78c0-14.43,11.74-26.17,26.17-26.17s26.16,11.74,26.16,26.17v37.47h0Zm-78.26,193.42c0,14.43-11.74,26.17-26.17,26.17s-26.17-11.74-26.17-26.17V219.78c0-14.43,11.74-26.17,26.17-26.17s26.17,11.74,26.17,26.17v230.89Zm-78.26,0c0,14.43-11.74,26.17-26.17,26.17s-26.17-11.74-26.17-26.17V219.78c0-14.43,11.74-26.17,26.17-26.17s26.17,11.74,26.17,26.17v230.89Zm-78.26,0c0,14.43-11.75,26.17-26.17,26.17s-26.17-11.74-26.17-26.17V219.78c0-14.43,11.74-26.17,26.17-26.17s26.17,11.74,26.17,26.17v230.89Z" style="fill: #010101;"/>
  <path d="M169.18,13.59c-11.68,13.93-16.49,28.69-10.7,46.4,5.71,17.48,23.26,33.5,9.26,51.51-10.13,13.02,8.08,31.51,18.32,18.33,11.53-14.83,16.52-29.96,10.7-48.36-5.25-16.6-23.22-32.9-9.26-49.56,10.66-12.72-7.57-31.15-18.32-18.33Z" style="fill: #010101;"/>
  <path d="M263.83,129.83c11.54-14.83,16.52-29.96,10.7-48.36-5.25-16.6-23.23-32.9-9.26-49.56,10.66-12.72-7.58-31.15-18.32-18.33-11.68,13.93-16.49,28.69-10.7,46.4,5.71,17.48,23.26,33.5,9.26,51.51-10.14,13.02,8.06,31.51,18.32,18.33Z" style="fill: #010101;"/>
  <path d="M324.69,13.59c-11.68,13.93-16.49,28.69-10.7,46.4,5.72,17.48,23.26,33.5,9.27,51.51-10.13,13.02,8.07,31.51,18.32,18.33,11.53-14.83,16.52-29.96,10.7-48.36-5.26-16.6-23.23-32.9-9.26-49.56,10.66-12.72-7.57-31.15-18.33-18.33Z" style="fill: #010101;"/>
</svg>