<?xml version="1.0" encoding="UTF-8"?>
<svg id="Capa_1" data-name="Capa 1" xmlns="http://www.w3.org/2000/svg" viewBox="0 0 512 512">
  <g id="SVGRepo_iconCarrier" data-name="SVGRepo iconCarrier">
    <g>
      <path d="M443.57,453.15H51.08c-7.42,0-13.44-6.02-13.44-13.44v-10.04c0-52.09,16.24-101.96,46.96-144.22,18.49-25.46,41.31-46.91,67.82-63.75,39.4-25.05,84.87-38.3,131.5-38.3h135.38c7.42,0,13.44,6.02,13.44,13.44s-6.02,13.44-13.44,13.44h-135.38c-41.51,0-82,11.79-117.08,34.1-23.64,15.03-43.99,34.16-60.49,56.87-26.69,36.72-41.11,79.88-41.8,125.02H443.57c15.37,0,27.87-12.5,27.87-27.87V221.76c0-7.42,6.02-13.44,13.44-13.44s13.44,6.02,13.44,13.44v176.65c0,30.19-24.56,54.75-54.75,54.75Z"/>
      <path d="M403.23,346.35H222.42c-7.42,0-13.44-6.02-13.44-13.44v-3.25c0-48.97,39.84-88.82,88.82-88.82h110.75c7.42,0,13.44,6.02,13.44,13.44s-6.02,13.44-13.44,13.44h-110.75c-30.69,0-56.23,22.43-61.1,51.75h166.54l-.06-15.8c0-7.42,6.02-13.44,13.44-13.44s13.44,6.02,13.44,13.44v15.87c0,14.78-12.03,26.81-26.81,26.81Z"/>
    </g>
    <path d="M54.45,390.36c-2.2,12.79-3.36,25.93-3.36,39.32v10.04H443.56c22.82,0,41.31-18.5,41.31-41.31v-8.05H54.45Z" style="fill: #fff;"/>
    <g>
      <path d="M443.56,453.15H51.08c-7.42,0-13.44-6.02-13.44-13.44v-10.04c0-13.88,1.2-27.88,3.56-41.6,1.11-6.45,6.7-11.16,13.24-11.16H484.87c7.42,0,13.44,6.02,13.44,13.44v8.05c0,30.19-24.56,54.75-54.75,54.75Zm-379.01-26.88H443.56c13.53,0,24.83-9.68,27.35-22.48H66.07c-.89,7.47-1.4,14.99-1.52,22.48Z"/>
      <path d="M73.03,453.15H21.97c-7.42,0-13.44-6.02-13.44-13.44s6.02-13.44,13.44-13.44h51.07c7.42,0,13.44,6.02,13.44,13.44s-6.02,13.44-13.44,13.44Z"/>
    </g>
    <path d="M168.24,259.32c0,24.48-19.86,44.35-44.35,44.35-10.82,0-20.72-3.87-28.42-10.31,17.38-23.92,39.16-44.43,64.16-60.31,5.42,7.35,8.61,16.45,8.61,26.27Z" style="fill: #fff;"/>
    <g>
      <path d="M123.89,317.1c-13.52,0-26.68-4.77-37.04-13.44-5.42-4.53-6.41-12.49-2.25-18.21,18.5-25.46,41.31-46.91,67.82-63.75,5.96-3.79,13.84-2.31,18.03,3.37,7.35,9.97,11.23,21.82,11.23,34.24,0,31.86-25.92,57.79-57.79,57.79Zm-8.12-27.94c2.61,.7,5.33,1.06,8.12,1.06,17.04,0,30.91-13.87,30.91-30.91,0-2.13-.21-4.22-.63-6.26-14.21,10.47-27.06,22.55-38.4,36.11Z"/>
      <path d="M484.88,260c-7.42,0-13.44-6.02-13.44-13.44V116.6c0-13.92-11.33-25.25-25.25-25.25s-25.25,11.33-25.25,25.25v1.72c0,7.42-6.02,13.44-13.44,13.44s-13.44-6.02-13.44-13.44v-1.72c0-28.74,23.38-52.12,52.12-52.12s52.12,23.38,52.12,52.12V246.56c0,7.42-6.02,13.44-13.44,13.44Z"/>
    </g>
  </g>
</svg>