<?xml version="1.0" encoding="UTF-8"?>
<svg id="Layer_1" data-name="Layer 1" xmlns="http://www.w3.org/2000/svg" viewBox="0 0 512 512">
  <path d="M318.54,76.01h0c58.44,0,105.82,47.38,105.82,105.82H212.72c0-58.44,47.38-105.82,105.82-105.82Z" style="fill: none; stroke: #020202; stroke-miterlimit: 333.33; stroke-width: 17.3px;"/>
  <path d="M318.54,76.01h0c0-35.09-28.45-63.54-63.54-63.54h-105.82c-34.97-.12-63.41,28.13-63.54,63.09,0,.15,0,.3,0,.44V499.52" style="fill: none; stroke: #020202; stroke-miterlimit: 333.33; stroke-width: 17.3px;"/>
  <g>
    <path d="M352.07,377.95c-.46-.29-1.38-.85-1.38-2.23v-124.51c0-17.72-14.42-32.14-32.14-32.14s-32.14,14.42-32.14,32.14v124.63c0,1.16-.93,1.81-1.39,2.11-17.71,11.37-28.52,30.94-28.52,52.21,0,34.22,27.84,62.05,62.05,62.05s62.05-27.84,62.05-62.05c0-21.27-10.81-40.84-28.53-52.22Zm-33.53,102.95c-27.97,0-50.73-22.76-50.73-50.74,0-18.78,10.31-35.95,26.91-44.8l.7-.37s2.3-.92,2.3-4.59V251.21c0-11.48,9.34-20.82,20.82-20.82s20.82,9.34,20.82,20.82v129.24c0,3.63,2.44,4.62,2.44,4.62l.56,.3c16.6,8.85,26.91,26.01,26.91,44.8,0,27.98-22.76,50.74-50.73,50.74Z"/>
    <path d="M328.54,406.3c-.56-.21-1.69-.56-1.69-2.44v-127.83c0-4.58-3.72-8.3-8.3-8.3s-8.3,3.72-8.3,8.3v127.83c0,1.82-1.25,2.27-1.86,2.51-10.6,4.09-18.14,14.38-18.14,26.41,0,15.6,12.69,28.3,28.3,28.3s28.3-12.69,28.3-28.3c0-12.08-7.62-22.42-18.3-26.47Z"/>
  </g>
  <path d="M205.44,268.39c0,9.49,7.69,17.19,17.17,17.19s17.17-7.69,17.17-17.19-17.17-30.59-17.17-30.59c0,0-17.17,21.1-17.17,30.59Z"/>
  <path d="M232.14,224.48c0,9.49,7.68,17.19,17.17,17.19s17.17-7.69,17.17-17.19-17.17-30.59-17.17-30.59c0,0-17.17,21.1-17.17,30.59Z"/>
  <path d="M392.01,237.08c0,9.49,7.69,17.19,17.17,17.19s17.17-7.69,17.17-17.19-17.17-30.59-17.17-30.59c0,0-17.17,21.1-17.17,30.59Z"/>
  <path d="M362.69,287.38c0,11.89,9.63,21.53,21.51,21.53s21.51-9.64,21.51-21.53-21.51-38.32-21.51-38.32c0,0-21.51,26.43-21.51,38.32Z"/>
  <path d="M351.61,224.34c0,9.48,7.69,17.16,17.17,17.16s17.18-7.68,17.18-17.16-17.17-30.6-17.17-30.6c0,0-17.18,21.11-17.18,30.6Z"/>
  <path d="M239.78,294.32c0,11.89,9.63,21.53,21.51,21.53s21.51-9.64,21.51-21.53-21.51-38.32-21.51-38.32c0,0-21.51,26.43-21.51,38.32Z"/>
</svg>