<?xml version="1.0" encoding="UTF-8"?>
<svg id="Layer_1" data-name="Layer 1" xmlns="http://www.w3.org/2000/svg" viewBox="0 0 512 512">
  <path d="M87.43,46.12H424.57c27.44,0,49.68,22.2,49.68,49.57h0c0,27.38-22.24,49.57-49.68,49.57H87.43c-27.44,0-49.68-22.2-49.68-49.57h0c0-27.38,22.24-49.57,49.68-49.57Z" style="fill: none; stroke: #020202; stroke-miterlimit: 333.33; stroke-width: 35px;"/>
  <rect x="57.49" y="145.27" width="396.81" height="337.36" style="fill: none; stroke: #020202; stroke-miterlimit: 333.33; stroke-width: 35px;"/>
  <path d="M256,224.68h0c65.78,0,119.1,53.32,119.1,119.1v138.85H136.9v-138.85c0-65.78,53.32-119.1,119.1-119.1Z" style="fill: none; stroke: #020202; stroke-miterlimit: 333.33; stroke-width: 35px;"/>
  <path d="M315.45,423.18c0,32.83-26.62,59.45-59.45,59.45s-59.45-26.62-59.45-59.45,59.45-99.36,59.45-99.36c0,0,59.45,66.31,59.45,99.36Z" style="fill: none; stroke: #020202; stroke-miterlimit: 333.33; stroke-width: 35px;"/>
  <path d="M285.72,452.91c0,16.42-13.32,29.72-29.74,29.71-16.41,0-29.7-13.3-29.71-29.71,0-16.42,29.72-49.68,29.72-49.68,0,0,29.72,33.26,29.72,49.68Z" style="fill: #020202;"/>
  <line x1="18" y1="482.63" x2="494" y2="482.63" style="fill: none; stroke: #020202; stroke-miterlimit: 333.33; stroke-width: 35px;"/>
</svg>