<?xml version="1.0" encoding="UTF-8"?>
<svg id="Capa_1" data-name="Capa 1" xmlns="http://www.w3.org/2000/svg" viewBox="0 0 512 512">
  <path d="M471.23,16.45H40.77c-13.41,0-24.32,10.91-24.32,24.32V471.23c0,13.41,10.91,24.32,24.32,24.32H106.99c52.45,0,103.34-10.27,151.24-30.54,46.27-19.57,87.82-47.59,123.5-83.27,35.68-35.68,63.7-77.23,83.27-123.5,20.26-47.91,30.54-98.79,30.54-151.24V40.77c0-13.41-10.91-24.32-24.32-24.32Zm8.8,90.54c0,99.64-38.8,193.32-109.26,263.77-70.46,70.46-164.13,109.26-263.77,109.26H40.77c-4.85,0-8.8-3.95-8.8-8.8V40.77c0-4.85,3.95-8.8,8.8-8.8H471.23c4.85,0,8.8,3.95,8.8,8.8V106.99Z"/>
  <path d="M405.01,57.84H106.99c-27.1,0-49.15,22.05-49.15,49.15V405.01c0,27.1,22.05,49.15,49.15,49.15,62.86,0,124.49-17.02,178.21-49.22,2.05-1.23,3.42-3.33,3.71-5.71,.29-2.37-.52-4.75-2.22-6.44-5.43-5.43-8.41-12.64-8.41-20.31s2.99-14.89,8.41-20.31l27.25-27.25,19.35,19.35c1.51,1.51,3.5,2.27,5.49,2.27s3.97-.76,5.49-2.27c3.03-3.03,3.03-7.94,0-10.97l-19.35-19.35,27.25-27.25c11.2-11.2,29.42-11.2,40.62,0,1.69,1.69,4.07,2.51,6.44,2.22,2.37-.29,4.48-1.66,5.71-3.71,32.2-53.72,49.22-115.34,49.22-178.21,0-27.1-22.05-49.15-49.15-49.15Zm-8.93,211.73c-17.09-10.77-40-8.72-54.88,6.15l-27.25,27.25-23.49-23.49c-3.03-3.03-7.94-3.03-10.97,0-3.03,3.03-3.03,7.94,0,10.97l23.49,23.49-27.25,27.25c-14.87,14.87-16.92,37.79-6.15,54.88-49.47,27.87-105.49,42.56-162.58,42.56-18.54,0-33.63-15.09-33.63-33.63V106.99c0-18.54,15.09-33.63,33.63-33.63H405.01c18.54,0,33.63,15.09,33.63,33.63,0,57.09-14.69,113.1-42.56,162.58Z"/>
  <path d="M363.61,306.19c-2.05,0-4.05,.83-5.48,2.28-1.45,1.44-2.28,3.45-2.28,5.48s.83,4.05,2.28,5.48c1.44,1.45,3.45,2.28,5.48,2.28s4.05-.83,5.48-2.28c1.45-1.44,2.28-3.45,2.28-5.48s-.83-4.05-2.28-5.48c-1.44-1.45-3.44-2.28-5.48-2.28Z"/>
  <path d="M313.95,355.85c-2.04,0-4.05,.83-5.48,2.28-1.45,1.44-2.28,3.45-2.28,5.48s.83,4.05,2.28,5.48c1.44,1.45,3.45,2.28,5.48,2.28s4.05-.83,5.48-2.28c1.45-1.44,2.28-3.45,2.28-5.48s-.83-4.05-2.28-5.48c-1.44-1.45-3.45-2.28-5.48-2.28Z"/>
  <path d="M256,90.96c-2.04,0-4.05,.83-5.48,2.28-1.45,1.44-2.28,3.45-2.28,5.48s.83,4.05,2.28,5.48c1.44,1.45,3.45,2.28,5.48,2.28s4.05-.83,5.48-2.28c1.45-1.44,2.28-3.45,2.28-5.48s-.83-4.05-2.28-5.48c-1.44-1.45-3.45-2.28-5.48-2.28Z"/>
  <path d="M98.72,248.24c-2.04,0-4.05,.83-5.48,2.28-1.45,1.44-2.28,3.44-2.28,5.48s.83,4.05,2.28,5.48c1.44,1.45,3.45,2.28,5.48,2.28s4.05-.83,5.48-2.28c1.45-1.44,2.28-3.45,2.28-5.48s-.83-4.05-2.28-5.48c-1.44-1.45-3.45-2.28-5.48-2.28Z"/>
  <path d="M98.72,215.13c-2.04,0-4.05,.83-5.48,2.28-1.45,1.44-2.28,3.45-2.28,5.48s.83,4.05,2.28,5.48c1.44,1.45,3.45,2.28,5.48,2.28s4.05-.83,5.48-2.28c1.45-1.44,2.28-3.45,2.28-5.48s-.83-4.05-2.28-5.48c-1.44-1.45-3.45-2.28-5.48-2.28Z"/>
  <path d="M98.72,281.35c-2.05,0-4.05,.83-5.48,2.28-1.45,1.44-2.28,3.45-2.28,5.48s.83,4.05,2.28,5.48c1.44,1.45,3.44,2.28,5.48,2.28s4.05-.83,5.48-2.28c1.45-1.44,2.28-3.44,2.28-5.48s-.83-4.05-2.28-5.48c-1.44-1.45-3.45-2.28-5.48-2.28Z"/>
  <path d="M222.89,90.96c-2.04,0-4.05,.83-5.48,2.28-1.45,1.44-2.28,3.45-2.28,5.48s.83,4.05,2.28,5.48c1.44,1.45,3.45,2.28,5.48,2.28s4.05-.83,5.48-2.28c1.45-1.44,2.28-3.45,2.28-5.48s-.83-4.05-2.28-5.48c-1.44-1.45-3.45-2.28-5.48-2.28Z"/>
  <path d="M289.11,90.96c-2.04,0-4.05,.83-5.48,2.28-1.45,1.44-2.28,3.44-2.28,5.48s.83,4.05,2.28,5.48c1.44,1.45,3.45,2.28,5.48,2.28s4.05-.83,5.48-2.28c1.45-1.44,2.28-3.45,2.28-5.48s-.83-4.05-2.28-5.48c-1.44-1.45-3.45-2.28-5.48-2.28Z"/>
</svg>