<?xml version="1.0" encoding="UTF-8"?>
<svg id="Capa_1" data-name="Capa 1" xmlns="http://www.w3.org/2000/svg" viewBox="0 0 512 512">
  <g id="SVGRepo_iconCarrier" data-name="SVGRepo iconCarrier">
    <path d="M144.27,69.97H25.75v90.97h118.57l-.04-90.97h0Zm14.4-15.44H486.22c1.88,0,3.68,.36,5.32,1.08,1.68,.72,3.24,1.76,4.52,3.04l.08,.08c1.28,1.28,2.32,2.84,3,4.52,.68,1.64,1.08,3.44,1.08,5.32v93.85c0,1.88-.36,3.68-1.08,5.36-.72,1.72-1.76,3.24-3.04,4.56l-.16,.12c-1.28,1.24-2.76,2.24-4.4,2.92-1.64,.68-3.44,1.08-5.32,1.08h-131.8c-.6,0-1.04-.48-1.04-1.04V69.97h-66.94v27.59l49.19,55.94c1.4,1.6,2.04,3.6,1.92,5.6-.12,1.96-1,3.88-2.6,5.32l-.08,.04c-.72,.6-1.48,1.08-2.32,1.36-.84,.32-1.76,.48-2.64,.48H182.14c-2.12,0-4.08-.88-5.44-2.28-1.4-1.4-2.28-3.32-2.28-5.44,0-1.12,.24-2.16,.68-3.12,.44-1,1.08-1.88,1.88-2.6l50.63-55.34v-27.55h-67.86v105.33c0,.6-.48,1.04-1.04,1.04H24.31c-1.88,0-3.68-.36-5.32-1.08-1.72-.72-3.24-1.76-4.56-3.04-1.28-1.28-2.32-2.84-3.04-4.56-.72-1.6-1.08-3.4-1.08-5.28V68.53c0-1.88,.36-3.68,1.08-5.36,.68-1.72,1.72-3.24,3.04-4.52,.04-.08,.08-.12,.12-.12,1.28-1.24,2.76-2.24,4.4-2.92,1.68-.72,3.48-1.08,5.36-1.08H158.67ZM24.31,263.79H487.69c1.88,0,3.68,.4,5.32,1.08,1.72,.72,3.24,1.76,4.56,3.04l.04,.04c1.28,1.28,2.28,2.8,3,4.48,.68,1.64,1.08,3.44,1.08,5.36v170.59c0,1.88-.4,3.68-1.08,5.32s-1.68,3.12-2.88,4.4c-.04,.04-.08,.12-.12,.16l-.04,.04c-1.28,1.28-2.8,2.32-4.52,3-1.64,.68-3.44,1.08-5.32,1.08h-125.56c-.32,.08-.64,.16-1,.24-.4,.08-.8,.08-1.2,.08s-.8-.04-1.2-.08c-.36-.04-.68-.12-1-.24H154.23c-.32,.08-.64,.16-1,.24-.4,.08-.8,.08-1.2,.08s-.8-.04-1.2-.08c-.36-.04-.68-.12-1-.24H24.31c-1.88,0-3.68-.36-5.32-1.08-1.64-.68-3.16-1.68-4.4-2.92-.08-.04-.12-.08-.16-.16-1.28-1.28-2.32-2.84-3.04-4.52-.72-1.64-1.08-3.44-1.08-5.32v-170.59c0-1.88,.36-3.68,1.08-5.36,.72-1.72,1.76-3.24,3.04-4.56,.04-.04,.08-.08,.16-.12,1.28-1.24,2.76-2.24,4.4-2.92,1.64-.68,3.44-1.04,5.32-1.04h0Zm461.95,15.44h-118.57v167.71h118.57v-167.71h0Zm-134,0H159.75v37.35h192.51v-37.35h0Zm-207.94,0H25.75v167.71h118.57v-167.71h0Zm15.44,167.67h192.51v-114.85H159.75v114.85h0ZM271,69.97h-27.95v30.47c0,.08,0,.16-.04,.28-.04,.84-.2,1.72-.52,2.52-.32,.88-.84,1.68-1.48,2.4l-41.39,45.23h113.17l-39.71-45.15c-.64-.68-1.2-1.52-1.56-2.4s-.56-1.88-.56-2.88v-30.47h.04Zm115.13,217.9c1.12,0,2.2,.24,3.16,.64l.04,.04c1,.4,1.88,1.04,2.64,1.76,.76,.76,1.36,1.68,1.8,2.68,.4,.96,.64,2.04,.64,3.16s-.24,2.16-.64,3.16c-.44,1-1.04,1.92-1.8,2.68l-.08,.04c-.76,.72-1.64,1.32-2.64,1.72-.96,.4-2.04,.64-3.16,.64s-2.2-.24-3.16-.64-1.84-1-2.6-1.72l-.12-.08c-.76-.76-1.36-1.68-1.76-2.68l-.04-.04c-.4-.96-.6-2-.6-3.12s.24-2.2,.64-3.16c.4-1,1.04-1.92,1.8-2.68,.76-.76,1.68-1.36,2.68-1.8l.04-.04c1.04-.36,2.08-.56,3.16-.56h0ZM98.64,77.73c1.12,0,2.2,.24,3.16,.64,1,.4,1.92,1.04,2.68,1.8,.76,.76,1.4,1.68,1.8,2.68,.4,.96,.64,2.04,.64,3.16s-.24,2.2-.64,3.16c-.4,1-1,1.88-1.72,2.6l-.12,.12c-.76,.72-1.64,1.32-2.64,1.72-.96,.4-2.04,.64-3.16,.64s-2.16-.24-3.16-.64c-1-.4-1.92-1.04-2.68-1.8l-.08-.08c-.72-.76-1.32-1.64-1.72-2.6s-.64-2.04-.64-3.16,.24-2.2,.64-3.16l.04-.04c.4-1,1.04-1.88,1.76-2.64,.76-.76,1.68-1.36,2.68-1.8l.04-.04c1-.32,2.04-.56,3.12-.56h0Zm270.68-7.76h-.52v90.97h116.01V69.97h-115.49Zm36.79,10.12c.76-.72,1.64-1.32,2.64-1.72,.96-.4,2.04-.64,3.16-.64s2.2,.24,3.16,.64l.04,.04c1,.4,1.88,1.04,2.64,1.76,.76,.76,1.36,1.68,1.8,2.68,.4,.96,.64,2.04,.64,3.16s-.24,2.2-.64,3.16l-.04,.04c-.4,.96-1,1.84-1.72,2.56l-.12,.12c-.76,.72-1.64,1.32-2.6,1.72s-2.04,.64-3.16,.64-2.2-.24-3.16-.64c-1-.4-1.92-1.04-2.68-1.8h0c-.76-.76-1.36-1.68-1.8-2.68-.4-.96-.64-2.04-.64-3.16s.24-2.16,.64-3.16c.44-1,1.04-1.92,1.8-2.68l.04-.04h0ZM124.08,287.87c1.12,0,2.2,.24,3.16,.64l.04,.04c1,.44,1.88,1.04,2.64,1.76l.04,.08c.72,.76,1.32,1.64,1.72,2.6l.04,.04c.4,.96,.6,2,.6,3.12s-.24,2.16-.64,3.16c-.44,1-1.04,1.92-1.8,2.68l-.08,.04c-.76,.72-1.64,1.32-2.64,1.72-.96,.4-2.04,.64-3.16,.64s-2.2-.24-3.16-.64c-1-.4-1.92-1.04-2.68-1.8h0c-.76-.76-1.36-1.68-1.8-2.68l-.04-.04c-.4-.96-.6-2-.6-3.12s.24-2.2,.64-3.16c.4-1,1.04-1.92,1.8-2.68s1.68-1.36,2.68-1.8c1.08-.36,2.12-.6,3.24-.6h0Z"/>
  </g>
</svg>