<?xml version="1.0" encoding="UTF-8"?>
<svg id="Capa_1" data-name="Capa 1" xmlns="http://www.w3.org/2000/svg" viewBox="0 0 512 512">
  <g id="SVGRepo_iconCarrier" data-name="SVGRepo iconCarrier">
    <g>
      <path d="M470.33,51.64H41.67c-20.43,.04-36.99,16.6-37.03,37.03V384.88c.04,20.43,16.6,36.99,37.03,37.03v18.51c0,5.12,4.14,9.26,9.26,9.26s9.26-4.14,9.26-9.26v-18.51H448.97v18.51c0,5.12,4.14,9.26,9.26,9.26s9.26-4.14,9.26-9.26v-18.51h2.85c20.43-.04,36.99-16.6,37.03-37.03V88.67c-.04-20.43-16.6-36.99-37.03-37.03Zm18.51,333.24c0,5.09-2.06,9.67-5.44,13.07-3.4,3.38-7.99,5.44-13.07,5.44H41.67c-5.09,0-9.67-2.06-13.07-5.44-3.38-3.4-5.44-7.98-5.44-13.07V88.67c0-5.09,2.06-9.67,5.44-13.07,3.4-3.38,7.98-5.44,13.07-5.44H470.33c5.09,0,9.67,2.06,13.07,5.44,3.38,3.4,5.44,7.98,5.44,13.07V384.88Z"/>
      <path d="M328.63,107.18H94.36c-20.43,.04-36.99,16.6-37.03,37.03v189.5c.04,20.43,16.6,36.99,37.03,37.03h234.27c20.43-.04,36.99-16.6,37.03-37.03V144.21c-.04-20.43-16.6-36.99-37.03-37.03Zm18.51,226.52c0,5.09-2.06,9.67-5.44,13.07-3.4,3.38-7.98,5.44-13.07,5.44H94.36c-5.09,0-9.67-2.06-13.07-5.44-3.38-3.4-5.44-7.98-5.44-13.07V144.21c0-5.09,2.06-9.67,5.44-13.07,3.4-3.38,7.99-5.44,13.07-5.44h234.27c5.09,0,9.67,2.06,13.07,5.44,3.38,3.4,5.44,7.98,5.44,13.07v189.5Z"/>
      <path d="M411.94,171.98h27.77c5.12,0,9.26-4.14,9.26-9.26s-4.14-9.26-9.26-9.26h-27.77c-5.12,0-9.26,4.14-9.26,9.26s4.14,9.26,9.26,9.26Z"/>
      <path d="M411.94,227.52h27.77c5.12,0,9.26-4.14,9.26-9.26s-4.14-9.26-9.26-9.26h-27.77c-5.12,0-9.26,4.14-9.26,9.26s4.14,9.26,9.26,9.26Z"/>
      <path d="M425.83,264.54c-17.9,0-32.39,14.5-32.4,32.4,0,17.9,14.5,32.39,32.4,32.4,17.9,0,32.39-14.5,32.4-32.4,0-17.9-14.5-32.39-32.4-32.4Zm0,46.28c-7.66-.02-13.87-6.22-13.89-13.89,.02-7.66,6.22-13.87,13.89-13.89,7.66,.02,13.87,6.22,13.89,13.89-.02,7.66-6.22,13.87-13.89,13.89Z"/>
    </g>
  </g>
</svg>