<?xml version="1.0" encoding="UTF-8"?>
<svg id="Capa_1" data-name="Capa 1" xmlns="http://www.w3.org/2000/svg" viewBox="0 0 512 512">
  <g id="SVGRepo_iconCarrier" data-name="SVGRepo iconCarrier">
    <path d="M401.06,245.54H90.45c-3.85,0-6.98,3.13-6.98,6.98v51.94c0,3.85,3.13,6.98,6.98,6.98H401.06c3.85,0,6.98-3.13,6.98-6.98v-51.94c0-3.85-3.13-6.98-6.98-6.98Zm-221.04,13.96h189.62v37.98H180.03v-37.98Zm214.06,37.98h-10.47v-37.98h10.47v37.98Zm-14.48-125.52c-5.22-13.67-1.21-30,9.75-39.69,2.89-2.56,7.31-2.28,9.85,.6,2.55,2.89,2.28,7.3-.6,9.85-6.59,5.84-9.1,16.04-5.96,24.27,1.62,4.25,4.62,8.19,7.8,12.35,3.54,4.64,7.19,9.44,9.56,15.35,6.18,15.5,.14,34.9-13.74,44.15-1.19,.8-2.54,1.17-3.87,1.17-2.25,0-4.47-1.09-5.81-3.11-2.14-3.21-1.27-7.54,1.94-9.68,8.46-5.64,12.28-17.92,8.51-27.36-1.65-4.14-4.58-7.99-7.69-12.06-3.65-4.77-7.41-9.71-9.75-15.84Z"/>
  </g>
  <circle cx="256" cy="256" r="235.48" style="fill: none; stroke: #1d1d1b; stroke-miterlimit: 10; stroke-width: 35px;"/>
  <rect x="249.31" y="19.47" width="27.57" height="464.94" rx="12" ry="12" transform="translate(-100.56 230.79) rotate(-40.43)"/>
</svg>