<?xml version="1.0" encoding="UTF-8"?>
<svg id="Capa_1" data-name="Capa 1" xmlns="http://www.w3.org/2000/svg" viewBox="0 0 512 512">
  <path d="M358.38,150.21c-56.53,0-102.88,44.42-105.98,100.19-54.56,4.36-97.62,50.15-97.62,105.81,0,4.54,3.68,8.23,8.23,8.23h195.85c4.54,0,8.23-3.68,8.23-8.23,0-55.86-43.37-101.77-98.2-105.85,3.1-46.67,42.05-83.69,89.49-83.69s89.7,40.24,89.7,89.7v294.73c0,4.54,3.68,8.23,8.23,8.23s8.23-3.68,8.23-8.23V256.36c0-58.53-47.62-106.15-106.15-106.15Zm-8.12,197.77H171.61c4.17-45.62,42.64-81.47,89.32-81.47s85.16,35.85,89.32,81.47Z"/>
  <path d="M183.17,379.66c-4.54,0-8.23,3.68-8.23,8.23v64.32c0,4.54,3.68,8.23,8.23,8.23s8.23-3.68,8.23-8.23v-64.32c0-4.54-3.68-8.23-8.23-8.23Z"/>
  <path d="M238.85,394.06c-4.54,0-8.23,3.68-8.23,8.23v72c0,4.54,3.68,8.23,8.23,8.23s8.23-3.68,8.23-8.23v-72c0-4.54-3.68-8.23-8.23-8.23Z"/>
  <path d="M284.93,394.06c-4.54,0-8.23,3.68-8.23,8.23v7.68c0,4.54,3.68,8.23,8.23,8.23s8.23-3.68,8.23-8.23v-7.68c0-4.54-3.68-8.23-8.23-8.23Z"/>
  <path d="M284.93,433.9c-4.54,0-8.23,3.68-8.23,8.23v40.8c0,4.54,3.68,8.23,8.23,8.23s8.23-3.68,8.23-8.23v-40.8c0-4.54-3.68-8.23-8.23-8.23Z"/>
  <path d="M331.02,386.38c-4.54,0-8.23,3.68-8.23,8.23v24.96c0,4.54,3.68,8.23,8.23,8.23s8.23-3.68,8.23-8.23v-24.96c0-4.54-3.68-8.23-8.23-8.23Z"/>
  <g id="SVGRepo_iconCarrier" data-name="SVGRepo iconCarrier">
    <g id="Page-1">
      <g id="Dribbble-Light-Preview">
        <g id="icons">
          <path id="clouds_sun-_000000_" data-name="clouds_sun-[#000000]" d="M54.22,76.54c-3.79-3.78-3.79-9.91,0-13.68,3.79-3.78,9.93-3.78,13.71,0,3.79,3.77,3.79,9.9,0,13.68-3.78,3.79-9.92,3.79-13.71,0m123.41,0c-3.79-3.78-3.79-9.91,0-13.68,3.78-3.78,9.93-3.78,13.71,0,3.79,3.77,3.79,9.9,0,13.68-3.78,3.79-9.93,3.79-13.71,0M45.21,131.28c0,5.34-4.34,9.68-9.7,9.68s-9.7-4.34-9.7-9.68,4.34-9.68,9.7-9.68,9.7,4.33,9.7,9.68M113.09,44.19c0-5.34,4.34-9.68,9.7-9.68s9.7,4.33,9.7,9.68-4.34,9.67-9.7,9.67-9.7-4.33-9.7-9.67m104.01,178.52c-10.89,7.42-10.69,5.33-122.27,5.33-4.7,0-9.26-1.54-12.88-4.22-20.19-14.97,3.02-46.66,23.74-30.23-9.9-32.52,15.12-62.32,46.15-62.32,23.84,0,43.26,17.65,47.54,38.8,28.98-1.05,41.05,36.7,17.71,52.63M122.78,82.9c20.62,0,38.15,12.97,45.16,31.12-5.17-1.26-10.51-2.09-16.07-2.09-17.26,0-33,6.43-44.95,17.02-10,8.84-17.3,20.62-20.7,33.96-7.39-8.49-11.92-19.52-11.92-31.62,0-26.68,21.75-48.38,48.48-48.38m91.59,70.03c-.06,0-.1-.04-.14-.08-.04-.03-.07-.07-.09-.12-5.11-11.74-13.48-21.71-23.92-28.88-3.71-33.91-32.48-60.31-67.45-60.31-37.49,0-67.87,30.33-67.87,67.74,0,17.43,6.72,33.21,17.57,45.2-32.57,21.28-17.09,70.92,23.16,70.92,107.23,0,117.21,4.02,136.52-12.56,29.06-24.94,18.26-70.99-17.79-81.91" style="fill-rule: evenodd;"/>
        </g>
      </g>
    </g>
  </g>
</svg>