<?xml version="1.0" encoding="UTF-8"?>
<svg id="Capa_1" data-name="Capa 1" xmlns="http://www.w3.org/2000/svg" viewBox="0 0 512 512">
  <g id="SVGRepo_iconCarrier" data-name="SVGRepo iconCarrier">
    <path id="oven" d="M106.71,142.9c7.73,0,13.99-6.27,13.98-13.99s-6.27-13.99-13.99-13.98-13.99,6.27-13.98,13.99c0,7.72,6.26,13.98,13.98,13.98h.02Zm293.44,0c7.73,0,13.99-6.26,13.99-13.99,0-7.73-6.26-13.99-13.99-13.99s-13.99,6.26-13.99,13.99h0c0,7.73,6.26,13.99,13.98,13.99h0Zm-238.79,0c7.73,0,13.99-6.26,13.99-13.99,0-7.73-6.26-13.99-13.99-13.99s-13.99,6.26-13.99,13.99h0c0,7.73,6.26,13.99,13.99,13.99Zm184.13,0c7.73,0,13.99-6.26,13.99-13.99,0-7.73-6.26-13.99-13.99-13.99s-13.99,6.26-13.99,13.99h0c0,7.73,6.26,13.99,13.98,13.99h0Zm-162.22,103.46h140.33c6.11,0,11.06-4.95,11.06-11.06s-4.95-11.06-11.06-11.06H183.27c-6.11,0-11.06,4.95-11.06,11.06s4.95,11.06,11.06,11.06ZM468.02,43.62h-21.12c-3.42-8.04-11.32-13.26-20.06-13.26h-126.9c-8.74,0-16.63,5.22-20.06,13.26h-52.93c-3.42-8.04-11.32-13.26-20.06-13.26H80.03c-8.74,0-16.63,5.22-20.06,13.26h-21.12c-16.67,.02-30.17,13.53-30.19,30.2V406.86c.08,41.26,33.51,74.69,74.77,74.78H423.41c41.27-.08,74.7-33.52,74.78-74.78V73.82c0-16.67-13.52-30.19-30.19-30.22l.02,.02Zm-.47,363.25c-.17,24.3-19.82,43.95-44.12,44.12H83.46c-24.29-.19-43.93-19.83-44.11-44.12V74.26H467.53l.02,332.61Zm-333.17,6.43h238.13c31.44-.07,56.9-25.54,56.97-56.97V179.99c-.01-14.21-11.53-25.73-25.75-25.74H103.13c-14.21,.01-25.73,11.54-25.74,25.75v176.31c.07,31.44,25.54,56.9,56.97,56.97l.02,.02Zm-26.31-228.38H398.8v171.39c-.13,14.48-11.83,26.18-26.31,26.31H134.36c-14.48-.13-26.18-11.83-26.31-26.31l.02-171.39Z"/>
  </g>
</svg>