<?xml version="1.0" encoding="UTF-8"?>
<svg id="Capa_1" data-name="Capa 1" xmlns="http://www.w3.org/2000/svg" viewBox="0 0 512 512">
  <circle cx="257.03" cy="256.67" r="235.48" style="fill: none; stroke: #1d1d1b; stroke-miterlimit: 10; stroke-width: 35px;"/>
  <path d="M188.2,128.1c16.8-2.8,38.8-5.2,66.8-5.2,34.4,0,59.6,8,75.6,22.4,14.8,12.8,23.6,32.4,23.6,56.4s-7.2,43.6-20.8,57.6c-18.4,19.6-48.4,29.6-82.4,29.6-10.4,0-20-.4-28-2.4v108h-34.8V128.1Zm34.8,130c7.6,2,17.2,2.8,28.8,2.8,42,0,67.6-20.4,67.6-57.6s-25.2-52.8-63.6-52.8c-15.2,0-26.8,1.2-32.8,2.8v104.8Z" style="fill: #1d1d1b;"/>
</svg>