<?xml version="1.0" encoding="UTF-8"?>
<svg id="Capa_1" data-name="Capa 1" xmlns="http://www.w3.org/2000/svg" viewBox="0 0 512 512">
  <path d="M375.12,9.15H134.29c-20.46,0-37.11,16.65-37.11,37.11V465.68c0,20.46,16.65,37.11,37.11,37.11h18.35c.16,0,.31,.06,.47,.06,.12,0,.23-.06,.34-.06h203.73c.12,0,.23,.06,.33,.06,.17,0,.31-.06,.47-.06h17.12c20.46,0,37.11-16.65,37.11-37.11V115.92l18.44-16.81c.32-.29,.64-.61,.94-.95,4.69-5.27,4.22-13.34-1.05-18.03-5.27-4.69-13.35-4.22-18.04,1.04l-.28,.32V46.26c0-20.46-16.64-37.11-37.1-37.11Zm11.6,37.11v19.94c-3.88,2.39-8.38,3.4-12.95,2.74-5.12-.76-9.62-3.47-12.69-7.63-3.06-4.15-4.35-9.25-3.59-14.35,.73-4.92,3.31-9.23,7.21-12.29h10.43c6.38,0,11.59,5.2,11.59,11.6Zm-264.03,0c0-6.4,5.2-11.6,11.6-11.6h11.66c3.89,3.06,6.46,7.38,7.2,12.29,.77,5.11-.52,10.21-3.59,14.36-3.07,4.15-7.58,6.86-12.68,7.62-5.04,.72-10.07-.49-14.19-3.48v-19.2h0Zm0,188.69c.23,0,.44,.07,.67,.07h.38c10.78-.39,19.58,8.11,19.9,18.77,.31,10.66-8.11,19.58-18.78,19.89-.75,.02-1.47,.13-2.18,.28v-39.01h0Zm0,230.73v-17.04c4.12-2.98,9.15-4.22,14.19-3.47,5.11,.76,9.61,3.47,12.68,7.62,3.07,4.15,4.35,9.25,3.59,14.35-.57,3.84-2.25,7.33-4.8,10.13h-14.07c-6.39,0-11.6-5.2-11.6-11.59Zm264.03,0c0,6.4-5.21,11.6-11.6,11.6h-12.82c-2.56-2.81-4.23-6.3-4.8-10.12-.77-5.12,.52-10.22,3.59-14.37,3.07-4.15,7.58-6.86,12.69-7.62,4.57-.67,9.08,.35,12.95,2.74v17.77h0Zm0-189.63c-.77-.29-1.57-.51-2.4-.64-10.53-1.74-17.69-11.7-15.96-22.23,.85-5.1,3.6-9.57,7.81-12.58,3.14-2.25,6.78-3.5,10.56-3.63v39.07h0Zm0-136.85v72.33c-9.08,.13-17.91,2.94-25.44,8.35-9.73,6.99-16.16,17.35-18.1,29.17-4,24.41,12.59,47.52,37,51.52,.7,.12,1.4,.18,2.08,.18,1.56,0,3.07-.3,4.46-.82v120.73c-5.41-1.26-11.05-1.55-16.73-.71-11.85,1.78-22.3,8.06-29.42,17.68-7.12,9.64-10.08,21.47-8.3,33.31,.32,2.19,.96,4.28,1.59,6.36H176.78c.63-2.08,1.27-4.17,1.6-6.36,1.77-11.86-1.18-23.69-8.31-33.31-7.12-9.62-17.57-15.9-29.42-17.68-6.1-.91-12.18-.53-17.96,.98v-121.99c.83,.17,1.67,.25,2.54,.25h.38c24.72-.71,44.25-21.42,43.52-46.13-.72-24.72-21.15-44.34-46.14-43.53-.1,0-.21,.03-.31,.04V93.1c3.65,.96,7.41,1.58,11.23,1.58,2.23,0,4.48-.17,6.73-.5,11.85-1.77,22.3-8.06,29.42-17.68,7.13-9.63,10.08-21.46,8.31-33.31-.44-2.94-1.16-5.78-2.13-8.52h158.16c-.98,2.74-1.69,5.59-2.12,8.52-1.78,11.85,1.18,23.69,8.3,33.31,7.12,9.62,17.57,15.91,29.42,17.68,2.25,.34,4.49,.5,6.73,.5,3.4,0,6.73-.52,10-1.28v16.77l-137.35,154.31,137.33-125.28Z"/>
  <path d="M234.51,303.81c-16.46,0-16.46,25.51,0,25.51s16.46-25.51,0-25.51Z"/>
</svg>