<?xml version="1.0" encoding="UTF-8"?>
<svg id="Capa_1" data-name="Capa 1" xmlns="http://www.w3.org/2000/svg" viewBox="0 0 512 512">
  <g id="SVGRepo_iconCarrier" data-name="SVGRepo iconCarrier">
    <g>
      <path d="M176.4,115.84c-5.62,0-10.18,4.56-10.18,10.19v64.09c0,5.63,4.56,10.19,10.18,10.19s10.2-4.56,10.2-10.19V126.03c0-5.63-4.57-10.19-10.2-10.19Z" style="stroke: #000; stroke-miterlimit: 1.56; stroke-width: .97px;"/>
      <path d="M359.75,8.45H152.24c-32.68,0-59.14,26.47-59.14,59.14V446.46c0,32.66,26.47,59.13,59.14,59.14h207.51c32.67-.01,59.14-26.47,59.15-59.14V67.6c-.01-32.67-26.48-59.14-59.15-59.14Zm33.81,438.01c0,9.35-3.78,17.76-9.91,23.9-6.14,6.13-14.55,9.9-23.9,9.91H152.24c-9.36,0-17.77-3.78-23.9-9.91-6.13-6.14-9.9-14.54-9.9-23.9v-53.08H393.56v53.08Zm0-67.56H118.44v-86.88H393.56v86.88Zm0-101.36H118.44V67.6c0-9.36,3.77-17.77,9.9-23.9,6.14-6.12,14.54-9.9,23.9-9.9h207.51c9.35,0,17.77,3.78,23.9,9.9,6.13,6.14,9.9,14.55,9.91,23.9v209.95Z" style="stroke: #000; stroke-miterlimit: 1.56; stroke-width: .97px;"/>
    </g>
  </g>
</svg>