<?xml version="1.0" encoding="utf-8"?>
<!-- Generator: Adobe Illustrator 27.0.0, SVG Export Plug-In . SVG Version: 6.00 Build 0)  -->
<svg version="1.1" id="Capa_1" xmlns="http://www.w3.org/2000/svg" xmlns:xlink="http://www.w3.org/1999/xlink" x="0px" y="0px"
	 viewBox="0 0 512 512" style="enable-background:new 0 0 512 512;" xml:space="preserve">
<g id="SVGRepo_iconCarrier">
	<g>
		<path d="M56.9,123.1c0,29.2,23.7,52.9,52.9,52.9s52.9-23.7,52.9-52.9S139,70.2,109.8,70.2S56.9,93.9,56.9,123.1z M147.6,123.1
			c0,20.8-17,37.8-37.8,37.8S72,143.9,72,123.1s17-37.8,37.8-37.8S147.6,102.2,147.6,123.1z"/>
		<path d="M114.9,337.3h80.6c4.2,0,7.6-3.4,7.6-7.6s-3.4-7.6-7.6-7.6h-80.6c-4.2,0-7.6,3.4-7.6,7.6S110.7,337.3,114.9,337.3z"/>
		<path d="M487.9,241.5h-40.3c-4.2,0-7.6,3.4-7.6,7.6s3.4,7.6,7.6,7.6h40.3c4.2,0,7.6-3.4,7.6-7.6S492,241.5,487.9,241.5
			L487.9,241.5z"/>
		<path d="M162.8,289.4c0-4.2-3.4-7.6-7.6-7.6H54.4c-4.2,0-7.6,3.4-7.6,7.6s3.4,7.6,7.6,7.6h100.8
			C159.4,297,162.8,293.6,162.8,289.4L162.8,289.4z"/>
		<path d="M185.4,241.5H24.1c-4.2,0-7.6,3.4-7.6,7.6s3.4,7.6,7.6,7.6h161.3c4.2,0,7.6-3.4,7.6-7.6S189.6,241.5,185.4,241.5
			L185.4,241.5z"/>
		<path d="M437.5,125.6c9.7,0,17.6,7.9,17.6,17.6c0,4.2,3.4,7.6,7.6,7.6s7.6-3.4,7.6-7.6c0-9.7,7.9-17.6,17.6-17.6
			c4.2,0,7.6-3.4,7.6-7.6s-3.4-7.6-7.6-7.6c-10.1,0-19.2,4.6-25.2,11.8c-6-7.2-15.1-11.8-25.2-11.8c-4.2,0-7.6,3.4-7.6,7.6
			S433.3,125.6,437.5,125.6z"/>
		<path d="M195.5,65.1h33c2.7,0,5.2-1.4,6.6-3.8s1.4-5.2,0-7.6c-1.1-2-1.7-4.1-1.7-6.3c0-7,5.6-12.6,12.6-12.6h141.1
			c7,0,12.6,5.7,12.6,12.6s-5.6,12.6-12.6,12.6h-60.5c-4.2,0-7.6,3.4-7.6,7.6s3.4,7.6,7.6,7.6h60.5c15.3,0,27.7-12.4,27.7-27.7
			s-12.4-27.7-27.7-27.7H245.9c-15.3,0-27.7,12.4-27.7,27.7c0,0.8,0,1.7,0.1,2.5h-22.8c-4.2,0-7.6,3.4-7.6,7.6
			S191.3,65.1,195.5,65.1L195.5,65.1z"/>
		<path d="M276.2,90.3h-60.5c-4.2,0-7.6,3.4-7.6,7.6s3.4,7.6,7.6,7.6h60.5c15.3,0,27.7-12.4,27.7-27.7c0-4.8-1.3-9.7-3.7-13.9
			c-2.1-3.6-6.7-4.8-10.3-2.8s-4.9,6.7-2.8,10.3c1.1,1.9,1.7,4.1,1.7,6.3C288.8,84.7,283.1,90.3,276.2,90.3L276.2,90.3z"/>
		<path d="M59.3,63.5c14.1-12,32-18.5,50.6-18.5c43.1,0,78.1,35,78.1,78.1c0,18.4-6.5,36.3-18.4,50.3c-2.7,3.2-2.3,8,0.9,10.6
			c1.4,1.2,3.1,1.8,4.9,1.8c2.1,0,4.3-0.9,5.8-2.7c14.1-16.8,21.9-38.1,21.9-60.1c0-51.4-41.8-93.2-93.2-93.2
			c-22.1,0-43.5,7.9-60.3,22.2c-3.2,2.7-3.6,7.5-0.9,10.7C51.3,65.8,56.1,66.2,59.3,63.5L59.3,63.5z"/>
		<path d="M487.9,483.5h-12.6v-16.8c6-2.8,10.1-8.9,10.1-15.9v-70.6c0-9.7-7.9-17.6-17.6-17.6h-60.5c-9.7,0-17.6,7.9-17.6,17.6v70.6
			c0,7,4.1,13.1,10.1,15.9v16.8h-25.2V347.4h108.2c7,0,12.8-5.7,12.8-12.8c0-5.1-3-9.7-7.7-11.7l-117.8-50.5c-1.9-0.8-4-0.8-6,0
			l-117.8,50.5c-4.7,2-7.7,6.6-7.7,11.7c0,7,5.7,12.8,12.8,12.8H286c4.2,0,7.6-3.4,7.6-7.6s-3.4-7.6-7.6-7.6h-23.4l104.3-44.7
			l104.3,44.7H316.2c-4.2,0-7.6,3.4-7.6,7.6s3.4,7.6,7.6,7.6h43.1v136.1h-25.2v-16.8c6-2.8,10.1-8.9,10.1-15.9v-70.6
			c0-9.7-7.9-17.6-17.6-17.6h-60.5c-9.7,0-17.6,7.9-17.6,17.6v70.6c0,7,4.1,13.1,10.1,15.9v16.8h-22.7c-4.2,0-7.6,3.4-7.6,7.6
			s3.4,7.6,7.6,7.6h252c4.2,0,7.6-3.4,7.6-7.6S492,483.5,487.9,483.5L487.9,483.5z M319,483.5h-45.4v-15.1H319V483.5z M329.1,450.7
			c0,1.4-1.1,2.5-2.5,2.5h-60.5c-1.4,0-2.5-1.1-2.5-2.5v-70.6c0-1.4,1.1-2.5,2.5-2.5h60.5c1.4,0,2.5,1.1,2.5,2.5V450.7z
			 M460.1,483.5h-45.4v-15.1h45.4V483.5z M470.2,450.7c0,1.4-1.1,2.5-2.5,2.5h-60.5c-1.4,0-2.5-1.1-2.5-2.5v-70.6
			c0-1.4,1.1-2.5,2.5-2.5h60.5c1.4,0,2.5,1.1,2.5,2.5V450.7z"/>
		<path d="M205.6,433h-10.1c-4.2,0-7.6,3.4-7.6,7.6s3.4,7.6,7.6,7.6h10.1c4.2,0,7.6-3.4,7.6-7.6S209.8,433,205.6,433z"/>
		<path d="M233.3,380.1c0-4.2-3.4-7.6-7.6-7.6H24.1c-4.2,0-7.6,3.4-7.6,7.6s3.4,7.6,7.6,7.6h201.6
			C229.9,387.7,233.3,384.3,233.3,380.1L233.3,380.1z"/>
		<path d="M326.6,256.6c4.2,0,7.6-3.4,7.6-7.6s-3.4-7.6-7.6-7.6h-90.7c-4.2,0-7.6,3.4-7.6,7.6s3.4,7.6,7.6,7.6H326.6z"/>
		<path d="M487.9,191.1H71.4c-24.5-13.9-39.7-39.8-39.7-68c0-14.7,4.1-29,11.8-41.3c2.2-3.5,1.1-8.2-2.4-10.4s-8.2-1.1-10.4,2.4
			c-9.2,14.8-14.1,31.8-14.1,49.4c0,26.2,10.9,50.7,29.5,68H24.1c-4.2,0-7.6,3.4-7.6,7.6s3.4,7.6,7.6,7.6h45.2c0,0,0.1,0,0.2,0
			s0.1,0,0.2,0h418.2c4.2,0,7.6-3.4,7.6-7.6S492,191.1,487.9,191.1z"/>
		<path d="M205.6,483.5H24.1c-4.2,0-7.6,3.4-7.6,7.6s3.4,7.6,7.6,7.6h181.5c4.2,0,7.6-3.4,7.6-7.6S209.8,483.5,205.6,483.5z"/>
		<path d="M135,417.9c4.2,0,7.6-3.4,7.6-7.6s-3.4-7.6-7.6-7.6h-10.1c-4.2,0-7.6,3.4-7.6,7.6s3.4,7.6,7.6,7.6H135z"/>
		<path d="M44.3,438.1c4.2,0,7.6-3.4,7.6-7.6s-3.4-7.6-7.6-7.6H34.2c-4.2,0-7.6,3.4-7.6,7.6s3.4,7.6,7.6,7.6
			C34.2,438.1,44.3,438.1,44.3,438.1z"/>
		<path d="M107.3,460.8c0,4.2,3.4,7.6,7.6,7.6h10.1c4.2,0,7.6-3.4,7.6-7.6s-3.4-7.6-7.6-7.6h-10.1
			C110.7,453.2,107.3,456.6,107.3,460.8z"/>
	</g>
</g>
</svg>
