<?xml version="1.0" encoding="UTF-8"?>
<svg id="Capa_1" data-name="Capa 1" xmlns="http://www.w3.org/2000/svg" viewBox="0 0 512 512">
  <g id="SVGRepo_iconCarrier" data-name="SVGRepo iconCarrier">
    <path d="M27.86,12.42V103.26c0,25.08,20.33,45.42,45.42,45.42h6.81l17.71,120.13c3.29,22.48,22.7,39.07,45.42,38.83h224.36c22.72,.24,42.12-16.35,45.42-38.83l16.8-120.13h6.81c25.08,0,45.42-20.33,45.42-45.42V12.42H27.86Zm339.26,249.79H142.76l-16.8-113.54H383.92l-16.8,113.54Zm69.49-158.96H73.27V57.84H436.6v45.42ZM186.81,239.5l-11.35-68.12h34.06l11.35,68.12h-34.06Zm3.86,166c9.06,10.76,14.11,24.32,14.31,38.38-.07,14.96-5.83,29.33-16.12,40.19-3.22,3.39-6.71,6.5-10.45,9.31l-3.63,2.5c-.44,.16-.92,.16-1.36,0h0l-9.31-15.21-8.63-15.9h1.59c1.84-1.31,3.52-2.83,5-4.54,4.31-4.34,6.68-10.24,6.59-16.35,0-5.9-2.04-9.31-7.72-17.03h0c-8.87-10.69-13.9-24.04-14.31-37.92,.44-15.16,5.69-29.8,14.99-41.78,2.8-4.02,6-7.74,9.54-11.13l3.18-3.18h1.14l11.58,14.08,11.58,14.08h0l-1.82,1.82c-2.17,2.17-4.14,4.53-5.9,7.04-4.8,5.68-7.59,12.78-7.95,20.21,0,5.9,2.04,9.31,7.95,17.03l-.23-1.59Zm90.83,0c9.06,10.76,14.11,24.32,14.31,38.38-.07,14.96-5.83,29.33-16.12,40.19-3.22,3.39-6.71,6.5-10.45,9.31l-3.63,2.5c-.44,.16-.92,.16-1.36,0h0l-8.63-15.9-8.63-15.9h1.59c1.84-1.31,3.52-2.83,5-4.54,3.89-4.28,6-9.88,5.9-15.67,0-5.9-2.04-9.31-7.72-17.03h0c-8.87-10.69-13.9-24.04-14.31-37.92,.44-15.16,5.69-29.8,14.99-41.78,2.8-4.02,6-7.74,9.54-11.13l3.18-3.18h1.14l11.58,14.08,11.58,14.08h0l-1.82,1.82c-2.17,2.17-4.14,4.53-5.9,7.04-4.8,5.68-7.59,12.78-7.95,20.21,0,5.9,2.04,9.31,7.95,17.03l-.23-1.59Zm90.83,0c9.06,10.76,14.11,24.32,14.31,38.38-.07,14.96-5.83,29.33-16.12,40.19-3.22,3.39-6.71,6.5-10.45,9.31l-3.63,2.5c-.44,.16-.92,.16-1.36,0h0l-8.63-15.9-8.63-15.9h1.59c1.84-1.31,3.52-2.83,5-4.54,3.89-4.28,6-9.88,5.9-15.67,0-5.9-2.04-9.31-7.72-17.03h0c-8.87-10.69-13.9-24.04-14.31-37.92,.44-15.16,5.69-29.8,14.99-41.78,2.8-4.02,6-7.74,9.54-11.13l3.18-3.18h0l11.58,14.08,11.58,14.08h0l-1.82,1.82c-2.17,2.17-4.14,4.53-5.9,7.04-4.8,5.68-7.59,12.78-7.95,20.21,0,5.9,2.04,9.31,7.95,17.03l.91-1.59Z" style="fill-rule: evenodd;"/>
    <rect x="-17.56" y="-32.99" width="544.99" height="544.99" style="fill: none;"/>
  </g>
</svg>