<?xml version="1.0" encoding="UTF-8"?>
<svg id="Capa_1" data-name="Capa 1" xmlns="http://www.w3.org/2000/svg" viewBox="0 0 512 512">
  <g id="SVGRepo_iconCarrier" data-name="SVGRepo iconCarrier">
    <g>
      <path d="M372.39,338.99v-17.43h8.98c4.37,0,7.92-3.55,7.92-7.92s-3.55-7.92-7.92-7.92h-14.36l3.17-9.51h2.74c4.37,0,7.92-3.55,7.92-7.92s-3.55-7.92-7.92-7.92h-67.59c-4.37,0-7.92,3.55-7.92,7.92s3.55,7.92,7.92,7.92h2.74l3.17,9.51h-48.68V127.23h224.65c5.81,0,10.63-3.98,11.73-9.69,1.1-5.7-1.9-11.19-7.29-13.35L257.64,10.59c-.26-.11-.52-.2-.79-.28,0,0,0,0,0,0-.24-.07-.48-.13-.72-.17-.06-.01-.12-.02-.19-.03-.18-.03-.37-.06-.56-.08-.24-.02-.47-.03-.71-.03-.01,0-.03,0-.04,0-.25,0-.5,.01-.75,.04-.16,.02-.33,.04-.49,.07-.08,.01-.17,.02-.25,.04-.23,.04-.46,.1-.69,.17-.01,0-.03,0-.04,0-.27,.08-.53,.17-.79,.28L17.62,104.19c-5.39,2.16-8.39,7.65-7.29,13.35s5.92,9.69,11.73,9.69H246.71v178.49h-48.68l3.17-9.51h2.74c4.37,0,7.92-3.55,7.92-7.92s-3.55-7.92-7.92-7.92h-67.59c-4.37,0-7.92,3.55-7.92,7.92s3.55,7.92,7.92,7.92h2.74l3.17,9.51h-14.36c-4.37,0-7.92,3.55-7.92,7.92s3.55,7.92,7.92,7.92h8.98v17.43c0,9.03,7.34,16.37,16.37,16.37h93.47v86.85c-9.81,3.31-16.9,12.6-16.9,23.52v17.43h-17.43c-4.37,0-7.92,3.55-7.92,7.92s3.55,7.92,7.92,7.92h84.49c4.37,0,7.92-3.55,7.92-7.92s-3.55-7.92-7.92-7.92h-17.43v-17.43c0-10.92-7.09-20.2-16.9-23.52v-86.85h93.47c9.03,0,16.37-7.34,16.37-16.37Zm-18.91-42.77l-3.17,9.51h-22.38l-3.17-9.51h28.71Zm113.5-184.83h-107.67l-71.78-71.78,179.46,71.78Zm-424.69,0L221.74,39.61l-71.78,71.78H42.28Zm130.08,0L254.63,29.12l82.27,82.27H172.36Zm12.13,184.83l-3.17,9.51h-22.38l-3.17-9.51h28.71Zm79.11,169.51v17.43h-17.95v-17.43c0-4.95,4.03-8.98,8.98-8.98s8.98,4.03,8.98,8.98Zm92.41-126.21H153.24c-.29,0-.53-.24-.53-.53v-17.43h.5s.02,0,.03,0,.02,0,.03,0h202.73s.02,0,.03,0,.02,0,.03,0h.5v17.43c0,.29-.24,.53-.53,.53Z" style="stroke: #000; stroke-miterlimit: 1.73; stroke-width: 0px;"/>
      <path d="M119.44,373.32H41.94L25.91,245.07c-.54-4.34-4.51-7.42-8.84-6.88-4.34,.54-7.42,4.5-6.88,8.84l16.84,134.7v109.35c0,4.37,3.55,7.92,7.92,7.92s7.92-3.55,7.92-7.92v-34.32H111.52v34.32c0,4.37,3.55,7.92,7.92,7.92s7.92-3.55,7.92-7.92v-69.43c9.81-3.31,16.9-12.6,16.9-23.52,0-13.69-11.13-24.82-24.82-24.82Zm-7.92,67.59H42.87v-17.95H111.52v17.95Zm7.92-33.8H42.87v-17.95H119.44c4.95,0,8.98,4.03,8.98,8.98s-4.03,8.98-8.98,8.98Z" style="stroke: #000; stroke-miterlimit: 1.73; stroke-width: 0px;"/>
      <path d="M492.19,238.19c-4.34-.54-8.3,2.54-8.84,6.88l-16.03,128.25h-77.5c-13.69,0-24.82,11.13-24.82,24.82,0,10.92,7.09,20.2,16.9,23.52v69.43c0,4.37,3.55,7.92,7.92,7.92s7.92-3.55,7.92-7.92v-34.32h68.65v34.32c0,4.37,3.55,7.92,7.92,7.92s7.92-3.55,7.92-7.92v-109.35l16.84-134.7c.54-4.34-2.54-8.3-6.88-8.84Zm-25.8,202.72h-68.65v-17.95h68.65v17.95Zm0-33.8h-76.57c-4.95,0-8.98-4.03-8.98-8.98s4.03-8.98,8.98-8.98h76.57v17.95Z" style="stroke: #000; stroke-miterlimit: 1.73; stroke-width: 0px;"/>
    </g>
  </g>
</svg>