<?xml version="1.0" encoding="UTF-8"?>
<svg id="Capa_1" data-name="Capa 1" xmlns="http://www.w3.org/2000/svg" viewBox="0 0 512 512">
  <g id="SVGRepo_iconCarrier" data-name="SVGRepo iconCarrier">
    <path d="M498.94,468.39h-121.37c-2.79,0-5.06-2.27-5.06-5.06V72.25c0-15.79,12.85-28.64,28.64-28.64h74.2c15.79,0,28.64,12.85,28.64,28.64V463.34c0,2.79-2.27,5.06-5.06,5.06Zm-116.31-10.11h111.25V72.25c0-10.22-8.31-18.53-18.53-18.53h-74.2c-10.22,0-18.53,8.31-18.53,18.53V458.28Zm-49.88,10.11H191.16c-2.79,0-5.06-2.27-5.06-5.06v-125.81c0-14.75,12-26.74,26.74-26.74h8.45v-3.61c0-2.79,2.27-5.06,5.06-5.06s5.06,2.27,5.06,5.06v3.61h7.69v-3.61c0-2.79,2.27-5.06,5.06-5.06s5.06,2.27,5.06,5.06v3.61h7.69v-3.61c0-2.79,2.27-5.06,5.06-5.06s5.06,2.27,5.06,5.06v3.61h7.69v-3.61c0-2.79,2.27-5.06,5.06-5.06s5.06,2.27,5.06,5.06v3.61h7.69v-3.61c0-2.79,2.27-5.06,5.06-5.06s5.06,2.27,5.06,5.06v3.61h8.44c14.75,0,26.74,12,26.74,26.74v125.81c0,2.79-2.26,5.06-5.06,5.06Zm-136.54-10.11h131.48v-120.75c0-9.17-7.46-16.63-16.63-16.63h-98.22c-9.17,0-16.63,7.46-16.63,16.63v120.75Zm-50.15,10.11H24.7c-2.79,0-5.06-2.27-5.06-5.06V72.25c0-15.79,12.85-28.64,28.64-28.64H122.48c15.79,0,28.64,12.85,28.64,28.64V463.34c0,2.79-2.27,5.06-5.06,5.06Zm-116.31-10.11h111.25V72.25c0-10.22-8.31-18.53-18.53-18.53H48.28c-10.22,0-18.53,8.31-18.53,18.53V458.28Zm428.62-15.08h-40.24c-2.79,0-5.06-2.27-5.06-5.06s2.27-5.06,5.06-5.06h40.24c2.79,0,5.06,2.27,5.06,5.06s-2.27,5.06-5.06,5.06Zm-196.43,0c-14.2,0-25.76-11.55-25.76-25.76s11.55-25.76,25.76-25.76,25.76,11.55,25.76,25.76c0,14.2-11.56,25.76-25.76,25.76Zm0-41.4c-8.62,0-15.64,7.02-15.64,15.64s7.01,15.64,15.64,15.64,15.64-7.01,15.64-15.64-7.02-15.64-15.64-15.64Zm-156.45,41.4h-40.24c-2.79,0-5.06-2.27-5.06-5.06s2.27-5.06,5.06-5.06h40.24c2.79,0,5.06,2.27,5.06,5.06s-2.26,5.06-5.06,5.06Zm332.75-185.64c-23,0-41.72-18.72-41.72-41.72s18.72-41.72,41.72-41.72,41.72,18.72,41.72,41.72-18.72,41.72-41.72,41.72Zm0-73.33c-17.43,0-31.61,14.18-31.61,31.61s14.18,31.61,31.61,31.61,31.61-14.18,31.61-31.61-14.18-31.61-31.61-31.61ZM85.38,257.56c-23,0-41.72-18.72-41.72-41.72s18.72-41.72,41.72-41.72,41.72,18.72,41.72,41.72-18.72,41.72-41.72,41.72Zm0-73.33c-17.43,0-31.61,14.18-31.61,31.61s14.18,31.61,31.61,31.61,31.61-14.18,31.61-31.61-14.18-31.61-31.61-31.61Zm352.88,49.73c-9.99,0-18.12-8.13-18.12-18.12s8.13-18.12,18.12-18.12,18.12,8.13,18.12,18.12-8.13,18.12-18.12,18.12Zm0-26.13c-4.41,0-8.01,3.59-8.01,8.01s3.59,8.01,8.01,8.01,8.01-3.59,8.01-8.01-3.59-8.01-8.01-8.01Zm-352.88,26.13c-9.99,0-18.12-8.13-18.12-18.12s8.13-18.12,18.12-18.12,18.12,8.13,18.12,18.12-8.13,18.12-18.12,18.12Zm0-26.13c-4.41,0-8.01,3.59-8.01,8.01s3.59,8.01,8.01,8.01,8.01-3.59,8.01-8.01-3.59-8.01-8.01-8.01Zm352.88-52.98c-23,0-41.72-18.72-41.72-41.72s18.72-41.72,41.72-41.72,41.72,18.72,41.72,41.72-18.72,41.72-41.72,41.72Zm0-73.33c-17.43,0-31.61,14.18-31.61,31.61s14.18,31.61,31.61,31.61,31.61-14.18,31.61-31.61-14.18-31.61-31.61-31.61ZM85.38,154.85c-23,0-41.72-18.72-41.72-41.72s18.72-41.72,41.72-41.72,41.72,18.72,41.72,41.72-18.72,41.72-41.72,41.72Zm0-73.33c-17.43,0-31.61,14.18-31.61,31.61s14.18,31.61,31.61,31.61,31.61-14.18,31.61-31.61-14.18-31.61-31.61-31.61Zm352.88,49.73c-9.99,0-18.12-8.13-18.12-18.12s8.13-18.12,18.12-18.12,18.12,8.13,18.12,18.12-8.13,18.12-18.12,18.12Zm0-26.13c-4.41,0-8.01,3.59-8.01,8.01s3.59,8.01,8.01,8.01,8.01-3.59,8.01-8.01-3.59-8.01-8.01-8.01Zm-352.88,26.13c-9.99,0-18.12-8.13-18.12-18.12s8.13-18.12,18.12-18.12,18.12,8.13,18.12,18.12-8.13,18.12-18.12,18.12Zm0-26.13c-4.41,0-8.01,3.59-8.01,8.01s3.59,8.01,8.01,8.01,8.01-3.59,8.01-8.01-3.59-8.01-8.01-8.01Z"/>
  </g>
</svg>