<?xml version="1.0" encoding="UTF-8"?>
<svg id="Capa_1" data-name="Capa 1" xmlns="http://www.w3.org/2000/svg" viewBox="0 0 512 512">
  <path d="M208.81,406.44h96.36v32.12h-96.36v-32.12Zm-64.24,32.12v32.12h224.83v-32.12h-32.12v-32.12l17.39-.06,3.49-.08c42.74-1.82,40.4-19.4-2.78-19.4l-201.53,.15c-42.74,1.82-40.43,19.4,2.76,19.4h20.09v32.12h-32.12Z"/>
  <path d="M95.41,85.25H416.59l2.83,.09c25.29,1.46,45.35,22.44,45.35,48.09v192.71l-.09,2.83c-1.46,25.29-22.44,45.35-48.09,45.35H95.41l-2.83-.09c-25.29-1.46-45.35-22.44-45.35-48.09V133.43l.09-2.83c1.46-25.29,22.44-45.35,48.09-45.35Zm240.89,321.19h80.3l3.49-.06c42.74-1.82,76.81-37.04,76.81-80.23V133.43l-.06-3.49c-1.82-42.74-37.04-76.81-80.23-76.81H95.41l-3.49,.06c-42.74,1.82-76.81,37.04-76.81,80.23v192.71l.06,3.49c1.82,42.74,37.04,76.81,80.23,76.81h240.89Z"/>
</svg>