<?xml version="1.0" encoding="UTF-8"?>
<svg id="Capa_1" data-name="Capa 1" xmlns="http://www.w3.org/2000/svg" viewBox="0 0 512 512">
  <g id="SVGRepo_iconCarrier" data-name="SVGRepo iconCarrier">
    <path d="M437.38,7.21H74.62c-23.9,0-43.28,19.38-43.28,43.28V461.04c0,23.9,19.38,43.28,43.28,43.28H437.38c23.9,0,43.28-19.38,43.28-43.28V50.49c0-23.9-19.38-43.28-43.28-43.28ZM65.46,50.8c0-5.05,4.52-9.46,9.56-9.46H438.11c5.05,0,9.56,4.42,9.56,9.46v56.51H65.46V50.8ZM447.68,461.87c0,5.05-4.52,9.46-9.56,9.46H75.03c-5.05,0-9.56-4.42-9.56-9.46V141.44H447.68V461.87h0Z"/>
    <path d="M255.94,230.95c-41.58,0-75.41,33.83-75.41,75.41s33.83,75.41,75.41,75.41,75.41-33.83,75.41-75.41-33.83-75.41-75.41-75.41Zm0,116.7c-22.76,0-41.28-18.52-41.28-41.28s18.52-41.29,41.28-41.29,41.29,18.52,41.29,41.29-18.52,41.28-41.29,41.28Z"/>
    <path d="M179.22,58.4H104.14c-9.42,0-17.06,7.64-17.06,17.06s7.64,17.06,17.06,17.06h75.08c9.42,0,17.06-7.64,17.06-17.06s-7.64-17.06-17.06-17.06Z"/>
    <circle cx="402.47" cy="74.76" r="19.75"/>
    <circle cx="347.37" cy="74.76" r="19.75"/>
    <path d="M394.21,267.71c-2.21,0-4.31,.43-6.25,1.2-16.34-57.52-69.34-99.76-132.02-99.76-75.66,0-137.21,61.55-137.21,137.21s61.55,137.21,137.21,137.21c62.66,0,115.65-42.22,132-99.71,1.94,.77,4.05,1.2,6.27,1.2,9.42,0,17.06-7.64,17.06-17.06v-43.23c0-9.42-7.64-17.06-17.06-17.06Zm-138.27,141.73c-56.84,0-103.09-46.24-103.09-103.09s46.24-103.09,103.09-103.09,103.09,46.24,103.09,103.09-46.24,103.09-103.09,103.09Z"/>
  </g>
</svg>