<?xml version="1.0" encoding="UTF-8"?>
<svg id="Capa_1" data-name="Capa 1" xmlns="http://www.w3.org/2000/svg" viewBox="0 0 512 512">
  <path d="M492.95,143.8c8.8,8.5,9.04,22.53,.54,31.33-8.5,8.8-22.53,9.04-31.33,.54-.18-.18-.37-.36-.54-.54-113.69-113.71-298.03-113.73-411.74-.04l-.04,.04c-8.8,8.5-22.83,8.26-31.33-.55-8.29-8.59-8.29-22.2,0-30.78,130.98-131.01,343.36-131.04,474.38-.06,.02,.02,.04,.04,.06,.06h0Zm-73.84,80.69c-90.2-90.23-236.48-90.25-326.7-.04-.01,.01-.03,.03-.04,.04-8.65,8.66-8.65,22.69,.01,31.34s22.69,8.65,31.34-.01c72.89-72.92,191.09-72.93,264.01-.04l.04,.04c8.65,8.66,22.68,8.66,31.34,.01,8.66-8.65,8.66-22.68,.01-31.34h0Zm-89.53,117.42c12.24,0,22.16-9.9,22.17-22.14,0-5.88-2.33-11.52-6.49-15.68-49.43-49.45-129.59-49.46-179.03-.03,0,0-.02,.02-.03,.03-8.65,8.66-8.65,22.69,.01,31.34,8.66,8.65,22.69,8.65,31.34-.01,32.55-31.12,83.81-31.12,116.36,0,4.14,4.18,9.78,6.54,15.66,6.56v-.07Zm-40.61,91.32c0-18.35-14.88-33.23-33.23-33.23s-33.23,14.88-33.23,33.23,14.88,33.23,33.23,33.23,33.23-14.88,33.23-33.23Z"/>
</svg>