<?xml version="1.0" encoding="UTF-8"?>
<svg id="Capa_1" data-name="Capa 1" xmlns="http://www.w3.org/2000/svg" viewBox="0 0 512 512">
  <g id="SVGRepo_iconCarrier" data-name="SVGRepo iconCarrier">
    <path d="M400.06,457.17c12.62,0,22.84,2.18,22.84,4.86s-10.22,4.86-22.84,4.86-22.84-2.18-22.84-4.86,10.22-4.86,22.84-4.86h0ZM120.2,277.22v218.72c0,2.25-.93,4.27-2.37,5.75-1.48,1.48-3.5,2.37-5.75,2.37h-38.53c-2.21,0-4.23-.89-5.71-2.37h0c-1.48-1.48-2.37-3.5-2.37-5.71v-218.76h-31.19c-3.19,0-6.06-1.28-8.12-3.38-2.1-2.1-3.38-4.97-3.38-8.12v-34.22c0-3.19,1.28-6.06,3.38-8.12,2.1-2.06,4.93-3.38,8.12-3.38H488.58c3.19,0,6.06,1.28,8.12,3.38,2.06,2.1,3.38,4.97,3.38,8.12v34.22c0,3.19-1.28,6.06-3.38,8.12-2.1,2.1-4.97,3.38-8.12,3.38h-.74v218.72c0,2.21-.93,4.23-2.37,5.71l-.04,.04c-1.48,1.48-3.5,2.37-5.71,2.37h-157.16c-2.25,0-4.27-.89-5.75-2.37-.27-.27-.5-.54-.74-.85-1.05-1.36-1.67-3.07-1.67-4.89v-218.72H120.2Zm207.65,61.8h146.59v-61.8h-146.59v61.8h0Zm146.59,13.4h-146.59v62.96h146.59v-62.96h0Zm0,76.36h-146.59v61.88h146.59v-61.88h0Zm12.24-195.38H36.18v30.41H486.68v-30.41h0Zm-379.88,43.81h-28.01v213.4h28.01v-213.4h0Zm293.26,25.4c12.62,0,22.84,2.06,22.84,4.62s-10.22,4.62-22.84,4.62-22.84-2.06-22.84-4.62,10.22-4.62,22.84-4.62h0Zm0,77.14c12.62,0,22.84,2.18,22.84,4.86s-10.22,4.86-22.84,4.86-22.84-2.18-22.84-4.86,10.22-4.86,22.84-4.86h0Z" style="fill-rule: evenodd;"/>
  </g>
  <g id="SVGRepo_iconCarrier-2" data-name="SVGRepo iconCarrier">
    <path id="primary" d="M60.46,221.86v-83.41c.02-14.46,10.06-26.97,24.17-30.12l24.87-5.56" style="fill: none; stroke: #000; stroke-linecap: round; stroke-linejoin: round; stroke-width: 15.45px;"/>
    <line id="primary-2" x1="37.29" y1="221.86" x2="114.52" y2="221.86" style="fill: none; stroke: #000; stroke-linecap: round; stroke-linejoin: round; stroke-width: 15.45px;"/>
    <path id="secondary" d="M176.3,134.2l-55.99,25.87-6.56-14.06c-4.68-10.05-3.62-21.84,2.78-30.89l-5.1-10.81c-3.6-7.74-.25-16.94,7.49-20.54,7.74-3.6,16.94-.25,20.54,7.49l5.1,10.81c10.92,.98,20.51,7.69,25.18,17.61l6.56,14.52Z" style="fill: none; stroke: #000; stroke-linecap: round; stroke-linejoin: round; stroke-width: 15.45px;"/>
  </g>
</svg>