<?xml version="1.0" encoding="utf-8"?>
<!-- Generator: Adobe Illustrator 27.0.0, SVG Export Plug-In . SVG Version: 6.00 Build 0)  -->
<svg version="1.1" id="Capa_1" xmlns="http://www.w3.org/2000/svg" xmlns:xlink="http://www.w3.org/1999/xlink" x="0px" y="0px"
	 viewBox="0 0 512 512" style="enable-background:new 0 0 512 512;" xml:space="preserve">
<style type="text/css">
	.st0{fill:none;stroke:#000000;stroke-width:20.0358;stroke-miterlimit:10;}
	.st1{stroke:#1D1D1B;stroke-width:20.0358;stroke-linecap:round;stroke-linejoin:round;stroke-miterlimit:10;}
</style>
<g>
	<circle class="st0" cx="256" cy="256" r="235"/>
	<path class="st1" d="M401.1,195.4v55.4h53.3V265h-53.3v55.9H386V265h-53.3v-14.2H386v-55.4H401.1L401.1,195.4z"/>
	<g>
		<path d="M70.8,339.5V326l17.3-16.8c41.6-39.6,60.4-60.6,60.6-85.2c0-16.5-8-31.8-32.3-31.8c-14.8,0-27,7.5-34.6,13.8l-7-15.5
			c11.3-9.5,27.3-16.5,46.1-16.5c35.1,0,49.8,24,49.8,47.3c0,30.1-21.8,54.3-56.1,87.4l-13,12v0.5h73.1v18.3H70.8z"/>
		<path d="M247.2,197.3h-0.5l-28.3,15.3l-4.3-16.8l35.6-19h18.8v162.8h-21.3L247.2,197.3L247.2,197.3z"/>
	</g>
</g>
</svg>
