<?xml version="1.0" encoding="utf-8"?>
<!-- Generator: Adobe Illustrator 27.0.0, SVG Export Plug-In . SVG Version: 6.00 Build 0)  -->
<svg version="1.1" id="Capa_1" xmlns="http://www.w3.org/2000/svg" xmlns:xlink="http://www.w3.org/1999/xlink" x="0px" y="0px"
	 viewBox="0 0 512 512" style="enable-background:new 0 0 512 512;" xml:space="preserve">
<style type="text/css">
	.st0{fill:none;stroke:#000000;stroke-width:20.0358;stroke-miterlimit:10;}
	.st1{stroke:#1D1D1B;stroke-width:20.0358;stroke-linecap:round;stroke-linejoin:round;stroke-miterlimit:10;}
</style>
<g>
	<circle class="st0" cx="256" cy="256" r="235"/>
	<path class="st1" d="M401.1,195.4v55.4h53.3V265h-53.3v55.9H386V265h-53.3v-14.2H386v-55.4H401.1L401.1,195.4z"/>
	<g>
		<path d="M76.1,314.2c6.3,4,20.8,10.3,36.1,10.3c28.3,0,37.1-18,36.8-31.6c-0.3-22.8-20.8-32.6-42.1-32.6H94.6v-16.5h12.3
			c16,0,36.3-8.3,36.3-27.5c0-13-8.3-24.5-28.6-24.5c-13,0-25.5,5.8-32.6,10.8l-5.8-16c8.5-6.3,25-12.5,42.6-12.5
			c32.1,0,46.6,19,46.6,38.8c0,16.8-10,31.1-30.1,38.3v0.5c20,4,36.3,19,36.3,41.8c0,26-20.3,48.8-59.4,48.8
			c-18.3,0-34.3-5.8-42.3-11L76.1,314.2z"/>
		<path d="M307.5,256.4c0,55.3-20.5,85.9-56.6,85.9c-31.8,0-53.3-29.8-53.8-83.6c0-54.6,23.5-84.7,56.6-84.7
			S307.5,204.5,307.5,256.4z M219.1,258.9c0,42.3,13,66.4,33.1,66.4c22.5,0,33.3-26.3,33.3-67.9S275.2,191,252.4,191
			C233.1,191,219.1,214.5,219.1,258.9z"/>
	</g>
</g>
</svg>
