<svg width="28" height="26" viewBox="0 0 28 26" fill="none" xmlns="http://www.w3.org/2000/svg">
<path d="M15.9 20.1002C14.2 19.7002 12.9 18.1002 12.9 16.3002C14.3 15.5002 15.3 13.9002 15.3 12.1002C15.3 11.2002 16 10.5002 16.9 10.5002V8.60021C16.9 6.30021 15.2 4.30021 13 4.00021C11.4 3.80021 10 4.50021 9.1 5.70021C8.4 5.50021 7.8 5.60021 7 6.20021C6.2 6.80021 5.7 7.80021 5.7 8.80021V9.60021V10.8002V11.8002C5.7 13.6002 6.6 15.3002 8.1 16.2002C8.1 18.0002 6.8 19.6002 5.1 20.0002C3 20.7002 1.4 22.3002 1 24.5002C1 24.7002 1.2 25.0002 1.4 25.0002H19.5C19.8 25.0002 20 24.7002 19.9 24.5002C19.6 22.3002 18 20.6002 15.9 20.1002Z" stroke="black" stroke-width="2" stroke-miterlimit="10" stroke-linecap="round" stroke-linejoin="round"/>
<path d="M23.7001 9.8999C23.7001 11.6999 22.7 13.1999 21.3 14.0999C21.3 15.4999 22.2 16.6999 23.4 17.0999C25 17.6999 26.3 19.0999 26.6 20.7999L26.7001 21.4999C26.8001 21.7999 26.5 21.9999 26.3 21.9999H18.8" stroke="black" stroke-width="2" stroke-miterlimit="10" stroke-linecap="round" stroke-linejoin="round"/>
<path d="M26.9 9.5C25.9 9.7 24.8001 9.8 23.7001 9.8C21.1001 9.8 18.7 9.1 16.8 8" stroke="black" stroke-width="2" stroke-miterlimit="10" stroke-linecap="round" stroke-linejoin="round"/>
<path d="M12.6001 4C14.0001 1.9 16.3001 1 19.0001 1C23.4001 1 27.0001 3.6 27.0001 9.9C27.0001 12.6 26.3001 15.6 25.2001 18" stroke="black" stroke-width="2" stroke-miterlimit="10" stroke-linecap="round" stroke-linejoin="round"/>
</svg>
