<svg width="31" height="31" viewBox="0 0 31 31" fill="none" xmlns="http://www.w3.org/2000/svg">
<g clip-path="url(#clip0_735_17532)">
<path d="M15.5 1.05127C34.4923 1.37713 34.4923 29.6288 15.5 29.9485C-3.49227 29.6227 -3.49227 1.37098 15.5 1.05127Z" stroke="black" stroke-width="1.23187" stroke-miterlimit="10"/>
<path d="M24.4212 11.7742V15.1804H27.6983V16.0473H24.4212V19.4904H23.4928V16.0473H20.2158V15.1743H23.4928V11.7681L24.4212 11.7742Z" fill="black" stroke="#1D1D1B" stroke-width="1.23187" stroke-miterlimit="10" stroke-linecap="round" stroke-linejoin="round"/>
<path d="M4.11322 20.6336V19.8036C6.259 17.787 9.19176 15.0141 8.90279 13.5384C9.00116 11.2267 6.14833 11.1406 4.78954 12.4317L4.35915 11.4787C6.41885 9.6158 10.403 10.3966 10.2554 13.3724C10.3845 15.3399 8.07276 17.6148 6.00691 19.4839V19.5146H10.5014V20.6398H4.11322V20.6336Z" fill="black"/>
<path d="M17.99 11.7615H14.1719L13.7846 14.3315C21.138 13.6613 18.4635 23.4065 11.9647 20.1847L12.3028 19.1518C17.5289 21.8079 18.9799 14.1716 12.5488 15.4259L13.1943 10.624H17.9839V11.7615H17.99Z" fill="black"/>
</g>
<defs>
<clipPath id="clip0_735_17532">
<rect width="31" height="31" fill="white"/>
</clipPath>
</defs>
</svg>
