<svg width="14" height="18" viewBox="0 0 14 18" fill="none" xmlns="http://www.w3.org/2000/svg">
<path d="M4.55762 16.0703C4.97226 17.0077 5.91066 17.6638 6.99989 17.6638C8.08912 17.6638 9.02748 17.0077 9.44216 16.0703H4.55762Z" fill="white"/>
<path d="M6.99928 1.68762C7.71806 1.68762 8.40823 1.81444 9.04871 2.04663V1.96774C9.04871 0.882721 8.16599 0 7.08101 0H6.91793C5.83292 0 4.9502 0.882721 4.9502 1.96774V2.04563C5.59033 1.81413 6.28029 1.68762 6.99928 1.68762Z" fill="white"/>
<path d="M13.468 15.0336H0.53202C0.287289 15.0336 0.0631185 14.8685 0.0122162 14.6291C-0.0381677 14.3921 0.069857 14.1581 0.289017 14.0569C0.341025 14.0231 0.732485 13.7494 1.12439 12.9213C1.84418 11.4004 1.99526 9.25806 1.99526 7.72865C1.99526 4.96911 4.24032 2.72412 6.99982 2.72412C9.75279 2.72412 11.9937 4.95829 12.0043 7.70878C12.0046 7.71538 12.0047 7.72201 12.0047 7.72865C12.0047 9.25806 12.1558 11.4004 12.8756 12.9213C13.2675 13.7494 13.6589 14.0232 13.711 14.0569C13.9301 14.1581 14.0382 14.392 13.9878 14.6291C13.9369 14.8685 13.7127 15.0336 13.468 15.0336ZM13.7168 14.0605H13.7171H13.7168Z" fill="white"/>
</svg>
