<svg width="22" height="15" viewBox="0 0 22 15" fill="none" xmlns="http://www.w3.org/2000/svg">
<path d="M19.4058 1H2.5942C1.71375 1 1 1.69653 1 2.55575V12.7388C1 13.5981 1.71375 14.2946 2.5942 14.2946H19.4058C20.2863 14.2946 21 13.5981 21 12.7388V2.55575C21 1.69653 20.2863 1 19.4058 1Z" fill="white" stroke="#30353F"/>
<path fill-rule="evenodd" clip-rule="evenodd" d="M6.40864 5.57822C6.23835 5.7773 5.96586 5.93431 5.69337 5.91188C5.65931 5.64271 5.79273 5.35671 5.94882 5.18006C6.11914 4.97538 6.41717 4.82959 6.65844 4.81836C6.68682 5.09876 6.57612 5.37354 6.40864 5.57822ZM6.65557 5.96514C6.41551 5.95151 6.19647 6.03648 6.01954 6.10511C5.90569 6.14926 5.80928 6.18666 5.73592 6.18666C5.6536 6.18666 5.55322 6.14728 5.4405 6.10304C5.29279 6.04508 5.12392 5.97881 4.94685 5.98198C4.54096 5.98758 4.16346 6.21472 3.95624 6.57641C3.53048 7.29981 3.84554 8.37093 4.25711 8.95974C4.45864 9.25134 4.69992 9.57098 5.0178 9.55978C5.15766 9.55457 5.25827 9.5124 5.36238 9.46875C5.48227 9.41851 5.60679 9.3663 5.80122 9.3663C5.9889 9.3663 6.10798 9.41713 6.2223 9.46595C6.33096 9.51234 6.43534 9.55689 6.5903 9.55417C6.91954 9.54855 7.12676 9.26257 7.32827 8.97097C7.54575 8.65798 7.64134 8.35254 7.65583 8.30618L7.65754 8.30081C7.65754 8.30081 7.6545 8.29925 7.64975 8.29713C7.57705 8.26423 7.02137 8.01294 7.01606 7.33907C7.0107 6.77346 7.45679 6.48689 7.52702 6.44177C7.53128 6.43903 7.53418 6.43719 7.53548 6.43623C7.25163 6.02124 6.80885 5.97637 6.65557 5.96514ZM8.93485 9.52331V5.15203H10.5953C11.4525 5.15203 12.0514 5.73523 12.0514 6.58761C12.0514 7.44002 11.4412 8.02883 10.5726 8.02883H9.62175V9.52331H8.93485ZM9.62169 5.72403H10.4136C11.0097 5.72403 11.3503 6.03807 11.3503 6.59044C11.3503 7.14279 11.0097 7.45965 10.4108 7.45965H9.62169V5.72403ZM14.3193 8.999C14.1377 9.34106 13.7375 9.55697 13.306 9.55697C12.6674 9.55697 12.2217 9.18125 12.2217 8.61487C12.2217 8.05406 12.6532 7.73163 13.4508 7.68397L14.308 7.63347V7.39236C14.308 7.03626 14.0724 6.84279 13.6523 6.84279C13.306 6.84279 13.0534 7.01943 13.0023 7.28861H12.3835C12.4034 6.72223 12.9427 6.31004 13.6722 6.31004C14.4584 6.31004 14.9693 6.7166 14.9693 7.3475V9.52331H14.3335V8.999H14.3193ZM13.4905 9.03826C13.1243 9.03826 12.8916 8.86441 12.8916 8.59804C12.8916 8.32327 13.1158 8.16342 13.5444 8.13819L14.3079 8.09053V8.33727C14.3079 8.74666 13.956 9.03826 13.4905 9.03826ZM17.0782 9.69436C16.8029 10.4598 16.4879 10.7122 15.818 10.7122C15.7669 10.7122 15.5966 10.7066 15.5568 10.6954V10.171C15.5994 10.1766 15.7045 10.1822 15.7584 10.1822C16.0621 10.1822 16.2324 10.0561 16.3374 9.72802L16.3999 9.53454L15.2361 6.3521H15.9542L16.7632 8.93451H16.7774L17.5863 6.3521H18.2846L17.0782 9.69436Z" fill="black"/>
</svg>
