<svg width="18" height="20" viewBox="0 0 18 20" fill="none" xmlns="http://www.w3.org/2000/svg">
<path d="M16.8 10.6362H2.4V3.41687C2.3993 3.14499 2.44904 2.87567 2.54632 2.62449C2.6436 2.37331 2.7865 2.14526 2.96674 1.95354L2.98174 1.9375C3.26421 1.63583 3.62688 1.43479 4.02019 1.36184C4.41351 1.28889 4.81829 1.34759 5.17924 1.52993C4.83835 2.13611 4.69666 2.84675 4.77669 3.54893C4.85671 4.25111 5.15386 4.90454 5.62091 5.4054L6.03158 5.84461L5.27569 6.6531L6.12416 7.56057L6.88005 6.75213L11.0684 2.27264L11.8243 1.46419L10.9758 0.55668L10.2198 1.36513L9.80918 0.92591C9.3175 0.401516 8.66938 0.0782611 7.97774 0.0124747C7.28611 -0.0533118 6.59482 0.142541 6.02434 0.565905C5.42277 0.159581 4.70988 -0.0158317 4.00277 0.0684822C3.29566 0.152796 2.63639 0.491823 2.13326 1.02987L2.11826 1.04591C1.82623 1.35654 1.5947 1.72604 1.43708 2.13301C1.27946 2.53999 1.19888 2.97636 1.2 3.41687V10.6362H0V11.9197H1.2V13.151C1.19997 13.2544 1.21557 13.3572 1.2462 13.4553L2.3625 17.0369C2.42207 17.2287 2.53662 17.3955 2.68988 17.5136C2.84313 17.6318 3.0273 17.6953 3.21623 17.6951H3.69998L3.2625 19.2994H4.51249L4.95 17.6951H12.7538L13.2038 19.2994H14.4563L14.0063 17.6951H14.7836C14.9726 17.6953 15.1568 17.6318 15.3101 17.5137C15.4633 17.3955 15.5779 17.2287 15.6375 17.0369L16.7537 13.4553C16.7844 13.3572 16.8 13.2544 16.8 13.151V11.9197H18V10.6362H16.8ZM6.4695 1.83342C6.8001 1.48061 7.24805 1.28246 7.71508 1.28246C8.18211 1.28246 8.63007 1.48061 8.96066 1.83342L9.37125 2.27264L6.88016 4.93694L6.4695 4.4978C6.13964 4.14421 5.95439 3.66511 5.95439 3.16561C5.95439 2.66612 6.13964 2.18702 6.4695 1.83342V1.83342ZM15.6 13.0988L14.5676 16.4117H3.43245L2.4 13.0988V11.9197H15.6V13.0988Z" fill="black"/>
</svg>
