<svg width="25" height="15" viewBox="0 0 25 15" fill="none" xmlns="http://www.w3.org/2000/svg">
<path d="M6.81818 8.55678C8.70455 8.55678 10.2273 7.28277 10.2273 5.70452C10.2273 4.12627 8.70455 2.85226 6.81818 2.85226C4.93182 2.85226 3.40909 4.12627 3.40909 5.70452C3.40909 7.28277 4.93182 8.55678 6.81818 8.55678ZM6.81818 4.75377C7.44318 4.75377 7.95455 5.18161 7.95455 5.70452C7.95455 6.22744 7.44318 6.65528 6.81818 6.65528C6.19318 6.65528 5.68182 6.22744 5.68182 5.70452C5.68182 5.18161 6.19318 4.75377 6.81818 4.75377ZM20.4545 1.90151H11.3636V9.50754H2.27273V0H0V14.2613H2.27273V11.409H22.7273V14.2613H25V5.70452C25 3.60336 22.9659 1.90151 20.4545 1.90151ZM22.7273 9.50754H13.6364V3.80302H20.4545C21.7045 3.80302 22.7273 4.65869 22.7273 5.70452V9.50754Z" fill="black"/>
</svg>
