<svg width="12" height="11" viewBox="0 0 12 11" fill="none" xmlns="http://www.w3.org/2000/svg">
<path d="M11.912 5.86621C11.8184 5.64536 11.6198 5.47417 11.352 5.38313L10.7144 5.13353V2.94726C10.7144 2.01726 9.94697 1.26324 9.00036 1.26324H8.14332V1.05284C8.14288 0.471318 7.66315 0 7.07169 0H4.92887C4.33697 0 3.85724 0.471318 3.85724 1.05284V1.26324H3.0002C2.0536 1.26324 1.28612 2.01726 1.28612 2.94726V5.13528L0.654315 5.38226C0.387848 5.46895 0.182123 5.64536 0.0876848 5.86752C0.0220656 6.02259 -0.0528644 6.26217 0.0526584 6.56404L0.0553186 6.57188L1.30519 9.71517C1.39962 9.9517 1.63195 10.1068 1.89044 10.105C1.90374 10.105 1.91704 10.105 1.93123 10.1037C2.77009 10.051 3.43116 9.64939 3.87586 9.27173C4.51077 9.81056 5.25785 10.105 5.99962 10.105C6.74138 10.105 7.48447 9.81013 8.11938 9.27085C8.56364 9.64895 9.2256 10.0514 10.0645 10.1037C10.3371 10.1224 10.5903 9.96563 10.6905 9.71604L11.9399 6.58452C12.0277 6.37151 12.0175 6.11712 11.9115 5.86621H11.912ZM6.34811 3.42686L6.31752 3.4164C6.11046 3.35237 5.88877 3.35237 5.68172 3.4164L5.6662 3.42119L2.28947 4.74324C2.2345 4.76458 2.17198 4.73845 2.15025 4.68443C2.14538 4.6718 2.14272 4.65873 2.14272 4.64523V2.9477C2.14272 2.48248 2.52668 2.10569 2.99976 2.10569H8.99992C9.47344 2.10569 9.85696 2.48291 9.85696 2.9477V4.64349C9.85696 4.70142 9.80908 4.7489 9.75011 4.7489C9.73636 4.7489 9.72306 4.74629 9.7102 4.7415L6.34811 3.42686Z" fill="#2D3130"/>
</svg>
