<svg width="29" height="29" viewBox="0 0 29 29" fill="none" xmlns="http://www.w3.org/2000/svg">
<path d="M7.25 3.02067C7.25 2.687 7.52049 2.4165 7.85417 2.4165C8.18785 2.4165 8.45833 2.687 8.45833 3.02067V6.64567C8.45833 6.97935 8.18785 7.24984 7.85417 7.24984C7.52049 7.24984 7.25 6.97935 7.25 6.64567V3.02067Z" fill="#A59D9D"/>
<path d="M16.917 3.02067C16.917 2.687 17.1875 2.4165 17.5212 2.4165C17.8548 2.4165 18.1253 2.687 18.1253 3.02067V6.64567C18.1253 6.97935 17.8548 7.24984 17.5212 7.24984C17.1875 7.24984 16.917 6.97935 16.917 6.64567V3.02067Z" fill="#A59D9D"/>
<path fill-rule="evenodd" clip-rule="evenodd" d="M8.45866 13.8958H7.25033V15.1042H8.45866V13.8958ZM7.25033 12.6875C6.58296 12.6875 6.04199 13.2285 6.04199 13.8958V15.1042C6.04199 15.7715 6.58296 16.3125 7.25033 16.3125H8.45866C9.12602 16.3125 9.66699 15.7715 9.66699 15.1042V13.8958C9.66699 13.2285 9.12602 12.6875 8.45866 12.6875H7.25033Z" fill="#A59D9D"/>
<path fill-rule="evenodd" clip-rule="evenodd" d="M13.2917 13.8958H12.0833V15.1042H13.2917V13.8958ZM12.0833 12.6875C11.416 12.6875 10.875 13.2285 10.875 13.8958V15.1042C10.875 15.7715 11.416 16.3125 12.0833 16.3125H13.2917C13.959 16.3125 14.5 15.7715 14.5 15.1042V13.8958C14.5 13.2285 13.959 12.6875 13.2917 12.6875H12.0833Z" fill="#A59D9D"/>
<path fill-rule="evenodd" clip-rule="evenodd" d="M18.1252 13.8958H16.9168V15.1042H18.1252V13.8958ZM16.9168 12.6875C16.2495 12.6875 15.7085 13.2285 15.7085 13.8958V15.1042C15.7085 15.7715 16.2495 16.3125 16.9168 16.3125H18.1252C18.7925 16.3125 19.3335 15.7715 19.3335 15.1042V13.8958C19.3335 13.2285 18.7925 12.6875 18.1252 12.6875H16.9168Z" fill="#A59D9D"/>
<path fill-rule="evenodd" clip-rule="evenodd" d="M8.45866 18.7288H7.25033V19.9372H8.45866V18.7288ZM7.25033 17.5205C6.58296 17.5205 6.04199 18.0615 6.04199 18.7288V19.9372C6.04199 20.6045 6.58296 21.1455 7.25033 21.1455H8.45866C9.12602 21.1455 9.66699 20.6045 9.66699 19.9372V18.7288C9.66699 18.0615 9.12602 17.5205 8.45866 17.5205H7.25033Z" fill="#A59D9D"/>
<path fill-rule="evenodd" clip-rule="evenodd" d="M13.2917 18.7288H12.0833V19.9372H13.2917V18.7288ZM12.0833 17.5205C11.416 17.5205 10.875 18.0615 10.875 18.7288V19.9372C10.875 20.6045 11.416 21.1455 12.0833 21.1455H13.2917C13.959 21.1455 14.5 20.6045 14.5 19.9372V18.7288C14.5 18.0615 13.959 17.5205 13.2917 17.5205H12.0833Z" fill="#A59D9D"/>
<path fill-rule="evenodd" clip-rule="evenodd" d="M5.43766 6.04134H19.9377C20.605 6.04134 21.146 6.58231 21.146 7.24967V16.9163C21.5632 16.9163 21.9681 16.9692 22.3543 17.0686V7.24967C22.3543 5.91499 21.2723 4.83301 19.9377 4.83301H5.43766C4.10297 4.83301 3.021 5.91499 3.021 7.24967V21.7497C3.021 23.0843 4.10297 24.1663 5.43766 24.1663H16.9593C16.743 23.7924 16.5753 23.3867 16.4649 22.958H5.43766C4.77032 22.958 4.22933 22.417 4.22933 21.7497V7.24967C4.22933 6.58231 4.77032 6.04134 5.43766 6.04134Z" fill="#A59D9D"/>
<path fill-rule="evenodd" clip-rule="evenodd" d="M21.75 11.4788H3.625V10.2705H21.75V11.4788Z" fill="#A59D9D"/>
<path fill-rule="evenodd" clip-rule="evenodd" d="M21.1458 25.3748C23.1479 25.3748 24.7708 23.7519 24.7708 21.7498C24.7708 19.7478 23.1479 18.1248 21.1458 18.1248C19.1438 18.1248 17.5208 19.7478 17.5208 21.7498C17.5208 23.7519 19.1438 25.3748 21.1458 25.3748ZM21.1458 26.5832C23.8152 26.5832 25.9792 24.4192 25.9792 21.7498C25.9792 19.0804 23.8152 16.9165 21.1458 16.9165C18.4764 16.9165 16.3125 19.0804 16.3125 21.7498C16.3125 24.4192 18.4764 26.5832 21.1458 26.5832Z" fill="#A59D9D"/>
<path fill-rule="evenodd" clip-rule="evenodd" d="M21.1462 18.8369C21.4798 18.8369 21.7503 19.1074 21.7503 19.4411V22.0378L23.2314 23.066C23.5056 23.2562 23.5735 23.6327 23.3832 23.9068C23.193 24.1809 22.8165 24.2489 22.5424 24.0586L20.542 22.6701V19.4411C20.542 19.1074 20.8125 18.8369 21.1462 18.8369Z" fill="#A59D9D"/>
</svg>
