<?xml version="1.0" encoding="UTF-8"?>
<svg id="Capa_1" data-name="Capa 1" xmlns="http://www.w3.org/2000/svg" viewBox="0 0 454.03 503.37">
  <path d="M114.58,65.71h-19.54c-27.37,0-41.06,0-51.52,5.33-9.2,4.68-16.67,12.16-21.35,21.35-5.33,10.45-5.33,24.15-5.33,51.52v19.54" style="fill: none; stroke: #000; stroke-linecap: round; stroke-linejoin: round; stroke-width: 20px;"/>
  <line x1="114.58" y1="65.71" x2="310.05" y2="65.71" style="fill: none; stroke: #000; stroke-linecap: round; stroke-linejoin: round; stroke-width: 20px;"/>
  <line x1="114.58" y1="65.71" x2="114.58" y2="16.84" style="fill: none; stroke: #000; stroke-linecap: round; stroke-linejoin: round; stroke-width: 20px;"/>
  <path d="M310.05,65.71h19.55c27.37,0,41.03,0,51.49,5.33,9.19,4.68,16.69,12.16,21.37,21.35,5.32,10.44,5.32,24.12,5.32,51.44v19.62" style="fill: none; stroke: #000; stroke-linecap: round; stroke-linejoin: round; stroke-width: 20px;"/>
  <line x1="310.04" y1="65.71" x2="310.04" y2="16.84" style="fill: none; stroke: #000; stroke-linecap: round; stroke-linejoin: round; stroke-width: 20px;"/>
  <line x1="16.85" y1="163.45" x2="407.78" y2="163.45" style="fill: none; stroke: #000; stroke-linecap: round; stroke-linejoin: round; stroke-width: 20px;"/>
  <rect x="114.56" y="358.92" width=".05" height=".05" style="fill: none; stroke: #000; stroke-linecap: round; stroke-linejoin: round; stroke-width: 20px;"/>
  <rect x="212.3" y="261.18" width=".05" height=".05" style="fill: none; stroke: #000; stroke-linecap: round; stroke-linejoin: round; stroke-width: 20px;"/>
  <rect x="114.56" y="261.18" width=".05" height=".05" style="fill: none; stroke: #000; stroke-linecap: round; stroke-linejoin: round; stroke-width: 20px;"/>
  <path d="M16.84,163.45v215.02c0,27.37,0,41.05,5.33,51.5,4.68,9.19,12.16,16.68,21.35,21.36,10.44,5.32,24.12,5.32,51.44,5.32H254.04" style="fill: none; stroke: #000; stroke-linecap: round; stroke-linejoin: round; stroke-width: 20px;"/>
  <line x1="407.79" y1="299.47" x2="407.79" y2="163.45" style="fill: none; stroke: #000; stroke-linecap: round; stroke-linejoin: round; stroke-width: 20px;"/>
  <g>
    <circle cx="331.46" cy="378.58" r="109.95" style="fill: none; stroke: #000; stroke-linecap: round; stroke-linejoin: round; stroke-width: 20px;"/>
    <polyline points="325.01 344.56 325.01 385.79 347 410.53" style="fill: none; stroke: #000; stroke-linecap: round; stroke-linejoin: round; stroke-width: 20px;"/>
  </g>
</svg>