<svg width="22" height="20" viewBox="0 0 22 20" fill="none" xmlns="http://www.w3.org/2000/svg">
<path d="M6.19999 4.12023V5.12023C6.55566 5.12023 6.88456 4.93132 7.06377 4.62411L6.19999 4.12023ZM7.87999 1.24023V0.240234C7.52433 0.240234 7.19542 0.429146 7.01621 0.736363L7.87999 1.24023ZM14.12 1.24023L14.9838 0.736364C14.8046 0.429146 14.4757 0.240234 14.12 0.240234V1.24023ZM15.8 4.12023L14.9362 4.62411C15.1154 4.93132 15.4443 5.12023 15.8 5.12023V4.12023ZM2.39999 16.3602V6.52023H0.399994V16.3602H2.39999ZM3.79999 5.12023H6.19999V3.12023H3.79999V5.12023ZM7.06377 4.62411L8.74377 1.74411L7.01621 0.736363L5.33621 3.61636L7.06377 4.62411ZM7.87999 2.24023H14.12V0.240234H7.87999V2.24023ZM13.2562 1.74411L14.9362 4.62411L16.6638 3.61636L14.9838 0.736364L13.2562 1.74411ZM15.8 5.12023H18.2V3.12023H15.8V5.12023ZM19.6 6.52023V16.3602H21.6V6.52023H19.6ZM19.6 16.3602C19.6 17.1334 18.9732 17.7602 18.2 17.7602V19.7602C20.0778 19.7602 21.6 18.238 21.6 16.3602H19.6ZM18.2 5.12023C18.9732 5.12023 19.6 5.74704 19.6 6.52023H21.6C21.6 4.64247 20.0778 3.12023 18.2 3.12023V5.12023ZM2.39999 6.52023C2.39999 5.74703 3.02679 5.12023 3.79999 5.12023V3.12023C1.92223 3.12023 0.399994 4.64246 0.399994 6.52023H2.39999ZM3.79999 17.7602C3.0268 17.7602 2.39999 17.1334 2.39999 16.3602H0.399994C0.399994 18.238 1.92223 19.7602 3.79999 19.7602V17.7602ZM13.6 10.8402C13.6 12.2762 12.4359 13.4402 11 13.4402V15.4402C13.5405 15.4402 15.6 13.3807 15.6 10.8402H13.6ZM11 13.4402C9.56405 13.4402 8.39999 12.2762 8.39999 10.8402H6.39999C6.39999 13.3807 8.45948 15.4402 11 15.4402V13.4402ZM8.39999 10.8402C8.39999 9.40429 9.56405 8.24023 11 8.24023V6.24023C8.45948 6.24023 6.39999 8.29972 6.39999 10.8402H8.39999ZM11 8.24023C12.4359 8.24023 13.6 9.40429 13.6 10.8402H15.6C15.6 8.29972 13.5405 6.24023 11 6.24023V8.24023ZM18.2 17.7602H3.79999V19.7602H18.2V17.7602Z" fill="#505050"/>
</svg>
