<svg width="27" height="30" viewBox="0 0 27 30" fill="none" xmlns="http://www.w3.org/2000/svg">
<path d="M0.62649 0H17.4681C17.6104 0.0297205 17.7446 0.0567391 17.8554 0.164814C18.6551 0.936346 19.7248 1.99998 21.0643 3.35571C21.457 3.75289 21.6272 3.85646 21.6299 4.43556C21.6431 8.35926 21.65 12.2833 21.6506 16.2076C21.6506 16.3409 21.765 16.3634 21.8478 16.2625C22.1189 15.9338 22.9583 14.9035 23.4365 15.3484C24.477 16.3193 25.5686 17.4114 26.7112 18.6248C27.0426 18.977 26.8129 19.2499 26.5554 19.5174C25.9351 20.1616 25.1711 20.922 24.2633 21.7986C24.2603 21.8022 24.2273 21.8413 24.1642 21.9157C24.1324 21.9535 24.0949 21.983 24.0516 22.004C24.0388 22.0103 24.0277 22.0195 24.0192 22.031C24.0107 22.0424 24.005 22.0557 24.0026 22.0698C24.0002 22.0839 24.0012 22.0983 24.0055 22.1119C24.0098 22.1255 24.0173 22.1379 24.0273 22.1481C24.719 22.8506 25.4149 23.5491 26.115 24.2438C26.2633 24.3903 26.4704 24.6161 26.7364 24.9211C26.9579 25.1751 26.8913 25.3723 26.6878 25.5948C25.5122 26.8796 24.3606 28.0189 23.233 29.0126L22.9511 29C22.5458 28.68 22.1735 28.3239 21.8343 27.9319C21.7256 27.8058 21.6731 27.8262 21.6767 27.9931C21.6833 28.3161 21.602 28.6202 21.4326 28.9054C21.4256 28.9172 21.4161 28.9272 21.4047 28.9347C21.3933 28.9422 21.3804 28.947 21.3669 28.9487L20.9697 29H0.705744C0.439761 28.988 0.271645 28.8868 0.201397 28.6965C0.153964 28.5692 0.130248 28.4374 0.130248 28.3011C0.11884 19.0619 0.121842 9.8615 0.139254 0.699783C0.139254 0.317019 0.236521 0.0684472 0.62649 0ZM15.4435 22.6524C15.5162 22.5882 15.5753 22.5137 15.6209 22.4291C15.6284 22.4154 15.6321 22.4001 15.6318 22.3846C15.6315 22.369 15.6272 22.3538 15.6192 22.3404C15.6112 22.327 15.5999 22.3158 15.5863 22.308C15.5727 22.3002 15.5573 22.296 15.5417 22.2958C12.0064 22.2892 8.4712 22.2877 4.93596 22.2913C3.94258 22.2922 4.00022 21.1916 4.92876 21.1898C8.25385 21.1838 11.5117 21.1847 14.7023 21.1925C14.9299 21.1931 14.9641 21.1118 14.805 20.9484C14.2808 20.4117 13.7786 19.9001 13.2982 19.4138C13.1118 19.2247 13.0875 19.0355 13.1253 18.7888C13.1273 18.7759 13.1264 18.7628 13.1228 18.7504C13.1192 18.7379 13.113 18.7263 13.1045 18.7165C13.0961 18.7067 13.0856 18.6988 13.0738 18.6934C13.062 18.688 13.0491 18.6852 13.0361 18.6852C10.4255 18.6894 7.79633 18.6897 5.14851 18.6861C4.86751 18.6855 4.67748 18.6678 4.57842 18.633C4.21096 18.5051 4.11009 18.0313 4.36947 17.744C4.57751 17.5135 5.00081 17.5531 5.2818 17.5522C7.97406 17.5426 10.6666 17.539 13.3595 17.5414C13.8038 17.542 14.1187 17.5303 14.3042 17.5063C14.3246 17.5034 14.3433 17.4939 14.3574 17.4793C14.9434 16.8662 15.5423 16.2661 16.1541 15.6789C16.5459 15.3025 16.8332 14.9791 17.3105 15.4411C17.78 15.8975 18.5576 16.6807 19.6431 17.7909C19.7518 17.9019 19.8367 17.9779 19.898 18.0187C19.9292 18.0397 19.9666 18.0494 20.0041 18.0463C20.0416 18.0432 20.0769 18.0274 20.1042 18.0016C20.3786 17.7434 20.5158 17.5219 20.5158 17.337C20.5218 13.1665 20.5248 9.00081 20.5248 4.83994C20.5248 4.81605 20.5152 4.79314 20.4982 4.77625C20.4811 4.75936 20.458 4.74988 20.4339 4.74988C19.4378 4.75228 18.442 4.74477 17.4465 4.72736C17.2267 4.72316 17.0838 4.65681 17.0178 4.52832C16.9403 4.37702 16.9013 4.211 16.9007 4.03028L16.8989 1.21584C16.8989 1.19195 16.8894 1.16904 16.8725 1.15215C16.8556 1.13527 16.8327 1.12578 16.8089 1.12578H1.34248C1.3186 1.12578 1.29569 1.13527 1.2788 1.15215C1.26191 1.16904 1.25242 1.19195 1.25242 1.21584C1.25122 9.34845 1.25122 17.4805 1.25242 25.6119C1.25242 26.1243 1.29745 27.0538 1.25873 27.777C1.25788 27.7898 1.25985 27.8027 1.26452 27.8147C1.2692 27.8268 1.27645 27.8377 1.28578 27.8467C1.29511 27.8556 1.3063 27.8625 1.31858 27.8668C1.33085 27.8711 1.34393 27.8727 1.35689 27.8715C1.69553 27.8391 2.13233 27.8742 2.36289 27.8742C6.64624 27.8748 10.9629 27.8745 15.3129 27.8733C15.4282 27.8733 15.445 27.8322 15.3634 27.7499C14.7209 27.1045 14.0989 26.4717 13.4973 25.8514C13.3346 25.6839 13.1941 25.5272 13.0758 25.3813C12.9791 25.2618 12.9845 25.1468 13.092 25.0364C13.8602 24.251 14.6257 23.3792 15.4435 22.6524ZM19.5332 3.63311C19.5502 3.63322 19.5668 3.6283 19.5809 3.61896C19.5951 3.60963 19.6061 3.5963 19.6127 3.58066C19.6193 3.56503 19.621 3.5478 19.6178 3.53116C19.6145 3.51452 19.6064 3.49922 19.5945 3.48721L18.1751 2.05252C18.1632 2.04036 18.148 2.032 18.1314 2.02852C18.1148 2.02504 18.0975 2.02658 18.0817 2.03296C18.066 2.03933 18.0525 2.05025 18.043 2.06432C18.0335 2.07839 18.0284 2.09497 18.0283 2.11196L18.0085 3.55115C18.0084 3.56246 18.0105 3.57368 18.0147 3.58417C18.019 3.59465 18.0253 3.60419 18.0332 3.61223C18.0412 3.62027 18.0506 3.62665 18.0611 3.63101C18.0715 3.63537 18.0827 3.63761 18.094 3.63761L19.5332 3.63311ZM17.4384 27.0285C17.7185 26.7349 19.7079 24.6734 19.9304 24.713C20.1285 24.7485 20.2925 24.8304 20.4221 24.9589L23.0565 27.568C23.0648 27.5765 23.0748 27.5832 23.0858 27.5877C23.0967 27.5923 23.1085 27.5947 23.1204 27.5947C23.1323 27.5947 23.1441 27.5923 23.155 27.5877C23.166 27.5832 23.176 27.5765 23.1843 27.568L25.4179 25.3201C25.4337 25.304 25.4429 25.2827 25.4438 25.2601C25.4446 25.2376 25.437 25.2156 25.4224 25.1985C25.3209 25.0772 25.2035 24.9493 25.0702 24.8148C24.354 24.0925 23.6377 23.3702 22.9214 22.6479C22.8016 22.5281 22.6692 22.357 22.6034 22.2255C22.5278 22.0742 22.5452 21.943 22.6557 21.832L25.4332 19.0274C25.45 19.0105 25.4594 18.9877 25.4594 18.9639C25.4594 18.9401 25.45 18.9173 25.4332 18.9004C24.7073 18.179 23.9589 17.2991 23.1573 16.6624C23.14 16.6487 23.1182 16.6418 23.0961 16.6431C23.074 16.6445 23.0531 16.6539 23.0375 16.6696C22.1189 17.5783 21.2039 18.614 20.2006 19.4219C20.0643 19.5318 19.9265 19.5336 19.7872 19.4273C19.6827 19.348 19.5404 19.2724 19.4378 19.1706C18.596 18.3318 17.7548 17.4916 16.9142 16.6498C16.9058 16.6414 16.8959 16.6348 16.8849 16.6303C16.874 16.6257 16.8623 16.6234 16.8505 16.6234C16.8387 16.6234 16.827 16.6257 16.8162 16.6303C16.8053 16.6348 16.7955 16.6414 16.7872 16.6498L14.5204 18.9112C14.5035 18.9283 14.4941 18.9512 14.4941 18.9752C14.4941 18.9991 14.5035 19.0221 14.5204 19.0391C15.4399 19.965 16.4756 20.8872 17.3024 21.913C17.3979 22.0307 17.4042 22.1532 17.3213 22.2805C17.2336 22.4168 17.1223 22.5543 16.9872 22.693C16.167 23.5359 15.345 24.3648 14.5213 25.1796C14.5128 25.1879 14.5061 25.1979 14.5016 25.2089C14.497 25.2198 14.4946 25.2316 14.4946 25.2435C14.4946 25.2554 14.497 25.2672 14.5016 25.2781C14.5061 25.2891 14.5128 25.2991 14.5213 25.3075L16.7548 27.5311C16.7705 27.5465 16.7913 27.5557 16.8131 27.557C16.835 27.5583 16.8565 27.5517 16.8737 27.5383C17.0748 27.3822 17.2631 27.2123 17.4384 27.0285ZM18.4354 27.849C19.1027 27.8535 19.7656 27.8796 20.4257 27.8724C20.4487 27.8722 20.4707 27.8633 20.4873 27.8473C20.5039 27.8314 20.5138 27.8098 20.5149 27.7869C20.541 27.2771 20.6176 26.3693 20.0025 26.1387C19.9863 26.1328 19.9688 26.1316 19.9519 26.1352C19.935 26.1389 19.9194 26.1473 19.907 26.1594L18.3723 27.6959C18.2709 27.7974 18.2919 27.8484 18.4354 27.849Z" fill="black"/>
<path d="M4.77654 7.79831C5.08045 7.79831 5.32682 7.55194 5.32682 7.24803C5.32682 6.94412 5.08045 6.69775 4.77654 6.69775C4.47263 6.69775 4.22626 6.94412 4.22626 7.24803C4.22626 7.55194 4.47263 7.79831 4.77654 7.79831Z" fill="black"/>
<path d="M17.0187 6.68799H7.3208C7.01739 6.68799 6.77142 6.93395 6.77142 7.23737V7.25178C6.77142 7.55519 7.01739 7.80116 7.3208 7.80116H17.0187C17.3221 7.80116 17.5681 7.55519 17.5681 7.25178V7.23737C17.5681 6.93395 17.3221 6.68799 17.0187 6.68799Z" fill="black"/>
<path d="M16.9881 10.2915H4.79372C4.48086 10.2915 4.22723 10.5451 4.22723 10.858V10.8706C4.22723 11.1835 4.48086 11.4371 4.79372 11.4371H16.9881C17.301 11.4371 17.5546 11.1835 17.5546 10.8706V10.858C17.5546 10.5451 17.301 10.2915 16.9881 10.2915Z" fill="black"/>
<path d="M14.4907 13.9165H4.79278C4.48091 13.9165 4.22809 14.1693 4.22809 14.4812V14.4974C4.22809 14.8093 4.48091 15.0621 4.79278 15.0621H14.4907C14.8025 15.0621 15.0554 14.8093 15.0554 14.4974V14.4812C15.0554 14.1693 14.8025 13.9165 14.4907 13.9165Z" fill="black"/>
</svg>
