<svg width="13" height="11" viewBox="0 0 13 11" fill="none" xmlns="http://www.w3.org/2000/svg">
<path d="M12.9897 4.104C12.9818 4.06905 12.9704 4.03507 12.9557 4.00252L11.6765 1.1033C11.3819 0.433184 10.6645 0 9.84805 0H3.15244C2.33698 0 1.61859 0.433184 1.32444 1.1033L0.0438523 4.00252C0.0147817 4.0681 0 4.13846 0 4.20978V9.99817C0 10.2887 0.24242 10.5242 0.541502 10.5242H1.625C1.92408 10.5242 2.1665 10.2887 2.1665 9.99817V9.47212H10.8335V9.99817C10.8335 10.2887 11.0759 10.5242 11.375 10.5242H12.4585C12.7576 10.5242 13 10.2887 13 9.99817V4.20978C13 4.17436 12.9966 4.13894 12.9892 4.104H12.9897ZM2.7085 7.36699C2.11033 7.36699 1.625 6.896 1.625 6.31443C1.625 5.73286 2.10984 5.26187 2.7085 5.26187C3.30716 5.26187 3.792 5.73286 3.792 6.31443C3.792 6.896 3.30716 7.36699 2.7085 7.36699ZM10.292 7.36699C9.69383 7.36699 9.2085 6.896 9.2085 6.31443C9.2085 5.73286 9.69334 5.26187 10.292 5.26187C10.8907 5.26187 11.3755 5.73286 11.3755 6.31443C11.3755 6.896 10.8907 7.36699 10.292 7.36699ZM1.36287 3.68374L2.31875 1.51782C2.44144 1.23972 2.776 1.05256 3.15244 1.05256H9.84805C10.224 1.05256 10.5591 1.23972 10.6817 1.51782L11.6376 3.68374H1.36287Z" fill="#2D3130"/>
</svg>
