<svg width="11" height="11" viewBox="0 0 11 11" fill="none" xmlns="http://www.w3.org/2000/svg">
<path d="M5.06397 1.53587H2.31397C1.4027 1.53587 0.663971 2.2746 0.663971 3.18587V8.68592C0.663971 9.59719 1.4027 10.3359 2.31397 10.3359H7.81397C8.72524 10.3359 9.46397 9.59719 9.46397 8.68592L9.46397 5.9359M3.41397 7.58587L5.41505 7.18267C5.52128 7.16126 5.61882 7.10895 5.69542 7.0323L10.175 2.55024C10.3898 2.33535 10.3897 1.98703 10.1747 1.77231L9.22576 0.824446C9.01089 0.609823 8.66274 0.609969 8.44805 0.824772L3.96799 5.3073C3.89153 5.38379 3.83933 5.48114 3.8179 5.58715L3.41397 7.58587Z" stroke="#505050" stroke-width="0.916667" stroke-linecap="round" stroke-linejoin="round"/>
</svg>
