<svg width="33" height="30" viewBox="0 0 33 30" fill="none" xmlns="http://www.w3.org/2000/svg">
<path d="M28.0794 11.6744C27.2715 9.77697 26.0102 8.10691 24.4061 6.81078C22.8021 5.51465 20.9045 4.63208 18.8797 4.24056L20.7088 1.31416L18.8538 0.154785L16.4403 4.01627C13.982 4.02767 11.5808 4.75906 9.53354 6.12005C7.48626 7.48104 5.88257 9.41201 4.92061 11.6744C3.63207 11.6989 2.40458 12.2279 1.50199 13.1478C0.599392 14.0678 0.09375 15.3051 0.09375 16.5938C0.09375 17.8826 0.599392 19.1199 1.50199 20.0399C2.40458 20.9598 3.63207 21.4888 4.92061 21.5133C5.88667 23.785 7.49957 25.7223 9.55851 27.0841C11.6174 28.4459 14.0315 29.172 16.5 29.172C18.9685 29.172 21.3826 28.4459 23.4415 27.0841C25.5004 25.7223 27.1133 23.785 28.0794 21.5133C29.3679 21.4888 30.5954 20.9598 31.498 20.0399C32.4006 19.1199 32.9063 17.8826 32.9063 16.5938C32.9063 15.3051 32.4006 14.0678 31.498 13.1478C30.5954 12.2279 29.3679 11.6989 28.0794 11.6744ZM29.9355 18.5086C29.4352 19.0203 28.7533 19.3141 28.0378 19.3262L26.6211 19.3532L26.0665 20.6571C25.2685 22.534 23.9361 24.1347 22.235 25.2599C20.534 26.3851 18.5395 26.985 16.5 26.985C14.4605 26.985 12.4661 26.3851 10.7651 25.2599C9.06402 24.1347 7.73156 22.534 6.93359 20.6571L6.37892 19.3532L4.96217 19.3262C4.24635 19.3128 3.56437 19.0191 3.06288 18.5081C2.56139 17.9971 2.28044 17.3098 2.28044 16.5938C2.28044 15.8779 2.56139 15.1905 3.06288 14.6796C3.56437 14.1686 4.24635 13.8749 4.96217 13.8615L6.37892 13.8345L6.93359 12.5306C7.73158 10.6537 9.06405 9.05305 10.7651 7.92788C12.4661 6.80271 14.4605 6.20278 16.5 6.20278C18.5395 6.20278 20.534 6.80271 22.235 7.92788C23.936 9.05305 25.2685 10.6537 26.0665 12.5306L26.6211 13.8345L28.0378 13.8615C28.5717 13.8715 29.091 14.0378 29.5314 14.3398C29.9718 14.6418 30.3141 15.0662 30.516 15.5605C30.7179 16.0549 30.7705 16.5976 30.6673 17.1215C30.5641 17.6454 30.3097 18.1277 29.9355 18.5086Z" fill="black"/>
<path d="M13.2188 13.8594H10.4844V16.5938H13.2188V13.8594Z" fill="black"/>
<path d="M22.5156 13.8594H19.7812V16.5938H22.5156V13.8594Z" fill="black"/>
<path d="M16.5 24.25C17.2182 24.25 17.9293 24.1085 18.5928 23.8337C19.2563 23.5589 19.8592 23.1561 20.367 22.6482C20.8748 22.1404 21.2776 21.5375 21.5525 20.8741C21.8273 20.2106 21.9688 19.4994 21.9688 18.7812H11.0312C11.0312 19.4994 11.1727 20.2106 11.4475 20.8741C11.7224 21.5375 12.1252 22.1404 12.633 22.6482C13.6586 23.6738 15.0496 24.25 16.5 24.25Z" fill="black"/>
</svg>
