<svg width="37" height="37" viewBox="0 0 37 37" fill="none" xmlns="http://www.w3.org/2000/svg">
<path fill-rule="evenodd" clip-rule="evenodd" d="M24.4971 21.5H23.4971V23.5C23.4971 23.633 23.5501 23.76 23.6431 23.854L24.8001 25.01L25.5071 24.303L24.4971 23.293V21.5Z" fill="#2E3E5C"/>
<path fill-rule="evenodd" clip-rule="evenodd" d="M23.9971 27C22.0671 27 20.4971 25.43 20.4971 23.5C20.4971 21.57 22.0671 20 23.9971 20C25.9271 20 27.4971 21.57 27.4971 23.5C27.4971 25.43 25.9271 27 23.9971 27ZM23.9971 19C21.5161 19 19.4971 21.019 19.4971 23.5C19.4971 25.981 21.5161 28 23.9971 28C26.4781 28 28.4971 25.981 28.4971 23.5C28.4971 21.019 26.4781 19 23.9971 19Z" fill="#2E3E5C"/>
<path fill-rule="evenodd" clip-rule="evenodd" d="M25.4971 14H12.4971V12.5C12.4971 12.224 12.7221 12 12.9971 12H14.4971V12.5C14.4971 12.776 14.7211 13 14.9971 13C15.2731 13 15.4971 12.776 15.4971 12.5V12H22.4971V12.5C22.4971 12.776 22.7211 13 22.9971 13C23.2731 13 23.4971 12.776 23.4971 12.5V12H24.9971C25.2721 12 25.4971 12.224 25.4971 12.5V14ZM24.9971 11H23.4971V10.5C23.4971 10.224 23.2731 10 22.9971 10C22.7211 10 22.4971 10.224 22.4971 10.5V11H15.4971V10.5C15.4971 10.224 15.2731 10 14.9971 10C14.7211 10 14.4971 10.224 14.4971 10.5V11H12.9971C12.1701 11 11.4971 11.673 11.4971 12.5V27H18.4971V26H12.4971V15H25.4971V18H26.4971V12.5C26.4971 11.673 25.8241 11 24.9971 11Z" fill="#2E3E5C"/>
<circle cx="18.5" cy="18.5" r="18" stroke="#2E3E5C"/>
</svg>
