<svg width="37" height="37" viewBox="0 0 37 37" fill="none" xmlns="http://www.w3.org/2000/svg">
<circle cx="18.5" cy="18.5" r="18" stroke="#2E3E5C"/>
<path fill-rule="evenodd" clip-rule="evenodd" d="M17.2233 10.0034C16.4374 10.0886 15.6824 10.3028 14.9465 10.6492C13.484 11.3378 12.3951 12.3848 11.6955 13.7747C10.4261 16.2971 10.8778 19.005 13.1868 22.7125C13.8437 23.7673 14.4557 24.6405 15.9958 26.7203C16.512 27.4175 17.0849 28.1977 17.2688 28.4542C17.6191 28.9427 17.7516 29.0504 18.0017 29.0504C18.2519 29.0504 18.3844 28.9427 18.7347 28.4542C18.9186 28.1977 19.4916 27.4175 20.0081 26.7203C21.5173 24.6831 22.1826 23.7329 22.8241 22.6989C24.8985 19.3547 25.4462 16.9189 24.6524 14.5672C24.5047 14.1297 24.1028 13.3498 23.8067 12.926C22.3741 10.8757 19.7838 9.72581 17.2233 10.0034ZM19.1499 11.1932C21.8 11.7261 23.7018 13.8549 23.8286 16.4305C23.8896 17.6704 23.4999 19.0426 22.5949 20.7738C21.8827 22.1363 21.0957 23.3147 19.0137 26.1361C18.4678 26.8759 18.0125 27.4814 18.0017 27.4819C17.991 27.4823 17.8828 27.3447 17.7612 27.1761C17.6396 27.0074 17.1607 26.3577 16.6969 25.7323C15.7788 24.4944 14.8654 23.2009 14.4327 22.5261C12.816 20.0045 12.0948 18.0575 12.1749 16.4305C12.2753 14.3914 13.4771 12.6179 15.394 11.6799C15.9775 11.3944 16.603 11.2101 17.3012 11.1181C17.7138 11.0637 18.7063 11.104 19.1499 11.1932ZM17.3012 13.387C15.9829 13.664 14.9628 14.5915 14.61 15.834C14.5413 16.0761 14.5254 16.2339 14.5254 16.6728C14.5254 17.1117 14.5413 17.2695 14.61 17.5117C14.9531 18.7203 15.9332 19.6364 17.2105 19.9425C17.612 20.0387 18.4671 20.0279 18.8775 19.9214C20.1104 19.6015 21.0577 18.6942 21.3935 17.5117C21.4622 17.2695 21.4781 17.1117 21.4781 16.6728C21.4781 16.2339 21.4622 16.0761 21.3935 15.834C21.057 14.649 20.0989 13.7325 18.8775 13.4272C18.4259 13.3144 17.7314 13.2967 17.3012 13.387ZM18.5624 14.5095C19.002 14.6173 19.3006 14.7828 19.6378 15.1057C19.9749 15.4286 20.1477 15.7147 20.2601 16.1358C20.4009 16.663 20.3272 17.2372 20.0558 17.7284C19.8872 18.0334 19.4158 18.4858 19.1038 18.642C18.5863 18.9009 17.9899 18.9705 17.4411 18.8361C17.0079 18.73 16.704 18.5612 16.3654 18.2387C16.028 17.9174 15.8566 17.6337 15.7434 17.2098C15.603 16.6842 15.6757 16.1129 15.946 15.6172C16.1092 15.3181 16.5813 14.8667 16.9004 14.705C17.4131 14.445 18.0116 14.3746 18.5624 14.5095Z" fill="#2E3E5C"/>
</svg>
