<svg width="37" height="37" viewBox="0 0 37 37" fill="none" xmlns="http://www.w3.org/2000/svg">
<circle cx="18.5" cy="18.5" r="18" stroke="#2E3E5C"/>
<path d="M26.75 26C26.75 26 28 26 28 24.75C28 23.5 26.75 19.75 21.75 19.75C16.75 19.75 15.5 23.5 15.5 24.75C15.5 26 16.75 26 16.75 26H26.75ZM16.7775 24.75C16.7683 24.7487 16.7591 24.7471 16.75 24.745C16.7513 24.415 16.9588 23.4575 17.7 22.595C18.39 21.7863 19.6025 21 21.75 21C23.8962 21 25.1087 21.7875 25.8 22.595C26.5413 23.4575 26.7475 24.4163 26.75 24.745L26.74 24.7475C26.7342 24.7485 26.7284 24.7493 26.7225 24.75H16.7775ZM21.75 17.25C22.413 17.25 23.0489 16.9866 23.5178 16.5178C23.9866 16.0489 24.25 15.413 24.25 14.75C24.25 14.087 23.9866 13.4511 23.5178 12.9822C23.0489 12.5134 22.413 12.25 21.75 12.25C21.087 12.25 20.4511 12.5134 19.9822 12.9822C19.5134 13.4511 19.25 14.087 19.25 14.75C19.25 15.413 19.5134 16.0489 19.9822 16.5178C20.4511 16.9866 21.087 17.25 21.75 17.25ZM25.5 14.75C25.5 15.2425 25.403 15.7301 25.2145 16.1851C25.0261 16.64 24.7499 17.0534 24.4017 17.4017C24.0534 17.7499 23.64 18.0261 23.1851 18.2145C22.7301 18.403 22.2425 18.5 21.75 18.5C21.2575 18.5 20.7699 18.403 20.3149 18.2145C19.86 18.0261 19.4466 17.7499 19.0983 17.4017C18.7501 17.0534 18.4739 16.64 18.2855 16.1851C18.097 15.7301 18 15.2425 18 14.75C18 13.7554 18.3951 12.8016 19.0983 12.0983C19.8016 11.3951 20.7554 11 21.75 11C22.7446 11 23.6984 11.3951 24.4017 12.0983C25.1049 12.8016 25.5 13.7554 25.5 14.75ZM16.67 20.1C16.17 19.9425 15.6545 19.839 15.1325 19.7913C14.8392 19.7634 14.5447 19.7496 14.25 19.75C9.25 19.75 8 23.5 8 24.75C8 25.5837 8.41625 26 9.25 26H14.52C14.3347 25.6098 14.2423 25.1819 14.25 24.75C14.25 23.4875 14.7213 22.1975 15.6125 21.12C15.9163 20.7525 16.27 20.4087 16.67 20.1ZM14.15 21C13.4102 22.1116 13.0106 23.4148 13 24.75H9.25C9.25 24.425 9.455 23.4625 10.2 22.595C10.8812 21.8 12.065 21.025 14.15 21.0013V21ZM9.875 15.375C9.875 14.3804 10.2701 13.4266 10.9733 12.7233C11.6766 12.0201 12.6304 11.625 13.625 11.625C14.6196 11.625 15.5734 12.0201 16.2767 12.7233C16.9799 13.4266 17.375 14.3804 17.375 15.375C17.375 16.3696 16.9799 17.3234 16.2767 18.0267C15.5734 18.7299 14.6196 19.125 13.625 19.125C12.6304 19.125 11.6766 18.7299 10.9733 18.0267C10.2701 17.3234 9.875 16.3696 9.875 15.375ZM13.625 12.875C12.962 12.875 12.3261 13.1384 11.8572 13.6072C11.3884 14.0761 11.125 14.712 11.125 15.375C11.125 16.038 11.3884 16.6739 11.8572 17.1428C12.3261 17.6116 12.962 17.875 13.625 17.875C14.288 17.875 14.9239 17.6116 15.3928 17.1428C15.8616 16.6739 16.125 16.038 16.125 15.375C16.125 14.712 15.8616 14.0761 15.3928 13.6072C14.9239 13.1384 14.288 12.875 13.625 12.875Z" fill="#2E3E5C"/>
</svg>
