<svg width="134" height="144" viewBox="0 0 134 144" fill="none" xmlns="http://www.w3.org/2000/svg">
<path d="M63.7782 74.1657C66.3376 76.5208 72.0363 81.7644 63.7743 74.162C62.1158 72.6359 62.6279 73.1073 63.7721 74.1601C58.4089 69.2255 52.4969 65.4745 47.1251 63.598C41.0726 61.484 36.2255 61.964 33.4784 64.9498C30.7307 67.9355 30.655 72.8052 33.2644 78.6616C35.5803 83.8596 39.8103 89.4408 45.1743 94.3765C50.5383 99.3119 56.4508 103.064 61.8235 104.94C62.1649 105.06 62.5016 105.169 62.8349 105.272L6.18913 136.676L28.2071 87.4318C28.7662 86.1812 28.2057 84.7135 26.9551 84.1544C25.7034 83.5956 24.2368 84.1555 23.6777 85.4064L0.287814 137.718C-1.08518 140.768 2.74407 144.26 5.64709 142.649L72.5454 105.561C73.7357 104.987 74.5943 104.457 75.4702 103.588C81.0298 98.0758 75.7449 85.1787 63.7782 74.1657ZM71.8187 100.23C70.1389 102.386 65.6002 101.005 63.4594 100.257C58.7115 98.598 53.4109 95.2133 48.5336 90.7255C43.6566 86.2382 39.8432 81.2363 37.796 76.6429C36.0936 72.8214 35.8441 69.7064 37.1291 68.3099C37.7759 67.6069 38.8885 67.2554 40.3383 67.2554C41.7686 67.2554 43.5275 67.5977 45.4883 68.2828C50.2363 69.9413 55.5369 73.326 60.4142 77.8139C71.1607 87.702 74.0698 97.3393 71.8187 100.23Z" fill="#675DFE"/>
<path d="M54.357 58.833C53.3168 57.9411 54.8248 59.2342 54.357 58.833V58.833Z" fill="#675DFE"/>
<path d="M67.0222 8.89374C68.1318 8.08961 68.3793 6.53863 67.5752 5.42884C66.7708 4.31932 65.2203 4.07232 64.1103 4.87589C58.0033 9.30195 54.9589 13.8697 55.0617 18.453C55.1358 21.7741 56.7549 23.8031 58.321 25.7654C59.6716 27.4577 61.0681 29.2076 61.7521 32.2073C62.7996 36.8008 61.4431 40.8804 60.2464 44.4797C58.9228 48.4612 56.851 52.1133 54.0886 55.3351C53.1964 56.3756 53.3166 57.9417 54.3568 58.8335C55.3828 59.7137 56.9748 59.591 57.8547 58.565C61.0382 54.8523 63.4268 50.6403 64.9546 46.0452C66.2164 42.2492 67.9451 37.0503 66.5894 31.1042C65.6529 27.0001 63.7378 24.5997 62.1989 22.6709C60.7926 20.9085 60.0569 19.916 60.022 18.3427C59.9427 14.783 63.785 11.2396 67.0222 8.89374Z" fill="#675DFE"/>
<path d="M89.2944 19.7548C89.2927 19.7548 89.2913 19.7548 89.2902 19.7548C87.9217 19.7548 86.8116 20.8629 86.8094 22.2315C86.8024 26.3356 85.9904 30.2909 84.3956 33.9869C81.333 41.0852 76.2124 45.3564 72.4555 47.69C71.2918 48.4131 70.9347 49.9429 71.6575 51.1069C72.1275 51.863 72.938 52.2787 73.7673 52.2787C74.2141 52.2787 74.6667 52.158 75.0741 51.9049C79.4334 49.1969 85.3794 44.231 88.9516 35.9528C90.8147 31.6346 91.7632 27.0207 91.7708 22.2396C91.7733 20.8696 90.6643 19.757 89.2944 19.7548Z" fill="#675DFE"/>
<path d="M123.995 32.6306C122.798 31.962 121.287 32.3895 120.618 33.5845C117.233 39.637 112.926 43.8599 107.818 46.1362C104.194 47.7518 101.188 47.9563 98.0059 48.1723C94.5798 48.4056 91.0367 48.6461 87.0809 50.7467C80.8082 54.0764 76.2291 60.7505 73.4702 70.5839C73.1187 71.8374 73.8295 73.1869 75.0625 73.604C76.3919 74.0536 77.8683 73.276 78.2472 71.9248C80.6249 63.4485 84.3799 57.7978 89.4069 55.1292C92.4281 53.5248 95.1688 53.3388 98.342 53.1231C101.654 52.8979 105.408 52.6428 109.838 50.6688C115.945 47.9468 121.029 43.0142 124.948 36.0075C125.617 34.8114 125.19 33.2995 123.995 32.6306Z" fill="#675DFE"/>
<path d="M125.24 78.8437C124.518 77.6786 122.988 77.3207 121.825 78.043C117.876 80.492 114.267 81.3835 111.102 80.6929C109.12 80.2598 107.919 79.352 106.399 78.2022C105.198 77.2944 103.838 76.266 101.986 75.4423C96.3988 72.9575 89.3033 73.7298 80.8962 77.7373C79.6596 78.3271 79.1349 79.8077 79.7244 81.0443C80.3139 82.2807 81.7937 82.8052 83.0315 82.2162C90.0694 78.8605 95.7687 78.1072 99.9698 79.9753C101.3 80.5668 102.322 81.3405 103.405 82.1595C105.088 83.4324 106.996 84.8753 110.044 85.5403C111.094 85.7694 112.165 85.8842 113.255 85.8842C116.803 85.8842 120.551 84.6713 124.44 82.2592C125.604 81.5372 125.962 80.0077 125.24 78.8437Z" fill="#675DFE"/>
<path d="M131.053 55.1949C130.855 53.8431 129.604 52.909 128.251 53.0985C128.548 53.0552 128.696 53.0334 128.239 53.0996C126.55 53.3466 127.61 53.1921 128.206 53.1052C125.605 53.4891 123.099 54.2684 120.756 55.422C117.499 57.0272 114.556 59.3893 112.246 62.2535C111.461 63.228 111.538 64.6829 112.425 65.5669C113.455 66.5924 115.197 66.4993 116.109 65.3683C117.969 63.0615 120.334 61.161 122.95 59.8727C124.837 58.9428 126.857 58.3161 128.957 58.0088C130.313 57.8101 131.251 56.5505 131.053 55.1949Z" fill="#675DFE"/>
<path d="M99.3211 62.363C97.786 62.363 96.5374 63.612 96.5374 65.1467C96.5374 66.6818 97.786 67.9305 99.3211 67.9305C100.856 67.9305 102.105 66.6818 102.105 65.1467C102.105 63.6117 100.856 62.363 99.3211 62.363Z" fill="#675DFE"/>
<path d="M105.166 26.5153C103.631 26.5153 102.382 27.764 102.382 29.299C102.382 30.8338 103.631 32.0824 105.166 32.0824C106.701 32.0824 107.95 30.8338 107.95 29.299C107.95 27.764 106.701 26.5153 105.166 26.5153Z" fill="#675DFE"/>
<path d="M84.1463 0C82.6112 0 81.3625 1.24866 81.3625 2.78372C81.3625 4.31849 82.6112 5.56715 84.1463 5.56715C85.6813 5.56715 86.93 4.31849 86.93 2.78372C86.93 1.24866 85.6813 0 84.1463 0Z" fill="#675DFE"/>
<path d="M130.199 17.619C128.664 17.619 127.415 18.8677 127.415 20.4025C127.415 21.9372 128.664 23.1862 130.199 23.1862C131.734 23.1862 132.983 21.9375 132.983 20.4025C132.983 18.8677 131.734 17.619 130.199 17.619Z" fill="#675DFE"/>
<path d="M113.104 5.2366C111.569 5.2366 110.32 6.48527 110.32 8.02032C110.32 9.55537 111.569 10.804 113.104 10.804C114.639 10.804 115.887 9.55537 115.887 8.02032C115.887 6.48527 114.639 5.2366 113.104 5.2366Z" fill="#675DFE"/>
<path d="M73.7649 15.0004C72.2299 15.0004 70.9812 16.2491 70.9812 17.7842C70.9812 19.3187 72.2299 20.5676 73.7649 20.5676C75.3 20.5676 76.5486 19.3189 76.5486 17.7842C76.5489 16.2491 75.3003 15.0004 73.7649 15.0004Z" fill="#675DFE"/>
<path d="M131.216 67.5013C129.681 67.5013 128.433 68.7499 128.433 70.2847C128.433 71.8198 129.681 73.0684 131.216 73.0684C132.751 73.0684 134 71.8198 134 70.2847C134 68.7505 132.752 67.5013 131.216 67.5013Z" fill="#675DFE"/>
<path d="M49.5774 36.6253C48.0424 36.6253 46.7937 37.874 46.7937 39.409C46.7937 40.9435 48.0424 42.1924 49.5774 42.1924C51.1122 42.1924 52.3609 40.9438 52.3609 39.409C52.3611 37.874 51.1122 36.6253 49.5774 36.6253Z" fill="#675DFE"/>
<path d="M40.0212 97.4242C35.7678 97.4242 32.3071 100.885 32.3071 105.138C32.3071 109.392 35.7678 112.852 40.0212 112.852C44.2746 112.852 47.7353 109.392 47.7353 105.138C47.7353 100.885 44.2749 97.4242 40.0212 97.4242ZM40.0212 107.891C38.5035 107.891 37.2688 106.655 37.2688 105.138C37.2688 103.621 38.5035 102.386 40.0212 102.386C41.539 102.386 42.7737 103.621 42.7737 105.138C42.7737 106.656 41.539 107.891 40.0212 107.891Z" fill="#675DFE"/>
<path d="M27.3513 114.318C26.6256 112.389 25.1923 110.859 23.3155 110.008C22.0666 109.442 20.5969 109.996 20.0319 111.244C19.4664 112.492 20.0197 113.962 21.2675 114.527C21.9369 114.831 22.4482 115.377 22.7073 116.065C22.9663 116.753 22.9417 117.501 22.6382 118.171C22.0121 119.553 20.3787 120.167 18.9954 119.541C17.7475 118.976 16.2767 119.529 15.7118 120.777C15.1463 122.025 15.6995 123.495 16.9473 124.06C17.9775 124.527 19.0565 124.748 20.1202 124.748C23.0568 124.748 25.8687 123.063 27.1576 120.219C28.0073 118.342 28.0766 116.246 27.3513 114.318Z" fill="#675DFE"/>
</svg>
