<svg width="132" height="95" viewBox="0 0 132 95" fill="none" xmlns="http://www.w3.org/2000/svg">
<path d="M63.0947 94.5145H61.8932C58.0293 93.8182 55.3456 91.6587 53.8419 88.0362C53.8252 87.9966 53.7945 87.9647 53.7559 87.9468C53.7172 87.929 53.6735 87.9266 53.6336 87.9401C48.6708 89.5773 43.9226 85.7583 42.4489 81.2248C42.4326 81.1736 42.4014 81.1284 42.3593 81.0948C42.3171 81.0612 42.2658 81.0406 42.2118 81.0357C42.0024 81.0186 41.7963 81.0486 41.5934 81.1255C41.493 81.1618 41.3884 81.1756 41.2794 81.1671C36.2269 80.6961 31.4627 76.3485 32.0811 70.9723C32.0874 70.9203 32.076 70.8675 32.0488 70.8223C32.0215 70.7771 31.9799 70.742 31.9305 70.7224C27.0286 68.8257 22.6521 63.4624 25.8015 58.285C25.8264 58.2435 25.8393 58.196 25.8387 58.1479C25.8382 58.0997 25.8242 58.0529 25.7983 58.0126C23.9657 55.221 22.1437 52.4293 20.3324 49.6377C19.3392 48.1094 18.1442 46.9945 16.8658 45.7386C16.8352 45.7084 16.7941 45.6912 16.7512 45.6906C16.7082 45.69 16.6666 45.706 16.6352 45.7354C15.8502 46.4754 15.0589 47.4206 14.2162 47.9588C10.3684 50.413 7.60342 48.7919 4.69749 45.9276C1.77235 43.0473 -1.41231 40.5002 0.667008 36.034C1.03012 35.2544 1.78089 34.2954 2.91934 33.1569C12.8962 23.1886 22.8689 13.217 32.8372 3.24224C34.0675 2.00982 35.0821 1.20991 35.8809 0.842536C39.9082 -1.01251 42.6923 1.59224 45.4413 4.45011C46.9087 5.97729 47.7662 6.93205 48.014 7.31438C49.8114 10.0825 48.9303 13.7766 46.4313 15.8015C46.4062 15.822 46.3857 15.8475 46.3712 15.8764C46.3567 15.9053 46.3484 15.937 46.3468 15.9693C46.3453 16.0016 46.3506 16.0339 46.3624 16.0641C46.3742 16.0942 46.3922 16.1215 46.4153 16.1443L48.6516 18.3486C48.7226 18.4197 48.8128 18.4687 48.9111 18.4895L61.2749 21.1135C61.3746 21.1342 61.4774 21.1206 61.5664 21.0751C64.5439 19.6248 67.5363 18.811 70.5437 18.6337C73.1196 18.482 77.3552 18.3838 83.2503 18.3389C83.3489 18.3389 83.4442 18.2998 83.5162 18.23L85.618 16.1603C85.634 16.1449 85.6467 16.1265 85.6553 16.106C85.664 16.0856 85.6685 16.0635 85.6685 16.0411C85.6685 16.0187 85.664 15.9965 85.6553 15.9757C85.6467 15.9549 85.634 15.936 85.618 15.92C82.5198 12.745 82.0841 9.3072 85.147 5.96234C87.9408 2.90904 91.3241 -1.34251 96.1011 0.848943C96.9192 1.22273 97.9946 2.07603 99.3274 3.40885C109.189 13.2789 119.056 23.1458 128.928 33.0095C130.141 34.2206 130.936 35.2266 131.312 36.0276C132.946 39.4942 131.353 41.9612 128.797 44.4922C125.721 47.5423 123.119 50.7206 118.448 48.3209C117.333 47.7474 116.359 46.6613 115.446 45.7257C115.43 45.7091 115.41 45.6959 115.389 45.687C115.367 45.6781 115.344 45.6737 115.321 45.674C115.297 45.6743 115.274 45.6793 115.253 45.6888C115.231 45.6982 115.212 45.7119 115.196 45.7289C110.698 50.4419 106.405 55.2733 102.115 60.1753C102.085 60.2097 102.068 60.2532 102.067 60.2982C102.066 60.3432 102.081 60.387 102.108 60.422C106.591 66.048 103.48 73.8526 96.4663 75.0477C96.4203 75.055 96.3779 75.0771 96.3456 75.1106C96.3132 75.1441 96.2926 75.1873 96.2869 75.2335C95.7006 80.0618 91.5388 83.5316 86.8066 83.7558C86.7581 83.7587 86.7113 83.7745 86.6713 83.8016C86.6312 83.8286 86.5994 83.866 86.5791 83.9096C84.7305 87.8985 79.2743 93.1432 74.5037 91.4195C73.2766 90.9774 72.12 89.8881 71.1332 88.9622C71.0729 88.9065 70.9932 88.8767 70.9111 88.8791C70.8291 88.8815 70.7513 88.9159 70.6943 88.975C68.5221 91.1952 66.3947 94.0627 63.0947 94.5145ZM43.8216 12.1247C44.0096 11.9366 44.1587 11.7134 44.2605 11.4677C44.3623 11.2221 44.4146 10.9588 44.4146 10.6929C44.4146 10.4269 44.3623 10.1636 44.2605 9.91797C44.1587 9.6723 44.0096 9.44909 43.8216 9.26106L39.9159 5.35537C39.7278 5.16734 39.5046 5.01818 39.259 4.91642C39.0133 4.81466 38.75 4.76229 38.4841 4.76229C38.2182 4.76229 37.9548 4.81466 37.7092 4.91642C37.4635 5.01818 37.2403 5.16734 37.0523 5.35537L5.15421 37.2534C4.96618 37.4414 4.81703 37.6647 4.71527 37.9103C4.61351 38.156 4.56113 38.4193 4.56113 38.6852C4.56113 38.9511 4.61351 39.2144 4.71527 39.4601C4.81703 39.7058 4.96618 39.929 5.15421 40.117L9.0599 44.0227C9.24793 44.2107 9.47115 44.3599 9.71682 44.4617C9.96249 44.5634 10.2258 44.6158 10.4917 44.6158C10.7576 44.6158 11.0209 44.5634 11.2666 44.4617C11.5123 44.3599 11.7355 44.2107 11.9235 44.0227L43.8216 12.1247ZM94.887 5.33403C94.7044 5.15136 94.4875 5.00645 94.2488 4.90759C94.0102 4.80873 93.7544 4.75785 93.496 4.75785C93.2377 4.75785 92.9819 4.80873 92.7432 4.90759C92.5046 5.00645 92.2877 5.15136 92.105 5.33403L88.1359 9.30316C87.9532 9.48583 87.8083 9.70269 87.7095 9.94136C87.6106 10.18 87.5597 10.4358 87.5597 10.6942C87.5597 10.9525 87.6106 11.2083 87.7095 11.447C87.8083 11.6857 87.9532 11.9025 88.1359 12.0852L120.088 44.0376C120.271 44.2203 120.488 44.3652 120.727 44.4641C120.965 44.5629 121.221 44.6138 121.479 44.6138C121.738 44.6138 121.994 44.5629 122.232 44.4641C122.471 44.3652 122.688 44.2203 122.87 44.0376L126.84 40.0685C127.022 39.8858 127.167 39.669 127.266 39.4303C127.365 39.1916 127.416 38.9358 127.416 38.6775C127.416 38.4192 127.365 38.1634 127.266 37.9247C127.167 37.686 127.022 37.4692 126.84 37.2865L94.887 5.33403ZM98.19 62.7159C91.8207 56.2121 85.932 50.4547 79.7741 44.3705C77.2526 41.8779 73.094 38.5138 69.323 40.135C68.0703 40.67 66.6894 42.0765 65.4816 43.0441C60.4515 47.0682 53.8258 47.2892 48.6195 43.4093C46.0404 41.4838 44.2078 37.9916 46.3416 35.0504C46.6107 34.6809 47.0261 34.3584 47.5879 34.0828C52.0156 31.9234 54.6268 29.0239 57.6545 25.0863C57.6732 25.0627 57.6855 25.0348 57.6903 25.0051C57.6951 24.9754 57.6922 24.945 57.6819 24.9167C57.6716 24.8885 57.6543 24.8633 57.6316 24.8436C57.6088 24.824 57.5814 24.8105 57.552 24.8044L46.9311 22.5809C46.6361 22.5182 46.3659 22.3725 46.1525 22.1612L43.3459 19.3642C43.298 19.3172 43.2336 19.2909 43.1665 19.2909C43.0994 19.2909 43.035 19.3172 42.9871 19.3642L20.0761 42.2784C20.053 42.3015 20.0346 42.3289 20.0221 42.359C20.0095 42.3892 20.003 42.4214 20.003 42.4539C20.003 42.4864 20.0095 42.5185 20.0221 42.5483C20.0346 42.5781 20.053 42.6051 20.0761 42.6276C21.3481 43.8931 22.62 45.0401 23.6292 46.5459C25.4063 49.1966 27.1727 51.8815 28.9285 54.6005C28.9391 54.6168 28.9531 54.6305 28.9697 54.6407C28.9862 54.6509 29.0048 54.6573 29.0241 54.6594C29.0434 54.6616 29.0629 54.6594 29.0813 54.6531C29.0997 54.6468 29.1164 54.6365 29.1303 54.6229C30.6682 53.1299 32.2007 51.6305 33.7279 50.1247C34.9603 48.9072 35.6588 48.2355 35.8232 48.1094C40.9558 44.1815 48.3184 49.4519 48.8855 55.174C48.8928 55.2494 48.9254 55.3199 48.9778 55.3741C49.0302 55.4283 49.0994 55.4628 49.1738 55.472C53.6208 55.9878 56.8535 59.669 57.6481 63.8757C57.6566 63.9239 57.6794 63.9685 57.7136 64.0039C57.7478 64.0393 57.7919 64.0638 57.8403 64.0744C62.4923 65.1253 65.3203 67.981 66.3242 72.6416C66.3345 72.69 66.3589 72.7343 66.3942 72.7691C66.4295 72.8038 66.4742 72.8274 66.5228 72.837C72.1681 73.9007 76.9291 79.7061 74.0231 85.4731C74.0021 85.5157 73.996 85.5642 74.0059 85.6107C74.0158 85.6572 74.041 85.699 74.0776 85.7294L75.6379 87.0526C76.0031 87.3623 76.409 87.4307 76.8554 87.2577C79.4014 86.2687 81.2586 84.5472 82.4269 82.093C82.4794 81.9836 82.4871 81.858 82.4481 81.743C82.4092 81.6281 82.3269 81.5329 82.2187 81.4779C82.1567 81.448 82.0585 81.3657 81.9239 81.2312C78.9998 78.352 76.1089 75.4407 73.251 72.4974C72.6465 71.8758 72.2791 71.3739 72.1489 70.9916C71.6362 69.4729 73.3311 67.7685 74.8305 68.2298C75.2812 68.3687 75.8504 68.7787 76.5382 69.4601C79.1312 72.0339 81.7135 74.6184 84.2852 77.2135C85.3275 78.2622 85.8508 78.7877 85.8551 78.7898C88.556 80.6737 93.4419 75.3392 91.2152 73.1414C87.8148 69.7837 84.4422 66.3972 81.0973 62.9819C79.2679 61.1172 80.8634 58.1344 83.2631 59.1244C83.6476 59.2824 84.1421 59.6712 84.7465 60.2906C87.8607 63.4817 91.0229 66.6247 94.2332 69.7196C95.6654 71.1005 97.7191 70.2611 98.7347 68.9379C100.26 66.9547 99.9329 64.4909 98.19 62.7159ZM81.7701 40.135C87.3865 45.7193 93.0126 51.2845 98.6546 56.8624C98.6691 56.8768 98.6863 56.888 98.7053 56.8955C98.7242 56.9029 98.7445 56.9065 98.7649 56.9059C98.7853 56.9053 98.8053 56.9006 98.8238 56.892C98.8423 56.8834 98.8588 56.8712 98.8725 56.856C103.198 52.031 107.436 47.2123 111.96 42.5667C111.982 42.5445 111.995 42.5146 111.995 42.4834C111.995 42.4522 111.982 42.4223 111.96 42.4001L88.9532 19.3866C88.9104 19.3449 88.8531 19.3216 88.7937 19.3216C88.7344 19.3216 88.6777 19.3449 88.636 19.3866L85.6949 22.2861C85.4493 22.5296 85.1534 22.6556 84.8074 22.6642C80.2365 22.7667 75.6753 22.8735 71.1236 22.9846C69.1692 23.0326 64.1584 23.9457 62.6333 25.9578C59.1123 30.6002 55.6969 35.1113 50.4586 37.6616C49.79 37.9862 49.7174 38.4123 50.2407 38.9399C52.6094 41.33 55.4107 42.1705 58.6445 41.4614C61.387 40.859 62.7391 39.5711 65.0362 37.5654C70.1945 33.0608 77.5218 35.9122 81.7701 40.135ZM41.2634 51.5953C40.0737 50.963 38.9406 51.1873 37.8641 52.2681C35.2326 54.9038 32.6055 57.5427 29.9825 60.1849C27.3137 62.8761 32.834 68.2298 35.4067 65.7628C37.2799 63.9665 40.0096 61.2347 43.5958 57.5673C45.6495 55.4687 43.1377 52.5885 41.2634 51.5953ZM52.3681 66.1889C55.0209 63.5041 49.4237 57.987 46.6716 60.7712C43.5339 63.9452 40.3962 67.1191 37.2586 70.2931C34.5289 73.0549 40.1196 78.3861 42.6219 75.9448C44.6467 73.9669 47.8955 70.715 52.3681 66.1889ZM61.7747 73.4778C61.7875 70.8057 58.9873 68.3163 56.3024 68.8321C56.1979 68.8531 56.1022 68.9031 56.0269 68.9763C53.2609 71.7231 50.4981 74.4795 47.7385 77.2455C46.4313 78.5559 46.2455 79.5972 47.2483 81.1575C48.2094 82.6473 50.9712 84.9861 52.6789 83.2817C55.5389 80.4259 58.4021 77.5617 61.2685 74.6888C61.6038 74.3535 61.7725 73.9498 61.7747 73.4778ZM70.4796 81.7983C70.0759 79.107 66.6414 75.6949 63.9565 78.3445C62.1389 80.1322 60.3383 81.9382 58.5548 83.7622C55.8635 86.5176 61.5664 91.7239 63.8989 89.3754C65.9216 87.3399 67.9528 85.3044 69.9926 83.2688C70.4027 82.8609 70.5651 82.3707 70.4796 81.7983Z" fill="#675DFE"/>
</svg>
