<?xml version="1.0" encoding="UTF-8"?>
<svg id="Capa_1" data-name="Capa 1" xmlns="http://www.w3.org/2000/svg" viewBox="0 0 25 25">
  <path d="M22.735,20.67H2.265c-1.17,0-2.193-.953-2.193-2.042V6.373c0-1.089,1.023-2.042,2.193-2.042H22.735c1.17,0,2.193,.953,2.193,2.042v12.254c0,1.089-1.024,2.042-2.193,2.042ZM2.265,5.692c-.439,0-.731,.272-.731,.681v12.254c0,.408,.292,.681,.731,.681H22.735c.439,0,.731-.272,.731-.681V6.373c0-.408-.292-.681-.731-.681H2.265Z"/>
  <path d="M24.197,7.462H.803v1.362H24.197v-1.362Z"/>
  <path d="M24.197,9.913H.803v1.362H24.197v-1.362Z"/>
  <path d="M7.676,14.406H3.874c-.439,0-.731-.272-.731-.681s.292-.681,.731-.681h3.802c.439,0,.731,.272,.731,.681s-.292,.681-.731,.681Z"/>
  <path d="M12.793,17.266H3.874c-.439,0-.731-.272-.731-.681s.292-.681,.731-.681H12.793c.439,0,.731,.272,.731,.681s-.439,.681-.731,.681Z"/>
</svg>