<svg width="28" height="19" viewBox="0 0 28 19" fill="none" xmlns="http://www.w3.org/2000/svg">
<path d="M4.63863 13.4727C4.63863 12.9483 4.71013 12.4863 4.85313 12.0867C4.99613 11.6833 5.18863 11.3295 5.43063 11.0252C5.67263 10.7208 5.94579 10.4513 6.25013 10.2167C6.55813 9.98199 6.87713 9.76932 7.20713 9.57866C7.46013 9.43199 7.69663 9.27799 7.91663 9.11666C8.13663 8.95532 8.31446 8.77382 8.45013 8.57216C8.58579 8.37049 8.65363 8.13582 8.65363 7.86816C8.65363 7.52716 8.53079 7.24482 8.28513 7.02116C8.04313 6.79382 7.71313 6.68016 7.29513 6.68016C6.86979 6.68016 6.53429 6.77732 6.28863 6.97166C6.04663 7.16232 5.86879 7.41716 5.75513 7.73616L4.75963 7.29066C4.92829 6.80666 5.23996 6.41066 5.69463 6.10266C6.15296 5.79466 6.69196 5.64066 7.31163 5.64066C7.83229 5.64066 8.27596 5.73599 8.64263 5.92666C9.01296 6.11732 9.29529 6.38132 9.48963 6.71866C9.68763 7.05232 9.78663 7.43732 9.78663 7.87366C9.78663 8.32466 9.69313 8.70416 9.50613 9.01216C9.32279 9.32016 9.07713 9.59149 8.76913 9.82616C8.46479 10.0572 8.12929 10.279 7.76263 10.4917C7.44363 10.6787 7.15763 10.8657 6.90463 11.0527C6.65529 11.2397 6.44629 11.4413 6.27763 11.6577C6.11263 11.874 5.99896 12.1197 5.93663 12.3947H9.85263V13.4727H4.63863ZM13.794 13.6047C13.387 13.6047 13.0221 13.5625 12.6995 13.4782C12.3805 13.3938 12.1073 13.2893 11.88 13.1647C11.6526 13.0363 11.473 12.9062 11.341 12.7742L11.9735 11.9107C12.1128 12.028 12.2668 12.1362 12.4355 12.2352C12.6041 12.3342 12.7966 12.4148 13.013 12.4772C13.233 12.5395 13.4896 12.5707 13.783 12.5707C14.1276 12.5707 14.4301 12.501 14.6905 12.3617C14.9545 12.2223 15.1616 12.0335 15.312 11.7952C15.4623 11.5532 15.5375 11.2782 15.5375 10.9702C15.5375 10.6768 15.4788 10.4183 15.3615 10.1947C15.2478 9.97099 15.0828 9.79682 14.8665 9.67216C14.6538 9.54382 14.4026 9.47966 14.113 9.47966C13.7683 9.47966 13.475 9.54016 13.233 9.66116C12.991 9.78216 12.7948 9.92699 12.6445 10.0957L11.594 9.67216L11.9845 5.77266H16.181V6.81766H12.9745L12.727 8.87466C12.9176 8.73532 13.1395 8.62532 13.3925 8.54466C13.6491 8.46399 13.9186 8.42366 14.201 8.42366C14.7143 8.42366 15.1561 8.53732 15.5265 8.76466C15.8968 8.98832 16.181 9.28899 16.379 9.66666C16.5806 10.0443 16.6815 10.4623 16.6815 10.9207C16.6815 11.4267 16.5605 11.8832 16.3185 12.2902C16.0801 12.6935 15.7446 13.0143 15.312 13.2527C14.8793 13.4873 14.3733 13.6047 13.794 13.6047ZM20.3905 12.2847V10.2277H18.3665V9.17166H20.3905V7.11466H21.496V9.17166H23.5365V10.2277H21.496V12.2847H20.3905Z" fill="black"/>
<path d="M25.1602 0.796875H2.83996C1.63339 0.796875 0.655273 1.7086 0.655273 2.83326V16.4384C0.655273 17.563 1.63339 18.4748 2.83996 18.4748H25.1602C26.3668 18.4748 27.3449 17.563 27.3449 16.4384V2.83326C27.3449 1.7086 26.3668 0.796875 25.1602 0.796875Z" stroke="black" stroke-linecap="round" stroke-linejoin="round"/>
</svg>
