<svg width="109" height="109" viewBox="0 0 109 109" fill="none" xmlns="http://www.w3.org/2000/svg">
<path d="M54.5 109C84.5172 109 109 84.611 109 54.5C109 24.389 84.5172 0 54.5 0C24.4828 0 0 24.4828 0 54.5C0 84.5172 24.4828 109 54.5 109ZM54.5 7.69191C80.296 7.69191 101.308 28.704 101.308 54.5C101.308 80.296 80.296 101.308 54.5 101.308C28.704 101.308 7.69191 80.296 7.69191 54.5C7.69191 28.704 28.704 7.69191 54.5 7.69191Z" fill="#6366F1"/>
<path d="M34.0504 74.3864C34.8008 75.1368 35.7389 75.5121 36.7707 75.5121C37.8025 75.5121 38.7406 75.1368 39.491 74.3864L54.4996 59.3778L69.5082 74.3864C70.2587 75.1368 71.1967 75.5121 72.2285 75.5121C73.2604 75.5121 74.1984 75.1368 74.9488 74.3864C76.4497 72.8855 76.4497 70.4466 74.9488 68.9458L59.9402 53.9372L74.9488 38.9286C76.4497 37.4277 76.4497 34.9888 74.9488 33.488C73.448 31.9871 71.0091 31.9871 69.5082 33.488L54.4996 48.4966L39.491 33.488C37.9901 31.9871 35.5512 31.9871 34.0504 33.488C32.5495 34.9888 32.5495 37.4277 34.0504 38.9286L49.059 53.9372L34.0504 68.9458C32.5495 70.4466 32.5495 72.8855 34.0504 74.3864Z" fill="#6366F1"/>
</svg>
