<svg width="31" height="31" viewBox="0 0 31 31" fill="none" xmlns="http://www.w3.org/2000/svg">
<g clip-path="url(#clip0_735_17539)">
<path d="M15.5 1.05127C34.4923 1.37713 34.4923 29.6288 15.5 29.9485C-3.49227 29.6227 -3.49227 1.37098 15.5 1.05127Z" stroke="black" stroke-width="1.23187" stroke-miterlimit="10"/>
<g clip-path="url(#clip1_735_17539)">
<path d="M6.75 22.75H23.25V9.25H6.75V22.75ZM7.5 22V12.25H22.5V22H7.5ZM22.5 10V11.5H7.5V10H22.5ZM13.0162 16.87C13.2594 16.6008 13.4193 16.2669 13.4765 15.9087C13.5337 15.5505 13.4858 15.1834 13.3385 14.8518C13.1913 14.5203 12.951 14.2386 12.6469 14.0409C12.3427 13.8432 11.9878 13.738 11.625 13.738C11.2622 13.738 10.9073 13.8432 10.6031 14.0409C10.299 14.2386 10.0587 14.5203 9.91145 14.8518C9.76419 15.1834 9.71626 15.5505 9.77346 15.9087C9.83067 16.2669 9.99056 16.6008 10.2337 16.87C9.87303 17.0008 9.56122 17.2393 9.34055 17.5532C9.11987 17.8672 9.00099 18.2413 9 18.625V20.5H14.25V18.625C14.249 18.2413 14.1301 17.8672 13.9095 17.5532C13.6888 17.2393 13.377 17.0008 13.0162 16.87ZM11.625 14.5C11.8475 14.5 12.065 14.566 12.25 14.6896C12.435 14.8132 12.5792 14.9889 12.6644 15.1945C12.7495 15.4 12.7718 15.6262 12.7284 15.8445C12.685 16.0627 12.5778 16.2632 12.4205 16.4205C12.2632 16.5778 12.0627 16.685 11.8445 16.7284C11.6262 16.7718 11.4 16.7495 11.1945 16.6644C10.9889 16.5792 10.8132 16.435 10.6896 16.25C10.566 16.065 10.5 15.8475 10.5 15.625C10.5004 15.3268 10.6191 15.0408 10.8299 14.8299C11.0408 14.6191 11.3268 14.5004 11.625 14.5ZM13.5 19.75H9.75V18.625C9.7504 18.3268 9.86905 18.0408 10.0799 17.8299C10.2908 17.6191 10.5768 17.5004 10.875 17.5H12.375C12.6732 17.5004 12.9592 17.6191 13.1701 17.8299C13.3809 18.0408 13.4996 18.3268 13.5 18.625V19.75ZM15.75 14.5H21V15.25H15.75V14.5ZM15.75 16.75H21V17.5H15.75V16.75ZM16.5 19H20.25V19.75H16.5V19Z" fill="black"/>
</g>
</g>
<defs>
<clipPath id="clip0_735_17539">
<rect width="31" height="31" fill="white"/>
</clipPath>
<clipPath id="clip1_735_17539">
<rect width="18" height="18" fill="white" transform="translate(6 7)"/>
</clipPath>
</defs>
</svg>
