<svg width="201" height="220" viewBox="0 0 201 220" fill="none" xmlns="http://www.w3.org/2000/svg">
<path d="M166.758 200.019C169.293 200.019 171.348 197.964 171.348 195.429C171.348 192.894 169.293 190.839 166.758 190.839C164.223 190.839 162.168 192.894 162.168 195.429C162.168 197.964 164.223 200.019 166.758 200.019Z" fill="#E2E2E2"/>
<path d="M161.112 220C164.23 220 166.757 217.472 166.757 214.355C166.757 211.237 164.23 208.709 161.112 208.709C157.994 208.709 155.466 211.237 155.466 214.355C155.466 217.472 157.994 220 161.112 220Z" fill="#E2E2E2"/>
<path d="M180.017 216.381C182.135 216.381 183.852 214.664 183.852 212.547C183.852 210.429 182.135 208.712 180.017 208.712C177.899 208.712 176.182 210.429 176.182 212.547C176.182 214.664 177.899 216.381 180.017 216.381Z" fill="#E2E2E2"/>
<path d="M166.758 200.019C169.293 200.019 171.348 197.964 171.348 195.429C171.348 192.894 169.293 190.839 166.758 190.839C164.223 190.839 162.168 192.894 162.168 195.429C162.168 197.964 164.223 200.019 166.758 200.019Z" fill="#E2E2E2"/>
<path d="M161.112 220C164.23 220 166.757 217.472 166.757 214.355C166.757 211.237 164.23 208.709 161.112 208.709C157.994 208.709 155.466 211.237 155.466 214.355C155.466 217.472 157.994 220 161.112 220Z" fill="#E2E2E2"/>
<path d="M180.017 216.381C182.135 216.381 183.852 214.664 183.852 212.547C183.852 210.429 182.135 208.712 180.017 208.712C177.899 208.712 176.182 210.429 176.182 212.547C176.182 214.664 177.899 216.381 180.017 216.381Z" fill="#E2E2E2"/>
<path d="M174.058 13.5541C173.853 13.5541 173.695 13.4984 173.584 13.3869C173.472 13.2661 173.417 13.1036 173.417 12.8992V10.6141H171.173C170.978 10.6141 170.825 10.563 170.713 10.4608C170.602 10.3493 170.546 10.1961 170.546 10.001C170.546 9.8059 170.602 9.65727 170.713 9.55509C170.825 9.44362 170.978 9.38789 171.173 9.38789H173.417V7.1724C173.417 6.96804 173.472 6.81012 173.584 6.69865C173.695 6.58718 173.858 6.53144 174.072 6.53144C174.276 6.53144 174.429 6.58718 174.531 6.69865C174.643 6.81012 174.699 6.96804 174.699 7.1724V9.38789H176.942C177.146 9.38789 177.3 9.44362 177.402 9.55509C177.513 9.65727 177.569 9.8059 177.569 10.001C177.569 10.1961 177.513 10.3493 177.402 10.4608C177.3 10.563 177.146 10.6141 176.942 10.6141H174.699V12.8992C174.699 13.1036 174.643 13.2661 174.531 13.3869C174.429 13.4984 174.271 13.5541 174.058 13.5541Z" fill="#727272"/>
<path d="M8.19426 7.71549C9.52646 6.1188 9.31206 3.74448 7.71537 2.41228C6.11869 1.08008 3.74435 1.29449 2.41216 2.89117C1.07996 4.48786 1.29438 6.86219 2.89106 8.19439C4.48774 9.52659 6.86207 9.31217 8.19426 7.71549Z" fill="#E2E2E2"/>
<path d="M17.8121 21.7699C19.4507 19.8061 19.1869 16.8857 17.2231 15.2472C15.2592 13.6086 12.3389 13.8724 10.7004 15.8362C9.06182 17.8001 9.32554 20.7204 11.2894 22.3589C13.2532 23.9975 16.1736 23.7338 17.8121 21.7699Z" fill="#E2E2E2"/>
<path d="M25.4665 7.96132C26.5795 6.62738 26.4004 4.64376 25.0664 3.53079C23.7325 2.41781 21.7489 2.59694 20.6359 3.93088C19.5229 5.26482 19.702 7.24844 21.036 8.36141C22.3699 9.47439 24.3535 9.29526 25.4665 7.96132Z" fill="#E2E2E2"/>
<path d="M24.0511 43.3913C23.5165 43.3913 23.1035 43.2455 22.8119 42.9539C22.5203 42.6381 22.3745 42.2128 22.3745 41.6783V35.701H16.5065C15.9963 35.701 15.5954 35.5673 15.3038 35.3C15.0122 35.0085 14.8664 34.6075 14.8664 34.0973C14.8664 33.587 15.0122 33.1982 15.3038 32.931C15.5954 32.6394 15.9963 32.4936 16.5065 32.4936H22.3745V26.6985C22.3745 26.1639 22.5203 25.7509 22.8119 25.4593C23.1035 25.1677 23.5287 25.0219 24.0875 25.0219C24.6221 25.0219 25.023 25.1677 25.2903 25.4593C25.5819 25.7509 25.7277 26.1639 25.7277 26.6985V32.4936H31.5957C32.1302 32.4936 32.5311 32.6394 32.7984 32.931C33.09 33.1982 33.2358 33.587 33.2358 34.0973C33.2358 34.6075 33.09 35.0085 32.7984 35.3C32.5311 35.5673 32.1302 35.701 31.5957 35.701H25.7277V41.6783C25.7277 42.2128 25.5819 42.6381 25.2903 42.9539C25.023 43.2455 24.61 43.3913 24.0511 43.3913Z" fill="#727272"/>
<path d="M8.19426 7.71549C9.52646 6.1188 9.31206 3.74448 7.71537 2.41228C6.11869 1.08008 3.74435 1.29449 2.41216 2.89117C1.07996 4.48786 1.29438 6.86219 2.89106 8.19439C4.48774 9.52659 6.86207 9.31217 8.19426 7.71549Z" fill="#E2E2E2"/>
<path d="M17.8121 21.7699C19.4507 19.8061 19.1869 16.8857 17.2231 15.2472C15.2592 13.6086 12.3389 13.8724 10.7004 15.8362C9.06182 17.8001 9.32554 20.7204 11.2894 22.3589C13.2532 23.9975 16.1736 23.7338 17.8121 21.7699Z" fill="#E2E2E2"/>
<path d="M25.4665 7.96132C26.5795 6.62738 26.4004 4.64376 25.0664 3.53079C23.7325 2.41781 21.7489 2.59694 20.6359 3.93088C19.5229 5.26482 19.702 7.24844 21.036 8.36141C22.3699 9.47439 24.3535 9.29526 25.4665 7.96132Z" fill="#E2E2E2"/>
<path d="M24.0511 43.3913C23.5165 43.3913 23.1035 43.2455 22.8119 42.9539C22.5203 42.6381 22.3745 42.2128 22.3745 41.6783V35.701H16.5065C15.9963 35.701 15.5954 35.5673 15.3038 35.3C15.0122 35.0085 14.8664 34.6075 14.8664 34.0973C14.8664 33.587 15.0122 33.1982 15.3038 32.931C15.5954 32.6394 15.9963 32.4936 16.5065 32.4936H22.3745V26.6985C22.3745 26.1639 22.5203 25.7509 22.8119 25.4593C23.1035 25.1677 23.5287 25.0219 24.0875 25.0219C24.6221 25.0219 25.023 25.1677 25.2903 25.4593C25.5819 25.7509 25.7277 26.1639 25.7277 26.6985V32.4936H31.5957C32.1302 32.4936 32.5311 32.6394 32.7984 32.931C33.09 33.1982 33.2358 33.587 33.2358 34.0973C33.2358 34.6075 33.09 35.0085 32.7984 35.3C32.5311 35.5673 32.1302 35.701 31.5957 35.701H25.7277V41.6783C25.7277 42.2128 25.5819 42.6381 25.2903 42.9539C25.023 43.2455 24.61 43.3913 24.0511 43.3913Z" fill="#727272"/>
<path d="M165.23 110.041C165.23 92.8572 158.404 76.3769 146.253 64.2259C134.102 52.0749 117.622 45.2485 100.438 45.2485C83.2535 45.2485 66.7732 52.0749 54.6223 64.2259C42.4713 76.3769 35.6449 92.8572 35.6449 110.041C35.6449 127.225 42.4713 143.706 54.6223 155.857C66.7732 168.008 83.2535 174.834 100.438 174.834C108.946 174.834 117.372 173.158 125.233 169.902C133.094 166.646 140.236 161.873 146.253 155.857C152.27 149.84 157.042 142.697 160.298 134.836C163.554 126.975 165.23 118.55 165.23 110.041Z" stroke="#ECECEC" stroke-width="0.784701"/>
<path d="M98.9704 156.559C99.7237 157.105 100.344 157.261 100.83 157.026C104.986 155.032 109.642 152.261 114.798 148.712C128.962 138.962 147.398 122.962 147.594 104.086C147.704 93.5001 143.043 82.7104 133.901 76.7977C122.735 69.5745 109.47 73.1292 103.482 84.9586C101.623 88.6388 100.641 92.3204 100.536 96.0033C100.51 96.9449 100.461 96.9462 100.391 96.0072C99.5629 85.092 93.6737 76.2013 82.7859 73.2822" stroke="#F0B2A4" stroke-width="0.784701"/>
<path d="M82.786 73.2821C62.2896 70.6063 50.3975 92.4445 53.9325 109.967C55.0272 115.389 58.0404 121.439 61.3087 125.837C70.9762 138.848 84.787 148.888 98.9704 156.558" stroke="#E7A99E" stroke-width="0.784701"/>
<path d="M82.7861 73.2822C82.8567 73.5595 82.811 73.736 82.6488 73.8119C76.7008 76.5387 73.0048 83.1341 71.2353 89.1371C68.8106 97.3725 68.4889 106.118 70.4624 114.459C74.3074 130.711 86.38 145.855 99.2491 156.229C99.2714 156.246 99.2885 156.269 99.2985 156.295C99.3084 156.321 99.3109 156.349 99.3056 156.376C99.3003 156.404 99.2874 156.429 99.2684 156.45C99.2494 156.47 99.2251 156.485 99.1981 156.492L98.9706 156.559" stroke="#F1755C" stroke-width="0.784701"/>
<path d="M99.1901 9.60742H101.74C156.175 10.6942 199.848 53.7782 200.883 108.699V111.446C199.722 166.43 156.222 209.49 101.399 210.491H99.3392C44.4298 209.502 0.847477 165.963 0 111.006V109.045C0.835706 54.1784 44.4258 10.6472 99.1901 9.60742ZM165.231 110.041C165.231 92.8572 158.404 76.3769 146.253 64.2259C134.102 52.0749 117.622 45.2485 100.438 45.2485C83.2537 45.2485 66.7734 52.0749 54.6224 64.2259C42.4714 76.3769 35.645 92.8572 35.645 110.041C35.645 127.225 42.4714 143.706 54.6224 155.857C66.7734 168.008 83.2537 174.834 100.438 174.834C108.946 174.834 117.372 173.158 125.233 169.902C133.094 166.646 140.237 161.873 146.253 155.857C152.27 149.84 157.042 142.697 160.298 134.836C163.555 126.975 165.231 118.55 165.231 110.041Z" fill="#F2F2F2"/>
<path d="M165.23 110.041C165.23 118.55 163.554 126.975 160.298 134.836C157.042 142.697 152.27 149.84 146.253 155.857C140.236 161.873 133.094 166.646 125.233 169.902C117.372 173.158 108.946 174.834 100.438 174.834C83.2535 174.834 66.7733 168.008 54.6223 155.857C42.4713 143.706 35.6449 127.225 35.6449 110.041C35.6449 92.8572 42.4713 76.3769 54.6223 64.2259C66.7733 52.0749 83.2535 45.2485 100.438 45.2485C117.622 45.2485 134.102 52.0749 146.253 64.2259C158.404 76.3769 165.23 92.8572 165.23 110.041ZM98.9702 156.558C99.7236 157.105 100.343 157.261 100.83 157.025C104.986 155.032 109.642 152.261 114.798 148.711C128.962 138.961 147.398 122.961 147.594 104.085C147.704 93.4998 143.043 82.7102 133.901 76.7974C122.735 69.5743 109.47 73.129 103.482 84.9583C101.623 88.6386 100.64 92.3201 100.536 96.003C100.51 96.9446 100.461 96.9459 100.391 96.0069C99.5627 85.0917 93.6735 76.2011 82.7858 73.282C62.2894 70.6061 50.3973 92.4444 53.9324 109.967C55.027 115.389 58.0403 121.439 61.3085 125.837C70.9761 138.848 84.7868 148.888 98.9702 156.558Z" fill="#E6E6E6"/>
<path d="M82.786 73.2821C82.8566 73.5594 82.8108 73.7359 82.6487 73.8118C76.7006 76.5386 73.0047 83.134 71.2352 89.137C68.8105 97.3724 68.4887 106.118 70.4623 114.459C74.3073 130.71 86.3799 145.855 99.249 156.229C99.2713 156.246 99.2884 156.268 99.2983 156.294C99.3083 156.321 99.3108 156.349 99.3055 156.376C99.3002 156.404 99.2873 156.429 99.2683 156.449C99.2493 156.47 99.2249 156.484 99.198 156.492L98.9704 156.558C84.787 148.888 70.9762 138.848 61.3087 125.837C58.0404 121.439 55.0272 115.389 53.9325 109.967C50.3975 92.4445 62.2896 70.6063 82.786 73.2821Z" fill="#675DFE"/>
<path d="M98.9706 156.559L99.1981 156.492C99.2251 156.485 99.2494 156.47 99.2684 156.45C99.2874 156.429 99.3003 156.404 99.3056 156.376C99.3109 156.349 99.3084 156.321 99.2985 156.295C99.2885 156.269 99.2714 156.246 99.2491 156.229C86.38 145.855 74.3074 130.711 70.4624 114.459C68.4889 106.118 68.8106 97.3726 71.2353 89.1371C73.0048 83.1342 76.7008 76.5387 82.6488 73.8119C82.811 73.7361 82.8567 73.5595 82.7861 73.2822C93.6738 76.2013 99.563 85.092 100.391 96.0072C100.461 96.9462 100.51 96.9449 100.536 96.0033C100.641 92.3204 101.623 88.6388 103.483 84.9586C109.47 73.1292 122.735 69.5745 133.902 76.7977C143.043 82.7104 147.704 93.5001 147.595 104.086C147.398 122.962 128.962 138.962 114.798 148.712C109.642 152.261 104.987 155.032 100.83 157.026C100.344 157.261 99.7239 157.105 98.9706 156.559Z" fill="#675DFE"/>
</svg>
