<svg width="22" height="22" viewBox="0 0 22 22" fill="none" xmlns="http://www.w3.org/2000/svg">
<path d="M1.89289 18.0928C1.50236 18.4833 1.50236 19.1165 1.89289 19.507C2.28341 19.8975 2.91658 19.8975 3.3071 19.507L1.89289 18.0928ZM7.39999 13.9999L8.1071 13.2928C7.71658 12.9023 7.08341 12.9023 6.69289 13.2928L7.39999 13.9999ZM9.79999 16.3999L9.09289 17.107C9.48341 17.4975 10.1166 17.4975 10.5071 17.107L9.79999 16.3999ZM15.2 10.9999L15.9071 10.2928C15.5166 9.90227 14.8834 9.90227 14.4929 10.2928L15.2 10.9999ZM19.2929 16.507C19.6834 16.8975 20.3166 16.8975 20.7071 16.507C21.0976 16.1165 21.0976 15.4833 20.7071 15.0928L19.2929 16.507ZM3.3071 19.507L8.1071 14.707L6.69289 13.2928L1.89289 18.0928L3.3071 19.507ZM6.69289 14.707L9.09289 17.107L10.5071 15.6928L8.1071 13.2928L6.69289 14.707ZM10.5071 17.107L15.9071 11.707L14.4929 10.2928L9.09289 15.6928L10.5071 17.107ZM14.4929 11.707L19.2929 16.507L20.7071 15.0928L15.9071 10.2928L14.4929 11.707ZM4.99999 2.3999H17V0.399902H4.99999V2.3999ZM19.6 4.9999V16.9999H21.6V4.9999H19.6ZM17 19.5999H4.99999V21.5999H17V19.5999ZM2.39999 16.9999V4.9999H0.399994V16.9999H2.39999ZM4.99999 19.5999C3.56405 19.5999 2.39999 18.4358 2.39999 16.9999H0.399994C0.399994 19.5404 2.45948 21.5999 4.99999 21.5999V19.5999ZM19.6 16.9999C19.6 18.4358 18.4359 19.5999 17 19.5999V21.5999C19.5405 21.5999 21.6 19.5404 21.6 16.9999H19.6ZM17 2.3999C18.4359 2.3999 19.6 3.56396 19.6 4.9999H21.6C21.6 2.45939 19.5405 0.399902 17 0.399902V2.3999ZM4.99999 0.399902C2.45948 0.399902 0.399994 2.45939 0.399994 4.9999H2.39999C2.39999 3.56396 3.56405 2.3999 4.99999 2.3999V0.399902ZM7.59999 6.7999C7.59999 7.24173 7.24182 7.5999 6.79999 7.5999V9.5999C8.34639 9.5999 9.59999 8.3463 9.59999 6.7999H7.59999ZM6.79999 7.5999C6.35817 7.5999 5.99999 7.24173 5.99999 6.7999H3.99999C3.99999 8.3463 5.2536 9.5999 6.79999 9.5999V7.5999ZM5.99999 6.7999C5.99999 6.35807 6.35817 5.9999 6.79999 5.9999V3.9999C5.2536 3.9999 3.99999 5.2535 3.99999 6.7999H5.99999ZM6.79999 5.9999C7.24182 5.9999 7.59999 6.35807 7.59999 6.7999H9.59999C9.59999 5.2535 8.34639 3.9999 6.79999 3.9999V5.9999Z" fill="#505050"/>
</svg>
