<svg width="19" height="19" viewBox="0 0 19 19" fill="none" xmlns="http://www.w3.org/2000/svg">
<path d="M17.616 4.28273L17.63 4.26573L13.63 1.02573L12.37 2.57973L14.437 4.25373C13.9248 4.56492 13.5179 5.02287 13.2691 5.56816C13.0204 6.11345 12.9412 6.72091 13.042 7.31173C13.191 8.21073 13.808 8.98773 14.607 9.42373C15.504 9.91373 16.292 9.86973 16.991 9.62073L16.976 15.8027C16.9772 15.9683 16.9371 16.1316 16.8593 16.2778C16.7816 16.424 16.6686 16.5485 16.5306 16.64C16.3926 16.7315 16.2339 16.7872 16.069 16.802C15.9041 16.8168 15.7381 16.7902 15.586 16.7247C15.4669 16.6738 15.3589 16.6001 15.268 16.5077C15.1756 16.4151 15.1023 16.3052 15.0523 16.1842C15.0024 16.0632 14.9768 15.9336 14.977 15.8027L15 13.8027C15.001 13.4091 14.924 13.0192 14.7735 12.6555C14.623 12.2918 14.4019 11.9615 14.123 11.6837C13.8444 11.4045 13.5135 11.183 13.1492 11.0318C12.7849 10.8807 12.3944 10.8028 12 10.8027H11V2.80273C11 1.69973 10.103 0.802734 9 0.802734H2C0.897 0.802734 0 1.69973 0 2.80273V16.8027C0 17.9057 0.897 18.8027 2 18.8027H9C10.103 18.8027 11 17.9057 11 16.8027V12.8027H12C12.136 12.8027 12.267 12.8297 12.391 12.8807C12.629 12.9849 12.8187 13.1754 12.922 13.4137C12.9739 13.5368 13.0004 13.6691 13 13.8027L12.976 15.8027C12.976 16.2087 13.055 16.6017 13.212 16.9707C13.363 17.3297 13.58 17.6507 13.853 17.9217C14.1306 18.2023 14.4613 18.4247 14.8258 18.5759C15.1903 18.7272 15.5813 18.8043 15.976 18.8027C16.382 18.8027 16.774 18.7247 17.144 18.5667C17.502 18.4167 17.824 18.1997 18.095 17.9257C18.375 17.6477 18.597 17.3169 18.7482 16.9525C18.8994 16.5881 18.9768 16.1973 18.976 15.8027L19 6.80273C18.999 6.30035 18.8717 5.80628 18.6299 5.36594C18.3881 4.9256 18.0394 4.55312 17.616 4.28273ZM2 2.80273H9L9.001 6.80273H2V2.80273ZM2 16.8027V8.80273H9.001L9.002 16.8027H2ZM16 7.80273C15.7348 7.80273 15.4804 7.69738 15.2929 7.50984C15.1054 7.3223 15 7.06795 15 6.80273C15 6.53752 15.1054 6.28316 15.2929 6.09563C15.4804 5.90809 15.7348 5.80273 16 5.80273C16.2652 5.80273 16.5196 5.90809 16.7071 6.09563C16.8946 6.28316 17 6.53752 17 6.80273C17 7.06795 16.8946 7.3223 16.7071 7.50984C16.5196 7.69738 16.2652 7.80273 16 7.80273Z" fill="black"/>
</svg>
