<svg width="24" height="9" viewBox="0 0 24 9" fill="none" xmlns="http://www.w3.org/2000/svg">
<path d="M24 1.95205L20.8674 8.78292H19.8984L21.0624 6.39251L18.9999 1.95131H20.0192L21.5116 5.3554H21.5311L22.9763 1.95131L24 1.95205ZM10.985 4.06432V6.83166H10.0003V0.000787539H12.6057C13.2267 -0.0145825 13.8281 0.195474 14.2931 0.591435C14.7544 0.961047 15.0078 1.48363 15.0003 2.03622C15.0078 2.59685 14.7461 3.13407 14.2931 3.48466C13.8401 3.8733 13.2777 4.06432 12.6057 4.06432H10.985ZM10.9813 0.84321V3.22556H12.6297C12.9927 3.23727 13.3482 3.10772 13.6024 2.87498C13.8566 2.65394 13.9969 2.3524 13.9969 2.03987C13.9969 1.72369 13.8559 1.42215 13.6024 1.20477C13.3407 0.961047 12.9889 0.8315 12.6297 0.842479L10.9813 0.84321ZM16.9728 1.95205C17.5975 1.95205 18.094 2.12331 18.457 2.46292C18.82 2.80252 18.9999 3.26728 18.9999 3.85793V6.68235H18.1877V6.04559H18.1525C17.8007 6.56817 17.3358 6.83092 16.7538 6.83092C16.2536 6.83092 15.8396 6.68235 15.5036 6.3808C15.1751 6.09902 14.9921 5.68696 14.9996 5.26026C14.9996 4.78745 15.1751 4.41051 15.5306 4.128C15.8823 3.84988 16.3548 3.70862 16.9443 3.70862C17.4483 3.70862 17.8622 3.80377 18.1862 3.9904V3.79206C18.19 3.50222 18.061 3.2241 17.8382 3.02941C17.6155 2.8274 17.3223 2.71323 17.0178 2.71689C16.5453 2.71689 16.1703 2.91889 15.8928 3.3229L15.1466 2.85009C15.5568 2.2514 16.1658 1.95058 16.9705 1.95058L16.9728 1.95205ZM15.8756 5.28002C15.8718 5.50105 15.9768 5.70672 16.1568 5.84066C16.3443 5.98923 16.579 6.06974 16.8168 6.06535C17.1723 6.06535 17.5158 5.92043 17.77 5.665C18.0392 5.42128 18.1922 5.07801 18.1922 4.71938C17.9267 4.50566 17.5592 4.39881 17.0868 4.39881C16.7388 4.39881 16.4538 4.48297 16.2236 4.65058C15.9933 4.82185 15.8756 5.02897 15.8756 5.28002ZM4.08303 0.000787539C5.09099 -0.0109229 6.06745 0.35137 6.81367 1.01887L5.64972 2.1321C5.22373 1.74711 4.66125 1.53706 4.08303 1.54877C3.04432 1.55243 2.12635 2.20089 1.79037 3.15749C1.61862 3.64128 1.61862 4.16752 1.79037 4.65204C2.12635 5.60864 3.04432 6.25711 4.08303 6.26077C4.63351 6.26077 5.10674 6.12756 5.47347 5.89116C5.89946 5.61669 6.19645 5.18999 6.28569 4.70181H4.08228V3.19994H7.92963C7.97688 3.4627 8.00012 3.72618 8.00012 3.9926C8.00012 5.18194 7.55464 6.18831 6.78517 6.86679C6.10945 7.46183 5.18398 7.80802 4.08228 7.80802C2.54709 7.81534 1.14089 6.98462 0.433671 5.65768C-0.144557 4.55616 -0.144557 3.25264 0.433671 2.15039C1.14089 0.823449 2.54709 -0.00726301 4.07778 5.60358e-05L4.08303 0.000787539Z" fill="black"/>
</svg>
