<svg width="44" height="26" viewBox="0 0 44 26" fill="none" xmlns="http://www.w3.org/2000/svg">
<path d="M1.06462 16.9935H29.9026V15.8153C29.9026 15.5303 29.8471 15.2654 29.7487 15.0282C29.6427 14.776 29.4863 14.5514 29.2921 14.3572C29.1735 14.2386 29.0398 14.1301 28.896 14.0343C28.7497 13.9359 28.5933 13.8501 28.4293 13.7769C27.9878 13.6811 27.5488 13.5903 27.1124 13.5045C26.6734 13.4187 26.2319 13.338 25.7879 13.2623C25.7677 13.2598 25.7526 13.2572 25.7324 13.2522C25.5079 13.2144 25.2935 13.179 25.0891 13.1462C24.8848 13.1134 24.6678 13.0806 24.4408 13.0453H24.4357C22.8918 12.8486 21.3529 12.6972 19.8165 12.5963C18.2776 12.4954 16.7463 12.4449 15.225 12.4424C14.3219 12.4424 13.4212 12.4575 12.5206 12.4928C11.625 12.5282 10.7244 12.5786 9.82373 12.6493H9.81868C8.97607 12.7275 8.13599 12.8258 7.29338 12.9394C6.45329 13.0529 5.61068 13.1866 4.76302 13.3355L4.66968 13.3582C4.65202 13.3632 4.63436 13.3657 4.61922 13.3657C4.60409 13.3682 4.58895 13.3682 4.57381 13.3682C4.17773 13.4389 3.77157 13.5171 3.35278 13.6003C2.94661 13.6811 2.54045 13.7668 2.1368 13.8551C2.03589 13.9106 1.94002 13.9737 1.8492 14.0393C1.75838 14.1074 1.67008 14.1806 1.59188 14.2588C1.42285 14.4278 1.28914 14.6221 1.19832 14.839C1.11255 15.0434 1.06462 15.2704 1.06462 15.5177V16.9935ZM3.58236 0H27.0417C27.347 0 27.6397 0.0605469 27.9071 0.171549C28.1846 0.287598 28.4343 0.456624 28.6437 0.663493C28.8531 0.872884 29.0221 1.12264 29.1357 1.40015C29.2467 1.66756 29.3072 1.9602 29.3072 2.26546V13.0352C29.4359 13.1109 29.562 13.1942 29.6781 13.285C29.8092 13.3859 29.9329 13.4919 30.0464 13.6054C30.339 13.898 30.5762 14.2386 30.7351 14.6221C30.8865 14.9828 30.9697 15.384 30.9697 15.8179V17.3542C30.9773 17.3795 30.9849 17.4047 30.9899 17.4299V17.435C30.995 17.4678 30.9975 17.498 30.9975 17.5283C30.9975 17.5611 30.995 17.5939 30.9874 17.6267C30.9823 17.6519 30.9748 17.6772 30.9672 17.7024V24.6804C30.9672 24.8267 30.9067 24.9605 30.8108 25.0563C30.7149 25.1522 30.5812 25.2127 30.4349 25.2127H29.3375C29.2139 25.2127 29.1003 25.1698 29.0095 25.0992C28.9187 25.0286 28.8506 24.9277 28.8228 24.8116C28.621 24.2314 28.4167 23.7722 28.1972 23.414C27.9802 23.0608 27.7481 22.8085 27.4807 22.6294C27.2108 22.4503 26.8879 22.3368 26.4968 22.2686C26.0982 22.198 25.634 22.1753 25.0815 22.1778L4.9598 22.203H4.94971C4.55363 22.1955 4.22819 22.2459 3.95573 22.3519C3.68579 22.4578 3.46631 22.6168 3.28467 22.8211C3.08032 23.0482 2.90877 23.3383 2.75236 23.6764C2.59342 24.022 2.44963 24.4155 2.30583 24.8469C2.27051 24.9579 2.19987 25.0462 2.11157 25.1093C2.02832 25.1698 1.92741 25.2052 1.82397 25.2102C1.81641 25.2127 1.80884 25.2127 1.80127 25.2127H0.532308C0.385986 25.2127 0.252279 25.1522 0.156413 25.0563C0.0605469 24.9605 0 24.8267 0 24.6804V15.5202C0 15.1241 0.0756836 14.7608 0.211914 14.4329C0.358236 14.0847 0.572672 13.7744 0.840088 13.507C0.915771 13.4313 0.999023 13.3556 1.08732 13.285C1.163 13.2244 1.23869 13.1664 1.31942 13.1134V2.24276C1.31942 1.9375 1.37996 1.64738 1.49097 1.38501C1.60702 1.11003 1.77604 0.862793 1.98543 0.655924C2.19482 0.449056 2.44458 0.285075 2.71956 0.171549C2.98698 0.0605469 3.2771 0 3.58236 0ZM27.0417 1.06462H3.58236C3.41838 1.06462 3.26196 1.09741 3.11816 1.15544C2.96932 1.21598 2.83814 1.30428 2.72713 1.41276C2.61865 1.51872 2.53035 1.6499 2.46981 1.79118C2.41431 1.92993 2.38403 2.0813 2.38403 2.24276V12.6013C2.45972 12.5761 2.5354 12.5559 2.61361 12.5357C2.73722 12.5029 2.86084 12.4752 2.98446 12.455C3.15601 12.4247 3.34269 12.3919 3.54452 12.3566C3.69588 12.3314 3.85734 12.3036 4.02384 12.2784V9.63452C4.02384 9.23592 4.10457 8.85498 4.24837 8.50684C4.39974 8.14356 4.61922 7.81812 4.89168 7.54565C5.16414 7.27319 5.48958 7.05371 5.85287 6.90234C6.20101 6.75855 6.58195 6.67782 6.98055 6.67782H11.9807C12.3793 6.67782 12.7603 6.75855 13.1084 6.90234C13.4717 7.05371 13.7971 7.27319 14.0696 7.54565C14.342 7.81812 14.5615 8.14356 14.7129 8.50684C14.8567 8.85498 14.9374 9.23592 14.9374 9.63452V11.3223C15.114 11.3197 15.2906 11.3197 15.4697 11.3197V9.63452C15.4697 9.23592 15.5505 8.85498 15.6943 8.50684C15.8456 8.14356 16.0651 7.81812 16.3376 7.54565C16.61 7.27319 16.9355 7.05371 17.2987 6.90234C17.6469 6.75855 18.0278 6.67782 18.4264 6.67782H23.4266C23.8252 6.67782 24.2061 6.75855 24.5543 6.90234C24.9176 7.05371 25.243 7.27319 25.5155 7.54565C25.7879 7.81812 26.0074 8.14356 26.1588 8.50684C26.3026 8.85498 26.3833 9.23592 26.3833 9.63452V12.2431C26.5725 12.2708 26.7743 12.3036 26.9913 12.3389C27.231 12.3768 27.4605 12.4146 27.6825 12.4525C27.7961 12.4727 27.9121 12.4954 28.0282 12.5231C28.1013 12.5408 28.172 12.5584 28.2401 12.5786V2.26546C28.2401 2.104 28.2073 1.95011 28.1493 1.80884C28.0887 1.66252 27.9979 1.53133 27.8869 1.41781C27.7759 1.3068 27.6422 1.21598 27.4984 1.15544C27.3571 1.09741 27.2032 1.06462 27.0417 1.06462ZM10.901 11.4938C11.408 11.456 11.9176 11.4232 12.4348 11.398C12.9116 11.3727 13.3935 11.3551 13.8753 11.3424V9.63452C13.8753 9.37972 13.8249 9.13501 13.7315 8.91301C13.6357 8.68091 13.4944 8.47404 13.3178 8.29745C13.1437 8.12337 12.9343 7.9821 12.7022 7.88371C12.4802 7.79036 12.2355 7.73991 11.9807 7.73991H6.98055C6.72575 7.73991 6.48104 7.79036 6.25903 7.88371C6.02694 7.97957 5.82007 8.12085 5.64347 8.29745C5.4694 8.47152 5.32812 8.68091 5.22974 8.91301C5.13639 9.13501 5.08594 9.37972 5.08594 9.63452V12.1094C5.49463 12.0488 5.90837 11.9933 6.33219 11.9378C6.78882 11.8798 7.24292 11.8268 7.69198 11.7764C7.86605 11.7562 8.05273 11.7335 8.24699 11.7133C8.42863 11.6931 8.61784 11.6755 8.81966 11.6553C9.16276 11.6225 9.50334 11.5922 9.83887 11.5645C10.1845 11.5417 10.5377 11.5165 10.901 11.4938ZM16.5343 11.3273C16.8396 11.3324 17.1449 11.3399 17.4501 11.35C17.7882 11.3601 18.1262 11.3752 18.4618 11.3904H18.4643C19.0168 11.4106 19.5566 11.4358 20.0814 11.4661C20.6061 11.4963 21.1182 11.5342 21.6077 11.5771C22.3191 11.6401 23.0078 11.7158 23.6612 11.8041C24.2465 11.8848 24.8015 11.9757 25.3212 12.0766V9.63452C25.3212 9.37972 25.2708 9.13501 25.1774 8.91301C25.0815 8.68091 24.9403 8.47404 24.7637 8.29745C24.5896 8.12337 24.3802 7.9821 24.1481 7.88371C23.9261 7.79036 23.6814 7.73991 23.4266 7.73991H18.429C18.1742 7.73991 17.9294 7.79036 17.7074 7.88371C17.4753 7.97957 17.2685 8.12085 17.0919 8.29745C16.9178 8.47152 16.7765 8.68091 16.6781 8.91301C16.5848 9.13501 16.5343 9.37972 16.5343 9.63452V11.3273ZM29.9051 18.0606H1.06462V24.1481H1.42537C1.56665 23.7495 1.71297 23.3787 1.87695 23.0482C2.05355 22.695 2.25285 22.3822 2.49504 22.1122C2.78263 21.7893 3.12069 21.5396 3.52686 21.373C3.93302 21.2091 4.40731 21.1258 4.97746 21.1384L25.0815 21.1132C25.7299 21.1132 26.2849 21.1435 26.7693 21.2368C27.2612 21.3302 27.6851 21.4891 28.066 21.7414C28.4192 21.976 28.7219 22.2863 28.9944 22.6925C29.2542 23.081 29.4863 23.5578 29.7083 24.1456H29.9001V18.0606H29.9051Z" fill="black"/>
<path d="M40.6776 9H34.5001C33.1216 9 32 10.1215 32 11.5001V14.6461V17.413V21.3362V24.6813C32 24.8573 32.1427 25 32.3187 25H33.6609C33.8369 25 33.9796 24.8573 33.9796 24.6813V21.655H41.1981V24.6813C41.1981 24.8573 41.3407 25 41.5168 25H42.8589C43.035 25 43.1777 24.8573 43.1777 24.6813V21.3362V17.413V14.6461V11.5001C43.1777 10.1215 42.0562 9 40.6776 9ZM32.6375 11.5001C32.6375 10.473 33.473 9.63747 34.5001 9.63747H40.6776C41.7047 9.63747 42.5402 10.473 42.5402 11.5001V14.3273H40.4107V14.0679C40.4107 13.2546 39.7491 12.5928 38.9357 12.5928H36.7057C35.8923 12.5928 35.2306 13.2546 35.2306 14.0679V14.3273H32.6375V11.5001ZM39.7733 14.0679V14.3273H35.8681V14.0679C35.8681 13.606 36.2438 13.2303 36.7057 13.2303H38.9358C39.3976 13.2303 39.7733 13.6061 39.7733 14.0679ZM32.6375 24.3626V21.655H33.3422V24.3626H32.6375ZM41.8356 24.3626V21.655H42.5403V24.3626H41.8356ZM42.5403 21.0175H32.6375V17.7317H42.5403V21.0175ZM42.5403 17.0943H32.6375V14.9648H42.5403V17.0943Z" fill="black"/>
<path d="M37.5379 19.9326H37.2583C37.0823 19.9326 36.9396 20.0753 36.9396 20.2513C36.9396 20.4273 37.0823 20.5701 37.2583 20.5701H37.5379C37.714 20.5701 37.8567 20.4273 37.8567 20.2513C37.8567 20.0753 37.714 19.9326 37.5379 19.9326Z" fill="black"/>
<path d="M41.7323 19.9326H38.8224C38.6463 19.9326 38.5037 20.0753 38.5037 20.2513C38.5037 20.4273 38.6463 20.5701 38.8224 20.5701H41.7323C41.9083 20.5701 42.051 20.4273 42.051 20.2513C42.051 20.0753 41.9083 19.9326 41.7323 19.9326Z" fill="black"/>
</svg>
