<svg width="31" height="29" viewBox="0 0 31 29" fill="none" xmlns="http://www.w3.org/2000/svg">
<path d="M1 14.4883H30.1836" stroke="#020202" stroke-width="1.34777" stroke-miterlimit="10" stroke-linecap="round" stroke-linejoin="round"/>
<path d="M2.10156 14.4883H29.0873V22.6803C29.0873 24.5391 27.5797 26.0527 25.7148 26.0527H4.7959C3.30645 26.0527 2.10156 24.8418 2.10156 23.3584V14.4883Z" stroke="#020202" stroke-width="1.34777" stroke-miterlimit="10" stroke-linecap="round" stroke-linejoin="round"/>
<path d="M7.03633 26.082H8.96172C9.26445 26.082 9.5127 26.3303 9.5127 26.633V26.8207C9.5127 27.1234 9.26445 27.3717 8.96172 27.3717H7.03633C6.73359 27.3717 6.48535 27.1234 6.48535 26.8207V26.633C6.49141 26.3242 6.73359 26.082 7.03633 26.082Z" stroke="#020202" stroke-width="1.34777" stroke-miterlimit="10" stroke-linecap="round" stroke-linejoin="round"/>
<path d="M22.4094 26.082H24.3348C24.6375 26.082 24.8857 26.3303 24.8857 26.633V26.8207C24.8857 27.1234 24.6375 27.3717 24.3348 27.3717H22.4094C22.1066 27.3717 21.8584 27.1234 21.8584 26.8207V26.633C21.8584 26.3242 22.1066 26.082 22.4094 26.082Z" stroke="#020202" stroke-width="1.34777" stroke-miterlimit="10" stroke-linecap="round" stroke-linejoin="round"/>
<path d="M2.10156 15.2803V4.6362C2.10156 3.81277 2.38613 3.00749 2.93711 2.39597C3.5123 1.76023 4.39023 1.2698 5.63145 1.86316" stroke="#020202" stroke-width="1.34777" stroke-miterlimit="10" stroke-linecap="round" stroke-linejoin="round"/>
<path d="M5.51072 6.55017C4.2574 5.2363 4.31189 3.15955 5.62576 1.90623C6.93962 0.652905 9.01638 0.707397 10.2697 2.02126" stroke="#020202" stroke-width="1.34777" stroke-miterlimit="10" stroke-linecap="round" stroke-linejoin="round"/>
<path d="M11.2812 1.09473L4.53027 7.5127" stroke="#020202" stroke-width="1.34777" stroke-miterlimit="10" stroke-linecap="round" stroke-linejoin="round"/>
</svg>
