<svg width="201" height="220" viewBox="0 0 201 220" fill="none" xmlns="http://www.w3.org/2000/svg">
<path d="M166.758 200.019C169.293 200.019 171.348 197.964 171.348 195.429C171.348 192.894 169.293 190.839 166.758 190.839C164.223 190.839 162.167 192.894 162.167 195.429C162.167 197.964 164.223 200.019 166.758 200.019Z" fill="#E2E2E2"/>
<path d="M161.112 220C164.23 220 166.757 217.472 166.757 214.355C166.757 211.237 164.23 208.709 161.112 208.709C157.994 208.709 155.466 211.237 155.466 214.355C155.466 217.472 157.994 220 161.112 220Z" fill="#E2E2E2"/>
<path d="M180.017 216.381C182.135 216.381 183.852 214.664 183.852 212.547C183.852 210.429 182.135 208.712 180.017 208.712C177.899 208.712 176.182 210.429 176.182 212.547C176.182 214.664 177.899 216.381 180.017 216.381Z" fill="#E2E2E2"/>
<path d="M166.758 200.019C169.293 200.019 171.348 197.964 171.348 195.429C171.348 192.894 169.293 190.839 166.758 190.839C164.223 190.839 162.167 192.894 162.167 195.429C162.167 197.964 164.223 200.019 166.758 200.019Z" fill="#E2E2E2"/>
<path d="M161.112 220C164.23 220 166.757 217.472 166.757 214.355C166.757 211.237 164.23 208.709 161.112 208.709C157.994 208.709 155.466 211.237 155.466 214.355C155.466 217.472 157.994 220 161.112 220Z" fill="#E2E2E2"/>
<path d="M180.017 216.381C182.135 216.381 183.852 214.664 183.852 212.547C183.852 210.429 182.135 208.712 180.017 208.712C177.899 208.712 176.182 210.429 176.182 212.547C176.182 214.664 177.899 216.381 180.017 216.381Z" fill="#E2E2E2"/>
<path d="M174.058 13.5541C173.853 13.5541 173.695 13.4984 173.584 13.3869C173.472 13.2661 173.417 13.1036 173.417 12.8992V10.6141H171.173C170.978 10.6141 170.825 10.563 170.713 10.4608C170.602 10.3493 170.546 10.1961 170.546 10.001C170.546 9.8059 170.602 9.65727 170.713 9.55509C170.825 9.44362 170.978 9.38789 171.173 9.38789H173.417V7.1724C173.417 6.96804 173.472 6.81012 173.584 6.69865C173.695 6.58718 173.858 6.53144 174.072 6.53144C174.276 6.53144 174.429 6.58718 174.531 6.69865C174.643 6.81012 174.699 6.96804 174.699 7.1724V9.38789H176.942C177.146 9.38789 177.3 9.44362 177.402 9.55509C177.513 9.65727 177.569 9.8059 177.569 10.001C177.569 10.1961 177.513 10.3493 177.402 10.4608C177.3 10.563 177.146 10.6141 176.942 10.6141H174.699V12.8992C174.699 13.1036 174.643 13.2661 174.531 13.3869C174.429 13.4984 174.271 13.5541 174.058 13.5541Z" fill="#727272"/>
<path d="M8.19426 7.71549C9.52646 6.1188 9.31206 3.74448 7.71537 2.41228C6.11869 1.08008 3.74435 1.29449 2.41216 2.89117C1.07996 4.48786 1.29438 6.86219 2.89106 8.19439C4.48774 9.52659 6.86207 9.31217 8.19426 7.71549Z" fill="#E2E2E2"/>
<path d="M17.812 21.7699C19.4505 19.8061 19.1868 16.8857 17.223 15.2472C15.2591 13.6086 12.3388 13.8724 10.7002 15.8362C9.0617 17.8001 9.32542 20.7204 11.2893 22.3589C13.2531 23.9975 16.1734 23.7338 17.812 21.7699Z" fill="#E2E2E2"/>
<path d="M25.4664 7.96132C26.5794 6.62738 26.4003 4.64376 25.0664 3.53079C23.7324 2.41781 21.7488 2.59694 20.6358 3.93088C19.5229 5.26482 19.702 7.24844 21.0359 8.36141C22.3699 9.47439 24.3535 9.29526 25.4664 7.96132Z" fill="#E2E2E2"/>
<path d="M24.0513 43.3913C23.5168 43.3913 23.1037 43.2455 22.8121 42.9539C22.5206 42.6381 22.3748 42.2128 22.3748 41.6783V35.701H16.5068C15.9965 35.701 15.5956 35.5673 15.304 35.3C15.0124 35.0085 14.8667 34.6075 14.8667 34.0973C14.8667 33.587 15.0124 33.1982 15.304 32.931C15.5956 32.6394 15.9965 32.4936 16.5068 32.4936H22.3748V26.6985C22.3748 26.1639 22.5206 25.7509 22.8121 25.4593C23.1037 25.1677 23.5289 25.0219 24.0878 25.0219C24.6223 25.0219 25.0233 25.1677 25.2905 25.4593C25.5821 25.7509 25.7279 26.1639 25.7279 26.6985V32.4936H31.5959C32.1305 32.4936 32.5314 32.6394 32.7987 32.931C33.0902 33.1982 33.236 33.587 33.236 34.0973C33.236 34.6075 33.0902 35.0085 32.7987 35.3C32.5314 35.5673 32.1305 35.701 31.5959 35.701H25.7279V41.6783C25.7279 42.2128 25.5821 42.6381 25.2905 42.9539C25.0233 43.2455 24.6102 43.3913 24.0513 43.3913Z" fill="#727272"/>
<path d="M8.19426 7.71549C9.52646 6.1188 9.31206 3.74448 7.71537 2.41228C6.11869 1.08008 3.74435 1.29449 2.41216 2.89117C1.07996 4.48786 1.29438 6.86219 2.89106 8.19439C4.48774 9.52659 6.86207 9.31217 8.19426 7.71549Z" fill="#E2E2E2"/>
<path d="M17.812 21.7699C19.4505 19.8061 19.1868 16.8857 17.223 15.2472C15.2591 13.6086 12.3388 13.8724 10.7002 15.8362C9.0617 17.8001 9.32542 20.7204 11.2893 22.3589C13.2531 23.9975 16.1734 23.7338 17.812 21.7699Z" fill="#E2E2E2"/>
<path d="M25.4664 7.96132C26.5794 6.62738 26.4003 4.64376 25.0664 3.53079C23.7324 2.41781 21.7488 2.59694 20.6358 3.93088C19.5229 5.26482 19.702 7.24844 21.0359 8.36141C22.3699 9.47439 24.3535 9.29526 25.4664 7.96132Z" fill="#E2E2E2"/>
<path d="M24.0513 43.3913C23.5168 43.3913 23.1037 43.2455 22.8121 42.9539C22.5206 42.6381 22.3748 42.2128 22.3748 41.6783V35.701H16.5068C15.9965 35.701 15.5956 35.5673 15.304 35.3C15.0124 35.0085 14.8667 34.6075 14.8667 34.0973C14.8667 33.587 15.0124 33.1982 15.304 32.931C15.5956 32.6394 15.9965 32.4936 16.5068 32.4936H22.3748V26.6985C22.3748 26.1639 22.5206 25.7509 22.8121 25.4593C23.1037 25.1677 23.5289 25.0219 24.0878 25.0219C24.6223 25.0219 25.0233 25.1677 25.2905 25.4593C25.5821 25.7509 25.7279 26.1639 25.7279 26.6985V32.4936H31.5959C32.1305 32.4936 32.5314 32.6394 32.7987 32.931C33.0902 33.1982 33.236 33.587 33.236 34.0973C33.236 34.6075 33.0902 35.0085 32.7987 35.3C32.5314 35.5673 32.1305 35.701 31.5959 35.701H25.7279V41.6783C25.7279 42.2128 25.5821 42.6381 25.2905 42.9539C25.0233 43.2455 24.6102 43.3913 24.0513 43.3913Z" fill="#727272"/>
<path d="M165.231 110.041C165.231 92.8572 158.404 76.3769 146.253 64.2259C134.102 52.0749 117.622 45.2485 100.438 45.2485C83.2537 45.2485 66.7734 52.0749 54.6224 64.2259C42.4714 76.3769 35.645 92.8572 35.645 110.041C35.645 127.225 42.4714 143.706 54.6224 155.857C66.7734 168.008 83.2537 174.834 100.438 174.834C108.946 174.834 117.372 173.158 125.233 169.902C133.094 166.646 140.237 161.873 146.253 155.857C152.27 149.84 157.042 142.697 160.298 134.836C163.555 126.975 165.231 118.55 165.231 110.041Z" stroke="#ECECEC" stroke-width="0.784701"/>
<path d="M98.9706 156.559C99.7239 157.105 100.344 157.261 100.83 157.026C104.987 155.032 109.643 152.261 114.798 148.712C128.962 138.962 147.398 122.962 147.595 104.086C147.704 93.5001 143.043 82.7104 133.902 76.7977C122.735 69.5745 109.47 73.1292 103.483 84.9586C101.623 88.6388 100.641 92.3204 100.536 96.0033C100.51 96.9449 100.462 96.9462 100.391 96.0072C99.563 85.092 93.6739 76.2013 82.7861 73.2822" stroke="#F0B2A4" stroke-width="0.784701"/>
<path d="M82.7861 73.2821C62.2897 70.6063 50.3976 92.4445 53.9327 109.967C55.0273 115.389 58.0406 121.439 61.3088 125.837C70.9764 138.848 84.7871 148.888 98.9706 156.558" stroke="#E7A99E" stroke-width="0.784701"/>
<path d="M82.7859 73.2822C82.8566 73.5595 82.8108 73.736 82.6486 73.8119C76.7006 76.5387 73.0046 83.1341 71.2351 89.1371C68.8104 97.3725 68.4887 106.118 70.4622 114.459C74.3072 130.711 86.3799 145.855 99.249 156.229C99.2712 156.246 99.2883 156.269 99.2983 156.295C99.3083 156.321 99.3107 156.349 99.3054 156.376C99.3001 156.404 99.2872 156.429 99.2682 156.45C99.2492 156.47 99.2249 156.485 99.198 156.492L98.9704 156.559" stroke="#F1755C" stroke-width="0.784701"/>
<path d="M99.1901 9.60742H101.74C156.175 10.6942 199.848 53.7782 200.883 108.699V111.446C199.722 166.43 156.222 209.49 101.399 210.491H99.3392C44.4298 209.502 0.847477 165.963 0 111.006V109.045C0.835706 54.1784 44.4258 10.6472 99.1901 9.60742ZM165.231 110.041C165.231 92.8572 158.404 76.3769 146.253 64.2259C134.102 52.0749 117.622 45.2485 100.438 45.2485C83.2537 45.2485 66.7734 52.0749 54.6224 64.2259C42.4714 76.3769 35.645 92.8572 35.645 110.041C35.645 127.225 42.4714 143.706 54.6224 155.857C66.7734 168.008 83.2537 174.834 100.438 174.834C108.946 174.834 117.372 173.158 125.233 169.902C133.094 166.646 140.237 161.873 146.253 155.857C152.27 149.84 157.042 142.697 160.298 134.836C163.555 126.975 165.231 118.55 165.231 110.041Z" fill="#F2F2F2"/>
<path d="M165.231 110.041C165.231 118.55 163.555 126.975 160.298 134.836C157.042 142.697 152.27 149.84 146.253 155.857C140.237 161.873 133.094 166.646 125.233 169.902C117.372 173.158 108.946 174.834 100.438 174.834C83.2537 174.834 66.7734 168.008 54.6224 155.857C42.4714 143.706 35.645 127.225 35.645 110.041C35.645 92.8572 42.4714 76.3769 54.6224 64.2259C66.7734 52.0749 83.2537 45.2485 100.438 45.2485C117.622 45.2485 134.102 52.0749 146.253 64.2259C158.404 76.3769 165.231 92.8572 165.231 110.041ZM98.9704 156.558C99.7237 157.105 100.344 157.261 100.83 157.025C104.986 155.032 109.642 152.261 114.798 148.711C128.962 138.961 147.398 122.961 147.594 104.085C147.704 93.4998 143.043 82.7102 133.901 76.7974C122.735 69.5743 109.47 73.129 103.482 84.9583C101.623 88.6386 100.64 92.3201 100.536 96.003C100.51 96.9446 100.461 96.9459 100.391 96.0069C99.5628 85.0917 93.6736 76.2011 82.7859 73.282C62.2895 70.6061 50.3974 92.4444 53.9325 109.967C55.0271 115.389 58.0404 121.439 61.3087 125.837C70.9762 138.848 84.7869 148.888 98.9704 156.558Z" fill="#E6E6E6"/>
<circle cx="100.795" cy="109.795" r="64.795" fill="#E6E6E6"/>
<path d="M106.661 132.35C104.373 135.863 102.182 139.426 100.087 143.038C100.082 143.047 100.074 143.055 100.065 143.06C100.056 143.065 100.046 143.068 100.035 143.068C100.025 143.068 100.014 143.065 100.005 143.06C99.9962 143.055 99.9886 143.047 99.9833 143.038C97.8864 139.427 95.7158 135.882 93.4717 132.403" stroke="#D28882" stroke-width="2"/>
<path d="M106.661 132.35C104.373 135.863 102.182 139.426 100.088 143.038C100.082 143.047 100.075 143.055 100.066 143.06C100.057 143.065 100.046 143.068 100.036 143.068C100.025 143.068 100.015 143.065 100.006 143.06C99.9966 143.055 99.989 143.047 99.9837 143.038C97.8868 139.427 95.7162 135.882 93.4721 132.403C93.4551 132.319 93.4076 132.216 93.3298 132.095C87.8782 123.569 81.8811 114.103 77.4712 104.585C76.1357 101.7 74.6998 98.1865 74.7345 95.0246C74.8823 80.8373 86.5773 69.7754 100.595 70.0035C114.574 70.2297 125.753 82.0743 125.31 96.0847C125.285 96.8461 125.057 98.0016 124.624 99.5512C123.947 101.981 122.679 104.853 121.402 107.391C117.054 116.039 111.814 124.167 106.661 132.35ZM111.327 94.3441C111.327 91.3488 110.137 88.4763 108.019 86.3583C105.901 84.2403 103.028 83.0505 100.033 83.0505C97.0377 83.0505 94.1652 84.2403 92.0472 86.3583C89.9292 88.4763 88.7394 91.3488 88.7394 94.3441C88.7394 97.3394 89.9292 100.212 92.0472 102.33C94.1652 104.448 97.0377 105.638 100.033 105.638C103.028 105.638 105.901 104.448 108.019 102.33C110.137 100.212 111.327 97.3394 111.327 94.3441Z" fill="#675DFE" fill-opacity="0.8"/>
<path d="M106.661 132.35C113.107 132.728 119.726 133.633 125.833 135.802C128.021 136.579 130.717 137.887 131.982 139.779C134.917 144.178 126.515 147.247 123.797 148.033C119.514 149.274 115.069 150.104 110.462 150.524C99.9981 151.476 88.9325 151.091 78.7062 148.528C75.9329 147.833 65.0717 144.576 68.7535 139.604C70.7678 136.884 75.6884 135.344 78.9123 134.55C83.6901 133.372 88.5433 132.656 93.4718 132.403C95.716 135.882 97.8865 139.427 99.9835 143.038C99.9888 143.047 99.9964 143.055 100.005 143.06C100.015 143.065 100.025 143.068 100.035 143.068C100.046 143.068 100.056 143.065 100.065 143.06C100.075 143.055 100.082 143.047 100.087 143.038C102.182 139.426 104.373 135.863 106.661 132.35Z" fill="white"/>
</svg>
