<svg width="26" height="26" viewBox="0 0 26 26" fill="none" xmlns="http://www.w3.org/2000/svg">
<g clip-path="url(#clip0_953_19088)">
<path d="M17.4151 9.72939L24.4043 2.78333L24.3815 6.7207C24.3742 7.04895 24.6342 7.33414 24.9633 7.32683L25.3801 7.32602C25.7083 7.3187 25.9805 7.12289 25.9878 6.79464L26.0049 0.929203C26.0049 0.923516 25.9829 0.919453 25.9829 0.913766L26.0154 0.616391C26.0187 0.451453 25.9797 0.304391 25.8741 0.199578C25.7684 0.0931406 25.6214 0.0289531 25.4581 0.0338281L25.1607 0.0411406C25.155 0.0411406 25.1509 0.0435781 25.1444 0.0443906L19.3172 0.0183906C18.9889 0.0257031 18.7176 0.297078 18.7103 0.626141L18.7094 1.04295C18.759 1.4297 19.0637 1.65639 19.3919 1.64908L23.2318 1.65964L16.2671 8.58214C15.9502 8.89902 15.9502 9.41414 16.2671 9.73183C16.5839 10.0495 17.0983 10.0487 17.4159 9.73183L17.4151 9.72939ZM8.61007 16.27L1.62095 23.195L1.64289 19.2787C1.65101 18.9505 1.38939 18.6645 1.06114 18.6718L0.619136 18.6726C0.290074 18.6807 0.0186985 18.8757 0.011386 19.204L-0.0056765 25.0694C-0.0056765 25.0751 0.0170735 25.0783 0.0170735 25.0848L-0.0154265 25.3814C-0.019489 25.5463 0.019511 25.6942 0.125949 25.799C0.230761 25.9055 0.378636 25.9696 0.541948 25.9656L0.839323 25.9583C0.845011 25.9583 0.849073 25.9558 0.855573 25.9558L6.70801 25.9818C7.03626 25.9737 7.30764 25.7023 7.31576 25.3741L7.31657 24.9565C7.2662 24.5697 6.96232 24.343 6.63407 24.3503L2.7942 24.3406L9.75814 17.4197C10.075 17.1028 10.075 16.5885 9.75814 16.2708C9.44126 15.9531 8.92695 15.9523 8.61007 16.27ZM26.0057 25.0694L25.9886 19.204C25.9813 18.8757 25.7099 18.6799 25.3817 18.6726L24.9649 18.6718C24.6366 18.6645 24.3758 18.9505 24.3831 19.2787L24.4059 23.2161L17.4168 16.27C17.0999 15.9531 16.5856 15.9531 16.2679 16.27C15.9502 16.5869 15.951 17.1012 16.2679 17.4189L23.2318 24.3398L19.3919 24.3495C19.0637 24.3422 18.759 24.5689 18.7094 24.9556L18.7103 25.3733C18.7176 25.7015 18.9898 25.9737 19.3172 25.981L25.1444 25.955C25.1509 25.955 25.155 25.9575 25.1607 25.9575L25.4581 25.9648C25.6214 25.9688 25.7701 25.9046 25.8741 25.7982C25.9805 25.6934 26.0187 25.5455 26.0154 25.3806L25.9829 25.084C25.9829 25.0775 26.0049 25.0743 26.0049 25.0686L26.0057 25.0694ZM2.7942 1.65802L6.63489 1.64827C6.96314 1.65558 7.26701 1.42889 7.31739 1.04214L7.31657 0.625328C7.30845 0.296266 7.03707 0.0248906 6.70882 0.0175781L0.855573 0.0427656C0.849073 0.0419531 0.845011 0.0395156 0.839323 0.0395156L0.541948 0.0322031C0.378636 0.0281406 0.230761 0.0923281 0.125949 0.197953C0.0186985 0.303578 -0.019489 0.449828 -0.0154265 0.615578L0.0170735 0.912953C0.0170735 0.918641 -0.0056765 0.922703 -0.0056765 0.929203L0.011386 6.79464C0.0186985 7.12289 0.290074 7.3187 0.619136 7.32602L1.06195 7.32683C1.3902 7.33414 1.6502 7.04895 1.64289 6.7207L1.62014 2.80527L8.60926 9.7302C8.92614 10.0471 9.44126 10.0471 9.75814 9.7302C10.075 9.41333 10.075 8.8982 9.75814 8.58051L2.7942 1.65802Z" fill="black"/>
</g>
<defs>
<clipPath id="clip0_953_19088">
<rect width="26" height="26" fill="white"/>
</clipPath>
</defs>
</svg>
