<svg width="31" height="27" viewBox="0 0 31 27" fill="none" xmlns="http://www.w3.org/2000/svg">
<path d="M1.06462 17.887H29.9026V16.7089C29.9026 16.4238 29.8471 16.1589 29.7487 15.9218C29.6427 15.6695 29.4863 15.445 29.2921 15.2507C29.1735 15.1322 29.0398 15.0237 28.896 14.9278C28.7497 14.8294 28.5933 14.7437 28.4293 14.6705C27.9878 14.5746 27.5488 14.4838 27.1124 14.398C26.6734 14.3123 26.2319 14.2315 25.7879 14.1558C25.7677 14.1533 25.7526 14.1508 25.7324 14.1458C25.5079 14.1079 25.2935 14.0726 25.0891 14.0398C24.8848 14.007 24.6678 13.9742 24.4408 13.9389H24.4357C22.8918 13.7421 21.3529 13.5907 19.8165 13.4898C18.2776 13.3889 16.7463 13.3385 15.225 13.3359C14.3219 13.3359 13.4212 13.3511 12.5206 13.3864C11.625 13.4217 10.7244 13.4722 9.82373 13.5428H9.81868C8.97607 13.621 8.13599 13.7194 7.29338 13.8329C6.45329 13.9465 5.61068 14.0802 4.76302 14.229L4.66968 14.2517C4.65202 14.2568 4.63436 14.2593 4.61922 14.2593C4.60409 14.2618 4.58895 14.2618 4.57381 14.2618C4.17773 14.3324 3.77157 14.4106 3.35278 14.4939C2.94661 14.5746 2.54045 14.6604 2.1368 14.7487C2.03589 14.8042 1.94002 14.8673 1.8492 14.9329C1.75838 15.001 1.67008 15.0741 1.59188 15.1523C1.42285 15.3214 1.28914 15.5156 1.19832 15.7326C1.11255 15.9369 1.06462 16.164 1.06462 16.4112V17.887ZM3.58236 0.893555H27.0417C27.347 0.893555 27.6397 0.954102 27.9071 1.0651C28.1846 1.18115 28.4343 1.35018 28.6437 1.55705C28.8531 1.76644 29.0221 2.01619 29.1357 2.2937C29.2467 2.56112 29.3072 2.85376 29.3072 3.15902V13.9288C29.4359 14.0045 29.562 14.0877 29.6781 14.1785C29.8092 14.2795 29.9329 14.3854 30.0464 14.4989C30.339 14.7916 30.5762 15.1322 30.7351 15.5156C30.8865 15.8764 30.9697 16.2775 30.9697 16.7114V18.2478C30.9773 18.273 30.9849 18.2983 30.9899 18.3235V18.3285C30.995 18.3613 30.9975 18.3916 30.9975 18.4219C30.9975 18.4547 30.995 18.4875 30.9874 18.5203C30.9823 18.5455 30.9748 18.5707 30.9672 18.5959V25.574C30.9672 25.7203 30.9067 25.854 30.8108 25.9499C30.7149 26.0457 30.5812 26.1063 30.4349 26.1063H29.3375C29.2139 26.1063 29.1003 26.0634 29.0095 25.9928C28.9187 25.9221 28.8506 25.8212 28.8228 25.7052C28.621 25.1249 28.4167 24.6658 28.1972 24.3075C27.9802 23.9543 27.7481 23.7021 27.4807 23.5229C27.2108 23.3438 26.8879 23.2303 26.4968 23.1622C26.0982 23.0916 25.634 23.0688 25.0815 23.0714L4.9598 23.0966H4.94971C4.55363 23.089 4.22819 23.1395 3.95573 23.2454C3.68579 23.3514 3.46631 23.5103 3.28467 23.7147C3.08032 23.9417 2.90877 24.2319 2.75236 24.5699C2.59342 24.9155 2.44963 25.3091 2.30583 25.7405C2.27051 25.8515 2.19987 25.9398 2.11157 26.0028C2.02832 26.0634 1.92741 26.0987 1.82397 26.1038C1.81641 26.1063 1.80884 26.1063 1.80127 26.1063H0.532308C0.385986 26.1063 0.252279 26.0457 0.156413 25.9499C0.0605469 25.854 0 25.7203 0 25.574V16.4137C0 16.0177 0.0756836 15.6544 0.211914 15.3264C0.358236 14.9783 0.572672 14.668 0.840088 14.4006C0.915771 14.3249 0.999023 14.2492 1.08732 14.1785C1.163 14.118 1.23869 14.06 1.31942 14.007V3.13631C1.31942 2.83105 1.37996 2.54093 1.49097 2.27856C1.60702 2.00358 1.77604 1.75635 1.98543 1.54948C2.19482 1.34261 2.44458 1.17863 2.71956 1.0651C2.98698 0.954102 3.2771 0.893555 3.58236 0.893555ZM27.0417 1.95817H3.58236C3.41838 1.95817 3.26196 1.99097 3.11816 2.04899C2.96932 2.10954 2.83814 2.19784 2.72713 2.30632C2.61865 2.41227 2.53035 2.54346 2.46981 2.68473C2.41431 2.82349 2.38403 2.97485 2.38403 3.13631V13.4949C2.45972 13.4696 2.5354 13.4495 2.61361 13.4293C2.73722 13.3965 2.86084 13.3687 2.98446 13.3486C3.15601 13.3183 3.34269 13.2855 3.54452 13.2502C3.69588 13.2249 3.85734 13.1972 4.02384 13.172V10.5281C4.02384 10.1295 4.10457 9.74854 4.24837 9.40039C4.39974 9.03711 4.61922 8.71167 4.89168 8.43921C5.16414 8.16675 5.48958 7.94727 5.85287 7.7959C6.20101 7.6521 6.58195 7.57137 6.98055 7.57137H11.9807C12.3793 7.57137 12.7603 7.6521 13.1084 7.7959C13.4717 7.94727 13.7971 8.16675 14.0696 8.43921C14.342 8.71167 14.5615 9.03711 14.7129 9.40039C14.8567 9.74854 14.9374 10.1295 14.9374 10.5281V12.2158C15.114 12.2133 15.2906 12.2133 15.4697 12.2133V10.5281C15.4697 10.1295 15.5505 9.74854 15.6943 9.40039C15.8456 9.03711 16.0651 8.71167 16.3376 8.43921C16.61 8.16675 16.9355 7.94727 17.2987 7.7959C17.6469 7.6521 18.0278 7.57137 18.4264 7.57137H23.4266C23.8252 7.57137 24.2061 7.6521 24.5543 7.7959C24.9176 7.94727 25.243 8.16675 25.5155 8.43921C25.7879 8.71167 26.0074 9.03711 26.1588 9.40039C26.3026 9.74854 26.3833 10.1295 26.3833 10.5281V13.1366C26.5725 13.1644 26.7743 13.1972 26.9913 13.2325C27.231 13.2703 27.4605 13.3082 27.6825 13.346C27.7961 13.3662 27.9121 13.3889 28.0282 13.4167C28.1013 13.4343 28.172 13.452 28.2401 13.4722V3.15902C28.2401 2.99756 28.2073 2.84367 28.1493 2.70239C28.0887 2.55607 27.9979 2.42489 27.8869 2.31136C27.7759 2.20036 27.6422 2.10954 27.4984 2.04899C27.3571 1.99097 27.2032 1.95817 27.0417 1.95817ZM10.901 12.3874C11.408 12.3495 11.9176 12.3167 12.4348 12.2915C12.9116 12.2663 13.3935 12.2486 13.8753 12.236V10.5281C13.8753 10.2733 13.8249 10.0286 13.7315 9.80656C13.6357 9.57446 13.4944 9.36759 13.3178 9.191C13.1437 9.01693 12.9343 8.87565 12.7022 8.77726C12.4802 8.68392 12.2355 8.63346 11.9807 8.63346H6.98055C6.72575 8.63346 6.48104 8.68392 6.25903 8.77726C6.02694 8.87313 5.82007 9.01441 5.64347 9.191C5.4694 9.36507 5.32812 9.57446 5.22974 9.80656C5.13639 10.0286 5.08594 10.2733 5.08594 10.5281V13.0029C5.49463 12.9424 5.90837 12.8869 6.33219 12.8314C6.78882 12.7734 7.24292 12.7204 7.69198 12.6699C7.86605 12.6497 8.05273 12.627 8.24699 12.6069C8.42863 12.5867 8.61784 12.569 8.81966 12.5488C9.16276 12.516 9.50334 12.4858 9.83887 12.458C10.1845 12.4353 10.5377 12.4101 10.901 12.3874ZM16.5343 12.2209C16.8396 12.2259 17.1449 12.2335 17.4501 12.2436C17.7882 12.2537 18.1262 12.2688 18.4618 12.2839H18.4643C19.0168 12.3041 19.5566 12.3293 20.0814 12.3596C20.6061 12.3899 21.1182 12.4277 21.6077 12.4706C22.3191 12.5337 23.0078 12.6094 23.6612 12.6977C24.2465 12.7784 24.8015 12.8692 25.3212 12.9701V10.5281C25.3212 10.2733 25.2708 10.0286 25.1774 9.80656C25.0815 9.57446 24.9403 9.36759 24.7637 9.191C24.5896 9.01693 24.3802 8.87565 24.1481 8.77726C23.9261 8.68392 23.6814 8.63346 23.4266 8.63346H18.429C18.1742 8.63346 17.9294 8.68392 17.7074 8.77726C17.4753 8.87313 17.2685 9.01441 17.0919 9.191C16.9178 9.36507 16.7765 9.57446 16.6781 9.80656C16.5848 10.0286 16.5343 10.2733 16.5343 10.5281V12.2209ZM29.9051 18.9542H1.06462V25.0417H1.42537C1.56665 24.6431 1.71297 24.2722 1.87695 23.9417C2.05355 23.5885 2.25285 23.2757 2.49504 23.0058C2.78263 22.6829 3.12069 22.4331 3.52686 22.2666C3.93302 22.1026 4.40731 22.0194 4.97746 22.032L25.0815 22.0068C25.7299 22.0068 26.2849 22.037 26.7693 22.1304C27.2612 22.2237 27.6851 22.3827 28.066 22.6349C28.4192 22.8695 28.7219 23.1799 28.9944 23.586C29.2542 23.9745 29.4863 24.4513 29.7083 25.0391H29.9001V18.9542H29.9051Z" fill="black"/>
</svg>
