<svg width="52" height="27" viewBox="0 0 52 27" fill="none" xmlns="http://www.w3.org/2000/svg">
<path d="M18.7564 3.1264C21.2736 4.73982 22.55 7.47754 21.326 9.38595C20.1026 11.2954 17.082 11.2792 14.5647 9.66575C14.2461 9.46169 13.9422 9.23543 13.6554 8.98866C12.9312 10.0176 11.9341 10.9629 10.7503 11.7217C7.2941 13.937 3.20364 13.9591 1.59933 11.4552C-0.00562727 8.95131 1.7226 5.24414 5.17874 3.02893C8.05516 1.18506 11.3879 0.852418 13.3538 2.27135C14.8464 1.621 16.94 1.96182 18.7564 3.1264ZM17.6554 4.84381C16.1689 3.89075 14.5576 3.75175 13.8857 4.313C13.4602 4.6684 12.8287 4.61885 12.4639 4.20143C11.4516 3.04342 8.7481 3.16405 6.27962 4.7464C3.65332 6.4297 2.45243 9.00579 3.31689 10.3545C4.18086 11.7028 7.02321 11.6874 9.64941 10.0042C10.9842 9.14858 12.0066 8.01986 12.5274 6.88332C12.8467 6.18655 13.7916 6.07768 14.261 6.68355C14.6247 7.15306 15.104 7.5882 15.6657 7.94834C17.3529 9.02975 19.1254 9.03921 19.6086 8.28497C20.0917 7.53172 19.3427 5.92527 17.6554 4.84376V4.84381ZM14.519 18.8077C14.0568 19.948 12.9468 20.7101 11.6959 20.7101C10.4024 20.7101 9.26283 19.8957 8.83077 18.6991C8.63947 18.1692 8.05486 17.8948 7.52499 18.086C6.99512 18.2773 6.7207 18.8619 6.91195 19.3918C7.63362 21.3907 9.53591 22.7501 11.6958 22.7501C13.7847 22.7501 15.638 21.4776 16.4096 19.5739C16.6211 19.0518 16.3694 18.4571 15.8474 18.2455C15.3253 18.0338 14.7305 18.2856 14.5189 18.8077L14.519 18.8077ZM10.0091 15.2259C10.0091 16.0689 9.32563 16.7518 8.48264 16.7518C7.64014 16.7518 6.95672 16.0689 6.95672 15.2259C6.95672 14.3828 7.64014 13.6994 8.48264 13.6994C9.32568 13.6994 10.0091 14.3829 10.0091 15.2259ZM16.7424 15.2259C16.7424 16.0689 16.059 16.7518 15.2165 16.7518C14.3735 16.7518 13.6901 16.0689 13.6901 15.2259C13.6901 14.3828 14.3735 13.6994 15.2165 13.6994C16.059 13.6994 16.7424 14.3829 16.7424 15.2259Z" fill="black"/>
<path d="M18.9549 10.5935C20.0387 12.0825 20.6313 13.8727 20.6313 15.7547C20.6313 20.6041 16.6997 24.5353 11.8495 24.5353C6.99971 24.5353 3.06783 20.6039 3.06783 15.7547C3.06783 14.4619 3.34654 13.2114 3.87786 12.0662C4.11493 11.5552 3.8929 10.9487 3.38185 10.7117C2.8708 10.4746 2.26438 10.6966 2.02731 11.2077C1.37183 12.6205 1.02783 14.164 1.02783 15.7547C1.02783 21.7306 5.87308 26.5753 11.8495 26.5753C17.8264 26.5753 22.6713 21.7308 22.6713 15.7547C22.6713 13.4376 21.9398 11.2279 20.6043 9.39298C20.2728 8.93751 19.6348 8.83701 19.1793 9.16856C18.7239 9.50011 18.6233 10.138 18.9549 10.5935ZM41.1552 18.1331C40.693 19.2733 39.583 20.0354 38.3321 20.0354C37.0386 20.0354 35.899 19.2211 35.467 18.0244C35.2757 17.4946 34.6911 17.2201 34.1612 17.4114C33.6313 17.6026 33.3569 18.1873 33.5481 18.7172C34.2698 20.716 36.1721 22.0754 38.332 22.0754C40.4209 22.0754 42.2742 20.803 43.0458 18.8992C43.2573 18.3771 43.0056 17.7824 42.4836 17.5708C41.9615 17.3592 41.3667 17.611 41.1551 18.133L41.1552 18.1331ZM36.5071 14.8012C36.5071 15.6443 35.8237 16.3276 34.9812 16.3276C34.1381 16.3276 33.4548 15.6442 33.4548 14.8012C33.4548 13.9582 34.1382 13.2753 34.9812 13.2753C35.8237 13.2753 36.5071 13.9582 36.5071 14.8012ZM43.2405 14.8012C43.2405 15.6443 42.5571 16.3276 41.7146 16.3276C40.8716 16.3276 40.1882 15.6442 40.1882 14.8012C40.1882 13.9582 40.8716 13.2753 41.7146 13.2753C42.5571 13.2753 43.2405 13.9582 43.2405 14.8012Z" fill="black"/>
<path d="M45.8894 11.2235C46.6968 12.5727 47.1293 14.1161 47.1293 15.7248C47.1293 20.5742 43.1977 24.5054 38.3475 24.5054C33.4977 24.5054 29.5658 20.574 29.5658 15.7248C29.5658 14.0501 30.0346 12.4472 30.9058 11.0609C31.2056 10.5839 31.0619 9.95428 30.5849 9.65456C30.108 9.35483 29.4783 9.49847 29.1786 9.9754C28.1045 11.6844 27.5259 13.6632 27.5259 15.7248C27.5259 21.7007 32.3711 26.5454 38.3476 26.5454C44.3244 26.5454 49.1693 21.7009 49.1693 15.7248C49.1693 13.7446 48.6355 11.8396 47.6399 10.176C47.3506 9.69256 46.7243 9.53518 46.2409 9.82444C45.7575 10.1137 45.6001 10.74 45.8894 11.2235V11.2235Z" fill="black"/>
<path d="M26.7305 13.9057C26.7305 7.48507 31.9353 2.28023 38.3559 2.28023C44.6501 2.28023 49.7529 7.38307 49.7529 13.6772V19.3382H47.1947C46.6314 19.3382 46.1747 19.7948 46.1747 20.3582C46.1747 20.9215 46.6314 21.3782 47.1947 21.3782H49.9008C50.9455 21.3782 51.7928 20.5309 51.7928 19.4861V13.6772C51.7928 6.25639 45.7767 0.240234 38.3559 0.240234C30.8086 0.240234 24.6904 6.35839 24.6904 13.9057V19.4861C24.6904 20.531 25.5373 21.3782 26.5825 21.3782H29.6441C30.2074 21.3782 30.6641 20.9215 30.6641 20.3582C30.6641 19.7948 30.2074 19.3382 29.6441 19.3382H26.7304L26.7305 13.9057Z" fill="black"/>
<path d="M30.0657 11.5542H46.6463C47.2096 11.5542 47.6663 11.0975 47.6663 10.5342C47.6663 9.97082 47.2096 9.51416 46.6463 9.51416H30.0657C29.5023 9.51416 29.0457 9.97082 29.0457 10.5342C29.0457 11.0975 29.5023 11.5542 30.0657 11.5542Z" fill="black"/>
</svg>
