<svg width="31" height="31" viewBox="0 0 31 31" fill="none" xmlns="http://www.w3.org/2000/svg">
<g clip-path="url(#clip0_735_17546)">
<path d="M15.5 1.05127C34.4923 1.37713 34.4923 29.6288 15.5 29.9485C-3.49227 29.6227 -3.49227 1.37098 15.5 1.05127Z" stroke="black" stroke-width="1.23187" stroke-miterlimit="10"/>
<g clip-path="url(#clip1_735_17546)">
<path d="M23.25 7.75V21.25H21V20.5H22.5V8.5H7.5V20.5H13.5V21.25H6.75V7.75H23.25ZM18 9.25H12V10H18V9.25ZM16.5 11.5V10.75H13.5V11.5H16.5ZM11.25 15.25H8.25V16H11.25V15.25ZM11.25 16.75H8.25V17.5H11.25V16.75ZM8.25 19H9.75V18.25H8.25V19ZM18.75 16.75C18.75 17.0467 18.662 17.3367 18.4972 17.5834C18.3324 17.83 18.0981 18.0223 17.824 18.1358C17.5499 18.2494 17.2483 18.2791 16.9574 18.2212C16.6664 18.1633 16.3991 18.0204 16.1893 17.8107C15.9796 17.6009 15.8367 17.3336 15.7788 17.0426C15.7209 16.7517 15.7506 16.4501 15.8642 16.176C15.9777 15.9019 16.17 15.6676 16.4166 15.5028C16.6633 15.338 16.9533 15.25 17.25 15.25C17.6477 15.2504 18.029 15.4086 18.3102 15.6898C18.5914 15.971 18.7496 16.3523 18.75 16.75ZM18 16.75C18 16.6017 17.956 16.4567 17.8736 16.3333C17.7912 16.21 17.6741 16.1139 17.537 16.0571C17.4 16.0003 17.2492 15.9855 17.1037 16.0144C16.9582 16.0434 16.8246 16.1148 16.7197 16.2197C16.6148 16.3246 16.5434 16.4582 16.5144 16.6037C16.4855 16.7492 16.5003 16.9 16.5571 17.037C16.6139 17.1741 16.71 17.2912 16.8333 17.3736C16.9567 17.456 17.1017 17.5 17.25 17.5C17.4489 17.4998 17.6395 17.4207 17.7801 17.2801C17.9207 17.1395 17.9998 16.9489 18 16.75ZM18.0015 13.5302C18.0353 13.6254 18.0887 13.7125 18.1582 13.7858C18.2277 13.8591 18.3118 13.9171 18.4051 13.9559C18.4983 13.9948 18.5987 14.0137 18.6997 14.0114C18.8007 14.0091 18.9001 13.9857 18.9915 13.9427C19.1409 13.8729 19.3081 13.8504 19.4706 13.8781C19.6332 13.9059 19.7834 13.9826 19.9012 14.098C20.0179 14.2146 20.0956 14.3643 20.1238 14.5268C20.152 14.6893 20.1293 14.8565 20.0588 15.0055C20.0153 15.097 19.9916 15.1966 19.989 15.2978C19.9864 15.399 20.0051 15.4997 20.0438 15.5932C20.0826 15.6868 20.1405 15.7712 20.2138 15.841C20.2872 15.9108 20.3744 15.9645 20.4697 15.9985C20.6247 16.0539 20.7588 16.1558 20.8536 16.2903C20.9484 16.4249 20.9993 16.5854 20.9993 16.75C20.9993 16.9146 20.9484 17.0751 20.8536 17.2097C20.7588 17.3442 20.6247 17.4461 20.4697 17.5015C20.3743 17.5354 20.2871 17.5889 20.2137 17.6586C20.1402 17.7283 20.0822 17.8126 20.0434 17.9061C20.0046 17.9997 19.9859 18.1003 19.9884 18.2015C19.9909 18.3027 20.0146 18.4023 20.058 18.4937C20.111 18.6023 20.1382 18.7217 20.1377 18.8425C20.1371 18.9633 20.1088 19.0824 20.0548 19.1905C20.0009 19.2986 19.9228 19.3929 19.8266 19.4659C19.7303 19.539 19.6186 19.589 19.5 19.612V24.8965L17.25 22.993L15 24.8965V19.612C14.8815 19.589 14.7699 19.539 14.6737 19.466C14.5776 19.3929 14.4996 19.2988 14.4456 19.1908C14.3917 19.0827 14.3633 18.9638 14.3627 18.843C14.3621 18.7223 14.3892 18.6031 14.442 18.4945C14.4855 18.403 14.5093 18.3034 14.5119 18.2021C14.5145 18.1008 14.4958 18 14.457 17.9064C14.4181 17.8128 14.3601 17.7284 14.2866 17.6587C14.2131 17.5889 14.1258 17.5354 14.0302 17.5015C13.8753 17.4461 13.7412 17.3442 13.6464 17.2097C13.5516 17.0751 13.5007 16.9146 13.5007 16.75C13.5007 16.5854 13.5516 16.4249 13.6464 16.2903C13.7412 16.1558 13.8753 16.0539 14.0302 15.9985C14.1257 15.9645 14.2129 15.9109 14.2864 15.8412C14.3598 15.7714 14.4178 15.687 14.4566 15.5934C14.4954 15.4999 14.5142 15.3992 14.5116 15.2979C14.5091 15.1966 14.4854 15.097 14.442 15.0055C14.3714 14.8565 14.3485 14.6894 14.3766 14.5269C14.4046 14.3645 14.4822 14.2146 14.5988 14.098C14.7166 13.9829 14.8667 13.9064 15.0291 13.8788C15.1915 13.8512 15.3585 13.8738 15.5077 13.9435C15.5992 13.9865 15.6987 14.0098 15.7997 14.0121C15.9007 14.0143 16.0011 13.9953 16.0944 13.9564C16.1876 13.9174 16.2717 13.8594 16.3412 13.786C16.4107 13.7126 16.464 13.6255 16.4977 13.5302C16.553 13.375 16.6549 13.2406 16.7895 13.1456C16.9241 13.0506 17.0849 12.9996 17.2496 12.9996C17.4144 12.9996 17.5751 13.0506 17.7098 13.1456C17.8444 13.2406 17.9463 13.375 18.0015 13.5302ZM18.75 23.2803V19.5002C18.5903 19.48 18.4285 19.5156 18.2921 19.6011C18.1557 19.6865 18.053 19.8165 18.0015 19.969C17.9461 20.124 17.8442 20.2581 17.7097 20.3529C17.5751 20.4477 17.4146 20.4986 17.25 20.4986C17.0854 20.4986 16.9249 20.4477 16.7903 20.3529C16.6558 20.2581 16.5539 20.124 16.4985 19.969C16.447 19.8165 16.3443 19.6865 16.2079 19.6011C16.0715 19.5156 15.9097 19.48 15.75 19.5002V23.2795L17.25 22.0105L18.75 23.2803ZM17.295 19.7185C17.397 19.4315 17.5854 19.1832 17.8342 19.0075C18.0831 18.8319 18.3802 18.7375 18.6847 18.7375C18.9103 18.7399 19.1327 18.7903 19.3373 18.8853L19.3807 18.817C19.2921 18.6308 19.2435 18.4281 19.2382 18.2219C19.2329 18.0158 19.2709 17.8108 19.3498 17.6203C19.4287 17.4297 19.5467 17.2579 19.6962 17.1158C19.8457 16.9738 20.0234 16.8648 20.2178 16.7957V16.7043C20.0236 16.635 19.846 16.5259 19.6967 16.3838C19.5473 16.2417 19.4293 16.0699 19.3505 15.8795C19.2716 15.689 19.2335 15.4841 19.2388 15.278C19.244 15.0719 19.2923 14.8692 19.3807 14.683L19.3155 14.62C19.1293 14.7084 18.9266 14.7567 18.7205 14.7619C18.5144 14.767 18.3096 14.7289 18.1192 14.65C17.9287 14.571 17.757 14.453 17.615 14.3035C17.4731 14.1541 17.364 13.9765 17.295 13.7823H17.205C17.136 13.9765 17.0269 14.1541 16.885 14.3035C16.743 14.453 16.5713 14.571 16.3808 14.65C16.1904 14.7289 15.9856 14.767 15.7795 14.7619C15.5734 14.7567 15.3707 14.7084 15.1845 14.62L15.1193 14.683C15.2077 14.8692 15.256 15.0719 15.2612 15.278C15.2665 15.4841 15.2284 15.689 15.1495 15.8795C15.0707 16.0699 14.9527 16.2417 14.8033 16.3838C14.654 16.5259 14.4764 16.635 14.2823 16.7043V16.7957C14.4766 16.8648 14.6543 16.9738 14.8038 17.1158C14.9533 17.2579 15.0713 17.4297 15.1502 17.6203C15.2291 17.8108 15.2671 18.0158 15.2618 18.2219C15.2565 18.4281 15.2079 18.6308 15.1193 18.817L15.1628 18.8845C15.3674 18.7898 15.5898 18.7397 15.8153 18.7375C16.1198 18.7375 16.4169 18.8319 16.6658 19.0075C16.9146 19.1832 17.103 19.4315 17.205 19.7185L17.25 19.75L17.295 19.7185Z" fill="black"/>
</g>
</g>
<defs>
<clipPath id="clip0_735_17546">
<rect width="31" height="31" fill="white"/>
</clipPath>
<clipPath id="clip1_735_17546">
<rect width="18" height="18" fill="white" transform="translate(6 7)"/>
</clipPath>
</defs>
</svg>
