<svg width="34" height="31" viewBox="0 0 34 31" fill="none" xmlns="http://www.w3.org/2000/svg">
<path d="M9.91666 2.8457H7.43749C7.06177 2.8457 6.70144 2.9774 6.43576 3.21182C6.17008 3.44624 6.02083 3.76418 6.02083 4.0957V25.9707C6.02083 26.3022 6.17008 26.6202 6.43576 26.8546C6.70144 27.089 7.06177 27.2207 7.43749 27.2207H26.5625C26.9382 27.2207 27.2986 27.089 27.5642 26.8546C27.8299 26.6202 27.9792 26.3022 27.9792 25.9707V4.0957C27.9792 3.76418 27.8299 3.44624 27.5642 3.21182C27.2986 2.9774 26.9382 2.8457 26.5625 2.8457H17" stroke="black" stroke-linecap="round" stroke-linejoin="round"/>
<path d="M8.5 2.8457L9.50158 1.96195C9.7672 1.72752 10.1275 1.59577 10.5032 1.5957H16.2917C16.4795 1.5957 16.6597 1.66155 16.7925 1.77876C16.9254 1.89597 17 2.05494 17 2.2207V17.8457L13.4583 14.7207L9.91667 17.8457V2.8457M9.91667 23.7832H24.0833M17 6.2832H24.0833M17 10.6582H24.0833M17 15.0332H24.0833M9.91667 19.4082H24.0833" stroke="black" stroke-linecap="round" stroke-linejoin="round"/>
</svg>
