<svg width="28" height="20" viewBox="0 0 28 20" fill="none" xmlns="http://www.w3.org/2000/svg">
<path d="M25.1602 1.20508H2.83996C1.63339 1.20508 0.655273 2.1168 0.655273 3.24147V16.8466C0.655273 17.9712 1.63339 18.883 2.83996 18.883H25.1602C26.3668 18.883 27.3449 17.9712 27.3449 16.8466V3.24147C27.3449 2.1168 26.3668 1.20508 25.1602 1.20508Z" stroke="black" stroke-linecap="round" stroke-linejoin="round"/>
<path d="M7.32808 10.757C8.76109 10.757 9.92277 9.6742 9.92277 8.33847C9.92277 7.00274 8.76109 5.91992 7.32808 5.91992C5.89508 5.91992 4.7334 7.00274 4.7334 8.33847C4.7334 9.6742 5.89508 10.757 7.32808 10.757Z" stroke="black" stroke-linecap="round" stroke-linejoin="round"/>
<path d="M17.4295 7.90625H22.5264M17.4295 12.5709H22.5264M17.4295 10.2386H24.4722M4.04392 14.8605H11.1682C11.2966 14.8608 11.4224 14.8268 11.5306 14.7624C11.6388 14.698 11.7249 14.606 11.7786 14.4972C11.8323 14.3885 11.8514 14.2677 11.8335 14.1492C11.8157 14.0307 11.7617 13.9195 11.678 13.8287C11.1885 13.2608 10.5686 12.8025 9.86388 12.4876C9.15915 12.1727 8.38758 12.0092 7.60606 12.0092C6.82453 12.0092 6.05297 12.1727 5.34824 12.4876C4.64351 12.8025 4.02358 13.2608 3.53416 13.8287C3.45042 13.9195 3.39642 14.0307 3.37857 14.1492C3.36073 14.2677 3.37979 14.3885 3.4335 14.4972C3.48721 14.606 3.5733 14.698 3.68151 14.7624C3.78973 14.8268 3.91553 14.8608 4.04392 14.8605V14.8605Z" stroke="black" stroke-linecap="round" stroke-linejoin="round"/>
</svg>
