<svg width="14" height="20" viewBox="0 0 14 20" fill="none" xmlns="http://www.w3.org/2000/svg">
<path fill-rule="evenodd" clip-rule="evenodd" d="M6.22333 0.0429333C5.43736 0.132232 4.68237 0.356611 3.94645 0.719664C2.48403 1.44108 1.39506 2.53809 0.695538 3.99445C-0.573947 6.63738 -0.122153 9.47462 2.18679 13.3593C2.8437 14.4645 3.4557 15.3794 4.9958 17.5586C5.51205 18.289 6.08493 19.1066 6.26883 19.3753C6.61912 19.8871 6.7516 20 7.00175 20C7.25189 20 7.38438 19.8871 7.73467 19.3753C7.91857 19.1066 8.49164 18.289 9.00812 17.5586C10.5173 15.424 11.1826 14.4284 11.8241 13.345C13.8985 9.84103 14.4462 7.28888 13.6524 4.82485C13.5047 4.36637 13.1028 3.54921 12.8067 3.10517C11.3741 0.956973 8.78378 -0.247892 6.22333 0.0429333ZM8.14992 1.28963C10.8 1.84796 12.7018 4.07851 12.8286 6.77711C12.8896 8.07632 12.4999 9.51404 11.5949 11.328C10.8827 12.7555 10.0957 13.9902 8.01369 16.9465C7.46783 17.7216 7.01245 18.3561 7.00175 18.3565C6.99104 18.357 6.8828 18.2128 6.76122 18.0361C6.63963 17.8594 6.16067 17.1787 5.69688 16.5234C4.77881 15.2263 3.86542 13.871 3.43273 13.1639C1.81599 10.5219 1.09483 8.48191 1.17493 6.77711C1.2753 4.64059 2.47707 2.78236 4.39404 1.79957C4.97755 1.50042 5.60301 1.30733 6.30117 1.21088C6.71377 1.15389 7.70629 1.19616 8.14992 1.28963ZM6.30117 3.58827C4.98288 3.87843 3.96276 4.85028 3.61002 6.1521C3.54128 6.40582 3.52537 6.57117 3.52537 7.03102C3.52537 7.49088 3.54128 7.65623 3.61002 7.90995C3.95315 9.17633 4.93318 10.1362 6.21052 10.4569C6.61195 10.5577 7.46713 10.5464 7.87747 10.4348C9.11041 10.0996 10.0577 9.14895 10.3935 7.90995C10.4622 7.65623 10.4781 7.49088 10.4781 7.03102C10.4781 6.57117 10.4622 6.40582 10.3935 6.1521C10.057 4.91052 9.09889 3.95019 7.87747 3.63038C7.42591 3.51213 6.73144 3.49358 6.30117 3.58827ZM7.56236 4.76438C8.00202 4.87728 8.30062 5.05068 8.63775 5.38904C8.97488 5.72741 9.14765 6.0271 9.26014 6.46836C9.40088 7.02079 9.32724 7.62236 9.0558 8.13706C8.88723 8.45663 8.41578 8.93067 8.10376 9.09426C7.58626 9.36556 6.98988 9.43849 6.44113 9.29766C6.00794 9.18645 5.70401 9.00961 5.36539 8.67168C5.02803 8.33503 4.85658 8.03784 4.74336 7.59369C4.60305 7.04294 4.67571 6.44437 4.94602 5.92499C5.10918 5.61155 5.58129 5.13865 5.90036 4.96915C6.41311 4.69676 7.01159 4.62301 7.56236 4.76438Z" fill="#2E3E5C"/>
</svg>
