<svg width="94" height="95" viewBox="0 0 94 95" fill="none" xmlns="http://www.w3.org/2000/svg">
<path d="M30.81 0H63.06C67.92 0.86 69.26 4.46 70.6 8.95C70.6457 9.10889 70.7427 9.24854 70.8762 9.34779C71.0098 9.44704 71.1726 9.50048 71.34 9.5H80.73C82.4167 9.49333 83.1 10.32 82.78 11.98L81.11 20.66C81.0219 21.1104 80.7793 21.5162 80.4236 21.8081C80.0679 22.0999 79.6212 22.2597 79.16 22.26L75.75 22.25C75.6864 22.2496 75.6236 22.266 75.5676 22.2975C75.5115 22.329 75.4642 22.3747 75.43 22.43L75.28 22.68C75.2485 22.73 75.2276 22.786 75.2186 22.8445C75.2096 22.9031 75.2126 22.9632 75.2276 23.021C75.2425 23.0789 75.269 23.1334 75.3055 23.1813C75.342 23.2293 75.3877 23.2696 75.44 23.3C79.76 25.82 83.01 28.56 83.01 33.26C83.01 38.08 83.0033 42.9167 82.99 47.77C82.9833 49.4433 81.9633 50.13 79.93 49.83C79.8666 49.82 79.8018 49.8228 79.7396 49.8383C79.6775 49.8538 79.6193 49.8816 79.5687 49.92C79.5181 49.9584 79.4762 50.0067 79.4454 50.0617C79.4147 50.1167 79.3958 50.1774 79.39 50.24C79.13 52.89 80.73 60 76.05 58.95C75.2833 58.7767 75.0967 59.03 75.49 59.71L94 91.81V94H91.69C91.22 93.53 90.59 93.09 90.26 92.52C83.86 81.5 77.47 70.4667 71.09 59.42C71.0176 59.2928 70.912 59.187 70.7838 59.1132C70.6556 59.0395 70.5094 59.0004 70.36 59L66.99 58.99C65.3233 58.99 64.49 58.1567 64.49 56.49L64.51 50.37C64.51 50.2003 64.4426 50.0375 64.3225 49.9174C64.2025 49.7974 64.0397 49.73 63.87 49.73L30.1 49.76C29.9515 49.76 29.809 49.819 29.704 49.924C29.599 50.029 29.54 50.1715 29.54 50.32L29.51 56.65C29.5033 58.7767 28.4633 59.5833 26.39 59.07C24.64 58.64 23.24 58.79 22.27 60.48C12.0833 78.16 5.97333 88.7267 3.94 92.18C3.72 92.56 3.22 93.1667 2.44 94H0V91.69L18.34 60.12C18.3907 60.0346 18.4209 59.9387 18.4282 59.8395C18.4355 59.7403 18.4197 59.6406 18.3821 59.5479C18.3444 59.4552 18.2859 59.372 18.211 59.3048C18.1361 59.2376 18.0468 59.188 17.95 59.16L15.37 58.45C15.189 58.4015 15.0291 58.2938 14.9152 58.1437C14.8013 57.9936 14.7397 57.8095 14.74 57.62L14.75 50.38C14.7496 50.2069 14.6878 50.0398 14.5758 49.9094C14.4637 49.779 14.309 49.694 14.14 49.67L12.47 49.42C12.0802 49.3652 11.7228 49.1728 11.4624 48.8775C11.202 48.5823 11.0557 48.2036 11.05 47.81C10.95 41.71 9.17 30.16 14.62 26.15C14.72 26.07 18.54 23.49 18.41 22.63C18.3991 22.5586 18.3741 22.4902 18.3363 22.4287C18.2985 22.3672 18.2488 22.3139 18.19 22.272C18.1313 22.23 18.0648 22.2002 17.9943 22.1845C17.9239 22.1687 17.851 22.1671 17.78 22.18C16.3467 22.4533 14.97 22.34 13.65 21.84C13.4908 21.7789 13.3495 21.6781 13.2393 21.547C13.1292 21.4158 13.0537 21.2586 13.02 21.09L11.15 11.63C10.87 10.2167 11.45 9.51 12.89 9.51L22.43 9.5C22.5736 9.49944 22.714 9.45768 22.8345 9.37968C22.955 9.30169 23.0507 9.19073 23.11 9.06C25.16 4.73 25.29 1.21 30.81 0ZM28.34 6.12C26.57 10.79 24.49 16.39 23.16 21.52C23.1445 21.5767 23.1424 21.6361 23.1538 21.6937C23.1652 21.7513 23.1898 21.8055 23.2256 21.852C23.2615 21.8985 23.3076 21.9361 23.3604 21.9618C23.4132 21.9874 23.4713 22.0005 23.53 22H70.68C70.7352 22.0008 70.7896 21.9879 70.8386 21.9622C70.8876 21.9366 70.9297 21.899 70.9612 21.8527C70.9926 21.8065 71.0126 21.7529 71.0194 21.6967C71.0262 21.6405 71.0195 21.5833 71 21.53C69.3733 17.07 67.84 12.5867 66.4 8.08C65.47 5.19 64.93 3.76 61.48 3.67C51.7467 3.43667 41.9033 3.40667 31.95 3.58C30.1767 3.61333 28.9733 4.46 28.34 6.12ZM16.65 18.43C19.97 20.36 20.95 16.32 21.7 14.23C21.7515 14.087 21.7663 13.9336 21.7433 13.7833C21.7202 13.6331 21.66 13.4907 21.5679 13.3689C21.4758 13.2471 21.3547 13.1497 21.2155 13.0853C21.0763 13.0209 20.9232 12.9916 20.77 13L15.76 13.31C15.6794 13.3153 15.601 13.3379 15.53 13.3764C15.459 13.4149 15.3972 13.4682 15.3487 13.5328C15.3003 13.5974 15.2664 13.6717 15.2493 13.7506C15.2323 13.8295 15.2325 13.9112 15.25 13.99L16.05 17.6C16.0876 17.7733 16.1603 17.9366 16.2636 18.0795C16.3669 18.2224 16.4985 18.3418 16.65 18.43ZM76.92 18.79C78.11 19.1 78.56 15.32 78.68 13.79C78.6841 13.7279 78.6758 13.6656 78.6557 13.6069C78.6355 13.5482 78.6039 13.4943 78.5628 13.4485C78.5217 13.4027 78.4718 13.3659 78.4164 13.3404C78.3609 13.3149 78.3009 13.3011 78.24 13.3L72.74 13.13C72.6632 13.1266 72.5868 13.1417 72.5171 13.1741C72.4474 13.2064 72.3865 13.2549 72.3394 13.3157C72.2924 13.3764 72.2607 13.4476 72.2468 13.5232C72.233 13.5987 72.2375 13.6765 72.26 13.75L73.62 18.15C73.675 18.3237 73.7831 18.4753 73.9287 18.5832C74.0743 18.691 74.2498 18.7494 74.43 18.75H76.57C76.69 18.75 76.8067 18.7633 76.92 18.79ZM29.27 41.36C26.9 43.35 18.79 42.5 15.55 42.5C15.3658 42.4997 15.1885 42.5701 15.0545 42.6965C14.9206 42.823 14.8402 42.9961 14.83 43.18L14.72 45.35C14.7159 45.4352 14.7295 45.5203 14.7598 45.6002C14.7902 45.6801 14.8367 45.7531 14.8965 45.8148C14.9563 45.8765 15.0283 45.9257 15.1079 45.9592C15.1876 45.9928 15.2734 46.01 15.36 46.01H78.41C78.5759 46.0101 78.7376 45.958 78.8722 45.8611C79.0068 45.7642 79.1075 45.6274 79.16 45.47C80.04 42.85 78.99 42.29 76.66 42.41C73.16 42.5833 69.6367 42.5733 66.09 42.38C64.53 42.3 64.0333 41.5333 64.6 40.08L67.87 31.66C68.43 30.22 69.48 29.5033 71.02 29.51L76.67 29.55C77.27 29.55 77.3733 29.3267 76.98 28.88C75.1133 26.7267 73.12 25.6633 71 25.69C55.2533 25.8633 39.5067 25.89 23.76 25.77C22.12 25.76 17.32 26.98 17.47 29.12C17.4776 29.2447 17.5326 29.3617 17.6237 29.4472C17.7148 29.5327 17.8351 29.5802 17.96 29.58L24.57 29.54C24.7269 29.5396 24.8807 29.5858 25.0122 29.6729C25.1438 29.76 25.2474 29.8842 25.31 30.03L29.56 40.21C29.6407 40.4075 29.6561 40.6257 29.6039 40.8326C29.5517 41.0395 29.4347 41.2243 29.27 41.36ZM24.37 38.16C24.57 32.41 19.58 32.37 15.22 33.29C15.0786 33.3202 14.9522 33.3998 14.8628 33.5148C14.7733 33.6298 14.7263 33.7732 14.73 33.92L14.81 38.2C14.8152 38.3477 14.8775 38.4876 14.9839 38.5902C15.0902 38.6928 15.2322 38.7501 15.38 38.75H23.75C23.9094 38.7502 24.0627 38.689 24.1781 38.5791C24.2936 38.4693 24.3623 38.3192 24.37 38.16ZM79.25 33.78C79.25 33.6841 79.2311 33.5892 79.1944 33.5006C79.1578 33.4121 79.104 33.3316 79.0362 33.2638C78.9684 33.196 78.8879 33.1423 78.7994 33.1056C78.7108 33.0689 78.6159 33.05 78.52 33.05L71.78 33.08C71.6364 33.0808 71.4963 33.1239 71.3772 33.204C71.258 33.284 71.1651 33.3974 71.11 33.53L69.38 37.76C69.3359 37.8709 69.3196 37.9909 69.3326 38.1095C69.3456 38.2282 69.3875 38.3418 69.4546 38.4405C69.5217 38.5392 69.612 38.6199 69.7175 38.6756C69.8231 38.7313 69.9407 38.7603 70.06 38.76L78.52 38.7C78.6159 38.7 78.7108 38.6811 78.7994 38.6444C78.8879 38.6077 78.9684 38.554 79.0362 38.4862C79.104 38.4184 79.1578 38.3379 79.1944 38.2494C79.2311 38.1608 79.25 38.0659 79.25 37.97V33.78ZM75.4486 50.0863C75.4466 49.9723 75.3994 49.8637 75.3174 49.7845C75.2354 49.7053 75.1252 49.6619 75.0112 49.6639L68.5322 49.777C68.4757 49.778 68.42 49.7901 68.3682 49.8126C68.3164 49.8351 68.2696 49.8676 68.2304 49.9082C68.1911 49.9488 68.1603 49.9968 68.1396 50.0493C68.1189 50.1018 68.1087 50.1579 68.1097 50.2144L68.1914 54.8937C68.1934 55.0077 68.2406 55.1163 68.3226 55.1955C68.4047 55.2747 68.5148 55.3181 68.6288 55.3161L75.1078 55.203C75.1643 55.202 75.22 55.1899 75.2718 55.1674C75.3236 55.1449 75.3704 55.1124 75.4096 55.0718C75.4489 55.0312 75.4797 54.9832 75.5004 54.9307C75.5211 54.8782 75.5313 54.8221 75.5303 54.7656L75.4486 50.0863ZM25.7795 50.602C25.7776 50.4838 25.7525 50.3672 25.7056 50.2587C25.6587 50.1502 25.5908 50.0521 25.506 49.9698C25.4211 49.8876 25.3208 49.8228 25.211 49.7793C25.1011 49.7358 24.9837 49.7143 24.8655 49.7162L19.2462 49.8045C19.0075 49.8083 18.7802 49.9067 18.6141 50.0781C18.448 50.2495 18.3568 50.4798 18.3605 50.7185L18.4205 54.538C18.4223 54.6562 18.4475 54.7728 18.4944 54.8813C18.5413 54.9898 18.6092 55.0879 18.694 55.1702C18.7789 55.2525 18.8792 55.3172 18.989 55.3607C19.0989 55.4042 19.2163 55.4257 19.3345 55.4238L24.9538 55.3355C25.1925 55.3317 25.4198 55.2333 25.5859 55.0619C25.752 54.8905 25.8432 54.6602 25.8395 54.4215L25.7795 50.602Z" fill="#6366F1"/>
<path d="M60.7598 40.53C60.7598 41.0472 60.5543 41.5432 60.1886 41.9089C59.8229 42.2746 59.3269 42.48 58.8098 42.48H35.2098C34.6926 42.48 34.1966 42.2746 33.8309 41.9089C33.4652 41.5432 33.2598 41.0472 33.2598 40.53V31.45C33.2598 30.9328 33.4652 30.4368 33.8309 30.0711C34.1966 29.7054 34.6926 29.5 35.2098 29.5H58.8098C59.3269 29.5 59.8229 29.7054 60.1886 30.0711C60.5543 30.4368 60.7598 30.9328 60.7598 31.45V40.53ZM57.1168 34.2023C57.1165 34.0526 57.0868 33.9044 57.0292 33.7662C56.9717 33.628 56.8875 33.5025 56.7815 33.3968C56.6754 33.2911 56.5496 33.2074 56.4112 33.1503C56.2728 33.0933 56.1245 33.064 55.9748 33.0643L37.9949 33.0957C37.8452 33.096 37.697 33.1257 37.5588 33.1832C37.4206 33.2408 37.295 33.325 37.1894 33.431C37.0837 33.5371 36.9999 33.6629 36.9429 33.8013C36.8858 33.9397 36.8566 34.088 36.8569 34.2377L36.8628 37.6177C36.863 37.7674 36.8928 37.9156 36.9503 38.0538C37.0078 38.192 37.092 38.3175 37.1981 38.4232C37.3041 38.5289 37.4299 38.6126 37.5684 38.6697C37.7068 38.7267 37.8551 38.756 38.0048 38.7557L55.9847 38.7243C56.1344 38.724 56.2826 38.6943 56.4208 38.6368C56.559 38.5792 56.6845 38.495 56.7902 38.389C56.8959 38.2829 56.9796 38.1571 57.0367 38.0187C57.0937 37.8803 57.1229 37.732 57.1227 37.5823L57.1168 34.2023Z" fill="#6366F1"/>
<path d="M46.2666 53.572L46.0267 53.5682C45.0713 53.5532 44.2847 54.3155 44.2697 55.2708L44.2113 58.9903C44.1963 59.9457 44.9585 60.7323 45.9139 60.7473L46.1539 60.7511C47.1092 60.7661 47.8958 60.0038 47.9108 59.0485L47.9692 55.3289C47.9843 54.3736 47.222 53.587 46.2666 53.572Z" fill="#6366F1"/>
<path d="M46.2911 64.5417L45.9911 64.5375C45.0468 64.5244 44.2706 65.2792 44.2574 66.2235L44.204 70.0431C44.1909 70.9874 44.9457 71.7637 45.89 71.7768L46.19 71.781C47.1343 71.7942 47.9105 71.0394 47.9237 70.0951L47.977 66.2754C47.9902 65.3311 47.2354 64.5549 46.2911 64.5417Z" fill="#6366F1"/>
<path d="M46.1795 75.5605H45.9995C45.0441 75.5605 44.2695 76.3351 44.2695 77.2906V81.1906C44.2695 82.146 45.0441 82.9205 45.9995 82.9205H46.1795C47.135 82.9205 47.9095 82.146 47.9095 81.1906V77.2906C47.9095 76.3351 47.135 75.5605 46.1795 75.5605Z" fill="#6366F1"/>
<path d="M46.6901 93.9993L45.6301 94.0193C43.9435 92.1659 43.5001 90.0926 44.3001 87.7993C44.6935 86.6859 45.5001 86.3526 46.7201 86.7993C47.0279 86.9082 47.2793 87.1308 47.4201 87.4193C48.6001 89.8059 48.3568 91.9993 46.6901 93.9993Z" fill="#6366F1"/>
</svg>
