<svg width="27" height="33" viewBox="0 0 27 33" fill="none" xmlns="http://www.w3.org/2000/svg">
<path d="M1.00055 8.79292C1.00055 6.37681 2.59313 4.41675 4.56036 4.41675H6.55562V1H13.5005V4.41675H16.2803C21.6475 4.41675 26 9.76856 26 16.3696V27.3739C26 28.5327 25.6248 29.6481 24.9573 30.4684C24.2899 31.2886 23.3851 31.7501 22.4396 31.7501H4.56036C3.61547 31.7501 2.71014 31.2879 2.04267 30.4684C1.37521 29.6481 1 28.5333 1 27.3739V8.79292H1.00055Z" stroke="black" stroke-width="0.8" stroke-linecap="round" stroke-linejoin="round"/>
<path d="M13.5035 12.5127C9.00318 12.5127 5.35547 16.9997 5.35547 22.5346H21.6515C21.6515 16.9997 18.0032 12.5127 13.5029 12.5127H13.5035Z" stroke="black" stroke-width="0.8" stroke-linecap="round" stroke-linejoin="round"/>
<path d="M13.4971 19.438C12.1072 19.438 10.9805 20.8237 10.9805 22.5331H16.0137C16.0137 20.8237 14.8869 19.438 13.4971 19.438Z" fill="black" stroke="black" stroke-width="0.8" stroke-linecap="round" stroke-linejoin="round"/>
<path d="M13.4961 12.5127V14.5106" stroke="black" stroke-width="0.8" stroke-linecap="round" stroke-linejoin="round"/>
<path d="M18.6253 14.7471L17.9375 15.8038" stroke="black" stroke-width="0.8" stroke-linecap="round" stroke-linejoin="round"/>
<path d="M8.37891 14.793L9.06615 15.8497" stroke="black" stroke-width="0.8" stroke-linecap="round" stroke-linejoin="round"/>
<path d="M13.4961 22.5365L15.3276 17.2158" stroke="black" stroke-width="0.8" stroke-linecap="round" stroke-linejoin="round"/>
</svg>
