<svg width="14" height="14" viewBox="0 0 14 14" fill="none" xmlns="http://www.w3.org/2000/svg">
<path d="M6.62375 0H7.33469C11.0152 0.237344 13.7255 3.01109 14 6.67844V7.36203C13.638 11.0502 11.0633 13.7495 7.29422 14H6.63797C2.98484 13.7069 0.234063 10.99 0 7.32156V6.63797C0.257031 3.00453 2.99906 0.281094 6.62375 0ZM13.0134 7C13.0134 5.40514 12.3799 3.8756 11.2521 2.74786C10.1244 1.62012 8.59486 0.986563 7 0.986563C5.40514 0.986563 3.8756 1.62012 2.74786 2.74786C1.62012 3.8756 0.986563 5.40514 0.986563 7C0.986563 8.59486 1.62012 10.1244 2.74786 11.2521C3.8756 12.3799 5.40514 13.0134 7 13.0134C8.59486 13.0134 10.1244 12.3799 11.2521 11.2521C12.3799 10.1244 13.0134 8.59486 13.0134 7Z" fill="black"/>
<path d="M7.00126 4.97308C7.40899 4.96952 7.73699 4.67675 7.73387 4.31916C7.73075 3.96157 7.39769 3.67457 6.98996 3.67813C6.58224 3.68169 6.25424 3.97445 6.25736 4.33205C6.26048 4.68964 6.59354 4.97664 7.00126 4.97308Z" fill="black"/>
<path d="M7.20016 5.85254H6.79984C6.51775 5.85254 6.28906 6.08122 6.28906 6.36332V9.68176C6.28906 9.96385 6.51775 10.1925 6.79984 10.1925H7.20016C7.48225 10.1925 7.71094 9.96385 7.71094 9.68176V6.36332C7.71094 6.08122 7.48225 5.85254 7.20016 5.85254Z" fill="black"/>
</svg>
