<svg width="17" height="21" viewBox="0 0 17 21" fill="none" xmlns="http://www.w3.org/2000/svg">
<path d="M4.5 20.8018C3.4 20.8018 2.45833 20.4101 1.675 19.6268C0.891667 18.8434 0.5 17.9018 0.5 16.8018V6.80176C0.5 5.70176 0.891667 4.76009 1.675 3.97676C2.45833 3.19342 3.4 2.80176 4.5 2.80176H5.5V0.801758H7.5V2.80176H9.5V0.801758H11.5V2.80176H12.5C13.6 2.80176 14.5417 3.19342 15.325 3.97676C16.1083 4.76009 16.5 5.70176 16.5 6.80176V16.8018C16.5 17.9018 16.1083 18.8434 15.325 19.6268C14.5417 20.4101 13.6 20.8018 12.5 20.8018H4.5ZM4.5 18.8018H12.5C13.05 18.8018 13.521 18.6061 13.913 18.2148C14.3043 17.8228 14.5 17.3518 14.5 16.8018V6.80176C14.5 6.25176 14.3043 5.78109 13.913 5.38976C13.521 4.99776 13.05 4.80176 12.5 4.80176H4.5C3.95 4.80176 3.47933 4.99776 3.088 5.38976C2.696 5.78109 2.5 6.25176 2.5 6.80176V16.8018C2.5 17.3518 2.696 17.8228 3.088 18.2148C3.47933 18.6061 3.95 18.8018 4.5 18.8018ZM4.5 8.80176H12.5V6.80176H4.5V8.80176ZM8.5 16.8018C9.2 16.8018 9.79167 16.5644 10.275 16.0898C10.7583 15.6144 11 15.0351 11 14.3518C11 13.8018 10.8417 13.3308 10.525 12.9388C10.2083 12.5474 9.53333 11.7518 8.5 10.5518C7.45 11.7518 6.771 12.5518 6.463 12.9518C6.15433 13.3518 6 13.8184 6 14.3518C6 15.0351 6.24167 15.6144 6.725 16.0898C7.20833 16.5644 7.8 16.8018 8.5 16.8018ZM2.5 4.80176V18.8018V4.80176Z" fill="black"/>
</svg>
