<?xml version="1.0" encoding="utf-8"?>
<!-- Generator: Adobe Illustrator 27.0.0, SVG Export Plug-In . SVG Version: 6.00 Build 0)  -->
<svg version="1.1" id="Layer_1" xmlns="http://www.w3.org/2000/svg" xmlns:xlink="http://www.w3.org/1999/xlink" x="0px" y="0px"
	 viewBox="0 0 512 512" style="enable-background:new 0 0 512 512;" xml:space="preserve">
<style type="text/css">
	.st0{fill:none;stroke:#000000;stroke-width:20.2238;stroke-linecap:round;stroke-linejoin:round;}
	.st1{fill:none;stroke:#000000;stroke-width:20.2238;stroke-linecap:round;stroke-linejoin:round;stroke-miterlimit:10;}
</style>
<g>
	<circle class="st0" cx="256" cy="256" r="235"/>
	<line class="st0" x1="217" y1="424.3" x2="307.6" y2="424.3"/>
	<line class="st0" x1="84.1" y1="376" x2="114.4" y2="355.3"/>
	<line class="st0" x1="46.8" y1="270.7" x2="77.1" y2="270.7"/>
	<line class="st0" x1="70.4" y1="160.1" x2="100.8" y2="182.1"/>
	<line class="st0" x1="148.3" y1="75.7" x2="170.8" y2="106"/>
	<line class="st0" x1="371.9" y1="80.8" x2="349.4" y2="111.1"/>
	<line class="st0" x1="264.6" y1="46.7" x2="264.6" y2="77"/>
	<line class="st0" x1="452.1" y1="180.7" x2="421.7" y2="197.9"/>
	<path class="st1" d="M360.7,205.9l-73.3,73.8c-14.9,15-37.5,22.1-56.9,18.1c-26.2-5.4-52.8-20.3-26.9-60.9
		c10.6-16.6,31.2-27.9,51.9-28.4L360.7,205.9z"/>
</g>
</svg>
