<svg width="28" height="26" viewBox="0 0 28 26" fill="none" xmlns="http://www.w3.org/2000/svg">
<path d="M2.29412 0C1.03654 0 0 1.03654 0 2.29412V25.2353C0 25.6565 0.34352 26 0.764706 26H3.82353C4.24471 26 4.58824 25.6565 4.58824 25.2353V23.7059C4.58824 23.2817 4.92877 22.9412 5.35294 22.9412H22.1765C22.6006 22.9412 22.9412 23.2817 22.9412 23.7059V25.2353C22.9412 25.6565 23.2847 26 23.7059 26H26.7647C27.1859 26 27.5294 25.6565 27.5294 25.2353V2.29412C27.5294 1.03654 26.4929 0 25.2353 0H2.29412ZM2.29412 1.52941H25.2353C25.6595 1.52941 26 1.86995 26 2.29412V10.0846C25.758 9.99793 25.5041 9.94118 25.2353 9.94118H23.7059V8.41177C23.7089 8.25046 23.6581 8.08915 23.5625 7.95772C23.5625 7.95772 22.8545 7.04067 21.3162 6.21324C19.7778 5.3858 17.3552 4.58824 13.7647 4.58824C10.1742 4.58824 7.75161 5.3858 6.21324 6.21324C4.67486 7.04067 3.96691 7.95772 3.96691 7.95772C3.87132 8.08915 3.82054 8.25046 3.82353 8.41177V9.94118H2.29412C2.02528 9.94118 1.77137 9.99793 1.52941 10.0846V2.29412C1.52941 1.86995 1.86995 1.52941 2.29412 1.52941ZM13.7647 6.11765C17.1312 6.11765 19.2879 6.84949 20.5993 7.55147C21.7971 8.1937 22.1078 8.65372 22.1765 8.74632V9.94118H5.35294V8.74632C5.42165 8.65372 5.73231 8.1937 6.93015 7.55147C8.2415 6.84949 10.3982 6.11765 13.7647 6.11765ZM2.29412 11.4706H25.2353C25.6595 11.4706 26 11.8111 26 12.2353V24.4706H24.4706V23.7059C24.4706 22.4483 23.4341 21.4118 22.1765 21.4118H5.35294C4.09536 21.4118 3.05882 22.4483 3.05882 23.7059V24.4706H1.52941V12.2353C1.52941 11.8111 1.86995 11.4706 2.29412 11.4706Z" fill="black"/>
</svg>
