<svg width="22" height="17" viewBox="0 0 22 17" fill="none" xmlns="http://www.w3.org/2000/svg">
<path d="M20.625 16.5C20.625 16.5 22 16.5 22 15.125C22 13.75 20.625 9.625 15.125 9.625C9.625 9.625 8.25 13.75 8.25 15.125C8.25 16.5 9.625 16.5 9.625 16.5H20.625ZM9.65525 15.125C9.64509 15.1236 9.635 15.1218 9.625 15.1195C9.62638 14.7565 9.85463 13.7032 10.67 12.7545C11.429 11.8649 12.7628 11 15.125 11C17.4859 11 18.8196 11.8663 19.58 12.7545C20.3954 13.7032 20.6223 14.7579 20.625 15.1195L20.614 15.1223C20.6076 15.1233 20.6012 15.1242 20.5948 15.125H9.65525ZM15.125 6.875C15.8543 6.875 16.5538 6.58527 17.0695 6.06954C17.5853 5.55382 17.875 4.85435 17.875 4.125C17.875 3.39565 17.5853 2.69618 17.0695 2.18046C16.5538 1.66473 15.8543 1.375 15.125 1.375C14.3957 1.375 13.6962 1.66473 13.1805 2.18046C12.6647 2.69618 12.375 3.39565 12.375 4.125C12.375 4.85435 12.6647 5.55382 13.1805 6.06954C13.6962 6.58527 14.3957 6.875 15.125 6.875ZM19.25 4.125C19.25 4.6667 19.1433 5.2031 18.936 5.70357C18.7287 6.20404 18.4249 6.65877 18.0418 7.04182C17.6588 7.42486 17.204 7.7287 16.7036 7.936C16.2031 8.1433 15.6667 8.25 15.125 8.25C14.5833 8.25 14.0469 8.1433 13.5464 7.936C13.046 7.7287 12.5912 7.42486 12.2082 7.04182C11.8251 6.65877 11.5213 6.20404 11.314 5.70357C11.1067 5.2031 11 4.6667 11 4.125C11 3.03098 11.4346 1.98177 12.2082 1.20818C12.9818 0.434597 14.031 0 15.125 0C16.219 0 17.2682 0.434597 18.0418 1.20818C18.8154 1.98177 19.25 3.03098 19.25 4.125ZM9.537 10.01C8.98698 9.8368 8.42 9.72295 7.84575 9.67037C7.52308 9.63969 7.19912 9.62455 6.875 9.625C1.375 9.625 0 13.75 0 15.125C0 16.0421 0.457875 16.5 1.375 16.5H7.172C6.96816 16.0707 6.86651 15.6001 6.875 15.125C6.875 13.7362 7.39338 12.3172 8.37375 11.132C8.70788 10.7277 9.097 10.3496 9.537 10.01ZM6.765 11C5.95121 12.2227 5.51161 13.6562 5.5 15.125H1.375C1.375 14.7675 1.6005 13.7087 2.42 12.7545C3.16938 11.88 4.4715 11.0275 6.765 11.0014V11ZM2.0625 4.8125C2.0625 3.71848 2.4971 2.66927 3.27068 1.89568C4.04427 1.1221 5.09348 0.6875 6.1875 0.6875C7.28152 0.6875 8.33073 1.1221 9.10432 1.89568C9.8779 2.66927 10.3125 3.71848 10.3125 4.8125C10.3125 5.90652 9.8779 6.95573 9.10432 7.72932C8.33073 8.5029 7.28152 8.9375 6.1875 8.9375C5.09348 8.9375 4.04427 8.5029 3.27068 7.72932C2.4971 6.95573 2.0625 5.90652 2.0625 4.8125ZM6.1875 2.0625C5.45816 2.0625 4.75868 2.35223 4.24296 2.86796C3.72723 3.38368 3.4375 4.08315 3.4375 4.8125C3.4375 5.54185 3.72723 6.24132 4.24296 6.75704C4.75868 7.27277 5.45816 7.5625 6.1875 7.5625C6.91685 7.5625 7.61632 7.27277 8.13204 6.75704C8.64777 6.24132 8.9375 5.54185 8.9375 4.8125C8.9375 4.08315 8.64777 3.38368 8.13204 2.86796C7.61632 2.35223 6.91685 2.0625 6.1875 2.0625Z" fill="#B6B8BD"/>
</svg>
