<svg width="30" height="28" viewBox="0 0 30 28" fill="none" xmlns="http://www.w3.org/2000/svg">
<path d="M4.69618 19.6357C4.38618 23.3687 7.20202 26.417 10.9478 26.417H17.1349C21.3457 26.417 24.2391 23.0199 23.5416 18.8607C22.8053 14.4949 18.5945 10.917 14.1641 10.917C9.3591 10.917 5.0966 14.8437 4.69618 19.6357Z" stroke="black" stroke-width="1.9375" stroke-linecap="round" stroke-linejoin="round"/>
<path d="M12.5239 7.68783C14.3073 7.68783 15.753 6.24208 15.753 4.45866C15.753 2.67524 14.3073 1.22949 12.5239 1.22949C10.7404 1.22949 9.29468 2.67524 9.29468 4.45866C9.29468 6.24208 10.7404 7.68783 12.5239 7.68783Z" stroke="black" stroke-width="1.9375" stroke-linecap="round" stroke-linejoin="round"/>
<path d="M21.3458 9.23747C22.7726 9.23747 23.9291 8.08087 23.9291 6.65413C23.9291 5.2274 22.7726 4.0708 21.3458 4.0708C19.9191 4.0708 18.7625 5.2274 18.7625 6.65413C18.7625 8.08087 19.9191 9.23747 21.3458 9.23747Z" stroke="black" stroke-width="1.9375" stroke-linecap="round" stroke-linejoin="round"/>
<path d="M26.125 14.4039C27.195 14.4039 28.0625 13.5364 28.0625 12.4664C28.0625 11.3962 27.195 10.5288 26.125 10.5288C25.055 10.5288 24.1875 11.3962 24.1875 12.4664C24.1875 13.5364 25.055 14.4039 26.125 14.4039Z" stroke="black" stroke-width="1.9375" stroke-linecap="round" stroke-linejoin="round"/>
<path d="M4.12801 11.8205C5.55475 11.8205 6.71134 10.6639 6.71134 9.23714C6.71134 7.81041 5.55475 6.65381 4.12801 6.65381C2.70127 6.65381 1.54468 7.81041 1.54468 9.23714C1.54468 10.6639 2.70127 11.8205 4.12801 11.8205Z" stroke="black" stroke-width="1.9375" stroke-linecap="round" stroke-linejoin="round"/>
</svg>
