<svg width="111" height="111" viewBox="0 0 111 111" fill="none" xmlns="http://www.w3.org/2000/svg">
<g clip-path="url(#clip0_657_17478)">
<path d="M55.5 0C24.8482 0 0 24.8482 0 55.5C0 86.1518 24.8482 111 55.5 111C86.1518 111 111 86.1518 111 55.5C111 24.8482 86.1518 0 55.5 0ZM55.5 19.5117C63.5258 19.5117 70.0321 27.2011 70.0321 36.6861C70.0321 46.1712 63.5258 53.8606 55.5 53.8606C47.4742 53.8606 40.9679 46.1712 40.9679 36.6861C40.9679 27.2011 47.4742 19.5117 55.5 19.5117ZM80.0978 87.1523H30.9022C28.4355 87.1523 26.4358 85.1526 26.4358 82.6859C26.4358 71.1438 39.4481 61.7871 55.5 61.7871C71.5519 61.7871 84.5642 71.1438 84.5642 82.6859C84.5642 85.1526 82.5647 87.1523 80.0978 87.1523Z" fill="#CECECE"/>
</g>
<defs>
<clipPath id="clip0_657_17478">
<rect width="111" height="111" fill="white"/>
</clipPath>
</defs>
</svg>
