<?xml version="1.0" encoding="UTF-8"?>
<svg id="Capa_1" data-name="Capa 1" xmlns="http://www.w3.org/2000/svg" viewBox="0 0 25 25">
  <path d="M21.961,5.225H3.039C1.41,5.225,.085,6.427,.085,7.904v9.193c0,1.477,1.325,2.678,2.954,2.678H21.961c1.629,0,2.954-1.201,2.954-2.678V7.904c0-1.477-1.325-2.678-2.954-2.678Zm1.435,11.871c0,.639-.644,1.159-1.435,1.159H3.039c-.792,0-1.436-.52-1.436-1.159V7.904c0-.639,.644-1.159,1.436-1.159H21.961c.791,0,1.435,.52,1.435,1.159v9.193Z"/>
  <path d="M8.353,10.54h-1.519v1.307h1.519v-1.307Z"/>
  <path d="M8.353,15.768h-1.519v1.307h1.519v-1.307Z"/>
  <path d="M8.353,7.925h-1.519v1.307h1.519v-1.307Z"/>
  <path d="M8.353,13.154h-1.519v1.307h1.519v-1.307Z"/>
  <path d="M15.259,10.416c0-1.185-.984-2.157-2.158-2.157-1.185,0-2.157,.96-2.157,2.157,0,1.209,.972,2.157,2.157,2.157,1.174,0,2.158-.96,2.158-2.157Zm-3.094,0c0-.522,.427-.936,.936-.936s.936,.415,.936,.936-.427,.936-.936,.936-.936-.415-.936-.936Z"/>
  <path d="M18.668,12.503c-1.185-.004-2.161,.953-2.166,2.15-.004,1.209,.965,2.161,2.15,2.165,1.174,.004,2.16-.953,2.165-2.15,.004-1.186-.976-2.161-2.15-2.165Zm-.008,3.094c-.509,0-.936-.415-.936-.937s.427-.936,.936-.936,.936,.415,.936,.936c0,.522-.426,.937-.936,.937Z"/>
  <path d="M17.465,7.92l-4.579,8.609,1.341,.713,4.579-8.609-1.341-.713Z"/>
</svg>