<svg width="28" height="28" viewBox="0 0 28 28" fill="none" xmlns="http://www.w3.org/2000/svg">
<circle cx="14" cy="14" r="13.4" stroke="black" stroke-width="1.2"/>
<path d="M21 10.9423V17.4112C20.8384 18.6887 20.0065 19.2952 18.7841 19.2923C16.8681 19.2889 14.9594 19.2887 13.058 19.2916C13.0408 19.2916 13.0243 19.2983 13.0121 19.3104C12.9999 19.3225 12.9929 19.3389 12.9928 19.3561C12.9923 19.8049 12.9925 20.2561 12.9935 20.7097C12.9949 21.48 12.6174 21.646 11.8884 21.6452C10.8614 21.6447 9.83478 21.6447 8.8087 21.6452C8.22512 21.6457 7.92778 21.3556 7.91667 20.7749C7.90749 20.2976 7.90169 19.8387 7.89928 19.3981C7.89928 19.357 7.87922 19.3324 7.83913 19.3242C6.71498 19.087 6.10193 18.4281 6 17.3474V10.8981C6.14855 9.69161 6.98333 9.03799 8.16884 9.03726C11.6973 9.0363 15.2256 9.03992 18.7536 9.04813C19.0355 9.04886 19.3261 9.03871 19.5891 9.12784C20.4317 9.4119 20.902 10.0167 21 10.9423ZM6.95362 11.3923H20.0406C20.0656 11.3923 20.0895 11.3824 20.1072 11.3647C20.1249 11.3471 20.1348 11.3231 20.1348 11.2981V11.109C20.1348 10.7932 20.0077 10.4904 19.7814 10.2671C19.5551 10.0439 19.2483 9.91842 18.9283 9.91842H8.06594C7.74595 9.91842 7.43907 10.0439 7.2128 10.2671C6.98654 10.4904 6.85942 10.7932 6.85942 11.109V11.2981C6.85942 11.3231 6.86935 11.3471 6.88701 11.3647C6.90468 11.3824 6.92864 11.3923 6.95362 11.3923ZM20.0732 12.2619L6.93551 12.2612C6.92263 12.2612 6.91028 12.2662 6.90117 12.2752C6.89207 12.2842 6.88696 12.2963 6.88696 12.309C6.88792 13.908 6.88792 15.5129 6.88696 17.1235C6.88623 17.8141 7.12101 18.267 7.84058 18.4076C7.85193 18.4097 7.86365 18.4091 7.87472 18.4058C7.88578 18.4024 7.89586 18.3964 7.90407 18.3883C7.91228 18.3802 7.91838 18.3701 7.92184 18.3591C7.9253 18.3481 7.92601 18.3363 7.92391 18.3249C7.83212 17.8443 7.98864 17.503 8.39348 17.301C8.4529 17.2713 8.53623 17.2865 8.60145 17.2264C8.61933 17.2095 8.62705 17.1887 8.62464 17.1641C8.52029 16.1547 8.98551 15.3191 10.0239 15.1583C11.4493 14.9373 12.3978 15.7097 12.2993 17.1677C12.2979 17.1906 12.3047 17.2133 12.3186 17.2315C12.3324 17.2497 12.3523 17.2623 12.3746 17.267C13.0007 17.396 12.9674 17.8532 12.9949 18.3764C12.9969 18.4049 13.0121 18.4194 13.0406 18.4199C15.0222 18.4223 17.0034 18.4215 18.9841 18.4177C19.4357 18.4168 19.765 18.2315 19.9717 17.8619C20.1529 17.538 20.1116 17.2315 20.1116 16.8438C20.1136 15.3307 20.1136 13.8162 20.1116 12.3003C20.1116 12.2747 20.0988 12.2619 20.0732 12.2619ZM9.52971 17.2431H11.3717C11.3858 17.2431 11.3992 17.2375 11.4091 17.2275C11.4191 17.2176 11.4246 17.2042 11.4246 17.1902V16.7952C11.4246 16.5873 11.3412 16.3878 11.1927 16.2408C11.0441 16.0938 10.8427 16.0112 10.6326 16.0112H10.2688C10.0588 16.0112 9.85733 16.0938 9.70879 16.2408C9.56026 16.3878 9.47681 16.5873 9.47681 16.7952V17.1902C9.47681 17.2042 9.48238 17.2176 9.4923 17.2275C9.50222 17.2375 9.51568 17.2431 9.52971 17.2431ZM12.1209 18.1525C12.1209 18.1471 12.1199 18.1418 12.1178 18.137C12.1158 18.132 12.1128 18.1275 12.109 18.1238C12.1052 18.12 12.1008 18.117 12.0958 18.115C12.0909 18.113 12.0856 18.112 12.0803 18.112L8.81074 18.1176C8.80541 18.1177 8.80013 18.1187 8.79521 18.1207C8.79029 18.1228 8.78583 18.1258 8.78206 18.1296C8.7783 18.1333 8.77532 18.1378 8.77329 18.1428C8.77125 18.1477 8.77022 18.153 8.77022 18.1583L8.7747 20.7235C8.77471 20.7289 8.77577 20.7341 8.77782 20.7391C8.77987 20.7439 8.78286 20.7484 8.78664 20.7522C8.79041 20.756 8.79489 20.7589 8.79982 20.761C8.80475 20.763 8.81003 20.764 8.81535 20.764L12.0849 20.7583C12.0902 20.7583 12.0955 20.7573 12.1004 20.7552C12.1054 20.7531 12.1098 20.7502 12.1136 20.7464C12.1174 20.7426 12.1203 20.7381 12.1224 20.7332C12.1244 20.7283 12.1254 20.723 12.1254 20.7177L12.1209 18.1525Z" fill="black"/>
<path d="M13.0262 13.2598H8.35666C8.11653 13.2598 7.92188 13.4544 7.92188 13.6945V13.7105C7.92188 13.9506 8.11653 14.1453 8.35666 14.1453H13.0262C13.2664 14.1453 13.461 13.9506 13.461 13.7105V13.6945C13.461 13.4544 13.2664 13.2598 13.0262 13.2598Z" fill="black"/>
<path d="M19.0923 14.9132C19.0923 15.2063 18.9758 15.4873 18.7686 15.6946C18.5613 15.9018 18.2802 16.0182 17.9872 16.0182H15.5582C15.2651 16.0182 14.984 15.9018 14.7768 15.6946C14.5696 15.4873 14.4531 15.2063 14.4531 14.9132V14.3668C14.4531 14.0737 14.5696 13.7926 14.7768 13.5854C14.984 13.3781 15.2651 13.2617 15.5582 13.2617H17.9872C18.2802 13.2617 18.5613 13.3781 18.7686 13.5854C18.9758 13.7926 19.0923 14.0737 19.0923 14.3668V14.9132ZM18.2081 14.3222C18.2081 14.2994 18.2036 14.2769 18.1949 14.2559C18.1863 14.2349 18.1736 14.2157 18.1575 14.1996C18.1415 14.1835 18.1224 14.1707 18.1014 14.162C18.0804 14.1533 18.0579 14.1487 18.0352 14.1487L15.5236 14.1443C15.5008 14.1443 15.4783 14.1487 15.4573 14.1574C15.4362 14.1661 15.4171 14.1788 15.401 14.1948C15.3849 14.2109 15.3721 14.23 15.3633 14.251C15.3546 14.2719 15.3501 14.2945 15.3501 14.3172L15.3489 14.965C15.3489 14.9878 15.3533 15.0103 15.362 15.0313C15.3707 15.0523 15.3834 15.0715 15.3994 15.0876C15.4155 15.1037 15.4346 15.1165 15.4556 15.1252C15.4765 15.134 15.4991 15.1385 15.5218 15.1385L18.0334 15.1429C18.0562 15.1429 18.0787 15.1385 18.0997 15.1298C18.1207 15.1212 18.1399 15.1084 18.156 15.0924C18.172 15.0763 18.1849 15.0573 18.1936 15.0363C18.2023 15.0153 18.2069 14.9928 18.2069 14.97L18.2081 14.3222Z" fill="black"/>
</svg>
