<svg width="20" height="20" viewBox="0 0 20 20" fill="none" xmlns="http://www.w3.org/2000/svg">
<path d="M3.35 4.44211C2.45 3.80211 2.23 2.56211 2.86 1.65211C3.49 0.752112 4.74 0.532112 5.65 1.16211C6.55 1.80211 6.77 3.04211 6.14 3.95211C5.5 4.85211 4.26 5.07211 3.35 4.44211ZM14 17.8021H6.93C5.45 17.8021 4.19 16.7221 3.97 15.2621L2 5.80211H0L1.99 15.5621C2.17369 16.7431 2.77355 17.8195 3.68128 18.5971C4.589 19.3746 5.74479 19.802 6.94 19.8021H14V17.8021ZM14.23 13.8021H9.35L8.32 9.70211C9.9 10.5921 11.6 11.2421 13.47 10.9221V8.79211C11.84 9.10211 10.03 8.52211 8.78 7.54211L7.14 6.27211C6.91 6.09211 6.65 5.97211 6.38 5.89211C6.05881 5.79737 5.72028 5.77685 5.39 5.83211H5.37C4.78113 5.93666 4.2574 6.26957 3.91279 6.75839C3.56818 7.24721 3.43061 7.85235 3.53 8.44211L4.88 14.3621C5.01191 15.0481 5.37845 15.6668 5.91673 16.112C6.455 16.5572 7.13146 16.8012 7.83 16.8021H14.68L18.5 19.8021L20 18.3021L14.23 13.8021Z" fill="black"/>
</svg>
