<svg width="207" height="175" viewBox="0 0 207 175" fill="none" xmlns="http://www.w3.org/2000/svg">
<path d="M207 26.8V116.07C204.77 133.7 193.29 142.07 176.42 142.03C149.98 141.983 123.64 141.98 97.4 142.02C97.163 142.02 96.9356 142.113 96.7671 142.28C96.5986 142.447 96.5026 142.673 96.5 142.91C96.4933 149.103 96.4967 155.33 96.51 161.59C96.53 172.22 91.32 174.51 81.26 174.5C67.0867 174.493 52.92 174.493 38.76 174.5C30.7067 174.507 26.6033 170.503 26.45 162.49C26.3233 155.903 26.2433 149.57 26.21 143.49C26.21 142.923 25.9333 142.583 25.38 142.47C9.86667 139.197 1.40667 130.103 0 115.19V26.19C2.05 9.54004 13.57 0.52004 29.93 0.51004C78.6233 0.496707 127.313 0.546706 176 0.660039C179.89 0.670039 183.9 0.53004 187.53 1.76004C199.157 5.68004 205.647 14.0267 207 26.8ZM13.16 33.01H193.76C194.105 33.01 194.435 32.8731 194.679 32.6293C194.923 32.3855 195.06 32.0548 195.06 31.71V29.1C195.06 24.7425 193.306 20.5635 190.183 17.4823C187.061 14.4011 182.826 12.67 178.41 12.67H28.51C24.0941 12.67 19.8592 14.4011 16.7367 17.4823C13.6142 20.5635 11.86 24.7425 11.86 29.1V31.71C11.86 32.0548 11.997 32.3855 12.2408 32.6293C12.4846 32.8731 12.8152 33.01 13.16 33.01ZM194.21 45.01L12.91 45C12.7323 45 12.5619 45.0696 12.4362 45.1933C12.3106 45.3171 12.24 45.485 12.24 45.66C12.2533 67.7267 12.2533 89.8734 12.24 112.1C12.23 121.63 15.47 127.88 25.4 129.82C25.5567 129.85 25.7184 129.842 25.8711 129.796C26.0238 129.749 26.1629 129.666 26.2762 129.554C26.3895 129.442 26.4737 129.303 26.5214 129.151C26.5692 128.999 26.579 128.837 26.55 128.68C25.2833 122.047 27.4433 117.337 33.03 114.55C33.85 114.14 35 114.35 35.9 113.52C36.1467 113.287 36.2533 113 36.22 112.66C34.78 98.73 41.2 87.2 55.53 84.98C75.2 81.93 88.29 92.59 86.93 112.71C86.9109 113.026 87.0055 113.339 87.1964 113.591C87.3874 113.842 87.662 114.016 87.97 114.08C96.61 115.86 96.15 122.17 96.53 129.39C96.5567 129.783 96.7667 129.983 97.16 129.99C124.507 130.023 151.847 130.013 179.18 129.96C185.413 129.947 189.957 127.39 192.81 122.29C195.31 117.82 194.74 113.59 194.74 108.24C194.767 87.36 194.767 66.46 194.74 45.54C194.74 45.1867 194.563 45.01 194.21 45.01ZM48.71 113.75H74.13C74.3236 113.75 74.5093 113.673 74.6462 113.536C74.7831 113.399 74.86 113.214 74.86 113.02V107.57C74.86 104.7 73.7084 101.948 71.6587 99.9191C69.6089 97.89 66.8288 96.75 63.93 96.75H58.91C56.0112 96.75 53.2311 97.89 51.1813 99.9191C49.1316 101.948 47.98 104.7 47.98 107.57V113.02C47.98 113.214 48.0569 113.399 48.1938 113.536C48.3307 113.673 48.5164 113.75 48.71 113.75ZM84.4691 126.3C84.469 126.226 84.4544 126.153 84.4261 126.086C84.3978 126.018 84.3565 125.956 84.3044 125.904C84.2523 125.852 84.1905 125.811 84.1225 125.783C84.0545 125.755 83.9816 125.741 83.9081 125.741L38.7882 125.819C38.7147 125.82 38.6418 125.834 38.5739 125.862C38.506 125.891 38.4444 125.932 38.3924 125.984C38.3405 126.036 38.2994 126.098 38.2714 126.166C38.2433 126.234 38.229 126.307 38.2291 126.38L38.2909 161.78C38.291 161.854 38.3056 161.927 38.3339 161.995C38.3622 162.062 38.4035 162.124 38.4556 162.176C38.5077 162.228 38.5695 162.269 38.6375 162.297C38.7055 162.325 38.7784 162.339 38.8519 162.339L83.9718 162.261C84.0454 162.261 84.1182 162.246 84.1861 162.218C84.254 162.189 84.3156 162.148 84.3676 162.096C84.4195 162.044 84.4606 161.982 84.4886 161.914C84.5167 161.846 84.531 161.773 84.5309 161.7L84.4691 126.3Z" fill="#444444"/>
<path d="M96.94 58.77H32.5C29.1863 58.77 26.5 61.4563 26.5 64.77V64.99C26.5 68.3037 29.1863 70.99 32.5 70.99H96.94C100.254 70.99 102.94 68.3037 102.94 64.99V64.77C102.94 61.4563 100.254 58.77 96.94 58.77Z" fill="#444444"/>
<path d="M180.69 81.59C180.69 85.6346 179.083 89.5135 176.223 92.3734C173.363 95.2334 169.484 96.84 165.44 96.84H131.92C127.875 96.84 123.996 95.2334 121.137 92.3734C118.277 89.5135 116.67 85.6346 116.67 81.59V74.05C116.67 70.0055 118.277 66.1266 121.137 63.2667C123.996 60.4067 127.875 58.8 131.92 58.8H165.44C169.484 58.8 173.363 60.4067 176.223 63.2667C179.083 66.1266 180.69 70.0055 180.69 74.05V81.59ZM168.488 73.4344C168.488 73.1206 168.427 72.8097 168.307 72.5195C168.188 72.2293 168.012 71.9656 167.791 71.7433C167.569 71.5209 167.306 71.3444 167.016 71.2238C166.726 71.1032 166.416 71.0409 166.102 71.0403L131.442 70.9798C131.128 70.9793 130.817 71.0406 130.527 71.1602C130.237 71.2798 129.973 71.4553 129.751 71.6769C129.528 71.8984 129.352 72.1616 129.231 72.4514C129.111 72.7411 129.048 73.0518 129.048 73.3656L129.032 82.3056C129.032 82.6195 129.093 82.9304 129.212 83.2206C129.332 83.5107 129.508 83.7745 129.729 83.9968C129.951 84.2191 130.214 84.3956 130.504 84.5163C130.793 84.6369 131.104 84.6992 131.418 84.6997L166.078 84.7602C166.392 84.7608 166.703 84.6995 166.993 84.5799C167.283 84.4603 167.547 84.2847 167.769 84.0632C167.991 83.8417 168.168 83.5785 168.289 83.2887C168.409 82.999 168.472 82.6883 168.472 82.3744L168.488 73.4344Z" fill="#444444"/>
</svg>
