<svg width="18" height="17" viewBox="0 0 18 17" fill="none" xmlns="http://www.w3.org/2000/svg">
<path d="M5.598 6.61629C5.65787 6.676 5.70537 6.74694 5.73777 6.82504C5.77018 6.90314 5.78686 6.98687 5.78686 7.07143C5.78686 7.15599 5.77018 7.23971 5.73777 7.31781C5.70537 7.39591 5.65787 7.46686 5.598 7.52657L4.76614 8.35714H13.2339L12.402 7.52657C12.2813 7.40586 12.2135 7.24214 12.2135 7.07143C12.2135 6.90072 12.2813 6.737 12.402 6.61629C12.5227 6.49557 12.6864 6.42776 12.8571 6.42776C13.0279 6.42776 13.1916 6.49557 13.3123 6.61629L15.2409 8.54486C15.3007 8.60457 15.3482 8.67551 15.3806 8.75361C15.413 8.83172 15.4297 8.91544 15.4297 9C15.4297 9.08456 15.413 9.16828 15.3806 9.24639C15.3482 9.32449 15.3007 9.39543 15.2409 9.45514L13.3123 11.3837C13.1916 11.5044 13.0279 11.5722 12.8571 11.5722C12.6864 11.5722 12.5227 11.5044 12.402 11.3837C12.2813 11.263 12.2135 11.0993 12.2135 10.9286C12.2135 10.7579 12.2813 10.5941 12.402 10.4734L13.2339 9.64286H4.76614L5.598 10.4734C5.71871 10.5941 5.78653 10.7579 5.78653 10.9286C5.78653 11.0993 5.71871 11.263 5.598 11.3837C5.47729 11.5044 5.31357 11.5722 5.14286 11.5722C4.97215 11.5722 4.80843 11.5044 4.68771 11.3837L2.75914 9.45514C2.69928 9.39543 2.65178 9.32449 2.61937 9.24639C2.58696 9.16828 2.57028 9.08456 2.57028 9C2.57028 8.91544 2.58696 8.83172 2.61937 8.75361C2.65178 8.67551 2.69928 8.60457 2.75914 8.54486L4.68771 6.61629C4.74743 6.55642 4.81837 6.50892 4.89647 6.47651C4.97457 6.4441 5.0583 6.42742 5.14286 6.42742C5.22742 6.42742 5.31114 6.4441 5.38924 6.47651C5.46734 6.50892 5.53828 6.55642 5.598 6.61629ZM18 3.85714C18 2.83417 17.5936 1.85309 16.8703 1.12973C16.1469 0.406377 15.1658 0 14.1429 0H3.85714C2.83417 0 1.85309 0.406377 1.12973 1.12973C0.406377 1.85309 0 2.83417 0 3.85714V14.1429C0 15.1658 0.406377 16.1469 1.12973 16.8703C1.85309 17.5936 2.83417 18 3.85714 18H14.1429C15.1658 18 16.1469 17.5936 16.8703 16.8703C17.5936 16.1469 18 15.1658 18 14.1429V3.85714ZM12.8571 1.28571V5.14286C13.3174 5.14286 13.7777 5.30614 14.1429 5.634V1.28571C14.8248 1.28571 15.4789 1.55663 15.9611 2.03887C16.4434 2.5211 16.7143 3.17516 16.7143 3.85714V14.1429C16.7143 14.8248 16.4434 15.4789 15.9611 15.9611C15.4789 16.4434 14.8248 16.7143 14.1429 16.7143V12.366C13.7896 12.6828 13.3316 12.8577 12.8571 12.8571V16.7143H5.14286V12.8571C4.68257 12.8571 4.22229 12.6939 3.85714 12.366V16.7143C3.17516 16.7143 2.5211 16.4434 2.03887 15.9611C1.55663 15.4789 1.28571 14.8248 1.28571 14.1429V3.85714C1.28571 3.17516 1.55663 2.5211 2.03887 2.03887C2.5211 1.55663 3.17516 1.28571 3.85714 1.28571V5.634C4.2104 5.3172 4.66835 5.14226 5.14286 5.14286V1.28571H12.8571Z" fill="black"/>
</svg>
