<svg width="11" height="11" viewBox="0 0 11 11" fill="none" xmlns="http://www.w3.org/2000/svg">
<path fill-rule="evenodd" clip-rule="evenodd" d="M10.1645 3.06799L7.2021 0.618253C6.20431 -0.206735 4.79759 -0.206735 3.79932 0.618253L0.836413 3.06799C0.302765 3.50928 0 4.17813 0 4.87649V9.28134C0 10.1987 0.707405 11.0008 1.64998 11.0008H2.75012C3.66127 11.0008 4.40009 10.262 4.40009 9.35085V7.52711C4.40009 7.15294 4.67763 6.90778 4.94993 6.90778H6.05007C6.32285 6.90778 6.5999 7.15294 6.5999 7.52711V9.35085C6.5999 10.2625 7.33873 11.0008 8.24988 11.0008H9.35002C10.2926 11.0008 11 10.1987 11 9.28134V4.87649C11 4.17813 10.6972 3.50928 10.1631 3.06799H10.1645Z" fill="#675DFE"/>
</svg>
