<?xml version="1.0" encoding="UTF-8"?>
<svg id="Capa_1" data-name="Capa 1" xmlns="http://www.w3.org/2000/svg" viewBox="0 0 25 25">
  <path d="M23.756,6.439H1.244v5.195H23.756V6.439Z" style="fill: none; stroke: #000; stroke-linecap: round; stroke-linejoin: round; stroke-width: 1.732px;"/>
  <path d="M21.159,11.634H3.842v12.122H21.159V11.634Z" style="fill: none; stroke: #000; stroke-linecap: round; stroke-linejoin: round; stroke-width: 1.732px;"/>
  <path d="M12.501,6.439h-3.463c-1.472,0-2.598-1.126-2.598-2.598s1.126-2.598,2.598-2.598c1.905,0,3.463,1.559,3.463,3.463v1.732Z" style="fill: none; stroke: #000; stroke-linecap: round; stroke-linejoin: round; stroke-width: 1.732px;"/>
  <path d="M12.5,6.439h3.463c1.472,0,2.598-1.126,2.598-2.598s-1.126-2.598-2.598-2.598c-1.905,0-3.463,1.559-3.463,3.463v1.732Z" style="fill: none; stroke: #000; stroke-linecap: round; stroke-linejoin: round; stroke-width: 1.732px;"/>
  <path d="M15.963,6.439h-6.927v5.195h6.927V6.439Z" style="fill: none; stroke: #000; stroke-linecap: round; stroke-linejoin: round; stroke-width: 1.732px;"/>
  <path d="M15.097,11.634h-5.195v12.122h5.195V11.634Z" style="fill: none; stroke: #000; stroke-linecap: round; stroke-linejoin: round; stroke-width: 1.732px;"/>
</svg>