<?xml version="1.0" encoding="utf-8"?>
<!-- Generator: Adobe Illustrator 27.0.0, SVG Export Plug-In . SVG Version: 6.00 Build 0)  -->
<svg version="1.1" id="Capa_1" xmlns="http://www.w3.org/2000/svg" xmlns:xlink="http://www.w3.org/1999/xlink" x="0px" y="0px"
	 viewBox="0 0 512 512" style="enable-background:new 0 0 512 512;" xml:space="preserve">
<style type="text/css">
	.st0{fill:none;stroke:#000000;stroke-width:20;stroke-linecap:round;stroke-linejoin:round;}
	.st1{stroke:#000000;stroke-width:20;stroke-linecap:round;stroke-linejoin:round;}
	.st2{fill:none;stroke:#000000;stroke-width:20;stroke-miterlimit:10;}
	.st3{fill:none;stroke:#000000;stroke-width:20;stroke-miterlimit:9.9999;}
</style>
<g>
	<g>
		<line class="st0" x1="308.6" y1="362" x2="329" y2="362"/>
		<line class="st0" x1="479.2" y1="362" x2="499.6" y2="362"/>
		<line class="st0" x1="404" y1="437" x2="404" y2="457.4"/>
		<line class="st0" x1="404" y1="266.6" x2="404" y2="287"/>
		<g>
			<line class="st0" x1="404" y1="328.9" x2="404" y2="367.8"/>
			<line class="st0" x1="392.4" y1="382.7" x2="404" y2="367.8"/>
		</g>
	</g>
	<g>
		<g>
			<path class="st0" d="M262.7,342c-5.8-64.3,41.5-121,105.8-126.9"/>
			<polygon class="st1" points="359.9,239.6 359.9,215.2 359.9,190.7 381.1,203 402.2,215.2 381.1,227.4 			"/>
		</g>
		<g>
			<path class="st2" d="M327,419.5H74.5c-34.3,0-62.1-27.8-62.1-62.1V165.5c0-34.3,27.8-62.1,62.1-62.1h68.3v-8.8
				c0-22.2,18-40.2,40.2-40.2h84.5c22.2,0,40.2,18,40.2,40.2v8.8h68.2c34.3,0,62.1,27.8,62.1,62.1v107.3"/>
			<path class="st2" d="M142.8,103.4h164.9H142.8z"/>
		</g>
		<ellipse class="st3" cx="403.3" cy="362" rx="95.6" ry="95.6"/>
	</g>
</g>
</svg>
