<svg width="35" height="28" viewBox="0 0 35 28" fill="none" xmlns="http://www.w3.org/2000/svg">
<path d="M3.49976 0C2.34867 0 1.3999 0.948762 1.3999 2.09985V12.7304C1.40264 12.7741 1.41084 12.8179 1.42178 12.8616C1.42178 12.8698 1.42178 12.8753 1.42178 12.8835C1.10734 13.3784 0.850332 13.9061 0.656204 14.4802C0.221469 15.7626 0.0355444 17.2336 0 18.8987V19.5986C0 19.6205 0 19.6424 0 19.6643V27.9981H4.89966V25.1982C4.89966 24.6159 5.04184 24.3124 5.22776 24.1264C5.41369 23.9405 5.71718 23.7983 6.29956 23.7983H28.698C29.2804 23.7983 29.5839 23.9405 29.7698 24.1264C29.9557 24.3124 30.0979 24.6159 30.0979 25.1982V27.9981H34.9976V19.708C35.0003 19.6725 35.0003 19.6342 34.9976 19.5986C34.9976 19.358 35.003 19.1311 34.9976 18.8987C34.962 17.2336 34.7761 15.7626 34.3414 14.4802C34.1472 13.9115 33.8875 13.3948 33.5758 12.9054C33.5895 12.8479 33.5977 12.7905 33.5977 12.7304V2.09985C33.5977 0.948762 32.6489 0 31.4978 0H3.49976ZM3.49976 1.3999H31.4978C31.8915 1.3999 32.1978 1.70613 32.1978 2.09985V11.3086C32.0255 11.1637 31.8423 11.0242 31.6509 10.893C31.1834 10.5704 30.6748 10.2696 30.0979 10.0181V6.99951C30.0979 6.50736 29.7753 6.12457 29.4198 5.88397C29.0644 5.64336 28.6297 5.47657 28.0856 5.33713C26.9973 5.05824 25.4689 4.89966 23.4484 4.89966C21.4278 4.89966 19.8994 5.05824 18.8112 5.33713C18.2808 5.47384 17.8488 5.62969 17.4988 5.86209C17.1488 5.62969 16.7168 5.47384 16.1864 5.33713C15.0982 5.05824 13.5698 4.89966 11.5492 4.89966C9.52864 4.89966 8.00023 5.05824 6.91202 5.33713C6.36792 5.47657 5.93318 5.64336 5.57774 5.88397C5.22229 6.12457 4.89966 6.50736 4.89966 6.99951V10.0181C4.32275 10.2696 3.81419 10.5704 3.34664 10.893C3.15525 11.0242 2.97206 11.1637 2.79981 11.3086V2.09985C2.79981 1.70613 3.10603 1.3999 3.49976 1.3999ZM11.5492 6.29956C13.4959 6.29956 14.9396 6.46361 15.8364 6.69329C16.2848 6.80812 16.5938 6.94756 16.7332 7.04326C16.7906 7.08154 16.7934 7.08701 16.7988 7.08701V8.39942C12.1972 8.42949 8.79041 8.774 6.29956 9.53684V7.08701C6.30503 7.08701 6.30777 7.08154 6.36518 7.04326C6.50463 6.94756 6.81359 6.80812 7.262 6.69329C8.15881 6.46361 9.60246 6.29956 11.5492 6.29956ZM23.4484 6.29956C25.3951 6.29956 26.8388 6.46361 27.7356 6.69329C28.184 6.80812 28.4929 6.94756 28.6324 7.04326C28.6898 7.08154 28.6925 7.08701 28.698 7.08701V9.53684C26.2072 8.774 22.8004 8.42949 18.1987 8.39942V7.08701C18.2042 7.08701 18.2069 7.08154 18.2644 7.04326C18.4038 6.94756 18.7128 6.80812 19.1612 6.69329C20.058 6.46361 21.5016 6.29956 23.4484 6.29956ZM17.3675 9.79932C17.4414 9.81026 17.5125 9.81026 17.5863 9.79932C17.6082 9.79932 17.63 9.79932 17.6519 9.79932C24.6569 9.81026 28.7035 10.543 30.8635 12.0304C31.9517 12.7796 32.6106 13.7092 33.029 14.9396C33.3926 16.0114 33.5402 17.332 33.5758 18.8987H1.42178C1.45732 17.332 1.60497 16.0114 1.96861 14.9396C2.38694 13.7092 3.04588 12.7796 4.13409 12.0304C6.29409 10.5403 10.3489 9.80752 17.3675 9.79932ZM1.3999 20.2986H33.5977V26.5982H31.4978V25.1982C31.4978 24.3807 31.29 23.6343 30.776 23.1203C30.262 22.6062 29.5155 22.3984 28.698 22.3984H6.29956C5.48204 22.3984 4.73561 22.6062 4.22158 23.1203C3.70756 23.6343 3.49976 24.3807 3.49976 25.1982V26.5982H1.3999V20.2986Z" fill="black"/>
</svg>
