<svg width="19" height="23" viewBox="0 0 19 23" fill="none" xmlns="http://www.w3.org/2000/svg">
<path d="M18.6833 21.5679H17.1V2.86155H17.7333C17.9233 2.86155 18.05 2.71767 18.05 2.50183V1.06285C18.05 0.847006 17.9233 0.703125 17.7333 0.703125H1.26665C1.07665 0.703125 0.95 0.847006 0.95 1.06285V2.50179C0.95 2.71763 1.07665 2.86151 1.26665 2.86151H1.9V21.5679H0.316654C0.126654 21.5679 0 21.7117 0 21.9276C0 22.1434 0.126654 22.2874 0.316654 22.2874H2.21665H7.6H11.4H16.7833H18.6833C18.8733 22.2874 19 22.1435 19 21.9277C19 21.7118 18.8733 21.5679 18.6833 21.5679ZM1.58335 1.42261H17.4167V2.1421H16.7833H2.21665H1.58335V1.42261ZM7.91665 21.5679V15.8121H9.18331V21.5679H7.91665ZM9.81665 21.5679V15.8121H11.0833V21.5679H9.81665ZM11.7167 21.5679V15.4524C11.7167 15.2365 11.59 15.0927 11.4 15.0927H7.6C7.41 15.0927 7.28335 15.2365 7.28335 15.4524V21.5679H2.53335V2.86155H16.4667V21.5679H11.7167Z" fill="#B6B8BD"/>
<path d="M8.55006 4.30029H6.01671H3.4834C3.2934 4.30029 3.16675 4.44417 3.16675 4.66002V7.53793C3.16675 7.75377 3.2934 7.89766 3.4834 7.89766H6.01675H8.55006C8.74006 7.89766 8.86671 7.75377 8.86671 7.53793V4.66006C8.86671 4.44422 8.74006 4.30029 8.55006 4.30029ZM3.80006 5.01978H5.70006V7.17821H3.80006V5.01978ZM8.2334 7.17821H6.3334V5.01978H8.2334V7.17821Z" fill="#B6B8BD"/>
<path d="M6.3334 15.0928H3.4834C3.2934 15.0928 3.16675 15.2367 3.16675 15.4525V18.3304C3.16675 18.5463 3.2934 18.6901 3.4834 18.6901H6.3334C6.5234 18.6901 6.65006 18.5463 6.65006 18.3304V15.4525C6.65006 15.2367 6.5234 15.0928 6.3334 15.0928ZM6.01671 17.9707H3.80006V15.8123H6.01671V17.9707Z" fill="#B6B8BD"/>
<path d="M15.5166 15.0928H12.6666C12.4766 15.0928 12.35 15.2367 12.35 15.4525V18.3304C12.35 18.5463 12.4766 18.6901 12.6666 18.6901H15.5166C15.7066 18.6901 15.8333 18.5463 15.8333 18.3304V15.4525C15.8333 15.2367 15.7066 15.0928 15.5166 15.0928ZM15.2 17.9707H12.9833V15.8123H15.2V17.9707Z" fill="#B6B8BD"/>
<path d="M15.5166 4.30029H12.9833H10.45C10.26 4.30029 10.1333 4.44417 10.1333 4.66002V7.53793C10.1333 7.75377 10.26 7.89766 10.45 7.89766H12.9833H15.5166C15.7066 7.89766 15.8333 7.75377 15.8333 7.53793V4.66006C15.8333 4.44422 15.7066 4.30029 15.5166 4.30029ZM10.7666 5.01978H12.6666V7.17821H10.7666V5.01978ZM15.2 7.17821H13.3V5.01978H15.2V7.17821Z" fill="#B6B8BD"/>
<path d="M8.55006 9.33691H6.01671H3.4834C3.2934 9.33691 3.16675 9.48079 3.16675 9.69664V12.5746C3.16675 12.7904 3.2934 12.9343 3.4834 12.9343H6.01675H8.55006C8.74006 12.9343 8.86671 12.7904 8.86671 12.5746V9.69664C8.86671 9.48079 8.74006 9.33691 8.55006 9.33691ZM3.80006 10.0564H5.70006V12.2148H3.80006V10.0564ZM8.2334 12.2148H6.3334V10.0564H8.2334V12.2148Z" fill="#B6B8BD"/>
<path d="M15.5166 9.33691H12.9833H10.45C10.26 9.33691 10.1333 9.48079 10.1333 9.69664V12.5746C10.1333 12.7904 10.26 12.9343 10.45 12.9343H12.9833H15.5166C15.7066 12.9343 15.8333 12.7904 15.8333 12.5746V9.69664C15.8333 9.48079 15.7066 9.33691 15.5166 9.33691ZM10.7666 10.0564H12.6666V12.2148H10.7666V10.0564ZM15.2 12.2148H13.3V10.0564H15.2V12.2148Z" fill="#B6B8BD"/>
</svg>
