<svg width="21" height="24" viewBox="0 0 21 24" fill="none" xmlns="http://www.w3.org/2000/svg">
<path d="M0 0.78125V12.6823H1.43182V23.5015H8.11364H12.8864H19.5682V12.6823H21V12.1414V0.78125H0ZM0.954545 1.86317H20.0455V11.6004H19.1711C19.1195 11.5908 19.0669 11.5908 19.0154 11.6004H14.1028L10.5 5.18288L6.89715 11.6004H1.98273C1.95593 11.5953 1.9288 11.5929 1.90163 11.593C1.87851 11.5936 1.85546 11.5961 1.83265 11.6004H0.954545V1.86317ZM10.5 7.1988L13.579 12.6823H18.6136V22.4196H12.8864V17.551C12.8864 16.0636 11.8123 14.8462 10.5 14.8462C9.18773 14.8462 8.11364 16.0636 8.11364 17.551V22.4196H2.38636V12.6823H7.42103L10.5 7.1988ZM3.34091 14.8462V15.3871V19.7148H7.15909V14.8462H3.34091ZM13.8409 14.8462V15.3871V19.7148H17.6591V14.8462H13.8409ZM4.29545 15.9281H6.20455V18.6329H4.29545V15.9281ZM10.5 15.9281C11.2963 15.9281 11.9318 16.6484 11.9318 17.551V22.4196H9.06818V17.551C9.06818 16.6484 9.70368 15.9281 10.5 15.9281ZM14.7955 15.9281H16.7045V18.6329H14.7955V15.9281Z" fill="#30353F"/>
</svg>
