<svg width="20" height="23" viewBox="0 0 20 23" fill="none" xmlns="http://www.w3.org/2000/svg">
<path d="M1.99833 18.9372H4.66284C4.86268 18.9372 4.99589 18.7859 4.99589 18.5588V14.0185C4.99589 13.7915 4.86268 13.6401 4.66284 13.6401H1.99833C1.79849 13.6401 1.66528 13.7915 1.66528 14.0185V18.5588C1.66528 18.7859 1.79849 18.9372 1.99833 18.9372ZM4.32979 18.1805H3.66366V14.3969H4.32979V18.1805ZM2.33142 14.3968H2.99756V18.1804H2.33142V14.3968Z" fill="#B6B8BD"/>
<path d="M14.9878 14.0185V18.5588C14.9878 18.7859 15.121 18.9372 15.3208 18.9372H17.9854C18.1852 18.9372 18.3184 18.7859 18.3184 18.5588V14.0185C18.3184 13.7915 18.1852 13.6401 17.9854 13.6401H15.3208C15.121 13.6401 14.9878 13.7915 14.9878 14.0185ZM17.6523 18.1805H16.9862V14.3969H17.6523V18.1805ZM15.6539 14.3968H16.3201V18.1804H15.6539V14.3968Z" fill="#B6B8BD"/>
<path d="M19.6506 9.09966H19.2732L18.6515 4.86201C18.6182 4.71068 18.4849 4.5593 18.3184 4.5593H16.7641L10.1584 0.0567656C10.0585 -0.0189218 9.92524 -0.0189218 9.82532 0.0567656L3.21957 4.5593H1.66528C1.49874 4.5593 1.36553 4.71063 1.33224 4.86201L0.710515 9.09966H0.333049C0.133212 9.09966 0 9.25099 0 9.47801V10.9914C0 11.2185 0.133212 11.3698 0.333049 11.3698H0.666098V20.0722V22.3423C0.666098 22.5694 0.79931 22.7207 0.999147 22.7207H7.6604H12.3233H18.9845C19.1844 22.7207 19.3176 22.5694 19.3176 22.3423V20.0722V11.3698H19.6506C19.8505 11.3698 19.9837 11.2185 19.9837 10.9915V9.47801C19.9837 9.25099 19.8505 9.09966 19.6506 9.09966ZM18.5848 9.09966H15.9869V6.82948L16.4865 7.17001C16.4966 7.18145 16.51 7.18912 16.5252 7.1947C16.619 7.2445 16.7321 7.23629 16.8196 7.17001C16.9195 7.09432 16.9861 6.98081 16.9861 6.82948V5.31604H18.0186L18.5848 9.09966ZM13.9886 19.6938H13.3224V12.8833H13.9886V19.6938ZM11.3241 19.6938H8.65959V14.3967H11.3241V19.6938ZM12.3233 19.6938H11.9902V14.0184C11.9902 13.7913 11.857 13.64 11.6572 13.64H8.32658C8.12674 13.64 7.99353 13.7913 7.99353 14.0184V19.6938H7.66048H7.32743V12.8833H12.6563V19.6938H12.3233ZM5.99508 12.8833H6.66122V19.6938H5.99508V12.8833ZM14.3217 12.1265H12.9894H6.99431H5.66203H4.66284V10.9914V9.47801V6.37544L9.99183 2.74316L15.3208 6.37544V9.47801V10.9914V12.1265H14.3217ZM9.99183 0.851328L16.32 5.12685V6.14843L15.8204 5.8079L10.1584 1.9486C10.1483 1.93716 10.1349 1.92949 10.1197 1.9239C10.0392 1.88116 9.94452 1.88116 9.864 1.9239C9.84878 1.92949 9.83539 1.93716 9.82532 1.9486L4.16325 5.8079L3.66366 6.14843V5.16467L9.99183 0.851328ZM1.93175 5.316H2.99756V6.82944C2.99756 6.98077 3.06419 7.09427 3.1641 7.16996C3.26402 7.24565 3.39723 7.24565 3.49715 7.16996L3.99675 6.82944V9.09961H1.39886L1.93175 5.316ZM0.666098 9.85636H0.999147H3.99671V10.6131H0.999147H0.666098V9.85636ZM3.99671 11.3698V12.5049C3.99671 12.7319 4.12992 12.8833 4.32976 12.8833H5.32894V19.6938H1.3322V11.3698H3.99671ZM1.33224 20.4506H5.66203H6.99427H7.32732V21.964H1.3322L1.33224 20.4506ZM7.99345 21.964V20.4506H8.3265H11.6571H11.9902V21.964H7.99345ZM18.6515 21.964H12.6563V20.4506H12.9894H14.3216H18.6515V21.964ZM18.6515 19.6938H14.6547V12.8833H15.6539C15.8537 12.8833 15.9869 12.7319 15.9869 12.5049V11.3698H18.6515V19.6938ZM19.3176 10.6131H18.9845H15.987V9.85636H18.9845H19.3176V10.6131Z" fill="#B6B8BD"/>
<path d="M10.3249 17.8015H10.6579C10.8578 17.8015 10.991 17.6503 10.991 17.4234C10.991 17.1966 10.8578 17.0454 10.6579 17.0454H10.3249C10.125 17.0454 9.99182 17.1966 9.99182 17.4234C9.99178 17.6503 10.125 17.8015 10.3249 17.8015Z" fill="#B6B8BD"/>
<path d="M13.6635 8.06811C13.0494 6.4534 11.6319 5.31592 9.99186 5.31592C7.79365 5.31592 5.99512 7.35908 5.99512 9.85628V10.2346C5.99512 10.4616 6.12833 10.613 6.32817 10.613H13.6556C13.8554 10.613 13.9886 10.4616 13.9886 10.2346V9.85628C13.9886 9.32194 13.906 8.80849 13.755 8.33131C13.7528 8.22277 13.72 8.13209 13.6635 8.06811ZM12.8722 7.96449H10.325V6.09173C11.4111 6.21574 12.3471 6.93945 12.8722 7.96449ZM9.65881 6.09173V7.96445H7.11155C7.63671 6.93945 8.57259 6.21574 9.65881 6.09173ZM6.81558 8.72119H9.65881V9.85628H6.66125C6.66125 9.46121 6.71555 9.07994 6.81558 8.72119ZM10.325 9.85628V8.72119H13.1682C13.2683 9.07994 13.3225 9.46121 13.3225 9.85628H10.325Z" fill="#B6B8BD"/>
</svg>
