<svg width="38" height="26" viewBox="0 0 38 26" fill="none" xmlns="http://www.w3.org/2000/svg">
<path d="M6.36326 8.48926H3.97242C3.71393 8.48926 3.50427 8.72743 3.50427 9.02108V12.7457C3.50427 13.0394 3.71393 13.2775 3.97242 13.2775H6.36319C6.62168 13.2775 6.83134 13.0394 6.83134 12.7457V9.02108C6.83141 8.72743 6.62176 8.48926 6.36326 8.48926ZM5.89511 9.55291V9.88601H4.44057V9.55291H5.89511ZM4.44057 12.214V10.9497H5.89504V12.214H4.44057Z" fill="#B6B8BD"/>
<path d="M8.95887 13.2775H11.3497C11.6082 13.2775 11.8179 13.0394 11.8179 12.7457V9.02108C11.8179 8.72743 11.6082 8.48926 11.3497 8.48926H8.95887C8.70038 8.48926 8.49072 8.72743 8.49072 9.02108V12.7457C8.49072 13.0394 8.70038 13.2775 8.95887 13.2775ZM9.42702 12.2139V10.9496H10.8816V12.2139H9.42702ZM10.8816 9.55282V9.88592H9.42702V9.55282H10.8816Z" fill="#B6B8BD"/>
<path d="M6.36326 14.2314H3.97242C3.71393 14.2314 3.50427 14.4696 3.50427 14.7633V18.488C3.50427 18.7816 3.71393 19.0198 3.97242 19.0198H6.36319C6.62168 19.0198 6.83134 18.7816 6.83134 18.488V14.7633C6.83141 14.4695 6.62176 14.2314 6.36326 14.2314ZM5.89511 15.2951V15.6282H4.44057V15.2951H5.89511ZM4.44057 17.9562V16.6918H5.89504V17.9562H4.44057Z" fill="#B6B8BD"/>
<path d="M17.7024 10.2617H15.3117C15.0532 10.2617 14.8435 10.4999 14.8435 10.7935V14.5183C14.8435 14.8119 15.0532 15.0501 15.3117 15.0501H17.7024C17.9609 15.0501 18.1706 14.8119 18.1706 14.5183V10.7935C18.1706 10.4999 17.9609 10.2617 17.7024 10.2617ZM17.2343 11.3254V11.6586H15.7798V11.3254H17.2343ZM15.7798 13.9865V12.7222H17.2343V13.9865H15.7798Z" fill="#B6B8BD"/>
<path d="M22.6888 10.2617H20.298C20.0395 10.2617 19.8298 10.4999 19.8298 10.7935V14.5183C19.8298 14.8119 20.0395 15.0501 20.298 15.0501H22.6888C22.9473 15.0501 23.157 14.8119 23.157 14.5183V10.7935C23.157 10.4999 22.9473 10.2617 22.6888 10.2617ZM22.2207 11.3254V11.6586H20.7661V11.3254H22.2207ZM20.7661 13.9865V12.7222H22.2207V13.9865H20.7661Z" fill="#B6B8BD"/>
<path d="M17.7024 16.0044H15.3117C15.0532 16.0044 14.8435 16.2426 14.8435 16.5362V20.2609C14.8435 20.5545 15.0532 20.7927 15.3117 20.7927H17.7024C17.9609 20.7927 18.1706 20.5545 18.1706 20.2609V16.5362C18.1706 16.2425 17.9609 16.0044 17.7024 16.0044ZM17.2343 17.068V17.4011H15.7798V17.068H17.2343ZM15.7798 19.729V18.4647H17.2343V19.729H15.7798Z" fill="#B6B8BD"/>
<path d="M26.6508 16.8352H29.0415C29.3 16.8352 29.5097 16.5971 29.5097 16.3034V12.5787C29.5097 12.285 29.3 12.0469 29.0415 12.0469H26.6508C26.3923 12.0469 26.1826 12.285 26.1826 12.5787V16.3034C26.1826 16.5971 26.3922 16.8352 26.6508 16.8352ZM27.1189 15.7716V14.5073H28.5734V15.7716H27.1189ZM28.5734 13.1104V13.4436H27.1189V13.1104H28.5734Z" fill="#B6B8BD"/>
<path d="M31.6372 16.8352H34.028C34.2865 16.8352 34.4961 16.5971 34.4961 16.3034V12.5787C34.4961 12.285 34.2865 12.0469 34.028 12.0469H31.6372C31.3787 12.0469 31.169 12.285 31.169 12.5787V16.3034C31.169 16.5971 31.3787 16.8352 31.6372 16.8352ZM32.1053 15.7716V14.5073H33.5598V15.7716H32.1053ZM33.5598 13.1104V13.4436H32.1053V13.1104H33.5598Z" fill="#B6B8BD"/>
<path d="M26.6508 22.5773H29.0415C29.3 22.5773 29.5097 22.3392 29.5097 22.0455V18.3209C29.5097 18.0272 29.3 17.7891 29.0415 17.7891H26.6508C26.3923 17.7891 26.1826 18.0272 26.1826 18.3209V22.0455C26.1826 22.3392 26.3922 22.5773 26.6508 22.5773ZM27.1189 21.5137V20.2494H28.5734V21.5137H27.1189ZM28.5734 18.8526V19.1857H27.1189V18.8526H28.5734Z" fill="#B6B8BD"/>
<path d="M37.5942 24.4776L36.7627 24.3508V11.1701H37.3752C37.6337 11.1701 37.8433 10.932 37.8433 10.6383V4.89646C37.8433 4.6028 37.6337 4.36464 37.3752 4.36464H26.5039V3.11121C26.5039 2.81756 26.2943 2.57939 26.0358 2.57939H15.1649V1.33847C15.1649 1.04481 14.9554 0.806641 14.6968 0.806641H0.625298C0.366723 0.806641 0.157148 1.04481 0.157148 1.33847V7.08084C0.157148 7.3745 0.366723 7.61267 0.625298 7.61267H1.23779V18.9329L0.530497 18.825C0.274341 18.7854 0.0386278 18.9903 0.0042188 19.2813C-0.0301902 19.5724 0.149657 19.8401 0.405892 19.8791L37.4695 25.5316C37.4906 25.5349 37.5116 25.5365 37.5324 25.5365C37.7632 25.5365 37.9642 25.3425 37.9958 25.0753C38.0303 24.7843 37.8504 24.5167 37.5942 24.4776ZM35.8263 24.2081L35.316 24.1303V23.0547C35.316 22.7611 35.1063 22.5229 34.8478 22.5229H34.4961V18.321C34.4961 18.0274 34.2865 17.7892 34.028 17.7892H31.6371C31.3786 17.7892 31.169 18.0274 31.169 18.321V22.5229H30.8178C30.5593 22.5229 30.3496 22.7611 30.3496 23.0547V23.3729L25.4239 22.6216V11.1701H35.8262V24.2081H35.8263ZM33.5599 22.5229H32.1053V18.8529H33.5599V22.5229ZM34.3798 23.5866V23.9875L31.751 23.5866H34.3798ZM22.2207 20.7377H20.7662V17.0681H22.2207V20.7377ZM23.0404 21.8014V22.2581L20.046 21.8014H23.0404ZM23.5086 20.7377H23.157V16.5362C23.157 16.2426 22.9474 16.0044 22.6889 16.0044H20.2981C20.0396 16.0044 19.8299 16.2426 19.8299 16.5362V20.7377H19.4785C19.22 20.7377 19.0103 20.9759 19.0103 21.2696V21.6434L14.0846 20.8922V9.38595H24.4877V22.4789L23.9766 22.4009V21.2697C23.9767 20.9758 23.767 20.7377 23.5086 20.7377ZM26.5039 8.85412V5.42837H36.9069V10.1066H25.424V9.38595H26.0357C26.2943 9.38595 26.5039 9.14778 26.5039 8.85412ZM15.1649 7.08093V3.64313H25.5676V8.3223H14.0846V7.61276H14.6968C14.9554 7.61276 15.1649 7.37459 15.1649 7.08093ZM1.09345 1.87038H14.2286V6.54911H1.71351C1.71102 6.54911 1.70852 6.54866 1.70594 6.54866C1.70337 6.54866 1.70095 6.54902 1.69838 6.54911H1.09345V1.87038ZM2.17417 7.61276H13.1484V20.7494L12.6373 20.6715V19.4968C12.6373 19.2032 12.4277 18.965 12.1692 18.965H11.8179V14.7632C11.8179 14.4696 11.6083 14.2314 11.3498 14.2314H8.95891C8.70042 14.2314 8.49076 14.4696 8.49076 14.7632V18.965H8.13918C7.88069 18.965 7.67103 19.2032 7.67103 19.4968V19.9141L2.17417 19.0758V7.61276ZM10.8816 18.965H9.42706V15.2951H10.8816V18.965ZM8.60733 20.0286H11.701V20.5287L8.60733 20.0569V20.0286Z" fill="#B6B8BD"/>
</svg>
